<svg width="113" height="27" viewBox="0 0 113 27" fill="none" xmlns="http://www.w3.org/2000/svg">
<g clip-path="url(#clip0_149_3991)">
<path d="M6.82599 5.33196C6.72557 4.21536 6.5059 3.41037 6.16697 2.91699C5.8406 2.42361 5.3887 2.17692 4.81127 2.17692C4.38448 2.17692 4.01417 2.28079 3.70035 2.48853C3.38653 2.69627 3.1292 3.03384 2.92836 3.50126C2.72751 3.96867 2.57688 4.5854 2.47646 5.35144C2.38859 6.10449 2.34465 7.02633 2.34465 8.11696C2.34465 9.20759 2.38859 10.1359 2.47646 10.902C2.57688 11.655 2.72751 12.2653 2.92836 12.7327C3.1292 13.2001 3.38653 13.5377 3.70035 13.7454C4.01417 13.9531 4.38448 14.057 4.81127 14.057C5.1502 14.057 5.45146 13.9921 5.71507 13.8622C5.99123 13.7324 6.22346 13.5247 6.41175 13.239C6.60004 12.9534 6.7444 12.5834 6.84482 12.1289C6.94524 11.6745 7.00173 11.1227 7.01428 10.4735H8.48296C8.45785 12.0445 8.13148 13.252 7.50384 14.096C6.8762 14.9269 5.97868 15.3424 4.81127 15.3424C4.20874 15.3424 3.66269 15.219 3.17313 14.9724C2.68358 14.7127 2.26933 14.2972 1.93041 13.7259C1.59148 13.1546 1.32788 12.4081 1.13958 11.4862C0.963846 10.5644 0.875977 9.4413 0.875977 8.11696C0.875977 6.79263 0.963846 5.66954 1.13958 4.74769C1.32788 3.82585 1.59148 3.07929 1.93041 2.508C2.26933 1.93672 2.68358 1.52774 3.17313 1.28105C3.66269 1.02137 4.20874 0.891533 4.81127 0.891533C5.82805 0.891533 6.63142 1.25508 7.2214 1.98216C7.82394 2.70925 8.18169 3.82585 8.29467 5.33196H6.82599ZM22.5295 8.11696C22.5295 6.92246 22.4668 5.94219 22.3412 5.17615C22.2157 4.41012 22.0462 3.80637 21.8328 3.36493C21.6194 2.9105 21.3684 2.59889 21.0797 2.4301C20.791 2.26131 20.4834 2.17692 20.157 2.17692C19.8307 2.17692 19.5231 2.26131 19.2344 2.4301C18.9457 2.59889 18.6946 2.9105 18.4812 3.36493C18.2678 3.80637 18.0984 4.41012 17.9729 5.17615C17.8473 5.94219 17.7846 6.92246 17.7846 8.11696C17.7846 9.31146 17.8473 10.2917 17.9729 11.0578C18.0984 11.8238 18.2678 12.434 18.4812 12.8885C18.6946 13.3299 18.9457 13.635 19.2344 13.8038C19.5231 13.9726 19.8307 14.057 20.157 14.057C20.4834 14.057 20.791 13.9726 21.0797 13.8038C21.3684 13.635 21.6194 13.3299 21.8328 12.8885C22.0462 12.434 22.2157 11.8238 22.3412 11.0578C22.4668 10.2917 22.5295 9.31146 22.5295 8.11696ZM23.9982 8.11696C23.9982 9.42832 23.904 10.5449 23.7158 11.4668C23.54 12.3756 23.2827 13.1222 22.9438 13.7064C22.6048 14.2777 22.1969 14.6932 21.7199 14.9529C21.2554 15.2126 20.7345 15.3424 20.157 15.3424C19.5796 15.3424 19.0524 15.2126 18.5754 14.9529C18.1109 14.6932 17.7092 14.2777 17.3703 13.7064C17.0314 13.1222 16.7678 12.3756 16.5795 11.4668C16.4038 10.5449 16.3159 9.42832 16.3159 8.11696C16.3159 6.80561 16.4038 5.6955 16.5795 4.78664C16.7678 3.8648 17.0314 3.11824 17.3703 2.54696C17.7092 1.96269 18.1109 1.54072 18.5754 1.28105C19.0524 1.02137 19.5796 0.891533 20.157 0.891533C20.7345 0.891533 21.2554 1.02137 21.7199 1.28105C22.1969 1.54072 22.6048 1.96269 22.9438 2.54696C23.2827 3.11824 23.54 3.8648 23.7158 4.78664C23.904 5.6955 23.9982 6.80561 23.9982 8.11696ZM33.6011 13.8622H34.3919C34.9317 13.8622 35.4087 13.7908 35.8229 13.648C36.2497 13.4922 36.6075 13.2066 36.8962 12.7911C37.1849 12.3756 37.4046 11.7978 37.5552 11.0578C37.7058 10.3047 37.7811 9.32445 37.7811 8.11696C37.7811 6.90948 37.7058 5.9357 37.5552 5.19563C37.4046 4.44258 37.1849 3.85831 36.8962 3.44283C36.6075 3.02735 36.2497 2.7482 35.8229 2.60538C35.4087 2.44958 34.9317 2.37168 34.3919 2.37168H33.6011V13.8622ZM32.1324 1.08629H34.6555C35.371 1.08629 36.0112 1.20314 36.5761 1.43685C37.1409 1.65757 37.618 2.04059 38.0071 2.58591C38.4088 3.11824 38.7163 3.83883 38.9297 4.74769C39.1431 5.64357 39.2498 6.76666 39.2498 8.11696C39.2498 9.46727 39.1431 10.5968 38.9297 11.5057C38.7163 12.4016 38.4088 13.1222 38.0071 13.6675C37.618 14.1998 37.1409 14.5828 36.5761 14.8166C36.0112 15.0373 35.371 15.1476 34.6555 15.1476H32.1324V1.08629ZM53.7859 1.08629V2.37168H49.041V7.16266H52.5432V8.44805H49.041V13.8622H54.0119V15.1476H47.5723V1.08629H53.7859ZM64.1859 6.85105H65.0332C65.4726 6.85105 65.8429 6.70174 66.1441 6.40311C66.4454 6.09151 66.596 5.64357 66.596 5.0593C66.596 3.73496 66.0876 3.0728 65.0709 3.0728H64.1859V6.85105ZM64.1859 13.1611H65.165C65.7927 13.1611 66.232 12.9794 66.4831 12.6158C66.7341 12.2523 66.8596 11.7134 66.8596 10.9993C66.8596 10.2723 66.7153 9.73343 66.4266 9.38287C66.1379 9.01933 65.642 8.83756 64.9391 8.83756H64.1859V13.1611ZM61.8511 1.08629H65.3157C66.5709 1.08629 67.4873 1.40439 68.0647 2.04059C68.6421 2.67679 68.9308 3.59864 68.9308 4.80612C68.9308 5.10474 68.8995 5.40986 68.8367 5.72147C68.7739 6.0201 68.6735 6.29924 68.5354 6.55892C68.4099 6.81859 68.2404 7.0523 68.027 7.26004C67.8262 7.46778 67.5877 7.63007 67.3115 7.74693C67.9141 8.01959 68.3785 8.41559 68.7049 8.93494C69.0313 9.45428 69.1945 10.1684 69.1945 11.0772C69.1945 11.6615 69.1254 12.2003 68.9873 12.6937C68.8618 13.1871 68.6547 13.6156 68.366 13.9791C68.0773 14.3426 67.7007 14.6283 67.2362 14.836C66.7718 15.0438 66.2069 15.1476 65.5416 15.1476H61.8511V1.08629ZM77.178 15.1476V1.08629H79.5128V13.0443H83.1846V15.1476H77.178ZM90.6347 1.08629H92.9695V11.7005C92.9695 12.7262 93.3838 13.239 94.2122 13.239C95.0407 13.239 95.455 12.7262 95.455 11.7005V1.08629H97.7898V11.6031C97.7898 12.8236 97.4697 13.7519 96.8295 14.3881C96.2019 15.0243 95.3294 15.3424 94.2122 15.3424C93.095 15.3424 92.2164 15.0243 91.5762 14.3881C90.9485 13.7519 90.6347 12.8236 90.6347 11.6031V1.08629ZM106.075 15.1476V1.08629H112.326V3.18965H108.409V6.8121H111.422V8.91546H108.409V13.0443H112.589V15.1476H106.075Z" fill="white"/>
</g>
<rect x="73.3818" y="22.9883" width="11.1123" height="0.957815" fill="#D9D9D9"/>
<path d="M91.6514 19.2081V19.9017H93.1552V26.7963H93.9478V19.9017H95.4517V19.2081H91.6514Z" fill="#009AFE"/>
<path d="M96.0864 26.7963H96.818V21.3311H96.0864V26.7963ZM96.0864 20.0909H96.818V19.2081H96.0864V20.0909Z" fill="#009AFE"/>
<path d="M99.4718 26.7963V22.4241C99.6648 22.1824 99.9189 21.8566 100.366 21.8566C100.752 21.8566 100.945 22.0248 100.945 22.5923V26.7963H101.677V22.4241C101.9 22.1824 102.154 21.8566 102.601 21.8566C102.988 21.8566 103.15 22.0248 103.15 22.5923V26.7963H103.882V22.4872C103.882 21.7094 103.506 21.226 102.815 21.226C102.297 21.226 101.88 21.5833 101.585 21.9197C101.453 21.5098 101.057 21.226 100.64 21.226C100.132 21.226 99.6953 21.5833 99.4108 21.9302V21.3311H98.7401V26.7963H99.4718Z" fill="#009AFE"/>
<path d="M106.142 23.5592C106.153 22.256 106.498 21.8566 107.026 21.8566C107.687 21.8566 107.89 22.3821 107.91 23.5592H106.142ZM108.642 24.1898V23.8325C108.642 22.256 108.144 21.226 107.026 21.226C105.919 21.226 105.411 22.0878 105.411 24.0637C105.411 26.0396 105.919 26.9014 107.026 26.9014C107.992 26.9014 108.591 26.1447 108.703 25.3249L108.012 25.2408C107.921 25.7348 107.687 26.2708 107.128 26.2708C106.437 26.2708 106.142 25.8294 106.142 24.4946V24.1898H108.642Z" fill="#009AFE"/>
<path d="M112.749 22.5292C112.576 21.7094 112.088 21.226 111.275 21.226C110.473 21.226 109.904 21.8356 109.904 22.5503C109.904 24.1583 112.139 24.1793 112.139 25.4405C112.139 25.8925 111.773 26.2708 111.377 26.2708C110.838 26.2708 110.564 25.7874 110.412 25.3039L109.741 25.451C109.995 26.3654 110.473 26.9014 111.428 26.9014C112.261 26.9014 112.871 26.2498 112.871 25.388C112.871 23.6853 110.635 23.6223 110.635 22.5082C110.635 22.1404 110.879 21.8566 111.225 21.8566C111.814 21.8566 112.007 22.2455 112.139 22.7184L112.749 22.5292Z" fill="#009AFE"/>
<defs>
<clipPath id="clip0_149_3991">
<rect width="112.975" height="16.2296" fill="white"/>
</clipPath>
</defs>
</svg>
