<svg width="25" height="24" viewBox="0 0 25 24" fill="none" xmlns="http://www.w3.org/2000/svg">
<path d="M12.752 4.24976C10.0007 4.24976 7.51991 5.33094 5.72552 6.84802C3.95074 8.34852 2.75 10.3653 2.75 12.3018C2.75 14.2382 3.95074 16.255 5.72552 17.7555C6.0593 18.0377 6.41684 18.3048 6.79544 18.5527L7.87049 17.4582C7.44946 17.2009 7.0557 16.9159 6.69396 16.61C5.12025 15.2795 4.25 13.6453 4.25 12.3018C4.25 10.9583 5.12025 9.324 6.69396 7.99349C8.24806 6.67957 10.3932 5.74976 12.752 5.74976C14.6613 5.74976 16.4309 6.35878 17.8603 7.28774L18.9298 6.1989C17.2367 5.03163 15.092 4.24976 12.752 4.24976Z" fill="white"/>
<path d="M20.7663 7.80112C20.4917 7.4974 20.0208 7.50678 19.7339 7.79888C19.4406 8.09744 19.4523 8.57628 19.7288 8.89038C20.7187 10.0146 21.2539 11.2471 21.2539 12.3018C21.2539 13.6468 20.3834 15.281 18.8097 16.6111C17.2555 17.9246 15.1103 18.8538 12.752 18.8538C11.7724 18.8538 10.8296 18.6934 9.95075 18.4117C9.65823 18.318 9.33459 18.3863 9.11935 18.6054C8.74179 18.9898 8.86437 19.6316 9.37557 19.8019C10.4284 20.1525 11.565 20.3538 12.752 20.3538C15.5026 20.3538 17.9833 19.2734 19.7779 17.7567C21.5529 16.2565 22.7539 14.2397 22.7539 12.3018C22.7539 10.7502 21.9841 9.14817 20.7663 7.80112Z" fill="white"/>
<path fill-rule="evenodd" clip-rule="evenodd" d="M10.4543 15.6173C10.2623 15.6173 10.0703 15.5443 9.9243 15.3973C9.1863 14.6603 8.7793 13.6803 8.7793 12.6383C8.7793 10.4783 10.5353 8.72131 12.6933 8.72131C13.7313 8.72131 14.7393 9.14031 15.4583 9.87131C15.7483 10.1673 15.7453 10.6413 15.4493 10.9313C15.1543 11.2233 14.6803 11.2183 14.3893 10.9243C13.9503 10.4773 13.3323 10.2213 12.6933 10.2213C11.3623 10.2213 10.2793 11.3053 10.2793 12.6383C10.2793 13.2793 10.5303 13.8833 10.9843 14.3373C11.2773 14.6303 11.2773 15.1043 10.9853 15.3973C10.8383 15.5443 10.6463 15.6173 10.4543 15.6173Z" fill="#009AFE"/>
<path fill-rule="evenodd" clip-rule="evenodd" d="M13.2609 16.4913C12.9059 16.4913 12.5899 16.2373 12.5239 15.8753C12.4499 15.4683 12.7199 15.0773 13.1279 15.0033C14.1079 14.8253 14.8839 14.0473 15.0599 13.0663C15.1339 12.6593 15.5239 12.3913 15.9309 12.4613C16.3389 12.5343 16.6099 12.9243 16.5369 13.3323C16.2499 14.9253 14.9879 16.1893 13.3959 16.4793C13.3509 16.4873 13.3049 16.4913 13.2609 16.4913Z" fill="#009AFE"/>
<path fill-rule="evenodd" clip-rule="evenodd" d="M4.80639 21.2735C4.61439 21.2735 4.42239 21.2005 4.27639 21.0535C3.98339 20.7605 3.98339 20.2865 4.27639 19.9935L20.0504 4.21951C20.3434 3.92651 20.8174 3.92651 21.1104 4.21951C21.4034 4.51251 21.4034 4.98751 21.1104 5.28051L5.33639 21.0535C5.19039 21.2005 4.99839 21.2735 4.80639 21.2735Z" fill="#009AFE"/>
</svg>
