<svg width="15" height="15" viewBox="0 0 15 15" fill="none" xmlns="http://www.w3.org/2000/svg">
<path fill-rule="evenodd" clip-rule="evenodd" d="M7.5 2.1875C4.57063 2.1875 2.1875 4.57063 2.1875 7.5C2.1875 10.4294 4.57063 12.8125 7.5 12.8125C10.4294 12.8125 12.8125 10.4294 12.8125 7.5C12.8125 4.57063 10.4294 2.1875 7.5 2.1875ZM7.5 13.75C4.05375 13.75 1.25 10.9462 1.25 7.5C1.25 4.05375 4.05375 1.25 7.5 1.25C10.9462 1.25 13.75 4.05375 13.75 7.5C13.75 10.9462 10.9462 13.75 7.5 13.75Z" fill="#FF2D6C"/>
<path fill-rule="evenodd" clip-rule="evenodd" d="M7.49609 8.35813C7.23734 8.35813 7.02734 8.14813 7.02734 7.88938V5.1275C7.02734 4.86875 7.23734 4.65875 7.49609 4.65875C7.75484 4.65875 7.96484 4.86875 7.96484 5.1275V7.88938C7.96484 8.14813 7.75484 8.35813 7.49609 8.35813Z" fill="#FF2D6C"/>
<path fill-rule="evenodd" clip-rule="evenodd" d="M7.50313 10.4974C7.1575 10.4974 6.875 10.2181 6.875 9.87244C6.875 9.52681 7.15188 9.24744 7.49687 9.24744H7.50313C7.84875 9.24744 8.12813 9.52681 8.12813 9.87244C8.12813 10.2181 7.84875 10.4974 7.50313 10.4974Z" fill="#FF2D6C"/>
</svg>
