<svg width="45" height="45" viewBox="0 0 45 45" fill="none" xmlns="http://www.w3.org/2000/svg">
<g clip-path="url(#clip0_45_4208)">
<path fill-rule="evenodd" clip-rule="evenodd" d="M0 0H45V22.8375H0V0Z" fill="#FF0000"/>
<path fill-rule="evenodd" clip-rule="evenodd" d="M0 22.1625H45V45H0V22.1625Z" fill="black"/>
<path fill-rule="evenodd" clip-rule="evenodd" d="M16.0812 13.8938C27.6969 17.9531 20.2297 37.8563 11.068 29.5688L10.4492 30.8438C15.8422 35.9625 21.1789 31.8375 22.6836 26.4938C24.2445 20.9813 22.1492 13.2281 16.1727 12.4313L16.0812 13.8938Z" fill="#FFEC00"/>
<path fill-rule="evenodd" clip-rule="evenodd" d="M11.9516 31.0125L13.4773 31.9594L12.7602 34.0031L11.2344 33.0469L11.9516 31.0125ZM22.4281 21.6844H24.1156V23.9344H22.4281V21.6844ZM21.6055 18.0375L23.1734 17.2313L23.7852 19.3219L22.2172 20.1375L21.6055 18.0375ZM19.7773 15.3094L20.9797 13.725L22.168 15.3187L20.9727 16.9031L19.7773 15.3094ZM17.9352 11.5781L19.5102 12.3656L18.9125 14.4656L17.3375 13.6781L17.9352 11.5781ZM22.2172 25.3125L23.7852 26.1469L23.1523 28.2281L21.5914 27.3938L22.2172 25.3125ZM17.3023 31.875L18.8492 31.0031L19.5172 33.0656L17.9703 33.9469L17.3023 31.875ZM14.525 32.1375H16.2125V34.3875H14.525V32.1375ZM17.4289 21.2625L16.0016 19.8563L14.5742 21.225L15.1367 19.0687L13.7094 17.6625H15.432L16.0297 15.5438L16.5781 17.6719L18.3148 17.6437L16.9367 19.0781L17.4289 21.2719V21.2625Z" fill="#FFEC00"/>
<path fill-rule="evenodd" clip-rule="evenodd" d="M23.6234 32.475C23.5391 32.5125 23.1875 33.6375 22.9414 34.1812L23.2016 34.275C24.1578 34.725 24.6359 35.1375 25.0438 35.9156C25.1381 36.0381 25.262 36.1119 25.3933 36.124C25.5247 36.136 25.655 36.0854 25.7609 35.9812C25.7609 35.9812 25.9578 35.8875 26.2109 35.5125C26.4219 35.0906 26.3656 34.7625 26.1125 34.4719C25.3391 33.7219 24.5023 33.1594 23.6234 32.475Z" fill="#FFEE00"/>
<path fill-rule="evenodd" clip-rule="evenodd" d="M25.6867 34.95C25.6867 35.0582 25.6545 35.1619 25.5971 35.2384C25.5398 35.3149 25.462 35.3578 25.3809 35.3578C25.2997 35.3578 25.2219 35.3149 25.1646 35.2384C25.1072 35.1619 25.075 35.0582 25.075 34.95C25.075 34.8431 25.1069 34.7406 25.1636 34.665C25.2203 34.5894 25.2972 34.5469 25.3773 34.5469C25.4575 34.5469 25.5344 34.5894 25.5911 34.665C25.6478 34.7406 25.6797 34.8431 25.6797 34.95H25.6867ZM24.182 33.675C24.182 33.7832 24.1498 33.8869 24.0924 33.9634C24.0351 34.0399 23.9573 34.0828 23.8762 34.0828C23.7951 34.0828 23.7173 34.0399 23.6599 33.9634C23.6025 33.8869 23.5703 33.7832 23.5703 33.675C23.5703 33.5669 23.6025 33.4631 23.6599 33.3867C23.7173 33.3102 23.7951 33.2672 23.8762 33.2672C23.9573 33.2672 24.0351 33.3102 24.0924 33.3867C24.1498 33.4631 24.182 33.5669 24.182 33.675ZM24.9484 34.3313C24.9484 34.4394 24.9162 34.5432 24.8589 34.6196C24.8015 34.6961 24.7237 34.7391 24.6426 34.7391C24.5615 34.7391 24.4837 34.6961 24.4263 34.6196C24.3689 34.5432 24.3367 34.4394 24.3367 34.3313C24.3367 34.2231 24.3689 34.1194 24.4263 34.0429C24.4837 33.9664 24.5615 33.9235 24.6426 33.9235C24.7237 33.9235 24.8015 33.9664 24.8589 34.0429C24.9162 34.1194 24.9484 34.2231 24.9484 34.3313Z" fill="black"/>
<path fill-rule="evenodd" clip-rule="evenodd" d="M22.817 34.0969C19.8217 31.8187 16.6787 29.3625 13.6764 27.0843C12.3616 25.9875 12.2983 23.9531 13.1842 22.4062C13.2686 22.1906 13.3811 22.2375 13.4233 22.3594C13.5287 23.1094 13.8452 23.8875 14.2248 24.375C17.3412 26.9887 20.4282 29.664 23.485 32.4C23.2459 32.9437 23.0631 33.5531 22.817 34.0875V34.0969Z" fill="#FFEE00"/>
<path fill-rule="evenodd" clip-rule="evenodd" d="M20.8984 28.6406L22.15 30.1406L21.025 31.8094L19.7734 30.3094L20.8984 28.6406Z" fill="#FFEC00"/>
<path fill-rule="evenodd" clip-rule="evenodd" d="M14.5739 25.5015L23.363 32.5797L23.2539 32.8204L14.4648 25.7423L14.5739 25.5015ZM19.3228 28.3914L22.283 30.9508L22.1682 31.1868L19.2081 28.6274L19.3228 28.3914ZM17.5815 30.0658L20.5979 32.3908L20.4924 32.6343L17.476 30.3093L17.5815 30.0658Z" fill="black"/>
</g>
<defs>
<clipPath id="clip0_45_4208">
<rect width="45" height="45" fill="white"/>
</clipPath>
</defs>
</svg>
