<svg width="45" height="45" viewBox="0 0 45 45" fill="none" xmlns="http://www.w3.org/2000/svg">
<g clip-path="url(#clip0_45_4219)">
<path d="M0 0H45V45H0V0Z" fill="#3A7DCE"/>
<path d="M11.0891 21.6375C10.843 20.9062 10.843 20.9062 10.843 20.175C10.7164 20.175 10.7023 20.2031 10.632 20.175C10.5547 20.1469 10.5266 20.85 10.2945 20.7187C10.2594 20.6437 10.4633 20.1375 10.2453 19.9219C10.175 19.8562 10.2594 19.4344 10.2313 19.2469C10.2313 19.2469 9.95 19.4719 9.73906 18.7031C9.63359 18.4969 9.49297 18.8906 9.49297 18.8906C9.49297 18.8906 9.55625 19.1156 9.44375 19.1719C9.28906 19.0031 9.16953 19.0969 8.97266 18.8531C8.77578 18.6187 9.01484 18.3469 8.63516 18.15C8.88125 17.2312 8.88125 17.4094 9.49297 17.0437C9.12734 16.6687 9.12734 16.6687 8.88125 16.125C8.51563 15.9375 8.38906 15.75 8.02344 15.3937C7.53125 14.4656 7.28516 12.6281 7.28516 11.3437C7.59453 10.9125 8.02344 12.8156 8.63516 13.3687L9.49297 13.9219C9.98516 14.2875 10.1047 14.6531 10.4773 15.0187L11.5742 15.5812C12.0664 16.125 12.3125 16.8562 12.6781 17.0437C13.0789 17.0437 13.1562 16.6969 13.2828 16.6781C14.007 16.6219 14.3727 16.4906 14.5133 16.1625C14.6609 15.9 15.0055 16.3125 15.9898 15.7594L15.8703 15.0187C15.8703 15.0187 16.1305 14.7 16.482 14.8312C16.475 14.5031 16.4469 13.6125 16.7984 13.2C16.5875 12.8719 16.925 12.3562 16.9391 12.1969C16.8406 11.3906 17.0375 11.3812 17.0797 11.1375C17.1219 10.9031 16.9109 10.9781 16.9672 10.65C17.0305 10.3219 17.3891 10.2469 17.4312 9.975C17.4805 9.70312 17.3539 8.63437 17.3398 8.4C18.0008 8.1375 18.2117 7.33125 18.4437 7.66875C18.5633 6.5625 18.6898 6.1875 19.4281 6.1875C19.5266 5.85 19.1539 5.55937 19.3016 5.44687C19.5477 5.4 19.7305 5.42812 20.0188 5.98125C20.1102 6.16875 20.1313 5.72812 20.2227 5.68125C20.3141 5.63437 20.532 5.63437 20.5672 5.41875C20.6023 5.19375 20.6516 4.89375 20.7781 4.52812C20.8766 4.22812 20.9539 4.65 21.0453 5.23125C21.5656 5.25937 22.7328 5.42812 23.225 5.63437C23.5906 5.775 23.8367 5.49375 24.1883 5.42812C24.4484 5.82187 24.6945 5.52187 24.8352 6.36562C25.025 6.81562 25.3484 6.40312 25.4187 6.53437C25.8266 8.23125 27.2328 7.0875 27.3453 7.11562C27.5211 7.11562 27.7391 7.86562 27.8867 7.85625C28.1117 7.8 28.0484 7.56562 28.2523 7.65937C28.1961 8.29687 28.6461 9.02812 28.6461 9.50625C28.6461 9.50625 28.7516 9.59062 28.857 9.45C28.9555 9.3 29.0469 8.94375 29.1383 8.95312C29.3492 9 30.6852 9.51562 30.9523 9.69375C31.0719 10.0219 31.1844 10.1906 31.4305 10.1344C31.6273 10.3312 31.4867 10.6031 31.5992 10.6125C31.8453 10.425 31.9297 10.2375 32.1758 10.4156C32.4219 10.6031 32.668 10.9687 32.7875 11.3344C32.7875 11.5219 32.6609 12.2531 32.7875 13.3594C32.8508 13.725 33.4695 16.3875 33.4695 16.6594C33.4695 17.0344 33.2797 17.2219 33.1531 17.5875C33.6453 18.1406 33.1531 19.0594 32.907 19.6125C34.7492 20.1656 33.8914 21.2625 35.3609 20.7094C34.9953 22.0031 35.1219 21.9 35.4875 23.1844C34.7563 23.9156 35.4734 24.1406 34.9883 25.0594C34.9531 25.125 35.2766 25.8656 35.7266 25.8656C35.607 27.3281 35.2344 26.7844 35.3609 28.9875C34.3977 28.9594 34.7844 30.6375 34.1375 30.4594C34.1727 31.5094 34.5031 31.6031 34.3766 32.6625C33.8844 32.85 33.8844 32.85 33.6453 33.4031L33.2797 33.2156C33.1531 34.1344 32.907 34.3219 33.2797 35.2406C33.2797 35.2406 32.8016 35.2594 32.6609 35.2406C32.6539 35.5594 32.8719 35.6437 32.907 35.9719C32.893 36.1031 32.2109 36.6844 31.6836 36.7125C31.543 37.1625 32.0492 37.65 32.0211 37.875C31.4445 38.0437 31.1914 39.0938 31.1914 39.0938C31.1914 39.0938 31.4867 39.2812 31.4375 39.4688C31.2828 39.3 31.1914 39.2812 30.9453 39.2812C30.8258 39.3281 30.5234 39.2812 30.2422 40.0031C29.9258 40.1531 29.7781 40.0969 29.5391 40.5656C29.4336 40.125 29.2789 40.575 29.0961 40.7531C28.9062 40.9219 28.6602 41.3625 28.625 41.3438C28.632 41.2125 28.7375 40.7531 28.7375 40.7531L28.0555 40.9688C28.0063 40.9781 28.0203 40.4344 27.9008 40.4531C27.7812 40.4719 27.4508 41.1375 27.3383 41.1562C27.2258 41.175 27.1906 40.95 27.0922 40.9688C26.9937 40.9875 26.8109 41.6719 26.7406 41.6906C26.6703 41.7 26.3891 41.2687 26.157 41.3344C24.9547 41.9719 24.7578 40.0781 24.575 41.1469C24.3219 40.9406 24.3641 41.0531 24.1039 41.1562C23.9422 41.2219 23.9281 40.8375 23.7805 40.8375C23.4922 40.8562 23.4992 41.2687 23.3445 41.1469C23.218 40.2844 22.4305 40.4344 22.3602 40.0687C22.2898 39.6937 22.6977 39.6937 22.8242 39.4312C22.9227 39.0562 22.7187 38.9062 23.1266 38.55C23.6539 38.0156 23.6047 36.6937 23.4711 36.1781C23.4711 36.1781 23.0562 34.5187 22.9789 34.5187C22.7328 34.425 22.7328 35.1281 22.3742 35.325C21.6359 35.7 20.3352 34.3969 20.1102 34.3969C19.9062 34.3969 18.95 34.7344 18.9852 34.0219C18.8445 34.7156 18.3172 34.1812 18.282 34.1812C17.7898 34.1812 17.9797 34.7531 17.6492 34.7344C17.5016 34.6594 15.9898 34.5187 15.9898 34.5187V34.8937L14.1547 33.7875C13.4164 33.4125 13.782 32.5031 12.5586 33.0562V31.95H11.9469C12.193 29.7375 11.9469 30.8437 11.8203 28.8187L11.3281 29.0062C10.8359 28.0125 12.0172 28.2 10.9625 27.5344C10.9625 27.5344 10.9836 26.4375 10.7164 26.8031C10.6672 26.85 10.843 27.3469 10.843 27.3469C9.85859 27.1594 9.61953 26.8031 9.61953 25.3312C9.61953 25.3312 10.4211 25.5 10.3508 25.3312C10.2383 25.05 10.0906 23.2687 10.1117 23.1375C10.1047 22.8937 10.8641 22.2937 10.7164 21.7125C10.8148 21.6562 11.0891 21.6469 11.0891 21.6469" fill="white"/>
<path fill-rule="evenodd" clip-rule="evenodd" d="M7.19273 12.7578C7.19884 12.7579 7.20458 12.758 7.20975 12.758C7.25404 12.758 7.28994 12.8058 7.28994 12.8649C7.28994 12.9055 7.27347 12.9311 7.2675 12.9395C7.26045 12.9494 7.25353 12.9553 7.25062 12.9577C7.24444 12.9628 7.23854 12.9662 7.23644 12.9675L7.23639 12.9675C7.23399 12.9689 7.22902 12.9716 7.22516 12.9737C7.22323 12.9747 7.22158 12.9756 7.22067 12.9761C7.21059 12.9817 7.19809 12.9892 7.18445 13.0007C7.15785 13.0231 7.12488 13.0618 7.10215 13.1334C7.08878 13.1755 7.05679 13.2016 7.02257 13.1983C6.98836 13.1951 6.95949 13.1632 6.95075 13.1189C6.93695 13.0491 6.93244 12.9832 6.94442 12.9247C6.95759 12.8605 6.98829 12.8166 7.02604 12.7911C7.06001 12.7681 7.09712 12.7616 7.12623 12.7592C7.14841 12.7573 7.17264 12.7576 7.19273 12.7578ZM7.17231 12.7715C7.17286 12.7711 7.17297 12.7711 7.17248 12.7714C7.17242 12.7714 7.17236 12.7714 7.17231 12.7715ZM7.23971 13.3398C7.23975 13.3398 7.23979 13.3398 7.22789 13.4455L7.23979 13.3398C7.26889 13.3456 7.29326 13.3722 7.30329 13.4091C7.31331 13.446 7.30738 13.4872 7.28783 13.5166C7.27801 13.5313 7.2672 13.5392 7.26475 13.5409C7.26466 13.541 7.26459 13.541 7.26452 13.5411C7.26071 13.5439 7.25714 13.5461 7.25548 13.5471C7.2535 13.5482 7.25214 13.549 7.25098 13.5497C7.24922 13.5508 7.24791 13.5515 7.2456 13.553C7.24001 13.5565 7.23276 13.5617 7.22426 13.5703C7.20774 13.5871 7.18114 13.6222 7.15601 13.6976C7.14181 13.7402 7.10855 13.7656 7.0738 13.7605C7.03906 13.7553 7.01084 13.7206 7.00406 13.6749C6.99269 13.5982 6.99618 13.5283 7.01871 13.4696C7.04161 13.4099 7.07851 13.3764 7.11219 13.3586C7.14479 13.3414 7.17683 13.3373 7.19856 13.3368C7.20984 13.3365 7.21945 13.3371 7.22647 13.3379C7.23 13.3382 7.23294 13.3386 7.23519 13.339C7.23631 13.3392 7.23726 13.3393 7.23803 13.3395L7.23905 13.3396L7.23946 13.3397L7.23963 13.3398L7.23971 13.3398ZM8.16991 16.2072C8.18672 16.2643 8.18861 16.331 8.17753 16.4058C8.17075 16.4515 8.14253 16.4861 8.10779 16.4913C8.07304 16.4965 8.03978 16.4711 8.02558 16.4285C7.99869 16.3478 7.97314 16.3033 7.95666 16.2794C7.94838 16.2674 7.94162 16.2594 7.93629 16.2534C7.93603 16.2531 7.93568 16.2527 7.93526 16.2522C7.93303 16.2497 7.92882 16.245 7.92576 16.2411C7.92391 16.2388 7.91923 16.2329 7.91458 16.2247L7.9145 16.2245C7.91152 16.2193 7.8977 16.1949 7.8977 16.1582C7.8977 16.1027 7.92952 16.0565 7.97098 16.0517L7.97789 16.1582C7.97098 16.0517 7.97102 16.0517 7.97107 16.0517L7.97116 16.0517L7.97136 16.0517L7.97182 16.0516L7.9729 16.0515C7.97371 16.0514 7.97468 16.0514 7.97581 16.0513C7.97805 16.0511 7.98092 16.051 7.98432 16.051C7.99109 16.051 8.00021 16.0514 8.01086 16.053C8.03147 16.0561 8.06144 16.0642 8.0913 16.0866C8.1225 16.11 8.15262 16.1485 8.16991 16.2072ZM35.9439 26.9594C35.9562 26.9192 35.9855 26.893 36.018 26.893H36.0241C36.0638 26.893 36.0976 26.9318 36.1034 26.9843C36.1054 27.0019 36.1092 27.0189 36.1148 27.0422L36.1164 27.0486C36.1215 27.0693 36.1283 27.0971 36.1324 27.1267C36.143 27.2024 36.1356 27.2825 36.0936 27.3799C36.0791 27.4136 36.052 27.4341 36.0228 27.4335C35.9937 27.4328 35.9671 27.4112 35.9533 27.3769C35.905 27.2561 35.8991 27.1047 35.9439 26.9594Z" fill="white"/>
</g>
<defs>
<clipPath id="clip0_45_4219">
<rect width="45" height="45" fill="white"/>
</clipPath>
</defs>
</svg>
