<svg width="45" height="45" viewBox="0 0 45 45" fill="none" xmlns="http://www.w3.org/2000/svg">
<g clip-path="url(#clip0_45_4519)">
<path fill-rule="evenodd" clip-rule="evenodd" d="M0.00390625 0H44.9995V45H0.00390625V0Z" fill="#000099"/>
<path fill-rule="evenodd" clip-rule="evenodd" d="M9.35156 0L43.0356 45.0264V0.0263672L9.35156 0Z" fill="#FFCC00"/>
<path fill-rule="evenodd" clip-rule="evenodd" d="M34.6233 42.3193L32.7842 40.5352L30.8989 42.3106L31.6108 39.3926L29.752 37.5908H32.0591L32.771 34.6729L33.4763 37.5996H35.7834L33.9377 39.4189L34.6233 42.3193ZM39.9824 43.2334L37.6753 43.2246L36.97 40.2979L36.2581 43.2158H33.9509L35.8098 45.0176L35.0979 47.9356L36.9832 46.1602L38.8289 47.9443L38.1367 45.0439L39.9824 43.2334ZM29.7256 33.8115L31.5713 31.9922L29.2642 31.9834L28.5588 29.0654L27.8469 31.9834L25.5398 31.9746L27.3987 33.7764L26.6868 36.7031L28.572 34.9189L30.4177 36.7119L29.7256 33.8115ZM25.4871 28.1426L27.3328 26.332L25.0256 26.3232L24.3203 23.3965L23.6018 26.3145H21.3013L23.1602 28.1162L22.4482 31.0342L24.3335 29.2588L26.1726 31.043L25.4871 28.1426ZM21.2881 22.5527L23.1338 20.7334H20.8267L20.1279 17.7979L19.416 20.7158H17.1089L18.9678 22.5088L18.2559 25.4356L20.1411 23.6514L21.9868 25.4443L21.2947 22.5439L21.2881 22.5527ZM17.043 16.9014L18.8887 15.0908L16.5815 15.082L15.8762 12.1553L15.1577 15.0732H12.8572L14.7227 16.875L14.0107 19.793L15.896 18.0176L17.7351 19.8018L17.0496 16.9014H17.043ZM12.8506 11.2852L14.6897 9.46582H12.3826L11.6838 6.53027L10.9653 9.45703H8.6582L10.5303 11.25L9.81177 14.168L11.697 12.3926L13.5295 14.1855L12.8506 11.2852ZM8.63184 5.66016L10.4709 3.84082H8.16382L7.46509 0.905273L6.74658 3.83203H4.43945L6.31152 5.625L5.58643 8.55176L7.47827 6.76758L9.31079 8.56055L8.63184 5.66016ZM4.41309 0.0351567L6.24561 -1.78418H3.93848L3.23315 -4.71094L2.52783 -1.79297H0.220703L2.08618 0L1.37427 2.91797L3.25952 1.14258L5.09204 2.93555L4.41309 0.0351567Z" fill="white"/>
</g>
<defs>
<clipPath id="clip0_45_4519">
<rect width="45" height="45" fill="white"/>
</clipPath>
</defs>
</svg>
