<svg width="45" height="45" viewBox="0 0 45 45" fill="none" xmlns="http://www.w3.org/2000/svg">
<g clip-path="url(#clip0_45_4549)">
<path fill-rule="evenodd" clip-rule="evenodd" d="M-5.76367 0L22.502 22.5L-5.76367 45V0ZM50.7676 0L22.502 22.5L50.7676 45V0Z" fill="#18B637"/>
<path fill-rule="evenodd" clip-rule="evenodd" d="M-5.76367 0L22.502 22.5L50.7676 0H-5.76367ZM-5.76367 45L22.502 22.5L50.7676 45H-5.76367Z" fill="#CF0921"/>
<path fill-rule="evenodd" clip-rule="evenodd" d="M50.7676 0H45.5007L-5.76367 40.8076V45H-0.496826L50.7676 4.19238V0Z" fill="white"/>
<path fill-rule="evenodd" clip-rule="evenodd" d="M32.2644 22.5C32.2644 25.9511 31.2362 29.2608 29.406 31.701C27.5758 34.1413 25.0935 35.5122 22.5052 35.5122C19.917 35.5122 17.4347 34.1413 15.6045 31.701C13.7743 29.2608 12.7461 25.9511 12.7461 22.5C12.7461 19.0501 13.7739 15.7415 15.6035 13.3021C17.4331 10.8626 19.9145 9.49219 22.502 9.49219C25.0894 9.49219 27.5708 10.8626 29.4004 13.3021C31.23 15.7415 32.2578 19.0501 32.2578 22.5H32.2644Z" fill="white"/>
<path fill-rule="evenodd" clip-rule="evenodd" d="M-5.76367 0V4.19238L45.5007 45H50.7676V40.8076L-0.496826 0H-5.76367Z" fill="white"/>
<path fill-rule="evenodd" clip-rule="evenodd" d="M24.4255 17.5957L23.1533 17.6221L22.4941 19.0635L21.8416 17.6221L20.5759 17.5869L21.189 16.1016L20.5825 14.625L21.8481 14.5898L22.5073 13.1484L23.1599 14.5986L24.4255 14.6338L23.8125 16.1104L24.4255 17.5957ZM20.1672 27.4043L18.9016 27.4307L18.2424 28.8721L17.5898 27.4307L16.3242 27.3955L16.9373 25.9102L16.3308 24.4336L17.5964 24.3984L18.2556 22.957L18.9082 24.4072L20.1738 24.4424L19.5608 25.9189L20.1672 27.4043ZM28.7761 27.4043L27.5105 27.4307L26.8513 28.8721L26.1921 27.4307L24.9331 27.3955L25.5461 25.9102L24.9331 24.4336L26.1987 24.3984L26.8579 22.957L27.5171 24.4072L28.7827 24.4424L28.1631 25.9189L28.7761 27.4043Z" fill="#CF0921"/>
<path fill-rule="evenodd" clip-rule="evenodd" d="M22.5103 12.8173L23.2357 14.4292L24.6433 14.4683L23.9614 16.1106L24.6433 17.7626L23.2283 17.7919L22.4957 19.3939L21.7702 17.7914L20.363 17.7523L21.0444 16.1013L20.3701 14.4595L21.7772 14.4204L22.5103 12.8173ZM22.5085 13.4796L21.9233 14.7592L20.7991 14.7904L21.3377 16.1017L20.793 17.4214L21.9171 17.4527L22.4968 18.733L23.0826 17.4521L24.212 17.4287L23.6678 16.1101L24.212 14.7992L23.0883 14.768L22.5085 13.4796ZM18.2586 22.6259L18.984 24.2378L20.3915 24.2769L19.7095 25.9196L20.3839 27.5712L18.9766 27.6005L18.244 29.2025L17.5185 27.6L16.1113 27.5609L16.7927 25.9099L16.1184 24.2681L17.5255 24.229L18.2586 22.6259ZM26.8604 22.6271L27.5925 24.2378L29.0015 24.2769L28.3122 25.9196L28.9938 27.5712L27.5855 27.6005L26.8534 29.2012L26.1212 27.6L24.7202 27.5609L25.4014 25.9104L24.7196 24.2681L26.1278 24.229L26.8604 22.6271ZM18.2568 23.2881L17.6716 24.5678L16.5474 24.599L17.086 25.9103L16.5413 27.23L17.6654 27.2612L18.2451 28.5416L18.8309 27.2607L19.9548 27.2373L19.4163 25.9182L19.9603 24.6078L18.8366 24.5766L18.2568 23.2881ZM26.8597 23.2869L26.2739 24.5678L25.1508 24.599L25.6951 25.9099L25.1502 27.2301L26.2673 27.2612L26.8534 28.5428L27.4398 27.2607L28.5626 27.2373L28.0182 25.9182L28.5681 24.6078L27.4459 24.5766L26.8597 23.2869Z" fill="#18B637"/>
</g>
<defs>
<clipPath id="clip0_45_4549">
<rect width="45" height="45" fill="white"/>
</clipPath>
</defs>
</svg>
