<svg width="45" height="45" viewBox="0 0 45 45" fill="none" xmlns="http://www.w3.org/2000/svg">
<g clip-path="url(#clip0_45_4702)">
<path d="M0 0H45V45H0V0Z" fill="#F7E017"/>
<path d="M0 3.12183V23.1281L45 32.5031V21.8718L0 3.12183Z" fill="white"/>
<path d="M0 13.7532V23.1282L45 41.8782V32.5032L0 13.7532Z" fill="black"/>
<path d="M21.3598 35.6064C20.537 35.4853 19.7454 35.1178 19.0441 34.5314C18.9316 34.4314 18.8285 34.3439 18.8098 34.3439C18.791 34.3439 18.7816 34.4627 18.7816 34.6002C18.7816 35.0002 18.6598 35.2002 18.3598 35.3064C18.0691 35.4064 17.6285 35.2064 17.2723 34.8064C16.9344 34.4211 16.5401 34.1337 16.1144 33.9627C15.671 33.8219 15.2042 33.9019 14.8019 34.1877C14.7622 34.225 14.7177 34.2525 14.6707 34.2689C14.6191 34.2689 14.6238 33.8377 14.6801 33.7064C14.7504 33.5189 14.9191 33.3439 15.1207 33.2502C15.2238 33.2002 15.3082 33.1377 15.3082 33.1064C15.3082 33.0814 15.2707 32.9814 15.2285 32.8814C15.0926 32.5627 15.1488 32.2564 15.3879 32.0127C15.6316 31.7627 16.0441 31.7252 16.4051 31.9064C16.466 31.9411 16.5287 31.9703 16.5926 31.9939C16.6394 31.9939 16.6113 31.9002 16.4801 31.6439C16.3301 31.3502 16.2972 31.2064 16.316 30.8502C16.3289 30.6321 16.3997 30.4273 16.5157 30.2727C16.6317 30.118 16.7853 30.0236 16.9488 30.0064C17.2207 29.9814 17.3894 30.1064 17.7926 30.6127C18.8753 32.0657 20.2973 32.9829 21.8238 33.2127C22.2129 33.2752 22.9863 33.2439 23.441 33.1502C24.8815 32.8297 26.2169 31.9416 27.2754 30.6002C27.5754 30.2252 27.7161 30.1252 27.9645 30.1252C28.1754 30.1252 28.3254 30.2127 28.4801 30.4377C28.6207 30.6439 28.6676 30.8377 28.6489 31.1564C28.6395 31.3564 28.6161 31.4502 28.527 31.6502C28.3957 31.9314 28.4192 31.9627 28.677 31.8252C29.0332 31.6377 29.4692 31.7252 29.7036 32.0252C29.9098 32.2877 29.9286 32.5502 29.7692 32.9002C29.7083 33.0314 29.6614 33.1502 29.6614 33.1752C29.6614 33.2127 29.7083 33.2252 29.9192 33.2752C30.2004 33.3377 30.3645 33.6127 30.3645 34.0377C30.3645 34.1627 30.3504 34.2689 30.3364 34.2689C30.3223 34.2689 30.2145 34.2127 30.102 34.1502C29.7739 33.9689 29.5864 33.9252 29.202 33.9314C28.9114 33.9314 28.8129 33.9502 28.6114 34.0377C28.274 34.1941 27.9633 34.4385 27.6973 34.7564C27.3973 35.1127 27.2098 35.2252 26.9192 35.2189C26.6473 35.2189 26.4645 35.1127 26.366 34.9064C26.3145 34.7939 26.3051 34.7314 26.3192 34.4814C26.3286 34.3189 26.3239 34.1877 26.3192 34.1877C26.3051 34.1877 26.202 34.2752 26.0848 34.3814C25.8172 34.6373 25.5257 34.8453 25.2176 35.0002C23.9839 35.596 22.6636 35.8035 21.3598 35.6064Z" fill="#CF1126"/>
<path d="M21.8576 32.8252C20.9509 32.7141 20.0724 32.346 19.281 31.7456C18.4895 31.1452 17.8034 30.3264 17.2685 29.3439C16.1248 27.2689 15.7685 24.5251 16.1154 22.0189C16.3029 20.8751 16.6779 19.7314 17.3107 18.9188C16.789 20.3624 16.6454 21.9975 16.9029 23.5626C17.3248 26.6751 19.2935 29.3064 21.6514 29.7627C22.5889 30.1189 23.5498 29.7377 24.4404 29.3564C26.4092 28.4314 27.9092 25.9439 28.0873 23.1626C28.242 21.6626 28.0733 20.0939 27.5623 18.7251C27.8529 18.9313 28.2186 19.7376 28.4342 20.2751C29.1842 22.2126 29.217 24.5314 28.7764 26.6001C28.1764 29.2314 26.667 31.5377 24.6748 32.3752C23.7659 32.7538 22.8126 32.9063 21.8623 32.8252H21.8576Z" fill="#CF1126"/>
<path d="M12.7484 29.369C12.6312 29.344 12.5 29.5002 12.5469 29.6627C12.6312 29.8252 12.7812 29.9127 12.9125 29.9877C13.2583 30.1678 13.6295 30.2446 14 30.2127C14.2718 30.2128 14.5415 30.1494 14.7969 30.0252C14.9375 29.9627 15.1156 29.9002 15.1719 29.6877C15.2328 29.5565 15.125 29.419 15.0266 29.444C14.8859 29.4877 14.7453 29.569 14.6047 29.6252C14.2956 29.7419 13.9733 29.7842 13.6531 29.7502C13.42 29.705 13.1929 29.6167 12.9781 29.4877C12.9031 29.444 12.8328 29.3815 12.7484 29.369Z" fill="#CF1126"/>
<path d="M12.8803 28.7189C12.7631 28.6939 12.66 28.8814 12.7069 29.0314C12.8006 29.2064 12.9553 29.3002 13.1006 29.3814C13.3541 29.514 13.6254 29.5757 13.8975 29.5627H13.9678C14.1993 29.564 14.4286 29.5045 14.6428 29.3877C14.7694 29.3189 14.9288 29.2502 14.985 29.0627C15.0272 28.9564 14.9944 28.8064 14.8913 28.7939C14.8069 28.7939 14.7272 28.8689 14.6428 28.9002C14.3375 29.0683 14.0064 29.1369 13.6772 29.1002C13.4709 29.0689 13.2788 28.9689 13.0913 28.8502C13.0209 28.8064 12.96 28.7377 12.8803 28.7252V28.7189Z" fill="#CF1126"/>
<path d="M13.0444 28.1003C12.9413 28.0815 12.871 28.2378 12.8897 28.3565C12.9038 28.469 12.9741 28.544 13.0351 28.6065C13.2903 28.8423 13.5969 28.9587 13.9069 28.9378H13.9819C14.1769 28.9359 14.369 28.8761 14.5444 28.7628C14.6616 28.7003 14.7976 28.619 14.8398 28.4378C14.8585 28.3565 14.8679 28.2378 14.7976 28.1878C14.7226 28.1378 14.6523 28.219 14.5866 28.2503C14.3624 28.4074 14.1133 28.4909 13.8601 28.494C13.6427 28.4825 13.4312 28.3964 13.246 28.244C13.1757 28.2003 13.1194 28.119 13.0444 28.1003Z" fill="#CF1126"/>
<path d="M11.3194 18.9189C11.1694 19.1252 11.2866 19.5002 11.2726 19.7627C11.3569 20.5877 11.4554 21.419 11.6851 22.2002C11.9663 22.9502 12.5663 23.3565 12.9273 24.0252C13.0585 24.344 13.0116 24.7315 13.0398 25.0877C13.0585 26.044 13.0538 27.0065 13.0398 27.9627C13.3679 28.1877 13.7195 28.4002 14.0945 28.319C14.3148 28.2502 14.7273 28.2065 14.7741 27.9127L14.7273 22.944C14.6007 22.4377 14.2116 22.1752 13.9257 21.8502C13.6867 21.5356 13.4643 21.1994 13.2601 20.844C13.1382 20.5627 12.6554 20.469 12.8288 20.944C12.9319 21.3627 13.1898 21.669 13.2554 22.1065C13.2694 22.3502 13.4898 22.794 13.3023 22.9315C13.1868 22.6598 13.0118 22.4417 12.8007 22.3065C12.5944 22.1002 12.2523 22.0127 12.1773 21.6502C12.1097 21.1346 11.9305 20.6566 11.6616 20.2752C11.7319 19.8127 11.6616 19.2314 11.3616 18.9314L11.3194 18.9189Z" fill="#CF1126"/>
<path d="M11.7844 19.0127C11.6438 19.0439 11.6531 19.2752 11.7141 19.4002C11.7836 19.6692 11.8013 19.9572 11.7656 20.2377C12.0227 20.6193 12.1948 21.089 12.2625 21.594C12.2625 21.7815 12.4125 21.844 12.511 21.9377C12.7406 22.1315 12.9938 22.2752 13.2 22.519C13.2422 22.5815 13.275 22.644 13.2469 22.519C13.2141 22.3565 13.2 22.1815 13.1063 22.0627C12.975 21.8752 12.8156 21.7127 12.6281 21.6627C12.6141 21.4002 12.5203 21.1627 12.436 20.9377C12.3422 20.719 12.2438 20.4877 12.0844 20.3502C12.0844 19.9689 12.0844 19.5689 11.9625 19.2127C11.925 19.1252 11.8688 19.0189 11.7844 19.0127Z" fill="#CF1126"/>
<path d="M12.1733 19.1627C12.0795 19.2002 12.0983 19.3627 12.1264 19.4565C12.1674 19.7279 12.1831 20.005 12.1733 20.2815C12.3561 20.469 12.4639 20.744 12.567 21.0065C12.6327 21.1815 12.6889 21.369 12.7124 21.5627C12.8577 21.6252 12.9842 21.7502 13.0967 21.8752C13.0499 21.7002 12.9561 21.5627 12.8858 21.394C12.8155 21.2252 12.7452 21.044 12.7124 20.8502C12.5717 20.6565 12.4967 20.3752 12.5249 20.1002C12.5342 19.8065 12.4639 19.5002 12.3139 19.2752C12.2764 19.2252 12.2295 19.169 12.1733 19.1627Z" fill="#CF1126"/>
<path d="M12.6188 19.2502C12.5626 19.2627 12.5344 19.3252 12.5063 19.3814C12.4923 19.4377 12.5438 19.4939 12.5532 19.5564C12.6144 19.7628 12.637 19.9859 12.6188 20.2065C12.6141 20.3627 12.6563 20.519 12.7126 20.644C12.7231 20.5958 12.7445 20.5532 12.7739 20.5219C12.8032 20.4906 12.8391 20.4721 12.8766 20.469C12.9001 20.469 12.9423 20.4815 12.9235 20.4252C12.9048 20.1252 12.8719 19.8252 12.7923 19.5502C12.7692 19.4419 12.7237 19.3444 12.661 19.2689C12.6516 19.2564 12.6329 19.2439 12.6141 19.2502H12.6188Z" fill="#CF1126"/>
<path d="M22.2961 29.7502C21.9795 29.7045 21.6793 29.539 21.4309 29.2732C21.1826 29.0074 20.9965 28.6524 20.8945 28.2501C20.9086 28.1126 21.0352 28.3251 21.0961 28.3439C21.2104 28.4347 21.3386 28.4903 21.4711 28.5064C21.6352 28.6001 21.7383 28.8189 21.8977 28.9376C21.9727 29.0126 22.2352 29.1626 22.1836 28.9189C22.1227 28.7939 22.0805 28.6314 22.1367 28.4814C22.2211 28.2251 22.357 28.0001 22.4977 27.7814C22.5961 27.7376 22.6664 28.0064 22.7367 28.0939C22.8352 28.3001 22.957 28.5501 22.8961 28.8001C22.8399 28.8939 22.8024 29.1751 22.957 29.0876C23.1445 28.9751 23.2992 28.7876 23.4539 28.6126C23.5945 28.4876 23.768 28.4814 23.9086 28.3626C23.9789 28.3439 24.1149 28.1689 24.143 28.2626C24.059 28.542 23.9419 28.8016 23.7961 29.0314C23.5707 29.3882 23.2591 29.6291 22.9149 29.7126C22.7086 29.7626 22.5024 29.7752 22.2961 29.7502Z" fill="#CF1126"/>
<path d="M23.0377 28.7627C23.0518 28.5939 23.0237 28.4252 22.958 28.2627C22.8596 28.0002 22.7237 27.7627 22.583 27.5189C22.4518 27.4189 22.3815 27.7502 22.2971 27.8439C22.1612 28.1127 21.9924 28.3877 21.983 28.7189C21.908 28.8752 21.7674 28.5939 21.7065 28.5002C21.5816 28.2861 21.5154 28.0214 21.519 27.7502C21.5077 27.31 21.5651 26.8716 21.6877 26.4627C21.7815 26.1127 21.9268 25.7752 21.9127 25.4002C21.9221 25.1064 21.8799 24.7939 21.7065 24.6002C21.5377 24.4252 21.8143 24.3877 21.8987 24.4752C22.0487 24.4939 22.1284 24.8189 22.2643 24.7377C22.3159 24.5689 22.3299 24.3627 22.4424 24.2314C22.5502 24.0314 22.6627 24.3127 22.7002 24.4502C22.7799 24.5627 22.7002 24.8564 22.8221 24.8627C22.9721 24.7189 23.0799 24.4877 23.2721 24.4314C23.3518 24.3689 23.4831 24.4314 23.3799 24.5439C23.2393 24.7252 23.1174 24.9439 23.0893 25.2127C23.0471 25.5439 23.108 25.8814 23.2159 26.1752C23.4268 26.7627 23.5909 27.4252 23.4831 28.0814C23.4362 28.3689 23.2862 28.6189 23.1081 28.7877C23.0846 28.8064 23.0471 28.8064 23.0377 28.7627Z" fill="#CF1126"/>
<path d="M22.8117 24.3501C22.7486 24.181 22.6591 24.0318 22.5492 23.9126C22.4367 23.9126 22.3664 24.1001 22.2914 24.2001C22.2398 24.3314 22.1742 24.5501 22.043 24.3814C21.832 24.2189 21.7992 23.8626 21.7992 23.5689C21.7852 23.0939 21.9305 22.6501 22.057 22.2189C22.1367 21.9501 22.118 21.6439 22.0664 21.3689C22.0055 21.0564 21.8133 20.8314 21.668 20.5814C21.6773 20.4876 21.8648 20.5376 21.9352 20.5564C22.0945 20.6126 22.1883 20.7939 22.3055 20.9314C22.3898 20.8939 22.3523 20.6689 22.3945 20.5626C22.3945 20.4126 22.5445 20.2189 22.6055 20.4314C22.6992 20.5689 22.6055 20.8376 22.7227 20.9189C22.8352 20.8626 22.8914 20.7001 22.9945 20.6251C23.0484 20.5786 23.1103 20.5514 23.1743 20.5459C23.2383 20.5404 23.3023 20.5569 23.3602 20.5939C23.4024 20.7314 23.2383 20.8439 23.1914 20.9689C23.0977 21.1247 23.0328 21.3077 23.0018 21.5031C22.9709 21.6985 22.9748 21.9008 23.0133 22.0939C23.0789 22.4064 23.1914 22.6876 23.2336 23.0001C23.2842 23.3565 23.2762 23.7233 23.2102 24.0751C23.168 24.2876 23.032 24.4251 22.8914 24.5126C22.8539 24.4689 22.8352 24.4064 22.8117 24.3501Z" fill="#CF1126"/>
<path d="M22.1057 20.4314C21.9463 20.2752 21.8947 20.1314 21.8947 19.8377C21.8947 19.6939 21.9182 19.6127 21.9885 19.4752C22.101 19.2752 22.0822 19.2127 21.9275 19.2689C21.6791 19.3627 21.5619 19.2814 21.5525 19.0002C21.5525 18.8627 21.5713 18.8064 21.7072 18.5814C21.8197 18.4064 21.8619 18.3127 21.8385 18.2814C21.815 18.2564 21.6838 18.4064 21.4166 18.7689C21.2491 19.0045 21.0706 19.2257 20.8822 19.4314C20.4229 19.8439 19.9822 19.9064 19.7807 19.5877C19.6775 19.4252 19.6822 19.3377 19.7994 19.2377C19.8741 19.1705 19.9432 19.0929 20.0057 19.0064C20.2354 18.7267 20.4887 18.4835 20.7604 18.2814C20.9291 18.1689 20.9666 18.0939 20.8588 18.0939C20.7182 18.0939 20.2729 18.4814 19.9307 18.8939C19.8322 19.0189 19.6869 19.1564 19.6119 19.2064C19.4033 19.3079 19.1777 19.3295 18.9603 19.2689C18.8572 19.2252 18.665 18.9877 18.665 18.9002C18.665 18.8814 18.7119 18.8314 18.7588 18.7877C18.8352 18.7301 18.9074 18.6632 18.9744 18.5877C19.2463 18.2752 19.7619 17.9439 20.1697 17.8252C20.301 17.7939 20.2494 17.7002 20.1041 17.7127C19.6738 17.8222 19.271 18.0736 18.9322 18.4439C18.5432 18.8752 17.9572 18.8314 17.7697 18.3627C17.7369 18.2814 17.7135 18.2064 17.7228 18.1939C18.0549 18.0822 18.3758 17.9185 18.6791 17.7064C18.9403 17.5012 19.2281 17.3634 19.5275 17.3002C19.6588 17.2689 19.6682 17.1814 19.5416 17.1627C19.3728 17.1377 19.1197 17.2502 18.6744 17.5377C18.0978 17.9189 17.9338 17.9877 17.6338 17.9627C17.3525 17.9377 17.1978 17.8439 16.9775 17.5627C16.8275 17.3752 16.6213 16.9064 16.6588 16.8502C16.9021 16.9184 17.1509 16.9457 17.3994 16.9314C17.7885 16.9314 17.8963 16.9189 18.1025 16.8377C18.5055 16.6674 18.8853 16.4121 19.2275 16.0814C19.71 15.5372 20.3206 15.2363 20.9525 15.2314C21.5338 15.2314 21.8994 15.4064 22.2275 15.8502C22.34 16.0002 22.4338 16.0939 22.4479 16.0752C22.4619 16.0564 22.476 15.7939 22.4807 15.4939C22.4807 15.4939 22.6541 15.4689 22.6916 15.5377C22.6916 16.0189 22.6916 16.0627 22.7479 16.0627C22.7807 16.0627 22.8182 16.0127 22.8416 15.9377C22.8885 15.7814 23.076 15.5627 23.2729 15.4252C23.6947 15.1439 24.4307 15.1314 25.0213 15.4064C25.3037 15.5493 25.5677 15.7496 25.8041 16.0002C26.149 16.3236 26.5282 16.5764 26.9291 16.7502C27.2479 16.8752 27.8198 16.9064 28.1057 16.8127C28.1893 16.7869 28.2738 16.766 28.3588 16.7502C28.4666 16.7502 28.2838 17.2252 28.0682 17.5064C27.6744 18.0189 27.1635 18.0127 26.4463 17.5002C25.9963 17.1752 25.4619 17.0002 25.4619 17.1752C25.4619 17.2127 25.4901 17.2377 25.5323 17.2377C25.6869 17.2377 25.9869 17.3752 26.4088 17.6439C26.6739 17.8477 26.9646 17.9854 27.2666 18.0502C27.3744 18.0502 27.3791 18.1439 27.276 18.3439C27.1682 18.5564 26.9854 18.6564 26.7276 18.6564C26.4791 18.6564 26.3385 18.5877 26.1182 18.3439C25.7432 17.9314 24.8244 17.4689 24.8572 17.7189C24.8666 17.7627 24.9088 17.7939 25.0072 17.8127C25.4031 17.9274 25.7738 18.1627 26.0901 18.5002L26.3666 18.7689C26.4182 18.8064 26.4182 18.8189 26.376 18.9252C26.3104 19.1002 26.1323 19.2314 25.9448 19.2564C25.701 19.2939 25.4854 19.1939 25.2651 18.9439C24.7963 18.4252 24.3604 18.0502 24.2197 18.0502C24.1026 18.0502 24.1541 18.1377 24.3604 18.2814C24.6272 18.4699 24.8759 18.7007 25.101 18.9689C25.1947 19.0877 25.3026 19.2002 25.3354 19.2252C25.4244 19.2877 25.4198 19.3752 25.326 19.5377C25.2323 19.7002 25.0729 19.7752 24.8713 19.7439C24.4682 19.6877 24.1494 19.4314 23.6526 18.7439C23.5344 18.568 23.4059 18.405 23.2682 18.2564C23.2026 18.2564 23.2447 18.3752 23.3713 18.5689C23.5307 18.8002 23.5588 18.9314 23.4979 19.1314C23.4463 19.2939 23.3572 19.3377 23.1791 19.2689C22.9916 19.2064 22.9635 19.2689 23.0854 19.4627C23.2635 19.7689 23.2401 20.1314 23.0151 20.3877C22.9685 20.4475 22.9146 20.4961 22.8557 20.5314C22.8369 20.5314 22.7901 20.4689 22.7479 20.3814C22.6072 20.0939 22.4807 20.0939 22.34 20.3814C22.3104 20.4453 22.2791 20.5079 22.2463 20.5689C22.1989 20.5241 22.152 20.4783 22.1057 20.4314Z" fill="#CF1126"/>
<path d="M22.8148 14.5626L22.5711 14.8126L22.3555 14.6001V16.3376H22.8148V14.5626Z" fill="#CF1126"/>
<path d="M21.3242 12.7689C21.2816 13.4716 21.1384 14.1569 20.9023 14.7877L21.4227 14.1439L21.7836 14.7189L22.1773 14.1314L22.5758 14.6314L22.9602 14.1127L23.3586 14.7377L23.7055 14.2252L24.2961 14.7877C24.0805 14.1627 23.7945 13.6252 23.8274 12.7377C23.2602 13.3002 21.9055 13.4002 21.3242 12.7627V12.7689Z" fill="#CF1126"/>
<path d="M22.357 12.3501C22.1461 12.3501 21.9258 12.3564 21.7289 12.4126C21.5985 12.4403 21.474 12.5042 21.3633 12.6001C21.3773 13.1376 23.2852 13.3564 23.7961 12.6126C23.6811 12.5065 23.5498 12.436 23.4117 12.4064C23.2242 12.3564 23.0086 12.3564 22.807 12.3439V12.7876H22.357V12.3501Z" fill="#CF1126"/>
<path d="M22.7289 9.62512H22.4336V12.7126H22.7336L22.7289 9.62512Z" fill="#CF1126"/>
<path d="M22.7273 9.7001L22.6148 11.1814L23.7539 11.9251L23.1773 10.8939L23.9649 10.5501L22.7273 9.7001ZM22.6008 9.31885C22.4273 9.31885 22.3008 9.40635 22.3008 9.50635C22.3008 9.60635 22.4273 9.69385 22.6008 9.69385C22.7742 9.69385 22.9008 9.60635 22.9008 9.50635C22.9008 9.40635 22.7742 9.31885 22.6008 9.31885Z" fill="#CF1126"/>
<path d="M22.0776 35.2406C22.2674 35.1562 22.3729 35.0062 22.4502 34.7156C22.4854 34.5656 22.5135 34.4156 22.5065 34.3781C22.4924 34.2843 22.408 34.2843 22.3237 34.3875C22.2604 34.4531 22.2533 34.4906 22.2674 34.6312C22.3166 34.9781 22.2182 35.0718 21.726 35.1375C21.6768 35.1375 21.5291 35.1375 21.4096 35.1093C21.1705 35.0718 21.0862 35.1093 21.1705 35.2031C21.216 35.2418 21.2658 35.2703 21.3182 35.2875C21.4518 35.3343 21.9369 35.3062 22.0776 35.2406ZM23.1112 35.1843C23.1393 35.1468 23.2307 35.0906 23.3221 35.0437C23.4416 34.9968 23.5049 34.95 23.5541 34.8375C23.7018 34.5562 23.6737 34.3031 23.4627 33.9656C23.3432 33.7781 23.294 33.7875 23.2026 33.9937C23.1182 34.1625 23.1252 34.1812 23.2377 34.2187C23.301 34.2375 23.3573 34.2937 23.3854 34.3687C23.5119 34.6593 23.4768 34.8375 23.2869 34.8375C23.1182 34.8375 23.076 34.875 23.0268 35.025L22.9846 35.2031C22.9846 35.2593 23.0549 35.25 23.1112 35.1843ZM22.7737 34.8562C22.8018 34.7343 22.8158 34.5281 22.8088 34.1062C22.8164 33.9058 22.8093 33.7048 22.7877 33.5062C22.7596 33.4687 22.626 33.5812 22.6049 33.6656C22.5979 33.7347 22.6104 33.8049 22.6401 33.8625C22.6823 33.975 22.6893 34.0875 22.6752 34.5187C22.6541 35.0812 22.6823 35.175 22.7737 34.8562Z" fill="#F7E017"/>
<path d="M21.9799 34.5937L22.0292 34.125C22.0362 33.9656 22.0643 33.7687 22.0784 33.6843C22.1276 33.4687 22.0784 33.4125 21.9518 33.5343L21.8604 33.6281L21.8745 33.9375C21.8956 34.2187 21.8604 34.7343 21.8112 34.9406C21.7971 34.9968 21.8182 34.9781 21.8745 34.8937C21.9167 34.8281 21.9659 34.6875 21.9799 34.5843V34.5937ZM21.2768 34.7437C21.4456 34.5562 21.4245 34.2187 21.4667 33.9562C21.4667 33.7781 21.551 33.5718 21.4948 33.4125C21.3331 33.45 21.2346 33.6562 21.319 33.8531C21.319 34.0875 21.319 34.3406 21.2276 34.5468C21.1573 34.6875 20.9182 34.65 20.9323 34.4531C20.9885 34.1718 20.7284 34.3125 20.6299 34.3875C20.5526 34.4625 20.3838 34.4718 20.4471 34.2937C20.4049 34.0406 20.1729 34.2 20.0463 34.2C19.9268 34.2 20.0393 33.8718 19.8635 33.9187C19.5471 33.8906 19.1956 33.9281 18.9143 33.675C18.7526 33.5718 18.7737 33.3093 18.8651 33.1406C18.9635 32.9156 18.9917 32.625 19.1463 32.4468C19.3081 32.25 19.0057 32.3343 18.9354 32.4C18.7807 32.5125 18.9213 32.8031 18.7948 32.9625C18.7245 33.1312 18.626 33.3562 18.4573 33.3281C18.2112 33.2625 18.0706 32.9531 17.8948 32.7656C17.7401 32.7187 17.8245 33.0843 17.9088 33.1593C18.0647 33.3147 18.2413 33.4292 18.4292 33.4968C18.612 33.45 18.619 33.7781 18.7807 33.825C19.062 34.0125 19.3854 34.0593 19.7018 34.0875C19.8284 34.0968 19.7581 34.3968 19.9198 34.3312C20.0112 34.3687 20.2221 34.2843 20.2292 34.425C20.0885 34.65 20.3628 34.6406 20.4612 34.6125C20.5948 34.575 20.7565 34.5187 20.7917 34.7437C20.8971 34.9031 21.094 34.875 21.2276 34.7906L21.2768 34.7437Z" fill="#F7E017"/>
<path d="M18.4797 32.85C18.5458 32.7267 18.6024 32.5948 18.6485 32.4563C18.6843 32.3361 18.7315 32.2227 18.7891 32.1188C18.8735 32.0063 18.8243 31.9313 18.6907 31.9688C18.6204 31.9875 18.5922 32.025 18.5852 32.1094C18.5537 32.3394 18.4943 32.561 18.4094 32.7656C18.2899 33 18.2899 33.0094 18.3391 33.0094C18.3602 33.0094 18.4235 32.9344 18.4797 32.85ZM16.7219 31.3781C16.5883 31.3781 16.5813 31.4906 16.7079 31.5469C16.7782 31.575 16.8274 31.6406 16.8696 31.7625C16.9891 32.0906 17.0665 32.1562 17.3969 32.1937L17.6079 32.2125L17.6219 32.3906C17.6219 32.4844 17.643 32.5594 17.6571 32.5594L17.8399 32.4656C17.9946 32.3531 18.1422 32.1094 18.1422 31.95C18.1422 31.8562 18.0157 31.7438 17.9032 31.7438C17.854 31.7438 17.7626 31.8 17.6852 31.875C17.4462 32.1 17.193 32.0625 17.0524 31.7625C16.9469 31.5187 16.8274 31.3875 16.7219 31.3875V31.3781ZM17.868 31.9875C17.9313 31.9875 17.9383 32.0531 17.9102 32.175C17.9059 32.1915 17.8978 32.2059 17.8871 32.216C17.8764 32.2262 17.8636 32.2316 17.8505 32.2316C17.8373 32.2316 17.8245 32.2262 17.8138 32.216C17.8031 32.2059 17.795 32.1915 17.7907 32.175C17.7626 32.0813 17.7977 31.9875 17.861 31.9875H17.868ZM26.7626 31.6125C26.6712 31.6125 26.6501 31.6313 26.5938 31.7438C26.5024 31.9219 26.4954 32.3063 26.5798 32.4375C26.629 32.5219 26.636 32.5219 26.7415 32.4563C26.8962 32.3719 26.9243 32.3812 26.9172 32.4844C26.9172 32.7656 26.6219 33.3 26.3126 33.5813C26.2491 33.6312 26.1921 33.6945 26.1438 33.7688C26.1227 33.8438 26.2352 33.8344 26.3758 33.7312C26.6087 33.5532 26.8007 33.2939 26.9313 32.9812C27.0087 32.7656 27.0227 32.7 27.0368 32.325C27.0368 31.9687 27.0368 31.8563 26.9946 31.7438C26.9383 31.6125 26.9243 31.6031 26.7977 31.6031H26.7626V31.6125ZM26.7696 31.8469C26.8399 31.8469 26.8399 31.8656 26.854 31.9969C26.854 32.0906 26.8469 32.1563 26.8048 32.2125C26.7485 32.2781 26.7344 32.2781 26.6923 32.175C26.6219 32.025 26.6641 31.8469 26.7696 31.8469ZM25.3493 34.5188C25.6235 34.3313 25.7852 34.1344 25.8837 33.8438C25.9202 33.7505 25.9508 33.6532 25.9751 33.5531C25.9751 33.4969 25.8415 33.4125 25.7641 33.4125C25.6868 33.4125 25.6657 33.3375 25.6938 33.1312C25.729 32.9344 25.6938 32.6813 25.6235 32.6813C25.6024 32.6813 25.5532 32.7281 25.5321 32.7844C25.4899 32.8781 25.4829 32.9156 25.518 33.0375C25.5672 33.225 25.5251 33.375 25.3985 33.4969C25.3352 33.5531 25.3071 33.6187 25.3071 33.6844L25.3141 33.7781L25.4618 33.6844L25.6024 33.5719L25.6798 33.6656C25.729 33.7031 25.7641 33.7781 25.7641 33.825C25.7641 34.05 25.286 34.425 24.9626 34.4625C24.7868 34.4813 24.7516 34.4625 24.6954 34.3875C24.6462 34.3219 24.6321 34.2656 24.6462 34.2L24.6813 33.9563C24.7094 33.7594 24.6532 33.7875 24.5407 34.0125C24.4563 34.2 24.4282 34.3969 24.4774 34.5C24.5196 34.5938 24.7868 34.6688 24.9837 34.65C25.1032 34.65 25.2227 34.6031 25.3493 34.5188ZM27.1774 33.1594C27.3462 32.925 27.4235 32.6438 27.4235 32.2219V31.8938L27.5641 31.8C27.754 31.6875 27.9298 31.4531 27.9298 31.3219C27.9298 31.1906 27.8805 31.1906 27.8032 31.3406C27.7399 31.4437 27.6626 31.5094 27.3813 31.6875C27.311 31.725 27.304 31.7531 27.2829 32.1562C27.2688 32.625 27.2126 32.7938 27.0227 33.1125C26.9032 33.3 26.8962 33.3375 26.9805 33.3375C27.0157 33.3375 27.1071 33.2531 27.1774 33.15V33.1594ZM25.3001 32.8969C25.3141 32.8312 25.2157 32.7844 25.1805 32.8406C25.1594 32.8594 25.1524 32.8969 25.1665 32.925C25.1946 32.9813 25.279 32.9625 25.3001 32.8969ZM27.8876 32.0062C27.9087 31.9312 27.8102 31.8844 27.768 31.9406C27.754 31.9688 27.7469 32.0063 27.761 32.0344C27.7891 32.0906 27.8735 32.0719 27.8876 32.0062ZM24.7727 29.5781C24.7024 29.625 24.6673 29.7187 24.6251 29.7937C24.5899 29.8219 24.618 29.85 24.6321 29.8875C24.7516 30.0469 24.8008 30.2812 24.8571 30.4969C24.9133 30.75 24.9837 31.0219 24.9274 31.2844C24.9063 31.3781 24.843 31.4813 24.7587 31.4531C24.618 31.4438 24.4774 31.3875 24.3368 31.3875C24.2032 31.3969 24.1047 31.5562 23.9782 31.5375C23.8938 31.5375 23.8938 31.3125 23.8235 31.3781C23.7813 31.5 23.8024 31.6313 23.7954 31.7531C23.8094 31.7813 23.8516 31.7625 23.8727 31.7719H24.1329C24.1469 31.8844 24.1469 32.025 24.2032 32.1188C24.2946 32.1563 24.4001 32.1188 24.4844 32.0719C24.5688 32.0156 24.5829 31.875 24.611 31.7625C24.6391 31.6406 24.7516 31.6687 24.8219 31.6219C24.9065 31.5868 24.98 31.5153 25.0309 31.4186C25.0818 31.3219 25.1072 31.2055 25.1032 31.0875C25.0891 30.7219 24.9907 30.3938 24.9063 30.0563C24.8712 29.9063 24.843 29.7469 24.8008 29.5969L24.7727 29.5781ZM24.3508 31.6219C24.4422 31.6219 24.4844 31.7719 24.4633 31.875C24.4282 32.0156 24.2946 31.9313 24.2735 31.8281C24.2243 31.7344 24.2524 31.6125 24.3438 31.6219H24.3508Z" fill="#F7E017"/>
<path d="M20.8119 30.45C20.7697 30.45 20.7205 30.4687 20.6713 30.5156C20.4252 30.75 20.3549 31.0218 20.5307 31.1343C20.6502 31.2093 20.6221 31.3031 20.4252 31.4343C20.144 31.6218 19.8979 31.5937 19.4268 31.3406C19.3143 31.275 19.2862 31.3031 19.3073 31.4343C19.3354 31.575 19.4338 31.65 19.6658 31.7156C19.919 31.8093 20.2283 31.7812 20.4252 31.6687C20.5408 31.5901 20.6435 31.4817 20.7276 31.35L20.8822 31.1343L21.058 31.1625C21.276 31.2 21.283 31.2 21.283 31.3406C21.283 31.4531 21.283 31.4531 21.4869 31.4812L21.8174 31.5C21.9088 31.5 21.958 31.5281 21.9862 31.5843C22.0283 31.65 22.0494 31.6593 22.3799 31.6218C22.6893 31.5843 22.7455 31.5843 22.8862 31.65C22.9846 31.6875 23.0971 31.7062 23.1744 31.6968C23.4135 31.6593 23.7369 31.4062 23.7862 31.2187C23.7862 31.1906 23.8776 31.1531 23.976 31.125C24.2151 31.0593 24.2221 30.9937 24.0041 30.9562C23.8939 30.9368 23.7855 30.9022 23.6807 30.8531C23.6023 30.8088 23.5193 30.7804 23.4346 30.7687C23.3151 30.7687 23.2026 30.8625 23.2026 30.975C23.2026 31.0406 23.2166 31.05 23.3643 31.0312C23.4908 31.0125 23.533 31.0218 23.6033 31.0968C23.6526 31.1437 23.6807 31.2 23.6737 31.2187C23.6385 31.2937 23.3572 31.4625 23.2377 31.4906C23.1655 31.5066 23.0913 31.4901 23.0268 31.4437C22.9143 31.3687 22.7596 31.3593 22.7244 31.425C22.7104 31.4531 22.6822 31.4343 22.633 31.3781L22.5627 31.2843L22.394 31.3781C22.2252 31.4718 22.1619 31.4718 22.1619 31.3593C22.1619 31.3125 22.1127 31.3031 21.8666 31.3312C21.5924 31.35 21.5643 31.3406 21.5151 31.2656C21.4658 31.2 21.4658 31.1718 21.501 31.1062C21.5291 31.0312 21.5291 31.0125 21.501 30.9656C21.4729 30.9281 21.4307 30.9281 21.3252 30.9656C21.051 31.0593 20.9737 31.0125 20.9737 30.7312C20.9737 30.5531 20.9033 30.45 20.8119 30.45ZM20.7416 30.7125C20.7557 30.7125 20.7698 30.7218 20.7908 30.75C20.8119 30.7781 20.826 30.8437 20.8119 30.8718C20.7908 30.9562 20.6713 30.9562 20.6502 30.8718C20.6362 30.825 20.6502 30.7781 20.6854 30.75L20.7416 30.7125Z" fill="#F7E017"/>
<path d="M20.25 30.975C20.4187 30.8343 20.4187 30.8437 20.4398 30.4593C20.4539 30.1781 20.4539 30.1593 20.3976 30.1593C20.3132 30.1593 20.2711 30.2812 20.2711 30.5062C20.2711 30.6562 20.257 30.7218 20.2007 30.7875C20.0601 30.975 19.7226 30.8906 19.6734 30.6656C19.6593 30.5906 19.6804 30.5156 19.7507 30.3843C19.8984 30.1031 19.8703 30.0281 19.6804 30.2437C19.5609 30.3937 19.5398 30.3937 19.5609 30.2718C19.582 30.15 19.5398 30.1031 19.4343 30.1406C19.3851 30.1593 19.35 30.1968 19.3429 30.2906C19.3289 30.3656 19.3007 30.4125 19.2515 30.4312C19.1672 30.4593 19.0265 30.3562 19.0265 30.2625C19.0265 30.1968 19.2375 29.85 19.5117 29.475C19.6101 29.3343 19.6945 29.1937 19.6945 29.1843C19.6945 29.1656 19.6382 29.1468 19.575 29.1468C19.4765 29.1468 19.4484 29.1656 19.4484 29.2218C19.4484 29.2593 19.3148 29.5031 19.1461 29.7562C18.7945 30.2812 18.7664 30.3843 18.9351 30.525C19.0054 30.5827 19.0868 30.6117 19.1693 30.6083C19.2517 30.605 19.3317 30.5695 19.3992 30.5062L19.5117 30.4031V30.5906C19.5117 30.825 19.5468 30.9187 19.6875 31.0125C19.7754 31.0727 19.8737 31.1009 19.9725 31.0943C20.0712 31.0877 20.1669 31.0466 20.25 30.975ZM27.5906 27.7312C27.464 27.8343 27.5625 28.05 27.5906 28.2C27.5343 28.3875 27.3445 28.4437 27.2039 28.4812C27.007 28.5281 26.8664 28.7437 26.7961 28.9781C26.7539 29.1281 26.6554 29.3531 26.55 29.1281C26.4586 29.0062 26.2898 28.9031 26.1843 29.0531C26.1 29.1562 26.0789 29.3062 26.0437 29.4468C25.9945 29.3437 25.9734 29.1843 25.875 29.1468C25.7062 29.175 25.7695 29.4562 25.8468 29.5687C25.9172 29.7093 25.9875 29.8781 25.9172 30.0375C25.8468 30.225 25.6359 30.3562 25.5164 30.1968C25.4039 30.1125 25.4812 29.8218 25.3617 29.8031C25.3054 29.8593 25.3054 30.1687 25.214 30C25.1437 29.8593 25.1859 29.6625 25.1015 29.5406C25.0101 29.5593 24.9328 29.775 24.9609 29.8875C25.0875 30.1125 25.1437 30.3937 25.1929 30.6656C25.2211 30.7781 25.1859 30.9937 25.2632 31.0406C25.3125 30.8625 25.2632 30.6656 25.3054 30.4875C25.432 30.4687 25.5656 30.5437 25.6922 30.5062C25.882 30.4781 26.0226 30.2625 26.0859 30.0468C26.107 29.8781 26.0859 29.7093 26.0789 29.5406C26.2195 29.5781 26.3742 29.5781 26.5148 29.6343C26.5851 29.775 26.4937 29.9812 26.4726 30.1312C26.4023 30.45 26.2125 30.675 26.0367 30.8812C25.9593 30.9468 25.9523 31.1062 26.0578 31.0218C26.2983 30.8695 26.4866 30.6016 26.5851 30.2718C26.6625 30.0281 26.5992 29.7562 26.6554 29.5125C26.7257 29.325 26.9015 29.3625 27.0351 29.3625C27.1687 29.3625 27.2812 29.1468 27.239 28.9687C27.1968 28.7625 27.3586 28.6687 27.464 28.5937C27.6117 28.5 27.7242 28.3031 27.7101 28.0781C27.7101 27.9562 27.7101 27.7406 27.5906 27.7312ZM27.0773 28.9031C27.232 28.9593 27.0492 29.3531 26.9648 29.1C26.9367 29.0062 27 28.9031 27.0773 28.9031ZM26.3531 29.1843C26.557 29.175 26.4797 29.5593 26.3109 29.3906C26.2195 29.325 26.2476 29.1843 26.3531 29.1843ZM18.9843 30.7125C18.9843 30.675 18.9703 30.6468 18.9422 30.6468C18.8929 30.6468 18.8578 30.7125 18.8789 30.7687C18.907 30.8343 18.9703 30.7968 18.9843 30.7125ZM21.375 30.375C21.375 30.3093 21.3539 30.2906 21.3187 30.3C21.2414 30.3187 21.2273 30.4593 21.3117 30.4593C21.3539 30.4593 21.375 30.4312 21.375 30.3656V30.375ZM18.4218 28.4625C18.3304 28.4343 18.2672 28.5468 18.232 28.65C18.1617 28.8093 18.0773 28.9687 17.9507 29.0531C17.8593 29.0906 17.7609 29.0437 17.6765 28.9781C17.5851 28.9125 17.6062 28.7625 17.564 28.6593C17.4937 28.5843 17.3742 28.6875 17.3812 28.8C17.3742 28.95 17.4726 29.0343 17.564 29.0906C17.6343 29.1562 17.7468 29.1843 17.775 29.3062C17.775 29.4093 17.8031 29.5312 17.8945 29.4937C18 29.4937 18.0351 29.6625 17.9859 29.7656C17.9389 29.8799 17.9216 30.0118 17.9367 30.1406C17.9859 30.2062 18.0351 30.0468 18.0773 30.0093L18.1476 29.8781C18.3375 29.8875 18.5203 29.925 18.7101 29.9156C18.8507 29.9156 18.9562 29.8031 19.0406 29.6718C19.1672 29.5031 19.2656 29.3062 19.3992 29.1656C19.4976 29.1281 19.4484 28.8843 19.3429 28.9593C19.2515 29.0062 19.2234 29.1468 19.1601 29.2312C19.0576 29.4114 18.9396 29.575 18.8086 29.7187C18.7031 29.775 18.5906 29.7468 18.4851 29.7187C18.4429 29.6718 18.5695 29.625 18.5906 29.5687C18.6468 29.4937 18.7172 29.4187 18.7523 29.3156C18.7172 29.2218 18.6187 29.2218 18.5484 29.2218C18.3797 29.2406 18.2461 29.4375 18.0703 29.4562C17.9367 29.4562 18.007 29.2687 18.0703 29.2031C18.1828 29.0156 18.3093 28.8468 18.4289 28.6687C18.464 28.6125 18.5906 28.5562 18.5132 28.4812C18.4851 28.4625 18.45 28.4625 18.4218 28.4625ZM18.5062 29.4C18.5976 29.4656 18.45 29.5687 18.3937 29.5593C18.3164 29.5875 18.3093 29.4843 18.3797 29.4656C18.4218 29.4281 18.464 29.4 18.5062 29.4ZM18.239 29.6437C18.2882 29.6437 18.3937 29.7093 18.2953 29.7468C18.225 29.8218 18.1547 29.6718 18.239 29.6437Z" fill="#F7E017"/>
<path d="M20.3487 29.7937C20.3487 29.7 20.2362 29.7187 20.2222 29.8125C20.2081 29.8687 20.2222 29.8781 20.2784 29.8687C20.3206 29.8687 20.3487 29.8312 20.3487 29.7937ZM25.6011 29.175C25.6151 29.0906 25.5308 29.0343 25.4815 29.1C25.4323 29.1562 25.4815 29.2781 25.5378 29.2593C25.5659 29.2593 25.594 29.2125 25.6081 29.175H25.6011ZM17.4378 28.3218C17.5151 28.2281 17.5222 28.2187 17.487 28.0125C17.4308 27.7218 17.4378 27.6843 17.5222 27.6562C17.6276 27.6281 17.8948 27.8156 17.944 27.9656C18.0003 28.0875 17.9933 28.0968 17.9159 28.1906C17.8315 28.2937 17.8315 28.4156 17.9159 28.4156C17.9862 28.4156 18.1761 28.1718 18.1761 28.0875C18.1761 27.9656 17.9651 27.675 17.7964 27.5718C17.6951 27.509 17.5846 27.4769 17.4729 27.4781C17.255 27.4781 17.2269 27.5437 17.2831 27.8718C17.3534 28.2656 17.262 28.3218 17.0229 28.0218C16.9379 27.922 16.8714 27.7973 16.8287 27.6574C16.786 27.5174 16.7682 27.3662 16.7769 27.2156C16.7769 26.8406 16.8893 26.6437 17.1354 26.5968C17.3042 26.5687 17.2972 26.5125 17.1354 26.4843C16.8823 26.4281 16.6714 26.6531 16.594 27.0468C16.5026 27.4875 16.7065 28.0218 17.0651 28.2937C17.255 28.4343 17.3253 28.4437 17.4378 28.3218ZM27.2253 27.8343C27.2464 27.8156 27.2604 27.75 27.2604 27.7031C27.2604 27.6562 27.2956 27.5531 27.3378 27.4781C27.38 27.4031 27.4081 27.3281 27.4081 27.3093C27.4081 27.2343 27.3167 27.2343 27.2464 27.3093C27.169 27.3937 27.1058 27.4031 27.1058 27.3093L27.1901 27.225C27.3026 27.1593 27.3097 27.0843 27.2183 27.0281C27.0987 26.9531 26.9722 27.0843 26.9651 27.3093C26.9581 27.4593 26.9651 27.4781 27.0495 27.5437C27.1269 27.6093 27.1409 27.6375 27.1268 27.7312C27.1058 27.8812 27.155 27.9375 27.2253 27.8343ZM28.1394 27.7031C28.2097 27.6093 28.2659 27.525 28.2659 27.4968C28.2659 27.4687 28.3292 27.3843 28.3995 27.3093C28.5964 27.1218 28.6456 26.9343 28.5542 26.625C28.519 26.5031 28.4136 26.3437 28.1675 26.0625C28.0554 25.9029 27.9277 25.7641 27.7878 25.65C27.7245 25.65 27.7386 25.9687 27.8018 25.9968C27.9214 26.0531 27.9987 26.1187 28.1815 26.3437C28.4065 26.6062 28.505 26.8593 28.4487 27C28.3995 27.1312 28.3292 27.0937 28.1323 26.8125C28.0685 26.7066 27.9926 26.6149 27.9073 26.5406C27.8862 26.5406 27.8722 26.5968 27.8722 26.6718C27.8722 26.7656 27.9073 26.8593 28.0128 27C28.1745 27.2437 28.1886 27.3843 28.062 27.5156C28.0335 27.5542 28.0002 27.5859 27.9636 27.6093C27.8028 27.2425 27.5875 26.9235 27.3308 26.6718C27.3097 26.6718 27.2956 26.7093 27.2956 26.8031C27.2956 26.925 27.3097 26.9625 27.38 27.0093C27.5648 27.1985 27.7303 27.4191 27.8722 27.6656L27.9987 27.8531C28.0512 27.8094 28.0986 27.7557 28.1394 27.6937V27.7031ZM28.5612 26.1281C28.5261 26.0156 27.9706 25.2468 27.9073 25.2468C27.8792 25.2468 27.8722 25.2937 27.8792 25.4156C27.8792 25.5656 27.9003 25.5843 27.9776 25.6125C28.0977 25.7061 28.2067 25.823 28.3011 25.9593C28.3775 26.0689 28.465 26.1636 28.5612 26.2406V26.1281ZM25.2003 34.8093C25.204 34.8233 25.2048 34.8381 25.2025 34.8525C25.2002 34.8668 25.1949 34.8804 25.1871 34.8921C25.1792 34.9038 25.169 34.9134 25.1573 34.9199C25.1455 34.9264 25.1326 34.9299 25.1194 34.9299C25.1063 34.9299 25.0933 34.9264 25.0816 34.9199C25.0698 34.9134 25.0596 34.9038 25.0518 34.8921C25.0439 34.8804 25.0386 34.8668 25.0363 34.8525C25.0341 34.8381 25.0348 34.8233 25.0386 34.8093C25.0348 34.7953 25.0341 34.7806 25.0363 34.7662C25.0386 34.7518 25.0439 34.7382 25.0518 34.7265C25.0596 34.7148 25.0698 34.7053 25.0816 34.6988C25.0933 34.6922 25.1063 34.6888 25.1194 34.6888C25.1326 34.6888 25.1455 34.6922 25.1573 34.6988C25.169 34.7053 25.1792 34.7148 25.1871 34.7265C25.1949 34.7382 25.2002 34.7518 25.2025 34.7662C25.2048 34.7806 25.204 34.7953 25.2003 34.8093ZM25.4956 34.6781C25.4956 34.6904 25.4934 34.7026 25.4892 34.714C25.4849 34.7253 25.4787 34.7357 25.4709 34.7444C25.4631 34.7531 25.4538 34.76 25.4435 34.7647C25.4333 34.7694 25.4223 34.7718 25.4112 34.7718C25.4001 34.7718 25.3892 34.7694 25.3789 34.7647C25.3687 34.76 25.3594 34.7531 25.3516 34.7444C25.3437 34.7357 25.3375 34.7253 25.3333 34.714C25.329 34.7026 25.3269 34.6904 25.3269 34.6781C25.3269 34.6658 25.329 34.6536 25.3333 34.6422C25.3375 34.6308 25.3437 34.6205 25.3516 34.6118C25.3594 34.6031 25.3687 34.5962 25.3789 34.5915C25.3892 34.5868 25.4001 34.5843 25.4112 34.5843C25.4223 34.5843 25.4333 34.5868 25.4435 34.5915C25.4538 34.5962 25.4631 34.6031 25.4709 34.6118C25.4787 34.6205 25.4849 34.6308 25.4892 34.6422C25.4934 34.6536 25.4956 34.6658 25.4956 34.6781Z" fill="#F7E017"/>
</g>
<defs>
<clipPath id="clip0_45_4702">
<rect width="45" height="45" fill="white"/>
</clipPath>
</defs>
</svg>
