<svg width="45" height="45" viewBox="0 0 45 45" fill="none" xmlns="http://www.w3.org/2000/svg">
<g clip-path="url(#clip0_45_5895)">
<path fill-rule="evenodd" clip-rule="evenodd" d="M0 0H67.5072V29.8916H0V0Z" fill="#B20000"/>
<path fill-rule="evenodd" clip-rule="evenodd" d="M0 29.8916H67.5072V45H0V29.8916Z" fill="#429F00"/>
<path fill-rule="evenodd" clip-rule="evenodd" d="M0 0H7.47589V45H0V0Z" fill="white"/>
<path fill-rule="evenodd" clip-rule="evenodd" d="M0.355469 0.764648H0.711464V1.5293H0.355469V0.764648ZM1.42345 0.764648H2.49144V1.5293H1.42345V0.764648ZM1.77945 0H2.13544V0.764648H1.77945V0ZM3.55942 0H3.91542V0.764648H3.55942V0ZM4.9834 0.764648H6.05139V1.5293H4.9834V0.764648ZM5.3394 0H5.69539V0.764648H5.3394V0ZM1.06746 1.5293H1.77945V2.28516H1.06746V1.5293ZM2.13544 1.5293H2.84743V2.28516H2.13544V1.5293ZM4.62741 1.5293H5.3394V2.28516H4.62741V1.5293ZM5.69539 1.5293H6.40738V2.28516H5.69539V1.5293ZM0.711464 2.28516H1.42345V3.0498H0.711464V2.28516ZM2.49144 2.28516H3.20343V3.0498H2.49144V2.28516ZM4.27141 2.28516H4.9834V3.0498H4.27141V2.28516ZM6.05139 2.28516H6.76338V3.0498H6.05139V2.28516ZM6.76338 0.764648H7.11937V1.5293H6.76338V0.764648ZM0.355469 3.0498H1.06746V3.81445H0.355469V3.0498ZM2.84743 3.0498H3.55942V3.81445H2.84743V3.0498ZM6.40738 3.0498H7.11937V3.81445H6.40738V3.0498ZM0.711464 5.33496H1.42345V6.09961H0.711464V5.33496ZM1.06746 6.09961H1.77945V6.86426H1.06746V6.09961ZM2.49144 5.34375H3.20343V6.09961H2.49144V5.34375ZM2.13544 6.09961H2.84743V6.86426H2.13544V6.09961ZM1.42345 6.86426H2.49144V7.62891H1.42345V6.86426Z" fill="#B20000"/>
<path fill-rule="evenodd" clip-rule="evenodd" d="M1.77997 7.62891H2.13597V8.39356H1.77997V7.62891ZM4.27194 5.34375H4.98393V6.09961H4.27194V5.34375ZM4.62793 6.09961H5.33992V6.86426H4.62793V6.09961ZM6.05191 5.34375H6.7639V6.09961H6.05191V5.34375ZM5.69592 6.09961H6.40791V6.86426H5.69592V6.09961ZM4.98393 6.86426H6.05191V7.62891H4.98393V6.86426ZM5.33992 7.62891H5.69592V8.39356H5.33992V7.62891ZM3.55995 6.85547H3.91594V7.62012H3.55995V6.85547ZM0 6.85547H0.355995V7.62012H0V6.85547ZM7.1199 6.85547H7.47589V7.62012H7.1199V6.85547ZM1.77997 10.6699H2.13597V11.4346H1.77997V10.6699ZM1.42398 11.4434H2.49196V12.1992H1.42398V11.4434ZM1.06798 12.1992H2.84796V12.9639H1.06798V12.1992ZM5.33992 10.6787H5.69592V11.4434H5.33992V10.6787ZM4.98393 11.4434H6.05191V12.1992H4.98393V11.4434ZM4.62793 12.1992H6.40791V12.9639H4.62793V12.1992ZM4.98393 16.0137H6.7639V16.7783H4.98393V16.0137ZM4.27194 12.9639H6.7639V13.7285H4.27194V12.9639ZM0.71199 12.9639H3.20395V13.7285H0.71199V12.9639ZM1.06798 16.7783H2.13597V17.543H1.06798V16.7783ZM0.71199 16.0137H2.49196V16.7783H0.71199V16.0137ZM5.69592 14.502H7.47589V15.2666H5.69592V14.502ZM5.33992 16.7871H6.40791V17.5518H5.33992V16.7871Z" fill="#B20000"/>
<path fill-rule="evenodd" clip-rule="evenodd" d="M1.42398 17.543H1.77997V18.3076H1.42398V17.543ZM5.69592 17.543H6.05191V18.3076H5.69592V17.543ZM0 14.4932H1.77997V15.2578H0V14.4932ZM3.20395 16.0137H4.27194V16.7783H3.20395V16.0137ZM3.55995 16.7871H3.91594V17.5518H3.55995V16.7871ZM2.49196 14.502H4.98393V15.2666H2.49196V14.502ZM3.91594 3.0498H4.62793V3.81445H3.91594V3.0498ZM3.20395 3.81445H4.27194V4.5791H3.20395V3.81445ZM2.84796 4.5791H3.55995V5.33496H2.84796V4.5791ZM3.91594 4.5791H4.62793V5.33496H3.91594V4.5791ZM0 3.81445H0.71199V4.5791H0V3.81445ZM0.355995 4.5791H1.06798V5.33496H0.355995V4.5791ZM6.7639 3.81445H7.47589V4.57031H6.7639V3.81445ZM6.40791 4.57031H7.1199V5.32617H6.40791V4.57031ZM0 11.4258H0.355995V12.1904H0V11.4258ZM7.1199 11.4258H7.47589V12.1904H7.1199V11.4258ZM3.20395 17.5342H4.27194V18.2988H3.20395V17.5342ZM2.84796 18.2988H3.55995V19.0547H2.84796V18.2988ZM3.91594 18.2988H4.62793V19.0547H3.91594V18.2988ZM2.49196 19.0547H3.20395V19.8193H2.49196V19.0547ZM4.27194 19.0547H4.98393V19.8193H4.27194V19.0547ZM2.13597 19.8193H2.84796V20.584H2.13597V19.8193ZM4.62793 19.8193H5.33992V20.584H4.62793V19.8193ZM1.77997 20.5928H2.49196V21.3574H1.77997V20.5928ZM4.98393 20.5928H5.69592V21.3574H4.98393V20.5928ZM1.06798 21.3574H2.13597V22.1221H1.06798V21.3574ZM5.33992 21.3574H6.40791V22.1221H5.33992V21.3574ZM6.05191 20.5928H6.7639V21.3574H6.05191V20.5928ZM6.40791 19.8281H7.1199V20.5928H6.40791V19.8281ZM6.7639 19.0635H7.47589V19.8281H6.7639V19.0635ZM0.71199 20.5928H1.42398V21.3574H0.71199V20.5928ZM0.355995 19.8281H1.06798V20.5928H0.355995V19.8281ZM0 19.0723H0.71199V19.8369H0V19.0723ZM1.42398 22.1309H1.77997V22.8867H1.42398V22.1309ZM5.69592 22.1309H6.05191V22.8867H5.69592V22.1309ZM3.55995 19.8457H3.91594V20.6016H3.55995V19.8457ZM2.49196 22.1309H2.84796V22.8867H2.49196V22.1309ZM4.62793 22.1309H4.98393V22.8867H4.62793V22.1309ZM3.55995 22.1309H3.91594V22.8867H3.55995V22.1309ZM0 22.1309H0.355995V22.8867H0L0 22.1309ZM7.1199 22.1309H7.47589V22.8867H7.1199V22.1309ZM3.55995 11.4434H3.91594V12.1992H3.55995V11.4434ZM1.77997 3.81445H2.13597V4.5791H1.77997V3.81445ZM5.33992 3.81445H5.69592V4.5791H5.33992V3.81445ZM3.20395 9.14941H4.27194V9.91406H3.20395V9.14941ZM2.49196 9.91406H3.55995V10.6787H2.49196V9.91406ZM2.84796 10.6787H3.20395V11.4434H2.84796V10.6787ZM2.13597 9.14941H2.84796V9.91406H2.13597V9.14941ZM2.49196 8.39355H3.55995V9.14941H2.49196V8.39355ZM2.84796 7.62891H3.20395V8.39355H2.84796V7.62891ZM3.91594 8.39355H4.98393V9.14941H3.91594V8.39355ZM4.27194 7.62891H4.62793V8.39355H4.27194V7.62891ZM4.62793 9.14941H5.33992V9.91406H4.62793V9.14941ZM3.91594 9.91406H4.98393V10.6787H3.91594V9.91406ZM4.27194 10.6787H4.62793V11.4434H4.27194V10.6787ZM5.69592 9.14941H6.40791V9.91406H5.69592V9.14941ZM6.05191 8.39355H7.1199V9.14941H6.05191V8.39355ZM6.7639 9.14941H7.47589V9.91406H6.7639V9.14941ZM6.05191 9.91406H7.1199V10.6787H6.05191V9.91406ZM6.40791 10.6787H6.7639V11.4434H6.40791V10.6787ZM6.40791 7.62891H6.7639V8.39355H6.40791V7.62891ZM0 9.14062H0.71199V9.90527H0V9.14062ZM0.355995 8.38477H1.42398V9.14062H0.355995V8.38477ZM1.06798 9.14062H1.77997V9.90527H1.06798V9.14062ZM0.355995 9.90527H1.42398V10.6699H0.355995V9.90527Z" fill="#B20000"/>
<path fill-rule="evenodd" clip-rule="evenodd" d="M0.71199 10.6787H1.06798V11.4434H0.71199V10.6787ZM0.71199 7.62891H1.06798V8.39355H0.71199V7.62891ZM0.355995 13.7285H1.77997V14.4932H0.355995V13.7285ZM2.13597 13.7285H3.55995V14.4932H2.13597V13.7285ZM3.91594 13.7285H5.33992V14.4932H3.91594V13.7285ZM5.69592 13.7285H7.1199V14.4932H5.69592V13.7285ZM2.84796 15.2578H4.62793V16.0137H2.84796V15.2578ZM0.355995 15.2578H2.13597V16.0137H0.355995V15.2578ZM5.33992 15.2578H7.1199V16.0137H5.33992V15.2578ZM7.1199 18.3076H7.47589V19.0635H7.1199V18.3076ZM0 18.3076H0.355995V19.0635H0V18.3076ZM0.355995 44.2354H0.71199V43.4795H0.355995V44.2354ZM1.42398 44.2354H2.49196V43.4795H1.42398V44.2354ZM1.77997 45H2.13597V44.2354H1.77997V45ZM3.55995 45H3.91594V44.2354H3.55995V45ZM4.98393 44.2354H6.05191V43.4707H4.98393V44.2354ZM5.33992 45H5.69592V44.2354H5.33992V45ZM1.06798 43.4707H1.77997V42.7148H1.06798V43.4707ZM2.13597 43.4707H2.84796V42.7148H2.13597V43.4707ZM4.62793 43.4707H5.33992V42.7148H4.62793V43.4707ZM5.69592 43.4707H6.40791V42.7148H5.69592V43.4707ZM2.49196 42.7148H3.20395V41.9502H2.49196V42.7148ZM4.27194 42.7148H4.98393V41.9502H4.27194V42.7148ZM6.05191 42.7148H6.7639V41.9502H6.05191V42.7148ZM6.7639 44.2354H7.1199V43.4707H6.7639V44.2354ZM0.355995 41.9502H1.06798V41.1855H0.355995V41.9502ZM2.84796 41.9502H3.55995V41.1855H2.84796V41.9502ZM6.40791 41.9502H7.1199V41.1855H6.40791V41.9502ZM0.71199 39.665H1.42398V38.9004H0.71199V39.665ZM1.06798 38.9004H1.77997V38.1357H1.06798V38.9004ZM2.49196 39.665H3.20395V38.9004H2.49196V39.665ZM2.13597 38.9004H2.84796V38.1357H2.13597V38.9004ZM1.42398 38.1357H2.49196V37.3711H1.42398V38.1357ZM1.77997 37.3711H2.13597V36.6152H1.77997V37.3711ZM4.27194 39.6563H4.98393V38.9004H4.27194V39.6563ZM4.62793 38.9004H5.33992V38.1357H4.62793V38.9004ZM6.05191 39.665H6.7639V38.9004H6.05191V39.665ZM5.69592 38.9004H6.40791V38.1357H5.69592V38.9004ZM4.98393 38.1357H6.05191V37.3711H4.98393V38.1357ZM5.33992 37.3711H5.69592V36.6152H5.33992V37.3711ZM3.55995 38.1445H3.91594V37.3799H3.55995V38.1445ZM0 38.1445H0.355995V37.3799H0V38.1445ZM7.1199 38.1445H7.47589V37.3799H7.1199V38.1445ZM1.77997 34.3301H2.13597V33.5654H1.77997V34.3301ZM1.42398 33.5566H2.49196V32.8008H1.42398V33.5566ZM1.06798 32.8008H2.84796V32.0361H1.06798V32.8008ZM5.33992 34.3213H5.69592V33.5566H5.33992V34.3213Z" fill="#B20000"/>
<path fill-rule="evenodd" clip-rule="evenodd" d="M4.98393 33.5566H6.05191V32.8008H4.98393V33.5566ZM4.62793 32.8008H6.40791V32.0361H4.62793V32.8008ZM4.98393 28.9863H6.7639V28.2129H4.98393V28.9863ZM4.27194 32.0361H6.7639V31.2715H4.27194V32.0361ZM0.71199 32.0361H3.20395V31.2715H0.71199V32.0361ZM1.06798 28.2217H2.13597V27.457H1.06798V28.2217ZM0.71199 28.9863H2.49196V28.2129H0.71199V28.9863ZM5.69592 30.498H7.47589V29.7334H5.69592V30.498ZM5.33992 28.2129H6.40791V27.4482H5.33992V28.2129ZM0 30.498H1.77997V29.7334H0V30.498ZM3.20395 28.9775H4.27194V28.2129H3.20395V28.9775ZM3.55995 28.2129H3.91594V27.4482H3.55995V28.2129ZM2.49196 30.498H4.98393V29.7334H2.49196V30.498ZM3.91594 41.9414H4.62793V41.1768H3.91594V41.9414ZM3.20395 41.1768H4.27194V40.4297H3.20395V41.1768ZM2.84796 40.4121H3.55995V39.6475H2.84796V40.4121ZM3.91594 40.4121H4.62793V39.6475H3.91594V40.4121ZM0 41.1855H0.71199V40.4297H0V41.1855ZM0.355995 40.4209H1.06798V39.665H0.355995V40.4209ZM6.7639 41.1855H7.47589V40.4297H6.7639V41.1855ZM6.40791 40.4209H7.1199V39.665H6.40791V40.4209ZM0 33.5742H0.355995V32.8096H0V33.5742ZM7.1199 33.5742H7.47589V32.8096H7.1199V33.5742ZM2.84796 26.7012H3.55995V25.9453H2.84796V26.7012ZM3.91594 26.7012H4.62793V25.9453H3.91594V26.7012ZM2.49196 25.9453H3.20395V25.1807H2.49196V25.9453ZM4.27194 25.9453H4.98393V25.1807H4.27194V25.9453ZM2.13597 25.1807H2.84796V24.416H2.13597V25.1807ZM4.62793 25.1807H5.33992V24.416H4.62793V25.1807ZM1.77997 24.4072H2.49196V23.6426H1.77997V24.4072ZM4.98393 24.4072H5.69592V23.6426H4.98393V24.4072ZM1.06798 23.6426H2.13597V22.8779H1.06798V23.6426ZM5.33992 23.6426H6.40791V22.8779H5.33992V23.6426ZM6.05191 24.4072H6.7639V23.6426H6.05191V24.4072ZM6.40791 25.1719H7.1199V24.4072H6.40791V25.1719ZM6.7639 25.9365H7.47589V25.1719H6.7639V25.9365ZM0.71199 24.4072H1.42398V23.6426H0.71199V24.4072ZM0.355995 25.1719H1.06798V24.4072H0.355995V25.1719ZM0 25.9277H0.71199V25.1631H0V25.9277ZM1.42398 22.8691H1.77997V22.1133H1.42398V22.8691ZM3.55995 25.1543H3.91594V24.3984H3.55995V25.1543ZM3.55995 33.5479H3.91594V32.792H3.55995V33.5479ZM1.77997 41.1768H2.13597V40.4297H1.77997V41.1768ZM5.33992 41.1768H5.69592V40.4297H5.33992V41.1768ZM3.20395 35.8594H4.27194V35.0947H3.20395V35.8594ZM2.49196 35.0947H3.55995V34.3301H2.49196V35.0947ZM2.84796 34.3301H3.20395V33.5654H2.84796V34.3301ZM2.13597 35.8594H2.84796V35.0947H2.13597V35.8594ZM2.49196 36.6064H3.55995V35.8594H2.49196V36.6064ZM2.84796 37.3711H3.20395V36.6152H2.84796V37.3711ZM3.91594 36.6064H4.98393V35.8594H3.91594V36.6064ZM4.27194 37.3711H4.62793V36.6152H4.27194V37.3711ZM4.62793 35.8506H5.33992V35.0859H4.62793V35.8506ZM3.91594 35.0859H4.98393V34.3213H3.91594V35.0859ZM4.27194 34.3213H4.62793V33.5566H4.27194V34.3213ZM5.69592 35.8594H6.40791V35.0947H5.69592V35.8594ZM6.05191 36.6064H7.1199V35.8594H6.05191V36.6064ZM6.7639 35.8506H7.47589V35.0859H6.7639V35.8506ZM6.05191 35.0859H7.1199V34.3213H6.05191V35.0859ZM6.40791 34.3213H6.7639V33.5566H6.40791V34.3213ZM6.40791 37.3711H6.7639V36.6152H6.40791V37.3711ZM0 35.8594H0.71199V35.0947H0V35.8594ZM0.355995 36.6064H1.42398V35.8594H0.355995V36.6064Z" fill="#B20000"/>
<path fill-rule="evenodd" clip-rule="evenodd" d="M1.06798 35.8506H1.77997V35.0859H1.06798V35.8506ZM0.355995 35.0859H1.42398V34.3213H0.355995V35.0859ZM0.71199 34.3213H1.06798V33.5566H0.71199V34.3213ZM0.71199 37.3711H1.06798V36.6152H0.71199V37.3711ZM0.355995 31.2715H1.77997V30.5068H0.355995V31.2715ZM2.13597 31.2715H3.55995V30.5068H2.13597V31.2715ZM3.91594 31.2715H5.33992V30.5068H3.91594V31.2715ZM5.69592 31.2715H7.1199V30.5068H5.69592V31.2715ZM2.84796 29.7422H4.62793V28.9863H2.84796V29.7422ZM0.355995 29.7422H2.13597V28.9863H0.355995V29.7422ZM5.33992 29.7422H7.1199V28.9863H5.33992V29.7422ZM7.1199 26.7012H7.47589V25.9277H7.1199V26.7012ZM0 26.7012H0.355995V25.9277H0V26.7012ZM3.20395 22.8779H3.55995V23.6426H3.20395V22.8779ZM3.91594 22.8779H4.27194V23.6426H3.91594V22.8779ZM3.91594 21.3574H4.27194V22.1221H3.91594V21.3574ZM3.20395 21.3574H3.55995V22.1221H3.20395V21.3574ZM0.71199 41.9502H1.42398V42.7148H0.71199V41.9502ZM5.69592 27.457H6.05191V26.6924H5.69592V27.457ZM1.42398 27.457H1.77997V26.6924H1.42398V27.457ZM3.20395 26.6924H4.27194V27.457H3.20395V26.6924Z" fill="#B20000"/>
</g>
<defs>
<clipPath id="clip0_45_5895">
<rect width="45" height="45" fill="white"/>
</clipPath>
</defs>
</svg>
