<svg width="45" height="45" viewBox="0 0 45 45" fill="none" xmlns="http://www.w3.org/2000/svg">
<g clip-path="url(#clip0_45_6064)">
<path d="M0 0H45V45H0V0Z" fill="#008000"/>
<path d="M22.4984 28.7531C25.0886 28.7531 27.1883 25.9535 27.1883 22.5C27.1883 19.0464 25.0886 16.2468 22.4984 16.2468C19.9083 16.2468 17.8086 19.0464 17.8086 22.5C17.8086 25.9535 19.9083 28.7531 22.4984 28.7531Z" fill="#FFE000"/>
<path d="M23.9617 27.6468C26.0936 27.6468 27.8219 25.3424 27.8219 22.4999C27.8219 19.6574 26.0936 17.353 23.9617 17.353C21.8298 17.353 20.1016 19.6574 20.1016 22.4999C20.1016 25.3424 21.8298 27.6468 23.9617 27.6468Z" fill="#008000"/>
<path d="M7.72031 22.7906C10.4308 22.7906 12.6281 19.8609 12.6281 16.2469C12.6281 12.6329 10.4308 9.70312 7.72031 9.70312C5.0098 9.70312 2.8125 12.6329 2.8125 16.2469C2.8125 19.8609 5.0098 22.7906 7.72031 22.7906Z" fill="#FFE000"/>
<path d="M7.38281 21.1875H8.61328C8.61328 21.1875 8.6625 21.0375 8.59922 20.9625C8.52891 20.8875 8.26875 20.8688 8.33906 20.6063C8.47969 20.0625 8.50781 20.2312 8.59922 18.9375C8.66611 17.8298 8.71299 16.7201 8.73984 15.6094H8.55703C8.55703 15.6094 8.59219 16.2375 8.48672 17.0625C8.38828 17.8875 8.35312 17.9531 8.24062 18.5906C8.18763 18.9494 8.10996 19.3009 8.00859 19.6406C7.91016 20.0156 7.89609 20.025 7.74141 20.3719C7.57969 20.7094 7.63594 20.5781 7.55156 20.7844C7.50234 20.8875 7.45312 20.8594 7.41797 20.9344C7.38984 21.0094 7.38281 21.1875 7.38281 21.1875Z" fill="#802000"/>
<path fill-rule="evenodd" clip-rule="evenodd" d="M8.50014 15.5391H8.79423L8.79248 15.6116C8.7656 16.7235 8.71867 17.8343 8.65171 18.9431L8.65165 18.9441C8.606 19.5902 8.57583 19.8769 8.53861 20.0706C8.51979 20.1685 8.49932 20.2419 8.47519 20.3238C8.4714 20.3366 8.46753 20.3497 8.46355 20.363C8.44228 20.4347 8.41808 20.5161 8.38884 20.6292L8.38865 20.6299C8.37488 20.6813 8.37946 20.7107 8.38683 20.7296C8.39537 20.7514 8.41284 20.7722 8.44141 20.7928C8.46798 20.812 8.49833 20.827 8.53025 20.8427C8.53258 20.8439 8.53493 20.845 8.53728 20.8462L8.53816 20.8466C8.56849 20.8616 8.60669 20.8805 8.63209 20.9076L8.63316 20.9087L8.63418 20.9099C8.68562 20.9709 8.68733 21.0575 8.68223 21.1118C8.67953 21.1407 8.67446 21.1662 8.67017 21.1842C8.66801 21.1933 8.66598 21.2007 8.66443 21.2061C8.66366 21.2088 8.663 21.211 8.66251 21.2126L8.66188 21.2146L8.66167 21.2152L8.66158 21.2155L8.66155 21.2156C8.66154 21.2156 8.66152 21.2157 8.61321 21.1875L8.66152 21.2157L8.6477 21.2578H7.38274V21.1875C7.33008 21.1838 7.33008 21.1838 7.33008 21.1838L7.33009 21.1836L7.33011 21.1831L7.33018 21.1814L7.33048 21.1751C7.33074 21.1697 7.33114 21.1621 7.33172 21.1528C7.33287 21.1341 7.33471 21.1083 7.33748 21.08C7.34267 21.0269 7.35218 20.9524 7.37073 20.9029L7.37185 20.8999L7.37318 20.8971C7.39761 20.845 7.42925 20.8244 7.45039 20.8106C7.4523 20.8094 7.45411 20.8082 7.45584 20.807C7.47366 20.7951 7.48889 20.7839 7.5061 20.7485C7.5408 20.6637 7.55212 20.6351 7.56462 20.6075C7.58243 20.5681 7.60266 20.5307 7.69644 20.335C7.71578 20.2916 7.73281 20.2538 7.748 20.22C7.79416 20.1174 7.82338 20.0524 7.84897 19.985C7.88244 19.8969 7.90961 19.8046 7.95875 19.6174L7.95911 19.616L7.95952 19.6146C8.05969 19.2789 8.13644 18.9316 8.18881 18.577L8.189 18.5758L8.18922 18.5745C8.22091 18.3949 8.24641 18.2609 8.26885 18.1429C8.3265 17.8399 8.364 17.6428 8.43457 17.0515L8.43466 17.0507C8.48687 16.6423 8.50428 16.2825 8.50863 16.025C8.51081 15.8963 8.50972 15.7932 8.50809 15.7226C8.50728 15.6872 8.50634 15.66 8.5056 15.6417C8.50524 15.6326 8.50492 15.6257 8.5047 15.6211L8.50445 15.6161L8.50438 15.6149L8.50437 15.6146L8.50014 15.5391ZM8.6125 15.6797C8.61284 15.6913 8.61319 15.7042 8.61351 15.7183C8.61519 15.7912 8.61629 15.8967 8.61407 16.0281C8.60964 16.2909 8.5919 16.6575 8.53868 17.0739C8.46737 17.6715 8.42872 17.8747 8.37068 18.1798C8.34835 18.2972 8.32314 18.4296 8.2921 18.6055C8.23856 18.9676 8.16017 19.3223 8.05793 19.6652C8.00885 19.8522 7.97982 19.9518 7.94307 20.0486C7.91562 20.1208 7.8838 20.1916 7.83681 20.296C7.82177 20.3294 7.80517 20.3663 7.78666 20.4078L7.78623 20.4088L7.78577 20.4097C7.68965 20.6103 7.67053 20.6454 7.65383 20.6825C7.64226 20.7082 7.63185 20.7348 7.59778 20.818L7.59693 20.8201L7.59598 20.8221C7.56434 20.8884 7.53057 20.9144 7.503 20.9328C7.5019 20.9335 7.50082 20.9343 7.49979 20.935C7.47877 20.9489 7.47157 20.9537 7.46399 20.9688C7.45488 20.9953 7.44721 21.0455 7.44206 21.0982C7.44143 21.1047 7.44084 21.111 7.44031 21.1172H8.57459C8.57579 21.11 8.57684 21.1023 8.57758 21.0944C8.58117 21.0561 8.57624 21.0305 8.56509 21.0163C8.55517 21.0064 8.53516 20.9951 8.50061 20.978C8.49796 20.9767 8.49525 20.9754 8.49249 20.974C8.46196 20.959 8.42475 20.9407 8.39126 20.9165C8.35479 20.8903 8.316 20.8525 8.29334 20.7946C8.26955 20.7339 8.26795 20.6627 8.28922 20.583C8.31925 20.4669 8.34431 20.3826 8.36561 20.3109C8.36954 20.2976 8.37335 20.2848 8.37703 20.2723C8.40058 20.1924 8.41922 20.1253 8.43644 20.0357C8.47128 19.8544 8.50087 19.5787 8.54661 18.9314C8.61196 17.8491 8.65819 16.7649 8.68528 15.6797H8.6125Z" fill="#7B3100"/>
<path d="M8.31641 11.4844C8.33252 11.7765 8.30381 12.07 8.23203 12.3469C8.13459 12.6365 8.0797 12.9484 8.07031 13.2656C7.94375 13.3219 7.81016 12.9 7.68359 13.1531C7.775 13.5 7.99297 13.7719 8.13359 14.0812C8.16172 14.175 8.37266 14.4281 8.24609 14.4844C7.94375 14.3438 7.86641 13.8281 7.68359 13.5187C7.5766 13.2519 7.4204 13.0259 7.22972 12.8618C7.03904 12.6978 6.82017 12.6012 6.59375 12.5812C6.41797 12.5906 5.8625 12.5344 6.00313 12.9281C6.21406 13.1156 6.48125 13.2469 6.69219 13.4625C6.85391 13.4813 7.13516 13.8375 7.12109 13.9688C6.83984 13.8187 6.71328 13.6406 6.41797 13.4813C6.01016 13.275 5.45469 13.3969 5.22266 13.9313C5.1875 14.0719 5.12422 14.475 5.25781 14.5219C5.4125 14.2031 5.63047 13.8375 5.95391 13.9406C6.20703 13.9687 5.67266 14.5688 5.87656 14.4469C5.94687 14.4094 6.0875 14.2781 6.2 14.2594C6.30547 14.2594 6.36172 14.3531 6.43906 14.3719C6.60078 14.4 6.65 14.4844 6.62891 14.5406C6.61484 14.5969 6.55859 14.5406 6.39688 14.6156C6.31953 14.6531 6.27734 14.7469 6.18594 14.7938C6.0875 14.8313 5.89063 14.8406 5.82031 14.7938C5.56016 14.6531 5.13828 14.6719 5.06094 15.1031C5.06094 15.2906 4.93438 15.0844 4.87813 15.1688C4.82891 15.375 4.82188 15.5813 4.59688 15.5625C4.45625 15.75 4.31562 15.9562 4.13281 16.0969C4.23828 16.4156 4.64609 15.7781 4.625 16.05C4.44922 16.3781 4.72344 16.4437 4.83594 16.1906C5.03984 15.9094 5.29297 15.5625 5.58828 15.8531C5.72891 16.0313 5.81328 15.7594 5.91875 15.7594C5.98906 15.9938 6.06641 15.7781 6.14375 15.7125C6.26328 15.6938 6.22812 15.9188 6.36875 15.7781C6.65703 15.525 7.00859 15.7406 7.28984 15.4969C7.59219 15.3094 7.33203 15.6375 7.25469 15.7687C7.12109 16.1062 7.23359 16.5563 6.95234 16.7625C6.83281 17.1656 7.08594 17.7 6.83281 18C6.79766 18.1875 7.15625 18.1688 7.25469 18.2438C7.4375 18.2438 7.25469 17.7 7.43047 17.625C7.66953 17.8125 7.65547 17.2687 7.60625 17.1C7.63437 16.725 7.64844 16.2938 7.78906 15.9469C7.94375 15.525 8.08437 16.125 7.91562 16.2938C7.81719 16.6781 7.67656 17.175 7.89453 17.5406C7.96484 17.5594 8.01406 17.7656 8.09141 17.8219C8.17578 17.8875 8.28828 17.8125 8.30234 17.625C8.41484 17.0625 8.35859 16.4625 8.51328 15.9094C8.61875 15.7406 8.76641 15.8813 8.82969 16.0406C9.04063 16.3688 9.18828 16.7719 9.44141 17.0438C9.68102 17.1744 9.87622 17.418 9.98984 17.7281C9.98984 17.9719 10.5102 18.0094 10.3555 17.7281C10.2078 17.475 10.3062 17.2031 10.4539 17.025C10.5383 17.0531 10.5172 16.8563 10.4539 16.9313C10.3484 16.9031 10.3414 16.65 10.482 16.7719C10.7281 16.875 10.468 16.5375 10.3766 16.5281C10.1727 16.3594 9.94062 16.1719 9.84219 15.8719C10.1094 15.8719 10.3836 16.0687 10.6508 15.9562C10.8687 15.8062 11.0867 15.9563 11.1641 16.2188C11.3328 16.1813 11.2625 15.9562 11.1641 15.8812C11.2836 15.8156 11.375 15.675 11.2203 15.5531C11.15 15.4219 11.3258 15.1781 11.1008 15.1969C11.1078 14.9625 11.0445 14.7562 10.8547 14.6719C10.6648 14.4656 10.1094 14.9906 10.1305 14.5125C10.0742 14.25 10.3555 14.475 10.4328 14.3438C10.5102 14.0625 10.0461 14.1 10.2008 13.875C10.2992 13.8 10.7703 13.6781 10.4047 13.5844C10.322 13.6167 10.235 13.6242 10.1499 13.6064C10.0648 13.5885 9.98375 13.5458 9.9125 13.4813C9.77891 13.7719 9.40625 13.3125 9.46953 13.8375C9.42031 14.0344 9.08281 14.55 8.99141 14.1562C9.06172 13.8469 9.46953 13.7531 9.34297 13.3312C9.32187 13.0781 9.16016 13.3781 9.08984 13.3594C9.04766 13.2 9.20234 13.0031 9.31484 12.9656C9.52578 13.1906 9.52578 12.6844 9.73672 12.7313C9.88437 12.6844 9.6875 12.6 9.64531 12.5625C9.6875 12.4219 9.91953 12.3469 9.69453 12.2156C9.49062 12.0281 9.34297 12.4125 9.18125 12.4313C9.02656 12.1969 9.32188 12.0844 9.40625 11.9625C9.41328 11.8687 9.2375 11.9344 9.28672 11.85C9.33594 11.7469 9.65234 11.7375 9.49766 11.5688C9.26124 11.4726 9.0068 11.4925 8.78047 11.625C8.63984 11.6813 8.60469 12.0938 8.48516 12.075C8.43594 11.8875 8.50625 11.5312 8.31641 11.4844ZM9.37109 15.45C9.53984 15.4125 9.37109 15.7969 9.30078 15.7875C9.30078 15.6562 9.04766 15.6656 9.20937 15.5438C9.25882 15.5003 9.31353 15.4686 9.37109 15.45Z" fill="#008000"/>
<path d="M33.7547 30.3599L34.0645 31.6445L35.0111 31.1665L34.4512 32.2911L35.3218 32.9798L34.3128 33.0971L34.4516 34.4342L33.7547 33.4555L33.0573 34.4336L33.1961 33.0971L32.1875 32.9792L33.0581 32.2905L32.4978 31.1659L33.4444 31.644L33.7547 30.3599Z" fill="#FFE000"/>
<path d="M28.1297 18.4834L28.4395 19.7681L29.3861 19.29L28.8262 20.4146L29.6968 21.1034L28.6878 21.2206L28.8266 22.5577L28.1297 21.579L27.4323 22.5571L27.5711 21.2206L26.5625 21.1028L27.4331 20.414L26.8728 19.2895L27.8194 19.7675L28.1297 18.4834Z" fill="#FFE000"/>
<path d="M33.7547 10.3574L34.0645 11.6421L35.0111 11.1641L34.4512 12.2886L35.3218 12.9774L34.3128 13.0947L34.4516 14.4317L33.7547 13.453L33.0573 14.4311L33.1961 13.0947L32.1875 12.9768L33.0581 12.288L32.4978 11.1635L33.4444 11.6415L33.7547 10.3574Z" fill="#FFE000"/>
<path d="M38.7547 16.4832L39.0645 17.7678L40.0111 17.2898L39.4512 18.4143L40.3218 19.1031L39.3128 19.2204L39.4516 20.5575L38.7547 19.5788L38.0573 20.5569L38.1961 19.2204L37.1875 19.1025L38.0581 18.4138L37.4978 17.2892L38.4444 17.7672L38.7547 16.4832Z" fill="#FFE000"/>
<path d="M36.0054 22.5017L36.2505 23.3024L36.897 23.3655L36.4014 23.9239L36.5563 24.7633L36.0054 24.3073L35.4544 24.7639L35.6089 23.9245L35.1133 23.3661L35.7607 23.303L36.0054 22.5017Z" fill="#FFE000"/>
</g>
<defs>
<clipPath id="clip0_45_6064">
<rect width="45" height="45" fill="white"/>
</clipPath>
</defs>
</svg>
