<svg width="45" height="45" viewBox="0 0 45 45" fill="none" xmlns="http://www.w3.org/2000/svg">
<g clip-path="url(#clip0_45_6082)">
<path d="M0 0H45V45H0V0Z" fill="#003399"/>
<path fill-rule="evenodd" clip-rule="evenodd" d="M22.5008 21.8579C21.8542 21.8579 21.3301 22.5568 21.3301 23.4188C21.3301 24.2809 21.8542 24.9798 22.5008 24.9798C23.1473 24.9798 23.6715 24.2809 23.6715 23.4188C23.6715 22.5568 23.1473 21.8579 22.5008 21.8579ZM19.3965 23.4188C19.3965 21.1329 20.7863 19.2798 22.5008 19.2798C24.2152 19.2798 25.6051 21.1329 25.6051 23.4188C25.6051 25.7048 24.2152 27.5579 22.5008 27.5579C20.7863 27.5579 19.3965 25.7048 19.3965 23.4188Z" fill="#FFCC00"/>
<path fill-rule="evenodd" clip-rule="evenodd" d="M22.4996 16.4297C19.6046 16.4297 17.2578 19.5588 17.2578 23.4188C17.2578 27.2787 19.6046 30.4078 22.4996 30.4078C25.3946 30.4078 27.7414 27.2787 27.7414 23.4188C27.7414 19.5588 25.3946 16.4297 22.4996 16.4297ZM15.3242 23.4188C15.3242 18.1349 18.5368 13.8516 22.4996 13.8516C26.4625 13.8516 29.675 18.1349 29.675 23.4188C29.675 28.7026 26.4625 32.9859 22.4996 32.9859C18.5368 32.9859 15.3242 28.7026 15.3242 23.4188Z" fill="#FFCC00"/>
<path d="M28.4555 15.4781L34.4109 23.4188L28.4555 31.3594L22.5 23.4188L28.4555 15.4781Z" fill="#003399"/>
<path d="M12.3555 22.1343H16.518V24.7124H12.3555V22.1343ZM30.5734 22.1343H36.782V24.7124H30.5734V22.1343ZM25.525 17.5687L28.2531 13.9312L29.6172 15.7593L26.8961 19.3874L25.525 17.5687ZM21.5383 4.55615H23.4719V14.5968H21.5383V4.55615Z" fill="#FFCC00"/>
<path d="M15.8266 16.247C16.3586 16.247 16.7898 15.6719 16.7898 14.9626C16.7898 14.2533 16.3586 13.6782 15.8266 13.6782C15.2946 13.6782 14.8633 14.2533 14.8633 14.9626C14.8633 15.6719 15.2946 16.247 15.8266 16.247Z" fill="#FFCC00"/>
<path d="M10.1469 24.703C10.6789 24.703 11.1102 24.128 11.1102 23.4187C11.1102 22.7093 10.6789 22.1343 10.1469 22.1343C9.61487 22.1343 9.18359 22.7093 9.18359 23.4187C9.18359 24.128 9.61487 24.703 10.1469 24.703Z" fill="#FFCC00"/>
<path d="M22.4984 37.0407C23.0304 37.0407 23.4617 36.4656 23.4617 35.7563C23.4617 35.047 23.0304 34.4719 22.4984 34.4719C21.9664 34.4719 21.5352 35.047 21.5352 35.7563C21.5352 36.4656 21.9664 37.0407 22.4984 37.0407Z" fill="#FFCC00"/>
<path d="M22.4984 41.175C23.0304 41.175 23.4617 40.5999 23.4617 39.8906C23.4617 39.1812 23.0304 38.6062 22.4984 38.6062C21.9664 38.6062 21.5352 39.1812 21.5352 39.8906C21.5352 40.5999 21.9664 41.175 22.4984 41.175Z" fill="#FFCC00"/>
<path d="M28.7094 24.703C29.2414 24.703 29.6727 24.128 29.6727 23.4187C29.6727 22.7093 29.2414 22.1343 28.7094 22.1343C28.1774 22.1343 27.7461 22.7093 27.7461 23.4187C27.7461 24.128 28.1774 24.703 28.7094 24.703Z" fill="#FFCC00"/>
<path d="M14.6445 32.0155L16.0156 30.1968L17.3797 32.0155L16.0156 33.8437L14.6445 32.0155ZM29.0375 33.9843L30.4086 32.1562L31.7797 33.9843L30.4086 35.803L29.0375 33.9843Z" fill="#FFCC00"/>
</g>
<defs>
<clipPath id="clip0_45_6082">
<rect width="45" height="45" fill="white"/>
</clipPath>
</defs>
</svg>
