<svg width="45" height="45" viewBox="0 0 45 45" fill="none" xmlns="http://www.w3.org/2000/svg">
<g clip-path="url(#clip0_45_6167)">
<path fill-rule="evenodd" clip-rule="evenodd" d="M-0.0207345 20.5332H55.921V38.687H-0.0273438L-0.0207345 20.5332Z" fill="white"/>
<path fill-rule="evenodd" clip-rule="evenodd" d="M0.0195312 0H55.9348V22.6129H0.0195312V0ZM0.0393596 34.0074H56.3578V45.12H0.0393596V34.0074Z" fill="#081873"/>
<path fill-rule="evenodd" clip-rule="evenodd" d="M0.0390625 26.6665H55.9544V30.1563H0.0390625V26.6665Z" fill="#DE3929"/>
<path fill-rule="evenodd" clip-rule="evenodd" d="M16.7936 35.1795L17.2298 36.9773H18.6442L17.4942 38.0965L17.9304 39.903L16.7936 38.775L15.6436 39.8942L16.0864 38.0877L14.9364 36.9685H16.3574M29.087 22.0665L29.5299 23.8731H30.9377L29.7876 24.9835L30.2238 26.79L29.0738 25.6708L27.9238 26.79L28.36 24.9835L27.21 23.8731H28.6376M13.9648 29.5483L14.401 31.3549H15.822L14.6786 32.4829L15.1214 34.2807L13.9714 33.1703L12.8214 34.2807L13.2576 32.4829L12.1075 31.3637H13.5286M29.087 29.0372L29.5299 30.835H30.9377L29.7876 31.9542L30.2238 33.7519L29.0738 32.6415L27.9238 33.7607L28.36 31.9542L27.21 30.835H28.6376M25.9608 16.5852L26.4036 18.3829H27.8313L26.6812 19.5021L27.1174 21.3087L25.9674 20.1895L24.8174 21.3087L25.2602 19.5021L24.1036 18.3829H25.5312M21.2681 14.3997L21.711 16.2062H23.132L21.982 17.3166L22.4182 19.1232L21.2681 18.0128L20.1181 19.1232L20.5609 17.3166L19.4109 16.2062H20.8253M16.5623 16.4618L17.0051 18.2683H18.4261L17.2761 19.3787L17.7189 21.1853L16.5623 20.0661L15.4122 21.1853L15.8551 19.3787L14.705 18.2683H16.1327M13.8326 22.0753L14.2688 23.8819H15.6964L14.5398 24.9923L14.9826 26.7988L13.8326 25.6797L12.6826 26.7988L13.1188 24.9923L11.9688 23.8819H13.3898M21.2681 37.0478L21.711 38.8543H23.132L21.982 39.9647L22.4248 41.7713L21.2681 40.6521L20.1181 41.7713L20.5609 39.9647L19.4109 38.8543H20.8253M26.2582 35.1795L26.6944 36.9773H28.1155L26.972 38.0965L27.4149 39.903L26.2648 38.7838L25.1082 39.903L25.551 38.0965L24.401 36.9773H25.822" fill="#FFCE08"/>
</g>
<defs>
<clipPath id="clip0_45_6167">
<rect width="45" height="45" fill="white"/>
</clipPath>
</defs>
</svg>
