<svg width="45" height="45" viewBox="0 0 45 45" fill="none" xmlns="http://www.w3.org/2000/svg">
<g clip-path="url(#clip0_45_14140)">
<path d="M0 30H45V45H0V30Z" fill="black"/>
<path d="M0 15H45V30H0V15Z" fill="white"/>
<path d="M0 0H45V15H0V0Z" fill="#CE1126"/>
<path d="M22.5447 22.6799L26.3978 27.4499L26.1222 18.7874C26.0828 17.4749 25.2278 17.7749 24.6034 18.2474C23.9791 18.7874 23.2534 18.7874 22.4997 18.4349C21.7403 18.7874 21.0203 18.7874 20.3959 18.2474C19.7772 17.7749 18.9166 17.4749 18.8772 18.7874L18.6016 27.4499L22.5447 22.6799Z" fill="white"/>
<path fill-rule="evenodd" clip-rule="evenodd" d="M19.416 17.7996C19.7248 17.7685 20.1028 17.968 20.4136 18.2053C20.4141 18.2057 20.4147 18.2062 20.4153 18.2067C21.0272 18.7359 21.7345 18.7384 22.4871 18.3891C22.4949 18.3854 22.5034 18.3854 22.5112 18.3891C23.2581 18.7384 23.9711 18.7359 24.583 18.2067C24.5836 18.2062 24.5842 18.2057 24.5848 18.2052C24.8983 17.968 25.2763 17.7685 25.5844 17.7996C25.7401 17.8153 25.8802 17.8903 25.9833 18.0514C26.0859 18.2116 26.1481 18.451 26.1582 18.7856L26.4338 27.448C26.4344 27.4678 26.426 27.4861 26.4126 27.4944C26.3991 27.5026 26.3833 27.4993 26.3724 27.4858L22.5439 22.7463L18.6256 27.4862C18.6147 27.4994 18.5989 27.5026 18.5855 27.4942C18.5721 27.4859 18.5639 27.4677 18.5645 27.448L18.8401 18.7856C18.8401 18.7856 18.8401 18.7856 18.8401 18.7856C18.8502 18.4509 18.9127 18.2115 19.0158 18.0513C19.1194 17.8902 19.26 17.8153 19.416 17.7996ZM22.5441 22.6801L22.569 22.6444L26.357 27.3337L26.0851 18.7897L26.0851 18.7895C26.0755 18.4679 26.016 18.2526 25.9277 18.1147C25.84 17.9777 25.7199 17.9111 25.5789 17.8968C25.2939 17.868 24.9326 18.0543 24.6219 18.2893C23.9886 18.8363 23.2551 18.8367 22.4991 18.4867C21.7376 18.8366 21.0096 18.8364 20.3763 18.2892C20.0686 18.0544 19.7072 17.868 19.4215 17.8968C19.2801 17.9111 19.1595 17.9777 19.0713 18.1148C18.9826 18.2527 18.9228 18.468 18.9132 18.7895L18.9132 18.7897L18.6413 27.3356L22.5196 22.644L22.5441 22.6801Z" fill="#C09300"/>
<path d="M19.3216 18.4875L19.0516 26.91L18.6016 27.45L18.8772 18.7875C19.0101 18.6517 19.1608 18.5499 19.3216 18.4875ZM19.8616 19.0875L19.6366 26.1375L19.1866 26.7526L19.4566 18.615C19.5466 18.735 19.8109 19.0275 19.8616 19.0875ZM20.3509 19.6275L20.1766 25.5075L19.8109 25.98L20.0359 19.275C20.1259 19.3875 20.3059 19.56 20.3509 19.6275ZM20.8853 19.9275L20.7109 24.9375L20.3566 25.32L20.5309 19.7475C20.6209 19.8 20.7953 19.9275 20.8853 19.9275ZM21.3803 19.9275L21.2509 24.105L20.8853 24.5775L21.0259 19.98C21.1103 19.98 21.3409 19.98 21.3803 19.9275Z" fill="#C09300"/>
<path d="M22.6793 23.625L23.2193 26.91L23.0393 27.15L22.8537 26.9625L22.5499 24.0375L22.6793 26.9625L22.4993 27.2625L22.3249 26.9625L22.4543 24.0375L22.1449 26.9625L21.9593 27.15L21.7793 26.91L22.3193 23.6325H22.6793V23.625Z" fill="#C09300"/>
<path fill-rule="evenodd" clip-rule="evenodd" d="M22.2931 23.5913H22.678V23.6206L22.7082 23.6162L23.2518 26.9233L23.0408 27.2046L22.8235 26.9851L22.6258 25.0813L22.7096 26.976L22.4976 27.3292L22.292 26.9756L22.3773 25.0489L22.1725 26.9852L21.9552 27.2046L21.7441 26.9233L22.2931 23.5913ZM22.6543 23.6738H22.3429L21.8118 26.8969L21.9608 27.0955L22.1148 26.94L22.4224 24.0318L22.4839 24.04L22.3552 26.9495L22.4984 27.1959L22.6464 26.9492L22.5177 24.04L22.5793 24.0319L22.8813 26.94L23.0352 27.0955L23.1841 26.8968L22.6543 23.6738Z" fill="#C09300"/>
<path d="M21.2892 22.1851L20.2148 27.2626L21.6942 27.5626L22.3186 23.7451L21.2892 22.1851Z" fill="white"/>
<path fill-rule="evenodd" clip-rule="evenodd" d="M21.2823 22.1413C21.2943 22.1376 21.3069 22.143 21.3151 22.1554L22.3445 23.7154C22.3516 23.7262 22.3544 23.7407 22.3521 23.7547L21.7277 27.5722C21.7239 27.5954 21.7073 27.6107 21.6897 27.6071L20.2103 27.3071C20.2007 27.3052 20.1923 27.2979 20.187 27.287C20.1818 27.2762 20.1803 27.2628 20.1829 27.2504L21.2573 22.1729C21.2606 22.1571 21.2702 22.1449 21.2823 22.1413ZM21.3054 22.277L20.2583 27.2258L21.6685 27.5118L22.2825 23.7578L21.3054 22.277Z" fill="#C09300"/>
<path fill-rule="evenodd" clip-rule="evenodd" d="M21.7882 23.4879L21.0907 24.3729C21.0819 24.3839 21.0697 24.3886 21.0579 24.3853C21.0462 24.382 21.0364 24.3712 21.0317 24.3564L20.9023 23.9439L20.9698 23.9062L21.0787 24.2534L21.7377 23.4172L21.7882 23.4879Z" fill="#C09300"/>
<path fill-rule="evenodd" clip-rule="evenodd" d="M21.5285 24.7027L21.3822 22.8802L21.4549 22.8699L21.5914 24.5703L21.9801 23.8881L22.0383 23.947L21.8719 24.2392L22.0515 25.0745L22.1362 24.9032L22.1972 24.9569L22.0781 25.198L22.1062 25.3291L22.0359 25.356L22.025 25.3053L21.712 25.9385L21.865 26.8999L21.7935 26.9202L21.6542 26.0451L21.3648 26.6367C21.3571 26.6524 21.3433 26.6609 21.3294 26.6584C21.3154 26.6559 21.3038 26.6429 21.2994 26.625L21.1494 26.0055L20.8647 26.6207C20.8571 26.6372 20.8428 26.6461 20.8283 26.6433C20.8139 26.6405 20.8021 26.6265 20.7983 26.6078L20.5677 25.4678C20.5643 25.4511 20.5678 25.4333 20.5768 25.421L21.0381 24.791C21.0472 24.7785 21.0607 24.7735 21.0734 24.7779C21.086 24.7822 21.096 24.7953 21.0995 24.8121L21.2203 25.3985L21.5074 24.8859C21.5161 24.8703 21.531 24.8631 21.5451 24.8676C21.5593 24.8721 21.5701 24.8873 21.5727 24.9065L21.6928 25.8003L21.9985 25.1818L21.8167 24.3361L21.594 24.727C21.5849 24.743 21.5695 24.7499 21.555 24.7445C21.5406 24.7392 21.5301 24.7226 21.5285 24.7027ZM21.6332 25.9096L21.5156 25.0343L21.2341 25.5367C21.2258 25.5517 21.2118 25.5589 21.1981 25.5555C21.1843 25.552 21.1733 25.5384 21.1696 25.5205L21.0459 24.9199L20.6437 25.4692L20.8469 26.4735L21.1287 25.8645C21.1362 25.8483 21.1501 25.8394 21.1642 25.8417C21.1784 25.8439 21.1903 25.857 21.1946 25.8751L21.3455 26.4978L21.6332 25.9096Z" fill="#C09300"/>
<path fill-rule="evenodd" clip-rule="evenodd" d="M20.8339 26.5395C20.8478 26.5425 20.8591 26.5558 20.863 26.5737L21.0307 27.3298L21.2579 26.825C21.2653 26.8086 21.2791 26.7995 21.2934 26.8016C21.3076 26.8038 21.3196 26.8169 21.324 26.8351L21.4984 27.5551L21.4288 27.5851L21.2792 26.9672L21.0506 27.4752C21.0431 27.4917 21.029 27.5009 21.0146 27.4984C21.0002 27.496 20.9883 27.4824 20.9842 27.4639L20.8143 26.6978L20.5597 27.1782L20.5 27.1219L20.7981 26.5594C20.8062 26.5442 20.8201 26.5364 20.8339 26.5395Z" fill="#C09300"/>
<path d="M22.5008 29.5349C23.6258 29.5349 24.6945 29.4149 25.3245 29.1824C25.5889 29.1149 25.5889 28.9349 25.5889 28.6949C25.8589 28.5749 25.7239 28.1549 25.9095 28.1549C25.7183 28.2299 25.6845 27.7424 25.4595 27.8024C25.4595 27.3824 25.1389 27.3299 24.8745 27.4499C24.3402 27.6824 23.3952 27.7424 22.5008 27.7424C21.6008 27.6824 20.667 27.6824 20.127 27.4424C19.8627 27.3299 19.5477 27.3824 19.5477 27.8024C19.3227 27.7424 19.2833 28.2224 19.0977 28.1549C19.2833 28.1549 19.1427 28.5824 19.4127 28.6949C19.4127 28.9349 19.4127 29.1149 19.6827 29.1824C20.3014 29.4149 21.3814 29.5349 22.5008 29.5349Z" fill="white"/>
<path fill-rule="evenodd" clip-rule="evenodd" d="M19.7153 27.3376C19.8458 27.2774 20.0066 27.297 20.1467 27.3566L20.1475 27.3569L20.1475 27.357C20.4087 27.473 20.7696 27.5326 21.1826 27.57C21.4371 27.5931 21.7075 27.6076 21.9834 27.6224C22.1548 27.6315 22.3284 27.6408 22.5016 27.6523C23.397 27.6523 24.3301 27.5915 24.8523 27.3645C24.9928 27.3008 25.1549 27.2793 25.2868 27.3383C25.3539 27.3683 25.4149 27.4201 25.4589 27.4999C25.4911 27.5585 25.5122 27.6284 25.5212 27.709C25.5651 27.7153 25.6033 27.738 25.6363 27.7695C25.6835 27.8146 25.7205 27.8785 25.7499 27.9294L25.7509 27.9312C25.7827 27.9865 25.8057 28.0264 25.8303 28.0515C25.8415 28.0629 25.8515 28.0697 25.8622 28.0719C25.877 28.0671 25.8926 28.0648 25.9087 28.0648C25.9422 28.0648 25.9707 28.0977 25.9755 28.142C25.9803 28.1863 25.9599 28.2286 25.9277 28.2412C25.9132 28.2469 25.8992 28.2503 25.8857 28.2518C25.8835 28.2542 25.8805 28.2585 25.8769 28.267C25.8667 28.2908 25.8605 28.3231 25.8506 28.3749C25.849 28.3835 25.8472 28.3926 25.8454 28.4023C25.8336 28.4633 25.8171 28.54 25.7821 28.6099C25.7529 28.668 25.7124 28.7188 25.6555 28.7554C25.6548 28.8527 25.6497 28.9568 25.6147 29.0453C25.5685 29.1619 25.4801 29.2334 25.3391 29.27C24.6997 29.5053 23.6248 29.6248 22.4999 29.6248C21.381 29.6248 20.2949 29.5053 19.6664 29.27C19.5232 29.2336 19.4332 29.1625 19.3861 29.046C19.3504 28.9576 19.3451 28.8535 19.3444 28.7564C19.2877 28.721 19.2472 28.6707 19.2185 28.6126C19.1838 28.5425 19.1681 28.4651 19.157 28.4037C19.1551 28.3932 19.1534 28.3834 19.1518 28.3743C19.1427 28.3229 19.1369 28.2905 19.1271 28.2665C19.1231 28.2568 19.12 28.2527 19.1179 28.2507C19.1054 28.2495 19.0924 28.2465 19.079 28.2417C19.0464 28.2298 19.0254 28.1876 19.0299 28.1429C19.0344 28.0982 19.063 28.0648 19.0968 28.0648C19.1113 28.0648 19.1254 28.0667 19.1389 28.0706C19.1497 28.0685 19.1601 28.0614 19.1723 28.0488C19.1964 28.0238 19.219 27.9854 19.2496 27.9333C19.251 27.9308 19.2524 27.9284 19.2539 27.9259C19.2838 27.8751 19.3213 27.8121 19.3691 27.7677C19.4023 27.7369 19.4405 27.7149 19.4843 27.7088C19.4931 27.6286 19.5138 27.5589 19.5454 27.5004C19.5887 27.4205 19.6488 27.3682 19.7153 27.3376ZM19.2512 28.1949C19.2672 28.2399 19.2765 28.2937 19.2842 28.338C19.2856 28.3463 19.2869 28.3542 19.2883 28.3616C19.299 28.4212 19.3104 28.4717 19.3311 28.5134C19.3503 28.5521 19.3793 28.587 19.4319 28.6089C19.4601 28.6207 19.4793 28.6555 19.4793 28.6948C19.4793 28.8218 19.4809 28.9012 19.505 28.9606C19.525 29.0102 19.5692 29.0626 19.6942 29.0939C19.6962 29.0944 19.6982 29.095 19.7001 29.0957C20.3095 29.3247 21.3818 29.4448 22.4999 29.4448C23.6235 29.4448 24.6848 29.3247 25.3057 29.0956C25.3074 29.095 25.3092 29.0944 25.311 29.0939C25.4328 29.0628 25.4757 29.0108 25.4953 28.9612C25.519 28.9015 25.5206 28.8217 25.5206 28.6948C25.5206 28.6561 25.5391 28.6217 25.5667 28.6095C25.6198 28.5858 25.6499 28.5496 25.6698 28.5098C25.6912 28.4672 25.7032 28.4164 25.7146 28.3574C25.716 28.3502 25.7175 28.3425 25.7189 28.3346C25.7268 28.2923 25.7363 28.2414 25.7518 28.1979C25.7506 28.1968 25.7495 28.1956 25.7483 28.1945C25.709 28.1544 25.6759 28.0967 25.6488 28.0495C25.6468 28.046 25.6448 28.0425 25.6428 28.039C25.6117 27.985 25.5861 27.9429 25.5577 27.9158C25.5328 27.8921 25.5073 27.8812 25.4719 27.8906C25.4521 27.8959 25.4315 27.889 25.4159 27.8719C25.4002 27.8548 25.3912 27.8293 25.3912 27.8023C25.3912 27.7131 25.3743 27.6506 25.35 27.6065C25.3256 27.5621 25.2899 27.5295 25.2439 27.5089C25.1494 27.4667 25.0193 27.4788 24.8954 27.535L24.8946 27.5354L24.8946 27.5354C24.3484 27.7731 23.3925 27.8323 22.4999 27.8323C22.4988 27.8323 22.4977 27.8323 22.4966 27.8322C22.3258 27.8208 22.1529 27.8116 21.9813 27.8024C21.7036 27.7875 21.4293 27.7728 21.1735 27.7496C20.7599 27.7121 20.3841 27.6517 20.1053 27.5279C19.9811 27.4752 19.8524 27.4648 19.7594 27.5077C19.7141 27.5286 19.679 27.5612 19.6549 27.6057C19.6309 27.65 19.6143 27.7128 19.6143 27.8023C19.6143 27.8293 19.6052 27.8548 19.5896 27.8719C19.574 27.889 19.5534 27.8959 19.5336 27.8906C19.4978 27.8811 19.4716 27.8919 19.4463 27.9154C19.4175 27.9421 19.3915 27.9837 19.3602 28.0369C19.3577 28.041 19.3553 28.0453 19.3527 28.0496C19.3258 28.0957 19.2931 28.1515 19.2552 28.1908C19.2539 28.1922 19.2526 28.1936 19.2512 28.1949Z" fill="#C09300"/>
<path d="M20.9761 27.2625C21.3361 27.33 21.7411 27.3825 22.0561 27.33C22.2361 27.33 22.3654 27.7425 22.0054 27.8025C21.6961 27.855 21.2011 27.8025 20.9367 27.7425C20.5888 27.6613 20.2435 27.5612 19.9017 27.4425C19.5867 27.2625 19.8117 26.9175 19.9917 26.9625C20.3128 27.0997 20.6421 27.2 20.9761 27.2625ZM24.0248 27.2625C23.6648 27.33 23.2598 27.3825 22.9561 27.33C22.7648 27.33 22.6354 27.7425 22.9954 27.8025C23.3104 27.855 23.7998 27.8025 24.0642 27.7425C24.2892 27.6825 24.7842 27.57 25.0992 27.4425C25.4142 27.2625 25.1892 26.9175 25.0092 26.9625C24.6881 27.0997 24.3588 27.2001 24.0248 27.2625Z" fill="white"/>
<path fill-rule="evenodd" clip-rule="evenodd" d="M19.9131 27.3962C19.8408 27.3543 19.8051 27.3062 19.79 27.2642C19.7753 27.223 19.7777 27.1804 19.7931 27.1402C19.8089 27.0989 19.838 27.0612 19.8738 27.0364C19.9087 27.012 19.9474 27.0019 19.9823 27.0098C20.3047 27.1474 20.6352 27.248 20.9704 27.3107M19.9131 27.3962C20.253 27.5142 20.5964 27.6136 20.9424 27.6944C21.205 27.754 21.6959 27.8057 22.0003 27.7541L22.0004 27.7541C22.0855 27.7399 22.1362 27.7057 22.1643 27.6687C22.1915 27.6327 22.2001 27.5907 22.1964 27.5494C22.1886 27.4621 22.1267 27.3803 22.0576 27.3787C21.7377 27.4314 21.3296 27.3781 20.9704 27.3107M19.84 26.9499C19.8872 26.9171 19.9433 26.9009 19.9979 26.9145C19.9994 26.9149 20.0009 26.9154 20.0023 26.916C20.3214 27.0523 20.6487 27.1521 20.9806 27.2142L20.9755 27.2624L20.9806 27.2142C21.3405 27.2816 21.7413 27.3332 22.051 27.2816C22.0525 27.2813 22.054 27.2812 22.0555 27.2812C22.1656 27.2812 22.2572 27.405 22.269 27.5379C22.2752 27.6073 22.2599 27.6797 22.2157 27.7379C22.1724 27.7951 22.1043 27.835 22.0095 27.8508C21.6951 27.9041 21.1962 27.8509 20.93 27.7905L20.9298 27.7905C20.581 27.709 20.2347 27.6087 19.8919 27.4896C19.8902 27.489 19.8884 27.4882 19.8867 27.4872C19.8032 27.4395 19.7496 27.3775 19.724 27.3062C19.698 27.2335 19.7039 27.1588 19.7279 27.0959C19.7516 27.0341 19.7927 26.9827 19.84 26.9499ZM25.2758 27.3062C25.2502 27.3775 25.1966 27.4395 25.1131 27.4872C25.1118 27.4879 25.1106 27.4886 25.1093 27.4891C24.8569 27.5912 24.4899 27.6838 24.2382 27.7473C24.1735 27.7637 24.1164 27.7781 24.0708 27.7902L24.0698 27.7905C23.8036 27.8509 23.3103 27.9041 22.9904 27.8508C22.8955 27.835 22.8274 27.7951 22.7842 27.7378C22.7401 27.6794 22.7252 27.6068 22.7323 27.5371C22.7459 27.4031 22.841 27.2812 22.9555 27.2812C22.9571 27.2812 22.9587 27.2813 22.9602 27.2816C23.2586 27.3332 23.6592 27.2817 24.0192 27.2142L24.0243 27.2624L24.0192 27.2142C24.3511 27.1521 24.6784 27.0524 24.9975 26.916C24.9989 26.9154 25.0004 26.9149 25.0019 26.9145C25.0565 26.9009 25.1126 26.9171 25.1598 26.9499C25.2071 26.9827 25.2482 27.0341 25.2719 27.0959C25.2959 27.1588 25.3018 27.2335 25.2758 27.3062ZM24.0294 27.3107C23.6703 27.378 23.2622 27.4314 22.9533 27.3787C22.8775 27.3803 22.8135 27.4638 22.8047 27.5502C22.8006 27.5912 22.8088 27.6329 22.8358 27.6687C22.8636 27.7057 22.9143 27.7399 22.9994 27.7541C23.3093 27.8057 23.7943 27.754 24.057 27.6945C24.1039 27.682 24.1619 27.6673 24.2274 27.6508C24.4786 27.5874 24.8381 27.4967 25.0861 27.3966C25.1588 27.3546 25.1947 27.3064 25.2098 27.2642C25.2245 27.223 25.2221 27.1804 25.2067 27.1402C25.1909 27.0989 25.1618 27.0612 25.126 27.0364C25.0911 27.012 25.0524 27.0019 25.0175 27.0098C24.6951 27.1474 24.3646 27.248 24.0294 27.3107" fill="#C09300"/>
<path d="M19.8551 27.03C19.5851 26.9625 19.4614 27.3825 19.5457 27.6225C19.5851 27.5025 19.7707 27.5025 19.8101 27.3825C19.8607 27.2025 19.7707 27.2025 19.8607 27.03H19.8551ZM20.9351 28.1325C20.9351 27.8925 21.1095 27.9225 21.1095 27.6825C21.1095 27.57 21.0645 27.3825 20.9745 27.3825C20.9276 27.386 20.8834 27.4125 20.8502 27.4567C20.817 27.501 20.7972 27.56 20.7945 27.6225C20.7551 27.855 20.9351 27.8925 20.9351 28.1325ZM22.212 27.45C22.4764 27.45 22.4482 27.9225 22.3245 28.1625C22.3245 27.99 22.0995 27.9225 22.0995 27.8025C22.0995 27.6225 22.302 27.6225 22.212 27.45ZM25.137 27.03C25.4126 26.9625 25.542 27.3825 25.452 27.6225C25.4126 27.5025 25.227 27.5025 25.1876 27.3825C25.137 27.2025 25.227 27.2025 25.137 27.03ZM24.0739 28.125C24.0739 27.885 23.8939 27.915 23.8939 27.675C23.8939 27.5625 23.9389 27.375 24.0289 27.375C24.0757 27.3785 24.12 27.405 24.1531 27.4492C24.1863 27.4935 24.2062 27.5525 24.2089 27.615C24.2482 27.8475 24.0682 27.885 24.0682 28.125H24.0739ZM22.7801 27.45C22.5157 27.45 22.5439 27.9225 22.6676 28.1625C22.6676 27.99 22.8926 27.9225 22.8926 27.8025C22.8926 27.6225 22.6901 27.6225 22.7801 27.45Z" fill="white"/>
<path fill-rule="evenodd" clip-rule="evenodd" d="M19.8598 26.9812C19.7085 26.9453 19.5971 27.0466 19.5372 27.1867C19.4781 27.3249 19.4661 27.5066 19.514 27.6431C19.5201 27.6604 19.5333 27.6714 19.5476 27.6712C19.562 27.6709 19.5749 27.6595 19.5806 27.6419C19.5861 27.6252 19.5978 27.6093 19.6183 27.593C19.6389 27.5766 19.6641 27.563 19.6929 27.5477L19.6943 27.5469C19.7214 27.5325 19.7518 27.5163 19.7779 27.4955C19.8045 27.4743 19.8308 27.4452 19.845 27.402C19.8453 27.4012 19.8455 27.4003 19.8458 27.3995C19.8597 27.3498 19.8646 27.3103 19.8647 27.2759C19.8648 27.2492 19.8618 27.2256 19.8596 27.2078C19.8591 27.2036 19.8586 27.1997 19.8582 27.1962C19.8561 27.1771 19.8555 27.1624 19.8589 27.1441C19.8624 27.1248 19.8711 27.098 19.8922 27.0577C19.8999 27.0428 19.9009 27.0234 19.8945 27.0073C19.8882 26.9912 19.8758 26.9812 19.8621 26.9812H19.8598ZM19.8013 27.0714C19.7093 27.0708 19.6417 27.1392 19.6007 27.235C19.5626 27.324 19.5494 27.4329 19.5623 27.5256C19.5683 27.5197 19.5745 27.5143 19.5808 27.5093C19.6068 27.4886 19.6372 27.4724 19.6643 27.4579L19.6657 27.4571C19.6945 27.4418 19.7198 27.4282 19.7404 27.4118C19.7604 27.3959 19.772 27.3803 19.7777 27.3639C19.7887 27.3244 19.7915 27.2968 19.7916 27.2754C19.7916 27.2578 19.7899 27.2441 19.7879 27.2272C19.7872 27.222 19.7866 27.2165 19.7859 27.2105C19.7831 27.1856 19.7812 27.1566 19.7879 27.1208C19.7908 27.1051 19.7952 27.0888 19.8013 27.0714ZM25.1384 27.0299L25.1084 27.0577C25.1294 27.098 25.1381 27.1248 25.1417 27.1441C25.145 27.1624 25.1444 27.1771 25.1423 27.1962C25.1419 27.1997 25.1414 27.2036 25.1409 27.2078C25.1387 27.2256 25.1358 27.2492 25.1358 27.2759C25.1359 27.3103 25.1408 27.3498 25.1548 27.3995C25.155 27.4003 25.1553 27.4012 25.1555 27.402C25.1697 27.4452 25.196 27.4743 25.2227 27.4955C25.2487 27.5163 25.2791 27.5325 25.3062 27.5469L25.3076 27.5477C25.3364 27.563 25.3617 27.5766 25.3823 27.593C25.4027 27.6093 25.4144 27.6252 25.4199 27.6419C25.4256 27.6593 25.4383 27.6707 25.4525 27.6711C25.4666 27.6716 25.4797 27.6611 25.4861 27.6442C25.5375 27.5071 25.5253 27.3246 25.4646 27.1862C25.4025 27.0449 25.2871 26.9439 25.1318 26.982L25.1384 27.0299ZM25.4014 27.2355C25.3601 27.1412 25.2917 27.073 25.1992 27.0715C25.2054 27.0888 25.2097 27.1051 25.2126 27.1208C25.2193 27.1566 25.2174 27.1856 25.2146 27.2105C25.214 27.2165 25.2133 27.222 25.2127 27.2272C25.2106 27.2441 25.2089 27.2578 25.209 27.2754C25.209 27.2968 25.2119 27.3244 25.2229 27.3639C25.2285 27.3803 25.2401 27.3959 25.2601 27.4118C25.2807 27.4282 25.306 27.4418 25.3348 27.4571L25.3362 27.4579C25.3633 27.4724 25.3937 27.4886 25.4197 27.5093C25.4264 27.5146 25.4331 27.5204 25.4395 27.5268C25.4539 27.4342 25.4407 27.3249 25.4014 27.2355ZM23.9618 27.5043C23.942 27.558 23.9318 27.6256 23.9318 27.6749C23.9318 27.7259 23.9412 27.7597 23.9541 27.7862C23.9677 27.8143 23.9863 27.8363 24.0093 27.8632L24.0107 27.8648C24.0293 27.8864 24.0508 27.9116 24.069 27.9437C24.0843 27.9076 24.1023 27.8771 24.1186 27.8494C24.1211 27.8453 24.1235 27.8412 24.1259 27.8371C24.1459 27.8029 24.1615 27.774 24.1707 27.7417C24.1794 27.711 24.1829 27.6748 24.1746 27.6256C24.1742 27.623 24.1739 27.6204 24.1738 27.6177C24.1716 27.5672 24.1556 27.5194 24.1287 27.4837C24.1021 27.4482 24.0668 27.4269 24.0293 27.4237C24.0062 27.4243 23.9822 27.449 23.9618 27.5043ZM24.1094 28.0755C24.1185 28.0077 24.1463 27.9605 24.1778 27.9068C24.1797 27.9036 24.1816 27.9004 24.1835 27.8971C24.2036 27.8629 24.2256 27.8238 24.2391 27.7762C24.2528 27.7279 24.2571 27.6734 24.2466 27.6081C24.2427 27.5351 24.2192 27.4665 24.1804 27.4147C24.1409 27.362 24.0882 27.3305 24.0324 27.3262C24.032 27.3262 24.0316 27.3262 24.0312 27.3262C24.0309 27.3262 24.0306 27.3262 24.0303 27.3262C23.9637 27.3262 23.9205 27.3954 23.8962 27.4612C23.8711 27.5293 23.8587 27.6117 23.8587 27.6749C23.8587 27.744 23.8719 27.7964 23.8927 27.8393C23.9124 27.8797 23.9382 27.9097 23.9598 27.935L23.9612 27.9366C23.9843 27.9635 24.0028 27.9855 24.0165 28.0136C24.0247 28.0306 24.0315 28.0507 24.0354 28.0763C24.0339 28.0917 24.0331 28.1079 24.0331 28.1249C24.0331 28.1518 24.0494 28.1737 24.0696 28.1737H24.0753C24.0955 28.1737 24.1118 28.1518 24.1118 28.1249C24.1118 28.1074 24.111 28.091 24.1094 28.0755ZM20.9738 27.3337C20.9745 27.3337 20.9752 27.3337 20.9759 27.3337C21.0425 27.3337 21.0856 27.4029 21.1099 27.4687C21.1351 27.5368 21.1475 27.6192 21.1475 27.6824C21.1475 27.7511 21.1348 27.8033 21.1146 27.8462C21.0955 27.8866 21.0705 27.9167 21.0495 27.942L21.0482 27.9436C21.0259 27.9705 21.008 27.9925 20.9947 28.0205C20.9822 28.0471 20.9731 28.0811 20.9731 28.1324H20.9C20.9 28.0362 20.867 27.9802 20.8283 27.9143C20.8264 27.9111 20.8245 27.9079 20.8226 27.9046C20.8026 27.8704 20.7806 27.8313 20.7671 27.7837C20.7534 27.7354 20.749 27.6809 20.7596 27.6156C20.7635 27.5426 20.7869 27.474 20.8257 27.4222C20.8653 27.3695 20.918 27.338 20.9738 27.3337ZM20.9391 27.956C20.9235 27.9178 20.9046 27.8858 20.8875 27.8569C20.8851 27.8528 20.8826 27.8487 20.8803 27.8446C20.8602 27.8104 20.8446 27.7815 20.8354 27.7492C20.8267 27.7185 20.8232 27.6823 20.8316 27.6331C20.832 27.6305 20.8323 27.6279 20.8324 27.6252C20.8346 27.5747 20.8506 27.5269 20.8774 27.4912C20.904 27.4557 20.9394 27.4344 20.9768 27.4312C20.9999 27.4318 21.0239 27.4565 21.0443 27.5118C21.0642 27.5655 21.0743 27.6331 21.0743 27.6824C21.0743 27.7337 21.0652 27.7677 21.0527 27.7943C21.0395 27.8224 21.0215 27.8443 20.9992 27.8712L20.9979 27.8728C20.9791 27.8954 20.9572 27.9218 20.9391 27.956ZM22.181 27.4273C22.1873 27.4112 22.1998 27.4012 22.2134 27.4012C22.2884 27.4012 22.3466 27.4352 22.387 27.4948C22.4266 27.5531 22.4458 27.6309 22.4516 27.7116C22.463 27.8719 22.4224 28.0613 22.356 28.19C22.3469 28.2076 22.3303 28.2153 22.315 28.209C22.2998 28.2026 22.2893 28.1838 22.2893 28.1624C22.2893 28.1348 22.2806 28.1091 22.2631 28.0822C22.2452 28.0546 22.2203 28.0291 22.1922 28.0024C22.1875 27.998 22.1827 27.9935 22.1779 27.989C22.155 27.9675 22.1305 27.9445 22.1113 27.9209C22.0884 27.8928 22.0643 27.8537 22.0643 27.8024C22.0643 27.6968 22.1199 27.6372 22.1559 27.5985C22.16 27.5941 22.1639 27.5899 22.1674 27.586C22.1875 27.5635 22.1961 27.5498 22.1989 27.5379C22.2006 27.5306 22.2023 27.5141 22.1834 27.4777C22.1756 27.4628 22.1747 27.4434 22.181 27.4273ZM22.2719 27.5094C22.298 27.52 22.3177 27.538 22.3328 27.5602C22.3585 27.598 22.374 27.6533 22.3788 27.7208C22.3861 27.8235 22.3677 27.9438 22.3336 28.0445C22.3288 28.0353 22.3237 28.0266 22.3184 28.0183C22.2941 27.981 22.2628 27.9498 22.2346 27.923C22.229 27.9177 22.2236 27.9127 22.2184 27.9077C22.1957 27.8864 22.1762 27.868 22.1608 27.8492C22.1415 27.8255 22.1375 27.8111 22.1375 27.8024C22.1375 27.7458 22.1641 27.7163 22.2025 27.6739C22.2064 27.6696 22.2103 27.6652 22.2144 27.6607C22.2337 27.6391 22.2588 27.6092 22.2687 27.567C22.2731 27.548 22.2741 27.5288 22.2719 27.5094ZM22.6079 27.4948C22.6483 27.4352 22.7065 27.4012 22.7815 27.4012C22.7951 27.4012 22.8076 27.4112 22.8139 27.4273C22.8202 27.4434 22.8193 27.4628 22.8115 27.4777C22.7926 27.5141 22.7943 27.5306 22.796 27.5379C22.7988 27.5498 22.8074 27.5635 22.8275 27.586C22.831 27.5899 22.8349 27.5941 22.839 27.5985C22.875 27.6372 22.9306 27.6968 22.9306 27.8024C22.9306 27.8537 22.9065 27.8928 22.8836 27.9209C22.8644 27.9445 22.8399 27.9675 22.817 27.989C22.8122 27.9935 22.8074 27.998 22.8027 28.0024C22.7746 28.0291 22.7498 28.0546 22.7318 28.0822C22.7143 28.1091 22.7056 28.1348 22.7056 28.1624C22.7056 28.1838 22.6952 28.2026 22.6799 28.209C22.6646 28.2153 22.648 28.2076 22.6389 28.19C22.5725 28.0613 22.5319 27.8719 22.5433 27.7116C22.5491 27.6309 22.5683 27.5531 22.6079 27.4948ZM22.6613 28.0445C22.6272 27.9438 22.6088 27.8235 22.6161 27.7208C22.6209 27.6533 22.6364 27.598 22.6621 27.5602C22.6772 27.538 22.6969 27.52 22.723 27.5094C22.7208 27.5288 22.7218 27.548 22.7262 27.567C22.7361 27.6092 22.7612 27.6391 22.7805 27.6607C22.7846 27.6652 22.7885 27.6696 22.7924 27.6739C22.8308 27.7163 22.8575 27.7458 22.8575 27.8024C22.8575 27.8111 22.8534 27.8255 22.8341 27.8492C22.8187 27.868 22.7992 27.8864 22.7765 27.9077C22.7713 27.9127 22.7659 27.9177 22.7603 27.923C22.7322 27.9498 22.7008 27.981 22.6765 28.0183C22.6712 28.0266 22.6661 28.0353 22.6613 28.0445Z" fill="#C09300"/>
<path d="M19.9531 27.1499C20.0431 27.1499 20.1781 27.2024 20.2175 27.2699L19.9531 27.1499ZM20.3975 27.3299C20.4425 27.3299 20.6225 27.3824 20.7069 27.4499L20.3975 27.3299ZM22.0063 27.5699C21.9219 27.5699 21.7419 27.5699 21.6969 27.6224L22.0063 27.5624V27.5699ZM21.5169 27.5699C21.4662 27.5024 21.2919 27.5024 21.2019 27.5699H21.5169ZM25.0494 27.1499C24.9539 27.1515 24.8613 27.1935 24.785 27.2699L25.0494 27.1499ZM24.6106 27.3299C24.5544 27.3299 24.3856 27.3824 24.2956 27.4499L24.6106 27.3299ZM22.9962 27.5699C23.0806 27.5699 23.2606 27.5699 23.3112 27.6224L22.9962 27.5624V27.5699ZM23.4856 27.5699C23.5362 27.5024 23.7106 27.5024 23.8006 27.5699H23.4856Z" fill="white"/>
<path fill-rule="evenodd" clip-rule="evenodd" d="M25.0723 27.1442C25.0744 27.1606 25.0673 27.1766 25.0555 27.1819L24.7911 27.3019C24.7793 27.3073 24.7664 27.3004 24.7606 27.2857C24.7548 27.271 24.7578 27.2529 24.7678 27.243C24.8484 27.1623 24.9462 27.1179 25.047 27.1162C25.0595 27.116 25.0702 27.1279 25.0723 27.1442ZM19.9261 27.1444C19.9281 27.1282 19.9387 27.1162 19.9511 27.1162C19.9992 27.1162 20.0581 27.1301 20.1101 27.1525C20.1361 27.1638 20.1611 27.1775 20.1824 27.1932C20.2035 27.2086 20.2226 27.2272 20.2355 27.2492C20.2423 27.261 20.2426 27.2774 20.2361 27.2895C20.2296 27.3017 20.2179 27.3067 20.2073 27.3019L19.9429 27.1819C19.9312 27.1766 19.9241 27.1607 19.9261 27.1444ZM20.3704 27.3252C20.3722 27.3086 20.3829 27.2962 20.3955 27.2962C20.4216 27.2962 20.4806 27.3104 20.5419 27.332C20.6035 27.3537 20.6725 27.3847 20.7179 27.421C20.7288 27.4297 20.7331 27.4479 20.728 27.4635C20.723 27.479 20.71 27.4871 20.6978 27.4824L20.3884 27.3624C20.3763 27.3577 20.3686 27.3418 20.3704 27.3252ZM24.4572 27.332C24.518 27.3104 24.577 27.2962 24.6086 27.2962C24.6212 27.2962 24.6319 27.3086 24.6337 27.3253C24.6354 27.3419 24.6277 27.3578 24.6155 27.3624L24.3005 27.4824C24.2882 27.4871 24.2752 27.4788 24.2702 27.463C24.2653 27.4472 24.27 27.4289 24.2812 27.4205C24.3289 27.3848 24.396 27.3539 24.4572 27.332ZM21.4632 27.4993C21.49 27.5084 21.5154 27.523 21.5327 27.5461C21.54 27.5557 21.5421 27.5703 21.5382 27.5829C21.5343 27.5955 21.5251 27.6037 21.5148 27.6037H21.1998C21.1883 27.6037 21.1783 27.5934 21.1754 27.5785C21.1724 27.5637 21.1774 27.5481 21.1874 27.5405C21.2375 27.503 21.3084 27.4856 21.3721 27.4856C21.4043 27.4856 21.4358 27.49 21.4632 27.4993ZM23.6263 27.4856C23.6901 27.4856 23.7609 27.503 23.811 27.5405C23.821 27.5481 23.826 27.5637 23.8231 27.5785C23.8202 27.5934 23.8101 27.6037 23.7986 27.6037H23.4836C23.4734 27.6037 23.4641 27.5955 23.4602 27.5829C23.4563 27.5703 23.4585 27.5557 23.4657 27.5461C23.483 27.523 23.5085 27.5084 23.5353 27.4993C23.5626 27.49 23.5941 27.4856 23.6263 27.4856ZM22.0208 27.5369C22.0263 27.5433 22.0295 27.5527 22.0295 27.5625V27.57C22.0295 27.5886 22.0182 27.6037 22.0042 27.6037C21.9931 27.6037 21.9805 27.6037 21.9668 27.6038L21.6985 27.6559C21.6874 27.658 21.6765 27.6502 21.6719 27.6366C21.6672 27.623 21.6697 27.6069 21.6782 27.5971C21.6945 27.578 21.7196 27.5667 21.7447 27.5592C21.7709 27.5513 21.8016 27.5462 21.8327 27.5429C21.8773 27.5381 21.9244 27.5367 21.9629 27.5364L22.0006 27.5291C22.0079 27.5277 22.0152 27.5305 22.0208 27.5369ZM22.9776 27.537C22.9832 27.5306 22.9905 27.5277 22.9978 27.5291L23.0362 27.5364C23.0747 27.5368 23.1216 27.5381 23.1664 27.5429C23.1979 27.5462 23.229 27.5513 23.2559 27.5591C23.2819 27.5667 23.3074 27.5778 23.3248 27.5958C23.3338 27.6052 23.337 27.6216 23.3325 27.6356C23.328 27.6497 23.317 27.658 23.3056 27.6559L23.0325 27.6038C23.0184 27.6037 23.0055 27.6037 22.9942 27.6037C22.9802 27.6037 22.9689 27.5886 22.9689 27.57V27.5625C22.9689 27.5527 22.9721 27.5434 22.9776 27.537Z" fill="#C09300"/>
<path d="M19.8713 28.0949C19.8431 28.0874 19.8263 28.0499 19.8375 28.0199C19.8431 27.9674 19.8713 27.9449 19.8938 27.9599C19.9163 27.9599 19.9444 28.0049 19.9444 28.0199L19.9219 28.0724L19.9106 28.0799C19.9106 28.0949 19.8881 28.0949 19.8713 28.0949ZM22.965 28.3874C22.9538 28.3874 22.9313 28.3499 22.9313 28.3349C22.9313 28.3049 22.965 28.2599 22.9875 28.2599L23.0325 28.2899C23.0494 28.3124 23.0494 28.3574 23.0269 28.3799C23.0156 28.3949 22.9819 28.3949 22.965 28.3799V28.3874ZM22.9819 28.5749C22.9594 28.5599 22.9538 28.5449 22.9481 28.5149C22.9481 28.4774 22.9481 28.4699 22.9763 28.4474L22.9988 28.4324L23.0213 28.4474C23.0438 28.4624 23.0606 28.4774 23.0606 28.5074C23.0606 28.5299 23.0438 28.5524 23.0213 28.5674C23.0044 28.5824 22.9988 28.5824 22.9819 28.5674V28.5749Z" fill="#C09300"/>
<path d="M20.1252 27.75C20.1027 27.75 20.0745 27.78 20.0577 27.795C20.0239 27.8025 19.9789 27.8325 19.9452 27.795C19.9114 27.7875 19.8664 27.795 19.8608 27.855C19.8664 27.9075 19.917 27.93 19.9508 27.9C19.9733 27.8625 20.0352 27.8325 20.0464 27.9C20.0183 27.96 20.0239 28.0275 20.0014 28.08C20.0014 28.1175 19.9845 28.1475 19.9733 28.1775C19.9452 28.1775 19.917 28.1775 19.8945 28.2C19.8771 28.2 19.8598 28.2054 19.8442 28.2158C19.8286 28.2263 19.815 28.2414 19.8045 28.26C19.782 28.305 19.7595 28.35 19.7539 28.41C19.7595 28.455 19.8102 28.47 19.8439 28.4775L19.9564 28.5225L20.1364 28.59C20.2264 28.6275 20.3164 28.6425 20.4064 28.6725L20.4345 28.68C20.4739 28.695 20.4908 28.6425 20.4908 28.605L20.547 28.335C20.5583 28.2975 20.5752 28.2225 20.5245 28.2375C20.4964 28.26 20.4683 28.2975 20.4345 28.2975C20.3839 28.2975 20.412 28.3725 20.4345 28.395C20.4345 28.44 20.4233 28.4925 20.4064 28.53C20.3727 28.5525 20.3389 28.53 20.3052 28.515C20.277 28.515 20.2095 28.4925 20.2377 28.44L20.2658 28.305C20.2827 28.26 20.2827 28.2075 20.2939 28.155C20.2714 28.1025 20.2377 28.1775 20.2095 28.185C20.187 28.2 20.1195 28.2075 20.1533 28.26C20.187 28.29 20.1645 28.3425 20.1533 28.3875C20.1533 28.44 20.1083 28.4625 20.0745 28.44C20.0408 28.44 19.9902 28.4025 20.0183 28.3575L20.0464 28.2225L20.0858 28.0725C20.0858 28.02 20.1027 27.9825 20.1195 27.9375C20.1195 27.885 20.1477 27.84 20.1477 27.7875C20.1477 27.765 20.1364 27.7575 20.1252 27.7575V27.75ZM19.917 28.2975C19.9196 28.2955 19.9225 28.2945 19.9255 28.2945C19.9284 28.2945 19.9313 28.2955 19.9339 28.2975C19.9452 28.3125 19.9452 28.3275 19.9339 28.3425L19.917 28.3575C19.8889 28.3575 19.8833 28.35 19.8833 28.335C19.8833 28.3275 19.8833 28.32 19.9002 28.3125C19.907 28.3059 19.9146 28.3009 19.9227 28.2975H19.917ZM19.8608 28.6725C19.8327 28.6425 19.8383 28.62 19.8777 28.575C19.9002 28.56 19.9058 28.56 19.9283 28.5825C19.962 28.62 19.962 28.6425 19.9283 28.68C19.917 28.695 19.9114 28.695 19.9002 28.695C19.8833 28.695 19.8777 28.695 19.8608 28.68V28.6725ZM20.0295 28.7475C20.017 28.7423 20.0064 28.7308 20.0001 28.7154C19.9938 28.7 19.9923 28.6819 19.9958 28.665C20.007 28.635 20.0127 28.6275 20.0464 28.6275C20.0858 28.6275 20.0914 28.635 20.097 28.68C20.097 28.71 20.097 28.7175 20.0802 28.7325C20.0739 28.7391 20.0666 28.7439 20.0589 28.7465C20.0511 28.7491 20.043 28.7494 20.0352 28.7475H20.0295ZM25.047 28.7475C25.0358 28.74 25.0302 28.7325 25.0302 28.71C25.0302 28.68 25.0414 28.6575 25.0752 28.6425C25.1089 28.62 25.1314 28.62 25.1427 28.6575C25.1595 28.7025 25.1595 28.7175 25.137 28.7475C25.1258 28.77 25.1202 28.77 25.092 28.77C25.0639 28.77 25.0583 28.77 25.047 28.755V28.7475ZM20.2658 28.8375C20.2433 28.8375 20.232 28.8075 20.232 28.7775C20.232 28.755 20.232 28.7475 20.2433 28.7325L20.277 28.7175L20.3108 28.725C20.3389 28.755 20.3445 28.785 20.3277 28.815C20.3108 28.845 20.2939 28.845 20.2602 28.8375H20.2658ZM21.492 28.9125L21.4808 28.89C21.4808 28.845 21.4808 28.8075 21.492 28.7625C21.4977 28.725 21.492 28.6875 21.5033 28.65L21.5258 28.44C21.5258 28.4025 21.5258 28.365 21.537 28.335C21.5427 28.275 21.537 28.2225 21.5483 28.17C21.5483 28.1475 21.5652 28.095 21.582 28.125C21.6045 28.17 21.6327 28.2 21.6608 28.2375C21.6833 28.26 21.6608 28.29 21.6439 28.2975C21.6214 28.305 21.6158 28.3425 21.6158 28.3725L21.6045 28.4625C21.6045 28.515 21.6045 28.56 21.5933 28.6125L21.5877 28.7475L21.5764 28.8375C21.5764 28.8675 21.5764 28.905 21.5539 28.92C21.537 28.935 21.5089 28.935 21.4977 28.9125H21.492ZM23.1627 28.1775L23.0895 28.2675C23.0558 28.305 23.1177 28.32 23.1233 28.35C23.1345 28.395 23.1345 28.44 23.1345 28.485C23.1458 28.53 23.1514 28.5675 23.1458 28.6125C23.1458 28.665 23.1008 28.65 23.0783 28.68C23.0502 28.695 23.0389 28.7325 23.022 28.755C23.0087 28.7926 23.001 28.8334 22.9995 28.875C22.9995 28.9125 22.9827 28.95 22.9995 28.98L23.0052 28.995H23.0333L23.1177 28.9875C23.1852 28.9725 23.2583 28.9725 23.3258 28.965L23.4495 28.95C23.4833 28.9575 23.5002 28.9125 23.5002 28.875C23.4777 28.8225 23.4945 28.77 23.4777 28.725C23.4664 28.665 23.472 28.6125 23.4664 28.56C23.4664 28.515 23.427 28.5 23.4102 28.53C23.3877 28.56 23.3539 28.5675 23.3427 28.5975C23.3258 28.6425 23.3764 28.6425 23.3877 28.6725L23.3933 28.785C23.3989 28.83 23.3652 28.83 23.337 28.8375C23.3089 28.8525 23.2695 28.86 23.2527 28.815C23.2414 28.7775 23.2414 28.74 23.2414 28.7025C23.2414 28.6275 23.2245 28.5675 23.2245 28.5C23.2245 28.425 23.2077 28.3425 23.2077 28.26C23.2077 28.2225 23.202 28.17 23.1627 28.1775ZM23.1289 28.7925H23.1458V28.8525L23.1289 28.86C23.1215 28.8631 23.114 28.8656 23.1064 28.8675C23.1027 28.8677 23.0989 28.8677 23.0952 28.8675C23.0839 28.8525 23.0839 28.83 23.1008 28.8075L23.1289 28.7925ZM21.4414 28.1025C21.4245 28.1025 21.3964 28.155 21.3739 28.1475C21.3233 28.155 21.3289 28.2225 21.3683 28.245V28.305C21.3739 28.365 21.3458 28.4175 21.3514 28.4775C21.3514 28.5375 21.3345 28.605 21.3345 28.6725C21.3177 28.74 21.3177 28.8075 21.312 28.875C21.3064 28.935 21.2727 28.9125 21.2445 28.8975V28.8225C21.2502 28.755 21.2164 28.74 21.177 28.7325C21.1377 28.7325 21.1208 28.695 21.132 28.65C21.1489 28.62 21.1883 28.6275 21.2164 28.6275C21.2727 28.6425 21.267 28.545 21.2389 28.5075C21.2164 28.4625 21.1714 28.4325 21.1602 28.3875C21.1602 28.3275 21.132 28.26 21.0927 28.23C21.0308 28.2225 20.9802 28.29 20.9633 28.365C20.9352 28.365 20.907 28.38 20.8845 28.395C20.8452 28.41 20.7889 28.5 20.8452 28.5375C20.8733 28.545 20.9689 28.575 20.9239 28.6275C20.9014 28.6875 20.8564 28.6875 20.817 28.6725C20.7777 28.6725 20.7327 28.6425 20.7327 28.5825C20.727 28.5225 20.727 28.4625 20.7102 28.41C20.6989 28.35 20.6483 28.365 20.6427 28.425C20.6033 28.4625 20.6089 28.53 20.637 28.575C20.6539 28.6275 20.637 28.695 20.6202 28.74C20.6089 28.815 20.5527 28.815 20.5133 28.83C20.4964 28.845 20.4233 28.83 20.4514 28.8825C20.4936 28.9084 20.5407 28.9163 20.5864 28.905C20.6314 28.905 20.6708 28.8525 20.6989 28.8C20.727 28.7625 20.7777 28.785 20.8227 28.785C20.862 28.785 20.907 28.8225 20.952 28.7925C20.9633 28.755 21.0195 28.68 21.0364 28.755C21.0364 28.8225 21.0758 28.8525 21.1208 28.845C21.1714 28.845 21.1489 28.89 21.1489 28.935C21.1489 29.0025 21.1883 29.04 21.2333 29.07H21.2783C21.3177 29.0475 21.3627 29.025 21.3795 28.965C21.3964 28.9125 21.3964 28.8525 21.4077 28.8C21.4189 28.7175 21.4302 28.6275 21.4302 28.545C21.447 28.47 21.4414 28.3875 21.4527 28.305L21.4695 28.1325C21.4695 28.095 21.4583 28.095 21.4414 28.1025ZM21.0645 28.41C21.0702 28.41 21.0758 28.425 21.0758 28.4475C21.0758 28.4775 21.087 28.5 21.1039 28.5075V28.53L21.0589 28.545C21.0308 28.545 21.0083 28.53 20.9914 28.5075L20.9802 28.4925L20.997 28.4775L21.0252 28.44C21.042 28.4175 21.0533 28.41 21.0645 28.41ZM24.777 27.8175C24.7447 27.8206 24.7126 27.8281 24.6814 27.84C24.6252 27.84 24.597 27.915 24.6533 27.96C24.687 28.0725 24.7377 27.93 24.7939 27.945C24.8727 27.96 24.8783 28.08 24.8952 28.17C24.8952 28.2525 24.9177 28.335 24.9345 28.4175C24.9908 28.5 24.8952 28.5525 24.8558 28.4925C24.822 28.44 24.7433 28.38 24.7039 28.4475C24.6533 28.4775 24.6477 28.5675 24.6083 28.5975C24.5408 28.62 24.5352 28.5075 24.4958 28.4625C24.462 28.395 24.4002 28.3875 24.3495 28.3725C24.327 28.305 24.3383 28.1925 24.2933 28.1475C24.2483 28.17 24.1695 28.275 24.237 28.3275C24.2933 28.4025 24.2089 28.4325 24.1808 28.4775C24.1358 28.545 24.1245 28.6275 24.1245 28.7025C24.0514 28.755 24.0402 28.6425 24.0289 28.575C24.0289 28.4925 23.9727 28.515 23.9333 28.545C23.877 28.575 23.8545 28.6425 23.8208 28.695V28.845C23.832 28.9125 23.8883 28.8825 23.922 28.875C23.9783 28.845 24.0008 28.9275 23.9558 28.9725C23.922 29.0175 23.832 28.995 23.8433 29.0775H23.9333C23.9895 29.055 24.057 28.995 24.0627 28.905C24.0739 28.83 24.1583 28.8375 24.2033 28.8225C24.2595 28.8 24.3327 28.7925 24.3495 28.8975C24.3889 28.95 24.4733 29.01 24.5183 28.935C24.5397 28.9169 24.5569 28.8911 24.5678 28.8606C24.5788 28.8301 24.583 28.7961 24.5802 28.7625C24.5745 28.7025 24.6533 28.7025 24.6758 28.74C24.7039 28.8 24.7939 28.785 24.8389 28.74C24.8839 28.7025 24.8952 28.62 24.9627 28.62L25.2664 28.5075C25.3452 28.485 25.2552 28.4175 25.2327 28.3725C25.1764 28.335 25.1202 28.5 25.0527 28.4175C24.9964 28.365 25.002 28.2675 24.9852 28.185C24.9683 28.08 24.9739 27.96 24.9177 27.885C24.8839 27.8325 24.8277 27.8175 24.777 27.8175ZM24.3945 28.53C24.4002 28.53 24.4114 28.53 24.4227 28.545C24.4452 28.56 24.462 28.59 24.462 28.62C24.462 28.635 24.462 28.635 24.4452 28.6425L24.417 28.6575C24.4058 28.6575 24.3777 28.635 24.3777 28.62V28.59C24.3664 28.56 24.3664 28.56 24.3777 28.545L24.3945 28.53ZM24.7602 28.56C24.7827 28.56 24.7939 28.56 24.8052 28.5825C24.8108 28.6125 24.8052 28.6275 24.7827 28.6425L24.7545 28.6575L24.732 28.635C24.7208 28.6275 24.7152 28.62 24.7152 28.605C24.7152 28.5825 24.7377 28.56 24.7602 28.5525V28.56ZM24.2539 28.56C24.2652 28.56 24.2708 28.56 24.2764 28.575C24.2877 28.59 24.2933 28.5975 24.2933 28.62V28.665C24.2933 28.6875 24.2933 28.68 24.2595 28.68C24.2258 28.68 24.2202 28.68 24.2202 28.635C24.2202 28.605 24.2202 28.5975 24.237 28.5825C24.2427 28.5675 24.2539 28.5675 24.2595 28.5675L24.2539 28.56ZM23.9502 28.6725C23.9555 28.6746 23.9603 28.6785 23.9642 28.6837C23.9681 28.689 23.971 28.6954 23.9727 28.7025C23.9727 28.725 23.9727 28.74 23.9614 28.7475C23.9445 28.755 23.9164 28.7625 23.9052 28.7475C23.905 28.745 23.905 28.7425 23.9052 28.74C23.8939 28.7325 23.8939 28.725 23.9052 28.7175V28.71L23.9164 28.6875C23.9199 28.6802 23.9251 28.6747 23.9313 28.672C23.9374 28.6692 23.9441 28.6694 23.9502 28.6725ZM24.4677 28.7625L24.4958 28.77V28.815H24.4283L24.4227 28.8C24.4227 28.785 24.4227 28.7775 24.4339 28.77L24.4677 28.7625ZM23.5058 29.1225C23.5002 29.1225 23.4889 29.115 23.5002 29.1075C23.5058 29.085 23.5283 29.0775 23.5452 29.0625C23.5758 29.0469 23.6029 29.0211 23.6239 28.9875C23.6239 28.9575 23.6464 28.9425 23.6464 28.9125L23.6408 28.8075C23.6332 28.776 23.6172 28.7493 23.5958 28.7325C23.5789 28.725 23.5564 28.7175 23.5508 28.6875C23.5508 28.665 23.5677 28.6425 23.5733 28.62L23.607 28.53C23.6239 28.5075 23.6464 28.53 23.652 28.545L23.6802 28.62C23.697 28.6425 23.7083 28.665 23.7139 28.695C23.7252 28.725 23.7364 28.7475 23.7364 28.77L23.7477 28.8675C23.7477 28.905 23.7477 28.95 23.7364 28.9875L23.7027 29.0475C23.6858 29.07 23.6689 29.0925 23.6464 29.1C23.6295 29.1075 23.6183 29.13 23.5958 29.13H23.5114L23.5058 29.1225ZM23.1177 29.1525C23.1064 29.1375 23.1008 29.13 23.1008 29.1075C23.1008 29.085 23.1008 29.085 23.1177 29.0625C23.1402 29.0325 23.1514 29.0325 23.1964 29.0625C23.2358 29.0925 23.2527 29.0925 23.2527 29.07C23.2583 29.055 23.2808 29.0325 23.3089 29.0325C23.3193 29.033 23.3292 29.0383 23.337 29.0475C23.3483 29.0625 23.3539 29.07 23.3539 29.1C23.3539 29.1375 23.3539 29.1375 23.337 29.16C23.3202 29.175 23.3202 29.175 23.2977 29.175C23.2877 29.1743 23.278 29.1696 23.27 29.1616C23.262 29.1536 23.256 29.1426 23.2527 29.13C23.2527 29.115 23.2527 29.1075 23.2414 29.1225L23.2302 29.13C23.2189 29.13 23.1964 29.1525 23.1852 29.1675L23.157 29.175C23.1345 29.175 23.1345 29.175 23.1177 29.1525ZM22.0039 28.485C21.9645 28.485 21.9252 28.53 21.9195 28.5825C21.9308 28.635 21.9645 28.695 21.942 28.7475C21.9589 28.8225 21.897 28.8525 21.8577 28.815C21.8352 28.74 21.8239 28.665 21.7845 28.59C21.7395 28.575 21.7227 28.6725 21.6889 28.71C21.7058 28.7625 21.7508 28.815 21.7564 28.8825C21.7677 28.9575 21.7339 29.0325 21.6945 29.0625C21.6552 29.115 21.5989 29.1 21.5539 29.1075C21.4977 29.1525 21.5933 29.1675 21.6214 29.1675C21.6777 29.175 21.7395 29.1675 21.7902 29.1075C21.8295 29.085 21.8239 28.98 21.8745 28.9725L22.1445 28.995C22.1895 29.01 22.2627 28.9875 22.2964 29.0325C22.2964 29.1075 22.3527 29.1675 22.4033 29.1975C22.4314 29.2125 22.4595 29.16 22.4877 29.1525C22.5439 29.13 22.527 29.04 22.5608 29.0025H22.842C22.8533 29.0025 22.8589 28.965 22.8758 28.95L22.8645 28.8075C22.8477 28.7475 22.8645 28.6725 22.8364 28.62C22.7858 28.605 22.7464 28.6575 22.7014 28.665C22.6452 28.695 22.6058 28.7625 22.6002 28.8375C22.572 28.905 22.5214 28.8225 22.5439 28.7625L22.5383 28.6875C22.5102 28.65 22.4595 28.665 22.4202 28.6575L22.2514 28.6425C22.1952 28.6425 22.1445 28.65 22.0995 28.635C22.0433 28.635 22.0433 28.56 22.0433 28.5C22.032 28.4886 22.018 28.4832 22.0039 28.485ZM22.1164 28.7625L22.1727 28.77H22.2458C22.302 28.785 22.3583 28.785 22.4145 28.785C22.4258 28.785 22.437 28.8 22.4483 28.815V28.965C22.4483 28.9875 22.4483 29.0175 22.437 29.025C22.4341 29.031 22.4303 29.0361 22.4258 29.04C22.4175 29.0381 22.4097 29.0337 22.4029 29.0272C22.3961 29.0207 22.3905 29.0123 22.3864 29.0025V28.8975C22.3753 28.8849 22.3615 28.8771 22.347 28.875L22.2008 28.8675L22.0883 28.86C22.0714 28.8525 22.0489 28.86 22.0377 28.83C22.0264 28.815 22.0433 28.785 22.0602 28.7775C22.0778 28.767 22.0971 28.7618 22.1164 28.7625ZM22.752 28.785C22.7577 28.785 22.7633 28.785 22.7633 28.8075L22.7745 28.845C22.7745 28.8525 22.7745 28.86 22.7633 28.86C22.7352 28.875 22.707 28.875 22.6958 28.86C22.6958 28.8525 22.6958 28.8225 22.707 28.815L22.752 28.785Z" fill="#C09300"/>
<path d="M22.4983 24.5399C24.3321 22.6649 24.1746 19.9049 24.1746 19.9049L24.0339 19.9199C23.6458 19.9199 22.7289 19.6199 22.5152 19.2524C22.2902 19.5899 21.3452 19.9274 20.9627 19.9274L20.8221 19.9049C20.8221 19.9049 20.6589 22.6574 22.4983 24.5399Z" fill="white"/>
<path fill-rule="evenodd" clip-rule="evenodd" d="M22.5184 19.188L22.5413 19.2272C22.5903 19.3115 22.6824 19.3957 22.8033 19.4748C22.9234 19.5533 23.0685 19.6245 23.2196 19.6845C23.5219 19.8046 23.8442 19.8784 24.0344 19.8788L24.2047 19.8606L24.207 19.9019L24.1762 19.905C24.207 19.9019 24.207 19.9018 24.207 19.9019L24.2071 19.9025L24.2072 19.9042L24.2075 19.9105C24.2077 19.916 24.2081 19.924 24.2084 19.9346C24.2091 19.9557 24.21 19.9867 24.2103 20.0268C24.2111 20.1068 24.21 20.223 24.203 20.3682C24.189 20.6585 24.1511 21.0649 24.0556 21.5303C23.8644 22.4612 23.4422 23.6285 22.5188 24.5727L22.4999 24.592L22.4811 24.5727C21.5549 23.6248 21.1327 22.4575 20.9422 21.5274C20.847 21.0625 20.8096 20.6568 20.7961 20.3671C20.7893 20.2222 20.7885 20.1063 20.7894 20.0264C20.7898 19.9864 20.7907 19.9555 20.7914 19.9344C20.7918 19.9239 20.7922 19.9158 20.7924 19.9103L20.7927 19.9041L20.7928 19.9024L20.7928 19.902L20.7929 19.9018C20.7929 19.9018 20.7929 19.9018 20.8237 19.905L20.7929 19.9018L20.7954 19.8589L20.9662 19.8863C21.1532 19.8857 21.4806 19.8028 21.7906 19.6771C21.9458 19.6142 22.0955 19.541 22.22 19.463C22.3454 19.3844 22.4418 19.3029 22.4937 19.2251L22.5184 19.188ZM20.8528 19.9512C20.8522 19.9705 20.8516 19.9961 20.8512 20.0276C20.8504 20.1055 20.8512 20.2194 20.8578 20.3619C20.8712 20.6471 20.908 21.0472 21.0019 21.5057C21.1884 22.4162 21.5999 23.5569 22.5 24.4879C23.3972 23.5606 23.8087 22.42 23.9959 21.5085C24.0902 21.0495 24.1275 20.6487 24.1413 20.3629C24.1482 20.22 24.1492 20.1059 24.1485 20.0278C24.1482 19.9953 24.1476 19.9691 24.147 19.9495L24.0368 19.9613H24.0356C23.8374 19.9613 23.508 19.8852 23.202 19.7636C23.0487 19.7027 22.9002 19.63 22.7761 19.5489C22.6678 19.4781 22.5754 19.3992 22.5153 19.3136C22.4527 19.3924 22.3575 19.468 22.2463 19.5377C22.1183 19.6179 21.9657 19.6924 21.8086 19.756C21.4953 19.8831 21.1601 19.9688 20.9643 19.9688H20.9625L20.8528 19.9512Z" fill="#C09300"/>
<path d="M24.0307 20.1001H23.9857C23.637 20.1001 22.827 19.8676 22.512 19.5076C22.1857 19.8376 21.3588 20.1076 21.0157 20.1076C21.0006 20.1068 20.9855 20.1043 20.9707 20.1001C20.9738 20.574 21.0229 21.0455 21.117 21.5026C21.3426 22.6039 21.8277 23.5793 22.5007 24.2851C23.1741 23.5766 23.6592 22.5987 23.8845 21.4951C23.978 21.0404 24.0271 20.5715 24.0307 20.1001Z" fill="white"/>
<path fill-rule="evenodd" clip-rule="evenodd" d="M22.5112 19.4641L22.5267 19.4818C22.6796 19.6566 22.9561 19.8032 23.241 19.9061C23.5252 20.0088 23.8126 20.0662 23.9839 20.0662H24.0289V20.1L24.0543 20.1003C24.0507 20.5746 24.0012 21.0464 23.9071 21.5039C23.6804 22.6144 23.1923 23.5986 22.5146 24.3114L22.499 24.3279L22.4833 24.3115C21.806 23.6013 21.3178 22.6196 21.0908 21.5113C20.9962 21.0514 20.9467 20.5771 20.9436 20.1002L20.9434 20.0582L20.9742 20.0669C20.9875 20.0707 21.0009 20.073 21.0144 20.0737C21.1827 20.0736 21.4723 20.007 21.7616 19.8987C22.0514 19.7902 22.3358 19.6415 22.4949 19.4806L22.5112 19.4641ZM24.0033 20.1337H23.9839C23.8066 20.1337 23.5145 20.0749 23.2278 19.9713C22.9507 19.8712 22.6736 19.7276 22.5093 19.5503C22.3399 19.7129 22.0569 19.8582 21.7752 19.9637C21.484 20.0728 21.1889 20.1412 21.0139 20.1412H21.013L21.013 20.1412C21.0068 20.1409 21.0007 20.1403 20.9946 20.1395C21.0001 20.5971 21.0488 21.052 21.1396 21.4935L21.1396 21.4936C21.362 22.5793 21.8383 23.542 22.4989 24.2419C23.16 23.5393 23.6362 22.5741 23.8583 21.4861L23.8583 21.486C23.949 21.0451 23.9977 20.5908 24.0033 20.1337Z" fill="#C09300"/>
<path d="M21.9045 19.8749C21.6023 20.0061 21.2882 20.0818 20.9707 20.0999L20.9763 20.4074C20.9955 20.7753 21.0427 21.1397 21.117 21.4949C21.2682 22.2326 21.5368 22.9181 21.9045 23.5049V19.8749ZM23.0632 19.8749V23.5649C23.4486 22.9646 23.7291 22.2575 23.8845 21.4949C23.9587 21.1397 24.0058 20.7753 24.0251 20.4074L24.0307 20.1074H23.9857C23.772 20.1074 23.4007 20.0174 23.0632 19.8674V19.8749Z" fill="#C09300"/>
<path d="M23.1921 18.975C23.2315 18.9825 23.1415 18.7125 23.1415 18.7125C23.2427 18.8475 23.614 18.885 23.614 18.885C23.389 18.75 23.164 17.7525 23.1921 16.95C23.2146 16.155 23.1077 15.84 23.0234 15.72C22.9109 15.57 22.5452 15.435 22.309 15.42C22.1684 15.4125 22.1965 15.555 22.1965 15.555C21.9434 15.4725 21.6902 15.435 21.5777 15.54C21.4765 15.63 21.454 16.1025 21.5327 16.02C21.7184 15.8175 21.8815 16.005 21.994 16.2225C22.0952 16.41 22.0896 16.95 21.9434 17.5875C21.8139 18.0694 21.6236 18.5183 21.3809 18.915C21.6059 18.915 21.9209 18.6525 21.9209 18.6525L21.8477 19.065C22.084 18.915 22.2696 18.6825 22.2696 18.6825L22.4946 18.9975C22.5677 18.8625 22.7196 18.6825 22.7196 18.6825C22.7196 18.6825 22.9052 18.945 23.1921 18.9825V18.975Z" fill="white"/>
<path fill-rule="evenodd" clip-rule="evenodd" d="M22.2149 15.3983C22.2389 15.3811 22.27 15.373 22.3092 15.3751L22.3094 15.3751C22.4309 15.3828 22.5841 15.4211 22.7212 15.4763C22.7898 15.504 22.8551 15.5361 22.9108 15.5713C22.966 15.6062 23.0139 15.6454 23.0461 15.6882L23.0465 15.6887L23.0468 15.6893C23.1409 15.823 23.2473 16.154 23.2247 16.9517L23.2247 16.9521C23.2108 17.3477 23.2594 17.7927 23.3393 18.1552C23.3793 18.3363 23.4268 18.4954 23.4775 18.6167C23.5291 18.74 23.5809 18.8165 23.6267 18.844L23.6103 18.9299L23.6128 18.885C23.6103 18.9299 23.6103 18.9299 23.6103 18.9299L23.6102 18.9299L23.6099 18.9299L23.6091 18.9298L23.6058 18.9294C23.603 18.9291 23.5988 18.9286 23.5935 18.928C23.583 18.9267 23.5678 18.9246 23.5493 18.9218C23.5124 18.9161 23.4621 18.907 23.4084 18.8937C23.3548 18.8803 23.2971 18.8625 23.2459 18.839C23.2335 18.8333 23.2212 18.8272 23.2093 18.8205C23.2103 18.8242 23.2113 18.8279 23.2122 18.8317C23.2211 18.8653 23.2296 18.9016 23.233 18.9301C23.2345 18.9432 23.2359 18.961 23.2327 18.9773C23.2315 18.9834 23.2292 18.9916 23.2247 18.9994V19.0322L23.1877 19.0273C23.0374 19.0077 22.9141 18.9292 22.8289 18.8564C22.7862 18.8199 22.7528 18.7845 22.7299 18.7582C22.7255 18.7532 22.7215 18.7484 22.7179 18.7441C22.7174 18.7447 22.717 18.7452 22.7165 18.7458C22.7013 18.7645 22.6803 18.7909 22.6571 18.8215C22.6101 18.8831 22.5556 18.9596 22.5208 19.0239L22.497 19.0678L22.2666 18.7452C22.2638 18.7483 22.2609 18.7518 22.2577 18.7554C22.2362 18.78 22.2051 18.8143 22.1665 18.8534C22.0895 18.9314 21.982 19.0289 21.8611 19.1057L21.7975 19.146L21.8689 18.7436C21.8368 18.767 21.7952 18.7958 21.7482 18.8247C21.6407 18.8907 21.5 18.96 21.3797 18.96H21.3086L21.3536 18.8866C21.5937 18.4942 21.782 18.0501 21.9102 17.5734C21.9824 17.258 22.0197 16.9679 22.0266 16.7345C22.0301 16.6177 22.0259 16.516 22.015 16.433C22.004 16.3494 21.9866 16.288 21.9654 16.2488L21.965 16.2481C21.9098 16.1413 21.8451 16.0481 21.7753 16.0045C21.7411 15.9832 21.7062 15.9741 21.6705 15.9803C21.6347 15.9865 21.5954 16.0085 21.5529 16.0549L21.5524 16.0554C21.5372 16.0714 21.5135 16.0841 21.4898 16.0657C21.4712 16.0513 21.4629 16.0243 21.4587 16.005C21.4496 15.9627 21.4486 15.9019 21.453 15.8405C21.4574 15.7779 21.4678 15.7092 21.484 15.6493C21.4997 15.5916 21.523 15.5338 21.5575 15.5029C21.6235 15.4415 21.7247 15.4256 21.8347 15.4323C21.9344 15.4383 22.0475 15.4633 22.1611 15.498C22.1624 15.4884 22.1644 15.4781 22.1676 15.4678C22.1755 15.4416 22.1903 15.416 22.2149 15.3983ZM21.9018 18.6144L21.9714 18.5564L21.8962 18.9809C21.9855 18.9163 22.065 18.8431 22.1257 18.7817C22.1631 18.7439 22.1931 18.7107 22.2138 18.6871C22.2241 18.6752 22.2321 18.6658 22.2374 18.6594C22.2401 18.6562 22.2421 18.6537 22.2435 18.6521L22.2449 18.6503L22.2453 18.6497M21.9018 18.6144L21.9017 18.6145L21.9011 18.615L21.8985 18.6171C21.8963 18.6189 21.8929 18.6216 21.8885 18.6251C21.8797 18.6321 21.8667 18.6422 21.8505 18.6543C21.818 18.6785 21.7724 18.7107 21.72 18.7429C21.6381 18.7932 21.5426 18.8414 21.4552 18.8609C21.6769 18.481 21.8521 18.0563 21.974 17.6027L21.9742 17.6017L21.9745 17.6007C22.0483 17.279 22.0869 16.9807 22.0941 16.7381C22.0976 16.6168 22.0934 16.5084 22.0814 16.4175C22.0696 16.3275 22.0498 16.2512 22.0204 16.1966C21.9632 16.0861 21.8902 15.9769 21.8039 15.923C21.7601 15.8957 21.7123 15.8823 21.6618 15.891C21.6153 15.8991 21.5686 15.9256 21.5222 15.9726C21.5177 15.9456 21.5165 15.9015 21.5202 15.849C21.5242 15.7925 21.5335 15.7314 21.5475 15.6799C21.562 15.6264 21.5793 15.5917 21.5953 15.5775L21.5959 15.5769C21.6424 15.5335 21.7239 15.5157 21.8317 15.5222C21.9376 15.5286 22.0618 15.5579 22.1873 15.5988L22.2424 15.6167L22.228 15.5439C22.228 15.5439 22.228 15.5438 22.228 15.5438C22.2279 15.5434 22.2278 15.5426 22.2277 15.5414C22.2274 15.539 22.227 15.5354 22.2268 15.5309C22.2265 15.5216 22.2273 15.511 22.2301 15.5016C22.2327 15.4932 22.2373 15.4845 22.2469 15.4776C22.2572 15.4702 22.2752 15.4634 22.3064 15.465C22.4211 15.4723 22.5688 15.509 22.7017 15.5625C22.768 15.5892 22.83 15.6199 22.8819 15.6527C22.934 15.6856 22.9738 15.7194 22.998 15.7514C23.0726 15.858 23.1796 16.1574 23.1572 16.9481C23.143 17.355 23.1928 17.81 23.2746 18.1806C23.3155 18.3659 23.3647 18.5317 23.4186 18.6605C23.4445 18.7225 23.4723 18.7778 23.5017 18.8228" fill="#C09300"/>
<path fill-rule="evenodd" clip-rule="evenodd" d="M22.4456 17.0295L22.4821 17.0324C22.5186 17.0354 22.5186 17.0354 22.5186 17.0354L22.5184 17.0391L22.5179 17.0498C22.5174 17.0591 22.5168 17.0729 22.5158 17.0905C22.514 17.1257 22.5111 17.1764 22.5073 17.2384C22.4995 17.3625 22.4875 17.5321 22.4706 17.7144C22.4536 17.8965 22.4317 18.0918 22.4039 18.267C22.3764 18.441 22.3426 18.5995 22.3007 18.7052L22.236 18.6597C22.2728 18.5667 22.3051 18.4195 22.3324 18.2469C22.3595 18.0754 22.3812 17.8831 22.398 17.7024C22.4148 17.5218 22.4267 17.3535 22.4344 17.2303C22.4382 17.1687 22.441 17.1185 22.4429 17.0836C22.4438 17.0662 22.4445 17.0526 22.4449 17.0435L22.4454 17.033L22.4456 17.0295ZM22.2433 17.0635L22.2796 17.0699C22.3158 17.0764 22.3158 17.0764 22.3158 17.0765L22.3157 17.0774L22.3154 17.0801L22.3143 17.0907C22.3134 17.0999 22.3119 17.1134 22.31 17.1307C22.3061 17.1653 22.3003 17.215 22.2926 17.2756C22.2772 17.397 22.2542 17.5625 22.2238 17.739C22.1934 17.9153 22.1554 18.1036 22.1098 18.27C22.0647 18.4351 22.0107 18.5842 21.9466 18.6778L21.8926 18.6121C21.9466 18.5332 21.9967 18.3992 22.0411 18.2366C22.0853 18.0754 22.1225 17.8914 22.1525 17.7171C22.1826 17.543 22.2053 17.3795 22.2205 17.2594C22.2281 17.1994 22.2338 17.1503 22.2376 17.1163C22.2395 17.0992 22.241 17.086 22.2419 17.077L22.243 17.0668L22.2433 17.0643L22.2433 17.0635ZM22.6199 17.085C22.6199 17.085 22.6199 17.0849 22.6565 17.0849C22.693 17.0849 22.693 17.085 22.693 17.085L22.693 17.1002C22.693 17.1103 22.6931 17.125 22.6931 17.1439C22.6932 17.1816 22.6935 17.2357 22.6939 17.3014C22.6948 17.4329 22.6965 17.6105 22.7 17.7953C22.7035 17.9802 22.7088 18.1718 22.7167 18.3316C22.7206 18.4114 22.7252 18.4829 22.7304 18.5412C22.7358 18.6005 22.7416 18.6432 22.7475 18.6675L22.6779 18.6974C22.6697 18.6635 22.6632 18.6127 22.6578 18.5529C22.6523 18.4921 22.6477 18.4187 22.6437 18.3379C22.6357 18.1763 22.6305 17.9832 22.6269 17.7977C22.6234 17.6122 22.6217 17.4341 22.6208 17.3023C22.6203 17.2364 22.6201 17.1821 22.62 17.1442C22.6199 17.1253 22.6199 17.1105 22.6199 17.1004L22.6199 17.085ZM22.8449 17.155C22.8449 17.155 22.8449 17.155 22.8815 17.1524L22.918 17.1499L22.918 17.1506L22.9181 17.153L22.9185 17.1625C22.9189 17.1709 22.9195 17.1833 22.9203 17.1992C22.9219 17.2311 22.9245 17.2772 22.9282 17.3339C22.9358 17.4472 22.948 17.6026 22.9668 17.7705C22.9857 17.9387 23.0111 18.1187 23.0448 18.2817C23.0788 18.4456 23.1204 18.5884 23.1703 18.6847L23.1101 18.7402C23.0532 18.6302 23.009 18.4749 22.9744 18.3076C22.9395 18.1395 22.9136 17.9553 22.8945 17.785C22.8754 17.6145 22.863 17.4572 22.8554 17.3425C22.8516 17.2851 22.849 17.2383 22.8473 17.2059C22.8465 17.1896 22.8459 17.177 22.8455 17.1683L22.8451 17.1585L22.845 17.1559L22.8449 17.155Z" fill="#C09300"/>
<path d="M22.0488 16.4701C22.0437 16.3831 22.0245 16.2987 21.9925 16.2226C21.88 15.9976 21.7169 15.8176 21.5312 16.0201C21.5312 16.0201 21.5931 15.7576 21.7338 15.7501C21.835 15.7426 22.0769 15.8551 22.2906 16.3351C22.2906 16.3351 22.1331 16.2901 22.0938 16.3351C22.0263 16.4101 22.0544 16.4701 22.0544 16.4701H22.0488Z" fill="#C09300"/>
<path fill-rule="evenodd" clip-rule="evenodd" d="M22.2745 16.3193C22.0642 15.8597 21.8307 15.7543 21.7351 15.7614L21.735 15.7614C21.6688 15.7649 21.6203 15.8285 21.5877 15.8941C21.5715 15.9267 21.5596 15.9591 21.5518 15.9834C21.5513 15.9848 21.5509 15.9862 21.5505 15.9875C21.5896 15.951 21.6281 15.9306 21.6655 15.9236C21.7105 15.9151 21.7535 15.9262 21.7937 15.9508C21.8739 16 21.9439 16.1033 22.0004 16.2164L22.0008 16.2171C22.0236 16.2713 22.04 16.3297 22.0496 16.3902C22.0567 16.3706 22.069 16.349 22.0892 16.3265C22.1013 16.3128 22.1209 16.307 22.1414 16.3049C22.1624 16.3027 22.1863 16.3042 22.2086 16.307C22.2311 16.3099 22.2522 16.3142 22.2677 16.3177C22.2701 16.3183 22.2724 16.3188 22.2745 16.3193ZM22.0624 16.4642L22.0624 16.464C22.0622 16.4637 22.0621 16.4632 22.0618 16.4626C22.0613 16.4612 22.0606 16.4591 22.06 16.4562C22.0587 16.4506 22.0574 16.4422 22.0581 16.4316C22.0593 16.4109 22.0677 16.3797 22.1 16.3438L22.1001 16.3437C22.1078 16.3349 22.1226 16.3294 22.1427 16.3274C22.1623 16.3253 22.1851 16.3267 22.207 16.3294C22.2289 16.3322 22.2496 16.3364 22.2649 16.3399C22.2725 16.3416 22.2787 16.3432 22.2831 16.3443C22.2852 16.3449 22.2869 16.3453 22.288 16.3456L22.2893 16.346L22.2897 16.3461L22.2897 16.3461L22.3086 16.3515L22.2988 16.3294C22.0841 15.8473 21.8398 15.7311 21.7342 15.7389C21.6598 15.7429 21.6071 15.8143 21.5736 15.8817C21.5567 15.9157 21.5444 15.9494 21.5363 15.9745C21.5322 15.9871 21.5292 15.9976 21.5271 16.005C21.5261 16.0087 21.5254 16.0116 21.5249 16.0136L21.5243 16.0159L21.5242 16.0165L21.5241 16.0167C21.5241 16.0167 21.5241 16.0167 21.5321 16.0201L21.5241 16.0167L21.5156 16.0527L21.5375 16.0288C21.5829 15.9792 21.6265 15.9536 21.6679 15.9458C21.7092 15.9381 21.7489 15.9481 21.7867 15.9713C21.8625 16.0177 21.9303 16.1167 21.9862 16.2285C22.0175 16.303 22.0363 16.3858 22.0412 16.471L22.0418 16.4814H22.0705L22.0624 16.4642C22.0624 16.4642 22.0624 16.4642 22.0624 16.4642Z" fill="#C09300"/>
<path d="M21.5098 15.6975C21.5266 15.6225 21.5491 15.5625 21.5829 15.54C21.6954 15.435 21.9429 15.465 22.196 15.555C22.196 15.555 22.1735 15.4125 22.3085 15.42C22.5448 15.435 22.9048 15.57 23.0173 15.72C23.0533 15.7727 23.0819 15.8337 23.1016 15.9C23.0454 15.795 22.8879 15.8025 22.8485 15.81C22.7923 15.8175 22.7529 15.81 22.6741 15.84C22.6348 15.855 22.5785 15.87 22.5448 15.9C22.5223 15.93 22.4998 16.02 22.466 16.02C22.4098 16.02 22.4098 16.005 22.3929 15.9825C22.376 15.945 22.3648 15.9 22.3423 15.9075C22.286 15.915 22.1848 15.855 22.061 15.72C21.9316 15.585 21.881 15.555 21.7235 15.57C21.5548 15.585 21.5098 15.7125 21.5098 15.7125V15.6975Z" fill="#C09300"/>
<path fill-rule="evenodd" clip-rule="evenodd" d="M22.2029 15.5527L22.2029 15.5525L22.2028 15.5515C22.2027 15.5506 22.2025 15.5493 22.2024 15.5475C22.202 15.544 22.2017 15.5389 22.2017 15.5328C22.2017 15.5206 22.203 15.5046 22.2081 15.4891C22.213 15.4738 22.2217 15.4588 22.2367 15.4478C22.2519 15.4367 22.2741 15.4294 22.3068 15.4312C22.4241 15.4387 22.5724 15.476 22.7055 15.5301C22.772 15.5572 22.8345 15.5884 22.8873 15.6221C22.9401 15.6558 22.9827 15.6916 23.0098 15.7278C23.0353 15.7651 23.057 15.8066 23.0744 15.8513C23.044 15.8236 23.0052 15.809 22.9687 15.8017C22.9166 15.7912 22.8667 15.7949 22.8462 15.7988C22.8462 15.7988 22.8463 15.7988 22.8463 15.7988L22.8472 15.81L22.846 15.7988C22.8461 15.7988 22.8461 15.7988 22.8462 15.7988M22.3983 15.9755C22.395 15.9682 22.392 15.9607 22.3889 15.9531C22.3883 15.9516 22.3877 15.9501 22.3871 15.9486C22.3834 15.9392 22.3795 15.9298 22.3753 15.9217C22.3712 15.9137 22.3664 15.9062 22.3605 15.9012C22.3544 15.8961 22.3473 15.894 22.3396 15.8964C22.3138 15.8996 22.2763 15.8875 22.2293 15.857C22.1822 15.8266 22.1265 15.7784 22.065 15.7113L22.065 15.7113L22.0649 15.7111C22.0002 15.6436 21.9542 15.6013 21.9043 15.5781C21.8541 15.5549 21.8007 15.5512 21.7216 15.5588C21.6356 15.5664 21.5805 15.6028 21.5468 15.638C21.5386 15.6466 21.5317 15.6551 21.5259 15.663C21.5319 15.6412 21.5385 15.6216 21.546 15.6047C21.5575 15.5786 21.5705 15.56 21.5853 15.55L21.5859 15.5497L21.5864 15.5492C21.6403 15.4989 21.7279 15.48 21.8351 15.4856C21.9418 15.4912 22.0663 15.521 22.1925 15.5659L22.2058 15.5706L22.2029 15.5527L22.2029 15.5527L22.2029 15.5527M21.5169 15.6991C21.5197 15.6866 21.5227 15.6745 21.5259 15.663C21.5199 15.6713 21.5151 15.679 21.5114 15.6856C21.5091 15.6896 21.5072 15.6933 21.5057 15.6964L21.5004 15.6943C21.5089 15.6563 21.519 15.6216 21.5314 15.5934C21.5437 15.5654 21.5586 15.543 21.5772 15.5303C21.5771 15.5305 21.5769 15.5306 21.5767 15.5308L21.5816 15.54L21.5778 15.5299C21.5776 15.53 21.5774 15.5302 21.5772 15.5303C21.6359 15.476 21.728 15.4575 21.8357 15.4631C21.9407 15.4686 22.0621 15.4971 22.185 15.5399C22.1851 15.544 22.1854 15.5475 22.1856 15.5502C22.1858 15.5524 22.186 15.5541 22.1861 15.5553L22.1863 15.5567L22.1864 15.5571L22.1864 15.5572L22.1864 15.5573L22.1864 15.5573C22.1864 15.5573 22.1864 15.5573 22.1947 15.555L22.1969 15.5441C22.1929 15.5427 22.1889 15.5413 22.185 15.5399C22.1849 15.5377 22.1848 15.5353 22.1848 15.5328C22.1848 15.5186 22.1863 15.4994 22.1926 15.4802C22.1989 15.4608 22.2099 15.4417 22.2286 15.428C22.2472 15.4145 22.2727 15.4068 22.3075 15.4087L22.3076 15.4087V15.4087C22.4266 15.4163 22.5763 15.454 22.7104 15.5086C22.7775 15.5359 22.8409 15.5675 22.8946 15.6018C22.9482 15.636 22.9928 15.6732 23.0219 15.712L23.0222 15.7124L23.0222 15.7124C23.0589 15.7661 23.088 15.8283 23.1082 15.8958L23.0934 15.9065C23.0674 15.8579 23.017 15.8341 22.9662 15.8239C22.9157 15.8138 22.8673 15.8175 22.8484 15.8211L22.848 15.8212L22.848 15.8212C22.8314 15.8234 22.8164 15.8243 22.8016 15.8253C22.7653 15.8275 22.7305 15.8297 22.6751 15.8508C22.6666 15.854 22.6577 15.8572 22.6485 15.8604C22.6356 15.8649 22.6222 15.8696 22.6085 15.8751C22.5858 15.8843 22.5646 15.895 22.5488 15.9087C22.5442 15.9152 22.5392 15.9251 22.5336 15.9373C22.5316 15.9417 22.5294 15.9464 22.5273 15.9513C22.5234 15.9599 22.5194 15.9689 22.5154 15.9773C22.5089 15.9907 22.5018 16.0038 22.4938 16.0137C22.4858 16.0236 22.4761 16.0312 22.4647 16.0312C22.4363 16.0312 22.4205 16.0275 22.4094 16.0196C22.4037 16.0155 22.3997 16.0106 22.3961 16.0056C22.3944 16.0032 22.393 16.0012 22.3917 15.9992C22.3899 15.9965 22.3881 15.9938 22.3856 15.9904L22.3849 15.9895L22.3843 15.9883C22.3807 15.9801 22.3772 15.9716 22.374 15.9636C22.3734 15.9621 22.3728 15.9606 22.3723 15.9592C22.3685 15.9498 22.365 15.9414 22.3614 15.9345C22.3578 15.9275 22.3545 15.9228 22.3515 15.9203C22.3488 15.918 22.3462 15.9173 22.343 15.9184L22.3424 15.9186L22.3418 15.9187C22.3113 15.9227 22.2702 15.9085 22.2219 15.8773C22.1734 15.8459 22.1166 15.7966 22.0544 15.7288C21.9898 15.6613 21.9458 15.6212 21.8987 15.5994C21.8518 15.5776 21.8012 15.5737 21.7228 15.5812L21.7227 15.5812C21.64 15.5886 21.5882 15.6234 21.5572 15.6557C21.5417 15.6719 21.5313 15.6876 21.5249 15.6991C21.5216 15.7048 21.5194 15.7095 21.518 15.7127C21.5173 15.7143 21.5168 15.7155 21.5164 15.7163L21.5161 15.7171L21.5161 15.7173C21.5161 15.7173 21.5161 15.7173 21.516 15.7173L21.5 15.7125V15.6975H21.5052C21.5053 15.6971 21.5055 15.6968 21.5057 15.6964L21.5084 15.6975M21.7216 15.5588C21.7216 15.5588 21.7216 15.5588 21.7216 15.5588L21.7222 15.57L21.7216 15.5588C21.7216 15.5588 21.7216 15.5588 21.7216 15.5588ZM22.3396 15.8964C22.3393 15.8964 22.3391 15.8965 22.3389 15.8966L22.3409 15.9075L22.3401 15.8963C22.3399 15.8963 22.3397 15.8963 22.3396 15.8964ZM22.3983 15.9755C22.3985 15.9759 22.3986 15.9763 22.3988 15.9767L22.3916 15.9825L22.3975 15.9745C22.3978 15.9749 22.398 15.9752 22.3983 15.9755Z" fill="#C09300"/>
<path d="M22.4327 15.8926C22.47 15.8926 22.5002 15.8524 22.5002 15.8026C22.5002 15.7529 22.47 15.7126 22.4327 15.7126C22.3955 15.7126 22.3652 15.7529 22.3652 15.8026C22.3652 15.8524 22.3955 15.8926 22.4327 15.8926Z" fill="white"/>
</g>
<defs>
<clipPath id="clip0_45_14140">
<rect width="45" height="45" fill="white"/>
</clipPath>
</defs>
</svg>
