<svg width="45" height="45" viewBox="0 0 45 45" fill="none" xmlns="http://www.w3.org/2000/svg">
<g clip-path="url(#clip0_45_14978)">
<path fill-rule="evenodd" clip-rule="evenodd" d="M-11.6875 0.30835H56.9178V44.1946H-11.6875V0.30835Z" fill="#FFC621"/>
<path fill-rule="evenodd" clip-rule="evenodd" d="M-11.8203 30.1829H56.8709V45.12H-11.8203V30.1829Z" fill="#EF2118"/>
<path fill-rule="evenodd" clip-rule="evenodd" d="M-11.6875 0H56.9178V15.8625H-11.6875V0Z" fill="#298C08"/>
<path d="M21.4028 32.8229C25.3392 32.8229 28.5302 28.5681 28.5302 23.3196C28.5302 18.0711 25.3392 13.8164 21.4028 13.8164C17.4664 13.8164 14.2754 18.0711 14.2754 23.3196C14.2754 28.5681 17.4664 32.8229 21.4028 32.8229Z" fill="#006BC6"/>
<path fill-rule="evenodd" clip-rule="evenodd" d="M18.2054 16.5852L17.7758 16.9818L19.329 19.8899L19.7453 19.5374L18.1988 16.5852H18.2054ZM20.1485 23.459L19.5074 22.8597L19.7718 21.7405L16.5927 21.8022L15.6674 20.8593L20.0097 20.7976L20.8161 17.5458L21.2523 18.8677L20.1485 23.4502V23.459ZM25.2047 17.2285L24.7883 16.8055L23.1822 19.6608L23.5523 20.075L25.2047 17.2285ZM20.8822 21.767L21.1135 20.78H21.9925L20.9879 16.7439L21.3845 15.2898L22.7394 20.7888L25.3038 20.8329L24.4975 21.7758L20.8822 21.7582V21.767ZM26.8703 26.279L27.0487 25.6269L24.5173 24.4548L24.3323 25.0717L26.8703 26.279ZM22.3032 22.19L23.0765 22.1812L23.3475 23.2915L25.9119 20.78L27.0751 20.8329L23.5656 24.2433L24.3256 27.5215L23.4003 26.7813L22.3032 22.19ZM20.9945 31.1787L21.5167 31.1964L21.5365 27.6273L21.0474 27.5832L20.9945 31.1875V31.1787ZM22.4486 24.1023L22.6997 25.0805L21.9925 25.7855L24.5966 28.2265L24.9271 29.707L21.3845 26.3583L19.3025 28.3587L19.5338 26.9487L22.442 24.1023H22.4486ZM15.6211 25.2479L15.7731 25.9089L18.3309 24.8337L18.1988 24.1992L15.6211 25.2479ZM21.1201 24.8954L20.4988 25.5211L19.785 24.8425L18.8465 28.8963L17.8947 29.7775L19.1835 24.2521L17.1082 22.2252L18.1855 22.0842L21.1201 24.8954Z" fill="#FFC621"/>
</g>
<defs>
<clipPath id="clip0_45_14978">
<rect width="45" height="45" fill="white"/>
</clipPath>
</defs>
</svg>
