<svg width="45" height="45" viewBox="0 0 45 45" fill="none" xmlns="http://www.w3.org/2000/svg">
<g clip-path="url(#clip0_45_15244)">
<path fill-rule="evenodd" clip-rule="evenodd" d="M-11.291 0H56.389V45.12H-11.291V0Z" fill="#6797D6"/>
<path fill-rule="evenodd" clip-rule="evenodd" d="M22.5347 10.8393L20.3932 12.7957L21.2128 9.63203L19.0647 7.67565H21.7151L22.5347 4.51196L23.3542 7.68446H25.998L23.8565 9.63203L24.6761 12.7957M22.5347 34.3687L20.3932 32.4123L21.2128 35.5848L19.0647 37.5324H21.7151L22.5347 40.6961L23.3542 37.5236L25.998 37.5324L23.8565 35.576L24.6761 32.4123M12.224 24.2696L10.6047 26.9662L10.6973 23.6175L8.21875 22.5864L10.7567 21.5553L10.8427 18.2066L12.3166 20.9208L14.8546 19.881L13.2287 22.5864L14.7092 25.2918M32.8321 24.2608L34.458 26.9662L34.3654 23.6175L36.844 22.5864L34.306 21.5553L34.22 18.2066L32.7461 20.9208L30.2081 19.881L31.834 22.5864L30.3535 25.2918" fill="white"/>
</g>
<defs>
<clipPath id="clip0_45_15244">
<rect width="45" height="45" fill="white"/>
</clipPath>
</defs>
</svg>
