<svg width="45" height="45" viewBox="0 0 45 45" fill="none" xmlns="http://www.w3.org/2000/svg">
<g clip-path="url(#clip0_45_15471)">
<path d="M0 0H45V45H0V0Z" fill="white"/>
<path d="M19.125 0H25.875V45H19.125V0Z" fill="#FF0000"/>
<path d="M0 18H45V27H0V18Z" fill="#FF0000"/>
<g style="mix-blend-mode:multiply">
<path fill-rule="evenodd" clip-rule="evenodd" d="M10.3219 34.9781C10.3922 33.4031 10.6031 32.0625 10.6031 32.0625C10.6031 32.0625 9.91406 32.1562 9.5625 32.1562C9.21797 32.1562 8.52187 32.0625 8.52187 32.0625C8.52187 32.0625 8.73281 33.4031 8.80312 34.9875C7.61484 34.8938 6.60938 34.6125 6.60938 34.6125C6.60938 34.6125 6.67969 35.3062 6.67969 36C6.67969 36.6938 6.60938 37.3875 6.60938 37.3875C6.60938 37.3875 7.61484 37.1062 8.80312 37.0125C8.73281 38.5969 8.52187 39.9375 8.52187 39.9375C8.52187 39.9375 9.04219 39.8438 9.5625 39.8438C10.0828 39.8438 10.6031 39.9375 10.6031 39.9375C10.6031 39.9375 10.3922 38.5969 10.3219 37.0125C11.5102 37.1062 12.5156 37.3875 12.5156 37.3875C12.5156 37.3875 12.4453 36.4688 12.4453 36C12.4453 35.5406 12.5156 34.6125 12.5156 34.6125C12.5156 34.6125 11.5102 34.8938 10.3289 34.9875L10.3219 34.9781ZM36.1969 7.97812C36.2672 6.40312 36.4781 5.0625 36.4781 5.0625C36.4781 5.0625 35.7891 5.15625 35.4375 5.15625C35.093 5.15625 34.3969 5.0625 34.3969 5.0625C34.3969 5.0625 34.6078 6.40312 34.6781 7.97812C33.4898 7.88437 32.4844 7.6125 32.4844 7.6125C32.4844 7.6125 32.5547 8.30625 32.5547 9C32.5547 9.69375 32.4844 10.3875 32.4844 10.3875C32.4844 10.3875 33.4898 10.1063 34.6781 10.0125C34.6078 11.5969 34.3969 12.9375 34.3969 12.9375C34.3969 12.9375 34.9172 12.8438 35.4375 12.8438C35.9578 12.8438 36.4781 12.9375 36.4781 12.9375C36.4781 12.9375 36.2672 11.5969 36.1969 10.0219C37.3852 10.1156 38.3906 10.3969 38.3906 10.3969C38.3906 10.3969 38.3203 9.45937 38.3203 9C38.3203 8.54063 38.3906 7.6125 38.3906 7.6125C38.3906 7.6125 37.3852 7.89375 36.1969 7.9875V7.97812ZM10.3219 7.97812C10.3922 6.40312 10.6031 5.0625 10.6031 5.0625C10.6031 5.0625 9.91406 5.15625 9.5625 5.15625C9.21797 5.15625 8.52187 5.0625 8.52187 5.0625C8.52187 5.0625 8.73281 6.40312 8.80312 7.9875C7.61484 7.89375 6.60938 7.6125 6.60938 7.6125C6.60938 7.6125 6.67969 8.30625 6.67969 9C6.67969 9.69375 6.60938 10.3875 6.60938 10.3875C6.60938 10.3875 7.61484 10.1063 8.80312 10.0125C8.73281 11.5969 8.52187 12.9375 8.52187 12.9375C8.52187 12.9375 9.04219 12.8438 9.5625 12.8438C10.0828 12.8438 10.6031 12.9375 10.6031 12.9375C10.6031 12.9375 10.3922 11.5969 10.3219 10.0125C11.5102 10.1063 12.5156 10.3875 12.5156 10.3875C12.5156 10.3875 12.4453 9.46875 12.4453 9C12.4453 8.54063 12.5156 7.6125 12.5156 7.6125C12.5156 7.6125 11.5102 7.89375 10.3289 7.9875L10.3219 7.97812ZM36.1969 34.9781C36.2672 33.4031 36.4781 32.0625 36.4781 32.0625C36.4781 32.0625 35.7891 32.1562 35.4375 32.1562C35.093 32.1562 34.3969 32.0625 34.3969 32.0625C34.3969 32.0625 34.6078 33.4031 34.6781 34.9875C33.4898 34.8938 32.4844 34.6125 32.4844 34.6125C32.4844 34.6125 32.5547 35.3062 32.5547 36C32.5547 36.6938 32.4844 37.3875 32.4844 37.3875C32.4844 37.3875 33.4898 37.1062 34.6781 37.0125C34.6078 38.5969 34.3969 39.9375 34.3969 39.9375C34.3969 39.9375 34.9172 39.8438 35.4375 39.8438C35.9578 39.8438 36.4781 39.9375 36.4781 39.9375C36.4781 39.9375 36.2672 38.5969 36.1969 37.0125C37.3852 37.1062 38.3906 37.3875 38.3906 37.3875C38.3906 37.3875 38.3203 36.4688 38.3203 36C38.3203 35.5406 38.3906 34.6125 38.3906 34.6125C38.3906 34.6125 37.3852 34.8938 36.1969 34.9875V34.9781Z" fill="#FF0000"/>
</g>
</g>
<defs>
<clipPath id="clip0_45_15471">
<rect width="45" height="45" fill="white"/>
</clipPath>
</defs>
</svg>
