<svg width="45" height="45" viewBox="0 0 45 45" fill="none" xmlns="http://www.w3.org/2000/svg">
<g clip-path="url(#clip0_45_15491)">
<path d="M0 0H45V45H0V0Z" fill="#DA000C"/>
<path d="M0 0H45V30.15H0V0Z" fill="white"/>
<path d="M14.668 20.4434H23.1055V28.1777H14.668V20.4434Z" fill="black"/>
<path d="M19.0464 27.0527H13.9048L12.7578 28.0547V29.1094H19.0464M16.8975 22.6055C17.6357 22.6055 18.2422 23.4316 18.2422 24.4512V27.0352H19.2046V17.1914H13.8916V27.0352H15.5527V24.4512C15.5527 23.4668 16.146 22.6055 16.8975 22.6055Z" fill="#DA000C"/>
<path fill-rule="evenodd" clip-rule="evenodd" d="M13.8252 17.1035H19.27V27.123H19.1118V27.1406H13.924L12.8232 28.1022V29.0215H19.1118V29.1973H12.6914V28.0072L13.8252 27.0168V17.1035ZM15.6182 26.9648V24.4512C15.6182 23.5114 16.1848 22.6934 16.897 22.6934C17.5972 22.6934 18.1758 23.478 18.1758 24.4512V26.9648H15.6182ZM18.3076 26.9473H19.1382V17.2793H13.957V26.9473H15.4863V24.4512C15.4863 23.4222 16.1062 22.5176 16.897 22.5176C17.6733 22.5176 18.3076 23.3853 18.3076 24.4512V26.9473Z" fill="black"/>
<path d="M15.7109 10.5469H18.1631V16.5234H15.7109V10.5469Z" fill="black"/>
<path d="M18.1494 15.5918H16.0137V14.5723H14.4448V15.5918H13.3901V14.5723H12.7441V16.4004H18.1494M13.377 16.4004H17.9912V17.1914H13.377V16.4004ZM19.9951 7.55859V14.5898H20.7861V12.8848C20.7861 12.252 21.1157 11.7246 21.5903 11.6895H21.6431C21.8808 11.6895 22.1089 11.8154 22.277 12.0396C22.4451 12.2637 22.5395 12.5678 22.5395 12.8848V14.5898H23.291V8.36719L19.9951 7.55859ZM19.6919 6.71484V7.55859H23.5547V6.71484H19.6919ZM19.2041 5.11523V6.71484H23.8184V5.11523H23.1196V5.94141H22.2495V5.11523H20.9312V5.94141H20.0742V5.11523H19.2041ZM12.7441 28.0547H19.0723H12.7441ZM23.1592 27.5625H18.8877L17.5957 28.3887V29.6191H23.1592" fill="#DA000C"/>
<path fill-rule="evenodd" clip-rule="evenodd" d="M19.1377 5.02734H20.1396V5.85352H20.8647V5.02734H22.3149V5.85352H23.0532V5.02734H23.8838V6.80273H23.6201V7.64648H20.7171L23.3564 8.29399V14.6777H22.4731V12.8848C22.4731 12.5911 22.3856 12.3094 22.2299 12.1017C22.0741 11.894 21.8629 11.7773 21.6426 11.7773H21.5917C21.1574 11.8108 20.8516 12.2933 20.8516 12.8848V14.6777H19.9287V7.64648H19.6255V6.80273H19.1377V5.02734ZM23.752 6.62695V5.20312H23.1851V6.0293H22.1831V5.20312H20.9966V6.0293H20.0078V5.20312H19.2695V6.62695H23.752ZM19.7573 6.80273V7.4707H19.9287V7.45306L20.0006 7.4707H23.4883V6.80273H19.7573ZM20.0605 7.66413V14.502H20.7197V12.8848C20.7197 12.2115 21.0722 11.6398 21.5862 11.6017L21.588 11.6016H21.6426C21.8978 11.6016 22.1426 11.7368 22.3231 11.9774C22.5036 12.2181 22.605 12.5444 22.605 12.8848V14.502H23.2246V8.44038L20.0605 7.66413ZM12.6777 14.4844H13.4556V15.5039H14.3784V14.4844H16.0791V15.5039H18.2148V15.6797H15.9473V14.6602H14.5103V15.6797H13.3237V14.6602H12.8096V16.3125H18.2148V16.4883H18.0566V17.2793H13.3105V16.4883H12.6777V14.4844ZM13.4424 16.4883V17.1035H17.9248V16.4883H13.4424ZM18.8722 27.4746H23.2246V27.6504H18.9022L18.4074 27.9668H19.1377V28.1426H18.1325L17.6611 28.444V29.5312H23.2246V29.707H17.5293V28.3333L17.8276 28.1426H12.6777V27.9668H18.1025L18.8722 27.4746Z" fill="black"/>
<path fill-rule="evenodd" clip-rule="evenodd" d="M23.291 28.4766H17.5957V28.3008H23.291V28.4766Z" fill="black"/>
<path d="M24.7802 26.3672C24.4243 26.543 24.1211 26.7891 23.7915 27.0352C23.3813 27.3475 22.9891 27.7001 22.6181 28.0898C22.4863 28.2129 22.3545 28.3359 22.2622 28.5117C22.1303 28.6523 21.9985 28.8633 22.0249 29.127C22.0249 29.2324 22.1303 28.9863 22.2094 28.9688C22.3346 28.8794 22.48 28.8544 22.6181 28.8984C22.7895 28.6523 23.0136 28.4941 23.1982 28.3008C23.7356 27.7823 24.3096 27.3348 24.9121 26.9648L24.7802 26.3672Z" fill="#F8D80E"/>
<path fill-rule="evenodd" clip-rule="evenodd" d="M24.8149 26.2749L24.9756 27.0031L24.9342 27.0285C24.3351 27.3964 23.7644 27.8412 23.23 28.3567C23.1654 28.4243 23.0952 28.4886 23.0257 28.5521C22.9947 28.5805 22.9638 28.6088 22.9337 28.6371C22.834 28.7307 22.7387 28.8285 22.6568 28.9461L22.6359 28.9762L22.6059 28.9666C22.4804 28.9266 22.3482 28.9493 22.2344 29.0305L22.2267 29.036L22.2182 29.0379C22.2135 29.0389 22.2015 29.0463 22.1815 29.069C22.164 29.089 22.1464 29.1135 22.1287 29.1382C22.1277 29.1396 22.1266 29.141 22.1256 29.1424C22.1167 29.1549 22.1074 29.1678 22.0988 29.1787C22.0908 29.1888 22.0803 29.2013 22.0689 29.21C22.0622 29.2151 22.0278 29.24 21.9961 29.2053C21.9828 29.1907 21.9774 29.1722 21.9751 29.1606C21.9731 29.1505 21.9724 29.1406 21.9722 29.1318C21.9442 28.8359 22.0904 28.6068 22.2234 28.4629C22.3208 28.2814 22.4569 28.1543 22.5844 28.0353L22.5867 28.0332C22.9594 27.6417 23.3534 27.2877 23.7654 26.9739L23.7657 26.9736C23.8158 26.9363 23.8653 26.8988 23.9147 26.8615C24.1885 26.6545 24.4562 26.452 24.762 26.3011L24.8149 26.2749ZM23.8175 27.0962C23.4097 27.4068 23.0197 27.7573 22.6508 28.1449L22.6496 28.1461L22.6484 28.1473C22.5152 28.2716 22.3915 28.3879 22.3054 28.5518L22.3011 28.5601L22.2952 28.5664C22.1881 28.6806 22.0926 28.8307 22.0766 29.0077C22.0881 28.9922 22.1004 28.9764 22.1131 28.962C22.133 28.9393 22.1602 28.9125 22.1912 28.9019C22.3172 28.8146 22.4613 28.7864 22.6003 28.8213C22.6847 28.706 22.7792 28.6102 22.8729 28.5222C22.9055 28.4915 22.9378 28.462 22.9695 28.433C23.0378 28.3705 23.1036 28.3104 23.1657 28.2453L23.1665 28.2444L23.1673 28.2436C23.6952 27.7343 24.2582 27.2932 24.8487 26.9263L24.7458 26.4597C24.4705 26.6031 24.2257 26.7881 23.9682 26.9827C23.9185 27.0203 23.8684 27.0582 23.8175 27.0962ZM22.0777 29.1286C22.0777 29.1286 22.0777 29.1286 22.0777 29.1285L22.0777 29.1286Z" fill="black"/>
<path d="M23.0801 27.668V28.3535V27.668ZM23.3965 27.3691V28.0547V27.3691ZM23.7129 27.1055V27.7734V27.1055ZM24.0425 26.8418V27.5449V26.8418Z" fill="#F8D80E"/>
<path fill-rule="evenodd" clip-rule="evenodd" d="M24.042 26.7539C24.0784 26.7539 24.1079 26.7933 24.1079 26.8418V27.5449C24.1079 27.5935 24.0784 27.6328 24.042 27.6328C24.0056 27.6328 23.9761 27.5935 23.9761 27.5449V26.8418C23.9761 26.7933 24.0056 26.7539 24.042 26.7539ZM23.7124 27.0176C23.7488 27.0176 23.7783 27.0569 23.7783 27.1055V27.7734C23.7783 27.822 23.7488 27.8613 23.7124 27.8613C23.676 27.8613 23.6465 27.822 23.6465 27.7734V27.1055C23.6465 27.0569 23.676 27.0176 23.7124 27.0176ZM23.396 27.2812C23.4324 27.2812 23.4619 27.3206 23.4619 27.3691V28.0547C23.4619 28.1032 23.4324 28.1426 23.396 28.1426C23.3596 28.1426 23.3301 28.1032 23.3301 28.0547V27.3691C23.3301 27.3206 23.3596 27.2812 23.396 27.2812ZM23.0796 27.5801C23.116 27.5801 23.1455 27.6194 23.1455 27.668V28.3535C23.1455 28.4021 23.116 28.4414 23.0796 28.4414C23.0432 28.4414 23.0137 28.4021 23.0137 28.3535V27.668C23.0137 27.6194 23.0432 27.5801 23.0796 27.5801Z" fill="black"/>
<path d="M20.2441 26.4023L20.0859 26.9824C20.8145 27.355 21.5125 27.8262 22.1689 28.3887C22.3931 28.5996 22.6304 28.793 22.8018 29.0742C22.8413 29.2148 22.7358 29.3379 22.6304 29.2852C22.5381 29.25 22.4326 29.1973 22.3403 29.2852C22.1953 29.373 22.0635 29.6719 22.2744 29.7598C22.5908 30.041 23.0786 29.918 23.2236 29.4434C23.3027 29.1973 23.3159 28.8809 23.1577 28.6699C22.894 28.2656 22.5249 27.9668 22.1821 27.668C21.5666 27.1678 20.9179 26.7441 20.2441 26.4023Z" fill="#F8D80E"/>
<path fill-rule="evenodd" clip-rule="evenodd" d="M20.2638 26.3364C20.9405 26.6797 21.5921 27.1053 22.2104 27.6077L22.2112 27.6083L22.2119 27.6089C22.2474 27.6399 22.2833 27.6709 22.3195 27.7022C22.6288 27.9697 22.9558 28.2524 23.1972 28.6218C23.3759 28.8619 23.3558 29.2127 23.2732 29.4703C23.1929 29.7324 23.0188 29.8944 22.8259 29.9533C22.6357 30.0115 22.4224 29.9713 22.2522 29.8235C22.1937 29.7971 22.1509 29.7527 22.1287 29.6911C22.1059 29.6278 22.1095 29.5594 22.1248 29.4996C22.1542 29.3849 22.232 29.2761 22.3148 29.2238C22.373 29.1706 22.4348 29.1613 22.4915 29.1688C22.538 29.1751 22.5849 29.1935 22.624 29.2089C22.6316 29.2119 22.6388 29.2147 22.6457 29.2173L22.6478 29.2181L22.6497 29.2191C22.6836 29.236 22.7156 29.2244 22.7359 29.1999C22.754 29.178 22.7634 29.1458 22.7556 29.1085C22.6188 28.8877 22.4402 28.7234 22.2544 28.5526C22.2166 28.5178 22.1785 28.4827 22.1403 28.4468C21.4872 27.8873 20.7927 27.4186 20.0679 27.0479L20.0195 27.0231L20.1954 26.3781L20.245 26.4021L20.2638 26.3364ZM20.2762 26.4934L20.154 26.9415C20.8685 27.3118 21.5533 27.7767 22.1983 28.3293L22.1993 28.3301L22.2002 28.331C22.2365 28.3652 22.2735 28.3991 22.3108 28.4334C22.4994 28.6067 22.6955 28.7867 22.8435 29.0297L22.849 29.0386L22.852 29.0493C22.8799 29.1485 22.8562 29.2444 22.8067 29.3041C22.7583 29.3625 22.6858 29.3861 22.6148 29.3518C22.6069 29.3488 22.5991 29.3457 22.5914 29.3427C22.5523 29.3274 22.5168 29.3135 22.481 29.3088C22.4401 29.3033 22.4046 29.3109 22.3718 29.3422L22.3677 29.3461L22.363 29.349C22.3024 29.3857 22.2442 29.4684 22.2247 29.5449C22.2152 29.5818 22.2165 29.61 22.2237 29.6302C22.2307 29.6496 22.2479 29.6745 22.291 29.6925L22.2982 29.6955L22.3045 29.7011C22.4497 29.8301 22.6357 29.8673 22.8024 29.8163C22.9687 29.7654 23.1108 29.6287 23.1757 29.4166L23.176 29.4155C23.2512 29.1815 23.2574 28.9009 23.1213 28.7194L23.12 28.7177L23.1188 28.7159C22.8877 28.3615 22.5733 28.0895 22.2615 27.8198C22.2259 27.7889 22.1903 27.7581 22.1548 27.7272C21.5575 27.2419 20.9288 26.829 20.2762 26.4934Z" fill="black"/>
<path d="M22.2358 27.7734L22.1963 28.3711L22.2358 27.7734ZM22.605 28.0723L22.4995 28.6523L22.605 28.0723ZM23.0005 28.4766L22.7632 28.9336L23.0005 28.4766ZM23.1191 29.5664L22.7764 29.3203L23.1191 29.5664ZM23.2246 29.0742L22.8291 29.127L23.2246 29.0742ZM22.7236 29.8301L22.6973 29.373L22.7236 29.8301ZM22.5654 29.3203L22.249 29.6367L22.5654 29.3203ZM21.0098 26.877V27.4219V26.877ZM21.8403 27.4746V28.0898V27.4746ZM21.4185 27.1758V27.7559V27.1758Z" fill="#F8D80E"/>
<path fill-rule="evenodd" clip-rule="evenodd" d="M21.0093 26.7891C21.0457 26.7891 21.0752 26.8284 21.0752 26.877V27.4219C21.0752 27.4704 21.0457 27.5098 21.0093 27.5098C20.9729 27.5098 20.9434 27.4704 20.9434 27.4219V26.877C20.9434 26.8284 20.9729 26.7891 21.0093 26.7891ZM21.418 27.0879C21.4544 27.0879 21.4839 27.1272 21.4839 27.1758V27.7559C21.4839 27.8044 21.4544 27.8438 21.418 27.8438C21.3816 27.8438 21.3521 27.8044 21.3521 27.7559V27.1758C21.3521 27.1272 21.3816 27.0879 21.418 27.0879ZM21.8398 27.3867C21.8762 27.3867 21.9058 27.4261 21.9058 27.4746V28.0898C21.9058 28.1384 21.8762 28.1777 21.8398 28.1777C21.8034 28.1777 21.7739 28.1384 21.7739 28.0898V27.4746C21.7739 27.4261 21.8034 27.3867 21.8398 27.3867ZM22.2411 27.6859C22.2774 27.6902 22.3042 27.7328 22.301 27.7812L22.2615 28.3788C22.2583 28.4272 22.2263 28.4629 22.19 28.4586C22.1537 28.4544 22.1269 28.4117 22.1301 28.3634L22.1697 27.7657C22.1729 27.7174 22.2049 27.6816 22.2411 27.6859ZM22.62 27.9868C22.6554 27.9983 22.6771 28.0458 22.6686 28.093L22.5631 28.6731C22.5545 28.7202 22.5189 28.7492 22.4835 28.7378C22.4481 28.7263 22.4264 28.6788 22.435 28.6316L22.5404 28.0516C22.549 28.0044 22.5846 27.9754 22.62 27.9868ZM23.0375 28.4043C23.0675 28.4319 23.0749 28.4867 23.0542 28.5266L22.8169 28.9836C22.7962 29.0235 22.7551 29.0335 22.7252 29.0059C22.6952 28.9782 22.6878 28.9235 22.7085 28.8836L22.9458 28.4265C22.9665 28.3866 23.0076 28.3767 23.0375 28.4043ZM23.2897 29.0655C23.2933 29.1138 23.2669 29.1568 23.2307 29.1617L22.8352 29.2144C22.7989 29.2192 22.7666 29.184 22.763 29.1357C22.7594 29.0874 22.7858 29.0443 22.8221 29.0395L23.2176 28.9868C23.2538 28.9819 23.2861 29.0172 23.2897 29.0655ZM22.7178 29.2786C22.7351 29.2359 22.7751 29.2199 22.8071 29.2429L23.1499 29.489C23.182 29.512 23.194 29.5653 23.1767 29.6081C23.1594 29.6508 23.1195 29.6668 23.0874 29.6438L22.7652 29.4124L22.7889 29.8233C22.7917 29.8717 22.7645 29.914 22.7282 29.9177C22.6919 29.9214 22.6602 29.8852 22.6574 29.8368L22.6311 29.3798C22.6283 29.3314 22.6554 29.2891 22.6917 29.2854C22.6996 29.2846 22.7073 29.2857 22.7145 29.2884C22.7154 29.2851 22.7166 29.2818 22.7178 29.2786ZM22.6177 29.2676C22.6395 29.3064 22.6336 29.3615 22.6045 29.3906L22.2881 29.707C22.259 29.7362 22.2176 29.7283 22.1958 29.6895C22.174 29.6506 22.1799 29.5955 22.209 29.5664L22.5254 29.25C22.5545 29.2209 22.5958 29.2287 22.6177 29.2676Z" fill="black"/>
<path d="M19.8359 40.0078V41.4141H20.4951V40.7109H21.4048V41.4141H22.1167V40.0078H19.8359ZM19.8359 41.9414V43.3477H22.1035V41.9414H21.3916V42.6445H20.4819V41.9414H19.8359Z" fill="#F8D80E"/>
<path fill-rule="evenodd" clip-rule="evenodd" d="M19.7695 39.9199H22.1821V41.502H21.3384V40.7988H20.5605V41.502H19.7695V39.9199ZM19.9014 40.0957V41.3262H20.4287V40.623H21.4702V41.3262H22.0503V40.0957H19.9014ZM19.7695 41.8535H20.5474V42.5566H21.3252V41.8535H22.1689V43.4355H19.7695V41.8535ZM19.9014 42.0293V43.2598H22.0371V42.0293H21.457V42.7324H20.4155V42.0293H19.9014Z" fill="black"/>
<path d="M22.1035 34.0488H22.7627V44.2441H22.1035V34.0488Z" fill="#F8D80E"/>
<path fill-rule="evenodd" clip-rule="evenodd" d="M22.0371 33.9609H22.8281V44.332H22.0371V33.9609ZM22.1689 34.1367V44.1562H22.6963V34.1367H22.1689Z" fill="black"/>
<path d="M22.1035 34.9277H22.7627V43.7168H22.1035V34.9277ZM22.4463 31.5352L23.8438 32.625L22.4463 33.7148L21.0356 32.625L22.4463 31.5352ZM20.561 32.2383H20.2051V33.0117H20.561L22.4463 34.4707L24.3184 33.0117H24.6875V32.2383H24.3184L22.4463 30.7793L20.561 32.2383Z" fill="#F8D80E"/>
<path fill-rule="evenodd" clip-rule="evenodd" d="M22.4459 30.6772L24.3357 32.1501H24.7529V33.0993H24.3357L22.4459 34.5721L20.5428 33.0993H20.1387V32.1501H20.5428L22.4459 30.6772ZM22.4457 30.8807L20.5783 32.3258H20.2705V32.9235H20.5783L22.4457 34.3687L24.3 32.9235H24.6211V32.3258H24.3L22.4457 30.8807ZM22.446 31.4331L23.9738 32.6247L22.446 33.8162L20.9037 32.6247L22.446 31.4331ZM21.1666 32.6247L22.4456 33.6128L23.7127 32.6247L22.4456 31.6365L21.1666 32.6247ZM22.0371 34.8395H22.8281V43.8043H22.0371V34.8395ZM22.1689 35.0153V43.6286H22.6963V35.0153H22.1689Z" fill="black"/>
<path d="M22.4068 28.8809C22.2534 28.9224 22.116 29.0355 22.0194 29.1997C21.9228 29.364 21.8732 29.5688 21.8794 29.7773V31.7461C21.8916 31.9552 21.9593 32.1516 22.0705 32.2999C22.1818 32.4482 22.3291 32.5385 22.4859 32.5547C22.6163 32.5677 22.7467 32.5277 22.8597 32.4398C22.9727 32.3519 23.063 32.2203 23.1187 32.0625L22.8946 31.8867C22.8635 31.9897 22.808 32.0763 22.7366 32.1334C22.6652 32.1905 22.5818 32.215 22.4991 32.2031C22.2881 32.2031 22.1167 31.9219 22.1431 31.6582V29.6895C22.1531 29.5605 22.1995 29.4415 22.273 29.3566C22.3465 29.2717 22.4415 29.2273 22.5386 29.2324C22.6177 29.1973 22.7364 29.3555 22.7891 29.2324C22.8682 29.0742 22.7364 28.9688 22.6573 28.8809H22.4068ZM23.1714 29.5664C23.107 29.6868 23.0209 29.7835 22.9209 29.8477V31.166L23.1846 31.3594V29.5664H23.1714Z" fill="#F8D80E"/>
<path fill-rule="evenodd" clip-rule="evenodd" d="M22.4063 28.793H22.6806L22.699 28.8133C22.7079 28.8233 22.7177 28.8335 22.7286 28.8451L22.7293 28.8457C22.7402 28.8573 22.7522 28.8699 22.7641 28.8831C22.7875 28.9092 22.8134 28.9404 22.8343 28.9767C22.8553 29.0132 22.874 29.0592 22.8781 29.1145C22.8823 29.1706 22.8706 29.226 22.8446 29.2788C22.8213 29.3314 22.7864 29.3605 22.7459 29.3667C22.7109 29.3721 22.6768 29.3592 22.6531 29.3491C22.6412 29.344 22.6316 29.3394 22.6229 29.3354C22.6101 29.3294 22.5994 29.3244 22.5867 29.32C22.5675 29.3133 22.5604 29.3152 22.559 29.3158L22.5475 29.3209L22.5355 29.3202C22.4551 29.316 22.3765 29.3527 22.3157 29.423C22.2557 29.4923 22.2175 29.5891 22.2085 29.6942V31.664L22.208 31.6698C22.1976 31.7731 22.226 31.8851 22.2818 31.9726C22.3374 32.0597 22.4156 32.1152 22.4986 32.1152H22.5021L22.5056 32.1157C22.5741 32.1256 22.6432 32.1053 22.7022 32.058C22.7613 32.0108 22.8072 31.9391 22.8329 31.8539L22.8615 31.7592L23.2034 32.0274L23.1779 32.0999C23.1165 32.2738 23.0169 32.4188 22.8924 32.5157C22.7679 32.6125 22.6242 32.6567 22.4805 32.6423L22.4803 32.6423C22.3078 32.6245 22.1458 32.5251 22.0234 32.362C21.9011 32.1989 21.8266 31.9829 21.8132 31.7529L21.813 31.7495V29.7791C21.8065 29.5502 21.861 29.3257 21.9671 29.1455C22.0733 28.9648 22.2244 28.8405 22.3932 28.7947L22.4063 28.8809V28.793ZM22.4131 28.9688C22.2776 29.0075 22.1564 29.1084 22.0708 29.254C21.9838 29.4018 21.9392 29.5861 21.9448 29.7738L21.9449 29.7756V31.7426C21.9563 31.9296 22.0172 32.105 22.1167 32.2377C22.2167 32.3711 22.3493 32.4525 22.4903 32.467C22.6075 32.4787 22.7245 32.4428 22.826 32.3638C22.9101 32.2984 22.9803 32.206 23.0303 32.0955L22.921 32.0098C22.8836 32.0909 22.8319 32.1593 22.7701 32.2088C22.6874 32.2749 22.5909 32.3037 22.495 32.291C22.3685 32.2894 22.2569 32.2048 22.1814 32.0865C22.1064 31.969 22.0624 31.811 22.0767 31.6527V29.6849L22.077 29.6804C22.0888 29.5292 22.1432 29.3897 22.2294 29.2901C22.3129 29.1937 22.42 29.1418 22.5303 29.1442C22.5638 29.134 22.5959 29.1416 22.6197 29.1498C22.637 29.1558 22.6578 29.1654 22.6745 29.1731C22.6818 29.1765 22.6884 29.1795 22.6934 29.1817C22.7142 29.1906 22.7247 29.1925 22.7298 29.1922C22.7302 29.1914 22.7307 29.1903 22.7314 29.1888L22.7325 29.1862L22.7338 29.1837C22.7466 29.1581 22.7477 29.1418 22.7469 29.1317C22.746 29.12 22.7417 29.1045 22.7298 29.0839C22.7177 29.063 22.7007 29.0415 22.6797 29.0181C22.6693 29.0066 22.6586 28.9954 22.6475 28.9837L22.6463 28.9824C22.6421 28.9779 22.6377 28.9734 22.6334 28.9688H22.4131ZM23.137 29.4785H23.25V31.508L22.8545 31.218V29.7924L22.8918 29.7685C22.9818 29.7107 23.0593 29.6237 23.1173 29.5153L23.137 29.4785ZM23.1182 29.7759C23.078 29.824 23.0338 29.866 22.9864 29.9011V31.114L23.1182 31.2107V29.7759Z" fill="black"/>
<path d="M20.4961 6.75H24.3589V16.1016H20.4961V6.75Z" fill="black"/>
<path d="M20.2324 6.75V14.5723H21.4585V12.252C21.4585 11.7246 21.7222 10.9688 22.5 10.9688C23.2778 10.9688 23.5547 11.7246 23.5547 12.252V14.5898H24.7676V6.75H20.2324ZM22.3154 7.62891H22.6846V10.3008H22.3154V7.62891ZM21.2212 8.15625H21.6167V10.1074H21.2212V8.15625ZM23.3965 8.15625H23.7788V10.1074H23.3833L23.3965 8.15625ZM19.8105 5.625V6.73242H25.1895V5.625H19.8105ZM19.3096 4.32422V5.625H25.7036V4.32422H24.8994V5.02734H23.9766V4.32422H22.9482V5.02734H22.0518V4.32422H21.0103V5.02734H20.127V4.32422H19.3096ZM18.123 17.1914V18H26.8901V17.1914H18.123Z" fill="#DA000C"/>
<path fill-rule="evenodd" clip-rule="evenodd" d="M19.2432 4.23633H20.1924V4.93945H20.9438V4.23633H22.1172V4.93945H22.8818V4.23633H24.042V4.93945H24.833V4.23633H25.769V5.71289H25.2549V6.82031H24.833V14.6777H23.4883V12.252C23.4883 12.0068 23.4236 11.7073 23.2688 11.4703C23.1158 11.2359 22.8707 11.0566 22.4995 11.0566C22.1283 11.0566 21.8869 11.2358 21.7372 11.4697C21.5858 11.7062 21.5239 12.0058 21.5239 12.252V14.6602H20.166V6.82031H19.7441V5.71289H19.2432V4.23633ZM25.6372 5.53711V4.41211H24.9648V5.11523H23.9102V4.41211H23.0137V5.11523H21.9854V4.41211H21.0757V5.11523H20.0605V4.41211H19.375V5.53711H25.6372ZM19.876 5.71289V6.64453H25.123V5.71289H19.876ZM20.2979 6.83789V14.4844H21.3921V12.252C21.3921 11.9708 21.4621 11.6288 21.6369 11.3555C21.8136 11.0796 22.0928 10.8809 22.4995 10.8809C22.9061 10.8809 23.1884 11.0795 23.3683 11.3549C23.5464 11.6277 23.6201 11.9698 23.6201 12.252V14.502H24.7012V6.83789H20.2979ZM22.249 7.54102H22.75V10.3887H22.249V7.54102ZM22.3809 7.7168V10.2129H22.6182V7.7168H22.3809ZM21.1548 8.06836H21.6821V10.1953H21.1548V8.06836ZM21.2866 8.24414V10.0195H21.5503V8.24414H21.2866ZM23.3307 8.06836H23.8442V10.1953H23.3163L23.3307 8.06836ZM23.4613 8.24414L23.4493 10.0195H23.7124V8.24414H23.4613ZM18.0566 17.1035H26.9556V18.0879H18.0566V17.1035ZM18.1885 17.2793V17.9121H26.8237V17.2793H18.1885Z" fill="black"/>
<path d="M17.7539 14.5723V17.209H27.2461V14.5723H26.3496V15.5918H25.1367V14.5723H23.5283V15.5918H21.4453V14.5723H19.8369V15.5918H18.6504V14.5723H17.7539Z" fill="#DA000C"/>
<path fill-rule="evenodd" clip-rule="evenodd" d="M17.6875 14.4844H18.7158V15.5039H19.7705V14.4844H21.5107V15.5039H23.4619V14.4844H25.2021V15.5039H26.2832V14.4844H27.3115V17.2969H17.6875V14.4844ZM17.8193 14.6602V17.1211H27.1797V14.6602H26.415V15.6797H25.0703V14.6602H23.5937V15.6797H21.3789V14.6602H19.9023V15.6797H18.584V14.6602H17.8193Z" fill="black"/>
<path d="M18.9004 18V27.5625H20.5879V23.9766C20.5879 22.3066 21.4316 21.5156 22.4995 21.5156C23.5278 21.5156 24.4111 22.3066 24.4111 23.9766V27.5625H26.0986V18H18.9004Z" fill="#DA000C"/>
<path fill-rule="evenodd" clip-rule="evenodd" d="M18.834 18C18.834 17.9515 18.8635 17.9121 18.8999 17.9121H26.0981C26.1345 17.9121 26.1641 17.9515 26.1641 18V27.5625C26.1641 27.611 26.1345 27.6504 26.0981 27.6504H24.4106C24.3742 27.6504 24.3447 27.611 24.3447 27.5625V23.9766C24.3447 23.1639 24.1305 22.574 23.7971 22.1861C23.4624 21.7966 23.0011 21.6035 22.499 21.6035C21.9767 21.6035 21.5158 21.797 21.1865 22.1857C20.8583 22.5729 20.6533 23.1626 20.6533 23.9766V27.5625C20.6533 27.611 20.6238 27.6504 20.5874 27.6504H18.8999C18.8635 27.6504 18.834 27.611 18.834 27.5625V18ZM18.9658 18.0879V27.4746H20.5215V23.9766C20.5215 23.1206 20.7383 22.4798 21.0991 22.0541C21.4585 21.6298 21.9535 21.4277 22.499 21.4277C23.0252 21.4277 23.5198 21.6301 23.8838 22.0537C24.2492 22.4788 24.4766 23.1193 24.4766 23.9766V27.4746H26.0322V18.0879H18.9658Z" fill="black"/>
</g>
<defs>
<clipPath id="clip0_45_15491">
<rect width="45" height="45" fill="white"/>
</clipPath>
</defs>
</svg>
