<svg width="45" height="45" viewBox="0 0 45 45" fill="none" xmlns="http://www.w3.org/2000/svg">
<g clip-path="url(#clip0_45_15530)">
<path d="M0 0H45V45H0V0Z" fill="white"/>
<path d="M0 22.5H45V45H0V22.5ZM5.625 22.5C5.625 26.4782 6.81026 30.2936 8.92005 33.1066C11.0298 35.9196 13.8913 37.5 16.875 37.5C19.8587 37.5 22.7202 35.9196 24.83 33.1066C26.9397 30.2936 28.125 26.4782 28.125 22.5C28.125 18.5218 26.9397 14.7064 24.83 11.8934C22.7202 9.08035 19.8587 7.5 16.875 7.5C13.8913 7.5 11.0298 9.08035 8.92005 11.8934C6.81026 14.7064 5.625 18.5218 5.625 22.5Z" fill="#D00C33"/>
</g>
<defs>
<clipPath id="clip0_45_15530">
<rect width="45" height="45" fill="white"/>
</clipPath>
</defs>
</svg>
