<svg width="45" height="45" viewBox="0 0 45 45" fill="none" xmlns="http://www.w3.org/2000/svg">
<g clip-path="url(#clip0_45_15550)">
<path d="M0 0H45V45H0V0Z" fill="#E32118"/>
<path d="M0 0H45V30H0V0Z" fill="white"/>
<path d="M0 0H45V15H0V0Z" fill="#3E9A00"/>
<path d="M0 0V45L12.6562 22.5L0 0Z" fill="#0073CE"/>
<path d="M19.8008 17.9814H25.1867V25.5002C25.1867 28.0314 22.7117 26.0814 22.5008 27.4314C22.1352 26.0439 19.8148 28.0502 19.8148 25.3502L19.8008 17.9814Z" fill="white"/>
<path fill-rule="evenodd" clip-rule="evenodd" d="M19.836 18.0283L19.85 25.3502C19.85 26.0162 19.9928 26.3798 20.2036 26.5812C20.4172 26.7853 20.7087 26.8315 21.0211 26.8361C21.1227 26.8377 21.225 26.8348 21.3268 26.832C21.3813 26.8305 21.4357 26.8291 21.4899 26.8282C21.644 26.8259 21.7945 26.829 21.9316 26.8541C22.0688 26.8792 22.1949 26.9266 22.2992 27.0148C22.3797 27.0829 22.4463 27.1744 22.4947 27.2959C22.5298 27.1801 22.5852 27.0919 22.6568 27.0261C22.7511 26.9393 22.8714 26.8934 23.0048 26.8697C23.1384 26.8459 23.2884 26.8438 23.444 26.8477C23.5042 26.8492 23.565 26.8515 23.6262 26.8539C23.7244 26.8577 23.8236 26.8616 23.9229 26.8619C24.2454 26.8631 24.5521 26.8267 24.7782 26.6401C25.0004 26.4568 25.1516 26.1217 25.1516 25.5002V18.0283H19.836ZM19.8008 17.9814V17.9346H25.2219V25.5002C25.2219 26.1443 25.0637 26.5147 24.8152 26.7198C24.5706 26.9217 24.2455 26.9568 23.9228 26.9557C23.8228 26.9553 23.7216 26.9514 23.6225 26.9475C23.5615 26.9452 23.5013 26.9429 23.4427 26.9414C23.2877 26.9376 23.1422 26.9398 23.0141 26.9626C22.8858 26.9854 22.7781 27.0284 22.6967 27.1033C22.6166 27.177 22.5598 27.2836 22.5352 27.441L22.5095 27.6058L22.4676 27.447C22.4245 27.2835 22.3533 27.1715 22.2616 27.094C22.169 27.0158 22.0539 26.9711 21.9221 26.947C21.7903 26.9229 21.6442 26.9196 21.4907 26.922C21.4379 26.9228 21.3842 26.9242 21.3299 26.9257C21.2273 26.9286 21.1229 26.9314 21.0203 26.9299C20.7069 26.9252 20.3955 26.8799 20.1626 26.6574C19.927 26.4323 19.7797 26.0341 19.7797 25.3502L19.7656 17.9816L19.8008 17.9814Z" fill="black"/>
<path d="M22.8805 26.2314C22.8805 26.2314 22.8102 26.3252 22.6836 26.2502C22.557 26.1752 22.543 21.4314 22.543 21.4314C22.8242 21.0189 23.0492 20.8877 23.0492 20.8877L23.218 21.0752C22.5852 21.5064 22.6414 22.1252 22.6977 23.1939C22.7117 23.5877 22.7117 24.0939 22.782 24.5814C22.8805 25.2002 23.0773 25.7252 23.0914 26.1189C23.1055 26.3627 22.8805 26.2314 22.8805 26.2314Z" fill="#73452B"/>
<path fill-rule="evenodd" clip-rule="evenodd" d="M23.0496 20.8765L23.2299 21.0768L23.2204 21.0832C23.0628 21.1906 22.9485 21.3094 22.8665 21.4435C22.7844 21.5776 22.7343 21.7274 22.7055 21.8973C22.6517 22.2146 22.6723 22.6012 22.6982 23.0856C22.7001 23.1208 22.702 23.1566 22.7039 23.193L22.7039 23.1932C22.7067 23.27 22.7089 23.3511 22.7112 23.4355C22.7207 23.7837 22.7317 24.1875 22.7882 24.5793C22.8321 24.8553 22.8956 25.1126 22.9538 25.3484C22.9607 25.3764 22.9676 25.404 22.9743 25.4313C23.0375 25.6888 23.0905 25.9197 23.0977 26.118C23.1012 26.1807 23.0896 26.2216 23.0682 26.2461C23.0471 26.2704 23.0182 26.2769 22.9902 26.2757C22.9621 26.2744 22.9337 26.2654 22.9126 26.2568C22.902 26.2525 22.8931 26.2482 22.8868 26.245C22.8845 26.2439 22.8826 26.2429 22.8811 26.242C22.881 26.2421 22.881 26.2421 22.8809 26.2422C22.8786 26.2448 22.8751 26.2484 22.8706 26.2524C22.8616 26.2604 22.8483 26.2702 22.8308 26.2776C22.7958 26.2923 22.7448 26.2969 22.68 26.2584C22.6765 26.2564 22.6737 26.2527 22.6713 26.2486C22.669 26.2444 22.6669 26.2392 22.6649 26.2333C22.6609 26.2213 22.6571 26.2053 22.6536 26.1856C22.6464 26.1462 22.6397 26.091 22.6335 26.0224C22.6209 25.8852 22.61 25.6935 22.6004 25.4658C22.5813 25.0104 22.5677 24.4103 22.558 23.8126C22.5484 23.2149 22.5426 22.6195 22.5393 22.1736C22.5377 21.9506 22.5367 21.765 22.536 21.6352C22.5357 21.5702 22.5355 21.5192 22.5354 21.4845L22.5352 21.4312C22.5352 21.4312 22.5352 21.4312 22.5422 21.4311L22.5352 21.4312L22.5352 21.4275L22.537 21.4248C22.678 21.218 22.805 21.0816 22.8968 20.9969C22.9427 20.9545 22.9798 20.925 23.0055 20.9061C23.0183 20.8967 23.0283 20.8899 23.0351 20.8854C23.0385 20.8832 23.0411 20.8815 23.0429 20.8804L23.0449 20.8792L23.0454 20.8789L23.0456 20.8788C23.0456 20.8788 23.0456 20.8788 23.0484 20.8874L23.0456 20.8788L23.0496 20.8765ZM23.0474 20.8984C23.0458 20.8993 23.0438 20.9006 23.0413 20.9022C23.0347 20.9066 23.0249 20.9132 23.0123 20.9225C22.987 20.9411 22.9503 20.9703 22.9048 21.0123C22.8142 21.0959 22.6887 21.2306 22.5492 21.4347L22.5494 21.4844C22.5496 21.5191 22.5498 21.5701 22.5501 21.635C22.5507 21.7649 22.5518 21.9505 22.5534 22.1734C22.5567 22.6193 22.5624 23.2146 22.5721 23.8122C22.5817 24.4098 22.5954 25.0097 22.6145 25.4648C22.624 25.6924 22.635 25.8836 22.6474 26.0202C22.6537 26.0885 22.6603 26.1429 22.6672 26.1812C22.6707 26.2004 22.6742 26.2152 22.6777 26.2256C22.6794 26.2308 22.6811 26.2347 22.6826 26.2373C22.6841 26.2401 22.6852 26.241 22.6857 26.2413C22.7474 26.2779 22.7948 26.2731 22.8266 26.2597C22.8426 26.253 22.8547 26.244 22.8628 26.2368C22.8669 26.2332 22.8699 26.23 22.8719 26.2278C22.8729 26.2267 22.8737 26.2258 22.8741 26.2253L22.8746 26.2246L22.8747 26.2245C22.8747 26.2245 22.8747 26.2245 22.8797 26.2311L22.8825 26.2225L22.8826 26.2226L22.8831 26.2229L22.8849 26.2239C22.8865 26.2247 22.8888 26.226 22.8918 26.2275C22.8978 26.2306 22.9064 26.2347 22.9167 26.2389C22.9373 26.2472 22.9643 26.2558 22.9907 26.2569C23.0172 26.2581 23.0419 26.2517 23.059 26.2319C23.0759 26.2126 23.087 26.1785 23.0836 26.1193L23.0836 26.1191C23.0766 25.9237 23.0242 25.6952 22.9609 25.4372C22.9542 25.4099 22.9474 25.3822 22.9405 25.3543C22.8823 25.1186 22.8185 24.8602 22.7744 24.5831L22.7744 24.5829C22.7176 24.1895 22.7066 23.7839 22.6971 23.4355C22.6948 23.3514 22.6926 23.2706 22.6899 23.1942C22.6879 23.1575 22.686 23.1213 22.6841 23.0857C22.6583 22.6027 22.6375 22.2133 22.6918 21.8931C22.721 21.7208 22.7719 21.5683 22.8556 21.4316C22.9375 21.2978 23.0505 21.1796 23.2045 21.073L23.0474 20.8984Z" fill="black"/>
<path d="M22.443 20.7749H22.6961C22.4852 23.4937 22.668 25.1062 22.668 25.8937C22.668 26.1562 22.7805 26.2499 22.7664 26.2499C22.5133 26.6249 22.3867 26.2312 22.3867 26.2312L22.443 20.7749Z" fill="#73452B"/>
<path fill-rule="evenodd" clip-rule="evenodd" d="M22.4372 20.7656H22.7051L22.7043 20.776C22.5454 22.8236 22.61 24.2426 22.6515 25.1554C22.6651 25.4544 22.6762 25.6991 22.6762 25.8938C22.6762 26.0231 22.7039 26.1104 22.7296 26.1653C22.7425 26.1928 22.755 26.2123 22.7634 26.225C22.7643 26.2264 22.7652 26.2277 22.7661 26.229C22.769 26.2334 22.7715 26.2371 22.773 26.2398C22.7736 26.2408 22.7741 26.2418 22.7746 26.2429C22.7749 26.2439 22.7757 26.2457 22.7758 26.248C22.776 26.251 22.7753 26.2549 22.7726 26.2574C22.7722 26.2578 22.7718 26.258 22.7715 26.2583C22.7082 26.3515 22.6521 26.398 22.6032 26.4144C22.5536 26.4309 22.5122 26.4161 22.4792 26.3892C22.4463 26.3625 22.4219 26.3238 22.4058 26.2922C22.3977 26.2763 22.3917 26.2621 22.3876 26.2518C22.3856 26.2467 22.3841 26.2425 22.383 26.2396C22.3825 26.2381 22.3821 26.237 22.3819 26.2362L22.3816 26.2353L22.3815 26.235L22.3815 26.235C22.3814 26.2349 22.3814 26.2349 22.3879 26.2312L22.3815 26.235L22.3809 26.2331L22.4372 20.7656ZM22.395 26.2293C22.3952 26.2299 22.3954 26.2307 22.3958 26.2316C22.3967 26.2343 22.3981 26.2382 22.4001 26.2431C22.4039 26.2529 22.4097 26.2665 22.4175 26.2816C22.433 26.3121 22.456 26.3484 22.4865 26.3732C22.5168 26.3979 22.5544 26.4113 22.5998 26.3962C22.6447 26.3812 22.6981 26.3379 22.7597 26.2477C22.7587 26.2461 22.7575 26.2443 22.756 26.2421C22.755 26.2407 22.754 26.2392 22.7529 26.2375C22.7442 26.2244 22.7312 26.204 22.7177 26.1753C22.6907 26.1177 22.6621 26.0269 22.6621 25.8938C22.6621 25.7001 22.651 25.4563 22.6375 25.158C22.596 24.2469 22.5315 22.8283 22.6895 20.7844H22.4511L22.395 26.2293Z" fill="black"/>
<path d="M22.051 26.2312C21.812 26.3812 21.7838 26.0812 21.7979 26.0437C22.3182 24.6375 22.5432 21.5437 22.0651 21.2062L22.0932 20.9062C22.276 20.9813 22.4448 21.3 22.4448 21.3C22.5151 24.7687 22.4448 26.1937 22.4026 26.25C22.1495 26.6062 22.051 26.1937 22.037 26.1562" fill="#A36629"/>
<path fill-rule="evenodd" clip-rule="evenodd" d="M22.0865 20.894L22.0945 20.8973C22.1877 20.9356 22.2766 21.0354 22.3418 21.1247C22.3745 21.1695 22.4015 21.212 22.4203 21.2432C22.4296 21.2588 22.437 21.2716 22.442 21.2806C22.4445 21.285 22.4464 21.2885 22.4477 21.2909L22.4492 21.2937L22.4496 21.2944L22.4497 21.2946L22.451 21.2969L22.451 21.2998C22.4862 23.0343 22.4862 24.2579 22.4721 25.0549C22.4651 25.4535 22.4545 25.7455 22.4431 25.9414C22.4374 26.0393 22.4314 26.1134 22.4256 26.1649C22.4226 26.1906 22.4197 26.2108 22.4168 26.2257C22.4154 26.2331 22.4139 26.2393 22.4123 26.2443C22.4109 26.249 22.4091 26.2535 22.4068 26.2566C22.3431 26.3463 22.2882 26.3888 22.2411 26.4002C22.1936 26.4116 22.1551 26.3911 22.1249 26.3581C22.0948 26.3253 22.0728 26.2801 22.0574 26.2412C22.0497 26.2217 22.0437 26.2037 22.0391 26.1894C22.0371 26.1833 22.0355 26.178 22.0341 26.1736C22.0322 26.1675 22.0308 26.163 22.0299 26.1605L22.0425 26.1521C22.0436 26.1552 22.0453 26.1607 22.0475 26.1677C22.0488 26.172 22.0504 26.1768 22.052 26.182C22.0565 26.1961 22.0624 26.2136 22.0699 26.2325C22.0848 26.2704 22.1058 26.3131 22.1338 26.3436C22.1615 26.3738 22.196 26.392 22.2386 26.3817C22.2816 26.3714 22.3339 26.3319 22.3967 26.2436L22.3968 26.2434C22.3971 26.243 22.3981 26.2413 22.3993 26.2372C22.4005 26.2333 22.4018 26.2279 22.4032 26.2209C22.4059 26.207 22.4088 26.1875 22.4117 26.1621C22.4174 26.1113 22.4234 26.0377 22.4291 25.9399C22.4405 25.7445 22.451 25.4529 22.4581 25.0545C22.4721 24.2583 22.4721 23.0359 22.437 21.3032L22.4364 21.3019C22.4351 21.2996 22.4332 21.2962 22.4308 21.2918C22.4258 21.283 22.4186 21.2704 22.4093 21.2549C22.3907 21.224 22.3641 21.1821 22.3317 21.1378C22.2688 21.0517 22.1852 20.9578 22.0984 20.9187L22.0719 21.2011C22.1317 21.2457 22.1799 21.3319 22.2179 21.4497C22.2568 21.5704 22.2853 21.7253 22.3044 21.9055C22.3425 22.2659 22.3429 22.7289 22.3121 23.225C22.2506 24.217 22.0641 25.3433 21.8034 26.0479C21.8024 26.0506 21.8013 26.0576 21.8012 26.0689C21.8011 26.0797 21.8019 26.0933 21.804 26.1083C21.8083 26.1383 21.8176 26.1731 21.8343 26.2021C21.851 26.231 21.8749 26.2541 21.909 26.2613C21.9432 26.2685 21.9883 26.2598 22.0472 26.2228L22.0532 26.2398C21.9927 26.2778 21.9446 26.2878 21.9068 26.2798C21.8687 26.2718 21.8417 26.2457 21.8232 26.2136C21.8048 26.1816 21.7947 26.1438 21.7902 26.1117C21.7879 26.0957 21.787 26.0808 21.7871 26.0686C21.7872 26.0569 21.7883 26.0463 21.7908 26.0396C22.0504 25.338 22.2366 24.2143 22.2981 23.2235C22.3289 22.7282 22.3284 22.2666 22.2905 21.9081C22.2715 21.7288 22.2432 21.5757 22.205 21.4571C22.1667 21.3383 22.1187 21.2553 22.061 21.2146L22.0567 21.2115L22.0865 20.894Z" fill="black"/>
<path fill-rule="evenodd" clip-rule="evenodd" d="M22.081 25.8721C22.0491 25.9991 22.0322 26.1012 22.0424 26.1735L22.0286 26.177C22.0176 26.0993 22.0359 25.9928 22.0677 25.8661C22.0885 25.7835 22.1153 25.6911 22.1443 25.5913C22.1599 25.5377 22.1761 25.4819 22.1924 25.4243C22.2855 25.094 22.38 24.7017 22.366 24.3007L22.38 24.2998C22.3941 24.705 22.2987 25.1003 22.2055 25.4309C22.1892 25.489 22.1729 25.545 22.1573 25.5987C22.1283 25.6982 22.1017 25.7898 22.081 25.8721ZM22.8722 26.2306C22.9002 25.8387 22.8443 25.4276 22.7179 24.9597L22.7312 24.9533C22.8579 25.4228 22.9145 25.8368 22.8862 26.2324L22.8722 26.2306Z" fill="black"/>
<path d="M23.2729 19.5003C23.3573 19.369 23.3573 19.369 23.5119 19.369C23.5401 19.0878 23.8916 19.0878 23.9198 19.444C24.201 19.369 24.2573 19.594 24.1448 19.819C24.4119 19.7253 24.651 19.819 24.5807 20.2315C25.0588 20.4003 24.876 20.8503 24.6651 20.944C24.6369 21.2253 24.4401 21.319 24.1729 21.2065C23.8354 21.5253 23.6385 21.4128 23.4838 21.094C23.1041 21.169 23.076 21.0565 22.9073 20.7753C22.6119 20.944 22.5557 20.944 22.3026 20.7378C22.2885 21.0003 22.2182 20.9253 22.0916 20.9065C22.1057 21.244 22.0073 21.394 21.7823 21.2815C21.951 21.7503 21.5151 21.9565 21.3041 21.5628C21.1073 21.5815 21.0932 21.5065 20.9948 21.4128C20.9104 21.7878 20.601 21.7315 20.5448 21.5253C20.151 21.4503 20.1932 21.169 20.5166 21.1503C20.5448 20.8503 20.7416 20.9065 20.8682 20.944C20.8823 20.7565 20.9666 20.794 21.0369 20.8315C20.9948 20.7003 21.0229 20.6253 21.1494 20.5878C20.9666 20.269 21.0791 20.1565 21.2619 20.044C21.1635 19.744 21.3323 19.7628 21.4588 19.744C21.4448 19.4253 21.5151 19.369 21.7682 19.3315C21.7401 19.219 21.7823 19.1253 21.9229 19.1253C21.8385 18.8065 21.951 18.7315 22.2041 18.7878C22.2463 18.319 22.9916 18.544 22.9354 19.1815C23.1463 19.219 23.2166 19.2753 23.2729 19.5003Z" fill="#009A3B"/>
<path fill-rule="evenodd" clip-rule="evenodd" d="M22.3476 18.5704C22.2748 18.6042 22.2225 18.6754 22.2123 18.7885L22.2114 18.7982L22.2041 18.7966C22.1411 18.7826 22.0872 18.7769 22.0432 18.7809C21.9991 18.7849 21.9655 18.7987 21.9425 18.8229C21.9197 18.8467 21.9063 18.8816 21.9038 18.9304C21.9013 18.9796 21.9097 19.0426 21.9307 19.1218L21.934 19.1343H21.924C21.8546 19.1343 21.8114 19.1574 21.7887 19.192C21.7663 19.2262 21.7625 19.2739 21.776 19.3282L21.7788 19.3392L21.7701 19.3404C21.7069 19.3498 21.6555 19.3603 21.6141 19.3756C21.5728 19.3909 21.5419 19.4109 21.5193 19.4388C21.4743 19.4942 21.46 19.5839 21.467 19.7431L21.4674 19.752L21.4608 19.7529C21.447 19.755 21.4327 19.7566 21.4185 19.7582C21.4162 19.7584 21.414 19.7587 21.4117 19.7589C21.3952 19.7608 21.3788 19.7628 21.3629 19.7655C21.331 19.7711 21.3023 19.7797 21.2807 19.7963C21.2595 19.8126 21.2452 19.8365 21.2415 19.874C21.2378 19.9123 21.2451 19.9655 21.2696 20.0399L21.2723 20.0483L21.2661 20.0521C21.2204 20.0802 21.1796 20.1081 21.1467 20.1389C21.1139 20.1697 21.0895 20.2031 21.0761 20.2421C21.0498 20.319 21.0651 20.4229 21.1562 20.5817L21.1629 20.5933L21.1521 20.5965C21.0893 20.6152 21.0532 20.6425 21.0371 20.6789C21.0213 20.7148 21.0238 20.7627 21.0446 20.8274L21.0513 20.8482L21.0355 20.8398C21.0179 20.8305 20.9999 20.8213 20.9824 20.8156C20.9649 20.8099 20.9485 20.8079 20.9342 20.8122C20.9201 20.8163 20.9076 20.8266 20.8976 20.8468C20.8875 20.8674 20.8798 20.8985 20.8764 20.9446L20.8756 20.9551L20.8678 20.9528C20.8042 20.9339 20.7249 20.9111 20.6581 20.9294C20.6249 20.9384 20.5952 20.9576 20.572 20.9921C20.5488 21.0266 20.5317 21.0774 20.5248 21.151L20.524 21.1589L20.5181 21.1592C20.4379 21.1639 20.3757 21.1848 20.3336 21.2141C20.2913 21.2436 20.2707 21.2805 20.2699 21.3166C20.2692 21.3526 20.2881 21.3928 20.3336 21.4292C20.3788 21.4656 20.449 21.4969 20.5469 21.5156L20.5511 21.5164L20.5525 21.5217C20.5793 21.6199 20.6672 21.6841 20.76 21.6772C20.8519 21.6704 20.9478 21.5935 20.9892 21.4097L20.992 21.3971L21 21.4047C21.02 21.4238 21.0367 21.4422 21.0518 21.4589C21.0555 21.463 21.059 21.4669 21.0626 21.4708C21.0807 21.4906 21.0974 21.5077 21.117 21.5213C21.1557 21.5482 21.207 21.5623 21.3048 21.553L21.3087 21.5527L21.311 21.5569C21.4148 21.7506 21.5731 21.7957 21.6841 21.7365C21.7396 21.7069 21.7832 21.6514 21.8029 21.5751C21.8226 21.4989 21.8187 21.4007 21.7771 21.2852L21.7695 21.2642L21.7859 21.2724C21.8975 21.3281 21.9748 21.3175 22.0229 21.2556C22.0715 21.193 22.0928 21.0749 22.0858 20.9066L22.0853 20.8956L22.0936 20.8968C22.1164 20.9002 22.1376 20.9054 22.1566 20.9101C22.1642 20.912 22.1715 20.9138 22.1784 20.9153C22.203 20.9209 22.2228 20.9235 22.2388 20.9181C22.254 20.913 22.2665 20.9005 22.2763 20.8731C22.2863 20.8451 22.2932 20.802 22.2967 20.7367L22.2975 20.7213L22.3074 20.7294C22.4341 20.8326 22.51 20.8828 22.5906 20.8874C22.6713 20.892 22.7577 20.8508 22.9057 20.7663L22.9106 20.7635L22.9139 20.769C22.9279 20.7924 22.9409 20.8145 22.9532 20.8354C22.9781 20.8777 23.0001 20.9151 23.0216 20.9477C23.0536 20.9962 23.0842 21.0334 23.1209 21.0596C23.1943 21.1119 23.2943 21.1218 23.484 21.0844L23.4884 21.0835L23.4909 21.0885C23.5678 21.247 23.6543 21.3523 23.7623 21.3797C23.8703 21.4072 24.0019 21.3572 24.17 21.1985L24.1728 21.1958L24.1762 21.1972C24.3089 21.2531 24.4232 21.2573 24.5072 21.2138C24.5908 21.1706 24.6455 21.0799 24.6593 20.9424L24.6598 20.9366L24.664 20.9347C24.7675 20.8887 24.8635 20.7554 24.8755 20.6145C24.8814 20.5445 24.8667 20.4722 24.8213 20.4068C24.7757 20.3412 24.6988 20.2821 24.5801 20.2402L24.5735 20.2379L24.575 20.2291C24.5924 20.127 24.5905 20.0457 24.5743 19.9825C24.5582 19.9195 24.5278 19.8738 24.487 19.8432C24.405 19.7817 24.2807 19.781 24.1477 19.8277L24.1298 19.834L24.1401 19.8134C24.1958 19.702 24.2081 19.5939 24.1751 19.5236C24.1424 19.4538 24.0621 19.4155 23.9223 19.4528L23.9147 19.4548L23.9139 19.4446C23.9003 19.2714 23.8084 19.1855 23.7165 19.1764C23.6242 19.1673 23.5335 19.2355 23.5201 19.3699L23.5193 19.378H23.5131C23.4743 19.378 23.4456 19.378 23.4228 19.38C23.4001 19.3821 23.3838 19.3861 23.3699 19.3937C23.3419 19.4091 23.322 19.4397 23.2794 19.506L23.274 19.4999L23.2674 19.5028C23.2395 19.3912 23.2085 19.3231 23.1593 19.2779C23.1098 19.2324 23.041 19.2092 22.9356 19.1904L22.9288 19.1892L22.9296 19.18C22.9572 18.8673 22.7884 18.6549 22.6057 18.5784C22.5145 18.5401 22.4207 18.5363 22.3476 18.5704ZM23.2767 19.4813C23.3134 19.4243 23.3348 19.3927 23.3645 19.3764C23.3805 19.3676 23.3985 19.3634 23.4219 19.3613C23.444 19.3594 23.4714 19.3593 23.5071 19.3593C23.5245 19.2178 23.6218 19.1483 23.7175 19.1577C23.8137 19.1672 23.9098 19.2562 23.927 19.4325C24.0641 19.398 24.1501 19.4349 24.187 19.5137C24.2222 19.5887 24.2103 19.6966 24.1614 19.8038C24.2893 19.7625 24.4109 19.7646 24.4939 19.8269C24.5375 19.8596 24.5703 19.9088 24.5876 19.9764C24.6044 20.042 24.6064 20.1242 24.5902 20.2244C24.7068 20.2667 24.7844 20.3262 24.8316 20.3941C24.8798 20.4635 24.8958 20.5412 24.8894 20.6166C24.8769 20.7643 24.7785 20.9012 24.6726 20.9506C24.6573 21.0912 24.5998 21.186 24.5123 21.2313C24.4249 21.2765 24.3083 21.2718 24.1753 21.2165C24.0072 21.3744 23.8725 21.4268 23.7596 21.3982C23.6473 21.3696 23.5587 21.2613 23.4816 21.1038C23.2944 21.1403 23.1914 21.1311 23.1143 21.0761C23.0755 21.0484 23.0436 21.0094 23.011 20.9601C22.9892 20.9271 22.9669 20.889 22.9418 20.8464C22.9306 20.8273 22.9188 20.8072 22.9063 20.7863C22.7618 20.8687 22.6735 20.9109 22.59 20.9061C22.5075 20.9014 22.4306 20.8511 22.3098 20.7533C22.3061 20.8112 22.2992 20.8524 22.289 20.8811C22.2777 20.9129 22.262 20.9297 22.2422 20.9363C22.223 20.9427 22.2006 20.9394 22.176 20.9338C22.1687 20.9322 22.1613 20.9303 22.1535 20.9284C22.137 20.9244 22.1193 20.92 22.1002 20.9168C22.1059 21.0804 22.0848 21.202 22.0326 21.2691C21.9813 21.3353 21.9023 21.3457 21.7968 21.2975C21.833 21.4078 21.8362 21.504 21.8162 21.5813C21.795 21.6632 21.7481 21.7225 21.6894 21.7539C21.5727 21.8161 21.4091 21.7686 21.3019 21.5721C21.2053 21.5808 21.1519 21.5667 21.1104 21.5379C21.0896 21.5233 21.072 21.5053 21.0537 21.4853C21.05 21.4813 21.0464 21.4773 21.0427 21.4732C21.0296 21.4588 21.0158 21.4435 20.9997 21.4276C20.9552 21.6099 20.8565 21.6889 20.7608 21.696C20.6653 21.703 20.5719 21.6383 20.5408 21.5334C20.444 21.5144 20.3731 21.4829 20.3263 21.4453C20.279 21.4074 20.2549 21.362 20.2559 21.316C20.2569 21.27 20.2829 21.2284 20.3271 21.1975C20.3705 21.1673 20.4329 21.1463 20.5116 21.1409C20.5192 21.0686 20.5369 21.0164 20.5616 20.9796C20.5872 20.9414 20.6198 20.9207 20.6553 20.911C20.7227 20.8926 20.8014 20.914 20.8632 20.9322C20.8672 20.8899 20.8749 20.8587 20.8859 20.8365C20.8979 20.8122 20.9135 20.7991 20.9311 20.7939C20.9484 20.7887 20.9672 20.7914 20.9857 20.7974C20.999 20.8017 21.0125 20.8079 21.0256 20.8145C21.0096 20.757 21.0077 20.7086 21.025 20.6693C21.0431 20.6284 21.0808 20.6004 21.1385 20.5815C21.0524 20.4277 21.0342 20.3192 21.0634 20.2343C21.0781 20.1912 21.1047 20.1554 21.1387 20.1236C21.1711 20.0932 21.2106 20.0659 21.2539 20.039C21.2312 19.9675 21.2235 19.9132 21.2276 19.8716C21.2318 19.8277 21.2491 19.7989 21.2737 19.78C21.2978 19.7615 21.3288 19.7525 21.3611 19.7469C21.3773 19.7441 21.394 19.7421 21.4106 19.7403C21.4128 19.74 21.4151 19.7398 21.4173 19.7395C21.4293 19.7382 21.4411 19.7368 21.4526 19.7353C21.4465 19.5809 21.4606 19.4856 21.5097 19.425C21.5346 19.3943 21.5678 19.3733 21.6104 19.3575C21.651 19.3425 21.7006 19.3322 21.7601 19.3231C21.7486 19.2689 21.753 19.2179 21.7781 19.1796C21.8034 19.1411 21.8484 19.1178 21.9142 19.1157C21.8953 19.041 21.8872 18.9792 21.8898 18.9291C21.8925 18.876 21.9073 18.8358 21.9338 18.8081C21.9599 18.7807 21.9967 18.7664 22.0422 18.7622C22.0861 18.7582 22.1388 18.7636 22.1993 18.7766C22.2123 18.6609 22.2679 18.5875 22.3429 18.5526C22.4197 18.517 22.5166 18.5214 22.6099 18.5605C22.7947 18.6379 22.9689 18.8533 22.9443 19.1731C23.0461 19.1916 23.116 19.2153 23.1673 19.2625C23.2176 19.3088 23.2493 19.3769 23.2767 19.4813Z" fill="black"/>
<path fill-rule="evenodd" clip-rule="evenodd" d="M22.8681 19.243C22.8953 19.2225 22.9177 19.2024 22.9308 19.1763L22.9425 19.1867C22.9274 19.2168 22.9023 19.2388 22.875 19.2594C22.867 19.2654 22.8587 19.2713 22.8504 19.2773C22.83 19.292 22.8092 19.307 22.7894 19.3251C22.7619 19.3504 22.7374 19.381 22.7214 19.423C22.7054 19.465 22.6976 19.5193 22.7045 19.5928L22.6918 19.5994C22.6577 19.5357 22.6066 19.4951 22.5577 19.4861C22.5091 19.4771 22.4629 19.4994 22.4365 19.5611L22.4243 19.5518C22.4541 19.4823 22.5064 19.4577 22.5596 19.4675C22.6058 19.476 22.6531 19.5103 22.6884 19.5636C22.6859 19.5023 22.6939 19.4539 22.7089 19.4145C22.7263 19.3687 22.7528 19.336 22.7815 19.3097C22.8019 19.291 22.8238 19.2752 22.8444 19.2603C22.8526 19.2545 22.8605 19.2487 22.8681 19.243ZM21.8083 19.3585C21.7947 19.354 21.7801 19.3491 21.7663 19.3399L21.7726 19.3231C21.785 19.3313 21.7981 19.3358 21.812 19.3405C21.813 19.3408 21.8139 19.3411 21.8149 19.3414C21.8296 19.3464 21.845 19.3519 21.8592 19.3633C21.8857 19.3845 21.9059 19.4242 21.9147 19.5093C21.9401 19.4565 21.9671 19.4225 21.9941 19.4056C22.0253 19.3861 22.056 19.3898 22.0826 19.4126C22.1089 19.4352 22.1307 19.4758 22.146 19.5291C22.1613 19.5825 22.1702 19.6493 22.1702 19.7252H22.1561C22.1561 19.6511 22.1475 19.5867 22.1329 19.5358C22.1183 19.4848 22.0979 19.4481 22.075 19.4284C22.0524 19.4091 22.0268 19.4058 22.0001 19.4226C21.9729 19.4396 21.9439 19.4776 21.9162 19.5424L21.9051 19.5682L21.903 19.5386C21.8961 19.4367 21.8755 19.3982 21.8519 19.3794C21.8397 19.3696 21.8262 19.3646 21.8114 19.3596C21.8104 19.3592 21.8093 19.3589 21.8083 19.3585ZM23.2531 19.6908C23.2636 19.6116 23.2671 19.5372 23.2671 19.5002H23.2811C23.2811 19.5383 23.2776 19.6138 23.267 19.694C23.2564 19.774 23.2386 19.86 23.2096 19.9179L23.1979 19.9075C23.2252 19.853 23.2426 19.7702 23.2531 19.6908ZM24.1396 19.8209C24.1397 19.8238 24.1409 19.8254 24.141 19.8256L24.151 19.8123C24.152 19.8137 24.1536 19.8164 24.1537 19.8204C24.1538 19.8247 24.152 19.8276 24.1507 19.8292C24.1494 19.8306 24.1479 19.8315 24.1468 19.8321C24.1456 19.8327 24.1443 19.8332 24.143 19.8337C24.1378 19.8353 24.1298 19.8365 24.1203 19.8377C24.1139 19.8384 24.1068 19.8392 24.0989 19.84C24.0823 19.8418 24.0627 19.8439 24.0413 19.847C23.978 19.8564 23.9023 19.875 23.8548 19.9203L23.8466 19.9051C23.8975 19.8566 23.9765 19.8378 24.0397 19.8284C24.0613 19.8252 24.0815 19.8231 24.0981 19.8213C24.1059 19.8205 24.1129 19.8197 24.119 19.819C24.1287 19.8178 24.1357 19.8167 24.1397 19.8154C24.1407 19.8151 24.1414 19.8148 24.1417 19.8146C24.1422 19.8144 24.142 19.8144 24.1415 19.815C24.1409 19.8156 24.1396 19.8176 24.1396 19.8209ZM21.8823 20.0271C21.8336 20.0473 21.768 20.1153 21.691 20.2741L21.683 20.2904L21.6784 20.2719C21.6682 20.2313 21.6531 20.2035 21.6354 20.1846C21.6176 20.1656 21.5968 20.1549 21.5747 20.1493C21.5526 20.1436 21.5295 20.143 21.5073 20.1439C21.4981 20.1442 21.489 20.1449 21.4801 20.1455C21.4678 20.1463 21.4562 20.1471 21.446 20.1471V20.1283C21.456 20.1283 21.4669 20.1276 21.4787 20.1268C21.4875 20.1262 21.4969 20.1255 21.5069 20.1251C21.5295 20.1242 21.5538 20.1248 21.5774 20.1309C21.601 20.1369 21.6242 20.1485 21.6442 20.17C21.6614 20.1884 21.6761 20.2138 21.6868 20.2483C21.7613 20.0991 21.8265 20.0306 21.8781 20.0092C21.9321 19.9869 21.9709 20.0166 21.9867 20.0585L21.9741 20.0669C21.9617 20.0338 21.9302 20.0073 21.8823 20.0271ZM22.4689 20.0918C22.3922 20.0291 22.3173 20.0074 22.2641 20.034L22.2591 20.0164C22.3184 19.9868 22.3982 20.012 22.4762 20.0758C22.5513 20.1372 22.6261 20.2354 22.6822 20.3599C22.7099 20.268 22.7444 20.2274 22.783 20.2086C22.8033 20.1988 22.8243 20.1952 22.845 20.1928C22.8505 20.1922 22.856 20.1917 22.8614 20.1911C22.8768 20.1896 22.892 20.1881 22.9073 20.1847L22.9096 20.2032C22.8936 20.2068 22.8775 20.2084 22.8619 20.2099C22.8566 20.2104 22.8514 20.2109 22.8462 20.2115C22.8257 20.2138 22.8063 20.2173 22.7878 20.2262C22.7517 20.2438 22.7177 20.2833 22.6901 20.3847L22.6849 20.4037L22.6774 20.3861C22.6217 20.2562 22.5452 20.1542 22.4689 20.0918ZM23.6621 20.4149C23.6057 20.3625 23.5345 20.3354 23.4458 20.39L23.4399 20.373C23.534 20.315 23.6105 20.3442 23.6701 20.3996C23.7208 20.4467 23.7597 20.5132 23.7872 20.5603C23.7897 20.5645 23.7921 20.5686 23.7943 20.5724C23.835 20.5027 23.873 20.4663 23.9116 20.4477C23.9514 20.4283 23.9911 20.4283 24.0329 20.4283H24.0335V20.4471C23.9911 20.4471 23.9537 20.4472 23.9164 20.4653C23.8793 20.4833 23.8416 20.5194 23.8 20.5933L23.7946 20.603L23.7889 20.5936C23.7849 20.5868 23.7805 20.5794 23.7759 20.5715C23.7483 20.5242 23.7109 20.4603 23.6621 20.4149ZM22.8975 20.7183C22.8995 20.7391 22.9015 20.7588 22.9015 20.7752H22.8874C22.8874 20.7602 22.8856 20.7419 22.8836 20.7211C22.8832 20.7171 22.8828 20.7129 22.8824 20.7087C22.88 20.6832 22.8777 20.655 22.8786 20.6272C22.8795 20.5993 22.8836 20.5713 22.8942 20.5465C22.9049 20.5214 22.922 20.5002 22.9479 20.4854L22.9534 20.5026C22.9301 20.5159 22.9155 20.5345 22.9065 20.5557C22.8973 20.5772 22.8935 20.6019 22.8927 20.628C22.8918 20.6541 22.8939 20.6809 22.8963 20.7064C22.8967 20.7104 22.8971 20.7144 22.8975 20.7183ZM21.2946 20.5479C21.2424 20.5456 21.1957 20.5597 21.1697 20.5943L21.1598 20.5811C21.19 20.5408 21.2417 20.5268 21.295 20.5291C21.3487 20.5315 21.406 20.5506 21.4491 20.5793L21.4428 20.5961C21.4016 20.5686 21.3464 20.5502 21.2946 20.5479ZM21.9941 20.6014C21.9696 20.6341 21.9524 20.692 21.9592 20.7742L21.9608 20.793L21.9486 20.7833C21.8809 20.7291 21.7871 20.7479 21.7473 20.8363L21.7353 20.8266C21.7775 20.7327 21.8723 20.7111 21.9441 20.7586C21.9406 20.681 21.9579 20.6231 21.9842 20.5881C22.0123 20.5506 22.0506 20.5397 22.0819 20.5606L22.0757 20.5774C22.0507 20.5607 22.0187 20.5685 21.9941 20.6014ZM24.4201 20.9368C24.4195 20.8972 24.4163 20.8408 24.4003 20.7903C24.3903 20.7587 24.375 20.729 24.352 20.7072C24.3289 20.6854 24.2984 20.6721 24.2585 20.6721V20.6908C24.2959 20.6908 24.3235 20.7033 24.3439 20.7225C24.3643 20.7418 24.3781 20.7683 24.3874 20.7976C24.4061 20.8566 24.4061 20.925 24.4061 20.9627V20.9908L24.4188 20.9683C24.4392 20.9321 24.461 20.911 24.4829 20.9C24.5048 20.889 24.5273 20.8878 24.5492 20.8923C24.5871 20.9001 24.6224 20.9244 24.6498 20.9433C24.6545 20.9465 24.659 20.9496 24.6632 20.9524L24.6694 20.9356C24.6655 20.933 24.6612 20.93 24.6567 20.9269C24.6294 20.908 24.5917 20.882 24.5514 20.8738C24.5276 20.8689 24.5026 20.87 24.4779 20.8825C24.4579 20.8926 24.4384 20.9099 24.4201 20.9368ZM23.6271 20.8974C23.6552 20.8958 23.6849 20.9071 23.7143 20.9365L23.7058 20.9515C23.6789 20.9245 23.6524 20.9148 23.6277 20.9161C23.603 20.9175 23.5797 20.9302 23.5594 20.9493C23.5392 20.9684 23.5222 20.9938 23.5104 21.02C23.4985 21.0463 23.4921 21.0728 23.4921 21.094H23.478C23.478 21.0683 23.4857 21.0385 23.4984 21.0103C23.5111 20.9821 23.5294 20.9547 23.5513 20.934C23.5732 20.9132 23.5991 20.899 23.6271 20.8974ZM24.1632 21.0044C24.1741 21.0502 24.1811 21.1121 24.1811 21.2065H24.1671C24.1671 21.1133 24.1601 21.0534 24.1498 21.0101C24.1396 20.9669 24.126 20.9397 24.112 20.9117L24.1237 20.9013L24.1238 20.9014C24.1379 20.9296 24.1524 20.9586 24.1632 21.0044ZM21.4095 21.2692C21.4 21.1956 21.3643 21.1275 21.3113 21.1016C21.2551 21.0741 21.182 21.0952 21.1035 21.1998L21.1135 21.2131C21.1896 21.1115 21.2572 21.0951 21.3065 21.1192C21.3562 21.1435 21.39 21.2104 21.3968 21.2826L21.3968 21.2826L21.3969 21.2833C21.4 21.3042 21.397 21.3193 21.3902 21.3336C21.3841 21.3464 21.3751 21.3582 21.3642 21.3726C21.3623 21.3751 21.3604 21.3777 21.3584 21.3803C21.3315 21.4161 21.2988 21.4646 21.2844 21.5609L21.2982 21.5646C21.3119 21.4734 21.3425 21.4281 21.3683 21.3936C21.3702 21.3911 21.3721 21.3886 21.3739 21.3862C21.3847 21.3719 21.395 21.3584 21.402 21.3436C21.4097 21.3276 21.4137 21.31 21.4117 21.2879C21.451 21.2716 21.4899 21.2679 21.5223 21.2743C21.5565 21.2812 21.5823 21.2992 21.5948 21.3242L21.6065 21.3138C21.5909 21.2825 21.5605 21.263 21.5244 21.2558C21.4903 21.249 21.45 21.2528 21.4095 21.2692Z" fill="black"/>
<path d="M22.3172 16.9222L22.0078 16.9409L21.8531 17.3159L21.6844 16.9597L21.375 16.9784L21.5156 16.6034L21.3469 16.2565L21.6703 16.2378L21.8109 15.8628L21.9797 16.219L22.2891 16.2003L22.1484 16.5753L22.3172 16.9222ZM20.9953 17.0628L20.6859 17.1565L20.6016 17.5597L20.3766 17.2597L20.0813 17.3534L20.1656 16.9597L19.9547 16.6597L20.25 16.5565L20.3344 16.1534L20.5594 16.4534L20.8687 16.3597L20.7703 16.7628L20.9953 17.0628ZM19.7156 17.4097L19.4344 17.5972L19.4203 18.0097L19.1531 17.7847L18.8719 17.9722L18.9 17.5503L18.6328 17.3253L18.9141 17.1378L18.9422 16.7159L19.1953 16.9503L19.4766 16.7628L19.4625 17.1753L19.7156 17.4097ZM22.725 16.9222L23.0344 16.9409L23.175 17.3159L23.3438 16.9597L23.6531 16.9784L23.5125 16.6034L23.6812 16.2565L23.3719 16.2378L23.2172 15.8628L23.0484 16.219L22.7391 16.2003L22.8797 16.5753L22.725 16.9222ZM24.0469 17.0628L24.3422 17.1565L24.4266 17.5597L24.6516 17.2597L24.9469 17.3534L24.8625 16.9597L25.0875 16.6597L24.7781 16.5565L24.6938 16.1534L24.4688 16.4534L24.1734 16.3597L24.2578 16.7628L24.0469 17.0628ZM25.3125 17.4097L25.5938 17.5972L25.6078 18.0097L25.875 17.7847L26.1562 17.9722L26.1422 17.5503L26.3953 17.3253L26.1141 17.1378L26.1 16.7159L25.8328 16.9503L25.5516 16.7628L25.5797 17.1753L25.3125 17.4097Z" fill="#FFD700"/>
<path fill-rule="evenodd" clip-rule="evenodd" d="M21.8077 15.7959L21.9921 16.1852L22.3291 16.1648L22.176 16.573L22.3605 16.9522L22.022 16.9727L21.8538 17.3803L21.6705 16.9931L21.3335 17.0136L21.4866 16.6054L21.3021 16.2261L21.654 16.2057L21.8077 15.7959ZM23.2179 15.7981L23.386 16.2057L23.7245 16.2262L23.5401 16.6054L23.6931 17.0136L23.3562 16.9931L23.1718 17.3825L23.0181 16.9726L22.6821 16.9523L22.8509 16.5738L22.6976 16.1648L23.0345 16.1852L23.2179 15.7981ZM23.215 15.9272L23.0609 16.2525L22.7791 16.2354L22.907 16.5765L22.7664 16.8917L23.0492 16.9088L23.1768 17.249L23.3298 16.9258L23.6116 16.9429L23.4834 16.6011L23.6365 16.2865L23.3562 16.2696L23.215 15.9272ZM21.8127 15.9293L21.9658 16.2525L22.2476 16.2354L22.1194 16.5772L22.2724 16.8918L21.9922 16.9088L21.8509 17.2512L21.6968 16.9258L21.415 16.9429L21.5432 16.6011L21.3902 16.2867L21.6851 16.2696L21.8127 15.9293ZM20.3212 16.0903L20.5664 16.4172L20.9048 16.3147L20.7976 16.7536L21.0435 17.0814L20.705 17.184L20.6132 17.6224L20.3681 17.2957L20.0453 17.3982L20.1374 16.9684L19.9077 16.6417L20.2294 16.5294L20.3212 16.0903ZM24.7054 16.0903L24.7972 16.5292L25.1349 16.6417L24.8894 16.969L24.9813 17.3982L24.6585 17.2957L24.4134 17.6224L24.3216 17.1838L23.9992 17.0814L24.2296 16.7536L24.1378 16.3147L24.4603 16.4171L24.7054 16.0903ZM24.6806 16.2162L24.4757 16.4894L24.2076 16.4043L24.2845 16.7716L24.0931 17.0438L24.3613 17.1289L24.4382 17.4966L24.6431 17.2233L24.9109 17.3083L24.8341 16.9499L25.0386 16.6773L24.7575 16.5836L24.6806 16.2162ZM20.346 16.2162L20.2692 16.5833L20.0002 16.6773L20.1924 16.9506L20.1157 17.3083L20.3835 17.2233L20.5884 17.4966L20.6654 17.1287L20.9456 17.0438L20.7415 16.7716L20.8312 16.4043L20.5508 16.4893L20.346 16.2162ZM18.9207 16.6566L19.1966 16.9121L19.5023 16.7083L19.487 17.1585L19.763 17.4141L19.4576 17.6177L19.4422 18.0674L19.151 17.8221L18.8427 18.0276L18.8734 17.5672L18.582 17.3218L18.89 17.1165L18.9207 16.6566ZM26.1219 16.6566L26.1373 17.1169L26.4435 17.3211L26.1666 17.5671L26.182 18.0263L25.8757 17.8221L25.5844 18.0674L25.5691 17.6177L25.2626 17.4134L25.5531 17.1585L25.5223 16.7069L25.8304 16.9123L26.1219 16.6566ZM26.0766 16.7749L25.8337 16.9879L25.5793 16.8183L25.6048 17.1917L25.361 17.4056L25.6169 17.5763L25.6297 17.9516L25.8728 17.7469L26.1291 17.9177L26.1162 17.5331L26.3456 17.3292L26.0894 17.1583L26.0766 16.7749ZM18.9622 16.7749L18.9366 17.1588L18.6821 17.3284L18.9251 17.5331L18.8995 17.9164L19.1538 17.7469L19.3969 17.9516L19.4097 17.5763L19.6668 17.4049L19.4366 17.1917L19.4493 16.817L19.1925 16.9882L18.9622 16.7749Z" fill="black"/>
<path d="M25.6926 25.35L26.0441 26.025L26.3676 25.3875L26.1426 24.8438L25.6926 25.35ZM23.4566 27.3187L23.4848 27.9938C23.4848 27.9938 23.6254 27.9938 23.752 27.9375C23.8645 27.8812 23.9629 27.7688 23.9629 27.7688L23.9488 27.4125L23.4566 27.3187ZM21.5723 27.3187L21.5441 27.975C21.5441 27.975 21.4176 27.975 21.291 27.9375C21.1785 27.9 21.0801 27.8063 21.0801 27.8063L20.9395 27.3562L21.5723 27.3187ZM19.3082 25.35L18.9426 26.025L18.5488 25.1625L18.8441 24.75L19.3082 25.35Z" fill="white"/>
<path fill-rule="evenodd" clip-rule="evenodd" d="M18.8431 24.7036L19.3402 25.3464L18.9404 26.0845L18.5176 25.1582L18.8431 24.7036ZM18.8444 24.7968L18.5793 25.1671L18.9439 25.9659L19.2754 25.354L18.8444 24.7968ZM26.1492 24.7931L26.396 25.3894L26.044 26.0832L25.6592 25.3444L26.1492 24.7931ZM25.7252 25.356L26.0435 25.9672L26.3383 25.3859L26.1351 24.8948L25.7252 25.356ZM23.43 27.2808L23.9719 27.384L23.9877 27.7833L23.9785 27.7939L23.9625 27.7689C23.9785 27.7939 23.9785 27.7939 23.9785 27.7939L23.9784 27.794L23.9781 27.7943L23.9772 27.7954C23.9764 27.7963 23.9752 27.7976 23.9736 27.7993C23.9706 27.8026 23.9661 27.8074 23.9605 27.8133C23.9492 27.8251 23.9329 27.8413 23.9131 27.8593C23.8736 27.8952 23.819 27.939 23.7602 27.9684L23.7593 27.9688C23.6937 27.998 23.6249 28.0124 23.573 28.0195C23.547 28.0231 23.5249 28.0249 23.5094 28.0258C23.5016 28.0263 23.4954 28.0265 23.4911 28.0266C23.489 28.0267 23.4873 28.0267 23.4862 28.0267L23.4849 28.0268L23.4845 28.0268H23.4844C23.4844 28.0268 23.4844 28.0268 23.4844 27.9939L23.4844 28.0268L23.4611 28.0268L23.43 27.2808ZM23.5076 27.9603C23.5223 27.9594 23.5432 27.9577 23.568 27.9543C23.6179 27.9474 23.6825 27.9337 23.7433 27.9068C23.7969 27.8799 23.8476 27.8394 23.8853 27.8051C23.9042 27.788 23.9196 27.7726 23.9302 27.7615C23.9329 27.7588 23.9352 27.7563 23.9373 27.7541L23.9249 27.4414L23.4825 27.3571L23.5076 27.9603ZM21.598 27.2845L21.567 28.008H21.5437H21.5436L21.5433 28.008L21.5421 28.008L21.5377 28.0079C21.5338 28.0079 21.5283 28.0077 21.5212 28.0074C21.5071 28.0068 21.4869 28.0056 21.4628 28.0032C21.4147 27.9985 21.3501 27.9889 21.2853 27.9697L21.2846 27.9695C21.2256 27.9499 21.1708 27.9157 21.1312 27.8868C21.1112 27.8723 21.0949 27.859 21.0835 27.8493C21.0778 27.8445 21.0734 27.8405 21.0703 27.8377C21.0687 27.8363 21.0676 27.8352 21.0667 27.8344L21.0658 27.8335L21.0654 27.8332C21.0654 27.8332 21.0654 27.8331 21.0797 27.8064L21.0654 27.8332L21.0597 27.8277L20.9028 27.3257L21.598 27.2845ZM21.0996 27.7849C21.1022 27.7873 21.1058 27.7904 21.1101 27.794C21.1207 27.8031 21.136 27.8156 21.1547 27.8292C21.1923 27.8566 21.2429 27.8879 21.2963 27.9058C21.3579 27.924 21.4198 27.9332 21.4664 27.9378C21.4885 27.94 21.5071 27.9411 21.5205 27.9417L21.5457 27.3533L20.9753 27.3871L21.0996 27.7849Z" fill="black"/>
<path d="M21.0664 28.669C21.0664 29.3065 23.9633 29.3065 23.9633 28.669V27.769C23.9633 28.2378 21.0664 28.144 21.0664 27.769V28.669Z" fill="white"/>
<path fill-rule="evenodd" clip-rule="evenodd" d="M23.9137 27.8258C23.9317 27.8047 23.9379 27.7858 23.9379 27.769H23.9871V28.669C23.9871 28.7673 23.9313 28.8455 23.8501 28.9068C23.7678 28.9689 23.6519 29.0196 23.5152 29.0597C23.2412 29.1401 22.8772 29.18 22.5141 29.18C22.1509 29.18 21.7869 29.1401 21.513 29.0597C21.3762 29.0196 21.2603 28.9689 21.178 28.9068C21.0968 28.8455 21.041 28.7673 21.041 28.669V27.769H21.0902C21.0902 27.7772 21.0941 27.791 21.1129 27.8097C21.1312 27.828 21.1597 27.8467 21.1983 27.865C21.2753 27.9015 21.3866 27.9337 21.5219 27.9607C21.792 28.0146 22.153 28.0468 22.5144 28.0526C22.8758 28.0585 23.2366 28.038 23.5064 27.987C23.6416 27.9615 23.7525 27.9286 23.829 27.8885C23.8674 27.8684 23.8955 27.8472 23.9137 27.8258ZM23.9379 27.8843C23.9144 27.9089 23.8834 27.9305 23.847 27.9495C23.7651 27.9925 23.6497 28.0263 23.5133 28.052C23.24 28.1036 22.8765 28.1241 22.5138 28.1183C22.151 28.1124 21.7877 28.0801 21.5146 28.0256C21.3783 27.9984 21.2633 27.9654 21.1819 27.9269C21.145 27.9094 21.1137 27.8902 21.0902 27.8688V28.669C21.0902 28.7302 21.125 28.7914 21.2022 28.8497C21.2783 28.9071 21.3887 28.956 21.5236 28.9956C21.7928 29.0746 22.153 29.1144 22.5141 29.1144C22.8751 29.1144 23.2353 29.0746 23.5046 28.9956C23.6394 28.956 23.7498 28.9071 23.8259 28.8497C23.9031 28.7914 23.9379 28.7302 23.9379 28.669V27.8843Z" fill="black"/>
<path d="M18.4785 26.5875C18.7316 28.3125 21.066 28.35 21.066 28.35V27.7688C21.0098 27.5438 21.1082 27.4688 21.4879 27.3938C21.6426 27.375 21.5723 27.075 21.5723 27.075C21.5723 27.075 20.5598 27.3187 19.8426 26.9437C18.8723 26.4187 18.7316 25.4062 18.7316 25.4062C18.7316 25.4062 18.6613 26.1938 18.4785 26.5875ZM26.5363 26.5875C26.2973 28.3125 23.9629 28.35 23.9629 28.35V27.7688C24.0051 27.5438 23.9066 27.4688 23.527 27.3938C23.3723 27.375 23.4566 27.075 23.4566 27.075C23.4566 27.075 24.4691 27.3187 25.1863 26.9437C26.1426 26.4187 26.2551 25.4062 26.2551 25.4062C26.2551 25.4062 26.3535 26.1938 26.5363 26.5875Z" fill="white"/>
<path fill-rule="evenodd" clip-rule="evenodd" d="M18.9426 25.9603C19.0965 26.274 19.3705 26.6537 19.8505 26.9134C20.2044 27.0984 20.6328 27.1314 20.9744 27.1173C21.1449 27.1103 21.2931 27.0917 21.3987 27.0748C21.4515 27.0663 21.4935 27.0583 21.5224 27.0524C21.5368 27.0495 21.5479 27.0471 21.5554 27.0454C21.5574 27.045 21.5591 27.0446 21.5605 27.0443C21.5619 27.044 21.563 27.0437 21.5639 27.0435L21.566 27.043L21.5665 27.0429L21.5666 27.0429L21.571 27.0751C21.5945 27.0654 21.5945 27.0654 21.5945 27.0654L21.5946 27.0657L21.5948 27.0665L21.5954 27.0694C21.596 27.0718 21.5967 27.0753 21.5976 27.0797C21.5993 27.0885 21.6015 27.101 21.6037 27.116C21.6081 27.1458 21.6124 27.1865 21.6114 27.2285C21.6105 27.27 21.6044 27.3162 21.5857 27.3542C21.5662 27.3936 21.5349 27.4207 21.4896 27.4265C21.3953 27.4451 21.3191 27.4636 21.2588 27.4843C21.198 27.505 21.1548 27.5274 21.1256 27.5527C21.0971 27.5774 21.0829 27.6038 21.0775 27.6337C21.0718 27.6649 21.0747 27.7049 21.0881 27.7585L21.0894 27.7636V28.3833L21.0645 28.3829L21.0648 28.3501C21.0645 28.3829 21.0645 28.3829 21.0645 28.3829L21.0643 28.3829L21.064 28.3829L21.0627 28.3829L21.0576 28.3828C21.0531 28.3827 21.0464 28.3824 21.0378 28.3821C21.0204 28.3814 20.9951 28.3801 20.9627 28.3779C20.898 28.3735 20.8054 28.3653 20.6936 28.35C20.4699 28.3194 20.1688 28.2605 19.8594 28.1474C19.2435 27.9222 18.5827 27.4769 18.4531 26.5939L18.4773 26.5876L18.4564 26.5704C18.5454 26.3786 18.608 26.0881 18.6484 25.8423C18.6684 25.7201 18.6829 25.61 18.6922 25.5305C18.6969 25.4907 18.7004 25.4587 18.7026 25.4366C18.7038 25.4255 18.7046 25.417 18.7052 25.4112L18.7058 25.4047L18.7059 25.403L18.706 25.4025L18.7545 25.4004C18.7546 25.4004 18.7546 25.4004 18.7546 25.4004L18.7547 25.4009L18.7549 25.4027C18.7552 25.4045 18.7556 25.4072 18.7562 25.4107C18.7574 25.4179 18.7593 25.4286 18.7621 25.4425C18.7677 25.4703 18.7767 25.5109 18.7906 25.5615C18.8184 25.6626 18.8655 25.8033 18.9426 25.9603ZM18.7384 25.5616C18.7289 25.6399 18.7151 25.7429 18.6964 25.8564C18.6567 26.0984 18.5943 26.392 18.5033 26.5938C18.6312 27.4277 19.2609 27.8605 19.8725 28.0841C20.1784 28.196 20.4766 28.2543 20.6986 28.2847C20.8095 28.2999 20.9013 28.308 20.9652 28.3124C20.9972 28.3146 21.0222 28.3158 21.0392 28.3165C21.0396 28.3165 21.0399 28.3165 21.0402 28.3165V27.7741C21.0264 27.7173 21.0211 27.6652 21.0297 27.6182C21.0387 27.5684 21.0624 27.5292 21.0988 27.4976C21.1347 27.4666 21.1838 27.4421 21.2465 27.4207C21.3095 27.3992 21.3878 27.3802 21.483 27.3614L21.4837 27.3613L21.4844 27.3612C21.5161 27.3574 21.5337 27.34 21.5445 27.3182C21.5561 27.2946 21.5614 27.2623 21.5622 27.2265C21.5631 27.1912 21.5594 27.1557 21.5554 27.1286C21.5546 27.1228 21.5537 27.1174 21.5529 27.1125C21.5465 27.1139 21.5388 27.1155 21.5298 27.1173C21.5005 27.1233 21.4579 27.1314 21.4046 27.1399C21.2979 27.157 21.1482 27.1759 20.9759 27.1829C20.632 27.197 20.1956 27.1644 19.8324 26.9744L19.8321 26.9743C19.3419 26.7091 19.0603 26.32 18.9014 25.9962C18.822 25.8345 18.7733 25.6892 18.7444 25.5841C18.7423 25.5764 18.7403 25.5688 18.7384 25.5616ZM21.571 27.0751L21.5945 27.0654L21.588 27.0377L21.5666 27.0429L21.571 27.0751ZM26.2296 25.4016L26.2781 25.401L26.2782 25.4015L26.2784 25.4032L26.2792 25.4097C26.28 25.4155 26.2811 25.4241 26.2826 25.4351C26.2857 25.4572 26.2902 25.4893 26.2962 25.5291C26.3082 25.6087 26.3261 25.7188 26.3497 25.8412C26.3971 26.087 26.4667 26.3781 26.556 26.5704L26.5351 26.5876L26.5593 26.5936C26.4369 27.4768 25.7794 27.9222 25.1652 28.1474C24.8568 28.2605 24.5561 28.3194 24.3326 28.35C24.2209 28.3653 24.1283 28.3735 24.0637 28.3779C24.0314 28.3801 24.006 28.3814 23.9887 28.3821C23.98 28.3824 23.9734 28.3827 23.9689 28.3828L23.9637 28.3829L23.9624 28.3829L23.9621 28.3829L23.962 28.3829C23.962 28.3829 23.9619 28.3829 23.9617 28.3501L23.962 28.3829L23.937 28.3833V27.7649L23.9378 27.7609C23.9478 27.7075 23.9486 27.6674 23.9412 27.6356C23.9341 27.6049 23.9184 27.5778 23.8887 27.5529C23.8585 27.5274 23.8148 27.505 23.7539 27.4843C23.6932 27.4636 23.6171 27.4451 23.5228 27.4265C23.4774 27.4207 23.4465 27.3934 23.4284 27.3531C23.411 27.3145 23.407 27.2679 23.408 27.2265C23.4089 27.1845 23.4151 27.1438 23.4208 27.1141C23.4237 27.0992 23.4265 27.0867 23.4287 27.0779C23.4297 27.0736 23.4306 27.0701 23.4313 27.0676L23.432 27.0648L23.4323 27.064L23.4323 27.0637L23.4324 27.0636C23.4324 27.0636 23.4324 27.0636 23.4554 27.0751L23.4598 27.0428L23.4599 27.0429L23.4604 27.043L23.4626 27.0435C23.4644 27.0439 23.4673 27.0446 23.471 27.0454C23.4785 27.0471 23.4896 27.0495 23.504 27.0524C23.5329 27.0583 23.575 27.0663 23.6277 27.0748C23.7333 27.0917 23.8816 27.1103 24.0521 27.1173C24.3936 27.1314 24.822 27.0984 25.1759 26.9134C25.6487 26.6538 25.912 26.2744 26.0571 25.961C26.1298 25.8042 26.173 25.6636 26.1979 25.5625C26.2104 25.512 26.2184 25.4714 26.2232 25.4436C26.2255 25.4297 26.2272 25.419 26.2282 25.4119C26.2287 25.4083 26.229 25.4056 26.2292 25.4039L26.2294 25.402L26.2295 25.4016C26.2295 25.4016 26.2295 25.4016 26.2296 25.4016ZM26.2505 25.5589C26.2487 25.5667 26.2467 25.5748 26.2447 25.5831C26.2187 25.6883 26.174 25.8336 26.099 25.9955C25.9489 26.3196 25.6778 26.7089 25.1945 26.9742L25.1941 26.9744C24.8308 27.1644 24.3945 27.197 24.0505 27.1829C23.8783 27.1759 23.7286 27.157 23.6219 27.1399C23.5685 27.1314 23.5259 27.1233 23.4966 27.1173C23.487 27.1154 23.4789 27.1136 23.4722 27.1122C23.4711 27.1176 23.4698 27.1238 23.4685 27.1305C23.4632 27.1576 23.458 27.1931 23.4571 27.2285C23.4563 27.2644 23.4602 27.2963 23.4706 27.3193C23.48 27.3402 23.4963 27.3574 23.5279 27.3612L23.5286 27.3613L23.5293 27.3614C23.6245 27.3802 23.7029 27.3992 23.766 27.4207C23.829 27.4421 23.8784 27.4666 23.915 27.4974C23.9522 27.5287 23.9769 27.5673 23.9882 27.6162C23.9991 27.6631 23.9967 27.7154 23.9863 27.7729V28.3165C23.9866 28.3165 23.9869 28.3165 23.9872 28.3165C24.0042 28.3158 24.0292 28.3146 24.0612 28.3124C24.1251 28.308 24.2168 28.2999 24.3276 28.2847C24.5493 28.2543 24.8472 28.196 25.1522 28.0841C25.762 27.8605 26.3881 27.4277 26.5091 26.594C26.4181 26.3927 26.3487 26.0995 26.3021 25.8575C26.2798 25.7422 26.2626 25.6377 26.2505 25.5589ZM23.4554 27.0751L23.4598 27.0428L23.4396 27.038L23.4324 27.0636L23.4554 27.0751Z" fill="black"/>
<path d="M18.6618 25.9312C18.0149 25.4624 18.5212 24.9749 18.5774 23.5874C18.6759 24.4312 19.3931 24.7874 19.3087 25.3312C19.0134 25.3499 18.8728 24.7499 18.7321 25.4062L18.6618 25.9312ZM26.354 25.9312C27.0009 25.4437 26.4665 24.9749 26.4103 23.5874C26.3118 24.4312 25.6087 24.7874 25.6931 25.3312C25.9743 25.3499 26.1149 24.7499 26.2556 25.4062L26.354 25.9124V25.9312Z" fill="white"/>
<path fill-rule="evenodd" clip-rule="evenodd" d="M18.5521 23.5858L18.601 23.5825C18.6489 23.9932 18.8473 24.2864 19.029 24.5497C19.0316 24.5535 19.0342 24.5573 19.0368 24.5611C19.124 24.6874 19.2073 24.8083 19.264 24.9309C19.3229 25.0581 19.3548 25.191 19.332 25.338L19.3281 25.3629L19.3091 25.3641C19.2286 25.3692 19.1597 25.332 19.1008 25.2871C19.0714 25.2648 19.044 25.24 19.019 25.2174L19.0187 25.2172C18.9934 25.1943 18.9709 25.174 18.9498 25.1585C18.9285 25.1429 18.9107 25.1339 18.8952 25.1318C18.8807 25.1298 18.8674 25.1337 18.8537 25.1469C18.8392 25.1609 18.8232 25.1864 18.8063 25.2304C18.7895 25.274 18.7726 25.3336 18.7553 25.4137L18.6853 25.9371L18.661 25.9313L18.6493 25.9601C18.4851 25.8412 18.3901 25.7182 18.3444 25.5753C18.2988 25.4328 18.3044 25.2765 18.331 25.0976C18.3468 24.9917 18.3699 24.8774 18.3954 24.7513C18.4569 24.4472 18.5323 24.0744 18.5521 23.5858ZM18.6429 25.8802L18.7073 25.3989L18.7077 25.3973C18.7255 25.3142 18.7436 25.2495 18.7625 25.2005C18.7813 25.1516 18.8017 25.1162 18.8248 25.0938C18.8487 25.0707 18.8742 25.0629 18.9002 25.0665C18.9253 25.0699 18.9499 25.0837 18.9735 25.101C18.9966 25.1179 19.0208 25.1398 19.0451 25.1618L19.0466 25.1631C19.0718 25.1859 19.0977 25.2092 19.1252 25.2302C19.1748 25.2679 19.2279 25.2967 19.2872 25.2988C19.2994 25.1837 19.2733 25.0759 19.2221 24.9653C19.168 24.8482 19.0874 24.7314 18.9987 24.6028C18.9967 24.5999 18.9947 24.597 18.9927 24.5941C18.8419 24.3754 18.6708 24.1252 18.5892 23.796C18.5591 24.1941 18.4945 24.5142 18.4415 24.7762C18.4165 24.8999 18.3942 25.0106 18.3793 25.1104C18.3532 25.2853 18.35 25.4255 18.3897 25.5496C18.4267 25.6654 18.5028 25.7724 18.6429 25.8802ZM25.964 24.55C26.1421 24.2867 26.3372 23.9934 26.3852 23.5825L26.434 23.5858C26.4544 24.0871 26.537 24.4646 26.604 24.7709C26.6293 24.8863 26.6524 24.9917 26.669 25.0897C26.6992 25.2673 26.7085 25.4231 26.6657 25.5667C26.6228 25.7107 26.5295 25.8362 26.3653 25.9599L26.3286 25.9876V25.9167L26.2311 25.4153C26.2311 25.4152 26.2311 25.4151 26.231 25.4149C26.2137 25.3342 26.1967 25.2742 26.1799 25.2304C26.1629 25.1864 26.147 25.1609 26.1326 25.1469C26.119 25.1337 26.1059 25.1298 26.0917 25.1318C26.0765 25.1339 26.0591 25.1429 26.0383 25.1584C26.0176 25.1739 25.9955 25.1942 25.9708 25.2172L25.9698 25.2182C25.9457 25.2405 25.9195 25.2648 25.8916 25.2869C25.8348 25.3317 25.7683 25.3692 25.6911 25.3641L25.672 25.3628L25.6682 25.338C25.6454 25.1912 25.6763 25.0585 25.7338 24.9312C25.7894 24.8081 25.8715 24.6868 25.9573 24.5599L25.964 24.55ZM26.3721 25.8787C26.5112 25.7672 26.5854 25.6585 26.6199 25.5424C26.6571 25.4177 26.6506 25.2781 26.621 25.1042C26.6052 25.0113 26.5829 24.9092 26.5581 24.796C26.5002 24.5315 26.429 24.2062 26.3971 23.7962C26.3165 24.1251 26.1485 24.3752 26.0006 24.5939L25.9958 24.601C25.9084 24.7302 25.8291 24.8474 25.776 24.965C25.726 25.0756 25.7006 25.1835 25.713 25.2988C25.7686 25.2963 25.819 25.268 25.8665 25.2304C25.8929 25.2096 25.9178 25.1865 25.9422 25.1638L25.9427 25.1633C25.9669 25.1408 25.991 25.1185 26.0142 25.1011C26.0374 25.0838 26.0617 25.07 26.0866 25.0665C26.1125 25.0629 26.1379 25.0708 26.1616 25.0939C26.1846 25.1162 26.2049 25.1516 26.2237 25.2005C26.2425 25.2495 26.2606 25.3142 26.2784 25.3973L26.2786 25.3981L26.3721 25.8787Z" fill="black"/>
<path d="M19.0559 26.5687L19.1262 26.6438L18.9715 26.8688C18.9012 26.9625 18.8942 27.0187 18.9364 27.075C18.9856 27.1406 19.0278 27.1125 19.077 27.0375L19.2528 26.7937L19.309 26.8688L19.1403 27.1312C19.0489 27.2719 18.9645 27.2438 18.8872 27.15C18.8309 27.075 18.7887 26.9625 18.8872 26.8219L19.0559 26.5687ZM19.3372 26.8875L19.4075 26.9437L19.3934 27.3938L19.5481 27.075L19.6184 27.1312L19.3934 27.6188L19.309 27.5625L19.3231 27.1125L19.1684 27.4313L19.0981 27.375L19.3372 26.8875ZM19.4637 27.675L19.6606 27.15L19.7309 27.2063L19.5481 27.7125L19.4637 27.675ZM19.7731 27.225L19.6184 27.7688L19.7731 27.8438C19.9137 27.9094 19.984 27.825 20.0262 27.6656C20.0755 27.4969 20.0544 27.3844 19.9137 27.3L19.7731 27.225ZM19.8294 27.3562C19.97 27.4219 19.984 27.4969 19.9419 27.6375C19.8997 27.7594 19.8715 27.8063 19.7309 27.7125L19.8294 27.3562ZM20.2372 27.4313L19.984 27.9375L20.0825 27.975L20.1387 27.8438L20.3075 27.9L20.3215 28.0312L20.42 28.05L20.3215 27.45L20.2372 27.4313ZM20.2653 27.5625L20.2934 27.7875L20.1809 27.7688L20.2653 27.5625ZM20.4762 27.4781L20.4622 28.0594H20.6239C20.7786 28.0687 20.8208 27.9656 20.8278 27.7781C20.8278 27.6094 20.7786 27.4969 20.6239 27.4969L20.4762 27.4781ZM20.5606 27.5719C20.7153 27.5813 20.7364 27.6469 20.7364 27.7875C20.7294 27.9281 20.7083 27.9844 20.5536 27.9563V27.5813L20.5606 27.5719ZM21.9528 28.2937V28.8938H22.0512V28.6687C22.0512 28.6687 22.1356 28.6688 22.2059 28.65C22.2551 28.6313 22.2973 28.5844 22.2973 28.4625C22.2973 28.35 22.2481 28.2937 22.1637 28.2937H21.9528ZM22.0512 28.3875H22.1497C22.227 28.3875 22.22 28.5563 22.1497 28.5563H22.0512V28.3875ZM22.459 28.2937L22.2762 28.8938H22.3747L22.4169 28.7438H22.5997L22.6419 28.8938H22.7403L22.5575 28.2937H22.459ZM22.5012 28.425L22.5715 28.65H22.445L22.5012 28.425ZM22.7403 28.7812L22.9794 28.3875H22.7684V28.2937H23.1059V28.3875L22.8528 28.7812H23.1059V28.8938H22.7403V28.7812ZM24.1606 27.6188L24.245 27.6L24.2872 27.9375C24.3012 28.0594 24.259 28.1344 24.1958 28.1719C24.1255 28.2094 24.027 28.1719 24.02 28.0125L24.0903 27.9938C24.1044 28.0875 24.1325 28.0969 24.1606 28.0875C24.1958 28.0688 24.2098 28.0125 24.2028 27.9563L24.1606 27.6188ZM24.3012 27.5813L24.3786 27.5625L24.4208 27.8438C24.4348 27.9656 24.463 28.0125 24.5262 28.0031C24.5965 27.9844 24.6036 27.9281 24.5895 27.8156L24.5403 27.525L24.6247 27.5062L24.6809 27.8156C24.709 28.0031 24.6387 28.0688 24.5403 28.0969C24.463 28.1156 24.3715 28.0969 24.3434 27.9094L24.3012 27.5813ZM24.7372 27.8438L24.8075 27.8063C24.8426 27.8906 24.8919 27.8813 24.934 27.8625C24.9903 27.825 25.0044 27.7594 24.9692 27.7312C24.927 27.7031 24.8286 27.75 24.7794 27.7312C24.7161 27.6937 24.688 27.6375 24.695 27.5719C24.695 27.4781 24.7512 27.4406 24.8145 27.4125C24.8848 27.3844 24.9551 27.3937 25.0044 27.5062L24.92 27.5437C24.8919 27.4781 24.8497 27.4875 24.8215 27.5062C24.7934 27.525 24.7512 27.5531 24.7794 27.6C24.7934 27.6469 24.8989 27.6188 24.9551 27.6188C25.0114 27.6188 25.0536 27.675 25.0606 27.7406C25.0747 27.8437 25.0465 27.9 24.9551 27.9469C24.8497 28.0031 24.7512 27.9469 24.7372 27.8438ZM25.1169 27.375L25.0044 27.45L24.9762 27.3562L25.2856 27.1875L25.3137 27.2625L25.2012 27.3375L25.3278 27.75L25.2575 27.8063L25.1169 27.375ZM25.2997 27.1687L25.37 27.1125L25.5669 27.6L25.4965 27.6562L25.2997 27.1687ZM25.7778 27.2063L25.8622 27.1687C25.873 27.2042 25.8769 27.2428 25.8734 27.2808C25.87 27.3189 25.8593 27.3551 25.8424 27.3861C25.8255 27.4171 25.8029 27.4418 25.7769 27.4579C25.7508 27.474 25.7221 27.481 25.6934 27.4781C25.4825 27.4781 25.4544 27.1594 25.4895 27.0563C25.5458 26.8781 25.7005 26.8875 25.7708 26.9812L25.7005 27.0563C25.6583 26.9813 25.5598 27.0281 25.5598 27.0938C25.5505 27.1485 25.5551 27.2059 25.5729 27.2569C25.5907 27.3078 25.6208 27.3493 25.6583 27.375C25.7286 27.4125 25.827 27.3 25.7778 27.2063ZM25.7356 26.8125L25.8059 26.7375L26.059 27.1875L25.9887 27.2625L25.7356 26.8125ZM26.0028 26.5312L25.9325 26.6062L26.0872 27.1687L26.1575 27.075L26.1153 26.9625L26.2419 26.8125L26.3262 26.8688L26.3965 26.7937L26.0028 26.5312ZM26.0309 26.6625L26.1715 26.7562L26.0872 26.8688L26.0309 26.6625Z" fill="black"/>
</g>
<defs>
<clipPath id="clip0_45_15550">
<rect width="45" height="45" fill="white"/>
</clipPath>
</defs>
</svg>
