<svg width="45" height="45" viewBox="0 0 45 45" fill="none" xmlns="http://www.w3.org/2000/svg">
<g clip-path="url(#clip0_45_16001)">
<path fill-rule="evenodd" clip-rule="evenodd" d="M0 0H45V45H0V0Z" fill="#BE0027"/>
<path fill-rule="evenodd" clip-rule="evenodd" d="M1.80078 2.55957H43.25V42.7221H1.80078V2.55957Z" fill="#3B5AA3"/>
<path fill-rule="evenodd" clip-rule="evenodd" d="M22.106 38.7376C22.198 38.7962 22.2985 38.8273 22.4005 38.829C22.5025 38.8306 22.6035 38.8026 22.6966 38.7469C32.3856 31.8751 32.3856 13.0313 22.7036 6.25319C22.6072 6.19466 22.5021 6.16595 22.3961 6.16919C22.2902 6.17244 22.1862 6.20756 22.0919 6.27194C12.6489 13.1532 12.6208 31.7813 22.0989 38.7376H22.106Z" fill="#CBE0E5"/>
<path fill-rule="evenodd" clip-rule="evenodd" d="M22.105 39.0843C22.2456 39.2437 22.555 39.2249 22.6956 39.0843C29.8323 31.9593 29.8675 27.5249 29.5581 27.5249H15.4253C15.2143 27.5249 15.5518 32.0437 22.105 39.0843Z" fill="#ADD2D9"/>
<path fill-rule="evenodd" clip-rule="evenodd" d="M16.5461 31.0498C17.1925 30.7797 17.8908 30.8365 18.5078 31.2092C19.0422 31.5842 19.3516 31.5842 19.9281 31.5842C20.5328 31.603 21.0039 32.1936 21.6578 32.2217C22.8602 32.2592 23.3664 33.0561 22.4313 33.0655C21.9953 33.0655 21.0461 32.6623 20.5891 32.7467C19.6328 32.878 19.0281 33.1592 18.1281 34.4998L19.1688 35.4373C20.0688 34.9592 20.2164 34.4061 20.7156 34.3873C21.2781 34.3592 21.468 33.8998 22.1219 33.8998C22.9026 33.9868 23.6886 33.8851 24.4422 33.5998C25.4828 33.2811 24.9906 32.3061 24.3578 31.9592C23.8445 31.6686 22.8953 31.9498 22.3047 31.6592C21.8547 31.4248 22.2203 31.0498 22.4664 30.9748C22.7055 30.9092 22.9656 31.0217 23.268 31.0873C23.8094 31.1436 24.4914 31.078 24.9625 30.9748C25.9469 30.778 25.9047 30.3936 26.3688 30.3842C26.7203 30.3561 26.9805 30.2248 27.2125 29.9998C27.4938 29.7467 27.782 29.2498 28.1195 29.2686L29.0125 29.3155L27.7469 33.103L24.182 37.9498L22.3328 38.8873L18.2687 35.353L16.2227 31.1623L16.5531 31.0498H16.5461Z" fill="#FDF9A1"/>
<path fill-rule="evenodd" clip-rule="evenodd" d="M21.2219 27.375L29.3781 27.3188L29.5187 26.3531C29.5187 26.3531 29.2305 26.2969 28.9914 26.2781C28.7031 26.25 28.1969 26.6906 27.8664 26.6813C27.6203 26.6813 27.3531 26.1188 27.1141 26.1188C26.6922 26.1188 26.6641 26.6156 26.2703 26.6344C25.9539 26.6156 25.8203 26.2969 25.4055 26.3344C24.9836 26.3625 25.0117 26.6813 24.4703 26.6625C23.7531 26.6344 23.4648 25.8094 22.8883 25.8C21.932 25.7813 21.9039 27.0188 21.2148 27.3656L21.2219 27.375Z" fill="#179A3B"/>
<path fill-rule="evenodd" clip-rule="evenodd" d="M21.2203 27.5999L29.6156 27.5437V27.2437L21.0234 27.2999L21.2133 27.5999H21.2203Z" fill="#FDF9A1"/>
<path fill-rule="evenodd" clip-rule="evenodd" d="M24.6656 30.9655C24.7992 31.6218 24.9328 31.8468 25.4531 32.0249C25.9664 32.1843 26.7539 31.5187 26.2688 30.8718C25.8047 30.2718 25.3125 30.1218 24.8977 29.578C24.0188 28.4249 22.6969 25.5937 22.6969 23.5968C22.6969 21.8812 22.5703 18.3655 22.5703 15.0374C22.5703 14.8218 22.0781 15.6374 22.0781 15.8624C22.1063 18.7968 22.1063 21.0187 22.1906 23.9812C22.3313 26.1468 23.1047 27.6093 23.7867 28.9218C24.0891 29.5593 24.532 30.2343 24.6656 30.9655Z" fill="#A79270"/>
<path d="M19.3715 21.784C19.3528 21.7077 19.3281 21.6393 19.2975 21.5789C19.2675 21.5177 19.2315 21.4655 19.1896 21.4225C19.1482 21.3794 19.1011 21.3465 19.0484 21.3238C18.9957 21.3012 18.9379 21.2898 18.875 21.2898C18.7719 21.2898 18.6781 21.3253 18.5936 21.3964C18.5092 21.4674 18.442 21.5721 18.3921 21.7104C18.3423 21.8487 18.3173 22.0183 18.3173 22.2193C18.3173 22.4203 18.3425 22.59 18.393 22.7283C18.4434 22.8666 18.5117 22.9712 18.5979 23.0423C18.684 23.1133 18.7809 23.1488 18.8886 23.1488C18.9884 23.1488 19.0762 23.1205 19.1522 23.0638C19.2287 23.0064 19.2882 22.9255 19.3307 22.8212C19.3738 22.7162 19.3953 22.5926 19.3953 22.4506L19.4599 22.4687H18.9362V22.2193H19.5993V22.4687C19.5993 22.6599 19.5687 22.8261 19.5075 22.9674C19.4469 23.1088 19.363 23.2183 19.2559 23.2962C19.1493 23.3732 19.0269 23.4118 18.8886 23.4118C18.7345 23.4118 18.599 23.3634 18.4822 23.2667C18.3661 23.17 18.2754 23.0324 18.2102 22.8541C18.1456 22.6758 18.1133 22.4642 18.1133 22.2193C18.1133 22.0357 18.1317 21.8706 18.1685 21.724C18.2059 21.5766 18.2587 21.4512 18.3267 21.3476C18.3947 21.2441 18.4752 21.1648 18.5681 21.1096C18.6611 21.0544 18.7634 21.0269 18.875 21.0269C18.9668 21.0269 19.0524 21.0454 19.1318 21.0824C19.2117 21.1187 19.2828 21.1704 19.3451 21.2377C19.408 21.3042 19.4605 21.3839 19.5024 21.4769C19.5444 21.5691 19.5733 21.6715 19.5891 21.784H19.3715Z" fill="#BD0728"/>
<path fill-rule="evenodd" clip-rule="evenodd" d="M18.8756 21.1267C18.7734 21.1267 18.6816 21.1519 18.5991 21.2009C18.5162 21.2501 18.4445 21.3207 18.3835 21.4135C18.3228 21.5059 18.2747 21.6195 18.24 21.756C18.2062 21.8906 18.1887 22.0447 18.1887 22.2195C18.1887 22.4527 18.2194 22.6487 18.2781 22.8107C18.3377 22.9736 18.4192 23.0962 18.5224 23.1822C18.6259 23.2679 18.7473 23.3122 18.8892 23.3122C19.0168 23.3122 19.1266 23.2767 19.2207 23.2087C19.3156 23.1397 19.3894 23.0433 19.4432 22.918L19.4433 22.9177C19.4969 22.794 19.5251 22.6455 19.5251 22.4688V22.3192H19.0116V22.3691H19.3211V22.3278L19.4759 22.3712L19.4697 22.4507H19.4707C19.4707 22.6063 19.4471 22.7469 19.397 22.8691C19.3479 22.9896 19.2784 23.0841 19.1894 23.1509L19.1893 23.151C19.1006 23.2171 18.9999 23.2487 18.8892 23.2487C18.7685 23.2487 18.6578 23.2086 18.5591 23.1272C18.4593 23.0449 18.3821 22.9249 18.3263 22.772C18.2696 22.6166 18.2431 22.4311 18.2431 22.2195C18.2431 22.0079 18.2693 21.8226 18.3253 21.6673C18.3803 21.5147 18.4562 21.3946 18.5543 21.3122C18.6511 21.2307 18.7588 21.1902 18.8756 21.1902C18.9453 21.1902 19.0109 21.2028 19.072 21.229C19.1325 21.2551 19.1874 21.2932 19.236 21.3438C19.2846 21.3937 19.3261 21.4539 19.3604 21.5238C19.3854 21.5733 19.4067 21.6269 19.4243 21.6844H19.4932C19.4791 21.629 19.4611 21.5771 19.439 21.5287L19.4389 21.5284C19.4015 21.4456 19.355 21.375 19.2993 21.316L19.2987 21.3154C19.2435 21.2559 19.1803 21.2097 19.1082 21.177L19.1076 21.1767C19.0369 21.1437 18.9598 21.1267 18.8756 21.1267ZM19.3151 22.5686H18.862V22.1197H19.6747V22.4688C19.6747 22.6744 19.6417 22.8584 19.573 23.0173C19.5055 23.1745 19.4115 23.2972 19.2923 23.3839L19.2921 23.384C19.1732 23.47 19.0382 23.5117 18.8892 23.5117C18.7228 23.5117 18.5734 23.4593 18.4434 23.3516L18.4432 23.3514C18.3141 23.244 18.2143 23.0916 18.1435 22.8979L18.1434 22.8976C18.0729 22.7029 18.0391 22.4759 18.0391 22.2195C18.0391 22.027 18.0584 21.851 18.0982 21.6924L18.0983 21.6921C18.1384 21.534 18.1957 21.3967 18.271 21.2821C18.346 21.1678 18.4353 21.0797 18.5383 21.0186C18.6417 20.9572 18.7545 20.9272 18.8756 20.9272C18.9749 20.9272 19.0689 20.9473 19.1568 20.9882C19.2443 21.028 19.3231 21.0852 19.3925 21.16C19.4624 21.2339 19.5206 21.3226 19.567 21.4254C19.6139 21.5285 19.6458 21.6422 19.6632 21.7658L19.6799 21.8839H19.3178L19.301 21.8152C19.2842 21.7468 19.2625 21.6869 19.2361 21.6348L19.2358 21.6342L19.2355 21.6336C19.2099 21.5814 19.1796 21.5376 19.1445 21.5016L19.1441 21.5012C19.11 21.4657 19.0709 21.4382 19.0261 21.4189C18.9817 21.3998 18.9318 21.3897 18.8756 21.3897C18.7861 21.3897 18.7062 21.4203 18.6341 21.4809C18.5633 21.5405 18.5049 21.6297 18.4601 21.7537C18.4164 21.875 18.3927 22.029 18.3927 22.2195C18.3927 22.4098 18.4166 22.5636 18.4608 22.6848C18.506 22.8085 18.5653 22.8978 18.6378 22.9576C18.7114 23.0182 18.7945 23.0492 18.8892 23.0492C18.978 23.0492 19.0529 23.0241 19.1161 22.977C19.1802 22.9289 19.2297 22.8617 19.2655 22.7737L19.2656 22.7735C19.29 22.7141 19.3068 22.6461 19.3151 22.5686Z" fill="white"/>
<path d="M21.4746 21.0713H21.6855V22.6083C21.6855 22.767 21.6574 22.9087 21.6013 23.0334C21.5458 23.1573 21.4673 23.2552 21.3658 23.327C21.2644 23.398 21.1453 23.4336 21.0087 23.4336C20.8722 23.4336 20.7531 23.398 20.6517 23.327C20.5502 23.2552 20.4715 23.1573 20.4153 23.0334C20.3598 22.9087 20.332 22.767 20.332 22.6083V21.0713H20.5429V22.5857C20.5429 22.699 20.5616 22.7999 20.599 22.8883C20.6364 22.976 20.6897 23.0451 20.7588 23.0958C20.8285 23.1456 20.9118 23.1706 21.0087 23.1706C21.1057 23.1706 21.189 23.1456 21.2587 23.0958C21.3284 23.0451 21.3817 22.976 21.4185 22.8883C21.4559 22.7999 21.4746 22.699 21.4746 22.5857V21.0713Z" fill="#BD0728"/>
<path fill-rule="evenodd" clip-rule="evenodd" d="M20.2578 20.9712H20.6183V22.5853C20.6183 22.6835 20.6343 22.7671 20.6647 22.8388C20.6949 22.9095 20.7377 22.9657 20.7951 23.0077C20.8517 23.0481 20.9222 23.0705 21.0093 23.0705C21.0966 23.0705 21.1671 23.0481 21.2237 23.0077C21.2816 22.9655 21.3243 22.9095 21.3538 22.8392L21.3539 22.839C21.3843 22.7672 21.4004 22.6836 21.4004 22.5853V20.9712H21.7609V22.608C21.7609 22.783 21.7298 22.9427 21.6661 23.0843C21.6031 23.2248 21.5142 23.335 21.4015 23.4148L21.4012 23.415C21.2871 23.4948 21.1557 23.533 21.0093 23.533C20.8629 23.533 20.7316 23.4948 20.6175 23.415L20.6172 23.4148C20.5045 23.335 20.4154 23.2249 20.3519 23.0846L20.3516 23.084C20.2886 22.9425 20.2578 22.7829 20.2578 22.608V20.9712ZM20.4074 21.1707V22.608C20.4074 22.7504 20.4322 22.8741 20.4801 22.9818C20.5288 23.0892 20.5972 23.1747 20.6872 23.2384C20.776 23.3006 20.8826 23.3335 21.0093 23.3335C21.1361 23.3335 21.2427 23.3006 21.3315 23.2384C21.4216 23.1747 21.4896 23.0892 21.5377 22.9819L21.5377 22.9817C21.5862 22.874 21.6112 22.7503 21.6112 22.608V21.1707H21.55V22.5853C21.55 22.7138 21.5287 22.8318 21.4843 22.9369C21.4402 23.0417 21.3764 23.1239 21.2951 23.183L21.2947 23.1833C21.2119 23.2425 21.1159 23.27 21.0093 23.27C20.9028 23.27 20.8068 23.2425 20.724 23.1833L20.7234 23.1829C20.6427 23.1237 20.5791 23.0417 20.5345 22.9373L20.5344 22.937C20.49 22.8319 20.4686 22.7138 20.4686 22.5853V21.1707H20.4074Z" fill="white"/>
<path d="M23.0121 23.3927H22.791L23.4303 21.0713H23.648L24.2873 23.3927H24.0662L23.5459 21.4386H23.5323L23.0121 23.3927ZM23.0937 22.4859H23.9846V22.7353H23.0937V22.4859Z" fill="#BD0728"/>
<path fill-rule="evenodd" clip-rule="evenodd" d="M23.3798 20.9712H23.7019L24.3961 23.4921H24.0151L23.8401 22.8347H23.2416L23.0666 23.4921H22.6855L23.3798 20.9712ZM23.2947 22.6352H23.7869L23.7737 22.5853H23.308L23.2947 22.6352ZM23.3611 22.3858H23.7206L23.5408 21.7108L23.3611 22.3858ZM23.8793 22.3858L23.6005 21.3385H23.4812L23.2024 22.3858H23.1496L23.4842 21.1707H23.5974L23.9321 22.3858H23.8793ZM23.9988 22.8347L24.1208 23.2926H24.1818L24.0557 22.8347H23.9988ZM23.026 22.8347H23.0828L22.9609 23.2926H22.8999L23.026 22.8347Z" fill="white"/>
<path d="M25.1406 21.0586H25.3923L25.984 22.9856H26.0044L26.5961 21.0586H26.8477V23.38H26.6505V21.6163H26.6335L26.0894 23.38H25.899L25.3549 21.6163H25.3379V23.38H25.1406V21.0586Z" fill="#BD0728"/>
<path fill-rule="evenodd" clip-rule="evenodd" d="M25.0645 20.959H25.4411L25.9928 22.7557L26.5445 20.959H26.9212V23.4799H26.5743V22.0661L26.1381 23.4799H25.8475L25.4113 22.0661V23.4799H25.0645V20.959ZM25.2141 21.1585V23.2804H25.2617V21.5167H25.4036L25.9477 23.2804H26.0379L26.582 21.5167H26.7239V23.2804H26.7715V21.1585H26.6449L26.0532 23.0855H25.9324L25.3407 21.1585H25.2141Z" fill="white"/>
<path fill-rule="evenodd" clip-rule="evenodd" d="M18.2536 15.0844C18.1481 15.3656 18.5067 15 18.5911 14.9625C19.0622 14.7375 19.245 13.95 20.0536 14.4281C20.6864 14.7938 21.5372 14.5781 21.0942 14.9531C20.5458 15.3938 19.4419 15.8813 19.4208 18.0656C19.5122 18.2719 19.5192 18.2438 19.5966 18.0094C19.7653 17.5031 20.5599 16.125 20.9536 16.2375C21.1153 16.2938 21.5794 15.6094 21.5864 15.8063C21.6356 16.35 20.9536 17.4563 20.9677 18.9281C20.9677 19.275 21.2841 19.3875 21.4317 19.1438C21.5864 18.9281 21.6708 18.7125 21.938 18.4313C22.4021 17.925 22.2755 15.75 22.3317 15.8531C22.6622 16.4156 22.7114 18.0375 23.2036 18.6938C23.6185 19.2469 23.9489 18.975 23.8575 18.225C23.6817 16.6875 23.1403 17.1281 22.8802 15.5438C22.8239 15.2344 22.8099 14.9625 23.1192 15.0844C23.4919 15.2344 23.7169 15.4594 23.9911 16.0219C24.2724 16.5656 24.7927 17.0813 25.095 17.3906C25.6224 17.9344 25.8122 17.4656 25.5591 16.7719C25.2376 15.984 24.7131 15.3779 24.0825 15.0656C23.6466 14.8594 23.4919 14.8406 23.1122 14.7469C23.0067 14.7188 22.9013 14.4281 23.0841 14.2688C23.4908 13.8778 23.9647 13.6295 24.4622 13.5469C24.9333 13.5281 25.306 14.0344 25.6364 14.1656C26.2974 14.3906 26.2974 13.8375 26.0021 13.4156C25.763 13.0688 25.2567 12.4781 24.7856 12.5625C23.8364 12.7219 23.8997 12.6844 23.3091 13.2C23.0981 13.3688 22.8591 13.5563 22.9505 13.35C23.1614 12.8344 22.9646 12.9281 23.295 12.4031C23.5481 12.0281 23.738 11.7469 23.9981 11.6531C24.2372 11.5688 24.5606 11.2313 24.6521 11.0531C24.8911 10.6219 24.6872 10.3688 24.3216 10.5188C23.9981 10.6313 23.8294 10.9125 23.6185 10.9875C23.0981 11.2125 22.6833 12.7688 22.62 12.9938C22.5427 13.2563 22.4513 13.125 22.4653 12.9C22.5356 11.8031 22.606 9.94688 22.3247 9.1875C21.8747 8.0625 21.9169 8.5875 21.7481 9.12188C21.495 9.96563 21.5864 10.7625 21.7481 11.5875C21.8185 12 22.0716 12.4688 22.1208 12.7969C22.156 13.05 22.0083 12.7219 21.9239 12.5625C21.6497 12 21.4458 11.625 20.9958 11.3156C20.5463 11.0691 20.0525 11.0039 19.5755 11.1281C19.4489 11.1844 19.7161 11.4281 19.8216 11.5406C20.1239 11.8594 20.6935 11.9625 21.0872 12.2813C21.4106 12.5531 21.6638 12.7219 21.7763 13.0969C21.8185 13.3781 21.8888 13.7906 21.7481 13.7813C21.3896 13.7531 20.8341 13.3313 19.681 13.5C19.0903 13.6125 18.5841 14.2781 18.2536 15.0844Z" fill="#239E46"/>
<path fill-rule="evenodd" clip-rule="evenodd" d="M20.7617 29.1187H21.0922V29.8593H20.7617V29.1187Z" fill="black"/>
<path fill-rule="evenodd" clip-rule="evenodd" d="M19.1039 24.1782C20.4258 26.6157 22.5492 28.0407 22.5914 29.147H18.457C19.4062 27.6282 19.9898 26.597 19.1039 24.1782Z" fill="#FDF9FF"/>
<path fill-rule="evenodd" clip-rule="evenodd" d="M17.902 29.2029C19.702 29.7373 21.8466 30.0373 23.2177 29.1279C23.2317 29.6623 22.7747 30.4404 22.395 30.4404H18.9497C19.3505 30.3561 19.5825 30.1967 20.2294 30.1592L18.4013 30.1779C18.1903 30.1873 17.8388 29.4654 17.902 29.2029Z" fill="#A68861"/>
<path fill-rule="evenodd" clip-rule="evenodd" d="M21.9799 39.8436C22.1627 39.9842 22.451 39.9749 22.6127 39.8624C33.0049 32.4842 33.0119 12.2624 22.6268 4.98736C22.5228 4.92318 22.4092 4.89151 22.2947 4.89476C22.1801 4.89801 22.0676 4.93609 21.9658 5.00611C11.8408 12.3936 11.8127 32.3811 21.9799 39.853V39.8436ZM22.0291 38.1842C22.1164 38.2415 22.2122 38.2721 22.3096 38.2737C22.4069 38.2753 22.5032 38.248 22.5916 38.1936C31.2822 31.3686 31.3877 13.3405 22.5986 6.88111C22.4299 6.71236 22.1838 6.76861 22.015 6.88111C13.69 13.453 13.226 30.7405 22.0291 38.1842Z" fill="#BE0027"/>
<path d="M18.8984 21.1313C19.0578 21.1313 19.1984 21.1751 19.3203 21.2626C19.4844 21.3751 19.5852 21.5813 19.6227 21.8813H19.4047C19.3766 21.7188 19.3156 21.5938 19.2219 21.5063C19.1375 21.4313 19.0273 21.3938 18.8914 21.3938C18.7367 21.3938 18.6031 21.4782 18.4906 21.647C18.3828 21.8032 18.3289 22.0407 18.3289 22.3595C18.3289 22.622 18.3734 22.8407 18.4625 23.0157C18.5563 23.1845 18.7039 23.2688 18.9055 23.2688C19.0602 23.2688 19.1867 23.2095 19.2852 23.0907C19.393 22.972 19.4469 22.7782 19.4469 22.5095H18.9125V22.2563H19.6578V23.4751H19.5102L19.4539 23.1751C19.3789 23.2938 19.3086 23.3782 19.243 23.4282C19.1398 23.5032 19.0109 23.5407 18.8563 23.5407C18.6547 23.5407 18.4789 23.4532 18.3289 23.2782C18.1695 23.0532 18.0898 22.7501 18.0898 22.3688C18.0898 21.9876 18.1672 21.6845 18.3219 21.4595C18.4719 21.2407 18.6641 21.1313 18.8984 21.1313Z" fill="#BD0728"/>
<path d="M20.5594 21.1969V22.6219C20.5594 22.7844 20.5828 22.9188 20.6297 23.025C20.6953 23.1938 20.8125 23.2781 20.9812 23.2781C21.1734 23.2781 21.307 23.1906 21.382 23.0156C21.4195 22.9156 21.4383 22.7844 21.4383 22.6219V21.1875H21.6773V22.4813C21.6773 22.7563 21.6445 22.975 21.5789 23.1375C21.4805 23.4063 21.2883 23.5406 21.0023 23.5406C20.707 23.5406 20.5078 23.4031 20.4047 23.1281C20.3484 22.9719 20.3203 22.7563 20.3203 22.4813V21.1875L20.5594 21.1969Z" fill="#BD0728"/>
<path d="M23.7922 22.5469L23.532 21.5438L23.2508 22.5469H23.7922ZM23.4125 21.1875H23.6727L24.3055 23.4844H24.0383L23.8695 22.8H23.1875L22.9977 23.4844H22.7656L23.4125 21.1875Z" fill="#BD0728"/>
<path d="M25.1016 21.1875H25.4461L25.9312 23.1281L26.4234 21.1875H26.7539V23.475H26.5289V21.5438L26.0367 23.475H25.8188L25.3266 21.5438V23.475H25.1016V21.1875Z" fill="#BD0728"/>
</g>
<defs>
<clipPath id="clip0_45_16001">
<rect width="45" height="45" fill="white"/>
</clipPath>
</defs>
</svg>
