<svg width="45" height="45" viewBox="0 0 45 45" fill="none" xmlns="http://www.w3.org/2000/svg">
<g clip-path="url(#clip0_45_16340)">
<path fill-rule="evenodd" clip-rule="evenodd" d="M46.7101 45.12H-1.63086V0H46.7101V45.12Z" fill="white"/>
<path fill-rule="evenodd" clip-rule="evenodd" d="M46.7101 10.152H-1.63086V4.22998H46.7101V10.152ZM46.7101 41.0398H-1.63086V35.1178H46.7101V41.0398ZM14.7868 16.8054L22.0638 33.6902L29.4993 16.8847L14.7868 16.8142V16.8054Z" fill="#0038B8"/>
<path fill-rule="evenodd" clip-rule="evenodd" d="M20.6961 28.0063L22.0774 31.1348L23.4918 28.024L20.6895 28.0063H20.6961Z" fill="white"/>
<path fill-rule="evenodd" clip-rule="evenodd" d="M14.7617 28.2529L22.0452 11.3682L29.4742 28.1824L14.7617 28.2529Z" fill="#0038B8"/>
<path fill-rule="evenodd" clip-rule="evenodd" d="M20.6963 16.8848L22.0777 13.7563L23.4921 16.876L20.6897 16.8848H20.6963ZM17.8014 23.8907L16.3672 27.0632L19.077 27.0544L17.8014 23.8819V23.8907ZM16.3936 18.0304L19.1167 18.0568L17.808 21.2558L16.3936 18.0304ZM26.387 23.9348L27.7684 27.0632L25.0122 27.0192L26.387 23.9348ZM27.7419 18.0304L25.0189 18.0568L26.3275 21.2558L27.7419 18.0304ZM20.1874 18.0304L18.3103 22.56L20.2138 26.9927L23.7036 27.0985L25.8186 22.56L23.8622 17.9775L20.1874 18.0216V18.0304Z" fill="white"/>
</g>
<defs>
<clipPath id="clip0_45_16340">
<rect width="45" height="45" fill="white"/>
</clipPath>
</defs>
</svg>
