<svg width="45" height="45" viewBox="0 0 45 45" fill="none" xmlns="http://www.w3.org/2000/svg">
<g clip-path="url(#clip0_45_16386)">
<path d="M0 0H45V15H0V0Z" fill="#FF9933"/>
<path d="M0 15H45V30H0V15Z" fill="white"/>
<path d="M0 30H45V45H0V30Z" fill="#128807"/>
<path d="M22.5 28.5C24.9853 28.5 27 25.8137 27 22.5C27 19.1863 24.9853 16.5 22.5 16.5C20.0147 16.5 18 19.1863 18 22.5C18 25.8137 20.0147 28.5 22.5 28.5Z" fill="#000088"/>
<path d="M22.5 27.75C24.6746 27.75 26.4375 25.3995 26.4375 22.5C26.4375 19.6005 24.6746 17.25 22.5 17.25C20.3254 17.25 18.5625 19.6005 18.5625 22.5C18.5625 25.3995 20.3254 27.75 22.5 27.75Z" fill="white"/>
<path d="M22.4984 23.5502C22.9334 23.5502 23.2859 23.0801 23.2859 22.5002C23.2859 21.9203 22.9334 21.4502 22.4984 21.4502C22.0635 21.4502 21.7109 21.9203 21.7109 22.5002C21.7109 23.0801 22.0635 23.5502 22.4984 23.5502Z" fill="#000088"/>
<path d="M26.3784 23.4549C26.4893 23.4744 26.591 23.3703 26.6056 23.2225C26.6202 23.0746 26.5421 22.939 26.4312 22.9195C26.3204 22.9001 26.2186 23.0041 26.204 23.152C26.1894 23.2998 26.2675 23.4354 26.3784 23.4549Z" fill="#000088"/>
<path d="M22.5002 27.7501L22.6352 24.6001L22.5002 23.1001L22.3652 24.6001L22.5002 27.7501Z" fill="#000088"/>
</g>
<defs>
<clipPath id="clip0_45_16386">
<rect width="45" height="45" fill="white"/>
</clipPath>
</defs>
</svg>
