<svg width="45" height="45" viewBox="0 0 45 45" fill="none" xmlns="http://www.w3.org/2000/svg">
<g clip-path="url(#clip0_45_16589)">
<path d="M0 15H45V30H0V15Z" fill="white"/>
<path d="M0 0H45V15H0V0Z" fill="#CE1126"/>
<path d="M0 30H45V45H0V30Z" fill="black"/>
<path d="M27.4871 19.7452C27.4229 19.7041 27.3646 19.6485 27.3146 19.5809C27.2777 19.4988 27.3023 19.4988 27.4624 19.5481C27.7457 19.663 27.9305 19.6138 28.1153 19.4167L28.2754 19.236L28.4602 19.351C28.571 19.4331 28.6819 19.4824 28.7065 19.466C28.7927 19.4331 28.9652 19.1375 28.9529 19.039C28.9529 18.924 29.0268 18.9568 29.076 19.0882C29.1499 19.351 29.0391 19.663 28.8297 19.7287C28.7435 19.7616 28.6572 19.7452 28.5094 19.6795C28.337 19.5973 28.3 19.5973 28.2138 19.6795C28.1106 19.7835 27.9869 19.8451 27.8578 19.8567C27.7287 19.8684 27.5999 19.8296 27.4871 19.7452ZM28.2015 18.8747C28.1181 18.6739 28.0756 18.4474 28.0783 18.2178C28.0906 18.1192 28.1153 18.0864 28.1769 18.1193C28.3 18.1685 28.3247 18.2835 28.3 18.612C28.3 18.9076 28.2631 18.9897 28.2015 18.8747ZM19.8749 18.5627C19.8626 18.7762 20.1705 19.3182 20.306 19.4167C20.2074 19.466 20.0966 19.4495 20.0104 19.4988C19.5177 20.1557 17.7439 22.455 17.4237 23.0134C18.3845 23.0462 19.4438 22.997 20.3429 22.9477C20.3429 22.0773 20.9588 22.028 21.3776 21.716C21.587 22.1594 22.1166 22.1265 22.1906 22.7999V25.6904H13.9994C13.9684 25.9096 13.9033 26.1176 13.8082 26.3011C13.7131 26.4846 13.5901 26.6394 13.4473 26.7555C13.3045 26.8716 13.145 26.9464 12.9791 26.9751C12.8132 27.0038 12.6447 26.9858 12.4844 26.9221C12.7307 26.5937 13.1495 26.4623 13.2973 25.986C13.4205 24.9349 13.051 24.2944 12.8046 23.6868C13.1145 23.5543 13.4058 23.3545 13.6669 23.0955C13.3836 24.2451 14.4305 24.1302 15.1942 24.0973C15.2189 23.7032 15.2065 23.2433 14.9848 23.1776C15.2681 23.0298 15.3174 22.9806 15.7978 22.455V24.0316L21.4761 24.0152C21.4761 23.5225 21.5747 22.7178 21.2791 22.7178C21.0081 22.7178 21.2791 23.736 21.0573 23.736H16.66V22.7506C16.8448 22.4879 16.8201 22.5043 18.0888 20.8127C18.212 20.6484 19.1112 19.5645 19.8872 18.5627H19.8749ZM30.8497 18.5134C31.1577 18.7433 31.404 19.039 31.7736 19.1703C31.7366 19.3838 31.5888 19.466 31.5518 19.6795V24.1138C31.9706 24.2287 32.0692 23.9003 32.2663 23.736C32.3155 24.4422 32.6604 25.132 32.6358 25.7068H30.8497V18.5298V18.5134ZM28.4602 20.8948C28.4602 20.8948 29.113 20.1557 29.113 20.1229V23.9824H29.581L29.5687 19.663C29.7535 19.4003 30.1353 19.039 30.2216 18.7762V25.674H26.1075C26.0459 24.2451 26.0336 22.767 27.29 23.0791V22.5043C27.253 22.4057 27.1791 22.5207 27.1668 22.3893C27.3639 22.1265 27.4255 22.0608 27.9675 21.4368L27.9798 23.9824H28.4602V20.8948ZM26.9081 23.9495C26.9944 24.1138 27.3023 24.1138 27.2777 23.8181C27.2407 23.5718 26.8466 23.6539 26.9081 23.9495Z" fill="#007A3D"/>
<path d="M14.9846 26.84C15.1207 26.84 15.231 26.693 15.231 26.5116C15.231 26.3302 15.1207 26.1831 14.9846 26.1831C14.8486 26.1831 14.7383 26.3302 14.7383 26.5116C14.7383 26.693 14.8486 26.84 14.9846 26.84Z" fill="#007A3D"/>
<path d="M22.7441 18.5298C23.0521 18.7433 23.2984 19.0553 23.6803 19.1867C23.631 19.3838 23.4955 19.4659 23.4586 19.6794V24.1137C23.8773 24.2287 23.9636 23.9166 24.1607 23.736C24.2222 24.4422 24.5548 25.1484 24.5425 25.7068H22.7441V18.5298Z" fill="#007A3D"/>
</g>
<defs>
<clipPath id="clip0_45_16589">
<rect width="45" height="45" fill="white"/>
</clipPath>
</defs>
</svg>
