<svg width="45" height="45" viewBox="0 0 45 45" fill="none" xmlns="http://www.w3.org/2000/svg">
<g clip-path="url(#clip0_45_16852)">
<path d="M0 0H45V45H0V0Z" fill="white"/>
<path d="M0 0H45V13.5H0V0Z" fill="black"/>
<path d="M0 31.5H45V45H0V31.5Z" fill="#006600"/>
<path d="M16.4668 35.8594L16.8465 36.1406L26.6973 13.3594C27.2668 13.1906 27.5832 12.4594 27.8996 11.7281C28.1105 11.2219 28.9543 9.28125 29.3129 6.75C28.3122 7.93572 27.4642 9.33241 26.8027 10.8844C26.4863 11.6156 26.1699 12.3469 26.3176 13.1062L16.4668 35.8594Z" fill="black"/>
<path fill-rule="evenodd" clip-rule="evenodd" d="M29.4743 6.37109L29.4169 6.77609C29.0699 9.22597 28.273 11.1266 28.0216 11.7262C28.0108 11.752 28.0009 11.7755 27.9922 11.7964L27.9918 11.7974L27.9886 11.8049C27.8324 12.1659 27.6701 12.5409 27.4738 12.8462C27.2848 13.1403 27.0585 13.3789 26.7665 13.4818L16.8864 36.3308L16.3223 35.9129L26.2056 13.0846C26.1395 12.6886 26.1875 12.3048 26.2874 11.9369C26.3907 11.5561 26.5528 11.1815 26.7092 10.8201L26.7114 10.8149C26.7115 10.8148 26.7116 10.8146 26.7116 10.8145C27.3787 9.2493 28.234 7.84072 29.2432 6.64488L29.4743 6.37109ZM29.1446 7.14565C28.2559 8.25655 27.4973 9.54023 26.8948 10.9538L26.8945 10.9546C26.7353 11.3227 26.5822 11.6773 26.4857 12.0326C26.39 12.3854 26.3533 12.7277 26.4201 13.071L26.4309 13.1267L16.6122 35.8059L16.8074 35.9505L26.6295 13.2355L26.6748 13.2221C26.9299 13.1465 27.1329 12.9444 27.3137 12.6632C27.4958 12.3799 27.649 12.0267 27.8082 11.6589C27.8168 11.6384 27.8263 11.6155 27.8368 11.5905C28.0715 11.0306 28.7782 9.34492 29.1446 7.14565Z" fill="black"/>
<path d="M16.4668 35.8594L16.8465 36.1406L26.6973 13.3594C27.2668 13.1906 27.5832 12.4594 27.8996 11.7281C28.1105 11.2219 28.9543 9.28125 29.3129 6.75C28.3122 7.93572 27.4642 9.33241 26.8027 10.8844C26.4863 11.6156 26.1699 12.3469 26.3176 13.1062L16.4668 35.8594Z" fill="white"/>
<path d="M45.0336 15.75H26.5063C25.8734 13.5 23.7641 9 22.4984 9C21.2328 9 19.1234 13.5 18.4906 15.75H-0.015625V29.25H18.4906C19.1234 31.5 21.2328 36 22.4984 36C23.7641 36 25.8734 31.5 26.5063 29.25H45.0336V15.75Z" fill="#BB0000"/>
<path d="M26.5078 29.25C27.1406 27 27.5625 24.75 27.5625 22.5C27.5625 20.25 27.1406 18 26.5078 15.75C25.875 18 25.4531 20.25 25.4531 22.5C25.4531 24.75 25.875 27 26.5078 29.25Z" fill="black"/>
<path d="M22.5 24.1875C22.966 24.1875 23.3438 23.432 23.3438 22.5C23.3438 21.568 22.966 20.8125 22.5 20.8125C22.034 20.8125 21.6562 21.568 21.6562 22.5C21.6562 23.432 22.034 24.1875 22.5 24.1875Z" fill="white"/>
<path d="M22.7109 24.1313C22.7109 24.1313 23.5547 26.3813 23.5547 30.0376C23.5547 33.6938 22.7109 35.9438 22.7109 35.9438V24.1313Z" fill="white"/>
</g>
<defs>
<clipPath id="clip0_45_16852">
<rect width="45" height="45" fill="white"/>
</clipPath>
</defs>
</svg>
