<svg width="45" height="45" viewBox="0 0 45 45" fill="none" xmlns="http://www.w3.org/2000/svg">
<g clip-path="url(#clip0_45_17024)">
<path fill-rule="evenodd" clip-rule="evenodd" d="M0 0H50.6777V11.25H0V0Z" fill="#FFFF00"/>
<path fill-rule="evenodd" clip-rule="evenodd" d="M0 11.25H50.6777V22.5H0V11.25Z" fill="white"/>
<path fill-rule="evenodd" clip-rule="evenodd" d="M0 22.5H50.6777V33.75H0V22.5Z" fill="#BE0027"/>
<path fill-rule="evenodd" clip-rule="evenodd" d="M0 33.75H50.6777V45H0V33.75Z" fill="#3B5AA3"/>
<path fill-rule="evenodd" clip-rule="evenodd" d="M0 0V45L25.1741 22.5615L0 0Z" fill="#239E46"/>
<path fill-rule="evenodd" clip-rule="evenodd" d="M10.3618 12.4278C4.75882 12.0498 2.19461 18.0088 2.20121 22.6143C2.18802 28.0635 6.064 32.5459 9.63675 32.2822C7.71195 31.0694 5.35208 27.6504 5.3389 22.5879C5.31913 18.0088 7.28348 14.0186 10.3684 12.4278H10.3618Z" fill="white"/>
<path fill-rule="evenodd" clip-rule="evenodd" d="M10.2827 17.3145L9.4917 16.4971L8.5293 16.9014L8.87207 15.6357L8.29199 14.5459L9.29395 14.5986L9.88721 13.5176L10.1707 14.8096L11.1199 15.2314L10.2893 15.9785L10.2827 17.3145ZM10.2629 21.8936L9.47192 21.0674L8.50952 21.4717L8.85889 20.2148L8.27222 19.125L9.28076 19.1689L9.87402 18.0967L10.1509 19.3799L11.1067 19.8105L10.2695 20.5576L10.2629 21.8936ZM10.2761 26.5166L9.48511 25.6904L8.5293 26.0947L8.87207 24.8379L8.29199 23.748L9.29395 23.792L9.88721 22.7197L10.1707 24.0029L11.1199 24.4248L10.2893 25.1807L10.2761 26.5166ZM10.2629 31.1748L9.47192 30.3574L8.50293 30.7617L8.85229 29.4961L8.26562 28.4063L9.27417 28.459L9.86743 27.3779L10.1443 28.6699L11.1001 29.0918L10.2629 29.8389V31.1748Z" fill="white"/>
</g>
<defs>
<clipPath id="clip0_45_17024">
<rect width="45" height="45" fill="white"/>
</clipPath>
</defs>
</svg>
