<svg width="45" height="45" viewBox="0 0 45 45" fill="none" xmlns="http://www.w3.org/2000/svg">
<g clip-path="url(#clip0_45_17033)">
<path fill-rule="evenodd" clip-rule="evenodd" d="M-1.82617 0.0175781H46.7949V44.9561H-1.82617V0.0175781Z" fill="#FFE900"/>
<path fill-rule="evenodd" clip-rule="evenodd" d="M-1.85156 0.0175781L-1.79883 32.4141L36.0381 0L-1.85156 0.0175781Z" fill="#35A100"/>
<path fill-rule="evenodd" clip-rule="evenodd" d="M46.8545 44.9561L46.7622 11.2764L8.5957 44.9824L46.8545 44.9561Z" fill="#C70000"/>
<path fill-rule="evenodd" clip-rule="evenodd" d="M-1.83203 34.8574L-1.79907 45L6.46045 44.9824L46.7825 8.93848L46.7429 0.123047L38.5823 0.0175781L-1.82544 34.8574H-1.83203Z" fill="black"/>
<path fill-rule="evenodd" clip-rule="evenodd" d="M30.3564 13.7637L29.7105 10.0547L31.9055 12.4277L34.4104 10.2656L33.2634 13.8955L35.4651 16.2686L32.5515 16.1367L31.4111 19.7666L30.7585 16.0576L27.8516 15.9258L30.3564 13.7637ZM12.2158 29.4961L11.5632 25.7783L13.7583 28.1514L16.2632 25.9893L15.1162 29.6191L17.3179 31.9922L14.4109 31.8604L13.2639 35.4902L12.6179 31.7813L9.71094 31.6494L12.2158 29.4961Z" fill="white"/>
</g>
<defs>
<clipPath id="clip0_45_17033">
<rect width="45" height="45" fill="white"/>
</clipPath>
</defs>
</svg>
