<svg width="45" height="45" viewBox="0 0 45 45" fill="none" xmlns="http://www.w3.org/2000/svg">
<g clip-path="url(#clip0_45_17049)">
<path fill-rule="evenodd" clip-rule="evenodd" d="M-0.00195312 0.00244141H45.0068V45.0024H-0.00195312V0.00244141Z" fill="white"/>
<path fill-rule="evenodd" clip-rule="evenodd" d="M4.92969 13.3286L9.33989 4.31066L10.5777 5.43637L6.16745 14.4543L4.92969 13.3286ZM6.78633 15.0172L11.1965 5.99923L12.4343 7.12495L8.02409 16.1429L6.78633 15.0172ZM8.64297 16.7058L13.0532 7.68781L14.2909 8.81352L9.88073 17.8315L8.64297 16.7058Z" fill="black"/>
<path fill-rule="evenodd" clip-rule="evenodd" d="M38.1139 36.9488L32.2266 31.6768L32.579 30.9672L38.4664 36.2392L38.1139 36.9488Z" fill="white"/>
<path fill-rule="evenodd" clip-rule="evenodd" d="M15.459 15.6997C16.6028 13.3693 18.4587 11.8222 20.6185 11.3987C22.7783 10.9752 25.065 11.71 26.9756 13.4415C28.8863 15.1729 30.2643 17.7592 30.8066 20.6313C31.3488 23.5035 31.0109 26.4262 29.8671 28.7565L15.459 15.6997Z" fill="#CD2E3A"/>
<path fill-rule="evenodd" clip-rule="evenodd" d="M15.128 16.0339C13.9742 18.3897 13.6332 21.3444 14.1803 24.2479C14.7274 27.1513 16.1176 29.7658 18.0451 31.5162C19.9726 33.2665 22.2795 34.0094 24.4584 33.5812C26.6373 33.1531 28.5096 31.5891 29.6635 29.2333C30.2404 28.0554 30.4109 26.5781 30.1374 25.1263C29.8638 23.6746 29.1687 22.3674 28.205 21.4922C27.2412 20.617 26.0877 20.2456 24.9983 20.4597C23.9089 20.6737 22.9727 21.4557 22.3958 22.6336L15.128 16.0339Z" fill="#0047A0"/>
<path d="M22.6294 22.7185C23.8394 20.2467 23.1817 16.7542 21.1605 14.9177C19.1393 13.0812 16.5199 13.5962 15.31 16.068C14.1 18.5397 14.7577 22.0322 16.7789 23.8687C18.8001 25.7052 21.4195 25.1902 22.6294 22.7185Z" fill="#CD2E3A"/>
<path fill-rule="evenodd" clip-rule="evenodd" d="M10.6655 33.5672L8.9082 35.1323L8.55755 34.4301L10.3148 32.865L10.6655 33.5672ZM34.6815 12.1765L32.6314 14.0026L32.2807 13.3004L34.3309 11.4744L34.6815 12.1765ZM38.1961 9.04622L36.4388 10.6114L36.0881 9.90919L37.8454 8.34403L38.1961 9.04622Z" fill="white"/>
</g>
<defs>
<clipPath id="clip0_45_17049">
<rect width="45" height="45" fill="white"/>
</clipPath>
</defs>
</svg>
