<svg width="45" height="45" viewBox="0 0 45 45" fill="none" xmlns="http://www.w3.org/2000/svg">
<g clip-path="url(#clip0_45_17214)">
<path d="M0 0H45V22.5H0V0Z" fill="#002B7F"/>
<path d="M0 22.5H45V45H0V22.5Z" fill="#CE1126"/>
<path d="M12.1711 9.17242L12.0642 13.8599H8.49797C8.05922 12.7199 7.69922 11.7599 7.69922 10.4474C7.69922 9.35242 8.34609 8.48242 9.27422 8.48242C10.2586 8.48242 11.3442 8.92492 12.1711 9.17242Z" fill="#FFD83D"/>
<path d="M8.12695 9.38988V12.0899V9.38988ZM8.4082 9.11238V12.7124V9.11238ZM8.7007 8.92488V13.2149V8.92488ZM8.98195 8.83488V12.2024V8.83488ZM9.26883 8.81988V12.2174V8.81988ZM9.5557 8.69238V12.2174V8.69238ZM9.84258 8.69238V12.2174V8.69238ZM10.1295 8.72988V12.2549V8.72988ZM10.4163 8.76738V12.2849V8.76738ZM10.7032 8.98488V12.5099V8.98488ZM10.9845 9.02238V12.9899V9.02238ZM11.277 9.02238V12.5474V9.02238ZM11.5582 9.02238V12.5474V9.02238Z" fill="#FFD83D"/>
<path fill-rule="evenodd" clip-rule="evenodd" d="M9.55492 8.63623C9.57822 8.63623 9.59711 8.66141 9.59711 8.69248V12.2175C9.59711 12.2485 9.57822 12.2737 9.55492 12.2737C9.53162 12.2737 9.51273 12.2485 9.51273 12.2175V8.69248C9.51273 8.66141 9.53162 8.63623 9.55492 8.63623ZM9.8418 8.63623C9.8651 8.63623 9.88398 8.66141 9.88398 8.69248V12.2175C9.88398 12.2485 9.8651 12.2737 9.8418 12.2737C9.8185 12.2737 9.79961 12.2485 9.79961 12.2175V8.69248C9.79961 8.66141 9.8185 8.63623 9.8418 8.63623ZM10.1287 8.67373C10.152 8.67373 10.1709 8.69891 10.1709 8.72998V12.255C10.1709 12.286 10.152 12.3112 10.1287 12.3112C10.1054 12.3112 10.0865 12.286 10.0865 12.255V8.72998C10.0865 8.69891 10.1054 8.67373 10.1287 8.67373ZM10.4155 8.71123C10.4388 8.71123 10.4577 8.73641 10.4577 8.76748V12.285C10.4577 12.316 10.4388 12.3412 10.4155 12.3412C10.3922 12.3412 10.3734 12.316 10.3734 12.285V8.76748C10.3734 8.73641 10.3922 8.71123 10.4155 8.71123ZM9.26805 8.76373C9.29135 8.76373 9.31023 8.78891 9.31023 8.81998V12.2175C9.31023 12.2485 9.29135 12.2737 9.26805 12.2737C9.24475 12.2737 9.22586 12.2485 9.22586 12.2175V8.81998C9.22586 8.78891 9.24475 8.76373 9.26805 8.76373ZM8.98117 8.77873C9.00447 8.77873 9.02336 8.80391 9.02336 8.83498V12.2025C9.02336 12.2335 9.00447 12.2587 8.98117 12.2587C8.95787 12.2587 8.93898 12.2335 8.93898 12.2025V8.83498C8.93898 8.80391 8.95787 8.77873 8.98117 8.77873ZM8.69992 8.86873C8.72322 8.86873 8.74211 8.89391 8.74211 8.92498V13.215C8.74211 13.246 8.72322 13.2712 8.69992 13.2712C8.67662 13.2712 8.65773 13.246 8.65773 13.215V8.92498C8.65773 8.89391 8.67662 8.86873 8.69992 8.86873ZM10.7024 8.92873C10.7257 8.92873 10.7446 8.95391 10.7446 8.98498V12.51C10.7446 12.541 10.7257 12.5662 10.7024 12.5662C10.6791 12.5662 10.6602 12.541 10.6602 12.51V8.98498C10.6602 8.95391 10.6791 8.92873 10.7024 8.92873ZM10.9837 8.96623C11.007 8.96623 11.0259 8.99141 11.0259 9.02248V12.99C11.0259 13.021 11.007 13.0462 10.9837 13.0462C10.9604 13.0462 10.9415 13.021 10.9415 12.99V9.02248C10.9415 8.99141 10.9604 8.96623 10.9837 8.96623ZM11.2762 8.96623C11.2995 8.96623 11.3184 8.99141 11.3184 9.02248V12.5475C11.3184 12.5785 11.2995 12.6037 11.2762 12.6037C11.2529 12.6037 11.234 12.5785 11.234 12.5475V9.02248C11.234 8.99141 11.2529 8.96623 11.2762 8.96623ZM11.5574 8.96623C11.5807 8.96623 11.5996 8.99141 11.5996 9.02248V12.5475C11.5996 12.5785 11.5807 12.6037 11.5574 12.6037C11.5341 12.6037 11.5152 12.5785 11.5152 12.5475V9.02248C11.5152 8.99141 11.5341 8.96623 11.5574 8.96623ZM8.40742 9.05623C8.43072 9.05623 8.44961 9.08141 8.44961 9.11248V12.7125C8.44961 12.7435 8.43072 12.7687 8.40742 12.7687C8.38412 12.7687 8.36523 12.7435 8.36523 12.7125V9.11248C8.36523 9.08141 8.38412 9.05623 8.40742 9.05623ZM8.12617 9.33373C8.14947 9.33373 8.16836 9.35891 8.16836 9.38998V12.09C8.16836 12.121 8.14947 12.1462 8.12617 12.1462C8.10287 12.1462 8.08398 12.121 8.08398 12.09V9.38998C8.08398 9.35891 8.10287 9.33373 8.12617 9.33373Z" fill="black"/>
<path d="M9.92125 8.8501C10.5287 8.9776 11.8563 9.8101 11.7044 10.9276C11.4906 12.5176 10.7931 11.8801 9.87062 11.6551L9.17313 11.9626C8.92 12.3001 8.55437 12.6151 8.30687 12.2026H7.89062V14.3626H12.4694V9.1501L9.92125 8.8501Z" fill="black"/>
<path fill-rule="evenodd" clip-rule="evenodd" d="M9.87859 8.84335C9.88136 8.81325 9.90153 8.7915 9.92418 8.79417L12.4723 9.09417C12.4941 9.09673 12.5108 9.12105 12.5108 9.1502V14.3627C12.5108 14.3938 12.4919 14.4189 12.4686 14.4189H7.88984C7.86654 14.4189 7.84766 14.3938 7.84766 14.3627V12.2027C7.84766 12.1716 7.86654 12.1464 7.88984 12.1464H8.30609C8.31891 12.1464 8.33103 12.1542 8.33904 12.1676C8.39582 12.2622 8.45729 12.312 8.52004 12.332C8.58336 12.3521 8.65189 12.343 8.7236 12.3107C8.86831 12.2455 9.01743 12.0897 9.14251 11.9229C9.14717 11.9167 9.15285 11.912 9.1591 11.9093L9.8566 11.6018C9.86331 11.5988 9.87048 11.5982 9.87743 11.5999C10.0565 11.6435 10.2276 11.7028 10.3867 11.7578C10.4342 11.7743 10.4806 11.7903 10.5258 11.8055C10.7245 11.8721 10.8996 11.9212 11.0514 11.9158C11.201 11.9105 11.3251 11.8523 11.4255 11.7058C11.5276 11.5569 11.6092 11.3108 11.6621 10.9178L11.6621 10.9177C11.7333 10.3936 11.4587 9.92498 11.0726 9.56374C10.6888 9.20469 10.211 8.96812 9.91391 8.90576C9.89144 8.90105 9.87583 8.87344 9.87859 8.84335ZM10.3798 8.96074C10.6225 9.08016 10.8885 9.25411 11.121 9.47165C11.5125 9.8379 11.8257 10.3442 11.7451 10.9377C11.6911 11.3396 11.6054 11.6101 11.4878 11.7817C11.3684 11.9559 11.2204 12.0224 11.0536 12.0283C10.8889 12.0342 10.7034 11.9811 10.5052 11.9146C10.4588 11.899 10.4116 11.8827 10.3636 11.8661C10.2082 11.8123 10.0447 11.7557 9.87282 11.7131L9.19504 12.0119C9.06821 12.1795 8.91086 12.345 8.75061 12.4172C8.66835 12.4543 8.58324 12.4677 8.50049 12.4414C8.42256 12.4166 8.35013 12.3578 8.28629 12.2589H7.93203V14.3064H12.4264V9.2017L10.3798 8.96074Z" fill="black"/>
<path d="M11.969 8.84242C12.1212 8.84242 12.2446 8.67789 12.2446 8.47492C12.2446 8.27196 12.1212 8.10742 11.969 8.10742C11.8168 8.10742 11.6934 8.27196 11.6934 8.47492C11.6934 8.67789 11.8168 8.84242 11.969 8.84242Z" fill="#FFD83D"/>
<path fill-rule="evenodd" clip-rule="evenodd" d="M11.9686 8.18271C11.8474 8.18271 11.7492 8.31367 11.7492 8.47521C11.7492 8.63676 11.8474 8.76772 11.9686 8.76772C12.0898 8.76772 12.188 8.63676 12.188 8.47521C12.188 8.31367 12.0898 8.18271 11.9686 8.18271ZM11.6367 8.47521C11.6367 8.23083 11.7853 8.03271 11.9686 8.03271C12.1519 8.03271 12.3005 8.23083 12.3005 8.47521C12.3005 8.7196 12.1519 8.91772 11.9686 8.91772C11.7853 8.91772 11.6367 8.7196 11.6367 8.47521Z" fill="black"/>
<path d="M11.344 8.63978C11.4962 8.63978 11.6196 8.47525 11.6196 8.27229C11.6196 8.06932 11.4962 7.90479 11.344 7.90479C11.1918 7.90479 11.0684 8.06932 11.0684 8.27229C11.0684 8.47525 11.1918 8.63978 11.344 8.63978Z" fill="#FFD83D"/>
<path fill-rule="evenodd" clip-rule="evenodd" d="M11.3436 7.98008C11.2224 7.98008 11.1242 8.11103 11.1242 8.27258C11.1242 8.43412 11.2224 8.56508 11.3436 8.56508C11.4648 8.56508 11.563 8.43412 11.563 8.27258C11.563 8.11104 11.4648 7.98008 11.3436 7.98008ZM11.0117 8.27258C11.0117 8.02819 11.1603 7.83008 11.3436 7.83008C11.5269 7.83008 11.6755 8.02819 11.6755 8.27258C11.6755 8.51696 11.5269 8.71508 11.3436 8.71508C11.1603 8.71508 11.0117 8.51696 11.0117 8.27258Z" fill="black"/>
<path d="M10.7092 8.42982C10.8614 8.42982 10.9848 8.26529 10.9848 8.06232C10.9848 7.85936 10.8614 7.69482 10.7092 7.69482C10.557 7.69482 10.4336 7.85936 10.4336 8.06232C10.4336 8.26529 10.557 8.42982 10.7092 8.42982Z" fill="#FFD83D"/>
<path fill-rule="evenodd" clip-rule="evenodd" d="M10.7088 7.77012C10.5877 7.77012 10.4895 7.90107 10.4895 8.06262C10.4895 8.22416 10.5877 8.35512 10.7088 8.35512C10.83 8.35512 10.9282 8.22416 10.9282 8.06262C10.9282 7.90107 10.83 7.77012 10.7088 7.77012ZM10.377 8.06262C10.377 7.81823 10.5255 7.62012 10.7088 7.62012C10.8921 7.62012 11.0407 7.81823 11.0407 8.06262C11.0407 8.307 10.8921 8.50512 10.7088 8.50512C10.5255 8.50512 10.377 8.307 10.377 8.06262Z" fill="black"/>
<path d="M10.0725 8.28773C10.2247 8.28773 10.3481 8.1232 10.3481 7.92023C10.3481 7.71727 10.2247 7.55273 10.0725 7.55273C9.92028 7.55273 9.79688 7.71727 9.79688 7.92023C9.79688 8.1232 9.92028 8.28773 10.0725 8.28773Z" fill="#FFD83D"/>
<path fill-rule="evenodd" clip-rule="evenodd" d="M10.0741 7.62754C9.95291 7.62754 9.85469 7.7585 9.85469 7.92004C9.85469 8.08158 9.95291 8.21254 10.0741 8.21254C10.1952 8.21254 10.2934 8.08158 10.2934 7.92004C10.2934 7.7585 10.1952 7.62754 10.0741 7.62754ZM9.74219 7.92004C9.74219 7.67565 9.89077 7.47754 10.0741 7.47754C10.2574 7.47754 10.4059 7.67565 10.4059 7.92004C10.4059 8.16443 10.2574 8.36254 10.0741 8.36254C9.89077 8.36254 9.74219 8.16443 9.74219 7.92004Z" fill="black"/>
<path d="M9.43773 8.20522C9.58996 8.20522 9.71336 8.04068 9.71336 7.83771C9.71336 7.63475 9.58996 7.47021 9.43773 7.47021C9.28551 7.47021 9.16211 7.63475 9.16211 7.83771C9.16211 8.04068 9.28551 8.20522 9.43773 8.20522Z" fill="#FFD83D"/>
<path fill-rule="evenodd" clip-rule="evenodd" d="M9.43734 7.54502C9.31619 7.54502 9.21797 7.67598 9.21797 7.83752C9.21797 7.99906 9.31619 8.13002 9.43734 8.13002C9.5585 8.13002 9.65672 7.99906 9.65672 7.83752C9.65672 7.67598 9.5585 7.54502 9.43734 7.54502ZM9.10547 7.83752C9.10547 7.59313 9.25405 7.39502 9.43734 7.39502C9.62063 7.39502 9.76922 7.59313 9.76922 7.83752C9.76922 8.08191 9.62063 8.28002 9.43734 8.28002C9.25405 8.28002 9.10547 8.08191 9.10547 7.83752Z" fill="black"/>
<path d="M8.81859 8.25014C8.97082 8.25014 9.09422 8.0856 9.09422 7.88264C9.09422 7.67967 8.97082 7.51514 8.81859 7.51514C8.66637 7.51514 8.54297 7.67967 8.54297 7.88264C8.54297 8.0856 8.66637 8.25014 8.81859 8.25014Z" fill="#FFD83D"/>
<path fill-rule="evenodd" clip-rule="evenodd" d="M8.82016 7.58994C8.699 7.58994 8.60078 7.7209 8.60078 7.88244C8.60078 8.04398 8.699 8.17494 8.82016 8.17494C8.94131 8.17494 9.03953 8.04398 9.03953 7.88244C9.03953 7.7209 8.94131 7.58994 8.82016 7.58994ZM8.48828 7.88244C8.48828 7.63806 8.63687 7.43994 8.82016 7.43994C9.00345 7.43994 9.15203 7.63806 9.15203 7.88244C9.15203 8.12683 9.00345 8.32494 8.82016 8.32494C8.63687 8.32494 8.48828 8.12683 8.48828 7.88244Z" fill="black"/>
<path d="M8.22289 8.52016C8.37511 8.52016 8.49852 8.35562 8.49852 8.15266C8.49852 7.94969 8.37511 7.78516 8.22289 7.78516C8.07067 7.78516 7.94727 7.94969 7.94727 8.15266C7.94727 8.35562 8.07067 8.52016 8.22289 8.52016Z" fill="#FFD83D"/>
<path fill-rule="evenodd" clip-rule="evenodd" d="M8.2225 7.85996C8.10134 7.85996 8.00313 7.99092 8.00313 8.15246C8.00313 8.314 8.10134 8.44496 8.2225 8.44496C8.34366 8.44496 8.44188 8.314 8.44188 8.15246C8.44188 7.99092 8.34366 7.85996 8.2225 7.85996ZM7.89062 8.15246C7.89062 7.90807 8.03921 7.70996 8.2225 7.70996C8.40579 7.70996 8.55438 7.90807 8.55438 8.15246C8.55438 8.39685 8.40579 8.59496 8.2225 8.59496C8.03921 8.59496 7.89062 8.39685 7.89062 8.15246Z" fill="black"/>
<path d="M7.72094 9.01478C7.87316 9.01478 7.99656 8.85025 7.99656 8.64729C7.99656 8.44432 7.87316 8.27979 7.72094 8.27979C7.56871 8.27979 7.44531 8.44432 7.44531 8.64729C7.44531 8.85025 7.56871 9.01478 7.72094 9.01478Z" fill="#FFD83D"/>
<path fill-rule="evenodd" clip-rule="evenodd" d="M7.7225 8.35508C7.60134 8.35508 7.50313 8.48604 7.50313 8.64758C7.50313 8.80912 7.60134 8.94008 7.7225 8.94008C7.84366 8.94008 7.94188 8.80912 7.94188 8.64758C7.94188 8.48603 7.84366 8.35508 7.7225 8.35508ZM7.39062 8.64758C7.39062 8.40319 7.53921 8.20508 7.7225 8.20508C7.90579 8.20508 8.05438 8.40319 8.05438 8.64758C8.05438 8.89196 7.90579 9.09008 7.7225 9.09008C7.53921 9.09008 7.39062 8.89196 7.39062 8.64758Z" fill="black"/>
<path d="M7.36742 9.6974C7.51965 9.6974 7.64305 9.53287 7.64305 9.3299C7.64305 9.12694 7.51965 8.9624 7.36742 8.9624C7.2152 8.9624 7.0918 9.12694 7.0918 9.3299C7.0918 9.53287 7.2152 9.6974 7.36742 9.6974Z" fill="#FFD83D"/>
<path fill-rule="evenodd" clip-rule="evenodd" d="M7.36703 9.0377C7.24587 9.0377 7.14766 9.16865 7.14766 9.3302C7.14766 9.49174 7.24587 9.6227 7.36703 9.6227C7.48819 9.6227 7.58641 9.49174 7.58641 9.3302C7.58641 9.16865 7.48819 9.0377 7.36703 9.0377ZM7.03516 9.3302C7.03516 9.08581 7.18374 8.8877 7.36703 8.8877C7.55032 8.8877 7.69891 9.08581 7.69891 9.3302C7.69891 9.57458 7.55032 9.7727 7.36703 9.7727C7.18374 9.7727 7.03516 9.57458 7.03516 9.3302Z" fill="black"/>
<path d="M7.19359 10.5075C7.34582 10.5075 7.46922 10.3429 7.46922 10.14C7.46922 9.937 7.34582 9.77246 7.19359 9.77246C7.04137 9.77246 6.91797 9.937 6.91797 10.14C6.91797 10.3429 7.04137 10.5075 7.19359 10.5075Z" fill="#FFD83D"/>
<path fill-rule="evenodd" clip-rule="evenodd" d="M7.1932 9.84775C7.07205 9.84775 6.97383 9.97871 6.97383 10.1403C6.97383 10.3018 7.07205 10.4328 7.1932 10.4328C7.31436 10.4328 7.41258 10.3018 7.41258 10.1403C7.41258 9.97871 7.31436 9.84775 7.1932 9.84775ZM6.86133 10.1403C6.86133 9.89587 7.00991 9.69775 7.1932 9.69775C7.37649 9.69775 7.52508 9.89587 7.52508 10.1403C7.52508 10.3846 7.37649 10.5828 7.1932 10.5828C7.00991 10.5828 6.86133 10.3846 6.86133 10.1403Z" fill="black"/>
<path d="M7.1975 11.34C7.34972 11.34 7.47312 11.1754 7.47312 10.9725C7.47312 10.7695 7.34972 10.605 7.1975 10.605C7.04528 10.605 6.92188 10.7695 6.92188 10.9725C6.92188 11.1754 7.04528 11.34 7.1975 11.34Z" fill="#FFD83D"/>
<path fill-rule="evenodd" clip-rule="evenodd" d="M7.19906 10.6798C7.07791 10.6798 6.97969 10.8107 6.97969 10.9723C6.97969 11.1338 7.0779 11.2648 7.19906 11.2648C7.32022 11.2648 7.41844 11.1338 7.41844 10.9723C7.41844 10.8107 7.32022 10.6798 7.19906 10.6798ZM6.86719 10.9723C6.86719 10.7279 7.01577 10.5298 7.19906 10.5298C7.38235 10.5298 7.53094 10.7279 7.53094 10.9723C7.53094 11.2167 7.38235 11.4148 7.19906 11.4148C7.01577 11.4148 6.86719 11.2167 6.86719 10.9723Z" fill="black"/>
<path d="M7.3225 12.1574C7.47472 12.1574 7.59813 11.9928 7.59813 11.7899C7.59813 11.5869 7.47472 11.4224 7.3225 11.4224C7.17028 11.4224 7.04688 11.5869 7.04688 11.7899C7.04688 11.9928 7.17028 12.1574 7.3225 12.1574Z" fill="#FFD83D"/>
<path fill-rule="evenodd" clip-rule="evenodd" d="M7.32211 11.4977C7.20095 11.4977 7.10273 11.6286 7.10273 11.7902C7.10273 11.9517 7.20095 12.0827 7.32211 12.0827C7.44327 12.0827 7.54148 11.9517 7.54148 11.7902C7.54148 11.6286 7.44327 11.4977 7.32211 11.4977ZM6.99023 11.7902C6.99023 11.5458 7.13882 11.3477 7.32211 11.3477C7.5054 11.3477 7.65398 11.5458 7.65398 11.7902C7.65398 12.0345 7.5054 12.2327 7.32211 12.2327C7.13882 12.2327 6.99023 12.0345 6.99023 11.7902Z" fill="black"/>
<path d="M12.0924 8.96246L12.0643 9.44996C11.3724 9.29996 10.3937 8.78996 9.4768 8.78996C8.63305 8.78996 7.98055 9.23996 7.98055 10.38C7.98055 11.4975 8.33492 12.5175 8.80742 13.5525L8.31805 13.8525C7.8793 12.7275 7.51367 11.7525 7.51367 10.4475C7.51367 9.35246 8.16055 8.27246 9.2743 8.27246C10.2587 8.27246 11.2655 8.72246 12.0924 8.96246Z" fill="#FFD83D"/>
<path fill-rule="evenodd" clip-rule="evenodd" d="M9.27391 8.34775C8.19196 8.34775 7.56953 9.39319 7.56953 10.4478C7.56953 11.7082 7.91518 12.6563 8.34286 13.7548L8.72628 13.5197C8.26861 12.5058 7.92391 11.4927 7.92391 10.3803C7.92391 9.78837 8.09444 9.36706 8.37925 9.09666C8.66107 8.8291 9.04839 8.71525 9.47641 8.71525C9.94192 8.71525 10.4213 8.84462 10.868 8.99118C11.006 9.03645 11.1404 9.08318 11.2704 9.12836C11.5396 9.22193 11.7896 9.30885 12.0126 9.36241L12.0322 9.02197C11.8388 8.96448 11.6361 8.89649 11.4275 8.82642L11.4208 8.82415C11.1967 8.74888 10.9656 8.67123 10.7298 8.60095C10.2532 8.45892 9.76005 8.34775 9.27391 8.34775ZM12.092 8.96275L12.104 8.88947C11.8983 8.82978 11.6813 8.75696 11.455 8.68096L11.4477 8.67849C11.224 8.60335 10.9916 8.52529 10.7543 8.45456C10.2746 8.31159 9.77214 8.19775 9.27391 8.19775C8.12835 8.19775 7.45703 9.31232 7.45703 10.4478C7.45703 11.7731 7.82924 12.763 8.26775 13.8874C8.28159 13.9228 8.31389 13.9376 8.34115 13.9209L8.83053 13.6209C8.84511 13.612 8.85614 13.5951 8.86083 13.5747C8.86552 13.5542 8.86343 13.532 8.85508 13.5138C8.38393 12.4817 8.03641 11.4764 8.03641 10.3803C8.03641 9.83213 8.19213 9.45845 8.4445 9.21885C8.69987 8.97641 9.06067 8.86525 9.47641 8.86525C9.92777 8.86525 10.3962 8.99089 10.8411 9.13683C10.9748 9.18071 11.1069 9.22661 11.2357 9.27138C11.5323 9.37445 11.8117 9.47155 12.0549 9.52428C12.0704 9.52765 12.0863 9.52218 12.0987 9.50921C12.1111 9.49623 12.1188 9.47693 12.12 9.45601L12.1481 8.96851L12.092 8.96275Z" fill="black"/>
<path d="M12.4862 3.9826L12.1937 4.7101L12.4862 5.4301L12.773 4.7101L12.4862 3.9751V3.9826ZM12.4862 5.8126L12.1937 6.5326L12.4862 7.2601L12.7674 6.5251L12.4805 5.8051L12.4862 5.8126ZM11.4512 5.6251L11.9068 6.0076L12.3624 5.6251L11.9124 5.2351L11.4512 5.6251ZM12.6043 5.6251L13.0599 6.0076L13.5212 5.6251L13.0599 5.2351L12.6099 5.6251H12.6043Z" fill="#FFD83D"/>
<path fill-rule="evenodd" clip-rule="evenodd" d="M12.4744 3.90206C12.4995 3.89385 12.5257 3.90963 12.5376 3.94029L12.8245 4.67529C12.8331 4.69719 12.833 4.72329 12.8243 4.7451L12.5374 5.4651C12.5277 5.4895 12.5087 5.5048 12.488 5.50491C12.4672 5.50502 12.4481 5.48993 12.4383 5.46563L12.1458 4.74563C12.1368 4.72345 12.1367 4.69671 12.1457 4.67447L12.4324 3.96124C12.4364 3.93265 12.4526 3.90916 12.4744 3.90206ZM12.4885 4.13929L12.2591 4.70973L12.4873 5.27126L12.7111 4.70955L12.4885 4.13929ZM11.8839 5.17157C11.9024 5.15586 11.9262 5.15604 11.9446 5.17203L12.3946 5.56203C12.4107 5.57597 12.4204 5.59987 12.4202 5.62545C12.4201 5.65103 12.4102 5.67475 12.394 5.68838L11.9383 6.07088C11.92 6.08625 11.8967 6.08625 11.8784 6.07088L11.4228 5.68838C11.4064 5.67467 11.3965 5.65076 11.3965 5.62503C11.3965 5.5993 11.4063 5.57535 11.4226 5.56157L11.8839 5.17157ZM13.0308 5.17203C13.0493 5.15604 13.073 5.15586 13.0916 5.17157L13.5529 5.56157C13.5692 5.57539 13.5791 5.59944 13.579 5.62524C13.5789 5.65104 13.5689 5.67497 13.5524 5.6886L13.0912 6.0711C13.0729 6.08626 13.0497 6.08617 13.0315 6.07088L12.5759 5.68838C12.5547 5.67057 12.5449 5.63622 12.5518 5.60411C12.5575 5.57799 12.5731 5.55849 12.5922 5.55213L13.0308 5.17203ZM12.7131 5.6263L13.0617 5.91894L13.417 5.62429L13.0619 5.32404L12.7131 5.6263ZM11.558 5.62468L11.9084 5.91878L12.2596 5.6239L11.9136 5.32404L11.558 5.62468ZM12.4487 5.74461C12.471 5.72253 12.5022 5.72562 12.5219 5.75187L12.5275 5.75937C12.5355 5.77008 12.5407 5.78343 12.5429 5.79754L12.8187 6.48972C12.8273 6.51134 12.8274 6.53719 12.8191 6.55899L12.5378 7.29399C12.5283 7.31886 12.5092 7.33462 12.4883 7.33491C12.4674 7.33519 12.4481 7.31995 12.4382 7.29535L12.1457 6.56784C12.1367 6.54561 12.1368 6.51887 12.1458 6.49669L12.4259 5.8072C12.4253 5.78329 12.4334 5.75966 12.4487 5.74461ZM12.4859 5.97434L12.2591 6.53259L12.4865 7.0981L12.7056 6.52561L12.4859 5.97434Z" fill="black"/>
<path d="M12.487 5.92484C12.6081 5.92484 12.7063 5.79389 12.7063 5.63234C12.7063 5.4708 12.6081 5.33984 12.487 5.33984C12.3658 5.33984 12.2676 5.4708 12.2676 5.63234C12.2676 5.79389 12.3658 5.92484 12.487 5.92484Z" fill="#FFD83D"/>
<path fill-rule="evenodd" clip-rule="evenodd" d="M12.4866 5.41514C12.3965 5.41514 12.3234 5.51251 12.3234 5.63264C12.3234 5.75276 12.3965 5.85014 12.4866 5.85014C12.5767 5.85014 12.6497 5.75276 12.6497 5.63264C12.6497 5.51251 12.5767 5.41514 12.4866 5.41514ZM12.2109 5.63264C12.2109 5.42967 12.3343 5.26514 12.4866 5.26514C12.6388 5.26514 12.7622 5.42967 12.7622 5.63264C12.7622 5.8356 12.6388 6.00014 12.4866 6.00014C12.3343 6.00014 12.2109 5.8356 12.2109 5.63264Z" fill="black"/>
<path d="M12.4871 8.2874C12.8133 8.2874 13.0777 7.93483 13.0777 7.4999C13.0777 7.06498 12.8133 6.7124 12.4871 6.7124C12.1609 6.7124 11.8965 7.06498 11.8965 7.4999C11.8965 7.93483 12.1609 8.2874 12.4871 8.2874Z" fill="#FFD83D"/>
<path fill-rule="evenodd" clip-rule="evenodd" d="M12.4867 6.78721C12.1916 6.78721 11.9523 7.1062 11.9523 7.49971C11.9523 7.89321 12.1916 8.21221 12.4867 8.21221C12.7818 8.21221 13.0211 7.89321 13.0211 7.49971C13.0211 7.1062 12.7818 6.78721 12.4867 6.78721ZM11.8398 7.49971C11.8398 7.02336 12.1295 6.63721 12.4867 6.63721C12.844 6.63721 13.1336 7.02336 13.1336 7.49971C13.1336 7.97605 12.844 8.36221 12.4867 8.36221C12.1295 8.36221 11.8398 7.97605 11.8398 7.49971Z" fill="black"/>
<path fill-rule="evenodd" clip-rule="evenodd" d="M12.3352 6.68604C12.3585 6.68604 12.3774 6.71122 12.3774 6.74229V7.23729C12.3774 7.2673 12.3597 7.29203 12.3372 7.29347C12.1993 7.30232 12.062 7.32211 11.9259 7.35275C11.903 7.35792 11.8812 7.33728 11.8773 7.30665C11.8734 7.27602 11.8889 7.24699 11.9119 7.24182C12.0381 7.21342 12.1653 7.19411 12.293 7.18398V6.74229C12.293 6.71122 12.3119 6.68604 12.3352 6.68604ZM12.6333 6.68604C12.6566 6.68604 12.6755 6.71122 12.6755 6.74229V7.18384C12.8051 7.19369 12.9342 7.21304 13.0622 7.24182C13.0852 7.24698 13.1006 7.276 13.0968 7.30664C13.0929 7.33727 13.0711 7.35792 13.0481 7.35275C12.9103 7.32175 12.7711 7.30196 12.6314 7.29348C12.6088 7.29211 12.5911 7.26736 12.5911 7.23729V6.74229C12.5911 6.71122 12.61 6.68604 12.6333 6.68604ZM12.4868 7.57104L12.487 7.57103C12.6807 7.57103 12.8746 7.59381 13.0573 7.6395C13.0802 7.64522 13.0953 7.67462 13.091 7.70515C13.0867 7.73568 13.0647 7.7558 13.0418 7.75007C12.8645 7.70577 12.6759 7.68354 12.4871 7.68353C12.2972 7.68469 12.1077 7.70699 11.9205 7.75021C11.8975 7.75551 11.8757 7.73499 11.8717 7.70438C11.8677 7.67377 11.8831 7.64466 11.9061 7.63936C12.0979 7.59506 12.2922 7.57221 12.4868 7.57104Z" fill="black"/>
<path d="M11.9128 8.82764C11.8566 10.1026 11.7441 11.4151 11.3672 12.3601L11.9747 12.0301C12.1884 10.9576 12.2334 9.57014 12.2953 8.91014L11.9128 8.82764ZM13.0603 8.82764L12.6722 8.91014C12.7397 9.57014 12.7847 10.9576 12.9928 12.0301L13.6003 12.3601C13.2291 11.4151 13.1166 10.1101 13.0603 8.82764Z" fill="#FFD83D"/>
<path fill-rule="evenodd" clip-rule="evenodd" d="M12.6629 8.83592L13.0511 8.75342L13.0599 8.82748L13.1161 8.8231C13.1724 10.1064 13.2848 11.3962 13.6498 12.3252C13.6607 12.3531 13.6574 12.3871 13.6416 12.4104C13.6257 12.4337 13.6006 12.4413 13.5787 12.4294L12.9712 12.0994C12.9547 12.0905 12.9424 12.0717 12.938 12.0488C12.8328 11.5071 12.7692 10.8877 12.7235 10.3234C12.7035 10.0777 12.6871 9.8438 12.6721 9.63074C12.6524 9.35089 12.6352 9.10706 12.6161 8.92012C12.6119 8.87973 12.6328 8.84234 12.6629 8.83592ZM13.0075 8.91458L12.7346 8.97258C12.7512 9.15096 12.7669 9.37367 12.7845 9.62232C12.7995 9.83542 12.8159 10.0676 12.8353 10.3072C12.8799 10.857 12.941 11.4526 13.0399 11.9748L13.4843 12.2162C13.1666 11.2955 13.0614 10.0924 13.0075 8.91458ZM11.9214 8.75345L12.3039 8.83595C12.3338 8.84239 12.3545 8.87923 12.3507 8.91929C12.3351 9.08583 12.3205 9.30175 12.3037 9.54897C12.2551 10.2662 12.1886 11.2469 12.0287 12.0492C12.0241 12.072 12.0119 12.0906 11.9955 12.0994L11.388 12.4294C11.3661 12.4414 11.3409 12.4337 11.3251 12.4102C11.3092 12.3868 11.306 12.3526 11.3171 12.3248C11.6875 11.396 11.8 10.099 11.8563 8.82308L11.9124 8.82748L11.9214 8.75345ZM11.9648 8.91476C11.9109 10.0856 11.8057 11.2942 11.4835 12.2156L11.927 11.9747C12.0791 11.1931 12.1427 10.2545 12.1906 9.54937C12.2054 9.33075 12.2187 9.13459 12.2327 8.97253L11.9648 8.91476Z" fill="black"/>
<path d="M12.4853 11.6025C11.7541 11.6025 11.2197 12.0525 11.1916 13.2225C11.0116 12.8025 10.2634 11.4975 9.56031 11.67C9.14406 11.775 8.77281 12.5475 8.84031 13.425C8.49156 12.105 7.48469 11.8875 6.74219 12.675C7.40031 13.3875 7.69281 15.51 8.24406 16.425H16.7209C17.2722 15.51 17.5647 13.3875 18.2228 12.675C17.4859 11.8875 16.4734 12.105 16.1303 13.425C16.1866 12.5475 15.8209 11.775 15.3991 11.67C14.7016 11.4975 13.9534 12.8025 13.7734 13.2225C13.7453 12.06 13.2109 11.6025 12.4797 11.6025H12.4853Z" fill="#FFD83D"/>
<path fill-rule="evenodd" clip-rule="evenodd" d="M12.4802 11.5274C12.4806 11.5273 12.4809 11.5273 12.4812 11.5273H12.4869M12.4879 11.5274C12.8587 11.5287 13.1875 11.6457 13.4283 11.9193C13.6394 12.1592 13.7765 12.5124 13.8186 12.9912C13.938 12.7594 14.1282 12.4425 14.3561 12.1682C14.6547 11.8087 15.0342 11.5029 15.4109 11.5961L15.4109 11.5961C15.6432 11.6539 15.852 11.8923 15.9942 12.2201C16.098 12.4592 16.1685 12.7502 16.1882 13.0654C16.3822 12.5842 16.6811 12.2914 17.0177 12.1865C17.4248 12.0596 17.8795 12.2102 18.2596 12.6163C18.2728 12.6305 18.2806 12.6519 18.2806 12.6746C18.2807 12.6973 18.273 12.7188 18.2598 12.7331C18.1036 12.9022 17.9661 13.1586 17.8389 13.4687C17.712 13.7781 17.5975 14.1354 17.4855 14.5022C17.459 14.5887 17.4327 14.6758 17.4064 14.7629C17.3216 15.0436 17.2368 15.3241 17.1484 15.5841C17.0326 15.9245 16.9087 16.2356 16.7664 16.4718C16.7557 16.4895 16.7395 16.4998 16.7225 16.4998H8.24563C8.22858 16.4998 8.21245 16.4895 8.20177 16.4718C8.05946 16.2356 7.9355 15.9245 7.81972 15.5841C7.73131 15.3241 7.64655 15.0436 7.56173 14.7629C7.53542 14.6758 7.50911 14.5887 7.48267 14.5022C7.37059 14.1354 7.25612 13.7781 7.12919 13.4687C7.00201 13.1586 6.86453 12.9022 6.70829 12.7331C6.69506 12.7187 6.68742 12.6972 6.6875 12.6745C6.68759 12.6517 6.69539 12.6303 6.70873 12.6161C7.09146 12.2102 7.54608 12.0596 7.95327 12.1865C8.28863 12.291 8.58647 12.5821 8.78206 13.06C8.79969 12.7468 8.86914 12.4578 8.97172 12.2202C9.11325 11.8924 9.32199 11.654 9.55142 11.5962L9.5517 11.5961C9.93101 11.503 10.3118 11.8085 10.6113 12.1682C10.8396 12.4424 11.03 12.7592 11.1494 12.991C11.1914 12.5093 11.3285 12.1558 11.5399 11.9164C11.7807 11.6437 12.1096 11.5287 12.4802 11.5274M12.4841 11.6773C12.1274 11.6779 11.8269 11.7882 11.6127 12.0308C11.3993 12.2725 11.263 12.6552 11.2493 13.2247C11.2485 13.2583 11.2311 13.287 11.2067 13.2951C11.1823 13.3032 11.1568 13.2887 11.1443 13.2596C11.057 13.0558 10.8286 12.631 10.536 12.2796C10.2407 11.925 9.89597 11.6642 9.5722 11.7436C9.38542 11.7908 9.20046 11.9911 9.06922 12.2951C8.93864 12.5975 8.8653 12.9943 8.89783 13.4172C8.90074 13.455 8.88198 13.4897 8.85417 13.498C8.82637 13.5063 8.79829 13.4856 8.78882 13.4498C8.62018 12.8115 8.29529 12.4471 7.92767 12.3326C7.57694 12.2233 7.18015 12.3392 6.83282 12.6785C6.98252 12.8622 7.11157 13.1131 7.2279 13.3967C7.35814 13.7142 7.47465 14.0784 7.58686 14.4456C7.6137 14.5334 7.64028 14.6214 7.66674 14.709C7.75137 14.9891 7.83486 15.2654 7.92218 15.5221C8.03207 15.8452 8.14624 16.1318 8.2729 16.3498H16.6952C16.8219 16.1318 16.9361 15.8452 17.0459 15.5221C17.1333 15.2654 17.2168 14.989 17.3014 14.709C17.3279 14.6214 17.3544 14.5334 17.3813 14.4456C17.4935 14.0784 17.61 13.7142 17.7402 13.3967C17.8566 13.113 17.9857 12.862 18.1355 12.6783C17.7907 12.3393 17.394 12.2233 17.0433 12.3326C16.6756 12.4471 16.3509 12.8114 16.185 13.4494C16.1757 13.4851 16.1479 13.5061 16.1202 13.4982C16.0924 13.4903 16.0734 13.4561 16.0758 13.4185C16.103 12.9949 16.0282 12.5978 15.8969 12.2952C15.7649 11.9912 15.5799 11.7908 15.3903 11.7436C15.0695 11.6643 14.7262 11.9247 14.4314 12.2796C14.1395 12.631 13.9112 13.0558 13.8238 13.2596C13.8114 13.2887 13.7859 13.3032 13.7614 13.2951C13.737 13.287 13.7196 13.2583 13.7188 13.2248C13.7051 12.6591 13.5689 12.2762 13.3553 12.0335C13.141 11.79 12.8405 11.6779 12.4841 11.6773Z" fill="black"/>
<path d="M16.7122 16.4251C16.7122 16.8451 14.8222 17.3026 12.4878 17.3026C10.1534 17.3026 8.25781 16.8526 8.25781 16.4251C8.25781 16.0126 10.1534 15.7876 12.4878 15.7876C14.8166 15.7876 16.7122 16.0126 16.7122 16.4251Z" fill="black"/>
<path fill-rule="evenodd" clip-rule="evenodd" d="M8.36493 16.3275C8.31126 16.3709 8.29922 16.4049 8.29922 16.4252C8.29922 16.4498 8.31359 16.4889 8.36742 16.5397C8.41927 16.5887 8.49832 16.6393 8.60392 16.6897C8.81459 16.7903 9.1216 16.886 9.50341 16.9687C10.2664 17.1341 11.3216 17.2464 12.487 17.2464C13.6524 17.2464 14.7062 17.1322 15.4678 16.9659C15.8489 16.8827 16.1552 16.7868 16.3654 16.6865C16.4708 16.6363 16.5496 16.5859 16.6014 16.5375C16.6552 16.487 16.6692 16.4486 16.6692 16.4252C16.6692 16.4049 16.6572 16.3709 16.6035 16.3275C16.552 16.2858 16.4732 16.2448 16.3676 16.2058C16.1568 16.1279 15.8499 16.0615 15.4681 16.0077C14.7051 15.9002 13.6507 15.8439 12.487 15.8439C11.3206 15.8439 10.2647 15.9002 9.50107 16.0077C9.11892 16.0615 8.81176 16.1279 8.60096 16.2058C8.49523 16.2448 8.41641 16.2858 8.36493 16.3275ZM9.49221 15.8958C10.26 15.7877 11.3191 15.7314 12.487 15.7314C13.6521 15.7314 14.7099 15.7877 15.4769 15.8958C15.8601 15.9498 16.1726 16.017 16.3901 16.0974C16.4985 16.1374 16.586 16.1817 16.6473 16.2313C16.7064 16.2791 16.7536 16.3424 16.7536 16.4252C16.7536 16.5068 16.7085 16.5746 16.6499 16.6295C16.5892 16.6864 16.5021 16.7408 16.3938 16.7925C16.1767 16.8961 15.8646 16.9933 15.4814 17.077C14.7145 17.2444 13.656 17.3589 12.487 17.3589C11.3181 17.3589 10.2582 17.2463 9.48987 17.0798C9.10597 16.9966 8.79318 16.8996 8.57547 16.7956C8.46688 16.7437 8.37961 16.6891 8.31867 16.6316C8.25971 16.5759 8.21484 16.5075 8.21484 16.4252C8.21484 16.3424 8.26204 16.2791 8.32116 16.2313C8.38246 16.1817 8.46998 16.1374 8.57844 16.0974C8.79601 16.017 9.10865 15.9498 9.49221 15.8958Z" fill="black"/>
<path d="M12.4879 8.84238C12.5966 8.84238 12.6848 8.72486 12.6848 8.57988C12.6848 8.43491 12.5966 8.31738 12.4879 8.31738C12.3792 8.31738 12.291 8.43491 12.291 8.57988C12.291 8.72486 12.3792 8.84238 12.4879 8.84238Z" fill="#FFD83D"/>
<path fill-rule="evenodd" clip-rule="evenodd" d="M12.4871 8.37373C12.4017 8.37373 12.3324 8.46607 12.3324 8.57998C12.3324 8.69389 12.4017 8.78623 12.4871 8.78623C12.5725 8.78623 12.6418 8.69389 12.6418 8.57998C12.6418 8.46607 12.5725 8.37373 12.4871 8.37373ZM12.248 8.57998C12.248 8.40394 12.3551 8.26123 12.4871 8.26123C12.6191 8.26123 12.7262 8.40394 12.7262 8.57998C12.7262 8.75602 12.6191 8.89873 12.4871 8.89873C12.3551 8.89873 12.248 8.75602 12.248 8.57998Z" fill="black"/>
<path d="M12.4874 9.42756C12.6024 9.42756 12.6955 9.30332 12.6955 9.15006C12.6955 8.9968 12.6024 8.87256 12.4874 8.87256C12.3725 8.87256 12.2793 8.9968 12.2793 9.15006C12.2793 9.30332 12.3725 9.42756 12.4874 9.42756Z" fill="#FFD83D"/>
<path fill-rule="evenodd" clip-rule="evenodd" d="M12.4866 8.92891C12.395 8.92891 12.3207 9.02796 12.3207 9.15016C12.3207 9.27235 12.395 9.37141 12.4866 9.37141C12.5783 9.37141 12.6526 9.27235 12.6526 9.15016C12.6526 9.02796 12.5783 8.92891 12.4866 8.92891ZM12.2363 9.15016C12.2363 8.96583 12.3484 8.81641 12.4866 8.81641C12.6249 8.81641 12.737 8.96583 12.737 9.15016C12.737 9.33448 12.6249 9.48391 12.4866 9.48391C12.3484 9.48391 12.2363 9.33448 12.2363 9.15016Z" fill="black"/>
<path d="M12.4884 10.0725C12.6158 10.0725 12.7191 9.93485 12.7191 9.76502C12.7191 9.59519 12.6158 9.45752 12.4884 9.45752C12.3611 9.45752 12.2578 9.59519 12.2578 9.76502C12.2578 9.93485 12.3611 10.0725 12.4884 10.0725Z" fill="#FFD83D"/>
<path fill-rule="evenodd" clip-rule="evenodd" d="M12.4877 9.51387C12.3836 9.51387 12.2992 9.62636 12.2992 9.76512C12.2992 9.90388 12.3836 10.0164 12.4877 10.0164C12.5917 10.0164 12.6761 9.90388 12.6761 9.76512C12.6761 9.62636 12.5917 9.51387 12.4877 9.51387ZM12.2148 9.76512C12.2148 9.56422 12.337 9.40137 12.4877 9.40137C12.6383 9.40137 12.7605 9.56422 12.7605 9.76512C12.7605 9.96601 12.6383 10.1289 12.4877 10.1289C12.337 10.1289 12.2148 9.96601 12.2148 9.76512Z" fill="black"/>
<path d="M12.487 10.8002C12.633 10.8002 12.7514 10.6424 12.7514 10.4477C12.7514 10.253 12.633 10.0952 12.487 10.0952C12.341 10.0952 12.2227 10.253 12.2227 10.4477C12.2227 10.6424 12.341 10.8002 12.487 10.8002Z" fill="#FFD83D"/>
<path fill-rule="evenodd" clip-rule="evenodd" d="M12.4862 10.1511C12.3635 10.1511 12.2641 10.2837 12.2641 10.4473C12.2641 10.6109 12.3635 10.7436 12.4862 10.7436C12.609 10.7436 12.7084 10.6109 12.7084 10.4473C12.7084 10.2837 12.609 10.1511 12.4862 10.1511ZM12.1797 10.4473C12.1797 10.2216 12.3169 10.0386 12.4862 10.0386C12.6556 10.0386 12.7928 10.2216 12.7928 10.4473C12.7928 10.6731 12.6556 10.8561 12.4862 10.8561C12.3169 10.8561 12.1797 10.6731 12.1797 10.4473Z" fill="black"/>
<path d="M12.4861 11.5873C12.6445 11.5873 12.773 11.416 12.773 11.2048C12.773 10.9935 12.6445 10.8223 12.4861 10.8223C12.3277 10.8223 12.1992 10.9935 12.1992 11.2048C12.1992 11.416 12.3277 11.5873 12.4861 11.5873Z" fill="#FFD83D"/>
<path fill-rule="evenodd" clip-rule="evenodd" d="M12.4873 10.8786C12.3521 10.8786 12.2426 11.0247 12.2426 11.2049C12.2426 11.385 12.3521 11.5311 12.4873 11.5311C12.6224 11.5311 12.732 11.385 12.732 11.2049C12.732 11.0247 12.6224 10.8786 12.4873 10.8786ZM12.1582 11.2049C12.1582 10.9625 12.3055 10.7661 12.4873 10.7661C12.669 10.7661 12.8163 10.9625 12.8163 11.2049C12.8163 11.4472 12.669 11.6436 12.4873 11.6436C12.3055 11.6436 12.1582 11.4472 12.1582 11.2049Z" fill="black"/>
<path d="M12.3746 11.9399C12.3409 11.9399 12.3128 11.9774 12.3184 12.0449L12.3521 12.3674C12.3634 12.4799 12.4084 12.4424 12.4253 12.3674C12.4365 12.2774 12.4309 12.2174 12.4365 12.0599C12.4365 11.9774 12.4028 11.9399 12.369 11.9399H12.3746ZM12.5996 11.9399C12.5659 11.9399 12.5378 11.9774 12.5378 12.0599C12.5378 12.2174 12.5378 12.2774 12.549 12.3599C12.5603 12.4499 12.6053 12.4799 12.6221 12.3599L12.6503 12.0449C12.6615 11.9699 12.6278 11.9399 12.5996 11.9399ZM12.1665 11.9849C12.1516 11.9849 12.1373 11.9928 12.1267 12.0069C12.1162 12.021 12.1103 12.0401 12.1103 12.0599C12.1103 12.1349 12.1271 12.2324 12.1328 12.3449C12.144 12.4574 12.2059 12.4199 12.2115 12.3449C12.2115 12.2849 12.2228 12.1799 12.2115 12.0524C12.2115 12.0074 12.2003 11.9849 12.1778 11.9774C12.174 11.9768 12.1703 11.9768 12.1665 11.9774V11.9849ZM12.7909 11.9849C12.774 11.9849 12.7571 12.0074 12.7515 12.0599C12.7485 12.1552 12.7523 12.2506 12.7628 12.3449C12.7628 12.4199 12.8303 12.4574 12.8359 12.3449C12.8359 12.2324 12.8584 12.1424 12.8584 12.0674C12.8584 12.0224 12.8303 11.9924 12.8021 11.9849C12.7984 11.9843 12.7946 11.9843 12.7909 11.9849ZM11.9246 12.1124C11.8965 12.1199 11.8684 12.1649 11.8796 12.2099C11.8965 12.3074 11.9134 12.4124 11.9134 12.5099C11.9134 12.5924 11.964 12.5624 11.9696 12.5099C11.974 12.4101 11.9759 12.31 11.9753 12.2099C11.9753 12.1349 11.9471 12.1049 11.919 12.1124H11.9246ZM13.0271 12.1124C13.0103 12.1199 12.9934 12.1499 12.9934 12.2099L13.0046 12.5099C13.0046 12.5624 13.0609 12.5924 13.0609 12.5099C13.0609 12.4124 13.0721 12.3074 13.089 12.2099C13.1003 12.1649 13.0721 12.1199 13.0496 12.1124C13.0441 12.1105 13.0383 12.1105 13.0328 12.1124H13.0271ZM9.70839 12.1274C9.67464 12.1274 9.65214 12.1799 9.67464 12.2399C9.70839 12.3449 9.74777 12.4049 9.78152 12.5099C9.80964 12.6074 9.86027 12.5474 9.84339 12.4799L9.76465 12.2024C9.74777 12.1499 9.72527 12.1274 9.70839 12.1274ZM15.2659 12.1274C15.2434 12.1274 15.2265 12.1499 15.2096 12.2024C15.159 12.3449 15.1421 12.4124 15.1253 12.4799C15.114 12.5549 15.159 12.6074 15.1928 12.5099L15.294 12.2399C15.3165 12.1799 15.294 12.1274 15.2659 12.1274ZM9.93339 12.1274C9.90527 12.1424 9.89402 12.1799 9.90527 12.2249C9.93902 12.3149 9.97839 12.4124 10.0065 12.5099C10.029 12.5924 10.0853 12.5699 10.0628 12.4949L10.0065 12.2174C9.98402 12.1424 9.95027 12.1199 9.93339 12.1274ZM15.024 12.1274C15.0015 12.1349 14.979 12.1649 14.9678 12.2174C14.9284 12.3674 14.9228 12.4124 14.9059 12.4949C14.8834 12.5699 14.9396 12.5924 14.9621 12.5099L15.0634 12.2249C15.0746 12.1799 15.0634 12.1424 15.0409 12.1274C15.0354 12.1255 15.0296 12.1255 15.024 12.1274ZM10.2146 12.2024C10.1809 12.2099 10.1584 12.2699 10.1809 12.3449C10.2034 12.4349 10.2371 12.5174 10.2709 12.6224C10.3046 12.7274 10.3553 12.7049 10.344 12.6374C10.3271 12.5699 10.3159 12.4649 10.2765 12.2999C10.2596 12.2249 10.2371 12.1949 10.2146 12.2024ZM14.7596 12.2024C14.7371 12.2024 14.709 12.2249 14.6921 12.2999C14.6584 12.4649 14.6359 12.5699 14.6303 12.6374C14.6134 12.7124 14.6696 12.7274 14.6978 12.6224C14.7315 12.5174 14.7653 12.4349 14.7878 12.3449C14.8103 12.2699 14.7878 12.2099 14.7596 12.2024ZM9.51714 12.2549C9.48339 12.2549 9.46089 12.3299 9.47777 12.3824C9.50589 12.4574 9.52839 12.4874 9.55652 12.5774C9.59027 12.6674 9.62402 12.5999 9.61277 12.5399C9.59589 12.4799 9.57902 12.4124 9.56777 12.3299C9.55652 12.2699 9.53402 12.2549 9.51152 12.2549H9.51714ZM15.4571 12.2549C15.4346 12.2549 15.4178 12.2699 15.4009 12.3299L15.3615 12.5399C15.3503 12.5999 15.384 12.6674 15.4178 12.5774C15.4459 12.4874 15.4628 12.4649 15.4965 12.3824C15.5134 12.3299 15.4853 12.2624 15.4571 12.2549ZM11.6884 12.4649C11.649 12.4649 11.6153 12.5249 11.6321 12.5774C11.6434 12.6674 11.6771 12.7424 11.694 12.8549C11.7165 12.9524 11.7671 12.9074 11.7615 12.8399C11.7574 12.7392 11.748 12.6389 11.7334 12.5399C11.7221 12.4874 11.7053 12.4649 11.6828 12.4649H11.6884ZM13.2859 12.4649C13.269 12.4649 13.2465 12.4874 13.2409 12.5399C13.2244 12.6388 13.2131 12.739 13.2071 12.8399C13.2071 12.9074 13.2578 12.9524 13.2746 12.8549L13.3421 12.5774C13.3534 12.5249 13.3196 12.4649 13.2859 12.4649ZM12.4871 12.5549C12.4421 12.5549 12.4365 12.6299 12.4365 12.6824C12.4331 12.8532 12.3941 13.0194 12.324 13.1624C12.2678 13.2524 12.1946 13.2299 12.1271 13.1774C12.0617 13.1299 11.9996 13.0747 11.9415 13.0124C11.8628 12.9374 11.8065 12.9824 11.8965 13.1549C12.1553 13.6499 12.4365 14.0699 12.4365 14.8799C12.4365 14.9774 12.4534 15.0074 12.4871 15.0074C12.5209 15.0074 12.5321 14.9774 12.5321 14.8724C12.5321 14.0699 12.8134 13.6499 13.0721 13.1474C13.1621 12.9824 13.1059 12.9374 13.0328 13.0124C12.9749 13.0751 12.9128 13.1304 12.8471 13.1774C12.774 13.2299 12.7009 13.2524 12.6503 13.1624C12.5802 13.0194 12.5412 12.8532 12.5378 12.6824C12.5321 12.6299 12.5265 12.5549 12.4815 12.5549H12.4871ZM10.5015 12.4349C10.4978 12.4341 10.494 12.4341 10.4903 12.4349C10.4734 12.4424 10.4678 12.4649 10.4734 12.5099L10.5353 12.8024C10.5521 12.8774 10.614 12.8549 10.6028 12.7649L10.569 12.5324C10.5578 12.4724 10.524 12.4349 10.5015 12.4349ZM14.4728 12.4349C14.4446 12.4349 14.4165 12.4724 14.4053 12.5324C14.3828 12.6374 14.3828 12.6674 14.3715 12.7574C14.3546 12.8549 14.4221 12.8699 14.4334 12.8024L14.5009 12.5024C14.5009 12.4649 14.4953 12.4424 14.4784 12.4349C14.4747 12.4341 14.4709 12.4341 14.4671 12.4349H14.4728ZM9.32027 12.4649C9.28652 12.4649 9.26402 12.5249 9.29777 12.5999C9.33152 12.6899 9.39339 12.7949 9.42152 12.8624C9.44964 12.9224 9.50027 12.8774 9.46652 12.8024C9.43277 12.7274 9.42152 12.6299 9.37652 12.5174C9.37281 12.5016 9.36527 12.4879 9.3551 12.4784C9.34492 12.4689 9.33268 12.4642 9.32027 12.4649ZM15.6484 12.4649C15.6315 12.4649 15.609 12.4799 15.5921 12.5174C15.5528 12.6299 15.5359 12.7199 15.5078 12.8024C15.474 12.8774 15.519 12.9224 15.5471 12.8624C15.5753 12.7949 15.6371 12.6899 15.6709 12.5999C15.7046 12.5249 15.6821 12.4649 15.6484 12.4649ZM7.53714 12.7124C7.50339 12.7124 7.49214 12.8024 7.52589 12.8624C7.56957 12.9361 7.61856 13.004 7.67214 13.0649C7.71714 13.1249 7.72839 13.0499 7.70589 12.9899L7.60464 12.7874C7.57652 12.7349 7.55402 12.7124 7.53714 12.7124ZM17.4315 12.7124C17.4146 12.7124 17.3921 12.7349 17.3696 12.7874L17.2628 12.9899C17.2403 13.0499 17.2515 13.1249 17.3021 13.0649C17.3558 13.004 17.4048 12.9362 17.4484 12.8624C17.4821 12.8024 17.4709 12.7124 17.4315 12.7124ZM7.82402 12.7874C7.79027 12.7874 7.76777 12.8174 7.79589 12.8849L7.90277 13.1699C7.93089 13.2449 8.01527 13.2674 7.98152 13.1549L7.90839 12.8699C7.89152 12.8174 7.85214 12.7949 7.82402 12.7949V12.7874ZM17.1503 12.7874C17.1165 12.7874 17.0771 12.8174 17.0603 12.8699L16.9928 13.1549C16.959 13.2674 17.0434 13.2449 17.0715 13.1699C17.0996 13.0949 17.1446 12.9824 17.1728 12.8849C17.2009 12.8174 17.1784 12.7874 17.1503 12.7874ZM7.27277 12.8174C7.22777 12.8174 7.22777 12.8699 7.26714 12.9074C7.31777 12.9599 7.37964 13.0124 7.43589 13.0799C7.50902 13.1549 7.53152 13.0799 7.49214 13.0199C7.45839 12.9599 7.42464 12.8999 7.32902 12.8324C7.30652 12.8174 7.28964 12.8174 7.27277 12.8174ZM17.6959 12.8174C17.6846 12.8174 17.6621 12.8174 17.6396 12.8324C17.5496 12.8999 17.5103 12.9599 17.4709 13.0199C17.4371 13.0874 17.4653 13.1549 17.5328 13.0799C17.589 13.0124 17.6565 12.9599 17.7015 12.9074C17.7465 12.8699 17.7409 12.8174 17.7015 12.8174H17.6959ZM11.5309 12.8699C11.5028 12.8699 11.4859 12.9074 11.4915 12.9599L11.5478 13.2299C11.559 13.3124 11.6321 13.3124 11.6209 13.2299C11.6096 13.1549 11.604 13.0574 11.5815 12.9374C11.5759 12.8924 11.559 12.8699 11.5365 12.8624C11.5346 12.8622 11.5328 12.8622 11.5309 12.8624V12.8699ZM13.4321 12.8699C13.4153 12.8699 13.3984 12.8924 13.3871 12.9449C13.3646 13.0574 13.359 13.1549 13.3478 13.2374C13.3365 13.3124 13.4096 13.3124 13.4209 13.2299L13.4771 12.9599C13.4884 12.9074 13.4659 12.8699 13.4434 12.8699C13.4397 12.8691 13.4359 12.8691 13.4321 12.8699ZM9.83214 12.7199C9.81527 12.7199 9.80402 12.7724 9.82089 12.8474C9.88056 13.0636 9.91103 13.2921 9.91089 13.5224C9.89402 13.6124 9.85465 13.6199 9.80402 13.5974C9.74884 13.5611 9.69614 13.5185 9.64652 13.4699C9.60152 13.4324 9.55089 13.4774 9.61839 13.5524C9.95589 13.9274 10.1978 14.3549 10.2934 14.8724C10.3046 14.9774 10.3553 14.9924 10.344 14.8724C10.2653 14.2199 10.2484 13.6799 10.3665 13.3499C10.4115 13.2224 10.3665 13.1024 10.299 13.3049C10.2484 13.4399 10.1753 13.4924 10.1134 13.3799C10.0254 13.1969 9.95014 13.0036 9.88839 12.8024C9.87714 12.7499 9.86027 12.7274 9.84339 12.7199C9.84153 12.7195 9.83963 12.7195 9.83777 12.7199H9.83214ZM15.1253 12.7199C15.1084 12.7199 15.0915 12.7499 15.0803 12.7949C15.0409 12.9449 14.9171 13.2599 14.8553 13.3799C14.7934 13.4999 14.7203 13.4399 14.6753 13.3049C14.6021 13.1024 14.5628 13.2224 14.6021 13.3499C14.7203 13.6799 14.7034 14.2199 14.6303 14.8724C14.6134 14.9924 14.664 14.9774 14.6865 14.8724C14.7906 14.3457 15.0243 13.8808 15.3503 13.5524C15.4178 13.4774 15.3671 13.4324 15.3221 13.4774C15.2722 13.5211 15.2195 13.5587 15.1646 13.5899C15.1084 13.6199 15.0746 13.6124 15.0578 13.5149C15.0465 13.4249 15.069 13.2224 15.1534 12.8399C15.1646 12.7799 15.1534 12.7274 15.1365 12.7199C15.1329 12.7182 15.1289 12.7182 15.1253 12.7199ZM8.12214 12.8999C8.09402 12.8999 8.06589 12.9299 8.08277 12.9899C8.10527 13.0949 8.15027 13.1999 8.16714 13.2599C8.18402 13.3274 8.23464 13.2974 8.22339 13.2074L8.19527 12.9749C8.19527 12.9299 8.15589 12.8999 8.12214 12.8999ZM16.8465 12.8999C16.8128 12.8999 16.779 12.9299 16.7734 12.9749L16.7509 13.2074C16.7396 13.2974 16.7903 13.3274 16.8071 13.2599C16.8184 13.1999 16.8634 13.0949 16.8859 12.9899C16.9028 12.9299 16.8803 12.8999 16.8465 12.8999ZM9.17964 12.7724C9.14589 12.7649 9.14027 12.8849 9.16839 12.9374L9.32589 13.1699C9.37089 13.2449 9.39902 13.1774 9.37089 13.1174L9.22464 12.8324C9.20777 12.7949 9.19089 12.7724 9.17964 12.7724ZM15.789 12.7724C15.7778 12.7724 15.7609 12.7949 15.744 12.8324L15.5978 13.1174C15.5696 13.1774 15.5978 13.2449 15.6484 13.1699L15.8003 12.9374C15.8284 12.8849 15.8284 12.7649 15.789 12.7724ZM8.36402 13.0724C8.34152 13.0724 8.32464 13.0874 8.33589 13.1474C8.34714 13.2374 8.36402 13.2974 8.38089 13.3799C8.39777 13.4549 8.43714 13.4474 8.43714 13.3724L8.42027 13.1324C8.41782 13.1145 8.41097 13.0981 8.40079 13.0859C8.39061 13.0737 8.37768 13.0663 8.36402 13.0649V13.0724ZM16.6046 13.0724C16.5915 13.0721 16.5787 13.0779 16.5684 13.0889C16.5581 13.0998 16.551 13.1152 16.5484 13.1324L16.5315 13.3724C16.5315 13.4474 16.5765 13.4624 16.5878 13.3799L16.6384 13.1549C16.6496 13.0874 16.6271 13.0649 16.6046 13.0649V13.0724ZM9.10089 13.1774C9.06714 13.1774 9.03902 13.2299 9.07839 13.2974C9.14027 13.4099 9.21339 13.4849 9.24152 13.5224C9.26402 13.5674 9.3259 13.5524 9.28652 13.4699L9.15714 13.2074C9.14589 13.1774 9.12339 13.1699 9.10089 13.1774ZM15.8509 13.1774C15.8396 13.1774 15.8228 13.1849 15.8171 13.2074L15.6821 13.4699C15.6428 13.5524 15.7046 13.5674 15.7328 13.5299C15.7553 13.4849 15.8284 13.4099 15.8959 13.2974C15.9353 13.2224 15.9015 13.1774 15.8678 13.1774C15.864 13.1769 15.8603 13.1769 15.8565 13.1774H15.8509ZM7.93652 13.4849C7.91402 13.4849 7.90277 13.5149 7.93652 13.5824C8.02339 13.7229 8.08668 13.8866 8.12214 14.0624C8.12777 14.1674 8.09402 14.1674 8.06027 14.1674C7.95339 14.1674 7.90277 14.0624 7.81277 14.0324C7.71714 14.0099 7.70027 14.0699 7.76777 14.1374C8.09019 14.4093 8.37081 14.7606 8.59464 15.1724C8.65089 15.3149 8.72402 15.3599 8.68464 15.2324C8.57535 14.94 8.52864 14.613 8.54964 14.2874C8.57777 14.0774 8.61714 13.9424 8.61152 13.8224C8.61152 13.7099 8.55527 13.7174 8.53839 13.8224L8.48214 14.0324C8.45964 14.0699 8.38089 14.0924 8.31339 13.9649C8.21773 13.8084 8.11236 13.6629 7.99839 13.5299C7.98152 13.5074 7.95902 13.4924 7.94214 13.4849H7.93652ZM17.0321 13.4849C17.0153 13.4849 16.9928 13.4999 16.9703 13.5299C16.8583 13.6633 16.7548 13.8088 16.6609 13.9649C16.5878 14.0924 16.509 14.0699 16.4921 14.0399C16.4665 13.9709 16.4476 13.8979 16.4359 13.8224C16.4134 13.7174 16.3628 13.7099 16.3571 13.8224C16.3571 13.9424 16.3909 14.0774 16.419 14.2874C16.4471 14.4974 16.419 14.8274 16.2896 15.2324C16.2446 15.3599 16.3234 15.3074 16.3796 15.1724C16.6014 14.7608 16.8802 14.4095 17.2009 14.1374C17.2684 14.0699 17.2571 14.0099 17.1615 14.0324C17.0659 14.0624 17.0153 14.1674 16.914 14.1674C16.8803 14.1674 16.8409 14.1674 16.8465 14.0624C16.8521 13.9649 16.9478 13.7324 17.0321 13.5824C17.0659 13.5074 17.0603 13.4849 17.0321 13.4849Z" fill="black"/>
<path d="M8.44141 15.9526L8.55391 16.4101L8.44141 15.9526ZM8.66641 15.8626L8.76766 16.3276L8.66641 15.8626ZM8.91391 15.8026L8.98141 16.2826L8.91391 15.8026ZM9.13891 15.7501L9.21203 16.2226L9.13891 15.7501ZM9.42578 15.7126L9.48203 16.1926L9.42578 15.7126ZM9.73516 15.7126L9.79703 16.1851L9.73516 15.7126ZM10.0389 15.5776L10.0839 16.0576L10.0389 15.5776ZM10.3202 15.6001L10.3652 16.0801L10.3202 15.6001ZM10.5958 15.5551L10.6408 16.0351L10.5958 15.5551ZM10.8658 15.5101L10.8939 15.9976L10.8658 15.5101ZM11.1639 15.5101L11.1864 15.9976L11.1639 15.5101ZM11.4339 15.4876L11.4508 15.9751L11.4339 15.4876ZM11.7264 15.4651L11.7433 15.9451L11.7264 15.4651ZM12.0639 15.4501L12.0808 15.9376L12.0639 15.4501ZM16.5245 15.9526L16.412 16.4101L16.5245 15.9526ZM16.2995 15.8626L16.2039 16.3276L16.2995 15.8626ZM16.0577 15.8026L15.9902 16.2826L16.0577 15.8026ZM15.8327 15.7501L15.7595 16.2226L15.8327 15.7501ZM15.5345 15.7126L15.4783 16.1926L15.5345 15.7126ZM15.2308 15.7126L15.1689 16.1926L15.2308 15.7126ZM14.9327 15.5776L14.8877 16.0576L14.9327 15.5776ZM14.6458 15.6001L14.6008 16.0801L14.6458 15.6001ZM14.3758 15.5551L14.3252 16.0351L14.3758 15.5551ZM14.1002 15.5101L14.072 15.9976L14.1002 15.5101ZM13.802 15.5101L13.7795 15.9976L13.802 15.5101ZM13.5377 15.4876L13.5208 15.9751L13.5377 15.4876ZM13.2395 15.4651L13.2283 15.9451L13.2395 15.4651ZM12.902 15.4501L12.8908 15.9376L12.902 15.4501ZM12.4858 15.4126V15.9526V15.4126Z" fill="#FFD83D"/>
<path fill-rule="evenodd" clip-rule="evenodd" d="M12.487 15.3564C12.5103 15.3564 12.5292 15.3816 12.5292 15.4127V15.9527C12.5292 15.9838 12.5103 16.0089 12.487 16.0089C12.4637 16.0089 12.4448 15.9838 12.4448 15.9527V15.4127C12.4448 15.3816 12.4637 15.3564 12.487 15.3564ZM12.0631 15.394C12.0864 15.3926 12.1062 15.4166 12.1072 15.4476L12.1241 15.9351C12.1252 15.9661 12.1072 15.9925 12.0839 15.9939C12.0606 15.9953 12.0409 15.9713 12.0398 15.9403L12.0229 15.4528C12.0219 15.4218 12.0399 15.3954 12.0631 15.394ZM12.9045 15.394C12.9278 15.3949 12.9461 15.4209 12.9454 15.4519L12.9341 15.9394C12.9334 15.9705 12.914 15.9949 12.8907 15.9939C12.8674 15.993 12.8491 15.967 12.8498 15.936L12.861 15.4485C12.8618 15.4174 12.8812 15.393 12.9045 15.394ZM11.7256 15.409C11.7489 15.4076 11.7686 15.4315 11.7697 15.4626L11.7866 15.9426C11.7877 15.9736 11.7697 15.9999 11.7464 16.0014C11.7232 16.0028 11.7034 15.9789 11.7023 15.9478L11.6854 15.4678C11.6844 15.4368 11.7023 15.4105 11.7256 15.409ZM13.242 15.409C13.2653 15.4099 13.2836 15.4359 13.2829 15.467L13.2716 15.947C13.2709 15.978 13.2514 16.0024 13.2281 16.0014C13.2049 16.0004 13.1866 15.9745 13.1873 15.9434L13.1985 15.4634C13.1993 15.4324 13.2187 15.408 13.242 15.409ZM11.4331 15.4315C11.4564 15.4301 11.4762 15.4541 11.4772 15.4851L11.4941 15.9726C11.4952 16.0036 11.4772 16.03 11.4539 16.0314C11.4306 16.0328 11.4109 16.0088 11.4098 15.9778L11.3929 15.4903C11.3919 15.4593 11.4099 15.4329 11.4331 15.4315ZM13.5408 15.4315C13.5641 15.4329 13.5821 15.4593 13.581 15.4903L13.5641 15.9778C13.563 16.0088 13.5433 16.0328 13.52 16.0314C13.4967 16.03 13.4787 16.0036 13.4798 15.9726L13.4967 15.4851C13.4978 15.4541 13.5175 15.4301 13.5408 15.4315ZM10.8637 15.4541C10.887 15.4517 10.9072 15.4749 10.909 15.5059L10.9372 15.9934C10.9389 16.0244 10.9216 16.0514 10.8983 16.0538C10.8751 16.0562 10.8548 16.033 10.853 16.002L10.8249 15.5145C10.8231 15.4835 10.8405 15.4565 10.8637 15.4541ZM14.1046 15.4541C14.1278 15.4565 14.1452 15.4835 14.1434 15.5145L14.1153 16.002C14.1135 16.033 14.0932 16.0562 14.07 16.0538C14.0467 16.0514 14.0294 16.0244 14.0312 15.9934L14.0593 15.5059C14.0611 15.4749 14.0813 15.4517 14.1046 15.4541ZM11.1625 15.4541C11.1858 15.4521 11.2058 15.4757 11.2072 15.5067L11.2297 15.9942C11.2311 16.0252 11.2134 16.0519 11.1902 16.0538C11.1669 16.0557 11.1469 16.0322 11.1455 16.0012L11.123 15.5137C11.1216 15.4826 11.1392 15.456 11.1625 15.4541ZM13.8058 15.4541C13.8291 15.456 13.8468 15.4826 13.8453 15.5137L13.8228 16.0012C13.8214 16.0322 13.8014 16.0557 13.7781 16.0538C13.7549 16.0519 13.7372 16.0252 13.7386 15.9942L13.7611 15.5067C13.7625 15.4757 13.7825 15.4521 13.8058 15.4541ZM14.3828 15.4995C14.4059 15.5038 14.422 15.5323 14.4187 15.563L14.3681 16.043C14.3649 16.0738 14.3435 16.0952 14.3205 16.0909C14.2974 16.0866 14.2813 16.0581 14.2846 16.0274L14.3352 15.5474C14.3384 15.5166 14.3598 15.4952 14.3828 15.4995ZM10.5917 15.4994C10.6149 15.4955 10.6359 15.5174 10.6388 15.5482L10.6838 16.0282C10.6867 16.059 10.6703 16.0872 10.6472 16.091C10.6241 16.0949 10.603 16.073 10.6001 16.0422L10.5551 15.5622C10.5522 15.5313 10.5686 15.5032 10.5917 15.4994ZM10.0349 15.5219C10.058 15.518 10.0791 15.5399 10.082 15.5707L10.127 16.0507C10.1298 16.0815 10.1134 16.1097 10.0903 16.1135C10.0672 16.1174 10.0461 16.0955 10.0432 16.0647L9.99823 15.5847C9.99534 15.5538 10.0117 15.5257 10.0349 15.5219ZM14.9391 15.5219C14.9622 15.5257 14.9786 15.5538 14.9757 15.5847L14.9307 16.0647C14.9278 16.0955 14.9067 16.1174 14.8836 16.1135C14.8605 16.1097 14.8441 16.0815 14.847 16.0507L14.892 15.5707C14.8949 15.5399 14.916 15.518 14.9391 15.5219ZM10.3161 15.5444C10.3392 15.5405 10.3603 15.5624 10.3632 15.5932L10.4082 16.0732C10.4111 16.104 10.3947 16.1322 10.3716 16.136C10.3485 16.1399 10.3274 16.118 10.3245 16.0872L10.2795 15.6072C10.2766 15.5763 10.293 15.5482 10.3161 15.5444ZM14.6522 15.5444C14.6753 15.5482 14.6917 15.5763 14.6888 15.6072L14.6438 16.0872C14.6409 16.118 14.6199 16.1399 14.5967 16.136C14.5736 16.1322 14.5572 16.104 14.5601 16.0732L14.6051 15.5932C14.608 15.5624 14.6291 15.5405 14.6522 15.5444ZM9.72908 15.6573C9.75204 15.6519 9.77389 15.6724 9.7779 15.703L9.83977 16.1755C9.84378 16.2061 9.82842 16.2353 9.80547 16.2406C9.78252 16.246 9.76066 16.2255 9.75666 16.1949L9.69478 15.7224C9.69077 15.6918 9.70613 15.6626 9.72908 15.6573ZM15.2391 15.6573C15.2621 15.6625 15.2775 15.6916 15.2735 15.7222L15.2117 16.2022C15.2077 16.2328 15.1859 16.2534 15.1629 16.2481C15.14 16.2429 15.1246 16.2138 15.1285 16.1832L15.1904 15.7032C15.1943 15.6726 15.2161 15.652 15.2391 15.6573ZM9.42045 15.6571C9.44347 15.6523 9.46505 15.6733 9.46865 15.704L9.5249 16.184C9.52849 16.2147 9.51275 16.2435 9.48973 16.2483C9.46671 16.2531 9.44513 16.2321 9.44153 16.2014L9.38528 15.7214C9.38169 15.6907 9.39743 15.6619 9.42045 15.6571ZM15.5422 15.6571C15.5652 15.6619 15.581 15.6907 15.5774 15.7214L15.5211 16.2014C15.5175 16.2321 15.496 16.2531 15.473 16.2483C15.4499 16.2435 15.4342 16.2147 15.4378 16.184L15.494 15.704C15.4976 15.6733 15.5192 15.6523 15.5422 15.6571ZM9.13156 15.6951C9.15438 15.6888 9.1767 15.7084 9.18141 15.7388L9.25453 16.2113C9.25924 16.2418 9.24456 16.2715 9.22174 16.2778C9.19892 16.2841 9.17661 16.2645 9.1719 16.2341L9.09877 15.7616C9.09406 15.7311 9.10874 15.7014 9.13156 15.6951ZM15.8424 15.6951C15.8652 15.7014 15.8799 15.7311 15.8752 15.7616L15.802 16.2341C15.7973 16.2645 15.775 16.2841 15.7522 16.2778C15.7294 16.2715 15.7147 16.2418 15.7194 16.2113L15.7925 15.7388C15.7972 15.7084 15.8195 15.6888 15.8424 15.6951ZM8.90731 15.7474C8.93022 15.7417 8.95226 15.7618 8.95655 15.7923L9.02405 16.2723C9.02835 16.3029 9.01326 16.3323 8.99036 16.338C8.96746 16.3437 8.94542 16.3236 8.94112 16.2931L8.87362 15.8131C8.86933 15.7825 8.88441 15.7531 8.90731 15.7474ZM16.0666 15.7474C16.0895 15.7531 16.1046 15.7825 16.1003 15.8131L16.0328 16.2931C16.0285 16.3236 16.0065 16.3437 15.9836 16.338C15.9607 16.3323 15.9456 16.3029 15.9499 16.2723L16.0174 15.7923C16.0217 15.7618 16.0437 15.7417 16.0666 15.7474ZM8.65583 15.8087C8.6782 15.8 8.70161 15.8172 8.7081 15.847L8.80935 16.312C8.81585 16.3418 8.80298 16.3731 8.7806 16.3817C8.75823 16.3904 8.73482 16.3732 8.72832 16.3434L8.62707 15.8784C8.62058 15.8485 8.63345 15.8173 8.65583 15.8087ZM16.3119 15.8084C16.3343 15.8167 16.3476 15.8476 16.3414 15.8776L16.2458 16.3426C16.2396 16.3725 16.2164 16.3902 16.1939 16.3819C16.1715 16.3737 16.1582 16.3428 16.1644 16.3128L16.26 15.8478C16.2662 15.8179 16.2894 15.8002 16.3119 15.8084ZM8.42945 15.8992C8.45159 15.8896 8.47542 15.9057 8.48268 15.9352L8.59518 16.3927C8.60244 16.4222 8.59037 16.454 8.56823 16.4636C8.54609 16.4733 8.52226 16.4572 8.515 16.4277L8.4025 15.9702C8.39524 15.9407 8.40731 15.9089 8.42945 15.8992ZM16.5389 15.8992C16.561 15.9089 16.5731 15.9407 16.5658 15.9702L16.4533 16.4277C16.446 16.4572 16.4222 16.4733 16.4001 16.4636C16.3779 16.454 16.3659 16.4222 16.3731 16.3927L16.4856 15.9352C16.4929 15.9057 16.5167 15.8896 16.5389 15.8992Z" fill="black"/>
</g>
<defs>
<clipPath id="clip0_45_17214">
<rect width="45" height="45" fill="white"/>
</clipPath>
</defs>
</svg>
