<svg width="45" height="45" viewBox="0 0 45 45" fill="none" xmlns="http://www.w3.org/2000/svg">
<g clip-path="url(#clip0_45_17301)">
<path d="M0 0H45V45H0V0Z" fill="white"/>
<path d="M0 31.5H45V45H0V31.5Z" fill="#009543"/>
<path d="M0 0H45V13.5H0V0Z" fill="#00209F"/>
<path d="M22.4727 14.3436C22.2828 14.3436 22.093 14.6248 22.093 14.6248L22.1141 17.6623L21.3898 18.6655H21.9734V20.3998L18.5281 26.5873L18.0219 26.3436L17.1289 28.8748C17.1289 28.8748 19.3297 30.7123 22.5219 30.6561C26.0234 30.6092 27.9289 28.7905 27.9289 28.7905L27.0148 26.2967L26.5578 26.5592L23.0703 20.4092V18.6186H23.6469L22.8594 17.6248V14.6061C22.8594 14.6061 22.6695 14.3248 22.4727 14.3342V14.3436Z" fill="black"/>
<path fill-rule="evenodd" clip-rule="evenodd" d="M22.901 14.5562C22.901 14.5562 22.9011 14.5562 22.8592 14.6064L22.901 14.5562L22.9155 14.5776V17.5929L23.788 18.6939H23.1264V20.3843L26.5759 26.4674L27.0417 26.1998L28.0002 28.8148L27.9615 28.8517L27.9288 28.7908C27.9615 28.8517 27.9615 28.8518 27.9615 28.8518L27.9614 28.8519L27.961 28.8522L27.9598 28.8534C27.9588 28.8543 27.9573 28.8557 27.9553 28.8575C27.9514 28.8612 27.9456 28.8665 27.938 28.8734C27.9227 28.8871 27.9001 28.907 27.8702 28.9323C27.8103 28.983 27.7212 29.055 27.6035 29.1414C27.368 29.3142 27.018 29.5445 26.5582 29.7761C25.6387 30.2394 24.2804 30.7078 22.5224 30.7314C20.9181 30.7596 19.5632 30.3121 18.6093 29.8575C18.1322 29.6301 17.7553 29.401 17.4973 29.2284C17.3683 29.1421 17.269 29.07 17.2019 29.0192C17.1683 28.9939 17.1427 28.9739 17.1254 28.9602C17.1168 28.9533 17.1103 28.948 17.1058 28.9444L17.1008 28.9402L17.0994 28.9391L17.099 28.9387C17.0989 28.9387 17.0989 28.9387 17.1288 28.8751L17.099 28.9387L17.0566 28.9034L17.9927 26.2501L18.5078 26.4982L21.9171 20.3753V18.7408H21.2575L22.0575 17.6327L22.0364 14.5966L22.051 14.575L22.0928 14.6251C22.051 14.575 22.051 14.575 22.051 14.575L22.0511 14.5748L22.0513 14.5745L22.0519 14.5737L22.0538 14.5709C22.0555 14.5685 22.0578 14.5652 22.0609 14.561C22.0669 14.5526 22.0757 14.5409 22.0867 14.5269C22.1087 14.499 22.1401 14.4617 22.178 14.4242C22.2393 14.3637 22.324 14.2962 22.4163 14.2754V14.2621L22.4705 14.2596C22.588 14.254 22.6975 14.3341 22.7726 14.4061C22.8111 14.443 22.8429 14.4801 22.8651 14.508C22.8762 14.522 22.885 14.5337 22.8911 14.5421C22.8942 14.5463 22.8965 14.5497 22.8982 14.5521L22.9002 14.5549L22.9008 14.5558L22.9009 14.556L22.901 14.5562ZM22.1493 14.655L22.1704 17.6926L21.5219 18.5908H22.0296V20.4249L18.5482 26.6771L18.0508 26.4376L17.2013 28.8457C17.2162 28.8574 17.2349 28.8718 17.2573 28.8887C17.3229 28.9383 17.4205 29.0092 17.5477 29.0943C17.8022 29.2645 18.1749 29.4912 18.6471 29.7162C19.5916 30.1663 20.9331 30.6094 22.521 30.5814L22.5212 30.5814C24.2646 30.558 25.6099 30.0936 26.5185 29.6358C26.9728 29.4069 27.318 29.1796 27.5492 29.01C27.6648 28.9251 27.7519 28.8547 27.8099 28.8057C27.8286 28.7899 27.8442 28.7764 27.8568 28.7653L26.9877 26.3942L26.5394 26.6517L23.0139 20.4347V18.5439H23.5055L22.803 17.6574V14.6366C22.7988 14.631 22.7938 14.6245 22.7879 14.6172C22.7684 14.5926 22.7404 14.56 22.7069 14.5278C22.6534 14.4765 22.591 14.4314 22.5288 14.4155V14.4189H22.4725C22.3963 14.4189 22.3137 14.4769 22.245 14.5448C22.2117 14.5776 22.1838 14.6107 22.1643 14.6355C22.1585 14.6428 22.1535 14.6494 22.1493 14.655ZM22.5224 30.7314C22.5223 30.7314 22.5224 30.7314 22.5224 30.7314L22.5217 30.6564L22.5225 30.7314C22.5224 30.7314 22.5224 30.7314 22.5224 30.7314Z" fill="black"/>
<path fill-rule="evenodd" clip-rule="evenodd" d="M22.438 15.2906C22.0053 15.2991 21.646 15.4807 21.3792 15.8249C21.1108 16.1713 20.9097 16.7164 20.8445 17.5148C20.7843 18.2812 20.9492 19.2493 21.1446 20.0589C21.2407 20.457 21.341 20.8041 21.4173 21.0515C21.4374 21.1167 21.4557 21.1748 21.4719 21.225H23.4919C23.5093 21.1723 23.5293 21.1107 23.5511 21.0413C23.6304 20.7896 23.7342 20.4368 23.8322 20.0326C24.032 19.2092 24.1933 18.2306 24.1114 17.4621L24.1113 17.4616C24.0244 16.6362 23.843 16.1056 23.5873 15.7796C23.3369 15.4605 22.9747 15.2865 22.438 15.2906ZM23.6727 21.6V21.975H21.1107L21.0346 21.7598L21.2891 21.6C21.0346 21.7598 21.0346 21.7597 21.0346 21.7596L21.0343 21.7589L21.0337 21.7571L21.0316 21.751C21.0297 21.7457 21.0271 21.7382 21.0238 21.7284C21.0171 21.709 21.0075 21.6807 20.9954 21.6444C20.9713 21.5719 20.9372 21.4672 20.897 21.3366C20.8166 21.0757 20.7108 20.7098 20.6092 20.2887C20.4091 19.4602 20.2119 18.3662 20.2851 17.4358L20.2852 17.4351L20.2853 17.4345C20.3608 16.5082 20.6026 15.7833 20.988 15.286C21.3749 14.7868 21.8801 14.5511 22.4312 14.5406L22.4323 14.5406L22.4335 14.5406C23.0633 14.5356 23.5867 14.7413 23.976 15.2375C24.3601 15.7271 24.5725 16.448 24.6683 17.3569C24.7692 18.304 24.5719 19.4205 24.3674 20.2635C24.2633 20.6925 24.1535 21.0656 24.0698 21.3316C24.0278 21.4648 23.9922 21.5716 23.967 21.6457C23.9543 21.6827 23.9442 21.7116 23.9372 21.7315C23.9359 21.7353 23.9346 21.7387 23.9335 21.7418C23.9317 21.747 23.9302 21.7512 23.929 21.7545L23.9267 21.7608L23.9261 21.7627L23.9258 21.7634C23.9258 21.7635 23.9257 21.7636 23.6727 21.6Z" fill="black"/>
<path d="M18.3148 27.3845C18.2727 27.4501 17.9844 28.2188 17.9844 28.2188L18.4766 28.0782L18.3148 27.3845ZM18.5961 28.3688L18.0758 28.5938L18.7016 28.922L18.5961 28.3688ZM18.8281 27.4032L19.0883 28.4251L19.7211 28.1813L19.5594 27.6938L18.8281 27.4032ZM19.2359 28.7907L19.3203 29.2032L20.1641 29.4845L19.8266 28.5282L19.2359 28.7907ZM20.1641 27.9188L20.4664 28.8751L21.0992 28.547L20.8883 28.1251L20.1641 27.9188ZM20.5859 29.222L20.6844 29.5782L21.6688 29.7657L21.2539 28.9032L20.5789 29.222H20.5859ZM21.5281 28.1907L21.8937 29.0438L22.8078 28.5938L22.7094 28.2657L21.5281 28.2001V28.1907ZM22.0625 29.3532L22.2523 29.8032L23.3914 29.7563L22.9695 28.9126L22.0555 29.3532H22.0625ZM23.2648 28.2282L23.5742 28.9407L24.3055 28.472L24.1086 28.097L23.2648 28.2282ZM24.4602 28.772L23.7359 29.2501L23.9258 29.672L24.8961 29.4657L24.4602 28.772ZM24.6922 28.022L25.0648 28.6501L25.6766 28.0032L25.4656 27.722L24.6922 28.022ZM25.8102 28.3501L25.2266 28.9407L25.3812 29.3063L26.1828 29.0251L25.8102 28.3501ZM26.6117 27.1313L26.7523 27.4032L26.3516 28.2001L25.9367 27.4876L26.6117 27.1313ZM26.8859 27.8157L27.132 28.472L26.6398 28.697L26.5977 28.3876L26.8789 27.8251L26.8859 27.8157Z" fill="white"/>
</g>
<defs>
<clipPath id="clip0_45_17301">
<rect width="45" height="45" fill="white"/>
</clipPath>
</defs>
</svg>
