<svg width="45" height="45" viewBox="0 0 45 45" fill="none" xmlns="http://www.w3.org/2000/svg">
<g clip-path="url(#clip0_45_17328)">
<path d="M45 0H0V45H45V0Z" fill="#C1272D"/>
<path fill-rule="evenodd" clip-rule="evenodd" d="M22.5013 15.0435L23.7594 20.2078H27.8189L24.5334 23.3852L25.7861 28.5272L22.5013 25.3505L19.2164 28.5272L20.4691 23.3852L17.1836 20.2078H21.2432L22.5013 15.0435ZM20.9759 21.3047H19.7189L20.7363 22.2885L20.9759 21.3047ZM21.4363 22.9655L21.8409 21.3047H23.1616L23.5662 22.9655L22.5013 23.9955L21.4363 22.9655ZM21.1691 24.0622L20.7798 25.6603L21.8007 24.673L21.1691 24.0622ZM23.2018 24.673L24.2227 25.6603L23.8334 24.0622L23.2018 24.673ZM24.2663 22.2885L25.2836 21.3047H24.0266L24.2663 22.2885ZM22.8944 20.2078H22.1081L22.5013 18.594L22.8944 20.2078Z" fill="#006233"/>
</g>
<defs>
<clipPath id="clip0_45_17328">
<rect width="45" height="45" fill="white"/>
</clipPath>
</defs>
</svg>
