<svg width="45" height="45" viewBox="0 0 45 45" fill="none" xmlns="http://www.w3.org/2000/svg">
<g clip-path="url(#clip0_45_17550)">
<path fill-rule="evenodd" clip-rule="evenodd" d="M0 0H44.993V45H0V0Z" fill="#3B5AA3"/>
<path fill-rule="evenodd" clip-rule="evenodd" d="M0 43.7812L44.993 0V8.15625L0 45V43.7812Z" fill="#E2AE57"/>
<path fill-rule="evenodd" clip-rule="evenodd" d="M1.575 44.9998L45 16.7998L44.993 7.84668L0 44.9998H1.575ZM12.3328 1.4248L11.8828 11.0623L9.98438 4.9123L10.7156 11.4561L7.76953 6.16855L9.70312 12.1967L5.83594 8.20293L8.84531 13.2279L4.47891 10.6404L8.30391 14.5029L3.54375 13.6592L8.04375 16.0404L0.984375 16.9029L8.05781 17.5311L3.57891 19.9873L8.28984 19.1436L4.47187 22.8936L8.90156 20.3061L5.87812 25.3686L9.71719 21.4967L7.81875 27.3936L10.8844 22.2654L10.0547 28.6498L11.9883 22.6779L12.4242 32.1186L13.1062 22.7061L14.7727 28.7061L14.1398 22.2373L17.1914 27.3748L15.1805 21.3748L19.0195 25.4998L15.968 20.3529L20.5312 22.8842L16.4953 18.9561L21.4102 20.0623L16.6992 17.6529L24.0188 17.0436L16.7063 16.1342L21.5227 13.9967L16.5305 14.8404L20.6508 10.9967L16.0102 13.4811L19.2164 8.29668L15.307 12.3654L17.1844 6.14043L14.1539 11.4279L14.8078 4.82793L13.0008 11.0623L12.3258 1.4248H12.3328Z" fill="white"/>
</g>
<defs>
<clipPath id="clip0_45_17550">
<rect width="45" height="45" fill="white"/>
</clipPath>
</defs>
</svg>
