<svg width="45" height="45" viewBox="0 0 45 45" fill="none" xmlns="http://www.w3.org/2000/svg">
<g clip-path="url(#clip0_45_17555)">
<path d="M0 0H45V45H0V0Z" fill="#D20000"/>
<path d="M0 0H6.75L22.5 21.6937L38.25 0H45L0 45H6.75L22.5 23.3063L38.25 45H45L0 0ZM45 18V27L0 18V27L45 18ZM19.6875 0L22.5 19.2844L25.3125 0H19.6875ZM19.6875 45L22.5 25.7156L25.3125 45H19.6875Z" fill="#FFE600"/>
<path d="M22.4992 29.7282C25.4932 29.7282 27.9203 26.4921 27.9203 22.5001C27.9203 18.5081 25.4932 15.272 22.4992 15.272C19.5052 15.272 17.0781 18.5081 17.0781 22.5001C17.0781 26.4921 19.5052 29.7282 22.4992 29.7282Z" fill="#FFE600"/>
<path fill-rule="evenodd" clip-rule="evenodd" d="M22.5008 16.0733C19.8388 16.0733 17.6809 18.9506 17.6809 22.4999C17.6809 26.0492 19.8388 28.9265 22.5008 28.9265C25.1628 28.9265 27.3207 26.0492 27.3207 22.4999C27.3207 18.9506 25.1628 16.0733 22.5008 16.0733ZM16.4785 22.4999C16.4785 18.0652 19.1748 14.4702 22.5008 14.4702C25.8268 14.4702 28.523 18.0652 28.523 22.4999C28.523 26.9346 25.8268 30.5296 22.5008 30.5296C19.1748 30.5296 16.4785 26.9346 16.4785 22.4999Z" fill="#D20000"/>
</g>
<defs>
<clipPath id="clip0_45_17555">
<rect width="45" height="45" fill="white"/>
</clipPath>
</defs>
</svg>
