<svg width="45" height="45" viewBox="0 0 45 45" fill="none" xmlns="http://www.w3.org/2000/svg">
<g clip-path="url(#clip0_45_17583)">
<path d="M0 0H45V45H0V0Z" fill="#00785E"/>
<path d="M20.7422 10.1906L23.5898 12.9562L22.5 8.48438L21.4102 12.9562L24.2648 10.1906H20.7422Z" fill="#FBD116"/>
<path d="M22.5016 31.0874H15.2945C15.2037 30.9647 15.1146 30.8396 15.0273 30.7124H22.5016C22.5306 30.7261 22.5557 30.7515 22.5733 30.7851C22.591 30.8187 22.6003 30.8589 22.6 30.8999C22.6 30.9749 22.5648 31.0593 22.5016 31.0874ZM22.5016 28.153C22.583 27.9323 22.6124 27.6839 22.5859 27.4405C22.5724 27.3165 22.5439 27.1962 22.5016 27.0843C21.8538 27.9063 21.0714 28.5161 20.2164 28.8655C19.6807 29.0826 19.1239 29.1932 18.5641 29.1937H14.1273C14.2568 29.4498 14.3928 29.6999 14.5352 29.9437H18.8242C20.2305 29.9437 21.5102 29.2687 22.5016 28.153ZM14.7953 25.8374C14.5765 25.9463 14.3465 26.0095 14.1133 26.0249C14.6476 26.8348 15.3053 27.4837 16.0424 27.9282C16.7795 28.3727 17.5793 28.6028 18.3883 28.603C19.1571 28.6033 19.918 28.3957 20.625 27.9929C21.3319 27.59 21.9703 27.0003 22.5016 26.2593C22.6992 24.4332 22.8049 22.5916 22.818 20.7468C22.8349 18.6235 22.7291 16.5016 22.5016 14.3999C22.0375 14.9624 21.1656 16.153 20.7578 17.9905C20.6049 18.6942 20.5291 19.4236 20.5328 20.1562C20.5326 21.6587 20.8679 23.1274 21.4961 24.3749C20.7221 23.048 20.3015 21.4153 20.3008 19.7343C20.3008 18.5718 20.4977 17.4655 20.8492 16.4812C20.6045 16.1353 20.4239 15.7179 20.3219 15.2624C19.8357 16.4057 19.5812 17.6981 19.5836 19.0124C19.5836 20.6999 19.9984 22.2655 20.7016 23.5218C20.0402 22.5952 19.2369 21.8693 18.3464 21.3937C17.4558 20.9181 16.4989 20.7039 15.5406 20.7655C15.7349 21.0048 15.8967 21.2871 16.0188 21.5999C16.9207 21.6013 17.813 21.8463 18.642 22.32C19.471 22.7937 20.2194 23.4863 20.8422 24.3562C19.6401 23.0124 18.1217 22.2757 16.5531 22.2749C15.6674 22.2727 14.7903 22.5053 13.9727 22.9593C14.4111 24.505 15.215 25.8184 16.2627 26.7013C17.3105 27.5841 18.5452 27.9884 19.7805 27.853C19.45 27.928 19.1125 27.9749 18.768 27.9749C17.2877 27.9784 15.8649 27.2115 14.8023 25.8374H14.7953ZM22.5016 34.1624H18.768C19.9563 34.7905 21.2233 35.1118 22.5016 35.1093C22.5595 34.9649 22.5908 34.8042 22.593 34.6405C22.592 34.4736 22.5606 34.3096 22.5016 34.1624ZM22.5016 31.8655H15.9203C16.098 32.0677 16.281 32.2615 16.4688 32.4468H22.5016C22.5584 32.3687 22.5911 32.2649 22.593 32.1562C22.5945 32.1018 22.5871 32.0476 22.5713 31.9974C22.5555 31.9472 22.5317 31.9022 22.5016 31.8655ZM22.5016 33.0374H17.1086C17.4351 33.313 17.7731 33.5634 18.1211 33.7874H22.5016C22.558 33.67 22.5873 33.5331 22.5859 33.3937C22.5824 33.2669 22.5533 33.1438 22.5016 33.0374Z" fill="white"/>
<path d="M14.0977 16.3876L15.8836 18.6001L15.4125 15.4126L14.3859 18.3563L16.5164 16.7813L14.0977 16.3876ZM16.6922 13.3876L19.132 13.4438L17.1844 11.4751L17.8945 14.597L18.6891 11.5126L16.6922 13.3876Z" fill="#FBD116"/>
</g>
<defs>
<clipPath id="clip0_45_17583">
<rect width="45" height="45" fill="white"/>
</clipPath>
</defs>
</svg>
