<svg width="45" height="45" viewBox="0 0 45 45" fill="none" xmlns="http://www.w3.org/2000/svg">
<g clip-path="url(#clip0_45_17758)">
<path fill-rule="evenodd" clip-rule="evenodd" d="M22.5 0H45V45H22.5V0Z" fill="#CE0000"/>
<path fill-rule="evenodd" clip-rule="evenodd" d="M0 0H22.5V45H0V0Z" fill="white"/>
<path fill-rule="evenodd" clip-rule="evenodd" d="M10.9086 13.2987C10.9086 13.4336 10.8074 13.5235 10.6838 13.5235C10.5489 13.5235 10.459 13.4336 10.459 13.3137C10.459 13.1938 10.5489 13.0889 10.6838 13.0889C10.8074 13.0889 10.9086 13.1938 10.9086 13.3137V13.2987Z" fill="#F1EEEE"/>
<path fill-rule="evenodd" clip-rule="evenodd" d="M3.70312 12.2494V17.8245H7.8957C7.8957 18.7537 8.59259 19.6829 9.28948 19.6829V25.258H13.4821V19.6829C14.179 19.6829 14.8758 18.7537 14.8758 17.8245H19.0572V12.2494H14.8646C14.8646 11.3202 14.1677 10.391 13.4708 10.391V4.81592H9.28948V10.391C8.58135 10.391 7.88446 11.3202 7.88446 12.2494H3.70312Z" fill="#CC0000"/>
<path fill-rule="evenodd" clip-rule="evenodd" d="M3.84961 12.4291V17.6445H8.03095C8.03095 18.5737 8.72784 19.5029 9.42473 19.5029V25.078H13.3251V19.5179C14.022 19.5179 14.7188 18.5887 14.7188 17.6595H18.9114V12.4441H14.7301C14.7301 11.5149 14.0332 10.5857 13.3363 10.5857V4.99561H9.42473V10.5707C8.72784 10.5707 8.03095 11.4999 8.03095 12.4291H3.84961Z" fill="#FFE600"/>
<path fill-rule="evenodd" clip-rule="evenodd" d="M3.98438 12.6239V17.4497H8.16571C8.16571 18.3789 8.8626 19.3081 9.55949 19.3081V24.8832H13.1901V19.3081C13.887 19.3081 14.5838 18.3789 14.5838 17.4497H18.7652V12.6239H14.5838C14.5838 11.6947 13.887 10.7655 13.1901 10.7655V5.19043H9.55949V10.7506C8.8626 10.7506 8.16571 11.6797 8.16571 12.6089H3.98438V12.6239Z" fill="#707070"/>
<path fill-rule="evenodd" clip-rule="evenodd" d="M4.13038 12.8041V17.2702H8.31172C8.31172 18.1994 9.00861 19.1286 9.7055 19.1286V24.6887H13.0438V19.1136C13.7407 19.1136 14.4376 18.1844 14.4376 17.2552H18.6189V12.7891H14.4376C14.4376 11.8599 13.7407 10.9307 13.0438 10.9307V5.37061H9.7055V10.9457C9.00861 10.9457 8.31172 11.8749 8.31172 12.8041H4.11914H4.13038Z" fill="#A0A0A0"/>
<path fill-rule="evenodd" clip-rule="evenodd" d="M9.73891 10.481C9.97495 10.8107 9.78387 11.605 9.2893 12.2644C8.79473 12.9238 8.21024 13.1636 7.96296 12.8639C7.71568 12.5192 7.918 11.7249 8.41257 11.0655C8.90713 10.406 9.49162 10.1663 9.73891 10.481Z" fill="#D0D0D0"/>
<path fill-rule="evenodd" clip-rule="evenodd" d="M9.43501 10.8709C9.68229 11.2006 9.61485 11.815 9.28888 12.2646C8.96292 12.7143 8.50207 12.7892 8.25479 12.4595C8.00751 12.1298 8.07495 11.5153 8.40091 11.0807C8.72688 10.6461 9.18772 10.5561 9.43501 10.8709Z" fill="#808080"/>
<path fill-rule="evenodd" clip-rule="evenodd" d="M8.21094 11.8599L8.30086 11.74L8.69426 11.9947L8.50318 11.4702L8.60434 11.3353L8.99775 12.3844L8.21094 11.8599ZM8.79543 11.0805L8.90783 10.9307L9.49231 11.74L9.39115 11.8599L8.79543 11.0805Z" fill="#D0D0D0"/>
<path fill-rule="evenodd" clip-rule="evenodd" d="M14.7857 12.849C14.5385 13.1787 13.9427 12.9089 13.4594 12.2495C12.9761 11.5901 12.7625 10.8108 13.0098 10.4811C13.2571 10.1513 13.8528 10.4211 14.3474 11.0805C14.8419 11.7399 15.0218 12.5193 14.797 12.849H14.7857Z" fill="#D0D0D0"/>
<path fill-rule="evenodd" clip-rule="evenodd" d="M14.4921 12.4592C14.2448 12.789 13.7839 12.699 13.458 12.2644C13.132 11.8298 13.0646 11.2153 13.3006 10.8856C13.5479 10.5559 14.02 10.6458 14.3459 11.0804C14.6719 11.5151 14.7394 12.1295 14.4921 12.4592Z" fill="#808080"/>
<path fill-rule="evenodd" clip-rule="evenodd" d="M13.7528 10.8105L13.8539 10.9454L13.6516 11.47L14.045 11.2002L14.1574 11.3501L13.3594 11.8596L13.7528 10.8105ZM14.3485 11.6049L14.4384 11.7247L13.8539 12.5191L13.7528 12.3842L14.3485 11.6049Z" fill="#D0D0D0"/>
<path fill-rule="evenodd" clip-rule="evenodd" d="M13.0098 19.5927C12.7626 19.263 12.9649 18.4687 13.4594 17.8093C13.954 17.1499 14.5385 16.8951 14.7858 17.2098C15.0331 17.5395 14.8307 18.3338 14.3362 18.9933C13.8416 19.6527 13.2571 19.9075 13.0098 19.5927Z" fill="#D0D0D0"/>
<path fill-rule="evenodd" clip-rule="evenodd" d="M13.3134 19.1882C13.0661 18.8585 13.1335 18.2441 13.4595 17.8095C13.7855 17.3748 14.2463 17.2849 14.4936 17.6146C14.7409 17.9443 14.6734 18.5588 14.3475 18.9934C14.0215 19.428 13.5607 19.518 13.3021 19.1882H13.3134Z" fill="#808080"/>
<path fill-rule="evenodd" clip-rule="evenodd" d="M14.5397 18.1989L14.4385 18.3487L14.0451 18.079L14.2474 18.6035L14.1463 18.7234L13.7529 17.6743L14.5397 18.1989ZM13.9664 18.9932L13.854 19.128L13.2695 18.3337L13.3707 18.1989L13.9664 18.9932Z" fill="#D0D0D0"/>
<path fill-rule="evenodd" clip-rule="evenodd" d="M7.9624 17.2251C8.20968 16.8954 8.80541 17.1651 9.28874 17.8096C9.77206 18.454 9.97439 19.2633 9.73834 19.578C9.49106 19.9077 8.89533 19.6529 8.40077 18.9935C7.9062 18.3341 7.72636 17.5398 7.95116 17.2251H7.9624Z" fill="#D0D0D0"/>
<path fill-rule="evenodd" clip-rule="evenodd" d="M8.25479 17.6146C8.50207 17.2849 8.96292 17.3748 9.28888 17.8095C9.61485 18.2441 9.68229 18.8585 9.43501 19.1882C9.19896 19.518 8.72688 19.428 8.40091 18.9934C8.07495 18.5588 8.00751 17.9443 8.25479 17.6146Z" fill="#808080"/>
<path fill-rule="evenodd" clip-rule="evenodd" d="M8.9962 19.2632L8.89504 19.1133L9.09736 18.6038L8.70395 18.8585L8.59155 18.7237L9.3896 18.1991L8.9962 19.2482V19.2632ZM8.40047 18.4689L8.31055 18.334L8.89504 17.5547L8.9962 17.6746L8.40047 18.4689Z" fill="#D0D0D0"/>
<path fill-rule="evenodd" clip-rule="evenodd" d="M11.3874 11.1632C9.78013 11.1632 8.47834 12.8984 8.47834 15.0402C8.47834 17.1819 9.77632 18.9172 11.3835 18.9172C12.9907 18.9172 14.2925 17.1767 14.2925 15.0402V15.0142H14.2963C14.2859 12.8845 12.9881 11.1632 11.3874 11.1632ZM14.3313 15.0661H14.3353V15.0402C14.3353 12.8698 13.016 11.1113 11.3874 11.1113C9.75867 11.1113 8.43945 12.8698 8.43945 15.0402C8.43945 17.2105 9.75479 18.969 11.3835 18.969C13.0057 18.969 14.3209 17.2193 14.3313 15.0661Z" fill="#707070"/>
<path fill-rule="evenodd" clip-rule="evenodd" d="M11.3729 12.0786C10.1484 12.0786 9.15658 13.4007 9.15658 15.0325C9.15658 16.6643 10.1455 17.9864 11.37 17.9864C12.5945 17.9864 13.5864 16.6603 13.5864 15.0325V15.0127H13.5893C13.5813 13.39 12.5925 12.0786 11.3729 12.0786ZM13.616 15.0522H13.6189V15.0325C13.6189 13.3788 12.6138 12.0391 11.3729 12.0391C10.1321 12.0391 9.12695 13.3788 9.12695 15.0325C9.12695 16.6861 10.1291 18.0259 11.37 18.0259C12.606 18.0259 13.608 16.6928 13.616 15.0522Z" fill="#707070"/>
<path fill-rule="evenodd" clip-rule="evenodd" d="M10.4021 18.1991C10.4021 18.2487 10.3873 18.2964 10.3609 18.3315C10.3346 18.3667 10.2989 18.3864 10.2616 18.3864C10.2243 18.3864 10.1886 18.3667 10.1622 18.3315C10.1359 18.2964 10.1211 18.2487 10.1211 18.1991C10.1211 18.1494 10.1359 18.1017 10.1622 18.0666C10.1886 18.0315 10.2243 18.0117 10.2616 18.0117C10.2989 18.0117 10.3346 18.0315 10.3609 18.0666C10.3873 18.1017 10.4021 18.1494 10.4021 18.1991ZM12.6276 18.1991C12.6276 18.2487 12.6128 18.2964 12.5865 18.3315C12.5601 18.3667 12.5244 18.3864 12.4871 18.3864C12.4499 18.3864 12.4141 18.3667 12.3878 18.3315C12.3614 18.2964 12.3466 18.2487 12.3466 18.1991C12.3466 18.1494 12.3614 18.1017 12.3878 18.0666C12.4141 18.0315 12.4499 18.0117 12.4871 18.0117C12.5244 18.0117 12.5601 18.0315 12.5865 18.0666C12.6128 18.1017 12.6276 18.1494 12.6276 18.1991ZM11.2788 18.1991V18.3939H11.099C10.9079 18.3939 10.9079 18.5887 11.099 18.5887H11.2788V18.7686C11.2788 18.9784 11.4474 18.9934 11.4587 18.7835V18.5737H11.6498C11.8408 18.5737 11.8408 18.3939 11.6498 18.3939H11.4699V18.1991C11.4699 18.0042 11.2788 18.0042 11.2788 18.1991Z" fill="#D0D0D0"/>
<path fill-rule="evenodd" clip-rule="evenodd" d="M10.6839 15.4418V15.5616C10.6839 15.5616 10.6389 15.6366 10.3579 15.6666C10.0769 15.6965 10.032 15.6666 10.032 15.6666C10.0432 15.7715 10.0994 15.9513 10.0769 16.1611C10.0882 16.4159 10.032 16.6407 10.032 16.6407C10.032 16.6557 9.99824 16.6707 9.94204 16.6557C9.987 16.5957 9.987 16.4459 9.987 16.2061C9.987 15.9963 9.81839 15.6516 9.85212 15.5616C9.88584 15.4717 10.6839 15.4418 10.6839 15.4418ZM11.7854 15.0521L12.516 15.0371C12.516 15.0371 12.6284 15.3368 12.6172 15.4867C12.6172 15.6366 12.5722 15.7865 12.5273 15.7115C12.4711 15.6366 12.5498 15.6516 12.561 15.4867C12.561 15.3069 12.4711 15.142 12.4711 15.142C12.4711 15.142 12.2687 15.2469 11.9765 15.2319C11.6843 15.202 11.8191 15.0521 11.7854 15.0521Z" fill="#D0D0D0"/>
<path fill-rule="evenodd" clip-rule="evenodd" d="M12.5189 15.0335L12.519 15.0337L12.5192 15.0344L12.5201 15.037C12.521 15.0392 12.5222 15.0425 12.5237 15.0468C12.5268 15.0553 12.5311 15.0677 12.5363 15.0829C12.5467 15.1135 12.5605 15.1558 12.5739 15.2028C12.5873 15.2498 12.6004 15.3016 12.6094 15.3512C12.6184 15.4005 12.6235 15.4482 12.6206 15.4868C12.6206 15.5624 12.6093 15.6384 12.592 15.6864C12.5834 15.7102 12.5728 15.7288 12.5603 15.7358C12.5537 15.7394 12.5468 15.7398 12.5399 15.7363C12.5332 15.7329 12.5268 15.7261 12.5209 15.7163C12.5068 15.6975 12.4999 15.6827 12.4994 15.668C12.499 15.6533 12.5052 15.641 12.5121 15.6282C12.5128 15.6268 12.5136 15.6253 12.5144 15.6238C12.5283 15.5982 12.548 15.5618 12.5532 15.4861C12.5531 15.3979 12.531 15.313 12.5088 15.2499C12.4976 15.2183 12.4865 15.1923 12.4781 15.1743C12.474 15.1652 12.4705 15.1582 12.4681 15.1534C12.4676 15.1524 12.4672 15.1516 12.4668 15.1508C12.4654 15.1515 12.4636 15.1523 12.4615 15.1533C12.4553 15.1562 12.4462 15.1603 12.4343 15.1651C12.4107 15.1748 12.3761 15.1875 12.3323 15.1997C12.2449 15.2241 12.1208 15.2467 11.9741 15.2392L11.9739 15.2392C11.9005 15.2316 11.8534 15.2166 11.8235 15.1977C11.7934 15.1788 11.7803 15.1556 11.7763 15.1322C11.7725 15.1097 11.7774 15.0885 11.7807 15.0742L11.7808 15.0735C11.7817 15.0699 11.7824 15.0668 11.7829 15.0641C11.7833 15.0619 11.7835 15.0604 11.7835 15.0593C11.7834 15.0593 11.7833 15.0593 11.7832 15.0593L11.7831 15.0444L11.7832 15.0444L12.5173 15.0293L12.5189 15.0335ZM11.7948 15.0591L12.5104 15.0444C12.5112 15.0466 12.5122 15.0496 12.5136 15.0533C12.5166 15.0617 12.5209 15.074 12.5261 15.0891C12.5364 15.1195 12.5501 15.1615 12.5634 15.2081C12.5767 15.2548 12.5896 15.306 12.5985 15.3548C12.6074 15.4037 12.6121 15.4495 12.6094 15.4857L12.6094 15.4865C12.6094 15.5606 12.5982 15.6344 12.5818 15.6799C12.5735 15.703 12.5645 15.7172 12.5559 15.7219C12.5519 15.7241 12.548 15.7243 12.5438 15.7223C12.5396 15.7201 12.5347 15.7153 12.5295 15.7066L12.5291 15.706C12.5151 15.6874 12.5109 15.6761 12.5107 15.6674C12.5104 15.6587 12.514 15.6504 12.5212 15.6369C12.522 15.6355 12.5228 15.6341 12.5236 15.6326C12.5378 15.6062 12.5589 15.5671 12.5644 15.4871L12.5644 15.4865C12.5644 15.395 12.5416 15.3077 12.5189 15.2435C12.5076 15.2113 12.4962 15.1849 12.4877 15.1664C12.4835 15.1572 12.4799 15.15 12.4774 15.145C12.4762 15.1425 12.4752 15.1406 12.4745 15.1394L12.4737 15.1379L12.4735 15.1375L12.4734 15.1374L12.4709 15.1327L12.4668 15.1348L12.4667 15.1349L12.4663 15.1351L12.4646 15.1359C12.4631 15.1367 12.4608 15.1378 12.4578 15.1392C12.4517 15.142 12.4427 15.146 12.4311 15.1508C12.4077 15.1603 12.3734 15.1729 12.33 15.185C12.2433 15.2093 12.1202 15.2317 11.9746 15.2242C11.9019 15.2167 11.8564 15.2019 11.8283 15.1842C11.8004 15.1666 11.7903 15.1466 11.7873 15.1289C11.7842 15.1105 11.7882 15.0927 11.7916 15.0779C11.7924 15.0744 11.7932 15.0708 11.7938 15.0677C11.7943 15.0649 11.7947 15.0619 11.7948 15.0591ZM9.86735 15.5519C9.85986 15.5569 9.8562 15.5614 9.85495 15.5648C9.85143 15.5741 9.85029 15.5877 9.85163 15.6056C9.85296 15.6233 9.85666 15.6444 9.86215 15.6683C9.87286 15.7151 9.89009 15.7712 9.9086 15.8315L9.90992 15.8358C9.92888 15.8976 9.94898 15.9634 9.96434 16.027C9.97967 16.0904 9.99042 16.1522 9.99042 16.2058V16.2062C9.99042 16.3258 9.99042 16.4235 9.98478 16.4988C9.97971 16.5663 9.97003 16.6175 9.95066 16.6504C9.97367 16.6554 9.99204 16.6549 10.0049 16.6518C10.0122 16.65 10.0175 16.6475 10.0207 16.6448C10.024 16.6422 10.0241 16.6404 10.0241 16.6404C10.0241 16.6404 10.0241 16.6404 10.0241 16.6404L10.0241 16.6392L10.0244 16.6381L10.0245 16.6379L10.0246 16.6375L10.025 16.6356C10.0254 16.6339 10.026 16.6314 10.0268 16.6281C10.0283 16.6215 10.0304 16.6118 10.0329 16.5994C10.038 16.5745 10.0446 16.5386 10.0509 16.4948C10.0635 16.4071 10.0747 16.2879 10.0691 16.1613L10.0691 16.1606L10.0692 16.1598C10.0803 16.0561 10.072 15.9596 10.0594 15.8757C10.0536 15.8369 10.0468 15.8009 10.0407 15.7681C10.0402 15.7654 10.0397 15.7628 10.0392 15.7601C10.0328 15.7253 10.0271 15.694 10.0242 15.6674L10.0227 15.6532L10.0322 15.6596L10.0324 15.6597C10.0327 15.6598 10.0332 15.6601 10.034 15.6604C10.0355 15.6611 10.0382 15.6621 10.0423 15.6632C10.0506 15.6654 10.0647 15.6682 10.0877 15.6701C10.1337 15.6738 10.2149 15.6738 10.3553 15.6588C10.4955 15.6439 10.5764 15.6178 10.6222 15.5956C10.645 15.5845 10.659 15.5744 10.6672 15.5673C10.6713 15.5637 10.6739 15.5609 10.6755 15.5591C10.6757 15.5588 10.6759 15.5586 10.6761 15.5584V15.4492L10.6729 15.4494C10.667 15.4496 10.6585 15.45 10.6475 15.4505C10.6257 15.4515 10.5944 15.453 10.5567 15.4551C10.4814 15.4593 10.3806 15.4659 10.2788 15.4752C10.177 15.4846 10.0743 15.4967 9.99492 15.5121C9.95523 15.5199 9.92157 15.5284 9.89687 15.5376C9.88451 15.5423 9.87459 15.5471 9.86735 15.5519ZM10.6817 15.4415C10.6815 15.434 10.6815 15.434 10.6815 15.434L10.6792 15.4341L10.6726 15.4344C10.6667 15.4346 10.6581 15.435 10.6471 15.4355C10.6252 15.4365 10.5939 15.438 10.5562 15.4401C10.4809 15.4443 10.38 15.4509 10.2781 15.4603C10.1762 15.4696 10.0731 15.4818 9.9933 15.4973C9.95344 15.5051 9.91922 15.5137 9.89382 15.5232C9.88113 15.528 9.87045 15.5331 9.8623 15.5385C9.85439 15.5438 9.84786 15.5501 9.8449 15.5581C9.83998 15.5712 9.83902 15.588 9.84045 15.6071C9.84188 15.6262 9.84582 15.6484 9.8514 15.6727C9.86227 15.7201 9.87967 15.7768 9.89806 15.8368L9.89952 15.8415C9.9185 15.9034 9.93844 15.9687 9.95364 16.0316C9.96886 16.0946 9.97918 16.1546 9.97918 16.2058C9.97918 16.3259 9.97918 16.4229 9.97359 16.4973C9.96798 16.5722 9.95683 16.6222 9.93587 16.6501L9.92844 16.66L9.93874 16.6628C9.96735 16.6704 9.99057 16.6705 10.0069 16.6666C10.015 16.6646 10.0217 16.6616 10.0265 16.6576C10.0309 16.6541 10.0349 16.6489 10.0353 16.6418L10.0357 16.6401C10.0362 16.6384 10.0368 16.6358 10.0375 16.6325C10.0391 16.6258 10.0412 16.6159 10.0438 16.6033C10.0489 16.5781 10.0556 16.5419 10.062 16.4976C10.0747 16.4094 10.0859 16.2891 10.0804 16.1612C10.0916 16.0554 10.0831 15.9573 10.0704 15.8728C10.0645 15.8336 10.0578 15.7973 10.0516 15.7645C10.0511 15.7618 10.0506 15.7592 10.0501 15.7565C10.0446 15.7267 10.0397 15.7001 10.0367 15.6769C10.0377 15.6772 10.0388 15.6775 10.0401 15.6779C10.049 15.6803 10.0637 15.6831 10.087 15.685C10.1338 15.6888 10.2155 15.6888 10.3562 15.6738C10.497 15.6588 10.579 15.6324 10.626 15.6097C10.6495 15.5983 10.6643 15.5877 10.6734 15.5799C10.6779 15.5759 10.6809 15.5727 10.6829 15.5703C10.6839 15.5691 10.6847 15.5681 10.6852 15.5674C10.6854 15.5671 10.6856 15.5668 10.6858 15.5666L10.686 15.5663L10.686 15.5662C10.686 15.5662 10.6861 15.5661 10.6817 15.5614L10.6861 15.5661L10.6873 15.564V15.4415H10.6817Z" fill="#707070"/>
<path fill-rule="evenodd" clip-rule="evenodd" d="M11.8749 15.3367C12.1446 15.3217 12.3245 15.3666 12.3245 15.3666C12.3245 15.3666 12.4369 15.6664 12.4369 15.8162C12.4256 15.9661 12.3919 16.116 12.3357 16.041C12.2907 15.9811 12.3582 15.9961 12.3694 15.8162C12.3694 15.6514 12.2795 15.4715 12.2795 15.4715C12.2795 15.4715 12.0884 15.5765 11.7962 15.5615C11.5039 15.5315 11.5938 15.5165 11.5601 15.5015C11.5264 15.5015 11.5152 15.6214 11.0768 15.6364C10.6272 15.6364 10.4024 15.5015 10.4024 15.5015C10.4024 15.5015 10.3574 15.5914 10.0877 15.6214H9.75046C9.7617 15.7113 9.8179 15.8912 9.80666 16.116C9.80666 16.3558 9.75046 16.5956 9.75046 16.5956H9.67178C9.71674 16.5506 9.7055 16.3857 9.71674 16.1609C9.71674 15.9361 9.5369 15.6064 9.57062 15.5015C9.61558 15.4116 9.8179 15.5015 9.85162 15.4566C9.88534 15.3966 9.67178 15.0519 9.71674 14.7372C9.75046 14.4225 9.9865 14.5124 10.2675 14.5124C10.5485 14.5274 11.1667 14.6323 11.3241 14.5124C11.4814 14.4075 11.414 14.0028 11.5489 13.7481C11.5937 13.6752 11.6504 13.617 11.7147 13.578C11.779 13.539 11.8492 13.5203 11.9198 13.5232C12.021 13.5232 12.1446 13.9729 12.1446 14.0778L12.1109 14.1377H12.0659V14.1827C11.9535 14.1977 11.9423 14.0628 11.8749 13.9729C11.8524 14.1227 11.9648 14.6323 11.9648 14.962C11.9648 15.2318 11.8861 15.3516 11.8749 15.3367Z" fill="#D0D0D0"/>
<path fill-rule="evenodd" clip-rule="evenodd" d="M11.9194 13.5309C11.8496 13.528 11.7803 13.5465 11.7168 13.585C11.6533 13.6235 11.5973 13.6809 11.5531 13.7528C11.4924 13.8676 11.4732 14.0134 11.4553 14.1497C11.4536 14.1625 11.4519 14.1753 11.4502 14.1879C11.4404 14.2609 11.4298 14.3301 11.4116 14.3876C11.3934 14.4452 11.3673 14.4919 11.3265 14.5192C11.2859 14.55 11.2166 14.5659 11.1322 14.5727C11.0474 14.5795 10.9464 14.5772 10.8417 14.5706C10.7369 14.5641 10.6283 14.5533 10.5284 14.5432C10.5239 14.5428 10.5194 14.5423 10.5149 14.5419C10.4203 14.5323 10.3341 14.5236 10.2672 14.52C10.2133 14.52 10.161 14.5167 10.1116 14.5136C10.0965 14.5127 10.0817 14.5117 10.0672 14.5109C10.005 14.5074 9.94852 14.506 9.89987 14.5144C9.85124 14.5227 9.81102 14.5407 9.78093 14.5751C9.75095 14.6095 9.73035 14.661 9.72206 14.7384L9.72203 14.7388C9.69989 14.8937 9.74136 15.0567 9.78488 15.1896C9.79573 15.2227 9.80668 15.2539 9.81676 15.2826L9.81741 15.2844C9.82722 15.3123 9.8362 15.3379 9.84338 15.3604C9.8507 15.3833 9.85628 15.4034 9.85892 15.4199C9.86149 15.436 9.86168 15.4509 9.85588 15.4612L9.8554 15.4621C9.84994 15.4694 9.84164 15.4732 9.83242 15.4753C9.82305 15.4774 9.81179 15.4779 9.79945 15.4776C9.78295 15.4771 9.76388 15.475 9.74408 15.4729C9.73439 15.4718 9.72453 15.4707 9.7147 15.4698C9.68453 15.467 9.65449 15.4657 9.62931 15.4705C9.6042 15.4752 9.5853 15.4859 9.57535 15.5053C9.57184 15.5166 9.57095 15.5315 9.57256 15.5501C9.57419 15.5688 9.57832 15.5907 9.58432 15.615C9.59586 15.6618 9.61401 15.7169 9.63351 15.7761L9.63594 15.7834C9.6563 15.8452 9.67783 15.9111 9.69425 15.9756C9.71066 16.04 9.72212 16.1037 9.72212 16.1611V16.1616C9.71932 16.2177 9.7179 16.27 9.71667 16.3178L9.71651 16.3242C9.71535 16.3694 9.71429 16.4105 9.71227 16.4464C9.71015 16.484 9.70696 16.5165 9.70135 16.5425C9.69744 16.5607 9.69226 16.5762 9.68517 16.5882H9.74605C9.74639 16.5867 9.74678 16.5849 9.74724 16.5829C9.74877 16.5759 9.75095 16.5656 9.75357 16.5526C9.75882 16.5265 9.76582 16.4891 9.77282 16.4443C9.78683 16.3547 9.8008 16.2353 9.8008 16.1161V16.1156C9.80637 16.0042 9.79525 15.9038 9.78127 15.8199C9.77453 15.7795 9.76714 15.7429 9.76063 15.7108L9.7599 15.7071C9.75325 15.6742 9.74754 15.6457 9.74468 15.6228L9.74359 15.6141H10.0872C10.2215 15.5991 10.2995 15.5693 10.3437 15.5435C10.3658 15.5306 10.3794 15.5188 10.3874 15.5103C10.3914 15.5061 10.394 15.5027 10.3956 15.5005C10.3964 15.4994 10.3969 15.4986 10.3972 15.4981L10.3975 15.4975L10.4001 15.4922L10.4045 15.4949L10.4046 15.4949L10.4051 15.4952L10.407 15.4963C10.4087 15.4973 10.4113 15.4987 10.4147 15.5005C10.4217 15.5042 10.4321 15.5094 10.4461 15.5157C10.474 15.5282 10.516 15.545 10.572 15.5618C10.684 15.5954 10.8521 15.6291 11.0765 15.6291C11.2953 15.6216 11.407 15.5879 11.4679 15.5565C11.4983 15.5409 11.5162 15.5257 11.5286 15.5145C11.53 15.5132 11.5314 15.5119 11.5327 15.5107C11.5371 15.5067 11.5411 15.503 11.5447 15.5003C11.5495 15.4967 11.5543 15.4942 11.5599 15.4942H11.5608L11.5617 15.4946C11.5663 15.4966 11.5696 15.499 11.5718 15.5022C11.5741 15.5054 11.5748 15.5088 11.5752 15.5107C11.5752 15.5108 11.5753 15.5109 11.5753 15.511C11.5757 15.5128 11.5759 15.5134 11.5764 15.5142C11.5771 15.5152 11.5788 15.5169 11.583 15.519C11.5914 15.5234 11.608 15.5284 11.6412 15.5343C11.6743 15.5401 11.7233 15.5467 11.7963 15.5542C11.9418 15.5616 12.0621 15.5392 12.146 15.515C12.188 15.5028 12.2208 15.4903 12.2431 15.4807C12.2543 15.476 12.2628 15.472 12.2685 15.4692C12.2714 15.4678 12.2736 15.4667 12.275 15.4659L12.2766 15.4651L12.277 15.4648L12.2771 15.4648L12.2814 15.4624L12.2839 15.4676L12.284 15.4677L12.2842 15.4681L12.285 15.4697C12.2857 15.4711 12.2866 15.4731 12.2879 15.4758C12.2904 15.4811 12.2939 15.4888 12.2982 15.4986C12.3067 15.5182 12.318 15.5461 12.3293 15.5791C12.3519 15.645 12.3748 15.7324 12.3748 15.8164V15.817C12.3691 15.9086 12.3489 15.951 12.336 15.9778L12.3359 15.978C12.3327 15.9846 12.3302 15.9898 12.3284 15.9945C12.3267 15.9992 12.3259 16.0029 12.3258 16.0063C12.3257 16.0128 12.3283 16.0211 12.3394 16.0359C12.3527 16.0536 12.363 16.0561 12.3713 16.0518C12.3805 16.047 12.3895 16.0329 12.3978 16.0099C12.4142 15.9643 12.4254 15.8906 12.431 15.816C12.431 15.7797 12.4241 15.7338 12.4137 15.685C12.4032 15.6361 12.3892 15.5849 12.3752 15.5382C12.3612 15.4915 12.3472 15.4495 12.3367 15.4191C12.3314 15.4039 12.327 15.3917 12.324 15.3832C12.3225 15.379 12.3213 15.3757 12.3204 15.3735C12.3191 15.3732 12.3173 15.3728 12.315 15.3723C12.3096 15.3711 12.3016 15.3694 12.2911 15.3674C12.2701 15.3635 12.2393 15.3583 12.2001 15.3537C12.1231 15.3445 12.0137 15.3371 11.8825 15.3439C11.8811 15.3448 11.8795 15.3454 11.8779 15.3455C11.8755 15.3458 11.8727 15.3449 11.8706 15.3421L11.8746 15.3368L11.8744 15.3293C11.8761 15.3292 11.8779 15.3292 11.8796 15.3291C11.882 15.3271 11.8853 15.3234 11.8892 15.3175C11.8977 15.3049 11.9083 15.2836 11.9187 15.2532C11.9394 15.1924 11.9589 15.0961 11.9589 14.9622C11.9589 14.7981 11.9309 14.589 11.9056 14.4015L11.9048 14.3956C11.8925 14.3042 11.8808 14.2181 11.8736 14.1454C11.8662 14.0715 11.8633 14.0104 11.8691 13.9716L11.8712 13.9578L11.8786 13.9677C11.8959 13.9908 11.9095 14.0166 11.9218 14.0417C11.9248 14.0479 11.9278 14.054 11.9306 14.06C11.9397 14.0787 11.9483 14.0966 11.9577 14.1127C11.9701 14.1337 11.9835 14.1511 12.0004 14.1623C12.0162 14.1728 12.0353 14.1783 12.0601 14.176V14.1304H12.1078L12.1387 14.0755C12.1383 14.0499 12.1309 14.0043 12.1181 13.9492C12.105 13.8926 12.0865 13.8269 12.0648 13.7645C12.0431 13.702 12.0184 13.6431 11.993 13.5999C11.9802 13.5784 11.9675 13.561 11.955 13.549C11.9425 13.5371 11.9306 13.5309 11.9196 13.5309L11.9194 13.5309ZM11.8971 15.3282C12.0222 15.3227 12.1267 15.3299 12.2011 15.3387C12.2405 15.3434 12.2715 15.3486 12.2927 15.3526C12.3033 15.3546 12.3114 15.3563 12.3169 15.3575C12.3196 15.3581 12.3217 15.3586 12.3231 15.3589L12.3247 15.3593L12.3251 15.3594L12.3252 15.3594L12.3242 15.3668L12.3292 15.3635L12.3293 15.3637L12.3296 15.3643L12.3305 15.3669C12.3314 15.3691 12.3326 15.3725 12.3341 15.3767C12.3372 15.3852 12.3416 15.3976 12.3469 15.4128C12.3574 15.4434 12.3715 15.4856 12.3856 15.5326C12.3997 15.5796 12.4139 15.6314 12.4245 15.6809C12.435 15.7303 12.4422 15.7779 12.4422 15.8164V15.8172C12.4366 15.8923 12.4253 15.9683 12.408 16.0164C12.3994 16.0401 12.3888 16.0588 12.3754 16.0658C12.3613 16.0731 12.3463 16.0663 12.3315 16.0465C12.3201 16.0313 12.3143 16.0191 12.3146 16.0059C12.3147 15.9995 12.3162 15.9935 12.3184 15.9878C12.3204 15.9823 12.3232 15.9766 12.3262 15.9704L12.3265 15.9697C12.3388 15.9442 12.358 15.9042 12.3636 15.8161C12.3635 15.7354 12.3414 15.6505 12.3191 15.5854C12.308 15.5528 12.2968 15.5254 12.2884 15.5061C12.2843 15.4965 12.2808 15.4889 12.2784 15.4837C12.2779 15.4827 12.2774 15.4818 12.277 15.4809C12.2758 15.4816 12.2742 15.4823 12.2724 15.4832C12.2665 15.4861 12.2579 15.4902 12.2465 15.495C12.2239 15.5047 12.1907 15.5174 12.1484 15.5296C12.0637 15.5541 11.9424 15.5766 11.7957 15.5691L11.7955 15.5691C11.7224 15.5616 11.6731 15.555 11.6398 15.5492C11.6066 15.5433 11.5888 15.5381 11.5789 15.533C11.574 15.5305 11.5706 15.5278 11.5682 15.5245C11.5658 15.521 11.565 15.5175 11.5645 15.5153C11.564 15.5132 11.5639 15.5129 11.5636 15.5125C11.5632 15.5119 11.5621 15.5107 11.559 15.5092C11.5564 15.5094 11.5537 15.5107 11.5502 15.5134C11.5471 15.5157 11.5437 15.5188 11.5394 15.5228C11.538 15.524 11.5365 15.5254 11.5349 15.5268C11.5221 15.5385 11.5034 15.5543 11.472 15.5705C11.4093 15.6028 11.2962 15.6366 11.0767 15.6441L11.0766 15.6441C10.8513 15.6441 10.6823 15.6103 10.5695 15.5764C10.5131 15.5595 10.4708 15.5426 10.4425 15.5299C10.4284 15.5235 10.4177 15.5182 10.4106 15.5145C10.4078 15.513 10.4055 15.5117 10.4038 15.5108C10.4018 15.5136 10.3988 15.5174 10.3944 15.5221C10.3855 15.5314 10.3711 15.5439 10.3482 15.5573C10.3025 15.5839 10.2232 15.614 10.0879 15.629L10.0874 15.6291L9.75695 15.6291C9.75995 15.6496 9.76491 15.6743 9.77075 15.7032L9.7715 15.7069C9.778 15.7391 9.78544 15.7759 9.79224 15.8167C9.80635 15.9013 9.81768 16.0031 9.81204 16.1164C9.81202 16.2369 9.79791 16.3573 9.78382 16.4474C9.77677 16.4925 9.76972 16.5301 9.76443 16.5565C9.76179 16.5696 9.75958 16.58 9.75803 16.5871C9.75726 16.5906 9.75665 16.5933 9.75623 16.5951L9.75575 16.5972L9.75563 16.5978L9.7556 16.5979L9.75435 16.6032H9.65468L9.66817 16.5897C9.67799 16.5799 9.68525 16.563 9.69055 16.5384C9.69583 16.5139 9.69896 16.4826 9.70106 16.4453C9.70307 16.4096 9.70411 16.3688 9.70528 16.3235L9.70544 16.3173C9.70667 16.2696 9.70807 16.2171 9.71088 16.1609C9.71085 16.1059 9.69984 16.0442 9.6836 15.9804C9.66736 15.9166 9.64603 15.8513 9.62565 15.7895L9.6231 15.7817C9.60371 15.7229 9.58536 15.6672 9.57365 15.6197C9.56753 15.5949 9.56314 15.572 9.56139 15.5518C9.55965 15.5317 9.56045 15.5135 9.56521 15.4987L9.56542 15.4981L9.5657 15.4975C9.57831 15.4723 9.60143 15.4606 9.62772 15.4556C9.65417 15.4506 9.68525 15.4521 9.71549 15.4549C9.72565 15.4558 9.73569 15.4569 9.74546 15.458C9.76504 15.4601 9.78352 15.4621 9.79969 15.4626C9.81177 15.4629 9.8222 15.4624 9.83052 15.4605C9.83872 15.4586 9.84408 15.4556 9.84711 15.4518C9.84956 15.447 9.85034 15.4381 9.84793 15.4231C9.84552 15.408 9.8403 15.389 9.83304 15.3662C9.82594 15.344 9.81703 15.3187 9.80718 15.2906L9.80658 15.2889C9.79651 15.2603 9.7855 15.2289 9.77458 15.1956C9.73099 15.0625 9.68818 14.8959 9.71095 14.7361C9.71954 14.6562 9.74109 14.601 9.7736 14.5638C9.80604 14.5266 9.84872 14.508 9.89844 14.4995C9.94814 14.491 10.0055 14.4924 10.0676 14.4959C10.0823 14.4968 10.0972 14.4977 10.1123 14.4987C10.1617 14.5018 10.2136 14.5051 10.2673 14.5051H10.2675C10.3347 14.5086 10.4211 14.5174 10.5157 14.5269C10.5202 14.5274 10.5247 14.5278 10.5292 14.5283C10.6291 14.5383 10.7376 14.5491 10.8422 14.5556C10.9468 14.5622 11.0474 14.5645 11.1315 14.5578C11.216 14.551 11.283 14.5351 11.3211 14.506L11.3213 14.5058C11.3591 14.4807 11.3836 14.4374 11.4012 14.3818C11.4189 14.326 11.4293 14.2584 11.4391 14.1853C11.4409 14.1726 11.4425 14.1597 11.4443 14.1467C11.4621 14.011 11.4817 13.8617 11.5441 13.7439L11.5443 13.7435C11.5896 13.6697 11.647 13.6108 11.7121 13.5714C11.7772 13.5319 11.8482 13.513 11.9197 13.5159C11.9339 13.516 11.948 13.5238 11.9616 13.5369C11.9752 13.5499 11.9887 13.5685 12.0018 13.5907C12.028 13.6351 12.0531 13.6952 12.075 13.7582C12.0969 13.8213 12.1156 13.8876 12.1288 13.9448C12.142 14.0017 12.15 14.0505 12.15 14.0779V14.0804L12.1135 14.1454H12.0713V14.1896L12.0663 14.1903C12.0373 14.1942 12.0144 14.1884 11.9954 14.1757C11.9764 14.1631 11.9618 14.1439 11.9489 14.1219C11.9391 14.1052 11.9301 14.0865 11.921 14.0676C11.9181 14.0617 11.9153 14.0558 11.9124 14.05C11.9022 14.0291 11.8913 14.0083 11.8784 13.9893C11.8755 14.0257 11.8783 14.0787 11.8847 14.1435C11.892 14.2157 11.9035 14.3015 11.9159 14.3931L11.9167 14.3988C11.9419 14.586 11.9702 14.7965 11.9702 14.9622C11.9702 15.098 11.9503 15.1965 11.9289 15.2594C11.9182 15.2908 11.907 15.3135 11.8976 15.3275C11.8974 15.3278 11.8973 15.328 11.8971 15.3282ZM12.3242 15.3668L12.3292 15.3635L12.328 15.3601L12.3252 15.3594L12.3242 15.3668Z" fill="#707070"/>
<path fill-rule="evenodd" clip-rule="evenodd" d="M10.9882 14.857C10.9882 14.9619 10.6397 15.2167 10.606 15.3066C10.5835 15.4115 10.6959 15.4565 10.6622 15.5164C10.6285 15.5763 10.5948 15.5464 10.5835 15.5614L10.4486 15.1867C10.4486 15.1867 10.7859 14.9769 10.7746 14.887C10.7634 14.797 10.5273 14.7371 10.4824 14.5273C10.4374 14.3174 10.4599 13.8828 10.4262 13.7929C10.3924 13.703 9.97656 13.6131 9.97656 13.4932C9.97656 13.3433 10.4037 12.9836 10.4486 12.9237C10.4936 12.8637 10.5386 12.9836 10.4936 13.0286C10.4486 13.0885 10.1227 13.4332 10.1227 13.4782C10.1227 13.5381 10.3924 13.5981 10.4824 13.5981C10.5835 13.5981 10.6285 13.5381 10.6285 13.4782C10.6285 13.4332 10.5273 13.4332 10.5273 13.3283C10.5273 13.2234 10.5835 13.1485 10.6735 13.1485C10.7184 13.1485 10.8083 13.2234 10.8083 13.3133C10.8083 13.4033 10.7297 13.4182 10.7184 13.4782C10.7072 13.5531 10.8083 13.5981 10.8983 13.5981C10.9882 13.5981 11.3029 13.9128 11.3479 13.9728C11.4041 14.0177 11.449 14.0177 11.4041 14.0777C11.3591 14.1376 11.3816 14.1976 11.3366 14.1376C11.3147 14.1088 11.2992 14.0725 11.2917 14.0327C11.2917 13.9877 10.9545 13.7629 10.8983 13.8079C10.8533 13.8678 10.8983 14.5273 10.8983 14.5872C10.8983 14.6921 10.9994 14.6921 10.9882 14.857Z" fill="#D0D0D0"/>
<path fill-rule="evenodd" clip-rule="evenodd" d="M10.4773 12.9159C10.4699 12.9132 10.4606 12.9156 10.4504 12.9291C10.4445 12.9371 10.4325 12.9496 10.4166 12.9654C10.4006 12.9813 10.3802 13.0009 10.357 13.0231L10.3566 13.0236C10.3103 13.068 10.2529 13.123 10.197 13.1808C10.1409 13.2388 10.0863 13.2994 10.0458 13.3548C10.0256 13.3825 10.009 13.4087 9.99753 13.4324C9.98596 13.4563 9.97999 13.4768 9.97999 13.4933C9.97999 13.5053 9.98518 13.518 9.99612 13.5315C10.007 13.5449 10.0229 13.5582 10.0424 13.5714C10.0815 13.5979 10.1342 13.623 10.1883 13.6474C10.2009 13.653 10.2136 13.6586 10.2262 13.6642C10.2675 13.6826 10.3079 13.7005 10.3416 13.7182C10.3635 13.7297 10.3828 13.7412 10.3978 13.7528C10.4125 13.7642 10.424 13.7764 10.429 13.7897C10.4336 13.802 10.437 13.8195 10.4398 13.8406C10.4425 13.8618 10.4446 13.8872 10.4463 13.9157C10.4492 13.9662 10.451 14.0266 10.4528 14.0906C10.453 14.0987 10.4532 14.1068 10.4535 14.115C10.4577 14.2615 10.4633 14.4215 10.4856 14.5254C10.5074 14.6272 10.5758 14.6933 10.6418 14.7458C10.6541 14.7556 10.6664 14.7649 10.6783 14.774C10.6978 14.7888 10.7162 14.8028 10.7314 14.8162C10.7438 14.8271 10.7545 14.838 10.7625 14.8493C10.7706 14.8605 10.7763 14.8726 10.778 14.8859C10.7798 14.9003 10.7745 14.9156 10.7661 14.9303C10.7576 14.9454 10.7449 14.9614 10.7298 14.9777C10.6994 15.0104 10.658 15.0453 10.6165 15.0772C10.5749 15.1092 10.533 15.1383 10.5015 15.1594C10.4857 15.1699 10.4726 15.1785 10.4634 15.1844C10.4595 15.1869 10.4564 15.1889 10.454 15.1904L10.5838 15.551C10.587 15.5496 10.5904 15.5493 10.5934 15.5491C10.5956 15.549 10.5976 15.549 10.5997 15.549C10.6034 15.549 10.6073 15.5491 10.6117 15.5485C10.6243 15.5468 10.6397 15.5402 10.6555 15.5121C10.6592 15.5056 10.6606 15.4998 10.6607 15.4944C10.6609 15.4889 10.6597 15.483 10.6573 15.4766C10.6528 15.4649 10.6448 15.4528 10.6354 15.4388C10.6343 15.4371 10.6331 15.4353 10.6319 15.4335C10.611 15.4018 10.5863 15.3614 10.5984 15.3047L10.5986 15.304L10.5988 15.3034C10.6035 15.2909 10.6133 15.2763 10.6261 15.2604C10.639 15.2444 10.6556 15.2265 10.6743 15.2074C10.7007 15.1804 10.7318 15.1508 10.7637 15.1203C10.7772 15.1075 10.7908 15.0945 10.8043 15.0815C10.8499 15.0375 10.8943 14.9932 10.9272 14.9535C10.9437 14.9336 10.9572 14.915 10.9664 14.8984C10.9758 14.8816 10.9804 14.8678 10.9804 14.8572H10.986L10.9804 14.8565C10.9831 14.8163 10.979 14.7867 10.9715 14.7631C10.964 14.7395 10.9529 14.7216 10.9412 14.7049C10.9381 14.7006 10.9349 14.6963 10.9318 14.692C10.9112 14.6641 10.8904 14.6361 10.8904 14.5874C10.8904 14.5757 10.8887 14.5401 10.8862 14.4898C10.8855 14.4772 10.8848 14.4636 10.8841 14.4493C10.8806 14.3781 10.8764 14.2881 10.8736 14.198C10.8708 14.1081 10.8694 14.0179 10.8715 13.9464C10.8725 13.9107 10.8745 13.8794 10.8776 13.855C10.8792 13.8429 10.8811 13.8322 10.8834 13.8236C10.8856 13.815 10.8884 13.8077 10.8921 13.8028L10.8926 13.8021L10.8932 13.8016C10.9019 13.7947 10.9149 13.7936 10.9297 13.7955C10.9447 13.7975 10.9629 13.8029 10.9828 13.8107C11.0227 13.8263 11.0704 13.8518 11.1162 13.8799C11.162 13.9081 11.2061 13.9392 11.2389 13.9661C11.2552 13.9795 11.2688 13.992 11.2785 14.0027C11.2833 14.008 11.2872 14.0131 11.29 14.0177C11.2925 14.0218 11.2948 14.0266 11.2951 14.0318C11.3024 14.0699 11.3174 14.1047 11.3384 14.1325C11.3439 14.1399 11.3484 14.1453 11.3519 14.149C11.3555 14.1528 11.3578 14.1544 11.3592 14.1549C11.3601 14.1553 11.3602 14.1551 11.3603 14.155C11.3603 14.155 11.3603 14.155 11.3603 14.155C11.3608 14.1544 11.3618 14.153 11.3631 14.1494C11.3642 14.1466 11.3653 14.1431 11.3665 14.1389C11.3715 14.1227 11.3793 14.0973 11.3979 14.0725C11.4091 14.0576 11.4135 14.0478 11.4144 14.0412C11.4148 14.0382 11.4145 14.0358 11.4137 14.0336C11.4127 14.0312 11.4111 14.0286 11.4083 14.0257C11.4025 14.0197 11.3937 14.014 11.3821 14.0066L11.3812 14.0061C11.37 13.9989 11.3567 13.9905 11.3428 13.9794L11.3422 13.9789L11.3417 13.9782C11.3196 13.9488 11.2301 13.8555 11.1346 13.7693C11.0869 13.7263 11.0379 13.6852 10.9953 13.655C10.974 13.6398 10.9544 13.6275 10.9374 13.6189C10.9203 13.6103 10.9063 13.6057 10.8961 13.6057C10.8505 13.6057 10.8019 13.5944 10.7659 13.5733C10.748 13.5627 10.7327 13.5495 10.7226 13.5335C10.7124 13.5174 10.7075 13.4982 10.7107 13.4769L10.7108 13.4765C10.7139 13.4596 10.7218 13.4462 10.7312 13.4345C10.7376 13.4265 10.7451 13.4187 10.7525 13.4111C10.7557 13.4078 10.7588 13.4046 10.7619 13.4013C10.7827 13.3791 10.8005 13.3548 10.8005 13.3135C10.8005 13.2719 10.7796 13.2326 10.7521 13.2032C10.7245 13.1738 10.692 13.1561 10.6713 13.1561C10.6275 13.1561 10.5924 13.1744 10.5683 13.2047C10.5443 13.235 10.5308 13.2779 10.5308 13.3285C10.5308 13.3767 10.5536 13.401 10.5784 13.4194C10.5836 13.4232 10.5888 13.4267 10.5939 13.4301C10.5949 13.4308 10.5959 13.4315 10.5968 13.4322C10.6028 13.4362 10.6085 13.4402 10.6135 13.4444C10.6231 13.4524 10.6319 13.4628 10.6319 13.4784C10.6319 13.511 10.6196 13.5432 10.5944 13.5669C10.5693 13.5905 10.5315 13.6057 10.4802 13.6057C10.4347 13.6057 10.3443 13.5907 10.2654 13.5681C10.226 13.5568 10.1891 13.5436 10.162 13.5294C10.1485 13.5222 10.1371 13.5147 10.1289 13.5068C10.1211 13.4991 10.1149 13.4897 10.1149 13.4784C10.1149 13.4756 10.1155 13.4728 10.1162 13.4704C10.117 13.4679 10.1181 13.4653 10.1194 13.4625C10.122 13.4571 10.1258 13.4507 10.1303 13.4437C10.1395 13.4296 10.1526 13.412 10.1683 13.3921C10.1996 13.3524 10.2419 13.3031 10.2854 13.2535C10.3176 13.2168 10.3506 13.1799 10.3804 13.1464C10.391 13.1345 10.4012 13.1231 10.4109 13.1122C10.4479 13.0707 10.4764 13.0382 10.4874 13.0235L10.488 13.0227C10.5075 13.0032 10.5082 12.9666 10.4977 12.9405C10.4925 12.9276 10.4852 12.9187 10.4773 12.9159ZM10.9916 14.8575C10.9915 14.873 10.9852 14.89 10.9755 14.9074C10.9655 14.9251 10.9515 14.9444 10.9348 14.9646C10.9013 15.0049 10.8565 15.0496 10.8108 15.0936C10.7972 15.1068 10.7836 15.1198 10.7701 15.1326C10.7382 15.1631 10.7074 15.1925 10.6812 15.2193C10.6625 15.2383 10.6463 15.2559 10.6337 15.2714C10.6213 15.2868 10.6129 15.2996 10.6091 15.3095C10.5991 15.3573 10.6193 15.3917 10.6403 15.4236C10.6415 15.4254 10.6427 15.4271 10.6439 15.4289C10.653 15.4426 10.6621 15.4563 10.6673 15.4699C10.6703 15.4777 10.6722 15.4861 10.672 15.4949C10.6717 15.5038 10.6693 15.5125 10.6645 15.5211C10.6466 15.5529 10.6283 15.5613 10.6128 15.5634C10.6079 15.564 10.6029 15.564 10.5988 15.564C10.5969 15.564 10.5952 15.564 10.5938 15.5641C10.5886 15.5643 10.5864 15.5653 10.5853 15.5668L10.5797 15.5743L10.4389 15.1833L10.4441 15.1801L10.445 15.1795L10.4478 15.1777C10.4503 15.1762 10.4539 15.1739 10.4585 15.1709C10.4677 15.165 10.4808 15.1565 10.4964 15.146C10.5278 15.1249 10.5695 15.096 10.6108 15.0642C10.6522 15.0324 10.693 14.998 10.7227 14.9661C10.7376 14.9501 10.7494 14.9349 10.7572 14.9213C10.7651 14.9074 10.7679 14.8964 10.7669 14.8884C10.7657 14.8792 10.7616 14.8697 10.7544 14.8596C10.7472 14.8496 10.7373 14.8394 10.7252 14.8287C10.7102 14.8155 10.6925 14.802 10.6733 14.7874C10.6613 14.7783 10.6488 14.7688 10.6361 14.7587C10.57 14.7062 10.4979 14.6375 10.4748 14.5295C10.4521 14.4235 10.4465 14.2614 10.4422 14.1156C10.442 14.1074 10.4418 14.0993 10.4415 14.0912C10.4397 14.0271 10.438 13.967 10.4351 13.9168C10.4334 13.8886 10.4313 13.8637 10.4287 13.8431C10.426 13.8224 10.4228 13.8067 10.4189 13.7964C10.4155 13.7873 10.4066 13.777 10.3922 13.7658C10.3779 13.7548 10.3592 13.7436 10.3374 13.7321C10.3041 13.7146 10.2641 13.6969 10.2228 13.6786C10.2102 13.6729 10.1974 13.6673 10.1847 13.6616C10.1307 13.6372 10.0773 13.6118 10.0373 13.5848C10.0174 13.5713 10.0005 13.5573 9.98849 13.5425C9.97656 13.5277 9.96875 13.5114 9.96875 13.4933C9.96875 13.4724 9.97612 13.4489 9.98809 13.4242C10.0001 13.3994 10.0173 13.3724 10.0378 13.3443C10.0788 13.2882 10.1338 13.2271 10.1901 13.169C10.2462 13.111 10.3037 13.0558 10.3499 13.0114L10.3504 13.011C10.3736 12.9887 10.394 12.9692 10.4099 12.9534C10.426 12.9374 10.4372 12.9256 10.4425 12.9185C10.4548 12.9021 10.468 12.897 10.4802 12.9014C10.492 12.9056 10.5015 12.9182 10.5076 12.9334C10.5196 12.9634 10.5203 13.0089 10.4951 13.0344C10.4835 13.0499 10.4546 13.0827 10.4181 13.1237C10.4085 13.1346 10.3982 13.146 10.3876 13.1579C10.3578 13.1914 10.3249 13.2282 10.2927 13.2649C10.2492 13.3145 10.2071 13.3636 10.176 13.403C10.1604 13.4227 10.1477 13.4399 10.1388 13.4535C10.1344 13.4603 10.1311 13.466 10.1289 13.4706C10.1278 13.4729 10.1271 13.4747 10.1266 13.4762C10.1264 13.4769 10.1263 13.4774 10.1262 13.4778C10.1261 13.4782 10.1261 13.4784 10.1261 13.4784C10.1261 13.482 10.1283 13.4876 10.1356 13.4947C10.1426 13.5015 10.1529 13.5085 10.1661 13.5154C10.1924 13.5292 10.2286 13.5423 10.2678 13.5535C10.3463 13.5759 10.4358 13.5908 10.4802 13.5908C10.53 13.5908 10.5653 13.576 10.5879 13.5547C10.6105 13.5334 10.6207 13.5056 10.6207 13.4784C10.6207 13.4714 10.6169 13.4649 10.6075 13.4571C10.603 13.4533 10.5977 13.4496 10.5917 13.4455C10.5908 13.4449 10.5898 13.4442 10.5888 13.4435C10.5837 13.4401 10.5784 13.4364 10.573 13.4325C10.5472 13.4134 10.5195 13.3852 10.5195 13.3285C10.5195 13.2742 10.5341 13.2272 10.5606 13.1938C10.5871 13.1604 10.6251 13.1412 10.6713 13.1412C10.6955 13.1412 10.7304 13.161 10.7591 13.1915C10.7877 13.2221 10.8118 13.2652 10.8118 13.3135C10.8118 13.3621 10.7902 13.3903 10.7689 13.413C10.7655 13.4167 10.7621 13.4201 10.7588 13.4235C10.7516 13.4309 10.7449 13.4379 10.7389 13.4454C10.7303 13.4562 10.7242 13.4671 10.7217 13.48C10.7193 13.496 10.7229 13.5106 10.7312 13.5239C10.7398 13.5374 10.7533 13.5495 10.7705 13.5595C10.8047 13.5796 10.8517 13.5908 10.8961 13.5908C10.9083 13.5908 10.9239 13.5961 10.9413 13.6049C10.9589 13.6138 10.979 13.6264 11.0006 13.6418C11.0437 13.6724 11.093 13.7137 11.1409 13.7569C11.2358 13.8425 11.3255 13.9358 11.3491 13.967C11.3624 13.9775 11.375 13.9856 11.3861 13.9926L11.3869 13.9931C11.3981 14.0002 11.4082 14.0067 11.4152 14.0138C11.4187 14.0175 11.4217 14.0217 11.4237 14.0267C11.4257 14.032 11.4263 14.0377 11.4255 14.0438C11.4239 14.0554 11.4171 14.0681 11.4058 14.0831C11.3891 14.1055 11.3824 14.1271 11.3774 14.1434C11.3759 14.1481 11.3746 14.1524 11.3732 14.1561C11.3717 14.1601 11.3698 14.1642 11.367 14.167C11.3638 14.1702 11.36 14.1708 11.3561 14.1693C11.3525 14.168 11.3488 14.1649 11.3449 14.1608C11.3409 14.1565 11.3361 14.1507 11.3305 14.1431M10.8996 13.814C10.8978 13.8167 10.8958 13.8214 10.894 13.8285C10.892 13.8361 10.8902 13.8459 10.8887 13.8576C10.8857 13.881 10.8838 13.9115 10.8827 13.947C10.8806 14.0179 10.882 14.1076 10.8848 14.1974C10.8876 14.2872 10.8918 14.3771 10.8953 14.4483C10.896 14.4624 10.8967 14.4758 10.8973 14.4883C10.8999 14.5388 10.9017 14.5751 10.9017 14.5874C10.9017 14.6295 10.9189 14.653 10.9395 14.681C10.9427 14.6854 10.946 14.6899 10.9493 14.6946C10.9614 14.7118 10.9736 14.7312 10.9818 14.7573C10.9901 14.7833 10.9944 14.8154 10.9916 14.8575" fill="#707070"/>
<path fill-rule="evenodd" clip-rule="evenodd" d="M10.4023 13.583H10.9644V14.3473H10.4023V13.583Z" fill="#A7A7A7"/>
<path d="M12.1902 16.3416L10.3456 12.6498C10.3284 12.6153 10.3056 12.5937 10.2946 12.6015C10.2837 12.6093 10.2887 12.6435 10.3059 12.678L12.1505 16.3698C12.1678 16.4043 12.1906 16.4259 12.2015 16.4181C12.2125 16.4103 12.2074 16.3761 12.1902 16.3416Z" fill="#808080"/>
<path fill-rule="evenodd" clip-rule="evenodd" d="M10.5478 12.9831C10.5478 13.0123 10.5381 13.0403 10.5208 13.061C10.5035 13.0816 10.48 13.0932 10.4556 13.0932C10.4311 13.0932 10.4076 13.0816 10.3903 13.061C10.373 13.0403 10.3633 13.0123 10.3633 12.9831C10.3633 12.9539 10.373 12.9259 10.3903 12.9053C10.4076 12.8846 10.4311 12.873 10.4556 12.873C10.48 12.873 10.5035 12.8846 10.5208 12.9053C10.5381 12.9259 10.5478 12.9539 10.5478 12.9831Z" fill="#D0D0D0"/>
<path fill-rule="evenodd" clip-rule="evenodd" d="M10.4539 12.8811C10.4308 12.8811 10.4089 12.8921 10.3927 12.9113C10.3767 12.9305 10.3678 12.9563 10.3678 12.983C10.3678 13.0097 10.3767 13.0356 10.3927 13.0547C10.4089 13.074 10.4308 13.0849 10.4539 13.0849C10.4769 13.0849 10.4989 13.074 10.515 13.0547C10.5311 13.0356 10.54 13.0097 10.54 12.983C10.54 12.9563 10.5311 12.9305 10.515 12.9113C10.4989 12.8921 10.4769 12.8811 10.4539 12.8811ZM10.3845 12.8991C10.403 12.877 10.428 12.8647 10.4539 12.8647C10.4798 12.8647 10.5047 12.877 10.5232 12.8991C10.5418 12.9212 10.5523 12.9513 10.5523 12.983C10.5523 13.0147 10.5418 13.0449 10.5232 13.067C10.5047 13.089 10.4798 13.1013 10.4539 13.1013C10.428 13.1013 10.403 13.089 10.3845 13.067C10.366 13.0449 10.3555 13.0147 10.3555 12.983C10.3555 12.9513 10.366 12.9212 10.3845 12.8991Z" fill="#707070"/>
<path fill-rule="evenodd" clip-rule="evenodd" d="M12.1561 13.973C12.1561 14.0179 11.9313 14.0779 11.6952 14.0779C11.4479 14.0779 11.2344 14.0179 11.2344 13.973C11.2344 13.928 11.4479 14.0479 11.684 14.0479C11.9425 14.0479 12.1561 13.928 12.1561 13.973Z" fill="#808080"/>
<path fill-rule="evenodd" clip-rule="evenodd" d="M10.4473 14.3477H10.9081V14.5725H10.4585L10.4473 14.3477Z" fill="#A7A7A7"/>
<path fill-rule="evenodd" clip-rule="evenodd" d="M11.9415 13.8078C11.8965 13.9277 11.8628 14.0026 11.8516 13.9877C11.8516 13.9877 11.874 13.8678 11.919 13.7628L12.0089 13.583C12.0202 13.598 11.9864 13.7029 11.9415 13.8078ZM12.0539 14.1075L11.964 14.1825C11.9873 14.1303 12.0178 14.0846 12.0539 14.0476C12.1101 13.9877 12.155 13.9577 12.155 13.9727L12.0651 14.0926L12.0539 14.1075Z" fill="#808080"/>
<path fill-rule="evenodd" clip-rule="evenodd" d="M12.0101 13.958L12.0663 14.1378L11.9764 13.9879L11.9202 13.8081L12.0101 13.958ZM11.9652 14.4376C11.9652 14.4376 11.8303 14.4675 11.6504 14.4675C11.4706 14.4675 11.3245 14.4525 11.3245 14.4376L11.6504 14.4076C11.8303 14.4076 11.9652 14.4076 11.9652 14.4376ZM10.9086 14.3776C10.9086 14.3926 10.8074 14.4076 10.6838 14.4076C10.5489 14.4076 10.459 14.4076 10.459 14.3776C10.459 14.3776 10.5489 14.3476 10.6838 14.3476C10.8074 14.3476 10.9086 14.3626 10.9086 14.3776Z" fill="#808080"/>
<path fill-rule="evenodd" clip-rule="evenodd" d="M9.89648 16.2957C9.89648 16.2957 9.97517 16.5355 10.3011 16.5355C10.6159 16.5355 10.7283 16.4606 10.6046 16.3407C10.481 16.2208 10.2224 16.2508 10.2674 16.3557C10.2899 16.4756 10.1662 16.5055 10.1438 16.4306C10.11 16.3557 9.99765 16.1159 10.2 16.1009C10.4135 16.0859 10.8519 15.996 10.9643 16.1608C11.0767 16.3257 10.8407 16.4606 11.0205 16.5055C11.1891 16.5355 11.2228 16.4606 11.5263 16.4456C11.8298 16.4156 11.9534 16.5205 12.0546 16.5055C12.167 16.5055 12.1445 16.2508 12.0546 16.2058C11.9759 16.1309 11.8186 16.1159 11.7736 16.0559C11.7399 15.981 11.6275 16.0559 11.6387 15.966C11.6387 15.8911 11.7961 16.011 11.7961 15.981L11.8186 15.951H11.7848L11.7961 15.9211L11.7736 15.936L11.7848 15.9061C11.7848 15.9061 11.7511 15.936 11.7511 15.9061H11.7286C11.7511 15.8761 11.7399 15.8761 11.7286 15.8611H11.6949V15.8161C11.6724 15.8161 11.6724 15.8161 11.6612 15.8461V15.7712C11.6612 15.7562 11.6837 15.7412 11.7174 15.7412C11.7961 15.7412 11.8298 15.8611 11.8635 15.8611C11.886 15.8611 11.9197 15.7412 12.0209 15.7862L12.1895 15.8761C12.2457 15.9211 12.1558 15.966 12.1895 16.026C12.2232 16.0859 12.4255 16.2807 12.3693 16.5055C12.3131 16.7154 12.1445 16.7453 12.1445 16.8353C12.122 16.9252 12.6278 16.8952 12.7515 16.9252C12.8375 16.946 12.914 17.0104 12.965 17.105L12.7402 17.12C12.7402 17.12 12.6278 17.0451 12.3468 17.0301C12.0658 17.0301 11.9647 16.8802 11.8523 16.8502L11.4027 16.8802L11.0655 16.8353C10.998 16.8203 10.5934 17.075 10.5934 17.135H10.3236C10.3236 17.135 10.3573 17.0001 10.5147 16.9851C10.6608 16.9551 10.8182 16.8652 10.8069 16.8053L10.8519 16.4156C10.8519 16.3257 10.9193 16.2658 10.9081 16.2358C10.8969 16.1758 10.717 16.1309 10.5484 16.1309C10.3798 16.1309 10.2 16.1459 10.1662 16.1908C10.1438 16.2508 10.1662 16.4156 10.2 16.3856C10.2337 16.3856 10.1887 16.2658 10.2224 16.2508C10.2953 16.2209 10.3711 16.2058 10.4473 16.2058C10.5372 16.2058 10.6833 16.3107 10.6833 16.3557C10.6833 16.3707 10.7283 16.4756 10.6608 16.5205C10.5486 16.5701 10.4303 16.5905 10.3124 16.5805C10.1949 16.5723 10.0801 16.5315 9.97517 16.4606C9.9302 16.4156 9.89648 16.3107 9.89648 16.2957Z" fill="#D0D0D0"/>
<path fill-rule="evenodd" clip-rule="evenodd" d="M11.669 15.7656C11.667 15.7683 11.6666 15.7702 11.6666 15.7714V15.8184C11.6677 15.8167 11.669 15.8151 11.6705 15.8138C11.6736 15.811 11.6771 15.8099 11.6809 15.8093C11.6845 15.8088 11.689 15.8088 11.6944 15.8088L11.7003 15.8088V15.8538H11.7307L11.7324 15.856C11.7342 15.8584 11.736 15.8603 11.7377 15.8623C11.7385 15.8631 11.7392 15.8638 11.7399 15.8647C11.7422 15.8672 11.7451 15.8708 11.7464 15.8758C11.7478 15.8814 11.7467 15.887 11.7443 15.8924C11.7435 15.8944 11.7424 15.8965 11.7411 15.8987H11.7565V15.9062C11.7565 15.9091 11.7569 15.9105 11.7571 15.911C11.7573 15.9114 11.7575 15.9116 11.7579 15.9118C11.7592 15.9124 11.7619 15.9122 11.766 15.9104C11.7697 15.9087 11.7736 15.9061 11.7766 15.9039C11.7781 15.9028 11.7793 15.9018 11.7802 15.9011L11.7812 15.9003L11.7814 15.9001L11.7815 15.9M11.6891 15.8238C11.6862 15.8239 11.684 15.824 11.6821 15.8242C11.6792 15.8246 11.6778 15.8254 11.6767 15.8263C11.6756 15.8273 11.6743 15.829 11.6726 15.8329C11.6708 15.8367 11.6688 15.842 11.666 15.8496L11.6553 15.8463V15.7714C11.6553 15.765 11.6577 15.7594 11.661 15.755C11.6643 15.7507 11.6689 15.7469 11.6742 15.7439C11.6849 15.7377 11.6997 15.7339 11.7172 15.7339C11.7588 15.7339 11.7883 15.7658 11.811 15.796C11.816 15.8026 11.8205 15.809 11.8248 15.815C11.8306 15.8231 11.8358 15.8306 11.8411 15.837C11.8502 15.8483 11.8572 15.8538 11.8633 15.8538C11.8643 15.8538 11.866 15.8531 11.869 15.8502C11.8719 15.8473 11.8752 15.8432 11.8791 15.8379C11.8804 15.8363 11.8817 15.8346 11.883 15.8328C11.8901 15.8232 11.8987 15.8116 11.909 15.801C11.9214 15.7883 11.9366 15.777 11.9554 15.7717C11.9742 15.7665 11.9963 15.7676 12.0224 15.7792L12.0227 15.7794L12.1922 15.8698L12.1921 15.8698C12.2071 15.8818 12.2138 15.8951 12.2138 15.9102C12.2138 15.9242 12.2079 15.9376 12.2025 15.9495C12.2018 15.9509 12.2012 15.9523 12.2005 15.9536C12.1954 15.9647 12.1906 15.975 12.1883 15.9858C12.1859 15.9971 12.1865 16.0087 12.1937 16.0216C12.1977 16.0286 12.2042 16.0379 12.2129 16.0494C12.2173 16.0553 12.2221 16.0615 12.2272 16.0681C12.2322 16.0747 12.2377 16.0818 12.2434 16.0894C12.2663 16.1197 12.2932 16.157 12.3174 16.1996C12.3655 16.2845 12.4034 16.3921 12.3744 16.5081L12.3744 16.5082C12.3457 16.6154 12.2882 16.6765 12.2388 16.7217C12.2316 16.7283 12.2246 16.7345 12.2179 16.7405C12.2014 16.7551 12.1868 16.7681 12.1751 16.7812C12.1587 16.7996 12.1499 16.8164 12.1499 16.8354V16.8366L12.1496 16.8378C12.1488 16.8411 12.1491 16.8437 12.1506 16.8466C12.1523 16.8499 12.1557 16.8535 12.1613 16.8572C12.1725 16.8645 12.1902 16.8707 12.2132 16.8758C12.259 16.886 12.3236 16.8916 12.3932 16.8954C12.4358 16.8977 12.4801 16.8993 12.5229 16.9008C12.5499 16.9018 12.5763 16.9027 12.6013 16.9038C12.6656 16.9066 12.7208 16.9104 12.7522 16.918C12.8397 16.9391 12.9175 17.0047 12.9694 17.1008L12.9754 17.112L12.7388 17.1278M12.0187 15.7934C11.9943 15.7826 11.9743 15.7818 11.9577 15.7864C11.941 15.791 11.9273 15.8012 11.9159 15.8129C11.9062 15.8228 11.8982 15.8335 11.8911 15.8431C11.8898 15.845 11.8884 15.8468 11.8871 15.8485C11.8831 15.8538 11.8793 15.8587 11.8757 15.8623C11.8721 15.8657 11.8679 15.8688 11.8633 15.8688C11.8525 15.8688 11.8426 15.8593 11.8335 15.848C11.8281 15.8414 11.8222 15.8332 11.8161 15.8246C11.8119 15.8187 11.8075 15.8125 11.8031 15.8066C11.7808 15.7769 11.7541 15.7489 11.7172 15.7489C11.7008 15.7489 11.6876 15.7525 11.6786 15.7576C11.6741 15.7602 11.6709 15.763 11.669 15.7656M10.1706 16.1955C10.1658 16.209 10.1632 16.2288 10.1627 16.2512C10.1622 16.274 10.1639 16.2987 10.1673 16.3206C10.1708 16.3427 10.1758 16.3612 10.1817 16.3721C10.1846 16.3776 10.1873 16.3804 10.1895 16.3814C10.1914 16.3823 10.1936 16.3822 10.1966 16.3796L10.198 16.3783H10.1997C10.2025 16.3783 10.2038 16.3772 10.2047 16.3758C10.2057 16.3741 10.2067 16.3711 10.2071 16.3659C10.2081 16.3556 10.2068 16.3412 10.2054 16.3249C10.204 16.3093 10.2025 16.2919 10.2036 16.2775C10.2048 16.2632 10.2088 16.249 10.2204 16.2438L10.2206 16.2438C10.2939 16.2137 10.3703 16.1984 10.447 16.1985M10.1706 16.1955C10.1741 16.1911 10.1797 16.1867 10.1874 16.1824C10.1955 16.1779 10.2056 16.1737 10.2175 16.1699C10.2414 16.1623 10.2721 16.1563 10.3071 16.1516C10.3771 16.1423 10.464 16.1385 10.5482 16.1385C10.6322 16.1385 10.7189 16.1497 10.7859 16.1683C10.8194 16.1777 10.8478 16.1888 10.8683 16.2011C10.8786 16.2073 10.8867 16.2136 10.8925 16.22C10.8984 16.2264 10.9014 16.2324 10.9024 16.2378L10.9026 16.2386L10.9028 16.2393C10.9042 16.243 10.9037 16.2491 10.8989 16.2604C10.8957 16.2681 10.8911 16.2767 10.8859 16.2866C10.8838 16.2906 10.8816 16.2947 10.8793 16.2991C10.8639 16.3291 10.8462 16.368 10.846 16.4152L10.801 16.8058L10.8012 16.8073C10.8022 16.8124 10.8015 16.8183 10.7985 16.8255C10.7954 16.8327 10.7902 16.8405 10.7827 16.8489C10.7678 16.8656 10.7452 16.883 10.7173 16.8998C10.6616 16.9332 10.5864 16.9629 10.5138 16.9778C10.434 16.9855 10.3851 17.0236 10.356 17.0604C10.3415 17.0788 10.3321 17.0967 10.3262 17.1101C10.3233 17.1168 10.3213 17.1224 10.32 17.1263C10.3193 17.1283 10.3189 17.1299 10.3185 17.131L10.3182 17.1322L10.3181 17.1326L10.3181 17.1327M10.681 16.3319C10.6855 16.3395 10.6887 16.3477 10.6887 16.3558C10.6887 16.3558 10.6887 16.3563 10.689 16.3578C10.6892 16.3591 10.6897 16.3609 10.6902 16.363C10.6907 16.3652 10.6914 16.3676 10.6921 16.3703C10.6928 16.373 10.6936 16.376 10.6944 16.3792C10.6976 16.392 10.7012 16.4086 10.7027 16.4262C10.7042 16.4438 10.7035 16.4631 10.6977 16.481C10.6919 16.4992 10.681 16.5154 10.6631 16.5274L10.6624 16.5279C10.5495 16.5778 10.4305 16.5982 10.3118 16.5881C10.1936 16.5799 10.078 16.5388 9.97239 16.4674L9.9715 16.4668L9.97155 16.4667C9.94813 16.4433 9.92799 16.4048 9.91381 16.3707C9.90668 16.3536 9.90096 16.3374 9.89701 16.3245C9.89504 16.318 9.89348 16.3123 9.89241 16.3076C9.8914 16.3033 9.89062 16.299 9.89062 16.2959M10.681 16.3319C10.6765 16.3241 10.6701 16.3159 10.6623 16.3076L10.681 16.3319ZM10.6623 16.3076C10.6468 16.291 10.6254 16.2734 10.6013 16.2573L10.6623 16.3076ZM10.6013 16.2573C10.5532 16.2253 10.4932 16.1985 10.447 16.1985L10.6013 16.2573Z" fill="#808080"/>
<path fill-rule="evenodd" clip-rule="evenodd" d="M11.9424 15.9214C11.9424 15.9273 11.9416 15.9332 11.9399 15.9386C11.9382 15.9441 11.9357 15.949 11.9326 15.9532C11.9294 15.9574 11.9257 15.9607 11.9216 15.963C11.9175 15.9652 11.9131 15.9664 11.9087 15.9664C11.9043 15.9664 11.8999 15.9652 11.8958 15.963C11.8917 15.9607 11.888 15.9574 11.8849 15.9532C11.8817 15.949 11.8793 15.9441 11.8776 15.9386C11.8759 15.9332 11.875 15.9273 11.875 15.9214C11.875 15.9095 11.8786 15.8981 11.8849 15.8896C11.8912 15.8812 11.8998 15.8765 11.9087 15.8765C11.9177 15.8765 11.9262 15.8812 11.9326 15.8896C11.9389 15.8981 11.9424 15.9095 11.9424 15.9214Z" fill="black"/>
<path d="M13.6846 15.2168L13.8644 15.2617L14.1679 14.992L14.1454 15.1419L13.9881 15.2767L13.8981 15.3367L13.9543 15.4566L14.0555 15.6664L14.033 15.8163L13.8419 15.3816L13.6621 15.3367L13.6846 15.2168ZM13.3811 13.4483L13.7183 13.2385L13.6284 12.9688L13.6733 12.9388L13.8981 13.5982L13.8644 13.6282L13.7633 13.3434L13.4261 13.5682L13.3811 13.4483ZM12.8416 12.5791L13.1563 12.1894L13.2237 12.2794V12.9388L13.471 12.639L13.5272 12.729L13.2125 13.1186L13.1451 13.0287V12.3693L12.8978 12.669L12.8416 12.5791ZM11.4478 11.8298L11.504 11.2603H11.5939L11.5377 11.7848L11.8749 11.8298V11.9047L11.4478 11.8298ZM10.7621 11.9197L10.6835 11.3502L10.7734 11.3202L10.8408 11.8298L11.178 11.7398V11.8148L10.7621 11.9197ZM9.492 12.744L9.45828 12.699L9.68309 12.4592L9.79549 12.6091C9.77135 12.6739 9.74113 12.7343 9.70557 12.7889C9.6764 12.844 9.64245 12.8943 9.60441 12.9388C9.55695 12.9894 9.50386 13.0299 9.44704 13.0587C9.39084 13.0737 9.33464 13.0887 9.30092 13.0587C9.25792 13.0525 9.21801 13.0259 9.18852 12.9837C9.16577 12.9397 9.15397 12.8873 9.1548 12.8339C9.1548 12.7739 9.16604 12.699 9.19976 12.639C9.22224 12.5791 9.2672 12.5192 9.31216 12.4742C9.34961 12.4319 9.3912 12.3966 9.4358 12.3693L9.53697 12.3393C9.55945 12.3393 9.59317 12.3393 9.61565 12.3693L9.57069 12.4442C9.54941 12.4322 9.5263 12.427 9.50325 12.4292L9.4358 12.4442C9.40717 12.4644 9.3807 12.4896 9.35712 12.5192C9.3234 12.5491 9.28968 12.5791 9.27844 12.6241C9.25949 12.6502 9.24426 12.6806 9.23348 12.714V12.7889C9.23348 12.8339 9.24472 12.8788 9.2672 12.9088L9.34588 12.9837L9.45828 12.9688C9.56172 12.9105 9.64566 12.8039 9.69433 12.669L9.64937 12.5791L9.492 12.744ZM9.48076 16.8953L9.12108 17.24L8.85132 16.7305L8.89628 16.6855L9.12108 17.0901L9.22224 16.9852L9.0424 16.6405L9.07612 16.6106L9.2672 16.9553L9.42456 16.8054L9.48076 16.8953ZM8.95248 16.146C9.00868 16.131 9.0424 16.086 9.06488 16.0111V15.7863C9.04715 15.7089 9.01179 15.6408 8.96372 15.5915C8.93 15.5465 8.8738 15.5315 8.82884 15.5465C8.79326 15.5569 8.76148 15.5833 8.73891 15.6214C8.72767 15.6514 8.70519 15.6964 8.70519 15.7413L8.71643 15.9062C8.73892 15.9961 8.76139 16.0561 8.80636 16.116C8.84008 16.161 8.89628 16.1759 8.95248 16.146ZM8.9862 16.2659C8.95326 16.2799 8.91809 16.2817 8.88444 16.2711C8.85079 16.2606 8.81992 16.238 8.79512 16.2059C8.73514 16.1339 8.69218 16.0402 8.67147 15.9362C8.64899 15.8462 8.64899 15.7863 8.64899 15.6964C8.64899 15.6064 8.67147 15.5765 8.69395 15.5315C8.71955 15.4781 8.75996 15.4404 8.80636 15.4266C8.84406 15.4154 8.88347 15.4206 8.91876 15.4416C8.96372 15.4716 8.99744 15.5015 9.03116 15.5615C9.10019 15.6924 9.13206 15.8517 9.12108 16.0111C9.11701 16.0703 9.10152 16.1271 9.07612 16.1759C9.05364 16.2209 9.01992 16.2509 8.9862 16.2659ZM9.01992 15.0969H8.57031V14.6773L8.59279 14.4974L8.63775 14.3925C8.64688 14.3817 8.65756 14.3734 8.66916 14.3683C8.68075 14.3631 8.69302 14.3612 8.70519 14.3625C8.73891 14.3625 8.7614 14.3775 8.78388 14.4225C8.79512 14.4674 8.8176 14.5274 8.8176 14.6173C8.83242 14.5541 8.85958 14.4972 8.89628 14.4525L9.01992 14.3026V14.4525L8.93 14.5574L8.86256 14.6473C8.84916 14.6649 8.8378 14.6851 8.82884 14.7072C8.82696 14.7271 8.82696 14.7473 8.82884 14.7672V14.8271L8.8176 14.977H9.01992V15.0969ZM8.77264 14.962V14.7072C8.77644 14.6624 8.77644 14.6172 8.77264 14.5724C8.76863 14.5504 8.76095 14.5299 8.75015 14.5124C8.7421 14.4972 8.73008 14.4865 8.71643 14.4824C8.69395 14.4824 8.67147 14.4974 8.66023 14.5274L8.63775 14.6773V14.977H8.78388L8.77264 14.962ZM9.97533 12.4292V11.7548L10.0653 11.6799L10.5261 11.9796L10.4362 12.0546L10.3013 11.9646L10.0653 12.1595V12.3693L9.97533 12.4292ZM10.054 12.0845L10.2563 11.9347L10.1439 11.8447C10.1091 11.8226 10.0753 11.7976 10.0428 11.7698L10.054 11.8897V12.0845ZM12.1447 11.9047L12.6168 11.6499L12.6954 11.7248L12.6617 12.4142L12.583 12.3243L12.5943 12.1295L12.3695 11.9047L12.2234 11.9796L12.1447 11.9047ZM12.4144 11.8747L12.6055 12.0546V11.8747C12.6107 11.8242 12.6182 11.7741 12.628 11.7248C12.6041 11.7538 12.5777 11.779 12.5493 11.7998L12.4144 11.8747ZM13.5722 14.0178L13.9993 13.883L14.0667 14.2876L14.0892 14.4674L14.0667 14.5724C14.061 14.587 14.053 14.5998 14.0433 14.6102C14.0337 14.6205 14.0225 14.628 14.0105 14.6323C13.9768 14.6323 13.9431 14.6323 13.9206 14.6023C13.8835 14.5521 13.8564 14.4903 13.8419 14.4225C13.8438 14.4474 13.8438 14.4725 13.8419 14.4974L13.797 14.6173L13.7071 14.7972L13.6846 14.6473L13.752 14.4974L13.797 14.4075C13.8122 14.3708 13.82 14.3295 13.8195 14.2876C13.817 14.2623 13.8133 14.2373 13.8082 14.2127L13.7857 14.0778L13.5947 14.1377L13.5722 14.0178ZM13.8307 14.0628L13.8757 14.3176C13.8757 14.3625 13.8981 14.4075 13.9094 14.4375C13.9094 14.4674 13.9319 14.4824 13.9431 14.4974L13.9881 14.5124C13.9993 14.5124 14.0218 14.4824 14.0218 14.4525C14.0308 14.4032 14.0308 14.3518 14.0218 14.3026L13.9656 14.0178L13.8307 14.0628Z" fill="#D0D0D0"/>
</g>
<defs>
<clipPath id="clip0_45_17758">
<rect width="45" height="45" fill="white"/>
</clipPath>
</defs>
</svg>
