<svg width="45" height="45" viewBox="0 0 45 45" fill="none" xmlns="http://www.w3.org/2000/svg">
<g clip-path="url(#clip0_45_18271)">
<path d="M0 0H45V45H0V0Z" fill="#CC0000"/>
<path d="M0.0351562 3.74023H44.9648V7.34023H0.0351562V3.74023ZM0.0351562 11.1184H44.9648V14.7184H0.0351562V11.1184ZM0.0351562 18.5059H44.9648V22.1059H0.0351562V18.5059Z" fill="white"/>
<path d="M0 0.046875H22.5V26.2969H0V0.046875Z" fill="#000066"/>
<path d="M14.5893 6.91875L15.0112 10.7344L16.6284 7.54688L15.7565 11.2219L18.2526 9.27188L16.2768 12.0844L19.1596 11.7844L16.4667 13.1719L19.1596 14.5594L16.2768 14.2594L18.2526 17.0719L15.7565 15.1219L16.6213 18.8063L15.0042 15.6094L14.5823 19.425L14.1674 15.6094L12.5503 18.7969L13.4221 15.1219L10.926 17.0719L12.8948 14.2594L10.012 14.5594L12.712 13.1719L10.019 11.7844L12.9018 12.0844L10.926 9.27188L13.4221 11.2219L12.5503 7.5375L14.1674 10.7344L14.5893 6.91875ZM12.2479 7.07813C11.4868 6.62829 10.6535 6.439 9.82366 6.52744C8.99379 6.61588 8.19363 6.97925 7.49579 7.58457C6.79795 8.18988 6.22454 9.01798 5.8276 9.9937C5.43066 10.9694 5.22275 12.0619 5.22275 13.1719C5.22275 14.2819 5.43066 15.3743 5.8276 16.3501C6.22454 17.3258 6.79795 18.1539 7.49579 18.7592C8.19363 19.3645 8.99379 19.7279 9.82366 19.8163C10.6535 19.9048 11.4868 19.7155 12.2479 19.2656C11.4073 20.0698 10.4167 20.5492 9.38505 20.6513C8.35336 20.7534 7.32053 20.4741 6.40015 19.8443C5.47978 19.2144 4.70751 18.2583 4.16828 17.0811C3.62905 15.9039 3.34375 14.5513 3.34375 13.1719C3.34375 11.7925 3.62905 10.4398 4.16828 9.26266C4.70751 8.08547 5.47978 7.12937 6.40015 6.49949C7.32053 5.86961 8.35336 5.59036 9.38505 5.69245C10.4167 5.79453 11.4073 6.274 12.2479 7.07813Z" fill="#FFCC00"/>
<path d="M0.0351562 25.8936H44.9648V29.4936H0.0351562V25.8936ZM0.0351562 33.2248H44.9648V36.8248H0.0351562V33.2248ZM0 41.3998H44.9297V44.9998H0V41.3998Z" fill="white"/>
</g>
<defs>
<clipPath id="clip0_45_18271">
<rect width="45" height="45" fill="white"/>
</clipPath>
</defs>
</svg>
