<svg width="45" height="45" viewBox="0 0 45 45" fill="none" xmlns="http://www.w3.org/2000/svg">
<g clip-path="url(#clip0_45_18277)">
<path fill-rule="evenodd" clip-rule="evenodd" d="M0 0H50.625V14.0625H0V0Z" fill="#009A00"/>
<path fill-rule="evenodd" clip-rule="evenodd" d="M0 14.0625H50.625V15.4688H0V14.0625Z" fill="white"/>
<path fill-rule="evenodd" clip-rule="evenodd" d="M0 15.4688H50.625V29.5312H0V15.4688Z" fill="black"/>
<path fill-rule="evenodd" clip-rule="evenodd" d="M0 29.5312H50.625V30.9375H0V29.5312Z" fill="white"/>
<path fill-rule="evenodd" clip-rule="evenodd" d="M0 30.9375H50.625V45H0V30.9375Z" fill="#FFCA00"/>
<path fill-rule="evenodd" clip-rule="evenodd" d="M0 0V45L22.1484 22.5L0 0Z" fill="#FF0000"/>
<path fill-rule="evenodd" clip-rule="evenodd" d="M13.083 29.2676L9.70801 25.9717L6.33301 29.2676L7.64478 23.9678L4.25 20.707L8.43579 20.7246L9.70801 15.416L10.9868 20.7334L15.1726 20.707L11.7778 23.9678L13.083 29.2676Z" fill="#FFCA00"/>
<path fill-rule="evenodd" clip-rule="evenodd" d="M6.77734 25.5674H9.21631C9.41406 25.8574 9.84253 25.9805 10.2578 25.5674C11.0225 25.0049 12.499 25.5674 12.499 25.5674L12.7891 25.1543L12.0837 22.0605L11.8267 21.6914C11.8267 21.6914 11.2795 21.252 10.2446 21.4014C9.20972 21.5508 8.84717 21.3574 8.84717 21.3574C8.84717 21.3574 7.94409 21.498 7.68701 21.6738L7.39697 22.0605L6.77734 25.5674Z" fill="white"/>
<path fill-rule="evenodd" clip-rule="evenodd" d="M8.85978 21.3121C8.85977 21.312 8.85979 21.3121 8.85978 21.3121C8.85977 21.312 8.85969 21.312 8.85968 21.312C8.85411 21.3091 8.84807 21.308 8.84211 21.3089L8.84631 21.3569C8.84211 21.3089 8.84212 21.3089 8.84211 21.3089L8.83945 21.3093L8.83177 21.3106C8.82505 21.3116 8.81517 21.3132 8.80252 21.3154C8.77722 21.3196 8.74082 21.3258 8.69635 21.3337C8.60743 21.3497 8.48612 21.3729 8.3567 21.4015C8.22735 21.4302 8.08949 21.4644 7.96758 21.5027C7.84662 21.5406 7.73816 21.5835 7.66961 21.6303C7.66626 21.6326 7.66319 21.6356 7.66052 21.6392L7.37048 22.0259C7.36572 22.0322 7.36237 22.0402 7.36083 22.049L6.74138 25.5548C6.74063 25.5586 6.74023 25.5627 6.74023 25.5669C6.74023 25.5936 6.75647 25.6152 6.77649 25.6152H9.19974C9.41546 25.9135 9.85611 26.0242 10.2766 25.6077C10.6481 25.3359 11.197 25.3339 11.6602 25.404C11.891 25.4389 12.0982 25.4913 12.2477 25.535C12.3225 25.5569 12.3827 25.5765 12.4242 25.5907C12.445 25.5977 12.4611 25.6034 12.4719 25.6074C12.4748 25.6084 12.4773 25.6093 12.4794 25.6101C12.4813 25.6108 12.4829 25.6114 12.4842 25.6119L12.4872 25.613L12.488 25.6133L12.4882 25.6134C12.5012 25.6183 12.5153 25.6132 12.5246 25.5999L12.8147 25.1868C12.8235 25.1742 12.8267 25.1563 12.8229 25.1398L12.1176 22.046C12.116 22.039 12.1132 22.0325 12.1095 22.0272L11.8524 21.658C11.8501 21.6547 11.8474 21.6518 11.8445 21.6495L11.8258 21.6909C11.8445 21.6495 11.8445 21.6495 11.8445 21.6495L11.8443 21.6493L11.8439 21.649L11.8424 21.6479C11.8412 21.6469 11.8394 21.6456 11.8371 21.6438C11.8325 21.6404 11.8258 21.6355 11.8169 21.6294C11.7992 21.6172 11.7731 21.6001 11.7385 21.5802C11.6694 21.5404 11.5669 21.4893 11.4319 21.443C11.1618 21.3505 10.7619 21.2775 10.2399 21.3528C9.7245 21.4272 9.3777 21.4161 9.1606 21.3868C9.05206 21.3722 8.97597 21.353 8.92746 21.3378C8.90321 21.3301 8.88585 21.3235 8.87477 21.3188C8.86923 21.3165 8.86527 21.3147 8.86279 21.3135C8.86156 21.3129 8.86069 21.3125 8.86019 21.3123L8.85978 21.3121ZM11.8029 21.7291C11.8026 21.7288 11.8021 21.7285 11.8017 21.7282C11.7978 21.7253 11.7917 21.7209 11.7836 21.7153C11.7673 21.704 11.7427 21.6879 11.7098 21.669C11.6439 21.631 11.545 21.5816 11.4139 21.5367C11.1517 21.4469 10.7606 21.3749 10.2477 21.4489C9.72814 21.5239 9.37621 21.5131 9.1533 21.483C9.04184 21.468 8.96261 21.4482 8.9108 21.4319C8.8849 21.4237 8.86585 21.4164 8.85305 21.4111C8.84867 21.4092 8.84502 21.4076 8.84209 21.4063L8.84045 21.4065C8.83382 21.4076 8.82404 21.4092 8.81149 21.4113C8.7864 21.4155 8.75024 21.4216 8.70603 21.4296C8.6176 21.4454 8.49706 21.4684 8.36858 21.4969C8.24003 21.5254 8.10391 21.5592 7.98419 21.5968C7.8668 21.6336 7.76818 21.6731 7.70767 21.713L7.42904 22.0845L6.82228 25.5186H9.21545C9.22567 25.5186 9.23541 25.5243 9.24228 25.5344C9.42604 25.8039 9.83318 25.9281 10.2353 25.5281C10.2366 25.5268 10.238 25.5256 10.2394 25.5246C10.6325 25.2354 11.2031 25.2375 11.6684 25.3079C11.9023 25.3433 12.112 25.3964 12.2633 25.4406C12.3389 25.4627 12.4 25.4826 12.4422 25.497C12.4608 25.5033 12.4757 25.5086 12.4867 25.5125L12.7474 25.1412L12.0506 22.0848L11.8029 21.7291Z" fill="black"/>
<path fill-rule="evenodd" clip-rule="evenodd" d="M9.24594 25.5831C9.40854 25.7345 9.56459 25.8022 9.72094 25.7963C9.8775 25.7904 10.0386 25.7106 10.2108 25.5571C10.0957 25.3709 9.93585 25.2254 9.74825 25.1126C9.59896 25.208 9.48422 25.3071 9.40058 25.393C9.34618 25.4488 9.30504 25.4989 9.27616 25.5386C9.26351 25.5559 9.25354 25.5709 9.24594 25.5831ZM9.66006 25.063C9.53335 25.1496 9.43287 25.2378 9.35635 25.3163C9.29941 25.3748 9.25563 25.428 9.22413 25.4712C9.19341 25.5134 9.17253 25.5487 9.16345 25.5714C9.15499 25.5925 9.15942 25.6187 9.17386 25.633C9.35676 25.8136 9.53756 25.8999 9.72298 25.893C9.90787 25.886 10.0927 25.7865 10.2841 25.6074C10.2922 25.5998 10.2976 25.5883 10.2991 25.5753C10.3007 25.5623 10.2982 25.5491 10.2922 25.5386C10.1781 25.3373 10.0193 25.181 9.83477 25.0601C9.85341 25.0493 9.87251 25.0387 9.89208 25.0281C10.3347 24.7899 11.0188 24.6104 12.0052 24.7895C12.0251 24.7931 12.0434 24.7746 12.0461 24.7481C12.0488 24.7217 12.0349 24.6973 12.015 24.6937C11.0173 24.5125 10.3204 24.6933 9.86494 24.9385C9.82374 24.9607 9.78452 24.9834 9.74725 25.0064C9.67531 24.965 9.6002 24.9285 9.52291 24.8961C9.20692 24.7639 8.8506 24.7006 8.51695 24.6747C8.18307 24.6487 7.87054 24.6601 7.64158 24.6778C7.52706 24.6867 7.43334 24.6973 7.3682 24.7056C7.33562 24.7097 7.31018 24.7133 7.29285 24.7159C7.28418 24.7172 7.27754 24.7182 7.27305 24.7189L7.26794 24.7197L7.26662 24.7199L7.26618 24.72C7.26615 24.72 7.26614 24.72 7.27063 24.768L7.26618 24.72C7.24631 24.7233 7.23217 24.7475 7.23466 24.774C7.23714 24.8005 7.25526 24.8193 7.27513 24.816L7.27063 24.768C7.27513 24.816 7.27512 24.816 7.27513 24.816L7.27549 24.8159L7.2767 24.8157L7.28157 24.8149C7.2859 24.8142 7.29237 24.8132 7.30086 24.812C7.31785 24.8095 7.34291 24.8059 7.3751 24.8018C7.43947 24.7936 7.53228 24.7832 7.6458 24.7744C7.8729 24.7567 8.18248 24.7455 8.51272 24.7712C8.84319 24.7969 9.19302 24.8594 9.50119 24.9884C9.55567 25.0112 9.60873 25.036 9.66006 25.063Z" fill="black"/>
<path fill-rule="evenodd" clip-rule="evenodd" d="M9.69727 25.084L9.71704 21.6738L9.79614 21.6746L9.77636 25.0848L9.69727 25.084ZM12.2228 24.445L11.7877 21.7292L11.8651 21.7072L12.3002 24.423L12.2228 24.445Z" fill="black"/>
<path fill-rule="evenodd" clip-rule="evenodd" d="M7.72192 21.6263C7.74143 21.6323 7.75359 21.6582 7.74908 21.6842L7.50518 23.0905C7.50067 23.1165 7.4812 23.1327 7.46169 23.1267C7.44218 23.1207 7.43002 23.0947 7.43453 23.0687L7.67843 21.6625C7.68294 21.6364 7.70241 21.6202 7.72192 21.6263Z" fill="black"/>
<path fill-rule="evenodd" clip-rule="evenodd" d="M5.19922 25.9365L5.76611 26.833C5.83203 26.8857 5.89795 26.8857 5.95728 26.833L6.80103 25.4795L7.15698 24.8906C7.21631 24.8027 7.22949 24.7061 7.2229 24.627L7.90845 23.8096L8.05347 23.8271C7.98755 23.8096 7.94141 23.7656 7.98755 23.6689L8.14575 23.5107L8.2644 23.7129C8.2644 23.7129 8.09302 24.0117 8.07324 24.0117H7.88867L7.53271 24.4424L7.69092 24.6182L7.92163 25.4795L8.21167 25.207L8.0271 24.3281L8.4292 23.7393L8.27759 23.4229L8.38306 23.2471C8.38306 23.2471 9.78711 24.4248 10.3342 24.1084C10.3474 24.1084 10.3672 23.2646 10.3672 23.2646C10.3672 23.2646 8.90381 23.0625 8.87085 22.6758C8.83789 22.2891 9.20044 22.2363 9.20044 22.2363L9.04224 21.9551L9.07519 21.7969L9.33228 22.2188L9.90576 21.5684L13.3005 26.7187C13.4851 26.6221 13.5247 26.5605 13.5378 26.3145L10.2156 21.2256L10.4661 20.8652C10.5188 20.7861 10.532 20.7598 10.532 20.6367L10.9275 20.1885C11.0311 20.2358 11.1194 20.3288 11.178 20.4521L12.259 19.248C12.2854 19.2832 12.3711 19.3184 12.4304 19.2832L14.2036 17.0068L12.2722 18.8262L12.2063 18.7646C12.2063 18.6855 12.2722 18.6768 12.2063 18.5361C12.1272 18.4131 12.0151 18.6504 12.002 18.6504C11.9822 18.6504 11.7185 18.5273 11.6592 18.3691L11.646 18.7822L11.1516 19.3975L10.7759 19.3711L10.2354 20.0742L10.1694 20.3379L10.2551 20.5752C10.2551 20.5752 9.96509 20.9092 9.96509 20.8916C9.96509 20.8652 9.90576 20.7861 9.89917 20.7773L10.1497 20.4785L10.1826 20.2764L10.1035 20.1006C10.0771 20.127 9.76074 20.5752 9.74097 20.5225L8.81812 19.1602L8.87085 18.9053L8.29736 18.0703C8.08643 17.9736 7.75024 17.9561 7.68433 18.5713C7.63159 18.7119 7.19653 18.5889 7.19653 18.5889L6.95923 18.6592L5.6145 21.1816L6.35937 22.377L7.88867 19.8018L7.93481 19.0723L8.25122 19.5469C8.36328 19.5645 8.46216 19.5732 8.56103 19.5029L9.46411 20.8477L9.3125 21.0498L9.44434 21.2432L9.60254 21.1025L9.66187 21.2168C9.58936 21.2695 9.53003 21.3486 9.45752 21.4014C9.33887 21.2959 9.22021 21.1641 9.22681 20.9619L8.71924 21.5244L8.69946 21.6299L7.18994 23.2998L7.05811 23.3262L7.02515 23.8535L8.00732 22.7637V22.6055L8.1062 22.7197L8.87085 21.9023C8.87085 21.9023 8.92358 21.9902 8.90381 21.9902C8.88403 21.9902 8.22485 22.8076 8.22485 22.8076L8.21167 22.8955L8.09302 23.0361L8.0271 22.9658L7.10425 24.0557H6.97241L6.46484 24.7324C6.33301 24.75 6.22095 24.7676 6.10889 24.8643L5.19922 25.9365Z" fill="black"/>
<path fill-rule="evenodd" clip-rule="evenodd" d="M14.2339 16.9756C14.246 16.995 14.2447 17.0236 14.2311 17.0412L12.4579 19.3175C12.4549 19.3214 12.4513 19.3246 12.4475 19.3269C12.4084 19.35 12.3638 19.3488 12.3274 19.3389C12.3049 19.3327 12.2821 19.3222 12.2633 19.3084L11.2035 20.4888C11.1955 20.4977 11.185 20.5016 11.1747 20.4994C11.1644 20.4973 11.1553 20.4893 11.1497 20.4775C11.0992 20.3712 11.0247 20.2892 10.9372 20.2431L10.5704 20.6588C10.5696 20.7102 10.5658 20.7495 10.5546 20.7855C10.542 20.826 10.5213 20.8581 10.4955 20.8969L10.495 20.8976L10.2666 21.2261L13.5675 26.2822C13.5738 26.2919 13.577 26.3046 13.5763 26.3174C13.5697 26.4416 13.5561 26.5316 13.5142 26.6022C13.4729 26.6716 13.4082 26.715 13.3161 26.7633C13.3019 26.7707 13.2857 26.7655 13.2756 26.7502L9.9044 21.6355L9.35809 22.2551C9.35066 22.2635 9.34099 22.2676 9.33128 22.2664C9.32156 22.2652 9.31262 22.2588 9.30646 22.2487L9.09366 21.8995L9.08427 21.9446L9.23177 22.2068C9.23959 22.2207 9.24121 22.2391 9.23603 22.2551C9.23085 22.271 9.21966 22.282 9.20672 22.2839L9.20612 22.284C9.2056 22.2841 9.20475 22.2842 9.20359 22.2844C9.20129 22.2848 9.19777 22.2855 9.19324 22.2865C9.18415 22.2886 9.17102 22.2919 9.1553 22.2971C9.12366 22.3074 9.08245 22.3249 9.04267 22.3532C9.00282 22.3815 8.96603 22.4196 8.94103 22.4701C8.9165 22.5197 8.90189 22.5841 8.9092 22.6698C8.91161 22.6981 8.92816 22.733 8.96848 22.7728C9.00792 22.8116 9.0644 22.8494 9.13399 22.8854C9.27288 22.9572 9.45647 23.0181 9.64083 23.0674C9.82482 23.1165 10.008 23.1537 10.1452 23.1786C10.2138 23.1911 10.2709 23.2005 10.3108 23.2067C10.3307 23.2098 10.3464 23.2122 10.357 23.2137C10.3624 23.2145 10.3664 23.2151 10.3692 23.2155L10.3722 23.2159L10.3732 23.2161C10.3732 23.2161 10.3733 23.2161 10.3695 23.2642C10.4058 23.2657 10.4058 23.2657 10.4058 23.2657L10.4057 23.2658L10.4057 23.2663L10.4049 23.302C10.4043 23.3251 10.4035 23.3581 10.4025 23.3977C10.4004 23.4768 10.3975 23.5824 10.3942 23.6881C10.3909 23.7936 10.3872 23.8995 10.3835 23.9791C10.3816 24.0188 10.3797 24.0526 10.3778 24.0767C10.3769 24.0885 10.3759 24.0992 10.3747 24.1073C10.3742 24.1111 10.3734 24.1164 10.372 24.1216C10.3714 24.1239 10.3699 24.1291 10.3671 24.1347C10.3658 24.1371 10.36 24.1483 10.3488 24.1535C10.2009 24.2377 10.0017 24.22 9.79251 24.1538C9.58069 24.0869 9.35148 23.9679 9.14076 23.8399C8.92983 23.7117 8.73626 23.5737 8.5955 23.4678C8.52509 23.4148 8.46782 23.3698 8.42812 23.338C8.41451 23.3271 8.40296 23.3178 8.39365 23.3102L8.32445 23.4255L8.46208 23.7127C8.4709 23.7312 8.46936 23.7552 8.45833 23.7713L8.06975 24.3404L8.24891 25.1935C8.25305 25.2132 8.24743 25.2343 8.23488 25.2461L7.94484 25.5185C7.93558 25.5272 7.9238 25.5296 7.913 25.5251C7.9022 25.5205 7.89362 25.5095 7.88981 25.4953L7.66243 24.6464L7.51183 24.479C7.50377 24.4701 7.49902 24.4569 7.4988 24.4429C7.49857 24.4289 7.50291 24.4155 7.51068 24.4061L7.86664 23.9754C7.87331 23.9674 7.88199 23.9629 7.891 23.9629H8.06485C8.07023 23.9562 8.07766 23.9458 8.08679 23.9323C8.10501 23.9052 8.12782 23.8686 8.15038 23.8314C8.17285 23.7944 8.19475 23.7573 8.21105 23.7294C8.21459 23.7233 8.21786 23.7177 8.22082 23.7126L8.14142 23.5773L8.01721 23.7015C8.0102 23.7177 8.00799 23.7288 8.00757 23.7355C8.00716 23.7419 8.00824 23.7454 8.00997 23.7485C8.01541 23.7583 8.03143 23.7709 8.0629 23.7793C8.0818 23.7843 8.09444 23.8082 8.09167 23.8336C8.08891 23.859 8.0717 23.8771 8.05251 23.8748L7.92319 23.8591L7.26274 24.6466C7.26557 24.7319 7.2474 24.8314 7.18693 24.9215L6.83124 25.5099L5.98748 26.8634C5.98524 26.867 5.98263 26.8702 5.97971 26.8727C5.90762 26.9368 5.82653 26.9354 5.74979 26.874C5.74636 26.8712 5.7433 26.8678 5.74072 26.8637L5.17383 25.9672L5.20155 25.936L5.17753 25.8998L6.0872 24.8276C6.08856 24.826 6.09 24.8245 6.09152 24.8232C6.20783 24.7228 6.32421 24.7026 6.45068 24.6856L6.9491 24.021C6.9559 24.0119 6.96512 24.0068 6.97474 24.0068H7.09283L8.00539 22.9291C8.01859 22.9136 8.0383 22.9129 8.05208 22.9276L8.09411 22.9724L8.18083 22.8697L8.19163 22.7977C8.19312 22.7877 8.19692 22.7786 8.20249 22.7717L8.22718 22.8071C8.20249 22.7717 8.20249 22.7717 8.20249 22.7717L8.23088 22.7366C8.24896 22.7142 8.27479 22.6823 8.30586 22.6439C8.36799 22.5673 8.45106 22.465 8.53475 22.3628C8.61841 22.2606 8.70282 22.1582 8.7676 22.0814C8.78323 22.0628 8.79776 22.0457 8.8109 22.0304L8.13121 22.757C8.11755 22.7716 8.09801 22.7711 8.08478 22.7558L8.04591 22.7108V22.7632C8.04591 22.7775 8.04112 22.7912 8.03284 22.8003L7.05066 23.8902C7.03943 23.9026 7.02369 23.9049 7.01073 23.8959C6.99777 23.8869 6.99013 23.8684 6.99134 23.849L7.0243 23.3217C7.0257 23.2993 7.03843 23.2812 7.05505 23.2779L7.1769 23.2535L8.6695 21.6023L8.68639 21.5122C8.68826 21.5022 8.69246 21.4933 8.69839 21.4868L9.20596 20.9243C9.21699 20.912 9.23239 20.9096 9.24524 20.9181C9.25809 20.9266 9.26598 20.9444 9.26535 20.9635C9.26002 21.127 9.34996 21.2417 9.46136 21.3439C9.48788 21.3222 9.51328 21.2969 9.54027 21.2699L9.54121 21.269C9.56361 21.2466 9.58716 21.223 9.61233 21.2014L9.59534 21.1686L9.46677 21.2829C9.45185 21.2962 9.4319 21.2929 9.41984 21.2752L9.288 21.0818C9.27498 21.0627 9.27551 21.0334 9.28919 21.0151L9.41654 20.8453L8.5546 19.5619C8.45349 19.6214 8.35261 19.6106 8.24931 19.5944C8.24049 19.593 8.23235 19.5874 8.22645 19.5785L7.96617 19.1881L7.92712 19.8053C7.92653 19.8148 7.92385 19.8238 7.91942 19.8313L6.39013 22.4065C6.38334 22.4179 6.37306 22.4246 6.36213 22.4248C6.3512 22.425 6.3408 22.4186 6.33382 22.4074L5.58894 21.212C5.57844 21.1952 5.57775 21.171 5.58728 21.1531L6.932 18.6307C6.9372 18.6209 6.94493 18.6141 6.95369 18.6115L7.19099 18.5412C7.19606 18.5397 7.20131 18.5397 7.20638 18.5411L7.20663 18.5412L7.20749 18.5414L7.21098 18.5424C7.21407 18.5432 7.21865 18.5444 7.22453 18.5459C7.23629 18.549 7.2532 18.5531 7.27368 18.5577C7.31472 18.567 7.36971 18.5777 7.42608 18.5842C7.48286 18.5907 7.53918 18.5925 7.58358 18.5849C7.60581 18.5811 7.62328 18.5752 7.63576 18.5678C7.6445 18.5626 7.64929 18.5576 7.6519 18.5536C7.65151 18.5571 7.65113 18.5605 7.65076 18.564L7.68665 18.5708L7.65423 18.5492C7.65377 18.5504 7.65304 18.5519 7.6519 18.5536C7.6874 18.24 7.79337 18.0757 7.92585 18.0082C8.05603 17.9419 8.20256 17.9742 8.31148 18.0241C8.3172 18.0267 8.32234 18.0312 8.32643 18.0372L8.89991 18.8721C8.90834 18.8844 8.91145 18.9016 8.90813 18.9176L8.86068 19.147L8.84735 19.1273L8.82044 19.1597L8.85539 19.1725L8.86068 19.147L9.75652 20.4694C9.75272 20.4727 9.74951 20.4753 9.74689 20.4771C9.74503 20.4784 9.74415 20.4788 9.74411 20.4788C9.74405 20.4788 9.74518 20.4783 9.74721 20.4781C9.74946 20.4778 9.7546 20.4777 9.7607 20.4813C9.76428 20.4834 9.7674 20.4863 9.77 20.4898C9.77237 20.493 9.7743 20.4966 9.77572 20.5004C9.77425 20.4964 9.7724 20.4928 9.7702 20.4896L9.75652 20.4694C9.7632 20.4635 9.77169 20.4552 9.78194 20.4443C9.81342 20.4107 9.85464 20.3601 9.89697 20.3058C9.93911 20.2518 9.9815 20.1953 10.0152 20.1504L10.0155 20.15C10.0322 20.1277 10.0468 20.1082 10.0581 20.0935C10.0684 20.0799 10.0784 20.0671 10.0841 20.0614C10.0923 20.0532 10.1027 20.05 10.1128 20.0527C10.1229 20.0553 10.1316 20.0635 10.1369 20.0752L10.1769 20.164L10.1514 20.2661L10.1495 20.2656L10.1465 20.2843L10.0981 20.1767C10.102 20.1716 10.1056 20.1668 10.1089 20.1625C10.1144 20.1552 10.119 20.1494 10.1225 20.145C10.1255 20.1411 10.1271 20.1394 10.1275 20.1389C10.1276 20.1388 10.1276 20.1387 10.1276 20.1388L10.1058 20.1001L10.0748 20.125L10.0981 20.1767C10.0889 20.1888 10.0783 20.203 10.0665 20.2187L10.0663 20.2189C10.0327 20.2638 9.98989 20.3209 9.94722 20.3756C9.90468 20.4301 9.86145 20.4833 9.82721 20.5198C9.81044 20.5376 9.79402 20.5535 9.78004 20.5631C9.77353 20.5675 9.76402 20.5732 9.75345 20.5744C9.7478 20.575 9.73976 20.5747 9.7313 20.5697C9.72441 20.5656 9.71875 20.5593 9.71456 20.5517L9.71639 20.5544L9.74329 20.522L9.71087 20.5436C9.71193 20.5464 9.71316 20.5491 9.71456 20.5517L8.79354 19.1921C8.78523 19.1798 8.7822 19.1627 8.78549 19.1468L8.83289 18.9177L8.84644 18.9374L8.87318 18.9048L8.83823 18.8919L8.83289 18.9177L8.27926 18.1117C8.28216 18.1129 8.28504 18.1142 8.2879 18.1155L8.29969 18.0698L8.27295 18.1025L8.27926 18.1117C8.17877 18.0674 8.05585 18.0455 7.95173 18.0985C7.84835 18.1512 7.75414 18.2828 7.72254 18.5776C7.72199 18.5828 7.72082 18.5878 7.71908 18.5924C7.7074 18.6236 7.68666 18.6434 7.66534 18.6561C7.64394 18.6688 7.61877 18.6764 7.5928 18.6808C7.54079 18.6897 7.47846 18.6872 7.41988 18.6805C7.3609 18.6737 7.30383 18.6625 7.26164 18.6531C7.24051 18.6483 7.22302 18.644 7.21078 18.6409C7.20612 18.6397 7.20222 18.6386 7.19917 18.6378L7.20672 18.6356L7.19886 18.5884C7.19134 18.6357 7.19134 18.6357 7.19135 18.6357L7.19172 18.6358L7.19273 18.6361L7.19654 18.6371C7.19733 18.6373 7.19821 18.6376 7.19917 18.6378M6.98303 18.7019L6.99111 18.6867L6.96156 18.6587L6.96942 18.7059L6.98303 18.7019ZM10.1458 20.2883L10.1465 20.2843L10.1467 20.2848L10.1458 20.2883ZM10.1362 20.3471C10.135 20.3388 10.1353 20.3302 10.1374 20.3221L10.1458 20.2883L10.1362 20.3471ZM10.1869 20.4909L10.1391 20.3584C10.1378 20.3547 10.1368 20.3509 10.1362 20.3471L10.1191 20.4525L9.87732 20.7408C9.8699 20.7497 9.86553 20.7622 9.86526 20.7755C9.86498 20.7888 9.86881 20.8016 9.87586 20.811C9.87907 20.8153 9.89475 20.8362 9.90949 20.859C9.91692 20.8705 9.92346 20.8814 9.92793 20.8903C9.92976 20.8939 9.93092 20.8966 9.93158 20.8983C9.93292 20.91 9.93774 20.9246 9.94971 20.9337C9.9607 20.942 9.97108 20.9401 9.97394 20.9395C9.98063 20.9381 9.98587 20.9344 9.98736 20.9334L9.98747 20.9333C9.99186 20.9302 9.99663 20.926 10.0008 20.9221C10.0096 20.9138 10.0216 20.9014 10.0353 20.8869C10.0629 20.8577 10.0995 20.8172 10.1358 20.7765C10.1721 20.7357 10.2085 20.6944 10.2357 20.6633C10.2493 20.6478 10.2607 20.6348 10.2686 20.6257L10.2809 20.6115L10.2811 20.6114L10.2575 20.5747L10.2812 20.6113C10.2936 20.597 10.2972 20.5734 10.2901 20.5537L10.212 20.3374L10.2158 20.314L10.2693 20.1001L10.7922 19.42L11.152 19.4452C11.1619 19.4459 11.1715 19.4413 11.1787 19.4323L11.6731 18.8171C11.68 18.8084 11.6841 18.7965 11.6845 18.7838L11.6938 18.4946C11.7008 18.5026 11.708 18.5104 11.7154 18.5178C11.7511 18.554 11.7924 18.5858 11.8315 18.6118C11.8707 18.638 11.9086 18.659 11.9382 18.6735C11.9529 18.6808 11.9658 18.6866 11.9759 18.6906C11.981 18.6926 11.9856 18.6943 11.9896 18.6956C11.9925 18.6965 11.9984 18.6982 12.0043 18.6982C12.0139 18.6982 12.0209 18.6933 12.0234 18.6915C12.0266 18.6891 12.0292 18.6865 12.0308 18.6847C12.0342 18.681 12.0373 18.6768 12.0398 18.6734C12.0438 18.6678 12.0487 18.6604 12.0537 18.6529C12.0551 18.6509 12.0564 18.6489 12.0577 18.6469C12.0712 18.6267 12.0874 18.6033 12.1049 18.5838C12.1231 18.5636 12.1389 18.552 12.1512 18.5492C12.1596 18.5474 12.1684 18.5486 12.1794 18.5646C12.1934 18.595 12.1989 18.6152 12.2008 18.6285C12.2026 18.6409 12.2014 18.6487 12.1993 18.6562C12.1981 18.6606 12.1964 18.6654 12.1939 18.6717C12.1934 18.6731 12.1927 18.6747 12.192 18.6766C12.1899 18.6816 12.1874 18.6879 12.1853 18.6938C12.1788 18.7117 12.1724 18.7345 12.1724 18.7642C12.1724 18.7799 12.1781 18.7947 12.1878 18.8038L12.2538 18.8653C12.2663 18.877 12.283 18.8769 12.2955 18.8652L13.8364 17.4136L12.4127 19.2414C12.393 19.2507 12.3675 19.2511 12.342 19.2442C12.3131 19.2363 12.293 19.2215 12.287 19.2134C12.2737 19.1957 12.2525 19.1944 12.2381 19.2105L11.1875 20.3806C11.1255 20.2705 11.0399 20.1872 10.9416 20.1423C10.9295 20.1367 10.9161 20.1401 10.9063 20.1512L10.5108 20.5994C10.5027 20.6086 10.4981 20.6221 10.4981 20.6362C10.4981 20.6965 10.4947 20.7258 10.4876 20.7485C10.4804 20.7716 10.4683 20.7922 10.4416 20.8322L10.4418 20.8319L10.4684 20.8647L10.4413 20.8326L10.1913 21.1922C10.1787 21.2104 10.1784 21.2382 10.1906 21.2568L13.5028 26.3304C13.496 26.4395 13.4831 26.4988 13.4574 26.5421C13.4319 26.5849 13.3903 26.6184 13.3132 26.6607L9.93532 21.536C9.92225 21.5161 9.89968 21.514 9.8846 21.5311L9.33936 22.1494L9.10566 21.7659C9.09711 21.7519 9.08339 21.7454 9.07012 21.7491C9.05684 21.7528 9.04622 21.766 9.04259 21.7835L9.00963 21.9417C9.00662 21.9561 9.00881 21.9716 9.01556 21.9836L9.13891 22.2029C9.13859 22.203 9.13828 22.2031 9.13797 22.2032C9.10265 22.2148 9.05529 22.2347 9.00855 22.2679C8.96188 22.3011 8.91422 22.3487 8.88051 22.4169C8.84634 22.4859 8.82798 22.5731 8.83715 22.6808C8.84298 22.7491 8.87938 22.8052 8.92539 22.8505C8.97228 22.8967 9.03554 22.9382 9.10778 22.9755C9.25254 23.0504 9.44098 23.1125 9.62658 23.1621C9.81256 23.2119 9.99731 23.2494 10.1355 23.2744C10.2046 23.287 10.2621 23.2964 10.3023 23.3027C10.3137 23.3045 10.3237 23.306 10.3322 23.3073C10.3316 23.3297 10.3309 23.3594 10.33 23.3943C10.3279 23.4734 10.325 23.5787 10.3218 23.684C10.3185 23.7894 10.3148 23.8945 10.3111 23.9731C10.3092 24.0125 10.3074 24.0446 10.3057 24.0666C10.3055 24.0688 10.3054 24.0708 10.3052 24.0727C10.1807 24.1351 10.007 24.1223 9.80923 24.0598C9.60391 23.9949 9.37952 23.8787 9.17084 23.7519C8.96237 23.6252 8.77073 23.4886 8.63113 23.3836C8.56136 23.3311 8.50466 23.2865 8.46544 23.2551C8.44583 23.2394 8.4306 23.227 8.42029 23.2186C8.41513 23.2143 8.41121 23.2111 8.40859 23.2089L8.40564 23.2065L8.40491 23.2059L8.40474 23.2057C8.40473 23.2057 8.40469 23.2057 8.38538 23.2466L8.40474 23.2057C8.38913 23.1926 8.36859 23.1972 8.35707 23.2164L8.2516 23.3922C8.2419 23.4083 8.241 23.4309 8.24936 23.4484L8.38603 23.7336L8.00262 24.2951C7.99421 24.3074 7.99115 24.3246 7.99451 24.3407L8.17218 25.1867L7.94206 25.4029L7.72739 24.6014C7.72521 24.5933 7.72143 24.5861 7.71645 24.5805L7.59028 24.4403L7.905 24.0596H8.07557C8.08392 24.0596 8.09034 24.056 8.09325 24.0541C8.09671 24.052 8.09963 24.0495 8.10179 24.0475C8.10611 24.0434 8.11036 24.0385 8.11417 24.0338C8.12194 24.0241 8.13111 24.0112 8.14077 23.9968C8.16025 23.9679 8.18399 23.9297 8.20675 23.8922C8.2296 23.8546 8.25178 23.817 8.26824 23.7888C8.27647 23.7747 8.28328 23.763 8.28804 23.7548L8.29356 23.7452L8.2954 23.742L8.29549 23.7418C8.30553 23.7243 8.30546 23.7 8.29528 23.6826L8.17663 23.4805C8.16447 23.4597 8.14211 23.4558 8.12633 23.4716L7.96812 23.6298C7.96463 23.6333 7.96163 23.6376 7.95929 23.6425C7.94582 23.6707 7.93709 23.6991 7.93531 23.7274C7.93451 23.7401 7.93514 23.7522 7.93709 23.7637L7.91406 23.7609C7.90404 23.7597 7.8941 23.7641 7.88661 23.773L7.20106 24.5904C7.19232 24.6009 7.1879 24.6163 7.18919 24.6318C7.1948 24.6991 7.18386 24.7815 7.13236 24.8578C7.13192 24.8585 7.13149 24.8591 7.13108 24.8598L6.77547 25.4481L6.80335 25.479L6.77512 25.4487L5.93526 26.7959C5.89129 26.8325 5.84362 26.8338 5.79212 26.795L5.25209 25.941L6.13315 24.9024C6.23627 24.8145 6.33953 24.7975 6.47078 24.78C6.47911 24.7789 6.48689 24.774 6.49281 24.7661L6.98976 24.1035H7.10658C7.11543 24.1035 7.12398 24.0992 7.13061 24.0914L8.03061 23.0285L8.0727 23.0734C8.08649 23.0881 8.10623 23.0874 8.11943 23.0718L8.23808 22.9312C8.24398 22.9242 8.248 22.9148 8.24955 22.9045L8.26044 22.8319L8.2802 22.8074C8.29826 22.7851 8.32407 22.7532 8.35511 22.7149C8.41719 22.6383 8.50016 22.5362 8.58373 22.4341C8.66734 22.3319 8.75143 22.23 8.81581 22.1536C8.84803 22.1153 8.8751 22.0838 8.89463 22.0619C8.90445 22.0508 8.91199 22.0427 8.91717 22.0374C8.91796 22.0366 8.91865 22.036 8.91923 22.0354C8.9226 22.0339 8.92613 22.0318 8.92961 22.0286C8.93878 22.0201 8.94359 22.0083 8.94557 21.9977C8.94878 21.9806 8.94496 21.9654 8.94355 21.96C8.93983 21.9459 8.93294 21.9307 8.92747 21.9195C8.9215 21.9072 8.91499 21.8953 8.91011 21.8866C8.90764 21.8822 8.90552 21.8785 8.90401 21.8759L8.90221 21.8729L8.9017 21.872L8.90156 21.8718L8.90151 21.8717C8.90151 21.8717 8.90149 21.8717 8.89956 21.8737L8.90151 21.8717C8.8955 21.8617 8.88673 21.8552 8.87716 21.8538C8.8676 21.8524 8.85801 21.8561 8.8505 21.8641L8.10943 22.6563L8.0334 22.5685C8.02267 22.5561 8.0075 22.5531 7.99459 22.561C7.98168 22.5689 7.9734 22.5861 7.9734 22.605V22.7405L7.07079 23.7421L7.09418 23.3678L7.19765 23.3471C7.20418 23.3458 7.21033 23.3422 7.21542 23.3365L8.72494 21.6666C8.73088 21.66 8.73509 21.6511 8.73696 21.6411L8.75386 21.551L9.19871 21.058C9.226 21.2339 9.33986 21.3523 9.43974 21.4411C9.45095 21.4511 9.46538 21.4519 9.47721 21.4433C9.51577 21.4153 9.55049 21.3806 9.58283 21.3482L9.58377 21.3473C9.61708 21.314 9.64798 21.2832 9.68155 21.2587C9.69058 21.2522 9.69709 21.2408 9.69947 21.2275C9.70184 21.2141 9.69985 21.2001 9.694 21.1888L9.63467 21.0745C9.62342 21.0529 9.60121 21.0472 9.58475 21.0618L9.45251 21.1794L9.36491 21.0509L9.49207 20.8814C9.50568 20.8632 9.50629 20.834 9.49345 20.8149L8.59037 19.4702C8.57923 19.4536 8.56103 19.4493 8.5463 19.4598C8.46193 19.5198 8.37708 19.5164 8.27145 19.5005L7.96424 19.0397C7.95461 19.0252 7.93945 19.0198 7.92569 19.0259C7.91194 19.032 7.90223 19.0485 7.90101 19.0677L7.85579 19.7827L6.36102 22.2997L5.66253 21.1789L5.64638 21.2092L5.61683 21.1812L5.64471 21.1503L5.66253 21.1789M6.36102 22.2997L6.33328 22.3465L6.3617 22.3765L6.38959 22.3456L6.36102 22.2997ZM7.85579 19.7827L7.85487 19.7972L7.891 19.8013L7.86258 19.7713L7.85579 19.7827ZM8.27145 19.5005C8.26693 19.4998 8.26238 19.4991 8.25778 19.4984L8.25355 19.5464L8.28064 19.5143L8.27145 19.5005ZM9.36491 21.0509L9.34165 21.0168L9.31483 21.0493L9.34046 21.0835L9.36491 21.0509ZM9.45251 21.1794L9.42655 21.2025L9.44666 21.2427L9.47349 21.2102L9.45251 21.1794ZM9.19871 21.058L9.25231 20.9986L9.22913 20.9614L9.19291 20.9593C9.19178 20.9941 9.1939 21.0269 9.19871 21.058ZM8.75386 21.551L8.75674 21.5357L8.72157 21.5239L8.74474 21.5611L8.75386 21.551ZM7.09418 23.3678L7.09656 23.3297L7.06043 23.3257L7.06581 23.3735L7.09418 23.3678ZM7.07079 23.7421L7.00428 23.8159L7.02747 23.853L7.0636 23.857L7.07079 23.7421ZM7.9734 22.7405V22.7632H8.00965L7.98646 22.726L7.9734 22.7405ZM8.10943 22.6563L8.08585 22.6815L8.10853 22.7192L8.13227 22.6827L8.10943 22.6563ZM8.91923 22.0354C8.92063 22.034 8.92148 22.0332 8.92188 22.0329C8.92221 22.0326 8.92161 22.0332 8.92038 22.034C8.91976 22.0343 8.91844 22.0352 8.91661 22.0359C8.91511 22.0366 8.91127 22.0381 8.90614 22.0381C8.9097 22.0381 8.91429 22.0375 8.91923 22.0354ZM8.03061 23.0285L8.05346 23.0015L8.02943 22.9653L8.00678 23.0031L8.03061 23.0285ZM6.98976 24.1035L7.00038 24.0894L6.97474 24.0552V24.1035H6.98976ZM6.13315 24.9024L6.13523 24.9L6.11121 24.8638L6.13091 24.9044C6.13166 24.9037 6.13241 24.9031 6.13315 24.9024ZM5.79212 26.795C5.79045 26.7937 5.78877 26.7924 5.78709 26.7911L5.76844 26.8325L5.79616 26.8014L5.79212 26.795ZM5.93526 26.7959L5.93172 26.8016L5.9596 26.8325L5.93949 26.7923C5.93809 26.7935 5.93668 26.7948 5.93526 26.7959ZM7.93709 23.7637C7.93968 23.7791 7.94463 23.7933 7.95166 23.806C7.97423 23.8467 8.01424 23.8649 8.04868 23.8741L8.05579 23.8267L8.05908 23.7785L7.93709 23.7637ZM7.905 24.0596L7.91536 24.047L7.891 24.0112V24.0596H7.905ZM7.59028 24.4403L7.55825 24.4048L7.53504 24.4419L7.5594 24.4777L7.59028 24.4403ZM7.94206 25.4029L7.90308 25.4395L7.92396 25.479L7.9581 25.4627L7.94206 25.4029ZM8.17218 25.1867L8.17908 25.2196L8.214 25.2065L8.19312 25.167L8.17218 25.1867ZM8.38603 23.7336L8.40097 23.7648L8.43153 23.7388L8.40472 23.7062L8.38603 23.7336ZM10.3217 24.0638C10.3128 24.0693 10.3082 24.0783 10.3073 24.0799C10.3049 24.0846 10.3039 24.0885 10.3036 24.0893C10.3034 24.0904 10.3032 24.0911 10.3032 24.0911C10.3032 24.0911 10.3033 24.0907 10.3035 24.0895C10.3039 24.0861 10.3045 24.0806 10.3052 24.0727C10.3108 24.0699 10.3163 24.0669 10.3217 24.0638ZM10.3217 24.0638C10.3257 24.0613 10.3307 24.0596 10.3366 24.0596C10.3316 24.0596 10.3267 24.0609 10.3221 24.0636C10.322 24.0637 10.3218 24.0637 10.3217 24.0638ZM9.20277 22.2358L9.17376 22.2648L9.13891 22.2029C9.15624 22.1972 9.17084 22.1935 9.18127 22.1912C9.18658 22.19 9.19082 22.1892 9.19381 22.1886C9.19531 22.1884 9.19649 22.1882 9.19733 22.188L9.19834 22.1879L9.19866 22.1878L9.19876 22.1878C9.19878 22.1878 9.19883 22.1878 9.20277 22.2358ZM9.33936 22.1494L9.31111 22.1814L9.3346 22.2183L9.36274 22.1878L9.33936 22.1494ZM13.3132 26.6607C13.3057 26.6648 13.2978 26.669 13.2896 26.6733L13.3029 26.7183L13.3301 26.6864L13.3132 26.6607ZM13.5028 26.3304L13.5128 26.3457L13.5402 26.314L13.504 26.3105C13.5036 26.3173 13.5033 26.324 13.5028 26.3304ZM11.1875 20.3806L11.1571 20.4146L11.1803 20.4517L11.2109 20.4258C11.2036 20.4103 11.1958 20.3952 11.1875 20.3806ZM12.4127 19.2414L12.4076 19.2479L12.4327 19.2827L12.418 19.2385C12.4163 19.2396 12.4145 19.2405 12.4127 19.2414ZM12.1794 18.5646C12.18 18.5654 12.1805 18.5662 12.1811 18.5671L12.2086 18.5356L12.1779 18.5613C12.1784 18.5624 12.1789 18.5635 12.1794 18.5646ZM11.6938 18.4946L11.6977 18.3707L11.6615 18.3687L11.6291 18.3903C11.6437 18.4292 11.6671 18.464 11.6938 18.4946ZM10.7922 19.42L10.8035 19.4052L10.7782 19.3706L10.7763 19.4189L10.7922 19.42ZM10.2693 20.1001L10.2721 20.089L10.2377 20.0737L10.263 20.1083L10.2693 20.1001ZM10.2108 20.3341L10.212 20.3374L10.1874 20.4883C10.1873 20.4892 10.1871 20.49 10.1869 20.4909L10.2127 20.5623C10.2059 20.57 10.1978 20.5794 10.1886 20.5899C10.1614 20.6209 10.1252 20.662 10.0891 20.7025C10.0529 20.7431 10.017 20.7829 9.99016 20.8113C9.98665 20.815 9.98333 20.8185 9.98022 20.8217C9.97515 20.8128 9.96966 20.804 9.96437 20.7958C9.96075 20.7902 9.9571 20.7848 9.95358 20.7796L10.1762 20.5141C10.1814 20.5079 10.1851 20.4998 10.1869 20.4909M9.98022 20.8217C9.97137 20.8309 9.96419 20.8382 9.959 20.843C9.95579 20.8461 9.95425 20.8473 9.95393 20.8476C9.95387 20.8476 9.95391 20.8476 9.95393 20.8476C9.95408 20.8475 9.9547 20.847 9.95576 20.8465C9.95657 20.846 9.95905 20.8448 9.96255 20.844C9.96487 20.8435 9.97482 20.8415 9.98553 20.8497C9.99984 20.8605 10.0037 20.8794 10.0037 20.8911C10.0037 20.8773 10.0001 20.8655 9.99775 20.8587C9.99502 20.8508 9.99156 20.8432 9.98815 20.8364C9.98571 20.8316 9.98303 20.8266 9.98022 20.8217ZM9.95358 20.7796L9.92567 20.8129L9.9015 20.7769L9.92713 20.7427C9.92978 20.7462 9.94092 20.761 9.95358 20.7796ZM10.2108 20.3341L10.2158 20.314L10.2204 20.2861C10.2223 20.2741 10.2208 20.2616 10.216 20.251L10.1769 20.164L10.2033 20.0584C10.2051 20.0511 10.2082 20.0445 10.2124 20.0391L10.7529 19.336C10.7601 19.3266 10.77 19.3216 10.7801 19.3223L11.1405 19.3476L11.1292 19.3616L11.1539 19.397L11.1558 19.3487L11.1405 19.3476L11.6127 18.7599L11.6121 18.7797L11.6483 18.7817L11.6236 18.7464L11.6127 18.7599L11.6253 18.3666C11.626 18.3446 11.6378 18.326 11.6539 18.3214C11.6701 18.3168 11.6865 18.3273 11.6939 18.347C11.7052 18.377 11.7277 18.409 11.7592 18.4408C11.7902 18.4722 11.8273 18.5009 11.8639 18.5254C11.9005 18.5498 11.9359 18.5694 11.9633 18.5829C11.9756 18.5889 11.986 18.5936 11.994 18.5969C11.9915 18.6007 11.9893 18.6039 11.9874 18.6065C11.9854 18.6093 11.9847 18.6101 11.9849 18.6099C11.985 18.6098 11.9862 18.6085 11.9882 18.607C11.9895 18.606 11.9955 18.6016 12.0043 18.6016C12.0061 18.6016 12.0073 18.6018 12.0077 18.6019C12.008 18.6019 12.0075 18.6019 12.006 18.6014C12.004 18.6008 12.0009 18.5997 11.9967 18.598C11.9958 18.5977 11.9949 18.5973 11.994 18.5969C11.9955 18.5947 11.9971 18.5923 11.9989 18.5896C12.0003 18.5875 12.0019 18.5851 12.0036 18.5826C12.0173 18.5621 12.0365 18.5339 12.0585 18.5095C12.0799 18.4857 12.1078 18.461 12.1391 18.4539C12.174 18.446 12.2084 18.4611 12.2362 18.5042C12.2373 18.506 12.2384 18.508 12.2394 18.51C12.2572 18.548 12.2678 18.5807 12.2721 18.6106C12.2765 18.6419 12.2735 18.6676 12.2673 18.6898C12.2645 18.7002 12.261 18.7093 12.2581 18.7167C12.257 18.7195 12.256 18.7219 12.2551 18.7241C12.2534 18.7284 12.252 18.7319 12.2505 18.736C12.2497 18.7382 12.249 18.7402 12.2484 18.7423L12.2294 18.7246L12.2086 18.7642H12.2449C12.2449 18.7564 12.246 18.7498 12.2484 18.7423L12.2744 18.7666L12.2536 18.7862L12.2745 18.8257L12.2953 18.7861L12.2744 18.7666L14.185 16.9669C14.2005 16.9523 14.2218 16.9561 14.2339 16.9756M10.2127 20.5623C10.2159 20.5586 10.2188 20.5553 10.2213 20.5524L10.2337 20.5382L10.2575 20.5747L10.2248 20.5957L10.2127 20.5623ZM9.93158 20.8983C9.93173 20.8987 9.93186 20.899 9.93196 20.8993C9.93285 20.9019 9.93116 20.8984 9.93116 20.8911C9.93116 20.8933 9.93129 20.8957 9.93158 20.8983ZM10.1191 20.4525L10.1166 20.4678L10.152 20.478L10.1278 20.442L10.1191 20.4525ZM10.3695 23.2642L10.4058 23.2657C10.4063 23.2403 10.3921 23.2187 10.3732 23.2161L10.3695 23.2642Z" fill="black"/>
</g>
<defs>
<clipPath id="clip0_45_18277">
<rect width="45" height="45" fill="white"/>
</clipPath>
</defs>
</svg>
