<svg width="45" height="45" viewBox="0 0 45 45" fill="none" xmlns="http://www.w3.org/2000/svg">
<g clip-path="url(#clip0_45_19012)">
<path fill-rule="evenodd" clip-rule="evenodd" d="M0.113281 0L0.078125 45H45.0781L0.113281 0Z" fill="black"/>
<path fill-rule="evenodd" clip-rule="evenodd" d="M45.043 45L45.0781 0H0.078125L45.043 45Z" fill="#FF0000"/>
<path d="M27.8614 11.1984L27.2683 11.1569C27.081 10.5762 26.5659 10.3689 26.2382 10.6177C25.6345 10.6179 25.0309 10.604 24.4276 10.5763L25.5358 11.2191C25.8323 12.2352 26.7688 12.4426 26.7688 12.4426C26.6752 14.2674 25.3797 12.2145 24.2871 13.2513C23.5066 13.8734 23.5066 14.5992 23.0852 15.802C22.9447 16.1337 22.3984 17.0047 22.3984 17.0047L23.3193 16.901L23.0228 17.4194L24.1154 17.2121L23.8813 17.5024C24.0373 17.5439 25.1299 17.1499 25.1299 17.1499L25.0519 17.6268L26.3006 17.0254C26.3006 17.0254 26.5503 17.295 26.7688 17.4194L26.9249 16.59L27.5493 16.7973L27.7054 15.9679C28.6419 17.6268 28.9541 19.2858 30.671 19.7005L30.5149 18.871C30.9713 19.1365 31.424 19.4131 31.8729 19.7005L32.0133 19.348C32.7625 20.053 33.3713 20.0323 33.7927 20.1152L33.4805 19.0784L33.7927 19.2858L33.3245 17.6268L33.7927 17.8342L33.1684 16.59L33.4025 16.3826L33.3245 15.7605C34.261 16.1752 35.5097 16.7973 35.6657 18.2489C35.8218 20.53 33.9488 21.1521 32.7001 20.9447C33.6366 21.9816 35.3536 21.5668 36.134 20.53C36.4462 20.1152 36.6023 19.4931 36.7584 18.871C36.9144 19.4931 37.2266 20.3226 37.2266 21.1521C37.0705 23.0184 35.1975 23.6405 33.9488 23.8479C35.3536 24.8847 37.851 23.6405 38.007 20.9447C38.007 18.6637 36.9144 17.6268 36.4462 16.59L36.2901 15.4702L36.7584 15.7605C36.7584 15.7605 36.4774 15.0762 36.4462 14.931C36.4462 14.931 35.9623 13.1684 35.7906 12.7744L36.134 12.8573L34.8541 10.7214L35.2131 10.6799C35.2131 10.6799 33.7303 9.12466 33.3245 8.91729L33.7927 8.70993C32.8562 8.08782 31.7636 8.50256 30.8271 9.33203L30.9832 8.70993L30.7022 8.7514V8.02561L30.9832 7.46571L30.5149 7.25834L30.8271 6.22149L30.3588 6.42886L30.5149 5.39202C30.5149 5.39202 30.1715 5.59938 29.953 5.57865C30.0426 5.34773 30.1259 5.11255 30.2027 4.87359C30.0467 4.56254 30.2027 3.94043 30.2027 3.94043C29.1101 4.1478 28.954 4.35517 28.3297 5.59938C27.3932 7.88045 27.7054 8.91729 27.8614 11.1984Z" fill="#FFCC00"/>
<path fill-rule="evenodd" clip-rule="evenodd" d="M30.0844 4.07849C29.6194 4.17406 29.3539 4.27576 29.1377 4.47468C28.9005 4.69282 28.7144 5.03458 28.4014 5.65823C27.9399 6.78352 27.7889 7.5945 27.7699 8.40199C27.7569 8.95222 27.8046 9.49773 27.8613 10.1458C27.8891 10.464 27.9191 10.8071 27.9452 11.1875L27.9541 11.3189L27.209 11.2668L27.188 11.2016C27.0192 10.6784 26.5587 10.5041 26.2789 10.7166L26.2592 10.7315L26.2365 10.7315C25.7805 10.7316 25.3245 10.7238 24.8686 10.708L25.6011 11.1328L25.614 11.1772C25.7515 11.6484 26.0388 11.9368 26.2999 12.109C26.4298 12.1947 26.5511 12.2501 26.6399 12.284C26.6842 12.3009 26.7201 12.3124 26.7447 12.3196C26.7571 12.3232 26.7665 12.3257 26.7727 12.3273C26.7745 12.3278 26.7761 12.3282 26.7773 12.3285C26.7782 12.3287 26.779 12.3289 26.7796 12.329L26.7811 12.3294L26.7813 12.3294L26.7813 12.3294C26.7813 12.3294 26.7813 12.3294 26.7813 12.3294L26.858 12.3464L26.8527 12.4499C26.8286 12.9188 26.7246 13.1931 26.5252 13.2987C26.4314 13.3484 26.3268 13.3541 26.2206 13.3403C26.1142 13.3264 25.9987 13.2919 25.8804 13.2529C25.8486 13.2424 25.8166 13.2317 25.7842 13.2208C25.3239 13.0661 24.8099 12.8934 24.3351 13.3439L24.3324 13.3466L24.3294 13.3489C23.9551 13.6473 23.7707 13.9666 23.6269 14.3586C23.5562 14.5514 23.4954 14.7614 23.4265 14.9994L23.4194 15.0242C23.3479 15.2712 23.2679 15.5453 23.1612 15.8499L23.1598 15.8538L23.1582 15.8577C23.084 16.0329 22.9076 16.341 22.7547 16.5983C22.6958 16.6974 22.6394 16.7904 22.5922 16.8676L23.503 16.765L23.2161 17.2666L24.3722 17.0471L24.1267 17.3516C24.2487 17.321 24.3975 17.2763 24.5426 17.2301C24.6882 17.1837 24.8291 17.1359 24.9336 17.0997C24.9859 17.0816 25.029 17.0665 25.0591 17.0558C25.0741 17.0505 25.0858 17.0463 25.0938 17.0435L25.1059 17.0391C25.1059 17.0391 25.1059 17.0391 25.1283 17.1494L25.1059 17.0391L25.2421 16.99L25.1671 17.4486L26.3153 16.8956L26.3529 16.9362L26.353 16.9363L26.3534 16.9367L26.3553 16.9388C26.357 16.9406 26.3597 16.9434 26.3631 16.947C26.37 16.9543 26.3803 16.9649 26.3933 16.9781C26.4193 17.0045 26.4563 17.0411 26.5 17.0814C26.5622 17.139 26.6361 17.2024 26.7097 17.255L26.861 16.4511L27.4853 16.6584L27.6643 15.7075L27.7722 15.8987C27.9975 16.2978 28.1869 16.6967 28.3663 17.0745C28.3753 17.0934 28.3842 17.1122 28.3932 17.131C28.5813 17.527 28.7592 17.8973 28.9605 18.2283C29.3381 18.8495 29.7973 19.3317 30.5533 19.5526L30.3877 18.6729L30.5475 18.7658C30.9798 19.0173 31.4087 19.2786 31.8341 19.5496L31.9817 19.1794L32.0611 19.2542C32.6734 19.8304 33.183 19.9062 33.586 19.9661C33.6101 19.9697 33.6338 19.9732 33.6572 19.9768L33.3154 18.8417L33.634 19.0533L33.1793 17.4424L33.5808 17.6202L33.0477 16.5578L33.3072 16.3279L33.2148 15.5918L33.3498 15.6516C33.8179 15.8589 34.3738 16.1219 34.8328 16.5196C35.2928 16.9182 35.6661 17.4614 35.7489 18.2322L35.7493 18.2351L35.7495 18.2381C35.79 18.8307 35.6989 19.3223 35.5152 19.721C35.332 20.1185 35.0602 20.4165 34.7473 20.6311C34.2262 20.9884 33.5831 21.1202 33.0143 21.0923C33.4295 21.396 33.9491 21.484 34.4637 21.4011C35.093 21.2998 35.6981 20.9452 36.0719 20.4486C36.3669 20.0566 36.5176 19.4634 36.6755 18.8343L36.7567 18.5104L36.838 18.8343C36.8742 18.9788 36.9192 19.1351 36.9675 19.3032L36.9758 19.3319C37.0269 19.51 37.0812 19.7001 37.1306 19.8971C37.2294 20.2905 37.3107 20.7188 37.3107 21.1516V21.158L37.3101 21.1643C37.2274 22.154 36.6888 22.8021 36.0331 23.2245C35.4749 23.5841 34.8191 23.7892 34.2493 23.9066C34.8923 24.2258 35.7056 24.1366 36.4078 23.6924C37.2056 23.1877 37.8434 22.2354 37.9197 20.9398C37.919 19.8291 37.6534 19.0223 37.3289 18.363C37.1673 18.0346 36.9914 17.7433 36.8242 17.4665L36.8192 17.4582C36.6518 17.181 36.4918 16.9156 36.3711 16.6484L36.3631 16.6307L36.1738 15.2726L36.5597 15.5119C36.552 15.4924 36.5442 15.4726 36.5364 15.4526C36.4992 15.3576 36.4607 15.2573 36.4294 15.1712C36.4003 15.0913 36.374 15.0144 36.3631 14.9664L36.3586 14.9501C36.3551 14.9371 36.3498 14.9181 36.343 14.8936C36.3295 14.8448 36.31 14.7745 36.286 14.689C36.238 14.5179 36.1723 14.2857 36.1013 14.0413C35.9577 13.5474 35.7965 13.0186 35.7149 12.8313L35.6217 12.6174L35.9228 12.6901L34.6856 10.6255L34.9864 10.5908C34.9661 10.5699 34.9443 10.5475 34.9212 10.5238C34.7761 10.375 34.5786 10.1746 34.3684 9.96785C34.1582 9.76093 33.936 9.54825 33.7415 9.37469C33.5442 9.19868 33.3832 9.07005 33.2922 9.02353L33.0683 8.90915L33.551 8.69537C32.701 8.27685 31.7306 8.66702 30.8729 9.42675L30.665 9.61083L30.8577 8.84269L30.6149 8.87854V7.99045L30.8477 7.5264L30.3998 7.32803L30.6771 6.40713L30.2441 6.59887L30.3982 5.57513C30.3802 5.58373 30.3609 5.59253 30.3409 5.60127C30.2266 5.65098 30.0724 5.70422 29.9453 5.69216L29.8154 5.67983L29.8753 5.52566C29.9574 5.31415 30.0341 5.09903 30.1053 4.88067C30.0726 4.79474 30.0566 4.6992 30.05 4.60697C30.0418 4.49339 30.0474 4.37719 30.0576 4.27475C30.0649 4.2022 30.0747 4.13502 30.0844 4.07849ZM30.4779 5.28746L30.6302 5.19552L30.4703 6.25794L30.9738 6.03493L30.6267 7.18773L31.1153 7.4041L30.7863 8.05984V8.62333L31.1053 8.57624L30.9831 9.06344C31.8846 8.34083 32.9217 8.00427 33.8293 8.6072L34.0151 8.73064L33.545 8.93885C33.6321 9.00616 33.7318 9.09106 33.8368 9.18477C34.0344 9.36114 34.259 9.57616 34.4702 9.78399C34.6815 9.99194 34.88 10.1933 35.0257 10.3427C35.0985 10.4173 35.1582 10.479 35.1996 10.5221C35.2204 10.5436 35.2365 10.5605 35.2475 10.572L35.2644 10.5896L35.2644 10.5896C35.2644 10.5897 35.2645 10.5897 35.2115 10.6795L35.2644 10.5896L35.4348 10.7684L35.0193 10.8164L36.342 13.0236L35.9426 12.9271C36.0342 13.1916 36.1548 13.5931 36.2611 13.9587C36.3324 14.2042 36.3984 14.4373 36.4465 14.609C36.4706 14.6948 36.4902 14.7654 36.5038 14.8144C36.5106 14.839 36.5159 14.8582 36.5195 14.8712L36.525 14.8912C36.525 14.8912 36.525 14.8913 36.4445 14.9305L36.525 14.8913L36.5261 14.8951L36.5269 14.8991C36.5323 14.9241 36.5521 14.9848 36.5836 15.0716C36.6138 15.1546 36.6514 15.2526 36.6883 15.3468C36.7251 15.4409 36.7611 15.5305 36.7878 15.5967C36.8011 15.6297 36.8122 15.6569 36.8199 15.6758L36.8288 15.6976L36.8317 15.7047L36.8318 15.7051L36.8319 15.7051L36.9572 16.0103L36.4031 15.6668L36.5259 16.5481C36.6385 16.7936 36.7875 17.0414 36.9527 17.3149L36.9596 17.3263C37.1256 17.6012 37.306 17.8999 37.4722 18.2376C37.8107 18.9253 38.0911 19.7763 38.0911 20.9443V20.9487L38.0908 20.9531C38.0099 22.3511 37.3215 23.3672 36.4813 23.8988C35.6434 24.4289 34.6379 24.4879 33.9057 23.9474L33.6754 23.7774L33.9366 23.734C34.5575 23.6309 35.3271 23.4255 35.9585 23.0188C36.589 22.6127 37.0642 22.0184 37.1393 21.1453C37.1385 20.7507 37.064 20.3517 36.9681 19.9696C36.92 19.7778 36.867 19.592 36.8157 19.4137L36.8069 19.3832C36.7908 19.327 36.7748 19.2714 36.7593 19.2168C36.625 19.7334 36.4672 20.246 36.1929 20.6105C35.7863 21.1507 35.1427 21.5219 34.4842 21.628C33.8259 21.734 33.136 21.5772 32.6437 21.0322L32.4183 20.7826L32.7091 20.8309C33.321 20.9325 34.0831 20.8296 34.6689 20.4279C34.9608 20.2278 35.206 19.9555 35.3692 19.6014C35.5315 19.249 35.616 18.8083 35.579 18.2618C35.5052 17.5825 35.1763 17.0897 34.7394 16.7112C34.3426 16.3674 33.8653 16.1255 33.4309 15.9289L33.4946 16.4363L33.2858 16.6212L34.0013 18.0472L33.4663 17.8103L33.9481 19.5173L33.6424 19.3142L33.9262 20.2569L33.7786 20.2278C33.7148 20.2153 33.6457 20.2051 33.5716 20.1942C33.1837 20.1372 32.6586 20.06 32.0424 19.514L31.9083 19.8505L31.8341 19.803C31.4387 19.5498 31.0403 19.305 30.6389 19.0689L30.7848 19.844L30.6541 19.8125C29.7722 19.5994 29.2477 19.0638 28.8273 18.3722C28.6188 18.0293 28.4358 17.6479 28.2484 17.2533C28.2397 17.2351 28.2311 17.2169 28.2224 17.1987C28.0722 16.8824 27.9179 16.5573 27.7425 16.2309L27.6099 16.9353L26.9856 16.7279L26.8259 17.5766L26.7336 17.5241C26.6163 17.4573 26.4936 17.3536 26.4023 17.2692C26.3562 17.2266 26.3171 17.188 26.2895 17.16C26.2874 17.1579 26.2855 17.1559 26.2835 17.1539L24.9335 17.8041L25.0147 17.3077C25.0027 17.3119 24.99 17.3163 24.9767 17.3209C24.8715 17.3573 24.7295 17.4055 24.5824 17.4523C24.4356 17.4992 24.2828 17.545 24.1564 17.5766C24.0933 17.5924 24.0355 17.605 23.9878 17.6122C23.9439 17.6189 23.8972 17.6231 23.8629 17.614L23.6986 17.5703L23.8553 17.3761L22.8262 17.5714L23.1324 17.0361L22.1992 17.1412L22.3311 16.9309L22.3312 16.9308L22.3371 16.9213C22.3411 16.9149 22.347 16.9054 22.3546 16.8932C22.3697 16.8689 22.3915 16.8338 22.4181 16.7905C22.4713 16.704 22.5437 16.5853 22.6204 16.4563C22.7744 16.1972 22.9401 15.9065 23.0074 15.7491C23.1107 15.4539 23.1884 15.1876 23.2595 14.9419L23.2678 14.913C23.3357 14.6785 23.3989 14.4601 23.4729 14.2582C23.6292 13.8322 23.8344 13.4782 24.2386 13.1551C24.7799 12.644 25.3695 12.844 25.8187 12.9965C25.8539 13.0084 25.8882 13.0201 25.9215 13.0311C26.0393 13.0699 26.1443 13.1007 26.2372 13.1128C26.3304 13.1249 26.404 13.117 26.4619 13.0863C26.5579 13.0355 26.6444 12.9011 26.6752 12.5327C26.6519 12.5253 26.6241 12.5157 26.5926 12.5037C26.4965 12.4669 26.3652 12.407 26.2239 12.3138C25.9503 12.1334 25.6315 11.8228 25.4679 11.3048L24.3917 10.6806L24.4289 10.4616C25.0239 10.489 25.6193 10.5028 26.2147 10.503C26.577 10.2508 27.1042 10.4681 27.3225 11.0459L27.7652 11.0769C27.7425 10.7628 27.7169 10.4703 27.6927 10.1932C27.6352 9.53394 27.5852 8.96199 27.5986 8.39483C27.6186 7.54443 27.7793 6.69752 28.2529 5.54406L28.2547 5.53961L28.2569 5.53539C28.5669 4.91751 28.7708 4.53453 29.0403 4.28658C29.3121 4.03659 29.6426 3.93056 30.189 3.82685L30.3264 3.80078L30.2824 3.97614L30.2824 3.97628L30.2821 3.97723L30.2811 3.98166C30.2801 3.98573 30.2786 3.99196 30.2768 4.00013C30.2731 4.01649 30.2679 4.04054 30.2621 4.07051C30.2505 4.13064 30.2367 4.21353 30.2275 4.30506C30.2183 4.39702 30.2141 4.49467 30.2206 4.58523C30.2271 4.67653 30.244 4.75315 30.2723 4.80959L30.2982 4.86113L30.2799 4.91813C30.2222 5.09774 30.1608 5.27523 30.0959 5.4504C30.1586 5.43554 30.2254 5.41113 30.2877 5.38403C30.342 5.36039 30.3899 5.33606 30.4242 5.31764C30.4413 5.30845 30.455 5.30078 30.4642 5.29546C30.4689 5.29281 30.4724 5.29074 30.4747 5.28937L30.4773 5.28786L30.4778 5.28752L30.4779 5.28746Z" fill="#FFCC00"/>
<path fill-rule="evenodd" clip-rule="evenodd" d="M33.7598 14.5986C33.8378 14.7853 34.7275 15.3452 35.3831 15.8428C35.2114 14.889 33.9159 14.6816 33.7598 14.5986Z" fill="#FF0000"/>
<path fill-rule="evenodd" clip-rule="evenodd" d="M33.5156 14.3125L33.8007 14.464C33.8106 14.4693 33.8384 14.4791 33.8922 14.4955C33.9084 14.5004 33.9265 14.5059 33.9461 14.5117C33.9858 14.5236 34.0316 14.5374 34.0808 14.5528C34.2287 14.5994 34.4156 14.6645 34.6042 14.7583C34.7922 14.8518 34.9866 14.9761 35.1468 15.1437C35.3076 15.3119 35.4393 15.5296 35.4897 15.8094L35.5484 16.1358L35.3297 15.9697C35.1079 15.8013 34.8602 15.6266 34.6248 15.4604C34.5137 15.382 34.4054 15.3056 34.3037 15.2326C34.1464 15.1197 34.0049 15.0149 33.8972 14.9258C33.8435 14.8814 33.7962 14.8393 33.7588 14.8007C33.7253 14.7661 33.6866 14.7215 33.6651 14.6699L33.5156 14.3125ZM34.4001 14.9715C34.4024 14.9731 34.4048 14.9748 34.4071 14.9765C34.5059 15.0474 34.6126 15.1227 34.7228 15.2005C34.8421 15.2847 34.9656 15.3719 35.0875 15.4594C35.0641 15.4295 35.0389 15.4005 35.0122 15.3725C34.8764 15.2305 34.7049 15.1188 34.528 15.0308C34.4853 15.0096 34.4424 14.9898 34.4001 14.9715Z" fill="#FF0000"/>
<path fill-rule="evenodd" clip-rule="evenodd" d="M12.3031 37.4064L11.3047 36.5627L9.96875 37.4158L10.2711 35.8971L9.25156 34.4814L10.4258 34.3877L11.1289 32.6627L11.5578 34.1158L13.0133 34.4721L12.0992 35.4658L12.3031 37.4064ZM14.8484 30.0002L14.3844 29.7189L13.9414 30.0564L14.0117 29.3814L13.632 28.9221L14.1312 28.8002L14.3422 28.1814L14.5883 28.7814L15.0945 28.8564L14.743 29.3439L14.8484 30.0002ZM17.0984 25.7627L16.0789 25.1064L15.1016 25.8377L15.2633 24.3658L14.4336 23.3533L15.5375 23.0908L16.0016 21.7408L16.5359 23.0533L17.6469 23.2221L16.8734 24.3002L17.0984 25.7627ZM12.4719 19.8564L11.2766 19.0596L10.1164 19.9127L10.3133 18.1689L9.34297 16.9502L10.6578 16.6689L11.2203 15.0752L11.832 16.6408L13.1539 16.8564L12.2188 18.1127L12.4719 19.8564ZM8.19687 25.9877L7.00156 25.0502L5.80625 26.0158L6.10859 24.2064L5.04688 22.9877L6.43203 22.8189L6.97344 21.1033L7.52891 22.8096L8.92109 22.9596L7.87344 24.1783L8.19687 25.9877Z" fill="white"/>
</g>
<defs>
<clipPath id="clip0_45_19012">
<rect width="45" height="45" fill="white"/>
</clipPath>
</defs>
</svg>
