<svg width="45" height="45" viewBox="0 0 45 45" fill="none" xmlns="http://www.w3.org/2000/svg">
<g clip-path="url(#clip0_45_19021)">
<path d="M0 0H45V22.5H0V0Z" fill="#0038A8"/>
<path d="M0 22.5H45V45H0V22.5Z" fill="#CE1126"/>
<path d="M29.2289 22.5L0 45V0" fill="white"/>
<path d="M1.87734 3.97461L2.88281 5.15586L4.05 4.29336L3.52969 5.93398L4.51406 7.15273L3.17813 7.00273L2.60859 8.61523L2.30625 6.88086L0.984375 6.65586L2.13047 5.71836L1.87734 3.97461ZM24.6445 20.1277L24.6727 21.909L25.9383 22.4996L24.6727 23.0809L24.6445 24.8621L23.8359 23.4465L22.5562 23.9621L23.3156 22.4996L22.5562 21.0371L23.8359 21.5527L24.6445 20.1277ZM2.61563 36.384L3.17813 37.9965L4.51406 37.8465L3.53672 39.0652L4.05703 40.7059L2.88984 39.8527L1.87734 41.0152L2.13047 39.2621L0.984375 38.3434L2.31328 38.1184L2.61563 36.384ZM10.6453 13.0402L10.2094 13.6215L10.4273 18.0277L10.2164 18.0559L9.81563 14.034L9.45703 14.5027L9.99141 18.1027C9.55931 18.2161 9.1483 18.4423 8.78203 18.7684L7.25625 15.7309H6.75L8.60625 18.9465C8.54849 19.0065 8.49221 19.0691 8.4375 19.134L6.25078 15.8059H5.63203V16.6309L8.12109 19.5371L7.98047 19.7715L5.56875 17.3059V17.9715L7.85391 20.0059C7.61484 20.4934 7.43906 21.0371 7.35469 21.6184L4.66172 20.9059L4.30313 21.3746L7.31953 21.909C7.30547 22.0027 7.29844 22.1059 7.29844 22.1996L3.99375 21.9184L3.55781 22.4996L3.99375 23.0809L7.29844 22.7902L7.31953 23.0809L4.30313 23.6152L4.65469 24.084L7.35469 23.3715C7.43973 23.9476 7.60939 24.4956 7.85391 24.984L5.56875 27.0184V27.6934L7.98047 25.2277C8.0255 25.3048 8.0724 25.3798 8.12109 25.4527L5.63203 28.359V29.184H6.25781L8.4375 25.8652L8.61328 26.0527L6.75 29.2684H7.25625L8.78203 26.2215C9.14062 26.5402 9.55547 26.7746 9.99141 26.8871L9.45703 30.4871L9.80859 30.9559L10.2094 26.934C10.2797 26.9527 10.35 26.9621 10.4273 26.9621L10.2164 31.3684L10.6453 31.9496L11.0883 31.3684L10.8703 26.9621L11.0813 26.934L11.482 30.9652L11.8406 30.4871L11.3063 26.8871C11.7383 26.7737 12.1494 26.5475 12.5156 26.2215L14.0414 29.2684H14.5477L12.6914 26.0527C12.7492 25.9927 12.8054 25.9302 12.8602 25.8652L15.0469 29.184H15.6656V28.359L13.1766 25.4527L13.3172 25.2277L15.7289 27.6934V27.0184L13.4437 24.984C13.6828 24.5059 13.8586 23.9527 13.943 23.3715L16.6359 24.084L16.9945 23.6152L13.9781 23.0809C13.9922 22.9871 13.9992 22.8934 13.9992 22.7902L17.3039 23.0715L17.7398 22.4996L17.3039 21.9184L13.9992 22.1996L13.9781 21.9184L16.9945 21.384L16.643 20.9152L13.943 21.6184C13.8579 21.0422 13.6883 20.4942 13.4437 20.0059L15.7289 17.9715V17.3059L13.3172 19.7715C13.2722 19.6945 13.2253 19.6194 13.1766 19.5465L15.6656 16.6402V15.8059H15.0469L12.8672 19.134C12.8102 19.0689 12.7515 19.0064 12.6914 18.9465L14.5477 15.7309H14.0414L12.5156 18.7684C12.157 18.4496 11.7422 18.2152 11.3063 18.1027L11.8406 14.5121L11.4891 14.0434L11.0883 18.0559L10.8703 18.0277L11.0813 13.6215L10.6453 13.0402Z" fill="#FCD116"/>
</g>
<defs>
<clipPath id="clip0_45_19021">
<rect width="45" height="45" fill="white"/>
</clipPath>
</defs>
</svg>
