<svg width="45" height="45" viewBox="0 0 45 45" fill="none" xmlns="http://www.w3.org/2000/svg">
<g clip-path="url(#clip0_45_19026)">
<path fill-rule="evenodd" clip-rule="evenodd" d="M-2.81641 0H47.8086V45H-2.81641V0Z" fill="#0C590B"/>
<path fill-rule="evenodd" clip-rule="evenodd" d="M-2.81641 0H9.8728V45H-2.81641V0Z" fill="white"/>
<path fill-rule="evenodd" clip-rule="evenodd" d="M30.0576 19.8105L28.001 19.2305L26.9199 21.6299L26.6958 18.8525L24.6523 18.2197L26.564 17.0771L26.386 14.291L27.7966 16.3652L29.728 15.2754L28.6799 17.7012L30.0642 19.8105H30.0576Z" fill="white"/>
<path fill-rule="evenodd" clip-rule="evenodd" d="M30.8288 26.8945C30.3902 28.1709 29.7666 29.319 28.9939 30.2729C28.2213 31.2268 27.3149 31.9676 26.3267 32.4528C25.3386 32.938 24.2883 33.1579 23.2362 33.1C22.1841 33.0421 21.151 32.7074 20.1963 32.1152C18.2592 30.9194 16.7578 28.7466 16.0222 26.0748C15.2867 23.4029 15.3773 20.4509 16.2741 17.8682C16.7195 16.5405 17.3684 15.3518 18.179 14.3785C18.9895 13.4052 19.9439 12.6689 20.9807 12.2168C20.7093 12.5181 20.4496 12.8379 20.2029 13.1748C18.9168 15.0738 18.2341 17.5646 18.2987 20.1218C18.3633 22.679 19.1701 25.1028 20.5491 26.8821C21.9281 28.6615 23.7714 29.6573 25.6904 29.6596C27.6094 29.662 29.454 28.6706 30.8354 26.8945H30.8288Z" fill="white"/>
</g>
<defs>
<clipPath id="clip0_45_19026">
<rect width="45" height="45" fill="white"/>
</clipPath>
</defs>
</svg>
