<svg width="45" height="45" viewBox="0 0 45 45" fill="none" xmlns="http://www.w3.org/2000/svg">
<g clip-path="url(#clip0_45_19140)">
<path d="M18 0H45V45H18V0Z" fill="#FF0000"/>
<path d="M0 0H18V45H0V0Z" fill="#006600"/>
<path fill-rule="evenodd" clip-rule="evenodd" d="M23.8711 28.7061C21.6 28.6123 11.2148 19.9686 11.1445 18.5811L11.7141 17.3154C12.7477 19.3123 23.3648 27.7217 24.4125 27.4217L23.8711 28.7061Z" fill="#FFFF00"/>
<path fill-rule="evenodd" clip-rule="evenodd" d="M11.715 17.2871C11.7221 17.2868 11.7289 17.2914 11.733 17.2993C11.8603 17.5451 12.1369 17.8927 12.5283 18.3132C12.919 18.7331 13.4221 19.2238 14.0005 19.7558C15.157 20.8199 16.6134 22.0485 18.0704 23.2055C19.5273 24.3625 20.9845 25.4476 22.1428 26.2246C22.722 26.6132 23.226 26.9244 23.6177 27.1291C23.8136 27.2314 23.981 27.3069 24.1153 27.3521C24.2507 27.3976 24.3493 27.4113 24.4096 27.394C24.4177 27.3917 24.4261 27.3959 24.431 27.4048C24.436 27.4137 24.4365 27.4256 24.4325 27.4353L23.891 28.7196C23.8872 28.7288 23.8799 28.7343 23.872 28.734C23.5845 28.7221 23.1711 28.5753 22.6693 28.3272C22.1669 28.0787 21.574 27.7275 20.9266 27.3047C19.6318 26.459 18.118 25.3259 16.6731 24.1525C15.2283 22.9792 13.852 21.7652 12.8323 20.7577C12.3226 20.2539 11.9015 19.8013 11.6055 19.4309C11.4576 19.2458 11.3404 19.0806 11.2589 18.9393C11.1782 18.7994 11.1299 18.6785 11.125 18.5828C11.1248 18.577 11.1258 18.5713 11.128 18.5664L11.6975 17.3008C11.7012 17.2926 11.7078 17.2874 11.715 17.2871ZM11.7172 17.3665L11.1677 18.5875C11.1741 18.6646 11.215 18.7709 11.2924 18.905C11.3719 19.0429 11.4872 19.2058 11.6344 19.3899C11.9287 19.7582 12.3482 20.2093 12.8575 20.7125C13.8758 21.7187 15.2509 22.9317 16.6951 24.1045C18.1392 25.2772 19.6518 26.4094 20.9452 27.2541C21.5919 27.6765 22.1834 28.0268 22.684 28.2744C23.1776 28.5186 23.5808 28.6618 23.8606 28.6771L24.3751 27.4565C24.3068 27.4619 24.2154 27.4438 24.105 27.4066C23.9682 27.3606 23.799 27.2842 23.6023 27.1815C23.2089 26.9759 22.7035 26.6637 22.1238 26.2749C20.9644 25.4971 19.5063 24.4113 18.0488 23.2539C16.5913 22.0964 15.1341 20.8671 13.9765 19.8021C13.3977 19.2696 12.8936 18.7781 12.5018 18.357C12.1284 17.9558 11.8553 17.6168 11.7172 17.3665Z" fill="black"/>
<path fill-rule="evenodd" clip-rule="evenodd" d="M11.5968 17.1377C11.3928 17.8689 14.3108 20.2689 17.8124 23.1189C21.321 25.9596 24.3444 27.7127 24.5624 27.4689L24.6678 27.2064C24.6257 27.3002 24.5272 27.3283 24.3655 27.2627C23.4163 26.8971 20.9483 25.3877 17.8897 22.9127C14.8241 20.4377 12.1663 18.1596 11.7514 17.1939C11.7191 17.1034 11.7046 17.0034 11.7093 16.9033H11.6952L11.6108 17.1096L11.5968 17.1377ZM23.9225 28.7439C23.8874 28.8377 23.81 28.8377 23.6764 28.8189C22.8327 28.6971 20.2593 27.0283 17.2147 24.6002C13.671 21.7689 10.746 19.2002 11.0694 18.5252L11.1538 18.3189L11.1678 18.3283C10.8866 19.4721 16.9405 24.0846 17.2991 24.3846C20.8007 27.2721 23.7538 28.9689 24.0139 28.5283L23.9225 28.7439Z" fill="#FFFF00"/>
<path fill-rule="evenodd" clip-rule="evenodd" d="M11.6763 16.8897C11.68 16.8806 11.6871 16.875 11.6948 16.875H11.7089C11.7147 16.875 11.7203 16.8782 11.7243 16.8839C11.7282 16.8895 11.7303 16.8971 11.7299 16.9049C11.7255 16.9998 11.7392 17.0947 11.7698 17.1807C11.8716 17.417 12.1124 17.7372 12.4675 18.1249C12.8222 18.5122 13.2885 18.9643 13.8381 19.4639C14.9371 20.463 16.3675 21.651 17.9003 22.8884L17.9003 22.8885C20.9585 25.3632 23.4245 26.8709 24.371 27.2355L24.3713 27.2356C24.4505 27.2678 24.5121 27.276 24.5578 27.2664C24.6028 27.2569 24.632 27.2304 24.6494 27.1918C24.6553 27.1787 24.6679 27.1743 24.6779 27.1818C24.6878 27.1893 24.6915 27.2061 24.6861 27.2195L24.5806 27.482C24.5793 27.4852 24.5776 27.488 24.5756 27.4903C24.5558 27.5124 24.5245 27.5195 24.4888 27.5194C24.4518 27.5192 24.4049 27.5111 24.3491 27.4959C24.2373 27.4653 24.0865 27.4053 23.9017 27.3179C23.5319 27.143 23.0232 26.8575 22.412 26.4759C21.1896 25.7125 19.556 24.5636 17.8011 23.1428L17.801 23.1428C16.0504 21.7179 14.445 20.4049 13.3027 19.3568C12.7317 18.8328 12.2755 18.3742 11.9748 18.0004C11.8245 17.8136 11.712 17.6468 11.6435 17.5026C11.5756 17.3597 11.5475 17.2321 11.5766 17.1277L11.5964 17.1375L11.5788 17.1219L11.5924 17.0948L11.6763 16.8897ZM11.6154 17.1503C11.5948 17.2284 11.6136 17.3348 11.6791 17.4725C11.7448 17.6107 11.8542 17.7736 12.0035 17.9592C12.3019 18.3301 12.7559 18.7868 13.3266 19.3104C14.4677 20.3575 16.072 21.6696 17.823 23.0947C19.5767 24.5145 21.209 25.6625 22.4299 26.4249C23.0405 26.8062 23.5478 27.0908 23.9158 27.2649C24.0999 27.3519 24.2485 27.411 24.3575 27.4408C24.4121 27.4557 24.4559 27.463 24.4889 27.4632C24.5194 27.4633 24.5369 27.4571 24.5457 27.4499L24.6021 27.3095C24.5904 27.3149 24.5778 27.3191 24.5644 27.3219C24.51 27.3334 24.4415 27.3229 24.3592 27.2895C23.4071 26.9227 20.9373 25.4117 17.8784 22.9366C16.3456 21.699 14.9143 20.5104 13.8143 19.5103C13.2643 19.0103 12.7968 18.5572 12.4407 18.1684C12.0854 17.7804 11.8386 17.4541 11.7328 17.2077C11.7325 17.2071 11.7323 17.2065 11.732 17.2058C11.7065 17.1344 11.6916 17.0574 11.6879 16.9789L11.629 17.1228C11.6287 17.1236 11.6283 17.1243 11.628 17.125L11.6154 17.1503ZM11.1349 18.3053C11.1403 18.292 11.1527 18.2868 11.1629 18.2936L11.1769 18.303C11.1863 18.3092 11.1908 18.3236 11.1875 18.3369C11.1721 18.3997 11.1777 18.4775 11.2056 18.5709C11.2336 18.6641 11.283 18.7701 11.3521 18.887C11.49 19.121 11.7036 19.3947 11.97 19.6932C12.5026 20.2901 13.2433 20.9825 14.0047 21.6491C15.2163 22.71 16.4772 23.7029 17.0334 24.1409C17.1764 24.2536 17.2729 24.3296 17.3099 24.3605C19.0601 25.8037 20.6729 26.9492 21.8804 27.6787C22.4842 28.0435 22.9862 28.3039 23.3529 28.4456C23.5364 28.5165 23.6851 28.5573 23.7954 28.5669C23.8505 28.5718 23.8951 28.5687 23.9291 28.5585C23.9633 28.5482 23.9848 28.5313 23.997 28.5107C24.0038 28.4992 24.0162 28.4966 24.0253 28.5048C24.0345 28.513 24.0374 28.5292 24.0319 28.542L23.9408 28.757C23.9196 28.813 23.8851 28.8406 23.8396 28.8511C23.7959 28.8613 23.7403 28.856 23.6739 28.8467L23.6738 28.8467C23.4599 28.8158 23.1387 28.6875 22.731 28.4758C22.3227 28.2639 21.8263 27.9677 21.2612 27.5995C20.1312 26.8631 18.7262 25.8385 17.2035 24.6241L17.2035 24.6241C15.4316 23.2084 13.8138 21.858 12.6792 20.7768C12.1121 20.2363 11.6649 19.7624 11.3795 19.3807C11.237 19.19 11.1337 19.0209 11.0763 18.8769C11.0194 18.7343 11.0046 18.6082 11.0509 18.5107L11.1349 18.3053ZM23.9222 28.7438L23.9038 28.7299L23.9558 28.6073C23.9502 28.6095 23.9444 28.6116 23.9384 28.6134C23.8989 28.6252 23.8499 28.6281 23.7926 28.6231C23.6779 28.613 23.5258 28.571 23.3412 28.4996C22.9716 28.3568 22.4676 28.0952 21.863 27.7299C20.6535 26.9992 19.039 25.8525 17.2876 24.4083L17.2875 24.4082C17.2514 24.378 17.1563 24.3031 17.0148 24.1917C16.4606 23.7552 15.195 22.7586 13.9816 21.6962C13.2198 21.0292 12.4774 20.3353 11.9428 19.7363C11.6757 19.4369 11.4595 19.1602 11.3189 18.9218C11.2486 18.8026 11.1965 18.6919 11.1665 18.5918C11.1481 18.5305 11.1377 18.4722 11.1369 18.4178L11.0876 18.5385C11.0873 18.539 11.0871 18.5396 11.0868 18.5401C11.0527 18.6113 11.0586 18.7128 11.1135 18.8505C11.168 18.9872 11.2678 19.1517 11.4094 19.341C11.6922 19.7193 12.1371 20.191 12.7038 20.731C13.8368 21.8108 15.4534 23.1603 17.2252 24.5759C18.7471 25.7896 20.151 26.8134 21.2798 27.5489C21.8442 27.9167 22.3395 28.2123 22.7463 28.4234C23.1535 28.6348 23.4703 28.7607 23.6783 28.7908C23.7455 28.8002 23.7953 28.8043 23.8324 28.7957C23.8677 28.7875 23.8893 28.7685 23.9033 28.7312L23.9222 28.7438Z" fill="black"/>
<path fill-rule="evenodd" clip-rule="evenodd" d="M18.0164 19.425C20.2805 19.3969 23.0789 19.0125 24.6961 18.15L24.3445 17.4C23.3953 18.1031 20.5828 18.5719 17.9953 18.6375C14.9437 18.6 12.7852 18.2156 11.7023 17.25L11.3789 18.0563C13.3617 19.1813 15.4008 19.4156 18.0164 19.425Z" fill="#FFFF00"/>
<path fill-rule="evenodd" clip-rule="evenodd" d="M11.6949 17.2225C11.7007 17.2206 11.7068 17.222 11.7117 17.2264C12.2493 17.7058 13.0561 18.0425 14.1115 18.2638C15.1664 18.485 16.4677 18.5904 17.9929 18.6092C19.2858 18.5764 20.6348 18.4429 21.779 18.2298C22.3512 18.1232 22.8718 17.9968 23.3085 17.8533C23.7455 17.7096 24.0971 17.5492 24.3319 17.3752C24.3418 17.3679 24.3541 17.3722 24.3601 17.3849L24.7116 18.1349C24.715 18.142 24.7157 18.1506 24.7138 18.1585C24.7119 18.1665 24.7074 18.1728 24.7016 18.1759C23.0806 19.0405 20.2788 19.4248 18.0143 19.4529C18.0142 19.4529 18.0141 19.4529 18.014 19.4529C18.0025 19.4529 17.9931 19.4405 17.993 19.4251C17.9929 19.4095 18.0022 19.3968 18.0139 19.3967C18.0139 19.3967 18.0139 19.3967 18.014 19.3967C15.4084 19.3873 13.3781 19.1545 11.406 18.0422L11.7077 17.2903C12.2527 17.7674 13.0599 18.1003 14.1049 18.3194C15.1628 18.5412 16.4665 18.6467 17.9928 18.6654L17.9928 18.6654L17.9934 18.6654C19.2878 18.6326 20.6387 18.4989 21.7849 18.2855C22.3579 18.1787 22.8801 18.052 23.3186 17.9079C23.7462 17.7673 24.0954 17.6098 24.3349 17.4372L24.6625 18.1361C23.0456 18.9878 20.2666 19.3687 18.014 19.3967M11.6949 17.2225C11.6891 17.2244 11.6842 17.2295 11.6814 17.2365L11.6949 17.2225ZM11.6814 17.2365L11.358 18.0428L11.6814 17.2365ZM18.014 19.4529C15.3977 19.4436 13.3551 19.2092 11.3683 18.0819C11.3629 18.0788 11.3586 18.0728 11.3567 18.0654C11.3547 18.058 11.3552 18.0498 11.358 18.0428" fill="black"/>
<path fill-rule="evenodd" clip-rule="evenodd" d="M24.7867 18.1691C24.7305 18.291 23.6758 18.7691 22.1289 19.1254C20.7653 19.4009 19.3878 19.5357 18.0086 19.5285C16.6872 19.5351 15.367 19.4224 14.057 19.191C12.4328 18.8535 11.5961 18.3848 11.2797 18.216L11.357 18.0098C12.25 18.4785 13.0938 18.7598 14.0781 18.966C15.3785 19.2001 16.6894 19.316 18.0016 19.3129C19.3736 19.3148 20.7438 19.1801 22.1008 18.9098C23.6828 18.5629 24.5477 18.1223 24.6742 17.9254L24.7867 18.1785V18.1691ZM24.4773 17.4098C24.3086 17.5973 23.4508 18.0004 21.9461 18.3191C20.6467 18.5698 19.3355 18.6951 18.0227 18.6941C16.4758 18.6941 15.2031 18.5441 14.2398 18.3566C12.707 18.0941 11.8914 17.6066 11.5961 17.4754L11.6875 17.2691C11.9195 17.4285 12.7 17.8504 14.2539 18.141C15.5031 18.3641 16.7624 18.4706 18.0227 18.4598C19.3262 18.4603 20.628 18.335 21.918 18.0848C23.4297 17.8035 24.2453 17.2973 24.3719 17.166L24.4773 17.4098ZM10.5695 23.0629C11.9617 24.066 15.0625 24.5629 17.9945 24.6004C20.6664 24.6098 24.1398 24.0566 25.4406 23.1379L25.4055 22.1348C24.9977 22.9785 21.2711 23.7941 17.9664 23.766C14.6617 23.7285 11.5891 23.0535 10.5625 22.1723V23.0629" fill="#FFFF00"/>
<path fill-rule="evenodd" clip-rule="evenodd" d="M24.3775 17.1382C24.3835 17.1398 24.3887 17.1447 24.3917 17.1518L24.4972 17.3955L24.4789 17.4096L24.4924 17.4312C24.4475 17.4811 24.3596 17.5428 24.2317 17.612C24.1032 17.6816 23.9324 17.7598 23.7201 17.842C23.2955 18.0065 22.704 18.1872 21.951 18.3467L21.9507 18.3468C20.6503 18.5976 19.3381 18.723 18.0242 18.7221L18.0242 18.6939V18.7221C18.0242 18.7221 18.0242 18.7221 18.0242 18.7221C16.4764 18.7221 15.2028 18.572 14.2385 18.3843C14.2386 18.3843 14.2387 18.3843 14.2387 18.3843L14.2414 18.3564L14.2384 18.3843C14.2384 18.3843 14.2385 18.3843 14.2385 18.3843C12.9278 18.1598 12.1398 17.7708 11.7543 17.5804C11.6882 17.5478 11.634 17.521 11.591 17.5019C11.5849 17.4992 11.5801 17.493 11.5779 17.485C11.5757 17.4771 11.5763 17.4682 11.5795 17.4609L11.6709 17.2546C11.6766 17.2418 11.6888 17.2371 11.6987 17.2439C11.928 17.4015 12.706 17.8226 14.2583 18.113C14.2583 18.113 14.2583 18.1129 14.2583 18.1129L14.2555 18.1408L14.2584 18.113C14.2584 18.113 14.2584 18.113 14.2583 18.113C15.5065 18.3359 16.7648 18.4423 18.0241 18.4314L18.0242 18.4314C19.3267 18.432 20.6276 18.3068 21.9165 18.0567L21.9166 18.0567C22.6713 17.9163 23.2519 17.7198 23.6594 17.5422C23.8631 17.4534 24.0235 17.3694 24.1406 17.2995C24.2583 17.2293 24.331 17.1742 24.3605 17.1436C24.3653 17.1386 24.3715 17.1367 24.3775 17.1382ZM24.4514 17.4024L24.3667 17.2066C24.3268 17.2419 24.2569 17.2918 24.1578 17.3509C24.0392 17.4216 23.8774 17.5064 23.6725 17.5957C23.2626 17.7743 22.6795 17.9716 21.9225 18.1124C20.6316 18.3628 19.3288 18.4882 18.0243 18.4877C16.763 18.4986 15.5028 18.392 14.2527 18.1687L14.2525 18.1687C12.7342 17.8847 11.952 17.4753 11.6972 17.3059L11.629 17.4597C11.6679 17.4778 11.7144 17.5007 11.7687 17.5275C12.1547 17.7181 12.9383 18.1049 14.2441 18.3285L14.2445 18.3286L14.2445 18.3286C15.2067 18.5159 16.4784 18.6658 18.0242 18.6658H18.0242C19.336 18.6668 20.6462 18.5416 21.9445 18.2911C22.6961 18.1319 23.2858 17.9517 23.7084 17.788C23.9197 17.7062 24.0891 17.6286 24.2159 17.5599C24.3299 17.4981 24.408 17.4444 24.4514 17.4024ZM24.6776 17.8972C24.6844 17.898 24.6905 17.9031 24.6939 17.9109L24.7973 18.1435C24.8046 18.1481 24.8094 18.158 24.8094 18.1689V18.1783C24.8094 18.191 24.803 18.2021 24.7939 18.2054C24.7929 18.2058 24.7918 18.2061 24.7908 18.2062C24.7869 18.2107 24.7826 18.2149 24.7781 18.219C24.7659 18.2302 24.75 18.2424 24.731 18.2554C24.6928 18.2815 24.6402 18.312 24.5744 18.3459C24.4427 18.4138 24.2566 18.4964 24.0242 18.5862C23.5594 18.7658 22.9082 18.9746 22.1341 19.1529L22.1336 19.153C20.769 19.4287 19.3904 19.5636 18.0102 19.5564C16.6878 19.5631 15.3667 19.4502 14.0558 19.2187L14.0553 19.2186L14.0553 19.2186C12.4888 18.8931 11.6534 18.4455 11.3106 18.2618C11.2975 18.2548 11.2851 18.2482 11.2734 18.2419C11.2679 18.239 11.2636 18.2332 11.2615 18.2258C11.2594 18.2185 11.2597 18.2103 11.2624 18.2032L11.3397 17.997C11.3446 17.984 11.3562 17.9781 11.3663 17.9834C12.2575 18.4512 13.0997 18.732 14.0827 18.938C15.3821 19.1719 16.6919 19.2877 18.0031 19.2846H18.0031C19.3741 19.2865 20.7432 19.1518 22.0991 18.8818C22.8893 18.7085 23.5 18.5119 23.9286 18.3343C24.143 18.2454 24.3115 18.1614 24.4341 18.0876C24.4954 18.0507 24.5449 18.0166 24.5828 17.9858C24.621 17.9547 24.6461 17.9281 24.6598 17.9069C24.6642 17.9 24.6708 17.8964 24.6776 17.8972ZM24.7592 18.1679L24.6714 17.9706C24.6542 17.9907 24.6318 18.0118 24.6047 18.0338C24.5649 18.0662 24.5137 18.1014 24.4514 18.1389C24.3268 18.2139 24.1565 18.2987 23.9411 18.388C23.5102 18.5666 22.8975 18.7637 22.1058 18.9373L22.1055 18.9374C20.7475 19.2079 19.3762 19.3427 18.0031 19.3408C16.69 19.344 15.3782 19.228 14.0769 18.9937L14.0764 18.9936L14.0764 18.9936C13.0974 18.7885 12.2569 18.5092 11.3688 18.0452L11.3104 18.2011C11.3156 18.2039 11.3209 18.2067 11.3263 18.2096C11.6677 18.3925 12.4998 18.8384 14.0616 19.163C15.3705 19.3941 16.6897 19.5068 18.0101 19.5002H18.0102C19.3883 19.5074 20.7646 19.3727 22.1271 19.0974C22.8997 18.9195 23.5493 18.7111 24.0125 18.5322C24.2442 18.4427 24.429 18.3606 24.5592 18.2934C24.6243 18.2599 24.6754 18.2302 24.7118 18.2054C24.7299 18.193 24.744 18.182 24.7542 18.1727C24.756 18.171 24.7577 18.1694 24.7592 18.1679ZM25.4125 22.1074C25.4214 22.1106 25.4277 22.121 25.4281 22.1333L25.4633 23.1364C25.4636 23.1473 25.4593 23.1575 25.4521 23.1625C24.7981 23.6245 23.6012 23.9929 22.2362 24.2449C20.8703 24.497 19.333 24.633 17.996 24.6283L17.9959 24.6283C16.5291 24.6096 15.02 24.4759 13.7031 24.2214C12.3898 23.9676 11.2655 23.5931 10.5657 23.0907C10.5651 23.0908 10.5646 23.0908 10.5641 23.0908C10.5524 23.0908 10.543 23.0782 10.543 23.0627V22.1721C10.543 22.1618 10.5472 22.1523 10.554 22.1474C10.5607 22.1425 10.569 22.1429 10.5755 22.1484C11.0847 22.5856 12.1056 22.974 13.4151 23.2576C14.7235 23.5409 16.3167 23.719 17.9681 23.7377C19.6193 23.7517 21.3759 23.555 22.7704 23.2494C23.4677 23.0966 24.0739 22.9167 24.531 22.7226C24.7595 22.6255 24.9502 22.5251 25.096 22.4232C25.2426 22.3208 25.3414 22.2185 25.3893 22.1193C25.3943 22.1091 25.4037 22.1042 25.4125 22.1074ZM10.5852 23.0409C11.2781 23.5385 12.3965 23.912 13.7092 24.1657C15.0238 24.4198 16.531 24.5533 17.9963 24.5721M10.5852 23.0409V22.223V23.0409Z" fill="black"/>
<path fill-rule="evenodd" clip-rule="evenodd" d="M25.5094 22.9223V23.1566C25.3125 23.4754 24.0891 23.9441 22.5562 24.2816C21.0334 24.5735 19.4962 24.7114 17.9578 24.6941C16.499 24.7107 15.0415 24.5759 13.5984 24.291C12.5216 24.1251 11.4694 23.7459 10.4766 23.166V22.8941C11.1586 23.4941 13.0008 23.9441 13.6195 24.0754C14.7305 24.3004 16.1578 24.4691 17.9578 24.4691C19.8492 24.4691 21.3609 24.291 22.5281 24.0566C23.632 23.841 25.2 23.2879 25.5094 22.9223ZM25.5094 22.0785V22.3129C25.3125 22.6223 24.0891 23.091 22.5562 23.4285C21.0336 23.7235 19.4964 23.8645 17.9578 23.8504C16.4992 23.8618 15.0419 23.7271 13.5984 23.4473C12.5216 23.2814 11.4694 22.9022 10.4766 22.3223V22.041C11.1586 22.6504 13.0078 23.091 13.6195 23.2223C15.0559 23.5028 16.5062 23.6376 17.9578 23.6254C19.8492 23.6254 21.368 23.4379 22.5281 23.2035C23.632 22.9973 25.2 22.4441 25.5094 22.0785ZM17.9859 28.5285C14.7797 28.5098 12.0305 27.366 11.4469 27.1785L11.8688 28.0598C13.841 28.9911 15.9221 29.4451 18.0141 29.4004C20.4539 29.3066 22.5844 29.0535 24.082 28.0785L24.518 27.1598C23.4984 27.8066 20.018 28.5285 17.9789 28.5285" fill="#FFFF00"/>
<path fill-rule="evenodd" clip-rule="evenodd" d="M10.4682 22.016C10.4751 22.0111 10.4834 22.0117 10.4899 22.0175C10.8273 22.319 11.4566 22.5806 12.081 22.7834C12.7041 22.9859 13.3187 23.1287 13.6243 23.1943C15.0596 23.4746 16.5087 23.6092 17.9592 23.5971L17.9594 23.5971C19.8497 23.5971 21.3674 23.4097 22.5265 23.1755L22.5268 23.1755C23.0777 23.0725 23.7448 22.883 24.3126 22.6735C24.5966 22.5687 24.8554 22.4592 25.0623 22.3531C25.2701 22.2465 25.4228 22.1449 25.4969 22.0573L25.5109 22.0783H25.532V22.3127C25.532 22.3194 25.5303 22.3258 25.527 22.3309C25.5001 22.3731 25.4571 22.4162 25.401 22.4599C25.3447 22.5038 25.2738 22.5494 25.1901 22.596C25.0227 22.6893 24.8026 22.7878 24.5411 22.887C24.0181 23.0854 23.3282 23.2872 22.5612 23.4561L22.5608 23.4562C21.0372 23.7513 19.499 23.8925 17.9594 23.8783C16.4998 23.8898 15.0417 23.7549 13.5973 23.475C12.5185 23.3087 11.4644 22.9288 10.4697 22.3478C10.462 22.3434 10.457 22.3332 10.457 22.3221V22.0408C10.457 22.0304 10.4613 22.0209 10.4682 22.016ZM25.4898 22.1367C25.4024 22.2216 25.2582 22.3129 25.0774 22.4056C24.8688 22.5125 24.6086 22.6227 24.3239 22.7277C23.7545 22.9377 23.0857 23.1278 22.5327 23.2312C21.3716 23.4657 19.8518 23.6533 17.9594 23.6533C17.9594 23.6533 17.9594 23.6533 17.9594 23.6533V23.6252L17.9595 23.6533C17.9595 23.6533 17.9595 23.6533 17.9594 23.6533C16.5067 23.6655 15.0554 23.5306 13.618 23.2499L13.6177 23.2498L13.6177 23.2498C13.3116 23.1842 12.6958 23.041 12.071 22.8381C11.4666 22.6417 10.8503 22.3883 10.4992 22.0927V22.0408H10.4781L10.4664 22.0642C10.4771 22.0737 10.488 22.0832 10.4992 22.0927V22.3037C10.495 22.3012 10.4908 22.2988 10.4866 22.2963L10.4781 22.3221H10.4992V22.3037C11.4865 22.8783 12.5323 23.2542 13.6024 23.4191L13.603 23.4192L13.603 23.4192C15.0455 23.6989 16.5017 23.8335 17.9593 23.8221L17.9595 23.8221C19.497 23.8362 21.0331 23.6953 22.5546 23.4005C22.5545 23.4005 22.5544 23.4006 22.5544 23.4006L22.5578 23.4283L22.5548 23.4005C22.5547 23.4005 22.5546 23.4005 22.5546 23.4005C23.3203 23.2319 24.0085 23.0306 24.5296 22.8329C24.7902 22.734 25.0086 22.6363 25.1739 22.5441C25.2565 22.498 25.3255 22.4536 25.3797 22.4113C25.4304 22.3719 25.467 22.3352 25.4898 22.3021V22.3127H25.5109L25.4949 22.2945C25.4933 22.297 25.4916 22.2995 25.4898 22.3021V22.1367ZM10.4681 22.8692C10.475 22.8643 10.4833 22.8648 10.4897 22.8705C10.8273 23.1674 11.4549 23.429 12.0784 23.633C12.7007 23.8367 13.3153 23.9818 13.6243 24.0474C14.7341 24.2722 16.1604 24.4408 17.9594 24.4408C19.8498 24.4408 21.3605 24.2628 22.5265 24.0286L22.5266 24.0286C23.0776 23.921 23.7447 23.7291 24.3126 23.5184C24.5965 23.4131 24.8554 23.3032 25.0623 23.197C25.2701 23.0903 25.4228 22.9887 25.4969 22.901L25.5109 22.9221H25.532V23.1564C25.532 23.163 25.5303 23.1693 25.5272 23.1743C25.5003 23.2178 25.4573 23.262 25.4012 23.3066C25.3448 23.3515 25.2739 23.3978 25.1902 23.4451C25.0228 23.5398 24.8026 23.6392 24.5412 23.739C24.0181 23.9385 23.3282 24.1403 22.5612 24.3092L22.5608 24.3093C21.037 24.6013 19.4988 24.7393 17.9594 24.7221C16.4997 24.7386 15.0412 24.6038 13.5972 24.3187C12.5185 24.1524 11.4644 23.7726 10.4697 23.1916C10.462 23.1871 10.457 23.177 10.457 23.1658V22.8939C10.457 22.8836 10.4613 22.8741 10.4681 22.8692ZM25.4898 22.9805C25.4024 23.0653 25.2582 23.1567 25.0774 23.2495C24.8688 23.3566 24.6086 23.467 24.3239 23.5726C23.7545 23.7838 23.0857 23.9763 22.5328 24.0843C21.3645 24.3189 19.8517 24.4971 17.9594 24.4971C16.1584 24.4971 14.73 24.3282 13.6179 24.103L13.6178 24.103C13.3081 24.0373 12.6922 23.8918 12.0683 23.6877C11.4647 23.4902 10.8501 23.2367 10.4992 22.9454V23.1474C11.4865 23.7221 12.5323 24.098 13.6024 24.2629L13.6031 24.263L13.6031 24.263C15.0451 24.5477 16.5015 24.6824 17.9592 24.6658H17.9596C19.4968 24.6831 21.0329 24.5453 22.5546 24.2536C23.3203 24.085 24.0085 23.8837 24.5295 23.6849C24.7901 23.5854 25.0085 23.4868 25.1738 23.3933C25.2564 23.3466 25.3254 23.3014 25.3796 23.2583C25.4303 23.2179 25.467 23.1803 25.4898 23.146V22.9805ZM24.5353 27.1409C24.5415 27.1503 24.5424 27.164 24.5374 27.1746L24.1014 28.0934C24.0993 28.0978 24.0964 28.1013 24.0928 28.1036C22.5905 29.0816 20.4556 29.3346 18.0162 29.4283L18.016 29.4283C15.9215 29.4731 13.8378 29.0185 11.8633 28.0861C11.8588 28.084 11.8551 28.08 11.8525 28.0747L11.4307 27.1935C11.426 27.1838 11.4263 27.1713 11.4313 27.162C11.4363 27.1526 11.445 27.1483 11.4534 27.151C11.5249 27.1739 11.6286 27.2112 11.7615 27.2589C12.7163 27.6014 15.1756 28.4836 17.987 28.5002C19.0045 28.4994 20.3799 28.3194 21.6291 28.0587C22.8818 27.7973 24.0039 27.4556 24.5105 27.1342C24.519 27.1288 24.5291 27.1315 24.5353 27.1409ZM17.9792 28.5564C17.9796 28.5564 17.98 28.5564 17.9805 28.5564C17.9827 28.5564 17.9849 28.5564 17.9871 28.5564M17.9792 28.5564C15.1647 28.5382 12.703 27.6549 11.7503 27.3131C11.6468 27.2759 11.5611 27.2452 11.4947 27.2226L11.8842 28.0363C13.852 28.9643 15.9282 29.4167 18.0152 29.3721C20.4525 29.2784 22.5763 29.0256 24.069 28.0565L24.4639 27.2242C23.9249 27.5378 22.8375 27.8635 21.6356 28.1143C20.3855 28.3751 19.0081 28.5556 17.9878 28.5564" fill="black"/>
<path fill-rule="evenodd" clip-rule="evenodd" d="M24.2508 27.8715C24.1868 27.998 24.1211 28.123 24.0539 28.2465C23.3508 28.584 22.2258 28.9402 21.7617 29.034C20.5165 29.3434 19.2526 29.5003 17.9859 29.5027C15.1453 29.4465 12.818 28.7059 11.7281 28.0684L11.6367 27.8715L11.6508 27.834L11.7984 27.9184C13.7996 28.8013 15.8922 29.26 18 29.2777C19.3219 29.2777 20.6367 29.0809 21.6984 28.8277C23.3297 28.3871 23.9906 28.059 24.1945 27.909L24.2437 27.8715H24.2508ZM24.6234 27.0465C24.5771 27.1563 24.5303 27.2657 24.4828 27.3746C24.1031 27.5621 23.0766 27.9559 21.5789 28.2371C20.5945 28.4152 19.9828 28.5934 18.0211 28.6402C15.7786 28.6102 13.5498 28.1686 11.3977 27.3277L11.3203 27.0934C13.5069 27.8991 15.7601 28.34 18.0281 28.4059C19.8211 28.359 20.5875 28.1809 21.5648 28.0027C23.3086 27.6465 24.1875 27.2527 24.4477 27.1496C24.4478 27.1434 24.4478 27.1371 24.4477 27.1309L24.6305 27.0371L24.6234 27.0465Z" fill="#FFFF00"/>
<path fill-rule="evenodd" clip-rule="evenodd" d="M24.6497 27.0226C24.6551 27.0337 24.654 27.0484 24.6469 27.0578L24.642 27.0644C24.5961 27.1732 24.5496 27.2816 24.5026 27.3895C24.5002 27.3952 24.4963 27.3995 24.4917 27.4018C24.1103 27.5901 23.0822 27.9843 21.5834 28.2657L21.5833 28.2658C21.4309 28.2933 21.2874 28.3209 21.1464 28.348C20.3769 28.496 19.6822 28.6295 18.023 28.6691L18.0224 28.6691C15.778 28.6391 13.5473 28.1971 11.3933 27.3555C11.3873 27.3532 11.3824 27.3474 11.3799 27.3398L11.3026 27.1055C11.2993 27.0955 11.3006 27.084 11.3059 27.0757C11.3112 27.0675 11.3196 27.0641 11.3275 27.067C13.5123 27.8721 15.7636 28.3127 18.0297 28.3785C19.6263 28.3368 20.4078 28.1909 21.2507 28.0336C21.3535 28.0144 21.4572 27.995 21.5634 27.9757C23.1529 27.6509 24.0229 27.2951 24.3605 27.157C24.3861 27.1465 24.4086 27.1373 24.4282 27.1294C24.4288 27.1187 24.434 27.1093 24.4416 27.1054L24.6245 27.0116C24.6338 27.0069 24.6443 27.0114 24.6497 27.0226ZM24.5809 27.0942L24.4703 27.151C24.4703 27.1511 24.4703 27.1512 24.4703 27.1514C24.47 27.1634 24.4639 27.1739 24.4552 27.1774C24.4324 27.1864 24.4049 27.1976 24.3725 27.2109C24.0342 27.3493 23.1621 27.706 21.5696 28.0313L21.5693 28.0314C21.4631 28.0507 21.3594 28.0701 21.2565 28.0893C20.413 28.2467 19.6295 28.393 18.0301 28.4348L18.0292 28.4348L18.0292 28.4348C15.7742 28.3693 13.5339 27.9334 11.3591 27.137L11.4146 27.3052C13.5619 28.1429 15.7853 28.5829 18.0226 28.6129C19.6789 28.5733 20.3715 28.4402 21.1404 28.2923C21.2814 28.2652 21.425 28.2376 21.5776 28.21C23.0648 27.9307 24.0864 27.5405 24.4699 27.3525C24.5073 27.2667 24.5443 27.1806 24.5809 27.0942ZM11.6335 27.8222C11.6385 27.8089 11.6504 27.8031 11.6607 27.8089L11.8075 27.8928C13.8062 28.7746 15.8964 29.2327 18.0016 29.2504C19.3219 29.2504 20.6354 29.0537 21.6961 28.8009C23.3268 28.3604 23.9849 28.033 24.1858 27.8852C24.1858 27.8852 24.1859 27.8852 24.1859 27.8851L24.2348 27.8478C24.238 27.8454 24.2416 27.8441 24.2453 27.8441H24.2523C24.2601 27.8441 24.2673 27.8499 24.271 27.8591C24.2746 27.8683 24.2742 27.8794 24.2698 27.888C24.2057 28.0148 24.1399 28.14 24.0725 28.2638C24.0701 28.2684 24.0666 28.2718 24.0626 28.2737C23.3583 28.6118 22.2324 28.9684 21.7668 29.0625C20.5204 29.3721 19.2554 29.5292 17.9875 29.5316L17.9872 29.5316C15.1446 29.4754 12.8143 28.7343 11.7212 28.0949C11.7173 28.0926 11.714 28.0888 11.7118 28.0839L11.6203 27.8871C11.6165 27.8788 11.6161 27.8684 11.6194 27.8597L11.6335 27.8222ZM11.6626 27.8712L11.7442 28.0469C12.8333 28.6817 15.1543 29.4193 17.9876 29.4754C19.253 29.4729 20.5155 29.3162 21.7594 29.0071L21.7601 29.0069L21.7601 29.007C22.2215 28.9137 23.34 28.5597 24.0422 28.2237C24.0919 28.1323 24.1407 28.0401 24.1887 27.947C23.963 28.1044 23.2917 28.4273 21.7042 28.8561L21.7037 28.8562C20.641 29.1096 19.3249 29.3066 18.0016 29.3066L18.0014 29.3066C15.8914 29.2889 13.7966 28.8297 11.7934 27.9458C11.7928 27.9456 11.7922 27.9453 11.7917 27.945L11.6626 27.8712Z" fill="black"/>
<path fill-rule="evenodd" clip-rule="evenodd" d="M24.6672 22.275C24.6742 25.0875 23.5914 27.6187 22.7266 28.725C21.4492 30.386 19.7434 31.332 17.9594 31.3687C15.8289 31.4156 13.825 29.5688 13.2836 28.7531C12.0724 27.0406 11.3831 24.7879 11.35 22.4344C11.4766 19.3594 12.3836 17.2219 13.6914 15.75C14.9619 14.3555 16.56 13.6021 18.2055 13.6219C19.166 13.684 20.1063 14.0129 20.9659 14.5876C21.8256 15.1624 22.5857 15.9702 23.1977 16.9594C24.0766 18.3844 24.4633 19.9313 24.6672 22.275ZM17.9735 12.6563C19.9404 12.6562 21.8277 13.6929 23.2238 15.5403C24.6199 17.3878 25.4117 19.8962 25.4266 22.5187C25.4266 23.8201 25.2343 25.1086 24.8608 26.3109C24.4874 27.5132 23.9399 28.6056 23.2498 29.5257C22.5597 30.4459 21.7404 31.1758 20.8387 31.6738C19.937 32.1718 18.9705 32.4281 17.9945 32.4281C17.0186 32.4281 16.0521 32.1718 15.1504 31.6738C14.2487 31.1758 13.4294 30.4459 12.7393 29.5257C12.0492 28.6056 11.5017 27.5132 11.1282 26.3109C10.7547 25.1086 10.5625 23.8201 10.5625 22.5187C10.5555 17.0812 13.8883 12.6563 17.9735 12.6563Z" fill="#FFFF00"/>
<path fill-rule="evenodd" clip-rule="evenodd" d="M23.2105 15.5601C21.8183 13.7179 19.9364 12.6841 17.975 12.6842C13.9014 12.6842 10.5782 17.0967 10.5852 22.5185L10.5852 22.5186C10.5852 23.8162 10.7769 25.1011 11.1493 26.2999C11.5217 27.4988 12.0676 28.5881 12.7558 29.5057C13.4439 30.4232 14.2609 31.1511 15.1601 31.6476C16.0592 32.1442 17.0229 32.3998 17.9961 32.3998C18.9693 32.3998 19.933 32.1442 20.8321 31.6476C21.7313 31.1511 22.5483 30.4232 23.2364 29.5057C23.9246 28.5881 24.4705 27.4988 24.8429 26.2999C25.2154 25.1011 25.407 23.8162 25.407 22.5186C25.3922 19.9035 24.6027 17.4023 23.2105 15.5601ZM17.975 12.6279C19.9476 12.6279 21.8402 13.6675 23.2402 15.5202C24.6403 17.3728 25.4343 19.8883 25.4492 22.5183L25.4492 22.5186C25.4492 23.8236 25.2564 25.1158 24.8819 26.3215C24.5073 27.5271 23.9583 28.6226 23.2663 29.5454C22.5742 30.4682 21.7525 31.2002 20.8483 31.6996C19.944 32.199 18.9749 32.4561 17.9961 32.4561C17.0173 32.4561 16.0482 32.199 15.1439 31.6996C14.2397 31.2002 13.418 30.4682 12.7259 29.5454C12.0339 28.6226 11.4849 27.5271 11.1103 26.3215C10.7358 25.1158 10.543 23.8236 10.543 22.5186C10.5359 17.0654 13.8783 12.6279 17.975 12.6279ZM18.2064 13.6498C16.5661 13.6302 14.973 14.3813 13.7065 15.7714C12.4035 17.238 11.4991 19.3678 11.3727 22.4347C11.4058 24.7808 12.0931 27.0264 13.3005 28.7336L13.301 28.7343L13.301 28.7343C13.5694 29.1387 14.2033 29.8023 15.0366 30.359C15.8697 30.9156 16.8998 31.3638 17.9606 31.3404H17.9606C19.7393 31.3038 21.4399 30.3607 22.7134 28.7047L22.7135 28.7045C23.5745 27.6032 24.6543 25.0798 24.6477 22.2765C24.444 19.9366 24.0581 18.3961 23.183 16.9771C22.5729 15.9909 21.8151 15.1856 20.958 14.6126C20.1011 14.0397 19.1639 13.7118 18.2064 13.6498ZM24.6688 22.2748L24.6897 22.2716C24.4855 19.9248 24.0979 18.372 23.2155 16.9413L23.2155 16.9413C22.6017 15.9491 21.8392 15.1388 20.977 14.5623C20.1147 13.9858 19.1716 13.6559 18.2081 13.5936L18.2081 13.5936L18.2072 13.5936C16.5568 13.5737 14.9538 14.3294 13.6796 15.7281L13.6794 15.7283C12.367 17.2053 11.4574 19.3501 11.3305 22.4326C11.3305 22.4333 11.3305 22.434 11.3305 22.4347C11.3636 24.795 12.055 27.0543 13.2696 28.7719C13.5427 29.1832 14.1814 29.8506 15.0177 30.4093C15.8546 30.9684 16.8916 31.4202 17.9613 31.3967C19.7507 31.3599 21.4616 30.4111 22.7427 28.7451C22.7427 28.7451 22.7427 28.7451 22.7427 28.7451L22.7281 28.7248L22.7429 28.7449C22.7428 28.745 22.7428 28.745 22.7427 28.7451" fill="black"/>
<path fill-rule="evenodd" clip-rule="evenodd" d="M17.9961 12.6094C22.0883 12.6094 25.4211 17.0531 25.4211 22.5094C25.4211 27.9656 22.0883 32.4094 18.0031 32.4094C13.918 32.4094 10.5781 27.9656 10.5781 22.5094C10.5781 17.0531 13.9109 12.6094 18.0031 12.6094H17.9961ZM10.7328 22.5C10.7328 27.825 14.0164 32.1844 17.9961 32.1844C21.9758 32.1844 25.2594 27.825 25.2594 22.5C25.2594 17.175 21.9758 12.8156 17.9961 12.8156C14.0164 12.8156 10.7328 17.175 10.7328 22.5Z" fill="#FFFF00"/>
<path fill-rule="evenodd" clip-rule="evenodd" d="M17.9973 12.6373C13.9183 12.6399 10.5969 17.07 10.5969 22.5092C10.5969 27.9499 13.9273 32.3811 18.0008 32.3811C22.0743 32.3811 25.3977 27.9499 25.3977 22.5092C25.3977 17.07 22.0762 12.6399 17.9973 12.6373ZM18.0012 12.5811C22.1016 12.5864 25.4398 17.0407 25.4398 22.5092C25.4398 27.9809 22.0976 32.4373 18.0008 32.4373C13.904 32.4373 10.5547 27.981 10.5547 22.5092C10.5547 17.0407 13.8929 12.5864 17.9934 12.5811C17.9935 12.5811 17.9936 12.5811 17.9938 12.5811H18.0008C18.0009 12.5811 18.001 12.5811 18.0012 12.5811ZM10.7094 22.4998C10.7094 17.1592 14.0024 12.7873 17.9938 12.7873C21.9851 12.7873 25.2781 17.1592 25.2781 22.4998C25.2781 27.8404 21.9851 32.2123 17.9938 32.2123C14.0024 32.2123 10.7094 27.8404 10.7094 22.4998ZM17.9938 12.8436C14.0257 12.8436 10.7516 17.1904 10.7516 22.4998C10.7516 27.8092 14.0257 32.1561 17.9938 32.1561C21.9618 32.1561 25.2359 27.8092 25.2359 22.4998C25.2359 17.1904 21.9618 12.8436 17.9938 12.8436Z" fill="black"/>
<path fill-rule="evenodd" clip-rule="evenodd" d="M18.0023 13.4346C19.8039 13.442 21.5301 14.3995 22.804 16.098C24.0779 17.7966 24.796 20.0981 24.8016 22.5002C24.796 24.9031 24.0781 27.2057 22.8044 28.9057C21.5307 30.6057 19.8045 31.5653 18.0023 31.5752C14.2758 31.5752 11.2031 27.4877 11.2031 22.5002C11.2105 20.0989 11.9292 17.7987 13.2027 16.1007C14.4762 14.4027 16.2014 13.4444 18.0023 13.4346ZM11.3648 22.5002C11.3648 27.3752 14.3602 31.3502 18.0023 31.3502C21.6445 31.3502 24.6398 27.3658 24.6398 22.5002C24.6398 17.6252 21.6445 13.6502 18.0023 13.6502C16.2442 13.6601 14.5603 14.5956 13.3171 16.2532C12.0739 17.9108 11.3722 20.1561 11.3648 22.5002Z" fill="#FFFF00"/>
<path fill-rule="evenodd" clip-rule="evenodd" d="M22.7867 16.1177C21.5168 14.4245 19.796 13.4699 18 13.4625C16.2046 13.4724 14.4849 14.4277 13.2153 16.1204C11.9458 17.8132 11.2293 20.1062 11.2219 22.5001C11.2219 27.472 14.2851 31.5468 17.9999 31.5469C19.7965 31.537 21.5174 30.5804 22.7871 28.8856C24.0569 27.1909 24.7726 24.8955 24.7781 22.5C24.7726 20.1054 24.0567 17.811 22.7867 16.1177ZM18 13.4344L18.0001 13.4062C19.8072 13.4137 21.5387 14.3742 22.8165 16.0779C24.0944 17.7817 24.8147 20.0904 24.8203 22.4999V22.5001C24.8147 24.9104 24.0946 27.2201 22.817 28.9254C21.5394 30.6307 19.8079 31.5932 18.0001 31.6031H18C14.2618 31.6031 11.1797 27.503 11.1797 22.5L11.1797 22.4999C11.1871 20.0912 11.9081 17.7839 13.1855 16.0807C14.4629 14.3774 16.1934 13.4162 17.9999 13.4063L18 13.4344ZM18 13.6219C21.6538 13.6219 24.6586 17.6094 24.6586 22.5C24.6586 27.3812 21.6538 31.3781 18 31.3781C14.3462 31.3781 11.3414 27.3906 11.3414 22.5H11.3625L11.3414 22.4999C11.3488 20.1483 12.0527 17.8959 13.2998 16.2331C14.5469 14.5703 16.2363 13.6318 17.9999 13.6219L18 13.6219ZM11.3836 22.5001C11.3836 27.3595 14.3694 31.3219 18 31.3219C21.6306 31.3219 24.6164 27.3501 24.6164 22.5C24.6164 17.6406 21.6306 13.6782 18 13.6781C16.2475 13.688 14.5689 14.6206 13.3297 16.2729C12.0904 17.9252 11.391 20.1634 11.3836 22.5001Z" fill="black"/>
<path fill-rule="evenodd" clip-rule="evenodd" d="M18.3039 12.5625H17.6641V32.4656H18.2969L18.3039 12.5625Z" fill="#FFFF00"/>
<path fill-rule="evenodd" clip-rule="evenodd" d="M17.6445 12.5623C17.6445 12.5468 17.654 12.5342 17.6656 12.5342H18.3055C18.3111 12.5342 18.3164 12.5371 18.3204 12.5424C18.3243 12.5477 18.3266 12.5549 18.3266 12.5623L18.3195 32.4654C18.3195 32.481 18.3101 32.4936 18.2984 32.4936H17.6656C17.654 32.4936 17.6445 32.481 17.6445 32.4654V12.5623ZM17.6867 12.5904V32.4373H18.2774L18.2844 12.5904H17.6867Z" fill="black"/>
<path fill-rule="evenodd" clip-rule="evenodd" d="M18.2344 12.4502H18.3961V32.5783H18.2414V12.4502H18.2344ZM17.6016 12.4502H17.7703V32.5783H17.6086V12.4502H17.6016Z" fill="#FFFF00"/>
<path fill-rule="evenodd" clip-rule="evenodd" d="M17.5781 12.45C17.5781 12.4345 17.5876 12.4219 17.5992 12.4219H17.768C17.7796 12.4219 17.7891 12.4345 17.7891 12.45V32.5781C17.7891 32.5937 17.7796 32.6063 17.768 32.6063H17.6062C17.5946 32.6063 17.5852 32.5937 17.5852 32.5781V12.471C17.5808 12.4658 17.5781 12.4583 17.5781 12.45ZM17.6273 12.4781V32.55H17.7469V12.4781H17.6273ZM18.2109 12.45C18.2109 12.4345 18.2204 12.4219 18.232 12.4219H18.3938C18.4054 12.4219 18.4148 12.4345 18.4148 12.45V32.5781C18.4148 32.5937 18.4054 32.6063 18.3938 32.6063H18.2391C18.2274 32.6063 18.218 32.5937 18.218 32.5781V12.471C18.2137 12.4658 18.2109 12.4583 18.2109 12.45ZM18.2602 12.4781V32.55H18.3727V12.4781H18.2602Z" fill="black"/>
<path fill-rule="evenodd" clip-rule="evenodd" d="M25.4281 22.8937V22.1625L24.9781 21.6L22.4258 20.7L18.7555 20.2031L14.3258 20.5031L11.1758 21.4969L10.543 22.125V22.8656L12.1531 21.9L15.9781 21.1031H19.6555L22.3555 21.4969L24.2258 22.0969L25.4281 22.8937Z" fill="#FFFF00"/>
<path fill-rule="evenodd" clip-rule="evenodd" d="M18.7521 20.1748C18.7531 20.1748 18.7542 20.1748 18.7553 20.1749L22.4256 20.6718C22.4267 20.672 22.4278 20.6722 22.4288 20.6726L24.9812 21.5726C24.9846 21.5738 24.9877 21.5761 24.9902 21.5793L25.4402 22.1418C25.4445 22.1471 25.4469 22.1545 25.4469 22.1623V22.8936C25.4469 22.9033 25.4431 22.9123 25.4369 22.9175C25.4307 22.9226 25.4229 22.9231 25.4164 22.9187L24.2162 22.1233L22.3495 21.5244L19.652 21.1311H15.9774L12.1568 21.927L10.5493 22.8911C10.5428 22.895 10.5352 22.8942 10.5292 22.889C10.5232 22.8839 10.5195 22.875 10.5195 22.8654V22.1248C10.5195 22.1159 10.5227 22.1076 10.528 22.1022L11.1608 21.4741C11.1631 21.4718 11.1658 21.4702 11.1686 21.4693L14.3186 20.4756C14.3198 20.4752 14.3211 20.4749 14.3224 20.4748L18.7521 20.1748ZM14.3264 20.5309L11.1825 21.5227L10.5617 22.1389V22.8219L12.1421 21.8742C12.1438 21.8731 12.1457 21.8724 12.1475 21.872L15.9725 21.0751C15.9736 21.0749 15.9747 21.0748 15.9758 21.0748H19.6531C19.6534 21.0748 19.6537 21.0748 19.654 21.0748C19.6545 21.0749 19.655 21.0749 19.6554 21.075L22.3554 21.4687C22.3563 21.4689 22.3572 21.4691 22.3581 21.4693L24.2284 22.0693C24.2299 22.0698 24.2314 22.0706 24.2328 22.0715L25.4047 22.8482V22.1745L24.9652 21.6252L22.4197 20.7276L18.7526 20.2311L14.3264 20.5309Z" fill="black"/>
<path fill-rule="evenodd" clip-rule="evenodd" d="M18 20.9817C19.7508 20.9817 21.4453 21.1974 22.8023 21.5442C24.1945 21.9192 25.1719 22.388 25.5094 22.9036V23.1661C25.1016 22.5099 23.7867 22.0411 22.7672 21.7599C21.4312 21.4224 19.7437 21.1974 17.993 21.1974C16.1578 21.1974 14.4422 21.4411 13.1203 21.7786C12.0656 22.0599 10.6523 22.6224 10.4766 23.1661V22.8942C10.568 22.5192 11.6227 21.9567 13.0992 21.5536C14.4281 21.2067 16.1437 20.9817 17.993 20.9817H18ZM18 20.1286C19.6102 20.1243 21.2174 20.3126 22.8023 20.6911C24.1945 21.0661 25.1719 21.5349 25.5094 22.0599V22.313C25.1016 21.6661 23.7867 21.188 22.7672 20.9161C21.4312 20.5692 19.7437 20.3536 17.993 20.3536C16.3611 20.3467 14.7323 20.5413 13.1273 20.9349C12.1078 21.188 10.6383 21.7692 10.4766 22.313V22.0505C10.575 21.6755 11.6438 21.0849 13.0992 20.7099C14.4352 20.363 16.1438 20.1286 18 20.1286ZM17.9578 15.7974C20.7211 15.7786 23.1328 16.313 24.2367 17.063L24.6375 18.0005C23.6812 17.3067 21.0797 16.5942 17.9648 16.688C15.4266 16.7161 12.7125 17.063 11.3555 18.038L11.8336 16.9692C12.9516 16.1911 15.5812 15.7974 17.9578 15.7974Z" fill="#FFFF00"/>
<path fill-rule="evenodd" clip-rule="evenodd" d="M21.7179 16.1695C20.6328 15.9447 19.3401 15.8159 17.9595 15.8253C17.9594 15.8253 17.9594 15.8253 17.9594 15.8253M21.7179 16.1695C22.7997 16.3936 23.6738 16.7127 24.2231 17.084L21.7179 16.1695ZM24.2231 17.084L24.585 17.9307C24.0909 17.5964 23.2259 17.2634 22.1156 17.021C20.9551 16.7676 19.5247 16.6128 17.9661 16.6597C16.6964 16.6737 15.3824 16.7675 14.2159 16.9798C13.0871 17.1853 12.0944 17.502 11.4135 17.9665L11.8502 16.9903C12.4063 16.6055 13.3376 16.3142 14.4281 16.1192C15.5212 15.9237 16.7718 15.8253 17.9593 15.8253M17.9593 15.769C16.7703 15.769 15.5178 15.8675 14.4225 16.0634C13.3279 16.2592 12.3879 16.5526 11.8254 16.9441C11.8219 16.9465 11.819 16.9502 11.817 16.9546L11.3389 18.0234C11.3341 18.0342 11.3352 18.0481 11.3418 18.0572C11.3484 18.0664 11.3587 18.0685 11.367 18.0625C12.0421 17.5775 13.0568 17.2476 14.2216 17.0356C15.3859 16.8237 16.698 16.73 17.9666 16.7159L17.9669 16.7159C19.523 16.6691 20.9508 16.8236 22.1088 17.0765C23.2674 17.3295 24.154 17.6804 24.629 18.025C24.6373 18.031 24.6475 18.0289 24.6541 18.02C24.6607 18.011 24.6621 17.9973 24.6574 17.9864L24.2566 17.0489C24.2546 17.0441 24.2515 17.0402 24.2479 17.0377C23.6929 16.6607 22.8114 16.3391 21.7243 16.1139C20.6368 15.8886 19.3419 15.7597 17.9593 15.769ZM22.8 20.7185C21.2163 20.3403 19.6104 20.1522 18.0016 20.1565L18.0016 20.1284V20.1565C16.1466 20.1565 14.4393 20.3908 13.1048 20.7373L13.1048 20.7373C12.378 20.9245 11.7482 21.1655 11.2883 21.4062C11.0582 21.5265 10.8712 21.6465 10.7359 21.7592C10.6683 21.8156 10.6141 21.8697 10.5739 21.9207C10.535 21.9702 10.5105 22.0154 10.4992 22.0552V22.2064C10.5214 22.166 10.5495 22.1261 10.5826 22.0868C10.6417 22.0167 10.7177 21.9473 10.8067 21.8793C10.9846 21.7432 11.2167 21.611 11.4747 21.4882C11.991 21.2427 12.6144 21.0338 13.125 20.907L13.1251 20.907C14.7313 20.5131 16.3614 20.3184 17.9946 20.3253C19.7465 20.3253 21.4354 20.541 22.7728 20.8883L22.7729 20.8883C23.2831 21.0244 23.8678 21.2122 24.3761 21.4471C24.6303 21.5646 24.8659 21.6941 25.0637 21.835C25.2392 21.96 25.386 22.0948 25.4898 22.2394V22.0701C25.3233 21.8162 25.0008 21.5724 24.5455 21.3454C24.0865 21.1164 23.4953 20.9059 22.8 20.7185ZM18.0015 20.1003C19.613 20.096 21.2214 20.2844 22.8076 20.6632L22.8081 20.6633C23.5048 20.851 24.0983 21.0623 24.5603 21.2927C25.0214 21.5227 25.3545 21.7731 25.527 22.0414C25.5302 22.0465 25.532 22.0529 25.532 22.0597V22.3128C25.532 22.3246 25.5265 22.3352 25.5182 22.3392C25.5098 22.3433 25.5005 22.3399 25.4948 22.3309C25.3953 22.1731 25.2394 22.024 25.0439 21.8847C24.8486 21.7455 24.6153 21.6172 24.3623 21.5003C23.8565 21.2665 23.2739 21.0793 22.7646 20.9435C21.4302 20.597 19.7441 20.3815 17.9945 20.3815H17.9945C16.3639 20.3747 14.7364 20.5691 13.1327 20.9623C12.6238 21.0887 12.0027 21.2969 11.4889 21.5412C11.232 21.6634 11.0026 21.7943 10.8277 21.9281C10.7402 21.9949 10.6669 22.0621 10.6107 22.1288C10.5543 22.1957 10.5163 22.2608 10.4977 22.3232C10.494 22.3357 10.4841 22.3429 10.4742 22.3404C10.4642 22.3379 10.457 22.3263 10.457 22.3128V22.0503C10.457 22.0471 10.4574 22.044 10.4582 22.041C10.4721 21.9882 10.5022 21.9343 10.5448 21.88C10.5877 21.8255 10.6445 21.7691 10.7136 21.7115C10.8519 21.5963 11.0415 21.4748 11.2729 21.3538C11.7357 21.1116 12.3681 20.8698 13.0968 20.682C14.4341 20.3348 16.1441 20.1003 18.0015 20.1003ZM17.9945 21.0097C16.1465 21.0097 14.4323 21.2345 13.1049 21.581C12.3675 21.7823 11.7359 22.0233 11.2777 22.2605C11.0485 22.3791 10.8632 22.4964 10.73 22.6069C10.6633 22.6622 10.6102 22.7153 10.5711 22.7655C10.5332 22.8143 10.5097 22.859 10.4992 22.8987V23.0628C10.5617 22.9501 10.6695 22.8403 10.8065 22.7349C10.9817 22.6001 11.2091 22.4694 11.4633 22.3473C11.9716 22.1029 12.5897 21.8916 13.1177 21.7508L13.1179 21.7508C14.4411 21.4129 16.1581 21.169 17.9945 21.169C19.7466 21.169 21.4354 21.3942 22.7727 21.732L22.773 21.7321C23.2832 21.8728 23.8678 22.0606 24.3761 22.2956C24.6303 22.4131 24.8659 22.5425 25.0638 22.6841C25.2392 22.8096 25.386 22.9453 25.4898 23.0918V22.914C25.3232 22.6646 25.0008 22.4232 24.5456 22.1973C24.0865 21.9695 23.4953 21.759 22.7998 21.5716C21.4443 21.2251 19.7511 21.0097 18.0016 21.0097H17.9945ZM13.0967 21.5258C14.4271 21.1785 16.1441 20.9534 17.9945 20.9534H18.0016C19.7535 20.9534 21.4494 21.1692 22.8079 21.5164L22.8081 21.5165C23.5048 21.7041 24.0983 21.9154 24.5603 22.1446C25.0214 22.3734 25.3544 22.6215 25.5268 22.8849C25.5302 22.89 25.532 22.8966 25.532 22.9034V23.1659C25.532 23.1778 25.5265 23.1883 25.5181 23.1924C25.5097 23.1964 25.5004 23.193 25.4947 23.1839C25.3952 23.0238 25.2393 22.8735 25.0438 22.7337C24.8486 22.594 24.6153 22.4656 24.3623 22.3487C23.8565 22.115 23.274 21.9278 22.7646 21.7872C21.4301 21.4501 19.744 21.2253 17.9945 21.2253C16.1607 21.2253 14.4464 21.4689 13.1259 21.806C12.5993 21.9465 11.9834 22.157 11.4776 22.4002C11.2246 22.5218 10.9998 22.6512 10.8276 22.7836C10.6543 22.9169 10.5385 23.0502 10.4975 23.177C10.4935 23.1893 10.4837 23.1961 10.4739 23.1935C10.4641 23.1908 10.457 23.1793 10.457 23.1659V22.894C10.457 22.8911 10.4574 22.8881 10.4581 22.8853C10.471 22.8323 10.5002 22.7787 10.5419 22.7251C10.5837 22.6712 10.6395 22.6157 10.7077 22.5592C10.844 22.4461 11.0319 22.3273 11.2624 22.208C11.7235 21.9694 12.3575 21.7276 13.0965 21.5259L13.0967 21.5258Z" fill="black"/>
<path fill-rule="evenodd" clip-rule="evenodd" d="M18.0023 16.566C19.4451 16.5336 20.8873 16.6685 22.3125 16.9692C23.4375 17.2504 24.5133 17.6629 24.668 17.8879L24.7875 18.1692C24.4148 17.8504 23.4797 17.4848 22.2844 17.1848C21.0891 16.8848 19.5633 16.7817 17.9953 16.791C16.2164 16.7817 14.8313 16.9035 13.65 17.1848C12.8357 17.337 12.0451 17.663 11.3086 18.1504L11.4281 17.8598C11.85 17.5785 12.5039 17.2317 13.6148 16.9598C14.8453 16.6598 16.2445 16.5754 18.0023 16.566ZM18.0023 15.7223C19.507 15.7035 20.9977 15.816 22.1578 16.0973C22.9095 16.2461 23.6369 16.563 24.3094 17.0348L24.4852 17.4098C24.1898 16.9692 23.0789 16.5473 22.0875 16.3223C20.9344 16.0504 19.507 15.9473 18.0023 15.9285C16.6017 15.9119 15.2024 16.0499 13.8187 16.341C13.0953 16.4755 12.3926 16.7635 11.7375 17.1942L11.8922 16.8848C12.3 16.6035 12.9609 16.341 13.7906 16.1254C15.1833 15.8304 16.5922 15.6924 18.0023 15.7129V15.7223ZM21.6867 26.6254C20.468 26.3441 19.2319 26.2185 17.9953 26.2504C13.3898 26.3254 11.9062 27.516 11.7234 27.8723L11.3719 27.1223C12.5531 25.9973 15.0562 25.3598 18.0234 25.416C19.5633 25.4535 20.8922 25.5942 22.0031 25.8848L21.6867 26.6348" fill="#FFFF00"/>
<path fill-rule="evenodd" clip-rule="evenodd" d="M13.792 16.1529C12.9663 16.3675 12.3098 16.6282 11.9044 16.9063L11.7958 17.1234C12.4329 16.7165 13.1134 16.4431 13.8133 16.313C15.198 16.0216 16.5984 15.8836 18.0002 15.9002L18.0002 15.9002C19.5052 15.919 20.9339 16.0221 22.0888 16.2944C22.5852 16.4071 23.1118 16.5691 23.5515 16.7582C23.7714 16.8528 23.9699 16.9544 24.1323 17.0602C24.2316 17.1249 24.3181 17.1917 24.3878 17.26L24.2922 17.056C23.6232 16.5876 22.8998 16.2729 22.1524 16.1249L22.1517 16.1248L22.1517 16.1248C20.9934 15.844 19.5042 15.7315 18.0002 15.7502C17.9946 15.7503 17.9892 15.7474 17.9852 15.7421C17.9848 15.7416 17.9845 15.7411 17.9841 15.7406C16.5806 15.7214 15.1782 15.8593 13.792 16.1529ZM18.0156 15.6938C18.0118 15.6882 18.0063 15.6847 18.0002 15.6846C16.5889 15.6641 15.1789 15.8022 13.785 16.0975L13.785 16.0974L13.7842 16.0976C12.954 16.3134 12.2907 16.5765 11.8802 16.8596C11.877 16.8618 11.8743 16.865 11.8723 16.869L11.7176 17.1784C11.7123 17.189 11.713 17.203 11.7193 17.2125C11.7256 17.2221 11.7359 17.2248 11.7445 17.2192C12.3976 16.7898 13.0981 16.5027 13.8193 16.3687L13.8193 16.3687L13.8197 16.3686C15.2022 16.0777 16.6003 15.9398 17.9998 15.9565C19.5041 15.9752 20.9301 16.0783 22.0815 16.3498L22.0816 16.3498C22.5766 16.4622 23.1011 16.6236 23.5385 16.8118C23.7573 16.9058 23.9538 17.0065 24.1137 17.1107C24.2742 17.2152 24.396 17.3223 24.4671 17.4283C24.4744 17.4392 24.4867 17.4409 24.4955 17.4321C24.5042 17.4233 24.5065 17.4071 24.5007 17.3947L24.3249 17.0197C24.3229 17.0155 24.3202 17.012 24.3169 17.0097C23.6424 16.5366 22.9128 16.2186 22.1589 16.0694C21.001 15.7887 19.5155 15.676 18.0156 15.6938ZM22.3066 16.9967C20.8826 16.6963 19.4418 16.5615 18.0004 16.594L18 16.5659L18.0001 16.594C16.2425 16.6034 14.8448 16.6877 13.6163 16.9873C12.5124 17.2574 11.8613 17.6015 11.4411 17.8808L11.3568 18.0858C12.0781 17.6188 12.85 17.3053 13.6443 17.1568C14.8272 16.8752 16.2136 16.7534 17.993 16.7627C19.5614 16.7534 21.0887 16.8565 22.2859 17.157C22.8841 17.3071 23.4174 17.4737 23.848 17.6428C24.2297 17.7926 24.5322 17.945 24.7275 18.0904L24.6485 17.9045C24.6313 17.8804 24.6006 17.8519 24.5561 17.8199C24.5107 17.7873 24.4524 17.752 24.3827 17.7149C24.2434 17.6407 24.06 17.5595 23.8459 17.4765C23.4178 17.3104 22.8684 17.1372 22.3066 16.9967ZM17.9998 16.5377C16.2418 16.5471 14.8411 16.6315 13.6087 16.9319L13.6087 16.9319C12.4959 17.2043 11.8401 17.5519 11.4163 17.8344C11.4125 17.837 11.4093 17.8411 11.4073 17.8461L11.2878 18.1367C11.2833 18.1475 11.2847 18.1608 11.291 18.1697C11.2974 18.1786 11.3074 18.1809 11.3156 18.1754C12.0501 17.6894 12.8385 17.3642 13.6506 17.2125L13.6506 17.2125L13.6514 17.2123C14.8309 16.9315 16.2147 16.8096 17.9929 16.819H17.9931C19.5606 16.8096 21.0848 16.9127 22.2781 17.2122C22.8753 17.3621 23.4072 17.5283 23.8361 17.6967C24.2657 17.8654 24.5901 18.0356 24.7738 18.1927C24.7819 18.1996 24.7926 18.1983 24.7997 18.1894C24.8067 18.1805 24.8083 18.1664 24.8035 18.1551L24.684 17.8739C24.6832 17.872 24.6823 17.8703 24.6812 17.8687C24.6594 17.837 24.6231 17.8042 24.5762 17.7704C24.5288 17.7364 24.4689 17.7003 24.3984 17.6627C24.2573 17.5875 24.0724 17.5058 23.8577 17.4224C23.428 17.2557 22.8771 17.0821 22.314 16.9413L22.314 16.9413L22.3135 16.9412C20.887 16.6403 19.4437 16.5053 17.9998 16.5377ZM11.398 27.1297L11.7229 27.8229C11.7828 27.7291 11.9097 27.5992 12.1209 27.4539C12.3592 27.29 12.7072 27.1047 13.193 26.9286C14.1646 26.5762 15.6887 26.2596 17.9927 26.2221C17.9927 26.2221 17.9927 26.2221 17.9927 26.2221L17.993 26.2502L17.9926 26.2221C17.9926 26.2221 17.9926 26.2221 17.9927 26.2221C19.2268 26.1903 20.4605 26.3151 21.6769 26.595L21.666 26.6208C21.6621 26.6302 21.6625 26.6412 21.6666 26.6497C20.4538 26.3709 19.2238 26.2466 17.9934 26.2783L17.9932 26.2784C15.6917 26.3158 14.1713 26.6321 13.2041 26.9828C12.7204 27.1582 12.3754 27.3421 12.1402 27.5039C11.9041 27.6664 11.7811 27.805 11.7385 27.888C11.7345 27.8958 11.7278 27.9004 11.7207 27.9002C11.7135 27.9 11.707 27.8951 11.7032 27.887L11.3516 27.137C11.3457 27.1244 11.3482 27.1079 11.3573 27.0992C11.9515 26.5333 12.8761 26.0917 14.0216 25.7984C15.1676 25.505 16.5367 25.3596 18.0214 25.3877L18.0215 25.3877C19.5619 25.4252 20.8922 25.5659 22.0048 25.857C22.0115 25.8587 22.0171 25.8646 22.0199 25.8728C22.0228 25.881 22.0225 25.8905 22.0192 25.8984L21.7028 26.6484C21.697 26.6619 21.6842 26.6667 21.674 26.6591C21.6709 26.6568 21.6684 26.6535 21.6666 26.6497M21.9681 25.9048L21.6769 26.595L21.9681 25.9048ZM21.9681 25.9048C21.9776 25.9072 21.9872 25.9097 21.9967 25.9122L22.0008 25.8846L21.9824 25.8708L21.9681 25.9048ZM21.9681 25.9048C20.8647 25.6196 19.5468 25.4811 18.0208 25.444L18.0211 25.4159L18.0207 25.444C18.0207 25.444 18.0208 25.444 18.0208 25.444C16.5383 25.4159 15.1722 25.5611 14.0296 25.8536C12.8969 26.1436 11.9856 26.5779 11.398 27.1297" fill="black"/>
<path fill-rule="evenodd" clip-rule="evenodd" d="M17.975 26.1467C19.2547 26.1748 20.5063 26.2404 21.7227 26.5404L21.6383 26.7467C20.5133 26.4654 19.3039 26.3717 17.982 26.3717C16.2734 26.3529 14.5578 26.5686 13.0602 27.1404C12.5891 27.3186 11.8086 27.7217 11.7242 28.0592L11.6398 27.8717C11.668 27.6654 12.132 27.2529 13.018 26.9342C14.7336 26.2779 16.3367 26.1561 17.975 26.1467ZM18.0312 25.2842C19.3819 25.2824 20.7301 25.4392 22.0602 25.7529L21.9688 25.9686C20.67 25.6509 19.3517 25.4971 18.0312 25.5092C16.3297 25.5092 14.5227 25.6779 12.8773 26.3154C12.35 26.5217 11.4289 26.9717 11.4008 27.3186L11.3164 27.1123C11.3305 26.7936 12.125 26.3717 12.8422 26.0998C14.4945 25.4529 16.3086 25.2936 18.0312 25.2842Z" fill="#FFFF00"/>
<path fill-rule="evenodd" clip-rule="evenodd" d="M22.0248 25.7735C20.7055 25.4647 19.3685 25.3103 18.029 25.3121C16.307 25.3215 14.4953 25.4809 12.8458 26.1266L12.8456 26.1267C12.4876 26.2624 12.1108 26.4354 11.8222 26.6138C11.6777 26.7031 11.5562 26.7932 11.4703 26.8801C11.4273 26.9235 11.3939 26.9655 11.371 27.0054C11.3498 27.0422 11.3384 27.0758 11.3356 27.1061L11.3928 27.2458C11.4023 27.2187 11.4158 27.1921 11.4322 27.1661C11.4626 27.1177 11.5045 27.0693 11.5546 27.0214C11.6547 26.9257 11.7904 26.8296 11.9408 26.7385C12.2417 26.5561 12.6048 26.3916 12.8691 26.2883L12.8691 26.2882C14.5172 25.6497 16.3265 25.4809 18.0288 25.4809C19.3455 25.4688 20.6602 25.6216 21.9554 25.9371L22.0248 25.7735ZM18.0289 25.284L18.0289 25.2559C19.3808 25.254 20.7302 25.411 22.0615 25.7251C22.0682 25.7266 22.074 25.7325 22.0769 25.7408C22.0798 25.749 22.0795 25.7586 22.0762 25.7666L21.9848 25.9822C21.9803 25.9927 21.9714 25.9982 21.9626 25.996C20.6651 25.6787 19.3481 25.5251 18.0291 25.5371L18.0289 25.5371C16.3282 25.5371 14.5234 25.7058 12.8809 26.3423C12.6178 26.4452 12.2567 26.6088 11.9582 26.7897C11.8089 26.8802 11.6761 26.9745 11.5791 27.0672C11.5307 27.1135 11.4919 27.1588 11.4645 27.2022C11.437 27.2459 11.4223 27.2857 11.4194 27.3214C11.4184 27.3336 11.4116 27.3436 11.4025 27.346C11.3935 27.3484 11.3843 27.3426 11.3799 27.3318L11.2955 27.1256C11.2937 27.121 11.2928 27.1157 11.293 27.1105C11.2951 27.063 11.3115 27.0163 11.3375 26.9711C11.3635 26.9259 11.4001 26.8805 11.4448 26.8353C11.5342 26.7449 11.6588 26.6528 11.8044 26.5628C12.0958 26.3827 12.4748 26.2088 12.834 26.0726C14.4892 25.4246 16.3055 25.2653 18.0288 25.2559L18.0289 25.284ZM17.973 26.1184V26.1184C19.2528 26.1465 20.5059 26.2121 21.7241 26.5126C21.7308 26.5142 21.7365 26.52 21.7394 26.5282C21.7423 26.5363 21.7421 26.5458 21.7388 26.5537L21.6545 26.76C21.6501 26.7707 21.641 26.7764 21.6321 26.7741C20.5088 26.4933 19.3009 26.3996 17.9797 26.3996L17.9795 26.3996C16.2722 26.3809 14.5587 26.5964 13.0636 27.1673L13.0636 27.1673C12.8289 27.2561 12.5171 27.4009 12.2538 27.5653C12.1221 27.6476 12.0032 27.7343 11.9122 27.821C11.8203 27.9086 11.7607 27.9926 11.7419 28.0679C11.7393 28.0783 11.7324 28.0858 11.7242 28.087C11.716 28.0882 11.708 28.0829 11.7038 28.0735L11.6194 27.886C11.6168 27.8801 11.6158 27.8732 11.6167 27.8665C11.6251 27.805 11.6642 27.7352 11.7261 27.6618C11.789 27.5873 11.8787 27.5053 11.9947 27.4203C12.2268 27.2502 12.5659 27.0667 13.01 26.9069C14.7283 26.2496 16.3336 26.1278 17.9726 26.1184L17.973 26.1184ZM17.9725 26.1746C16.335 26.184 14.7342 26.3059 13.0214 26.961L13.0211 26.9612L13.0211 26.9612C12.5793 27.1201 12.2435 27.3022 12.015 27.4696C11.9008 27.5533 11.8139 27.633 11.7541 27.7038C11.698 27.7703 11.6686 27.8258 11.66 27.8667L11.7193 27.9986C11.7516 27.9226 11.8119 27.8475 11.8877 27.7752C11.9816 27.6858 12.103 27.5974 12.2359 27.5144C12.5017 27.3484 12.8157 27.2026 13.052 27.1132C14.5522 26.5404 16.27 26.3246 17.9798 26.3434C19.2964 26.3434 20.5023 26.4363 21.6248 26.7151L21.6878 26.5609C20.4823 26.2674 19.2419 26.2025 17.9725 26.1746Z" fill="black"/>
<path fill-rule="evenodd" clip-rule="evenodd" d="M24.5695 27.2346L24.0211 28.3877L22.425 26.5033L18.3047 22.8002L13.65 19.3971L11.2383 18.3002L11.7516 17.0252L11.9273 16.9033L13.425 17.4002L18.375 20.8033L21.2297 23.2033L23.6273 25.5002L24.6047 27.0002L24.5695 27.2346Z" fill="#FFFF00"/>
<path fill-rule="evenodd" clip-rule="evenodd" d="M11.9153 16.8782C11.9198 16.875 11.9251 16.8742 11.9301 16.8758L13.4277 17.3727C13.4293 17.3732 13.4309 17.374 13.4323 17.375L18.3823 20.7781C18.3829 20.7785 18.3834 20.7789 18.3839 20.7793L21.2386 23.1793C21.239 23.1796 21.2393 23.18 21.2397 23.1803L23.6373 25.4772C23.6386 25.4784 23.6399 25.4799 23.6409 25.4816L24.6183 26.9816C24.6226 26.9881 24.6243 26.997 24.623 27.0055L24.5879 27.2399C24.5874 27.2433 24.5864 27.2465 24.585 27.2494L24.0366 28.4026C24.0333 28.4095 24.0278 28.4142 24.0217 28.4153C24.0156 28.4165 24.0094 28.414 24.0048 28.4086L22.4097 26.5254L18.2914 22.824L13.6391 19.4227L11.2291 18.3266C11.2233 18.324 11.2186 18.318 11.2163 18.3103C11.214 18.3026 11.2144 18.294 11.2174 18.2867L11.7306 17.0117C11.7326 17.0067 11.7357 17.0027 11.7395 17L11.9153 16.8782ZM11.9277 16.933L11.7647 17.0459L11.2663 18.2841L13.6545 19.3703C13.6556 19.3708 13.6567 19.3714 13.6578 19.3722L18.3125 22.7753C18.313 22.7758 18.3136 22.7762 18.3141 22.7767L22.4344 26.4798C22.4352 26.4805 22.4359 26.4813 22.4366 26.4821L24.0142 28.3446L24.5473 27.2237L24.5796 27.008L23.6107 25.5209L21.2156 23.2265L18.3622 20.8276L13.4152 17.4265L11.9277 16.933Z" fill="black"/>
<path fill-rule="evenodd" clip-rule="evenodd" d="M11.1539 18.3283C11.5758 17.9533 14.6836 19.7908 17.9461 22.4158C21.1875 25.0408 24.2953 28.0033 24.0141 28.5564L23.9227 28.7533L23.8805 28.8001C23.8875 28.7908 23.9367 28.7064 23.8805 28.5095C23.7398 27.9001 21.532 25.5564 17.8828 22.6126C14.318 19.7908 11.3508 18.0845 11.0625 18.572L11.1539 18.3283ZM24.682 27.2251C24.9492 26.5126 22.0664 23.6158 18.4875 20.7939C14.8312 18.0283 12.1875 16.397 11.7023 16.8845L11.6039 17.1564C11.6039 17.1658 11.6039 17.1376 11.632 17.1095C11.7164 17.0158 11.8641 17.0158 11.9273 17.0158C12.757 17.0345 15.1266 18.4876 18.4523 21.0283C19.9148 22.1533 24.6117 26.1845 24.5906 27.3095C24.5906 27.4033 24.5977 27.422 24.5695 27.4783L24.6891 27.2345L24.682 27.2251Z" fill="#FFFF00"/>
<path fill-rule="evenodd" clip-rule="evenodd" d="M13.9119 17.5934C15.0915 18.2865 16.6672 19.3863 18.4956 20.7692L18.4959 20.7695C20.2858 22.1808 21.902 23.6111 23.0376 24.7781C23.6052 25.3614 24.0535 25.8796 24.3433 26.2972C24.4881 26.5059 24.5942 26.6906 24.6557 26.8467C24.7131 26.9923 24.7343 27.1199 24.7046 27.2194C24.7089 27.2286 24.7089 27.2404 24.7044 27.2497L24.5875 27.488C24.5866 27.4899 24.5857 27.4918 24.5847 27.4937C24.5783 27.5066 24.5653 27.5101 24.5556 27.5015C24.5459 27.493 24.5432 27.4756 24.5495 27.4627L24.5496 27.4625C24.5505 27.4608 24.5513 27.4591 24.5521 27.4575C24.5628 27.4351 24.5661 27.4215 24.5673 27.405C24.568 27.3951 24.5681 27.3836 24.5679 27.3678C24.5676 27.3524 24.5672 27.3331 24.5672 27.3093L24.5672 27.3086C24.5684 27.2446 24.5528 27.1676 24.5199 27.0781C24.4872 26.9889 24.4381 26.889 24.374 26.7799C24.2458 26.5616 24.0593 26.3087 23.8296 26.0323C23.3703 25.4797 22.7402 24.8359 22.0632 24.1916C20.7094 22.9031 19.1701 21.6145 18.4395 21.0524C16.7769 19.7824 15.3537 18.7844 14.2426 18.1017C13.6871 17.7603 13.2099 17.4979 12.82 17.3198C12.4298 17.1414 12.1288 17.0484 11.9248 17.0437C11.8931 17.0437 11.842 17.0438 11.7886 17.0551C11.7346 17.0665 11.6811 17.0888 11.6432 17.1309C11.6429 17.1312 11.6426 17.1315 11.6423 17.1318C11.6311 17.143 11.6261 17.1536 11.6239 17.1594C11.6229 17.1623 11.6223 17.1643 11.622 17.1656C11.622 17.1658 11.6217 17.167 11.6214 17.168C11.6213 17.1683 11.6206 17.1707 11.6194 17.1732C11.619 17.1741 11.6167 17.1789 11.6122 17.1824C11.6095 17.1845 11.6049 17.1868 11.5992 17.186C11.5934 17.1851 11.5892 17.1813 11.5867 17.1779C11.5827 17.1726 11.5815 17.1666 11.5813 17.1656C11.5813 17.1655 11.5813 17.1655 11.5813 17.1655C11.5809 17.1635 11.5807 17.162 11.5807 17.1613C11.5805 17.1599 11.5805 17.1587 11.5805 17.1584C11.5805 17.1575 11.5805 17.1566 11.5805 17.1562C11.5805 17.152 11.5812 17.1478 11.5826 17.144L11.681 16.8721C11.6825 16.8681 11.6846 16.8646 11.6873 16.8619C11.7536 16.7953 11.8538 16.7674 11.9813 16.7708C12.1094 16.7742 12.2686 16.8093 12.4559 16.8733C12.8308 17.0015 13.3222 17.2468 13.9119 17.5934ZM24.6096 27.3402L24.6605 27.2365C24.6579 27.2289 24.6579 27.2201 24.6608 27.2124C24.6894 27.1362 24.6779 27.0241 24.6183 26.8729C24.5594 26.7231 24.4561 26.5426 24.3123 26.3354C24.0249 25.9213 23.5788 25.4053 23.0118 24.8226C21.8781 23.6576 20.2635 22.2286 18.4746 20.818C16.6467 19.4354 15.0725 18.3368 13.8949 17.6448C13.306 17.2988 12.817 17.0548 12.4455 16.9278C12.2596 16.8643 12.104 16.8303 11.9805 16.827C11.8593 16.8238 11.772 16.8502 11.7167 16.9028L11.6649 17.0461C11.702 17.0217 11.7433 17.0077 11.7819 16.9995C11.839 16.9874 11.893 16.9874 11.9247 16.9874H11.9254C12.1363 16.9922 12.4425 17.0878 12.8337 17.2666C13.2254 17.4455 13.704 17.7087 14.2603 18.0506C15.3729 18.7343 16.7973 19.7331 18.4605 21.0037C19.1923 21.5666 20.7328 22.8562 22.0877 24.1458C22.7652 24.7906 23.3968 25.4358 23.8579 25.9906C24.0884 26.2679 24.2768 26.5233 24.4072 26.7452C24.4724 26.8562 24.5234 26.9594 24.5578 27.0534C24.5922 27.1469 24.6107 27.2332 24.6094 27.3097C24.6094 27.3209 24.6095 27.3309 24.6096 27.3402ZM11.1678 18.3476L11.1147 18.4892C11.1227 18.4853 11.131 18.4817 11.1397 18.4787C11.1809 18.4641 11.2315 18.4588 11.2905 18.4616C11.4086 18.4673 11.5638 18.5056 11.7517 18.5735C12.1276 18.7096 12.638 18.966 13.2501 19.3254C14.4745 20.0443 16.1083 21.1769 17.8912 22.5883L17.8914 22.5884C19.7165 24.0606 21.1813 25.383 22.2077 26.4138C22.7209 26.9292 23.1247 27.3719 23.4092 27.7242C23.5514 27.9003 23.6641 28.0542 23.7458 28.1836C23.8268 28.3117 23.879 28.4183 23.8981 28.5002C23.9202 28.5778 23.9268 28.6398 23.9257 28.688L23.9942 28.5404C24.0077 28.514 24.0122 28.4784 24.0049 28.4306C23.9975 28.3824 23.9783 28.3241 23.9467 28.256C23.8837 28.1198 23.7741 27.9503 23.6233 27.7526C23.3219 27.3574 22.8594 26.8541 22.2861 26.2854C21.1399 25.1482 19.5532 23.7518 17.9328 22.4396C16.3022 21.1276 14.7104 20.0126 13.4738 19.2725C12.8554 18.9024 12.3264 18.6264 11.926 18.4663C11.7257 18.3863 11.5583 18.3355 11.4284 18.3163C11.3634 18.3067 11.3084 18.3051 11.2637 18.3113C11.2217 18.3172 11.1901 18.3297 11.1678 18.3476ZM11.1516 18.3281L11.1399 18.3047C11.1702 18.2777 11.2108 18.2621 11.2593 18.2554C11.3081 18.2486 11.3663 18.2505 11.4331 18.2604C11.5666 18.2802 11.7367 18.332 11.9381 18.4125C12.341 18.5735 12.8719 18.8506 13.4911 19.2212C14.7295 19.9623 16.3228 21.0785 17.9547 22.3915C19.5757 23.7043 21.1637 25.1017 22.3113 26.2403C22.885 26.8095 23.3494 27.3146 23.6529 27.7125C23.8045 27.9112 23.9169 28.0845 23.9826 28.2264C24.0155 28.2974 24.0374 28.362 24.0462 28.4193C24.055 28.4767 24.0509 28.5288 24.0294 28.5715L23.9383 28.7679C23.9371 28.7704 23.9356 28.7727 23.9338 28.7747L23.8916 28.8216C23.883 28.8312 23.8702 28.83 23.8626 28.8189C23.8549 28.8078 23.8552 28.7907 23.8632 28.7801C23.8634 28.7798 23.8665 28.7753 23.8702 28.7655C23.874 28.7556 23.8784 28.7407 23.8811 28.7201C23.8865 28.6791 23.8854 28.6139 23.8584 28.5193C23.8583 28.5188 23.8581 28.5182 23.858 28.5176C23.8417 28.4472 23.7943 28.3476 23.7136 28.2198C23.6334 28.0929 23.522 27.9407 23.3805 27.7654C23.0974 27.4149 22.6949 26.9735 22.1823 26.4587C21.1574 25.4294 19.6937 24.1081 17.8696 22.6366C16.0878 21.2261 14.4555 20.0946 13.2331 19.3769C12.6218 19.0179 12.1135 18.7628 11.7406 18.6278C11.554 18.5603 11.4023 18.5232 11.289 18.5178C11.2324 18.5151 11.1862 18.5204 11.1505 18.533C11.1148 18.5457 11.091 18.5651 11.0767 18.5892C11.07 18.6006 11.058 18.6033 11.0489 18.5956C11.0397 18.5878 11.0365 18.5721 11.0413 18.5592L11.1327 18.3155L11.1516 18.3281Z" fill="black"/>
<path d="M13.5449 23.6029C13.546 24.3791 13.6626 25.1474 13.8879 25.8632C14.1132 26.579 14.4427 27.2281 14.8574 27.7729C15.2671 28.3275 15.755 28.7685 16.293 29.0706C16.8311 29.3727 17.4086 29.5298 17.9924 29.5329C19.1739 29.5328 20.307 28.9069 21.1424 27.7929C21.5557 27.245 21.8837 26.5938 22.1076 25.8764C22.3316 25.1591 22.4471 24.3899 22.4474 23.6129V15.6929L13.5449 15.6729V23.6029Z" fill="white"/>
<path fill-rule="evenodd" clip-rule="evenodd" d="M13.5195 15.6377L22.4746 15.6578V23.6128C22.4742 24.3944 22.358 25.1682 22.1327 25.8898C21.9075 26.6114 21.5775 27.2665 21.1618 27.8176C21.1618 27.8176 21.1618 27.8176 21.1618 27.8176M14.8397 27.7976C15.2518 28.3553 15.7425 28.7989 16.2837 29.1028C16.8249 29.4066 17.4059 29.5647 17.9932 29.5678H17.9933C19.1817 29.5677 20.3215 28.9381 21.1618 27.8176M14.8397 27.7976C14.4226 27.2495 14.0912 26.5966 13.8646 25.8766C13.6379 25.1566 13.5207 24.3837 13.5195 23.6028L13.5195 15.6377M13.572 23.6027C13.5731 24.3744 13.689 25.138 13.913 25.8495C14.1369 26.5611 14.4645 27.2063 14.8767 27.7479L14.877 27.7482C15.2842 28.2995 15.7692 28.738 16.3041 29.0382C16.8389 29.3385 17.4131 29.4947 17.9934 29.4978C19.1679 29.4976 20.2943 28.8754 21.1247 27.768L21.1248 27.768C21.5356 27.2234 21.8616 26.576 22.0843 25.8629C22.3069 25.1498 22.4217 24.3851 22.4221 23.6128V15.7277L13.572 15.7078V23.6027Z" fill="black"/>
<path d="M13.7109 23.6126C13.7125 24.3573 13.8247 25.0941 14.0409 25.7806C14.2572 26.4672 14.5733 27.0898 14.9709 27.6127C15.7694 28.6829 16.8537 29.2871 17.9859 29.2927C19.1162 29.2935 20.2005 28.6965 21.001 27.6327C21.3973 27.109 21.712 26.486 21.9269 25.7995C22.1419 25.113 22.2529 24.3766 22.2535 23.6326V15.9326H13.7259V23.6126M20.551 18.2426V23.1326L20.5435 23.6426C20.546 24.0894 20.4809 24.5322 20.352 24.9446C20.2231 25.357 20.0331 25.7305 19.7935 26.0426C19.3165 26.6808 18.6691 27.0404 17.9934 27.0427C17.2884 27.0427 16.6659 26.6427 16.2009 26.0226C15.7223 25.3867 15.4526 24.5235 15.4509 23.6226V18.2226L20.551 18.2426Z" fill="#FF0000"/>
<path fill-rule="evenodd" clip-rule="evenodd" d="M13.7064 15.9082H22.2714V23.6332C22.2708 24.3805 22.1594 25.1202 21.9434 25.8097C21.7275 26.4992 21.4115 27.125 21.0134 27.6509C20.2094 28.7195 19.1203 29.3191 17.9852 29.3182C16.848 29.3127 15.7589 28.7058 14.9569 27.6309C14.5575 27.1058 14.2401 26.4804 14.0229 25.7909C13.8057 25.1013 13.693 24.3612 13.6914 23.6133L13.7102 23.6132H13.7064V15.9082ZM13.7289 23.6132C13.7305 24.3545 13.8421 25.0881 14.0574 25.7716C14.2727 26.455 14.5874 27.0749 14.9833 27.5954L14.9835 27.5956C15.7784 28.6612 16.858 29.2627 17.9852 29.2682C19.1105 29.2691 20.19 28.6747 20.9869 27.6155C21.3815 27.0942 21.6948 26.4739 21.9088 25.7904C22.1228 25.107 22.2333 24.3738 22.2339 23.6332V15.9582H13.7439V23.6132H13.7289ZM15.4314 18.1981L20.5689 18.2183V23.1332L20.5689 23.1337L20.5614 23.643C20.5614 23.6431 20.5614 23.6433 20.5614 23.6434C20.5639 24.0934 20.4983 24.5394 20.3685 24.9548C20.2387 25.3703 20.0473 25.7465 19.8059 26.061C19.3254 26.7038 18.6733 27.066 17.9927 27.0682C17.2822 27.0682 16.655 26.665 16.1869 26.0409C15.7048 25.4003 15.4331 24.5308 15.4314 23.6233V18.1981ZM15.4689 18.2483V23.6232C15.4706 24.5174 15.7383 25.3743 16.2134 26.0055C16.6753 26.6214 17.2932 27.0182 17.9926 27.0182C18.6633 27.016 19.306 26.659 19.7794 26.0256L19.7796 26.0254C20.0175 25.7155 20.206 25.3449 20.3339 24.9356C20.4618 24.5263 20.5264 24.0868 20.5239 23.6434L20.5239 23.6427L20.5314 23.1332V18.2681L15.4689 18.2483Z" fill="black"/>
<path d="M14.2676 17.9427C14.2751 17.3927 14.5676 17.2627 14.5676 17.2627C14.5751 17.2627 14.8901 17.4027 14.8901 17.9527H14.2676" fill="#FFFF00"/>
<path d="M14.0126 17.2727L13.9601 17.9027H14.2751C14.2751 17.3827 14.5751 17.3027 14.5751 17.3027C14.5826 17.3027 14.8751 17.4127 14.8826 17.9027H15.1976L15.1376 17.2627H14.0126V17.2727ZM13.9376 17.9127H15.2126C15.2351 17.9127 15.2576 17.9427 15.2576 17.9827C15.2576 18.0327 15.2351 18.0627 15.2126 18.0627H13.9376C13.9151 18.0627 13.8926 18.0327 13.8926 17.9827C13.8926 17.9427 13.9151 17.9127 13.9451 17.9127H13.9376Z" fill="#FFFF00"/>
<path fill-rule="evenodd" clip-rule="evenodd" d="M13.993 17.2383H15.1534L15.2143 17.8884C15.2479 17.8904 15.2756 17.9333 15.2756 17.9833C15.2756 18.0422 15.248 18.0883 15.2118 18.0883H13.9368C13.9006 18.0883 13.873 18.0422 13.873 17.9833C13.873 17.9329 13.9002 17.8935 13.9368 17.8888V17.8883H13.9417L13.993 17.2719V17.2383ZM14.0294 17.2883L13.9802 17.8783H14.2558C14.2604 17.626 14.3355 17.4761 14.4122 17.3892C14.4514 17.3447 14.4907 17.3172 14.5202 17.3008C14.5296 17.2956 14.5381 17.2915 14.5453 17.2883H14.0294ZM14.5743 17.3033C14.5733 17.2966 14.5726 17.2918 14.572 17.2883L14.5743 17.3033ZM14.6017 17.2883C14.6102 17.2924 14.6206 17.2981 14.6324 17.3055C14.6623 17.3243 14.7014 17.3546 14.7405 17.4008C14.8165 17.4908 14.8916 17.6401 14.8999 17.8783H15.1756L15.1202 17.2883H14.6017ZM14.8627 17.8883C14.8562 17.66 14.7855 17.5209 14.7156 17.4382C14.6797 17.3957 14.6438 17.3679 14.6165 17.3507C14.6028 17.3422 14.5914 17.3363 14.5833 17.3326C14.5795 17.3309 14.5765 17.3297 14.5744 17.3289C14.5725 17.3295 14.5699 17.3305 14.5667 17.3317C14.5591 17.3347 14.548 17.3396 14.5346 17.347C14.5079 17.3618 14.4722 17.3868 14.4364 17.4273C14.367 17.506 14.2959 17.645 14.2931 17.8883H14.8627ZM13.9443 17.9383C13.9247 17.9383 13.9105 17.9571 13.9105 17.9833C13.9105 18.0244 13.928 18.0383 13.9368 18.0383H15.2118C15.2206 18.0383 15.2381 18.0244 15.2381 17.9833C15.2381 17.9545 15.2221 17.9383 15.2118 17.9383H13.9443Z" fill="black"/>
<path d="M14.4019 17.9034C14.4019 17.5734 14.5744 17.4834 14.5744 17.4834C14.5744 17.4834 14.7469 17.5834 14.7469 17.9034H14.4019ZM13.9669 17.0034H15.1894C15.2119 17.0034 15.2344 17.0434 15.2344 17.0834C15.2344 17.1134 15.2119 17.1434 15.1894 17.1434H13.9669C13.9444 17.1434 13.9219 17.1134 13.9219 17.0734C13.9219 17.0434 13.9444 17.0134 13.9669 17.0134V17.0034ZM14.4319 18.0534H15.1519C15.1744 18.0534 15.1969 18.0834 15.1969 18.1234C15.1969 18.1634 15.1744 18.1934 15.1519 18.1934H13.9894C13.9594 18.1934 13.9444 18.1634 13.9444 18.1234C13.9444 18.0834 13.9594 18.0534 13.9894 18.0534H14.4319ZM14.8069 16.9934H14.8969V17.0734H14.9644V16.9934H15.0619V17.0834H15.1294V16.9834H15.2194V17.1834C15.2194 17.2234 15.2044 17.2434 15.1819 17.2434H14.8519C14.8294 17.2434 14.8069 17.2234 14.8069 17.1934V16.9934ZM15.1519 17.2634L15.1744 17.9034H14.8519L14.8744 17.2534H15.1519" fill="#FFFF00"/>
<path fill-rule="evenodd" clip-rule="evenodd" d="M15.1098 16.958H15.2373V17.0183C15.2464 17.0365 15.2523 17.0594 15.2523 17.083C15.2523 17.1028 15.2461 17.1211 15.2373 17.1353V17.183C15.2373 17.2069 15.2329 17.2285 15.2224 17.2445C15.2116 17.2609 15.1967 17.268 15.1811 17.268H15.17L15.1932 17.928H14.8315L14.8543 17.268H14.8511C14.8359 17.268 14.8206 17.2613 14.8086 17.249C14.7965 17.2364 14.7873 17.2171 14.7873 17.193V17.168H13.9661C13.9314 17.168 13.9023 17.1243 13.9023 17.073C13.9023 17.0499 13.9108 17.0288 13.9219 17.0141C13.9288 17.0049 13.9375 16.997 13.9473 16.9924V16.978H14.7873V16.968H14.9148V16.978H14.9448V16.968H15.0798V16.978H15.1098V16.958ZM15.1098 17.028H15.0798V17.058H15.1098V17.028ZM15.0423 17.028V17.108H15.1473V17.028H15.1886C15.1909 17.028 15.1951 17.0299 15.1998 17.0359V17.1133C15.1959 17.1165 15.1919 17.118 15.1886 17.118H14.8248V17.028H14.8773V17.098H14.9823V17.028H15.0423ZM14.9448 17.028H14.9148V17.048H14.9448V17.028ZM14.7873 17.028H13.9848V17.038H13.9661C13.9609 17.038 13.9542 17.0417 13.9484 17.0494C13.9426 17.0572 13.9398 17.0661 13.9398 17.073C13.9398 17.1017 13.9558 17.118 13.9661 17.118H14.7873V17.028ZM14.8248 17.168V17.193C14.8248 17.1989 14.8269 17.2046 14.8317 17.2095C14.8366 17.2147 14.8438 17.218 14.8511 17.218H15.1811C15.188 17.218 15.1918 17.2152 15.1942 17.2115C15.1968 17.2075 15.1998 17.1991 15.1998 17.183V17.1664C15.1962 17.1675 15.1924 17.168 15.1886 17.168H14.8248ZM14.8915 17.278L14.8707 17.878H15.1539L15.1329 17.278H14.8915ZM14.5811 17.4601L14.5736 17.483L14.5668 17.4597L14.574 17.456L14.5811 17.4601ZM14.5733 17.5108C14.5691 17.5135 14.5634 17.5177 14.5566 17.5234C14.5417 17.536 14.5215 17.5561 14.5013 17.586C14.4633 17.6422 14.4243 17.7339 14.4202 17.878H14.727C14.7228 17.7388 14.6839 17.6471 14.6458 17.5896C14.6255 17.559 14.6052 17.5378 14.5901 17.5244C14.5832 17.5183 14.5774 17.5138 14.5733 17.5108ZM14.5668 17.4597C14.5668 17.4597 14.5668 17.4597 14.5736 17.483C14.5811 17.4601 14.5811 17.4601 14.5811 17.4601L14.5812 17.4601L14.5814 17.4602L14.5819 17.4606C14.5823 17.4608 14.5829 17.4612 14.5837 17.4617C14.5852 17.4626 14.5872 17.464 14.5898 17.4659C14.595 17.4696 14.6023 17.4752 14.6109 17.4828C14.6282 17.4982 14.6511 17.5221 14.6739 17.5564C14.7198 17.6256 14.7648 17.7364 14.7648 17.903V17.928H14.3823V17.903C14.3823 17.7316 14.4273 17.6207 14.4734 17.5525C14.4963 17.5187 14.5193 17.4957 14.5366 17.4811C14.5453 17.4738 14.5526 17.4686 14.5579 17.4651C14.5605 17.4634 14.5626 17.4621 14.5641 17.4612C14.5649 17.4608 14.5655 17.4604 14.5659 17.4602L14.5665 17.4599L14.5666 17.4598L14.5668 17.4597ZM13.9695 18.0886C13.9654 18.0954 13.9623 18.1068 13.9623 18.123C13.9623 18.1392 13.9654 18.1506 13.9695 18.1574C13.9731 18.1634 13.9788 18.168 13.9886 18.168H15.1511C15.1614 18.168 15.1773 18.1517 15.1773 18.123C15.1773 18.0943 15.1614 18.078 15.1511 18.078H13.9886C13.9788 18.078 13.9731 18.0826 13.9695 18.0886ZM13.9402 18.0574C13.9516 18.0384 13.9684 18.028 13.9886 18.028H15.1511C15.1858 18.028 15.2148 18.0717 15.2148 18.123C15.2148 18.1743 15.1858 18.218 15.1511 18.218H13.9886C13.9684 18.218 13.9516 18.2076 13.9402 18.1886C13.9293 18.1704 13.9248 18.1468 13.9248 18.123C13.9248 18.0992 13.9293 18.0756 13.9402 18.0574Z" fill="black"/>
<path d="M14.3273 16.6631V17.0031H14.0273V16.6631H14.3273Z" fill="#FFFF00"/>
<path fill-rule="evenodd" clip-rule="evenodd" d="M14.0078 16.6377H14.3453V17.0277H14.0078V16.6377ZM14.0453 16.6877V16.9777H14.3078V16.6877H14.0453Z" fill="black"/>
<path d="M13.9746 16.4033H14.0646V16.5033H14.1321V16.4033H14.2221V16.5033H14.2896V16.4033H14.3796V16.6033C14.3796 16.6433 14.3646 16.6633 14.3421 16.6633H14.0196C14.0077 16.6633 13.9962 16.657 13.9878 16.6457C13.9794 16.6345 13.9746 16.6192 13.9746 16.6033V16.4033Z" fill="#FFFF00"/>
<path fill-rule="evenodd" clip-rule="evenodd" d="M13.9926 16.4279V16.6029C13.9926 16.6122 13.9953 16.6211 14.0003 16.6277C14.0052 16.6342 14.0119 16.6379 14.0188 16.6379H14.3413C14.3482 16.6379 14.352 16.6351 14.3544 16.6315C14.3571 16.6274 14.3601 16.619 14.3601 16.6029V16.4279H14.3076V16.5279H14.2026V16.4279H14.1501V16.5279H14.0451V16.4279H13.9926ZM13.9738 16.4029V16.3779H14.0826V16.4779H14.1126V16.3779H14.2401V16.4779H14.2701V16.3779H14.3976V16.6029C14.3976 16.6268 14.3931 16.6484 14.3826 16.6644C14.3719 16.6808 14.3569 16.6879 14.3413 16.6879H14.0188C14.0019 16.6879 13.9857 16.679 13.9738 16.663C13.9618 16.6471 13.9551 16.6255 13.9551 16.6029V16.4029H13.9738Z" fill="black"/>
<path d="M14.543 16.5626C14.543 16.5026 14.6105 16.5026 14.6105 16.5626V16.7226H14.543V16.5626Z" fill="black"/>
<path d="M14.1465 16.7833C14.1465 16.7233 14.2065 16.7233 14.2065 16.7833V16.9033H14.1465V16.7833Z" fill="black"/>
<path d="M17.4453 22.7431C17.444 22.9542 17.503 23.158 17.6103 23.3131C17.6604 23.3878 17.7216 23.4477 17.7901 23.489C17.8585 23.5303 17.9327 23.5522 18.0078 23.5531C18.1653 23.5531 18.3078 23.4531 18.4053 23.3131C18.5127 23.158 18.5717 22.9542 18.5703 22.7431V21.6631H17.4453V22.7431Z" fill="#003399"/>
<path d="M17.7063 22.2229C17.7684 22.2229 17.8188 22.1557 17.8188 22.0729C17.8188 21.99 17.7684 21.9229 17.7063 21.9229C17.6441 21.9229 17.5938 21.99 17.5938 22.0729C17.5938 22.1557 17.6441 22.2229 17.7063 22.2229Z" fill="white"/>
<path d="M18.3293 22.2229C18.3914 22.2229 18.4418 22.1557 18.4418 22.0729C18.4418 21.99 18.3914 21.9229 18.3293 21.9229C18.2672 21.9229 18.2168 21.99 18.2168 22.0729C18.2168 22.1557 18.2672 22.2229 18.3293 22.2229Z" fill="white"/>
<path d="M18.0148 22.6232C18.077 22.6232 18.1273 22.5561 18.1273 22.4732C18.1273 22.3904 18.077 22.3232 18.0148 22.3232C17.9527 22.3232 17.9023 22.3904 17.9023 22.4732C17.9023 22.5561 17.9527 22.6232 18.0148 22.6232Z" fill="white"/>
<path d="M17.7063 23.0432C17.7684 23.0432 17.8188 22.976 17.8188 22.8932C17.8188 22.8103 17.7684 22.7432 17.7063 22.7432C17.6441 22.7432 17.5938 22.8103 17.5938 22.8932C17.5938 22.976 17.6441 23.0432 17.7063 23.0432Z" fill="white"/>
<path d="M18.3293 23.0432C18.3914 23.0432 18.4418 22.976 18.4418 22.8932C18.4418 22.8103 18.3914 22.7432 18.3293 22.7432C18.2672 22.7432 18.2168 22.8103 18.2168 22.8932C18.2168 22.976 18.2672 23.0432 18.3293 23.0432Z" fill="white"/>
</g>
<defs>
<clipPath id="clip0_45_19140">
<rect width="45" height="45" fill="white"/>
</clipPath>
</defs>
</svg>
