<svg width="45" height="45" viewBox="0 0 45 45" fill="none" xmlns="http://www.w3.org/2000/svg">
<g clip-path="url(#clip0_45_19203)">
<path fill-rule="evenodd" clip-rule="evenodd" d="M-7.25 0H52.2555V45H-7.25V0Z" fill="#4AADD6"/>
<path fill-rule="evenodd" clip-rule="evenodd" d="M28.5391 21.7591C28.5737 23.3881 28.3522 25.0094 27.8878 26.5273C27.4233 28.0452 26.7253 29.4289 25.8349 30.5967C24.9445 31.7645 23.8798 32.6927 22.7036 33.3265C21.5275 33.9603 20.2638 34.2868 18.9871 34.2868C17.7105 34.2868 16.4467 33.9603 15.2706 33.3265C14.0945 32.6927 13.0298 31.7645 12.1394 30.5967C11.2489 29.4289 10.5509 28.0452 10.0864 26.5273C9.62198 25.0094 9.40053 23.3881 9.43516 21.7591C9.40053 20.1302 9.62198 18.5089 10.0864 16.991C10.5509 15.4731 11.2489 14.0894 12.1394 12.9216C13.0298 11.7538 14.0945 10.8256 15.2706 10.1918C16.4467 9.55799 17.7105 9.23145 18.9871 9.23145C20.2638 9.23145 21.5275 9.55799 22.7036 10.1918C23.8798 10.8256 24.9445 11.7538 25.8349 12.9216C26.7253 14.0894 27.4233 15.4731 27.8878 16.991C28.3522 18.5089 28.5737 20.1302 28.5391 21.7591Z" fill="#FFDE00"/>
</g>
<defs>
<clipPath id="clip0_45_19203">
<rect width="45" height="45" fill="white"/>
</clipPath>
</defs>
</svg>
