<svg width="45" height="45" viewBox="0 0 45 45" fill="none" xmlns="http://www.w3.org/2000/svg">
<g clip-path="url(#clip0_45_19855)">
<path fill-rule="evenodd" clip-rule="evenodd" d="M0 44.5781L65.0874 0H0V44.5781Z" fill="#0000D6"/>
<path fill-rule="evenodd" clip-rule="evenodd" d="M67.5 0L1.79297 45H67.5V0Z" fill="#006000"/>
<path fill-rule="evenodd" clip-rule="evenodd" d="M67.5 0H63.8811L0 42.6621V45H3.6189L67.5 2.42578V0Z" fill="#FFCC00"/>
<path fill-rule="evenodd" clip-rule="evenodd" d="M4.70703 0.799805L5.48486 3.83203H8.02271L5.97266 5.68652L6.75708 8.70996L4.70703 6.85547L2.65698 8.71875L3.44141 5.69531L1.39136 3.82324H3.92261L4.70703 0.799805ZM17.304 0.799805L18.0884 3.83203H20.6262L18.5696 5.69531L19.3606 8.71875L17.2974 6.85547L15.2539 8.72754L16.0383 5.7041L13.9817 3.83203H16.5195L17.304 0.799805ZM17.304 13.5L18.0884 16.5322H20.6262L18.5696 18.3955L19.3606 21.4189L17.304 19.5469L15.2605 21.4189L16.0449 18.3955L13.9883 16.5234H16.5261L17.304 13.5ZM11.0417 7.22461L11.8262 10.248H14.3574L12.314 12.1201L13.0918 15.1436L11.0483 13.2715L8.9917 15.1436L9.78271 12.1201L7.72607 10.248H10.2639L11.0417 7.22461ZM4.70703 13.5L5.48486 16.5322H8.02271L5.97266 18.3955L6.75708 21.4189L4.70703 19.5469L2.65698 21.4189L3.448 18.3955L1.38477 16.5234H3.91602L4.70703 13.5Z" fill="white"/>
</g>
<defs>
<clipPath id="clip0_45_19855">
<rect width="45" height="45" fill="white"/>
</clipPath>
</defs>
</svg>
