<svg width="45" height="45" viewBox="0 0 45 45" fill="none" xmlns="http://www.w3.org/2000/svg">
<g clip-path="url(#clip0_45_19876)">
<path fill-rule="evenodd" clip-rule="evenodd" d="M-1.40625 0H49.2188V45H-1.40625V0Z" fill="white"/>
<path fill-rule="evenodd" clip-rule="evenodd" d="M-1.40625 0H49.2188V22.5H-1.40625V0Z" fill="#DF0000"/>
<path fill-rule="evenodd" clip-rule="evenodd" d="M10.2658 3.76864C8.93398 4.15027 7.74115 5.13124 6.88761 6.54685C6.03406 7.96246 5.57178 9.72651 5.57838 11.5428C5.58498 13.3592 6.06005 15.1172 6.92384 16.5217C7.78762 17.9262 8.98752 18.8917 10.3221 19.2561C9.55756 19.5511 8.75687 19.6419 7.96596 19.5234C7.17504 19.4049 6.40945 19.0794 5.7131 18.5655C5.01675 18.0516 4.40333 17.3595 3.90803 16.5288C3.41272 15.6982 3.04528 14.7453 2.82677 13.7249C2.39278 11.6737 2.58555 9.47688 3.36293 7.61469C4.14031 5.75249 5.43906 4.37644 6.97521 3.78739C8.10021 3.35614 9.14084 3.34677 10.2729 3.76864H10.2658Z" fill="white"/>
<path fill-rule="evenodd" clip-rule="evenodd" d="M9.35156 10.3123L9.69609 11.7186L8.78203 10.8561L7.88203 11.7373L8.2125 10.3123L7.3125 9.44043L8.43047 9.42168L8.78203 8.01543L9.13359 9.42168H10.2445L9.35156 10.3123ZM10.582 15.1873L10.9336 16.6029L10.0195 15.7404L9.1125 16.6123L9.45 15.1967L8.55 14.3154L9.66797 14.3061L10.0125 12.8904L10.3641 14.2967H11.4891L10.582 15.1873ZM14.6953 15.1498L15.0398 16.5748L14.1258 15.7029L13.2258 16.5748L13.5563 15.1592L12.6562 14.2873L13.7742 14.2686L14.1258 12.8623L14.4773 14.2686H15.5883L14.6953 15.1498ZM15.9187 10.3123L16.2633 11.7279L15.3492 10.8654L14.4492 11.7373L14.7867 10.3217L13.8797 9.44043L15.0047 9.43105L15.3422 8.01543L15.6937 9.42168H16.8187L15.9187 10.3123ZM12.6633 7.09668L13.0148 8.52168L12.1008 7.6498L11.1937 8.53105L11.5312 7.10605L10.6312 6.2248L11.7422 6.21543L12.0938 4.7998L12.4453 6.20605H13.5703L12.6633 7.09668Z" fill="white"/>
</g>
<defs>
<clipPath id="clip0_45_19876">
<rect width="45" height="45" fill="white"/>
</clipPath>
</defs>
</svg>
