<svg width="45" height="45" viewBox="0 0 45 45" fill="none" xmlns="http://www.w3.org/2000/svg">
<g clip-path="url(#clip0_45_19974)">
<path fill-rule="evenodd" clip-rule="evenodd" d="M-3.0957 0H64.4043V45H-3.0957V0Z" fill="white"/>
<path fill-rule="evenodd" clip-rule="evenodd" d="M-3.0957 29.9971H64.4043V45H-3.0957V29.9971Z" fill="#D50000"/>
<path fill-rule="evenodd" clip-rule="evenodd" d="M-3.0957 15.0029H64.4043V29.9971H-3.0957V15.0029Z" fill="#0000BF"/>
<path fill-rule="evenodd" clip-rule="evenodd" d="M16.0471 8.17383C15.7834 13.5879 15.6252 16.5586 15.0122 17.9297C14.3398 19.4062 13.6938 20.4873 11.0769 21.7969C8.46655 20.4873 7.82056 19.4062 7.14819 17.9297C6.52856 16.5586 6.37695 13.5879 6.11328 8.17383L6.49561 7.99805C7.27344 7.68164 7.85352 7.42676 8.28198 7.3125C8.89502 7.13672 9.42236 6.94336 11.0703 6.89941C12.7183 6.93457 13.2456 7.14551 13.8586 7.32129C14.2805 7.44434 14.887 7.67285 15.6582 7.99805L16.0471 8.17383Z" fill="#D50000"/>
<path fill-rule="evenodd" clip-rule="evenodd" d="M15.6633 7.99805C15.4128 13.4033 15.2019 15.8818 14.8723 17.0684C14.2395 19.1074 13.2375 20.2236 11.0754 21.2871C8.91333 20.2236 7.91138 19.1074 7.27197 17.0684C6.94238 15.873 6.74463 13.4033 6.49414 7.98926C7.25879 7.67285 7.85205 7.42676 8.28052 7.3125C8.89355 7.13672 9.4209 6.93457 11.0688 6.89941C12.7168 6.93457 13.2441 7.13672 13.8572 7.3125C14.4673 7.4977 15.0701 7.72357 15.6633 7.98926V7.99805Z" fill="#0000BF"/>
<path fill-rule="evenodd" clip-rule="evenodd" d="M11.0757 9.65039L11.1746 9.97559L11.636 10.0635L11.3394 10.3008L11.6228 10.5557L11.2075 10.6436L11.0757 10.9424L10.9438 10.6348L10.5483 10.5645L10.812 10.3008L10.5352 10.0635L10.9768 9.97559L11.0757 9.65039Z" fill="#FFDF00"/>
<path fill-rule="evenodd" clip-rule="evenodd" d="M14.7222 15.7852L14.4651 15.5215L14.2871 15.1172L13.9312 14.7041L13.74 14.291L13.384 13.8604L13.2126 13.4473L13.0149 13.2451L12.8962 13.0781L12.5667 13.4561L12.3953 13.8691L12.1777 14.1328L11.9338 13.8779L11.7559 13.4561L11.0769 11.8477L10.3979 13.4561L10.22 13.8779L9.97607 14.1328L9.75855 13.8691L9.58057 13.4561L9.25757 13.0781L9.13232 13.2363L8.94116 13.4473L8.76978 13.8604L8.41382 14.291L8.22266 14.7041L7.8667 15.1172L7.68872 15.5215L7.43164 15.7852C7.57657 16.9949 8.00589 18.1121 8.65772 18.9756C9.36487 19.7825 10.1848 20.3949 11.0703 20.7773C11.9625 20.4034 12.788 19.7903 13.4961 18.9756C13.8784 18.4482 14.5903 17.2793 14.7222 15.7852Z" fill="white"/>
<path fill-rule="evenodd" clip-rule="evenodd" d="M12.1565 7.37402L12.262 7.69922L12.7234 7.78711L12.4202 8.02441L12.7102 8.2793L12.2949 8.36719L12.1631 8.66602L12.0312 8.3584L11.6357 8.28809L11.8994 8.02441L11.6226 7.78711L12.0576 7.69922L12.1631 7.37402H12.1565ZM9.9812 7.37402L10.0867 7.69922L10.5481 7.77832L10.2515 8.01562L10.5349 8.27051L10.1196 8.3584L9.98779 8.65723L9.85596 8.3584L9.46045 8.2793L9.72412 8.01562L9.44727 7.77832L9.88892 7.69043L9.98779 7.36523L9.9812 7.37402Z" fill="#FFDF00"/>
<path fill-rule="evenodd" clip-rule="evenodd" d="M14.1553 17.8418H13.6675L13.2061 17.7979L12.6589 17.4463H12.0393L11.5054 17.7979L11.0769 17.8506L10.655 17.7979L10.1211 17.4463H9.49487L8.94116 17.7979L8.48633 17.8506L7.98535 17.8418L7.74805 17.2969L7.75464 17.2793L8.49292 17.4463L8.94775 17.4023L9.49487 17.042H10.1145L10.655 17.3936L11.0769 17.4463L11.5054 17.3936L12.0393 17.042H12.6589L13.2126 17.3936L13.6675 17.4463L14.3794 17.2705L14.3926 17.3057L14.1487 17.8418H14.1553ZM8.45996 18.6768L8.94775 18.6328L9.49487 18.2813H10.1145L10.655 18.6328L11.0769 18.6768L11.4988 18.6328L12.0393 18.2813H12.6589L13.2061 18.6328L13.7004 18.6768L14.0168 18.1494H14.0103L13.6675 18.2725L13.2126 18.2285L12.6655 17.877H12.0459L11.5054 18.2285L11.0835 18.2813L10.655 18.2285L10.1211 17.877H9.49487L8.94116 18.2285L8.48633 18.2813L8.15674 18.167V18.1846L8.45337 18.6768H8.45996Z" fill="#0000BF"/>
</g>
<defs>
<clipPath id="clip0_45_19974">
<rect width="45" height="45" fill="white"/>
</clipPath>
</defs>
</svg>
