<svg width="45" height="45" viewBox="0 0 45 45" fill="none" xmlns="http://www.w3.org/2000/svg">
<g clip-path="url(#clip0_45_20816)">
<path d="M0 0H45V45H0V0Z" fill="#3E5EB9"/>
<path d="M0 8.4375H45V36.5625H0V8.4375Z" fill="#FFD900"/>
<path d="M0 11.25H45V33.75H0V11.25Z" fill="#B10C0C"/>
<path d="M38.5503 17.3584L36.5 18.3259L38.5419 19.2821L40.5922 18.3259L38.5503 17.3584Z" fill="white"/>
<path fill-rule="evenodd" clip-rule="evenodd" d="M38.5503 17.2988L40.719 18.3264L38.5418 19.3419L36.373 18.3262L38.5503 17.2988ZM36.6268 18.3258L38.5418 19.2227L40.4652 18.3256L38.5502 17.4182L36.6268 18.3258Z" fill="black"/>
<path d="M37.193 18H7.58578C7.44132 18 7.32422 18.1435 7.32422 18.3206C7.32422 18.4977 7.44132 18.6412 7.58578 18.6412H37.193C37.3374 18.6412 37.4545 18.4977 37.4545 18.3206C37.4545 18.1435 37.3374 18 37.193 18Z" fill="#FFD900"/>
<path fill-rule="evenodd" clip-rule="evenodd" d="M7.585 18.0559C7.46043 18.0559 7.36563 18.1786 7.36563 18.3202C7.36563 18.4619 7.46043 18.5846 7.585 18.5846H37.1922C37.3168 18.5846 37.4116 18.4619 37.4116 18.3202C37.4116 18.1786 37.3168 18.0559 37.1922 18.0559H7.585ZM7.28125 18.3202C7.28125 18.1077 7.42065 17.9434 7.585 17.9434H37.1922C37.3565 17.9434 37.4959 18.1077 37.4959 18.3202C37.4959 18.5327 37.3565 18.6971 37.1922 18.6971H7.585C7.42065 18.6971 7.28125 18.5327 7.28125 18.3202Z" fill="black"/>
<path d="M36.7368 18.6412C36.7996 18.6386 36.8595 18.6049 36.9047 18.5467C36.95 18.4885 36.9773 18.4099 36.9815 18.3262C36.9794 18.2406 36.9529 18.1593 36.9075 18.0987C36.862 18.0381 36.801 18.0028 36.7368 18M36.5005 18.6412C36.5619 18.636 36.6197 18.6011 36.6632 18.5431C36.7067 18.4851 36.7328 18.4081 36.7368 18.3262C36.7348 18.2425 36.7096 18.1626 36.6659 18.1023C36.6222 18.042 36.5633 18.0055 36.5005 18M36.2559 18.6412C36.3187 18.6386 36.3786 18.6049 36.4238 18.5467C36.469 18.4885 36.4964 18.4099 36.5005 18.3262C36.4984 18.2406 36.472 18.1593 36.4265 18.0987C36.3811 18.0381 36.3201 18.0028 36.2559 18" fill="#FFD900"/>
<path fill-rule="evenodd" clip-rule="evenodd" d="M36.2567 17.9434C36.3316 17.9466 36.4028 17.9878 36.4558 18.0585C36.5088 18.1292 36.5397 18.2241 36.5421 18.324L36.5422 18.3268L36.5421 18.3296C36.5372 18.4271 36.5053 18.5188 36.4525 18.5868C36.3998 18.6547 36.3299 18.694 36.2566 18.6971L36.254 18.5846C36.3063 18.5824 36.3562 18.5543 36.3939 18.5058C36.4311 18.4579 36.4538 18.3936 36.4577 18.3249C36.4555 18.2545 36.4335 18.1879 36.3961 18.138C36.3583 18.0875 36.3074 18.0581 36.2539 18.0558L36.2567 17.9434ZM36.7376 17.9434C36.8125 17.9466 36.8837 17.9878 36.9367 18.0585C36.9898 18.1292 37.0206 18.2241 37.0231 18.324L37.0231 18.3268L37.023 18.3296C37.0182 18.4271 36.9862 18.5188 36.9335 18.5868C36.8807 18.6547 36.8109 18.694 36.7375 18.6971L36.7349 18.5846C36.7873 18.5824 36.8372 18.5543 36.8749 18.5058C36.912 18.4579 36.9347 18.3936 36.9387 18.3249C36.9364 18.2545 36.9145 18.1879 36.8771 18.138C36.8392 18.0875 36.7884 18.0581 36.7348 18.0558L36.7376 17.9434ZM36.5028 17.9435C36.576 17.9499 36.6447 17.9925 36.6957 18.0628C36.7466 18.1332 36.7761 18.2263 36.7784 18.3241L36.7785 18.3268L36.7783 18.3295C36.7737 18.4249 36.7432 18.5148 36.6924 18.5825C36.6417 18.6501 36.5743 18.6908 36.5027 18.697L36.4973 18.5847C36.5484 18.5803 36.5966 18.5512 36.6328 18.5029C36.6685 18.4552 36.6902 18.3921 36.694 18.3249C36.6919 18.256 36.6709 18.1906 36.635 18.141C36.5986 18.0907 36.5495 18.0603 36.4972 18.0557L36.5028 17.9435Z" fill="black"/>
<path d="M42.6344 22.0156H2.36219C2.16647 22.0156 2.00781 22.2322 2.00781 22.4994C2.00781 22.7665 2.16647 22.9831 2.36219 22.9831H42.6344C42.8301 22.9831 42.9888 22.7665 42.9888 22.4994C42.9888 22.2322 42.8301 22.0156 42.6344 22.0156Z" fill="#FFD900"/>
<path fill-rule="evenodd" clip-rule="evenodd" d="M2.36172 22.0779C2.19266 22.0779 2.05375 22.2654 2.05375 22.4997C2.05375 22.7341 2.19266 22.9216 2.36172 22.9216H42.6339C42.803 22.9216 42.9419 22.7341 42.9419 22.4997C42.9419 22.2654 42.803 22.0779 42.6339 22.0779H2.36172ZM1.96094 22.4997C1.96094 22.1998 2.13935 21.9541 2.36172 21.9541H42.6339C42.8563 21.9541 43.0347 22.1998 43.0347 22.4997C43.0347 22.7997 42.8563 23.0454 42.6339 23.0454H2.36172C2.13935 23.0454 1.96094 22.7997 1.96094 22.4997Z" fill="black"/>
<path d="M34.3258 22.5004C31.9141 25.716 28.7008 32.1473 22.2742 32.1473C16.6492 32.1473 12.6344 25.716 10.2227 22.5004C12.6273 19.2848 16.6492 12.8535 22.2742 12.8535C28.7008 12.8535 31.9141 19.2848 34.3258 22.5004Z" fill="white"/>
<path fill-rule="evenodd" clip-rule="evenodd" d="M10.2833 22.4999C10.5272 22.8261 10.7871 23.1839 11.063 23.5638C12.1494 25.0597 13.4838 26.8972 15.0698 28.4843C17.0741 30.4901 19.4753 32.0906 22.2752 32.0906C27.6857 32.0906 30.8078 27.5197 33.1053 24.1559C33.5162 23.5543 33.9007 22.9913 34.2672 22.5C33.9007 22.0087 33.5162 21.4457 33.1053 20.8441C30.8078 17.4803 27.6857 12.9094 22.2752 12.9094C19.4753 12.9094 17.0724 14.5099 15.0672 16.5157C13.4722 18.1111 12.1319 19.9595 11.0442 21.4597C10.7751 21.8308 10.5215 22.1806 10.2833 22.4999ZM34.3268 22.5L34.3566 22.4602C33.9848 21.9645 33.5933 21.3909 33.1731 20.7754C30.8769 17.4117 27.7266 12.7969 22.2752 12.7969C19.4502 12.7969 17.0297 14.412 15.0165 16.4257C13.4156 18.0271 12.0692 19.884 10.9813 21.3845C10.7017 21.7701 10.4392 22.1321 10.1938 22.4603L10.1641 22.5001L10.1939 22.5398C10.4449 22.8745 10.7136 23.2445 11 23.6389C12.0866 25.1352 13.4272 26.9812 15.0192 28.5743C17.0314 30.588 19.4502 32.2031 22.2752 32.2031C27.7266 32.2031 30.8769 27.5883 33.1731 24.2246C33.5933 23.6091 33.9848 23.0355 34.3566 22.5398L34.3268 22.5Z" fill="black"/>
<path d="M21.4305 16.2191C22.0773 17.1754 21.5359 17.5598 22.218 17.6254C22.9352 17.691 22.5273 18.6379 23.132 18.6754C23.5539 18.6941 23.0898 20.9441 23.4906 21.6754C23.9055 22.4535 24.25 21.9098 24.2641 22.4629C24.2641 23.0441 23.1391 22.9785 23.118 24.7598C23.0828 25.7816 22.1617 25.8473 22.1195 26.5035C22.0633 27.1223 23.9336 27.4691 23.9055 28.0223C23.8844 28.5848 21.8875 28.491 21.7961 29.1191C21.7539 29.6816 24.5383 30.1504 24.7633 31.791C24.3414 31.9785 23.1672 32.1379 22.2742 32.1473C16.6492 32.1473 12.6344 25.716 10.2227 22.491C12.6344 19.2848 16.6492 12.8535 22.2742 12.8535C22.2742 12.8535 20.6078 14.8879 21.4305 16.2098V16.2191Z" fill="black"/>
<path d="M15.0176 21.6446V19.0684V21.6446ZM16.182 19.0684V21.6446V19.0684ZM17.3463 19.0684V21.6446V19.0684Z" fill="black"/>
<path fill-rule="evenodd" clip-rule="evenodd" d="M15.3088 19.0684V21.6446H14.7266V19.0684H15.3088ZM15.8909 21.6446V19.0684H16.4731V21.6446H15.8909ZM17.0553 21.6446V19.0684H17.6375V21.6446H17.0553Z" fill="white"/>
<path d="M40.1063 22.1246C39.7406 22.959 40.3875 21.8434 41.9625 23.2496C42.1226 23.426 42.2539 23.6443 42.3482 23.891C42.4426 24.1377 42.4979 24.4076 42.5109 24.684C42.4406 24.6184 42.3773 24.4684 42.3 24.384C42.1875 24.534 42.4125 25.2277 42.4406 25.5559C42.1945 25.3684 42.2156 25.2934 42.1383 25.0684C42.1523 25.3309 42.0891 26.0809 42.1945 26.3809C41.9977 26.3059 42.0117 26.0996 41.9133 26.0527C41.9836 26.3809 41.85 26.7277 41.8852 27.1027C41.7727 26.9527 41.6461 26.8309 41.5969 26.7746C41.5828 26.9621 41.3789 27.4121 41.3719 27.5809C41.3352 27.5494 41.3037 27.5082 41.2795 27.4598C41.2553 27.4114 41.2389 27.3569 41.2313 27.2996C41.0081 27.6543 40.8192 28.0448 40.6688 28.4621C40.3383 28.0871 39.5016 27.1496 39.3891 26.6434C39.2906 26.9246 39.15 27.0184 38.8828 27.2246C38.7703 26.4371 38.3555 25.5559 38.5734 24.8715C38.4257 24.9933 38.2826 25.1247 38.1445 25.2652C38.2703 24.5745 38.5131 23.9313 38.8544 23.3853C39.1957 22.8392 39.6264 22.4047 40.1133 22.1152L40.1063 22.1246Z" fill="#333333"/>
<path fill-rule="evenodd" clip-rule="evenodd" d="M40.0236 22.2229C39.5838 22.5078 39.194 22.9144 38.8804 23.4161C38.5639 23.9226 38.3328 24.5135 38.2026 25.1485C38.3165 25.037 38.4337 24.9315 38.5539 24.8324L38.648 24.7549L38.6048 24.8906C38.501 25.2165 38.5466 25.5936 38.6369 25.9968C38.6687 26.1387 38.7054 26.2817 38.7425 26.4257C38.7579 26.4859 38.7735 26.5463 38.7887 26.6069C38.8346 26.7894 38.8775 26.9726 38.9065 27.1523C38.9083 27.1509 38.9101 27.1495 38.9119 27.1481C39.1496 26.9654 39.269 26.8736 39.3562 26.6244L39.3954 26.5123L39.4218 26.6309C39.4479 26.7482 39.5175 26.8958 39.6164 27.0598C39.7146 27.2227 39.839 27.3976 39.9707 27.5692C40.2168 27.8897 40.4866 28.196 40.656 28.3881C40.8043 27.9878 40.9881 27.6125 41.2033 27.2703L41.2517 27.1934L41.2649 27.2922C41.2716 27.3431 41.2863 27.3916 41.3078 27.4347C41.3192 27.4575 41.3325 27.4786 41.3473 27.4975C41.3542 27.4649 41.3637 27.4296 41.3743 27.3937C41.395 27.3235 41.422 27.2444 41.4487 27.1662L41.449 27.1654C41.4758 27.0868 41.5023 27.0092 41.5231 26.9395C41.5442 26.8685 41.5579 26.8105 41.5609 26.7708L41.5676 26.6814L41.6188 26.7398C41.6308 26.7536 41.6487 26.7725 41.6706 26.7956C41.7163 26.8438 41.7794 26.9104 41.8431 26.9871C41.8417 26.8512 41.8571 26.72 41.8717 26.5962C41.8734 26.582 41.875 26.5679 41.8767 26.5538C41.8969 26.3786 41.9113 26.2194 41.8785 26.0664L41.8597 25.9787L41.9241 26.0094C41.9574 26.0253 41.9801 26.0544 41.998 26.0855C42.0086 26.1041 42.0195 26.127 42.0297 26.1487C42.0351 26.1601 42.0403 26.1712 42.0452 26.1811C42.0663 26.2231 42.0916 26.2652 42.1341 26.2983C42.1215 26.2359 42.113 26.1656 42.1073 26.0918C42.0979 25.9728 42.0955 25.8408 42.096 25.7112C42.0963 25.6052 42.0986 25.5 42.1007 25.4042C42.1012 25.3828 42.1016 25.3619 42.102 25.3415C42.1043 25.229 42.1056 25.1354 42.1022 25.0725L42.1692 25.0496C42.1841 25.0928 42.1955 25.1311 42.2055 25.1645C42.2089 25.1756 42.212 25.1862 42.2151 25.1962C42.2276 25.237 42.2389 25.2698 42.2544 25.301C42.2789 25.35 42.3162 25.399 42.3924 25.464C42.3833 25.4054 42.3706 25.3393 42.3561 25.2686C42.347 25.2244 42.3372 25.1783 42.3272 25.1314C42.312 25.0597 42.2964 24.9863 42.2826 24.9158C42.2596 24.7988 42.2405 24.6845 42.2345 24.5889C42.2315 24.5412 42.2317 24.496 42.237 24.4565C42.2423 24.4172 42.2532 24.3796 42.2741 24.3517L42.2966 24.3217L42.3213 24.3485C42.3613 24.3922 42.3973 24.4513 42.4296 24.5043C42.4312 24.507 42.4328 24.5096 42.4344 24.5123C42.4454 24.5303 42.4558 24.5473 42.466 24.5632C42.4445 24.3369 42.3938 24.1169 42.3159 23.9131C42.224 23.6728 42.0963 23.4601 41.9405 23.2881C41.1601 22.5919 40.6121 22.5215 40.3055 22.5204C40.2669 22.5202 40.232 22.5212 40.2005 22.5222C40.1963 22.5223 40.1921 22.5224 40.188 22.5226C40.1617 22.5234 40.1377 22.5242 40.1166 22.5241C40.0923 22.5241 40.0701 22.523 40.0513 22.5192C40.0329 22.5155 40.0136 22.5085 39.9981 22.4926C39.9807 22.4747 39.9719 22.4496 39.9707 22.4212C39.9696 22.3956 39.9747 22.3679 39.9824 22.3396C39.9911 22.3076 40.005 22.269 40.0236 22.2229ZM40.1333 22.1543L40.1371 22.1492L40.098 22.0732C39.6062 22.3657 39.1712 22.8045 38.8264 23.3561C38.4817 23.9077 38.2364 24.5573 38.1094 25.255L38.0859 25.3837L38.1649 25.3033C38.2755 25.1907 38.3894 25.084 38.5063 24.9834C38.4389 25.3087 38.4895 25.6663 38.5695 26.0236C38.6017 26.1674 38.6392 26.3132 38.6764 26.458C38.6918 26.5178 38.7071 26.5775 38.722 26.6367C38.7732 26.8404 38.8196 27.0406 38.8473 27.2342L38.8565 27.2991L38.8994 27.266C38.9175 27.252 38.9351 27.2385 38.9522 27.2254C39.1566 27.0685 39.2884 26.9674 39.3831 26.7569C39.422 26.8685 39.4851 26.9917 39.5616 27.1186C39.6623 27.2856 39.7888 27.4634 39.9216 27.6363C40.1719 27.9623 40.4464 28.2735 40.6153 28.465C40.6256 28.4767 40.6355 28.4879 40.645 28.4986L40.6797 28.538L40.6994 28.4832C40.839 28.0962 41.012 27.7323 41.2148 27.399C41.2239 27.4297 41.2355 27.4591 41.2493 27.4867C41.2762 27.5404 41.3111 27.5862 41.3519 27.6211L41.4026 27.6646L41.406 27.5843C41.4074 27.5505 41.4194 27.497 41.4397 27.428C41.4597 27.3606 41.4858 27.2838 41.5127 27.205L41.5135 27.2029C41.5399 27.1253 41.5671 27.0459 41.5884 26.9741C41.6002 26.9346 41.6107 26.896 41.6184 26.8602C41.6226 26.8647 41.627 26.8693 41.6315 26.8741C41.693 26.9389 41.7789 27.0295 41.8593 27.1367L41.9317 27.2333L41.919 27.0977C41.9035 26.932 41.9223 26.7717 41.9414 26.6089C41.943 26.5953 41.9446 26.5817 41.9461 26.5681C41.9606 26.4433 41.9736 26.3162 41.9659 26.1897C41.9664 26.1907 41.9668 26.1916 41.9673 26.1926C41.973 26.2047 41.9792 26.218 41.9867 26.2331C42.023 26.3057 42.0748 26.3852 42.1839 26.4268L42.2581 26.455L42.2254 26.3618C42.2015 26.294 42.1862 26.1971 42.1772 26.0821C42.1683 25.9679 42.1658 25.8398 42.1663 25.7116C42.1666 25.6069 42.1689 25.5031 42.171 25.4074C42.1714 25.3858 42.1719 25.3647 42.1723 25.3441C42.1726 25.3294 42.1729 25.3149 42.1732 25.3007C42.1799 25.3184 42.1873 25.3357 42.1959 25.353C42.2356 25.4324 42.2975 25.5024 42.4222 25.5974L42.4824 25.6433L42.4746 25.5514C42.4672 25.4653 42.4471 25.3573 42.4239 25.2439C42.4144 25.1978 42.4045 25.151 42.3945 25.104C42.3795 25.0333 42.3643 24.9621 42.3506 24.8921C42.3278 24.7759 42.31 24.6681 42.3046 24.5812C42.3019 24.5377 42.3024 24.5015 42.3062 24.473C42.3068 24.4684 42.3075 24.4641 42.3083 24.4601C42.3311 24.4915 42.3535 24.5283 42.3769 24.5666L42.3798 24.5714C42.4133 24.6263 42.4498 24.6859 42.4898 24.7232L42.5496 24.779L42.545 24.6819C42.5317 24.3991 42.4751 24.123 42.3786 23.8705C42.282 23.6181 42.1477 23.3948 41.9839 23.2143L41.9825 23.2128L41.9811 23.2115C41.1872 22.5027 40.6248 22.4278 40.3057 22.4266C40.2661 22.4265 40.2304 22.4274 40.1989 22.4284C40.1946 22.4286 40.1903 22.4287 40.1862 22.4288C40.1598 22.4297 40.1368 22.4304 40.1167 22.4304C40.0932 22.4303 40.0753 22.4292 40.0618 22.4265C40.0482 22.4237 40.0428 22.42 40.0411 22.4185C40.0411 22.418 40.041 22.4171 40.0409 22.4159C40.0406 22.4091 40.042 22.3955 40.0485 22.3717C40.0612 22.325 40.0887 22.2563 40.1333 22.1543Z" fill="black"/>
<path d="M38.7422 26.2965C38.8969 25.8934 39.0375 25.7622 39.1359 25.4997C39.3047 25.0496 39.3328 24.6746 39.4875 24.7309C39.6281 24.7871 39.6281 24.9747 39.4383 25.4247C39.2484 25.8747 39.157 25.9684 38.7422 26.2965ZM39.7687 27.2528C39.7547 26.9528 39.818 26.8215 39.8109 26.6247C39.7828 26.2684 39.6773 26.034 39.818 26.0153C39.9586 26.0059 40.0219 26.1184 40.0219 26.4653C40.0219 26.8215 39.9797 26.9153 39.7687 27.2528ZM40.5492 27.8528C40.4859 27.4309 40.5352 27.2434 40.493 26.9622C40.4227 26.4747 40.2891 26.1559 40.4227 26.109C40.5492 26.0622 40.6336 26.2215 40.6828 26.7184C40.725 27.2059 40.7039 27.3465 40.5492 27.8622V27.8528ZM41.3578 24.8528C41.168 24.6653 41.0555 24.6465 40.9359 24.5247C40.725 24.2997 40.6125 24.0746 40.5422 24.1871C40.4719 24.2996 40.5211 24.4309 40.7531 24.6278C40.9852 24.8247 41.0484 24.8434 41.3578 24.8528ZM41.2242 26.2778C41.1258 25.9965 41.0133 25.9309 40.957 25.7528C40.8445 25.434 40.8445 25.1622 40.7109 25.2278C40.5914 25.3028 40.5773 25.4434 40.7109 25.7528C40.8516 26.0528 40.9219 26.109 41.2172 26.2778H41.2242Z" fill="#B3B3B3"/>
<path d="M3.78242 22.9309C3.7543 22.6871 3.79648 22.6496 3.68398 22.4621C3.85273 22.5559 3.85273 22.809 4.05664 22.6309C4.12695 22.584 4.16211 22.584 4.0707 22.3027C4.28164 22.3215 4.96367 22.6309 5.07617 22.6402C5.36445 22.659 5.8918 22.2371 6.25742 22.7527C6.60898 23.2215 6.48242 23.7184 6.48242 24.3652C6.3418 24.2715 6.41211 24.2434 6.25742 23.9996C6.36992 24.5809 6.25742 25.6027 6.25742 26.2121C6.20117 26.0621 6.2082 26.1277 6.15195 25.9777C6.01133 26.5309 5.82852 26.634 5.82852 27.2996C5.77227 27.0371 5.82852 27.0934 5.76523 26.9621C5.62461 27.384 4.64023 27.7402 5.01992 28.1621C4.68242 27.8996 4.52773 27.9184 4.38711 27.6934C4.3168 27.7402 4.26055 27.8527 4.2043 27.9934C3.60664 27.6371 3.81758 26.8496 3.35352 26.3152C3.26914 26.5402 3.3043 26.5121 3.21289 26.8684C3.12852 26.3715 3.10039 26.0527 2.99492 25.6871C2.90352 25.8934 2.91055 25.809 2.7418 26.1184C2.67148 25.5184 2.56602 25.3684 2.60117 24.9652C2.43242 25.134 2.54492 25.059 2.36914 25.2652C2.53789 23.7184 3.25508 22.5652 3.77539 22.9215L3.78242 22.9309Z" fill="#333333"/>
<path fill-rule="evenodd" clip-rule="evenodd" d="M3.99959 22.2354L4.07436 22.242C4.13167 22.2471 4.2175 22.2713 4.31268 22.303C4.40887 22.3351 4.51808 22.3761 4.6236 22.4165C4.65574 22.4288 4.6875 22.4411 4.71847 22.453C4.78954 22.4805 4.85643 22.5063 4.91407 22.5275C4.9554 22.5427 4.99145 22.5554 5.02044 22.5646C5.05014 22.5739 5.06954 22.5786 5.07936 22.5795C5.14419 22.5836 5.22514 22.5629 5.32148 22.5338C5.33739 22.529 5.35367 22.524 5.37027 22.5189C5.45199 22.4938 5.54137 22.4663 5.63226 22.4498C5.85227 22.41 6.09347 22.4325 6.29081 22.7103C6.47569 22.9571 6.53516 23.2135 6.54799 23.4885C6.55433 23.6244 6.54932 23.7651 6.54295 23.9099C6.54214 23.9283 6.54131 23.9468 6.54047 23.9653C6.5347 24.0937 6.52874 24.2259 6.52874 24.3653V24.4639L6.4626 24.4198C6.42564 24.3952 6.39919 24.3727 6.37894 24.3472C6.36085 24.3245 6.34942 24.3014 6.33978 24.2781C6.35896 24.5277 6.35576 24.8143 6.34588 25.0982C6.34052 25.2523 6.33322 25.4054 6.3262 25.5526C6.31458 25.796 6.30374 26.0232 6.30374 26.2122L6.21716 26.2394C6.19102 26.1697 6.18017 26.1511 6.17004 26.1338L6.16923 26.1324C6.16685 26.1283 6.16449 26.1243 6.16206 26.1199C6.1206 26.2591 6.07681 26.3704 6.03715 26.4712C6.01648 26.5237 5.99693 26.5733 5.97942 26.6226C5.9189 26.793 5.87484 26.9763 5.87484 27.2997L5.78519 27.3164C5.75898 27.1941 5.75585 27.1358 5.75478 27.097C5.70538 27.1763 5.63598 27.2499 5.56293 27.3182C5.50889 27.3688 5.45043 27.4186 5.39258 27.4675C5.38565 27.4734 5.37872 27.4792 5.37181 27.485C5.32078 27.5281 5.27064 27.5704 5.22364 27.6127C5.1147 27.7107 5.03212 27.8007 4.99706 27.8855C4.98057 27.9253 4.97636 27.9599 4.98223 27.9926C4.98832 28.0265 5.00691 28.0677 5.0498 28.1154L4.99751 28.2148C4.85976 28.1077 4.75381 28.0487 4.66461 27.9991C4.64653 27.989 4.62913 27.9794 4.6123 27.9697C4.52329 27.9189 4.44898 27.869 4.37951 27.7726C4.36231 27.7907 4.34497 27.8149 4.32721 27.8455C4.29966 27.8931 4.27295 27.9528 4.24524 28.0221L4.22518 28.0723L4.18626 28.0491C3.86978 27.8604 3.76746 27.5541 3.68624 27.2411C3.6775 27.2074 3.66902 27.1738 3.66055 27.1402C3.59569 26.8832 3.53218 26.6315 3.36862 26.416C3.3482 26.4764 3.33972 26.513 3.33061 26.5584C3.32862 26.5683 3.32659 26.5787 3.32443 26.5897C3.31239 26.6514 3.29601 26.7351 3.25675 26.8882L3.20455 27.0916L3.16893 26.8819C3.14362 26.7328 3.12347 26.6008 3.10495 26.4795C3.0676 26.2349 3.03688 26.0337 2.98386 25.8237C2.96528 25.8575 2.94977 25.8798 2.93118 25.906L2.92904 25.909C2.8996 25.9505 2.8604 26.0057 2.77938 26.1543L2.71433 26.2735L2.69726 26.1278C2.66987 25.8941 2.63732 25.7309 2.60945 25.5911C2.60197 25.5537 2.59484 25.5179 2.58823 25.4829C2.56425 25.3559 2.54767 25.241 2.54921 25.1002C2.53627 25.1166 2.53123 25.1261 2.52611 25.1357L2.52571 25.1365C2.52523 25.1374 2.52476 25.1382 2.52428 25.1391C2.50744 25.1709 2.48774 25.208 2.39995 25.311L2.30664 25.4205L2.32453 25.2565C2.40989 24.4741 2.63412 23.7884 2.90553 23.3414C3.04115 23.1181 3.19043 22.9513 3.34242 22.864C3.47154 22.7898 3.6034 22.7728 3.72819 22.8286C3.72727 22.813 3.72658 22.7984 3.72599 22.7847C3.72565 22.7769 3.72535 22.7696 3.72506 22.7626C3.72378 22.7312 3.72281 22.7074 3.72025 22.6844C3.71477 22.635 3.70191 22.5886 3.64891 22.5002L3.70218 22.4059C3.75139 22.4333 3.78767 22.472 3.81684 22.509C3.82893 22.5243 3.84018 22.5399 3.85025 22.5538C3.85212 22.5564 3.85395 22.5589 3.85574 22.5613C3.86756 22.5776 3.87756 22.591 3.88733 22.6021C3.90622 22.6234 3.9205 22.6319 3.9369 22.632C3.95527 22.632 3.98449 22.6216 4.03221 22.58L4.03444 22.578L4.03682 22.5764C4.04333 22.5721 4.04873 22.5686 4.05333 22.5656C4.06384 22.5588 4.07013 22.5548 4.07574 22.5495C4.0798 22.5457 4.07991 22.5447 4.08005 22.5433C4.08007 22.5432 4.08009 22.543 4.08012 22.5428C4.08106 22.5365 4.08141 22.5199 4.07356 22.4826C4.06594 22.4463 4.05198 22.3965 4.02939 22.327L3.99959 22.2354ZM3.74889 22.9716C3.63483 22.8967 3.50921 22.9009 3.37859 22.9759C3.2445 23.0529 3.10637 23.2043 2.97657 23.4181C2.73814 23.8107 2.5341 24.4035 2.43788 25.0903C2.44243 25.0825 2.44577 25.0762 2.44884 25.0703C2.44961 25.0689 2.45036 25.0674 2.45112 25.066C2.47019 25.0301 2.48877 25.0021 2.57437 24.9165L2.65947 24.8314L2.64719 24.9723C2.63047 25.164 2.64689 25.2944 2.67687 25.4532C2.68315 25.4864 2.69006 25.521 2.69738 25.5577C2.7196 25.6691 2.74563 25.7995 2.76954 25.9691C2.8135 25.8945 2.84093 25.8559 2.8633 25.8243L2.86478 25.8223C2.89345 25.7818 2.91241 25.755 2.95619 25.6562L3.00427 25.5477L3.0382 25.6653C3.11423 25.9289 3.15122 26.1711 3.19608 26.4648C3.20424 26.5183 3.21265 26.5734 3.22161 26.6306C3.22736 26.6031 3.2319 26.5798 3.23601 26.5588C3.2382 26.5476 3.24026 26.5371 3.24231 26.5269C3.25637 26.4569 3.26984 26.4038 3.31326 26.2881L3.33953 26.218L3.38401 26.2692C3.60105 26.5191 3.67759 26.8239 3.74733 27.1016C3.75578 27.1353 3.76413 27.1685 3.77262 27.2012C3.84769 27.4905 3.93395 27.7454 4.18554 27.9138C4.20761 27.8617 4.23048 27.8131 4.25488 27.771C4.287 27.7156 4.32364 27.668 4.36729 27.6389L4.39966 27.6173L4.42284 27.6544C4.48619 27.7558 4.55203 27.8027 4.64831 27.8577C4.66436 27.8669 4.68122 27.8763 4.69895 27.8861C4.75366 27.9165 4.81672 27.9516 4.89026 27.9998C4.88342 27.9384 4.89495 27.8799 4.91702 27.8266C4.96414 27.7127 5.06525 27.6082 5.17252 27.5117C5.22072 27.4683 5.27208 27.425 5.32298 27.382C5.32988 27.3762 5.33678 27.3704 5.34366 27.3645C5.40155 27.3156 5.45834 27.2672 5.51042 27.2185C5.61696 27.1188 5.69464 27.0258 5.72409 26.9374L5.75849 26.8342L5.8043 26.9292C5.80501 26.9307 5.80571 26.9322 5.80639 26.9336C5.82653 26.7911 5.85853 26.6782 5.89681 26.5705C5.91687 26.514 5.93792 26.4606 5.95946 26.4059C6.00896 26.2802 6.06101 26.1481 6.10929 25.9582L6.14446 25.8199L6.19345 25.9505C6.20249 25.9746 6.2097 25.9926 6.21568 26.0066C6.21986 25.8619 6.22743 25.7028 6.23526 25.5383C6.24223 25.392 6.2494 25.2413 6.25457 25.0926C6.26865 24.6878 6.26811 24.2956 6.21379 24.0149L6.29293 23.9603C6.3637 24.0718 6.39034 24.1422 6.40872 24.1907C6.41138 24.1977 6.41387 24.2043 6.4163 24.2105C6.42404 24.2302 6.43 24.2427 6.43848 24.2544C6.44052 24.1514 6.44498 24.0524 6.44924 23.9577C6.45007 23.9393 6.4509 23.9209 6.4517 23.9028C6.45807 23.7578 6.46272 23.6238 6.45676 23.496C6.445 23.2439 6.39205 23.0177 6.22572 22.7959L6.22527 22.7953L6.22483 22.7947C6.05663 22.5575 5.85153 22.5331 5.64456 22.5706C5.55822 22.5862 5.4737 22.6122 5.39202 22.6373C5.37511 22.6425 5.35831 22.6477 5.34165 22.6527C5.24677 22.6813 5.15381 22.7063 5.07456 22.7012L5.07394 22.7011C5.05554 22.6996 5.02911 22.6925 4.99943 22.6832C4.96877 22.6735 4.93143 22.6604 4.88971 22.645C4.83152 22.6235 4.76377 22.5974 4.69242 22.5699C4.66157 22.558 4.63005 22.5458 4.59834 22.5336C4.49292 22.4932 4.38504 22.4528 4.29051 22.4212C4.23487 22.4027 4.18499 22.3877 4.14353 22.3775C4.15112 22.4045 4.15711 22.4284 4.16158 22.4497C4.17066 22.4929 4.17496 22.532 4.16975 22.5667C4.16384 22.6061 4.14713 22.6316 4.12821 22.6493C4.11603 22.6607 4.10023 22.6709 4.08734 22.6792C4.08474 22.6808 4.08227 22.6824 4.07996 22.6839C4.02671 22.73 3.98019 22.754 3.93658 22.7538C3.89036 22.7536 3.85586 22.7263 3.82817 22.695C3.82248 22.6885 3.81694 22.6817 3.81154 22.6748C3.81414 22.7015 3.81527 22.7293 3.81643 22.758C3.81669 22.7645 3.81696 22.7711 3.81724 22.7777C3.81896 22.8175 3.82149 22.8634 3.82821 22.9217L3.84944 23.1057L3.74889 22.9716Z" fill="black"/>
<path d="M3.05273 25.4718C3.20039 24.9655 3.33398 24.8155 3.43945 24.4968C3.61523 23.9249 3.64336 23.4655 3.79102 23.5312C3.93164 23.6062 3.93164 23.8312 3.73477 24.3937C3.53789 24.9562 3.45352 25.0687 3.05273 25.4718ZM3.6293 26.7187C3.68555 26.2687 3.78398 26.1187 3.82617 25.8187C3.89648 25.3124 3.86133 24.9374 3.99492 24.9562C4.13555 24.9749 4.16367 25.1718 4.07227 25.6687C3.98086 26.1843 3.91758 26.3062 3.62227 26.7187H3.6293ZM4.31836 27.5999C4.33945 27.1687 4.4168 26.9905 4.43086 26.7093C4.45195 26.2218 4.37461 25.8655 4.50117 25.8655C4.6418 25.8655 4.68398 26.0437 4.6418 26.5312C4.59961 27.0187 4.55742 27.1499 4.31836 27.5999ZM5.80898 24.7499C5.52773 24.3749 5.35898 24.2999 5.17617 24.0562C4.85273 23.6249 4.69102 23.2312 4.57148 23.3718C4.45898 23.5124 4.5293 23.7187 4.87383 24.1218C5.21133 24.5437 5.33086 24.5999 5.81602 24.7499H5.80898ZM5.64023 26.2124C5.45742 25.8374 5.3168 25.7343 5.19727 25.4812C4.98633 25.0593 4.91602 24.6937 4.79648 24.778C4.67695 24.8718 4.70508 25.0593 4.93008 25.4812C5.16211 25.8937 5.24648 25.9687 5.64023 26.2124Z" fill="#B3B3B3"/>
<path d="M18.3801 14.5684C18.0426 15.4309 18.9637 14.2871 20.4051 15.7309C20.7554 16.2307 20.9813 16.8626 21.052 17.5402C20.7583 17.4151 20.4754 17.2485 20.2082 17.0434C20.2082 17.0434 20.841 17.9059 20.841 18.8809C20.616 18.6934 20.5035 18.7215 20.4191 18.4965C20.4191 18.8059 20.6301 19.0121 20.6301 19.4996C20.4915 19.351 20.3433 19.2192 20.1871 19.1059C20.398 19.6027 19.8004 20.559 20.1027 20.8684C19.8489 20.8218 19.605 20.7063 19.3861 20.5289C19.1672 20.3515 18.9779 20.1161 18.8301 19.8371C18.7176 19.9309 18.7035 20.0902 18.6965 20.2684C18.7176 20.2777 17.902 19.4527 17.9793 19.1434C17.8862 19.2985 17.8321 19.4887 17.8246 19.6871C17.5164 19.3447 17.2832 18.8977 17.1496 18.3934C17.023 18.6184 17.009 18.6184 16.8754 18.8621C16.777 18.0465 16.777 18.0746 16.9738 17.3809C16.8375 17.5062 16.7061 17.6407 16.5801 17.784C16.6829 17.1038 16.8977 16.4625 17.209 15.9064C17.5203 15.3503 17.9202 14.8933 18.3801 14.5684Z" fill="#333333"/>
<path fill-rule="evenodd" clip-rule="evenodd" d="M18.3019 14.6795C17.8863 14.9955 17.5237 15.4227 17.237 15.9348C16.9492 16.4491 16.7447 17.0369 16.636 17.661C16.7386 17.5492 16.8446 17.443 16.9537 17.3427L17.0464 17.2575L17.0066 17.3979C17.0025 17.4123 16.9984 17.4265 16.9945 17.4403C16.9035 17.7607 16.86 17.9139 16.8487 18.0804C16.838 18.2384 16.8563 18.409 16.8967 18.7453C16.9348 18.678 16.9616 18.634 16.9878 18.5914C16.9907 18.5867 16.9936 18.582 16.9964 18.5774C17.0295 18.5236 17.0636 18.4683 17.1213 18.3656L17.1608 18.2956L17.1826 18.3782C17.3066 18.8464 17.5179 19.2644 17.7961 19.5932C17.815 19.4185 17.8685 19.2531 17.9517 19.1145L18.0125 19.1586C18.0065 19.1826 18.008 19.2172 18.0215 19.2647C18.0348 19.3115 18.0584 19.3653 18.0901 19.424C18.1534 19.5412 18.2456 19.6707 18.3409 19.7919C18.436 19.9128 18.5329 20.024 18.6049 20.1045C18.6283 20.1307 18.649 20.1535 18.6662 20.1725C18.6766 20.0275 18.7046 19.8867 18.8113 19.7978L18.8395 19.7743L18.8586 19.8105C19.0037 20.0842 19.1894 20.3152 19.4042 20.4893C19.5921 20.6415 19.7988 20.7473 20.0142 20.802C19.9821 20.7226 19.9757 20.6277 19.9829 20.5282C19.9936 20.381 20.0348 20.2117 20.0772 20.043C20.0797 20.0327 20.0823 20.0225 20.0849 20.0123C20.1253 19.8513 20.1658 19.6902 20.1856 19.5397C20.2068 19.3793 20.2031 19.2395 20.1564 19.1294L20.0958 18.9867L20.2038 19.0651C20.3393 19.1635 20.469 19.2756 20.5916 19.4004C20.5799 19.2175 20.5368 19.0782 20.4926 18.9514C20.4867 18.9346 20.4808 18.9179 20.4749 18.9012C20.429 18.7723 20.3838 18.6453 20.3838 18.4969L20.4504 18.4759C20.4884 18.5772 20.5311 18.62 20.5929 18.6612C20.6106 18.673 20.6305 18.6849 20.6525 18.6981C20.6952 18.7238 20.7459 18.7543 20.8042 18.7978C20.7876 18.3539 20.6421 17.9364 20.4947 17.6217C20.4165 17.4551 20.3384 17.3184 20.2798 17.2236C20.2505 17.1761 20.2262 17.1392 20.2092 17.1142C20.2007 17.1017 20.1941 17.0922 20.1896 17.0858C20.1874 17.0827 20.1856 17.0803 20.1845 17.0787L20.1833 17.077L20.1829 17.0765C20.1829 17.0765 20.1829 17.0765 20.1882 17.0696C20.1918 17.0649 20.1979 17.057 20.2081 17.0438H20.1729V16.9627L20.2256 17.0031C20.4742 17.194 20.7365 17.3512 21.0086 17.4725C20.9307 16.8341 20.7127 16.2401 20.3814 15.7663C19.6694 15.0544 19.0877 14.9812 18.7252 14.9789C18.6796 14.9786 18.6373 14.9795 18.5984 14.9803C18.5951 14.9804 18.5918 14.9805 18.5885 14.9805C18.5536 14.9813 18.5213 14.982 18.4921 14.9818C18.4303 14.9813 18.3754 14.977 18.3369 14.954C18.3163 14.9417 18.2983 14.923 18.2869 14.8946C18.2758 14.8668 18.2733 14.8352 18.276 14.8022C18.2787 14.7674 18.2876 14.7267 18.3019 14.6795ZM18.3799 14.5688L18.3635 14.5273C17.899 14.8555 17.4951 15.3171 17.1807 15.8788C16.8663 16.4404 16.6493 17.0881 16.5455 17.7751L16.5254 17.908L16.6027 17.8201C16.6988 17.7109 16.798 17.6068 16.9001 17.508C16.8286 17.761 16.7896 17.9107 16.7787 18.072C16.7663 18.2552 16.7901 18.4527 16.8362 18.8338C16.8376 18.8457 16.8391 18.8577 16.8405 18.87L16.8539 18.9809L16.9036 18.8902C16.97 18.7691 17.0065 18.7089 17.0422 18.6508C17.0451 18.6462 17.0479 18.6415 17.0508 18.6368C17.076 18.5959 17.1021 18.5536 17.1387 18.4902C17.2773 18.9694 17.5054 19.3941 17.802 19.7235L17.856 19.7836L17.8596 19.6899C17.8651 19.545 17.8967 19.4047 17.9511 19.2807C17.9526 19.2864 17.9541 19.2922 17.9558 19.298C17.9721 19.3554 17.9995 19.4168 18.033 19.4788C18.1002 19.603 18.1961 19.7372 18.2924 19.8597C18.389 19.9826 18.4872 20.0952 18.5597 20.1764C18.5865 20.2063 18.6098 20.232 18.6282 20.2523C18.6348 20.2596 18.6407 20.2661 18.646 20.2719C18.6517 20.2782 18.6565 20.2835 18.6604 20.2879L18.6598 20.3019L18.6852 20.3132C18.6864 20.3137 18.6886 20.3146 18.6914 20.3152C18.6935 20.3156 18.7 20.3167 18.7077 20.3133C18.7179 20.3088 18.7279 20.2972 18.731 20.2792C18.732 20.2736 18.7321 20.2685 18.7317 20.2642C18.7382 20.1053 18.7514 19.9831 18.822 19.903C18.9695 20.1704 19.1548 20.3969 19.3677 20.5694C19.5907 20.7501 19.8392 20.8678 20.0978 20.9152L20.2293 20.9393L20.124 20.8316C20.0623 20.7685 20.0432 20.6709 20.0529 20.5372C20.0626 20.4026 20.1009 20.2438 20.1438 20.0727C20.1466 20.0619 20.1493 20.0511 20.152 20.0402C20.192 19.8811 20.2341 19.7137 20.2549 19.5559C20.2705 19.437 20.2747 19.3193 20.2552 19.2116C20.3785 19.3083 20.4964 19.4169 20.6079 19.5365L20.6651 19.5979V19.5C20.6651 19.2461 20.6099 19.0653 20.5563 18.9119C20.5503 18.8946 20.5443 18.8777 20.5385 18.8613C20.5151 18.795 20.4938 18.735 20.4785 18.6756C20.5037 18.7032 20.5311 18.7248 20.5615 18.7451C20.5828 18.7593 20.6048 18.7725 20.6282 18.7865C20.6828 18.8192 20.7446 18.8563 20.8222 18.921L20.876 18.9658V18.8813C20.876 18.381 20.714 17.9127 20.5543 17.572C20.4858 17.4259 20.4173 17.3024 20.3614 17.2089C20.5795 17.3595 20.8069 17.4855 21.0411 17.5853L21.0943 17.608L21.0866 17.5342C21.015 16.847 20.7859 16.2061 20.4306 15.6993L20.4285 15.6963L20.4261 15.6938C19.6977 14.9643 19.0991 14.8875 18.7255 14.8852C18.6791 14.8849 18.6362 14.8857 18.5973 14.8866C18.594 14.8867 18.5907 14.8867 18.5875 14.8868C18.5524 14.8876 18.5208 14.8883 18.4925 14.8881C18.4286 14.8876 18.3885 14.8821 18.3656 14.8685C18.3555 14.8624 18.3513 14.8562 18.349 14.8506C18.3465 14.8444 18.3442 14.8332 18.3459 14.8121C18.3494 14.7677 18.3689 14.6982 18.4111 14.5904L18.3799 14.5688Z" fill="black"/>
<path d="M17.5508 18.7692C17.607 18.1786 17.7195 17.9629 17.7617 17.5692C17.818 16.9129 17.7477 16.4067 17.9305 16.4254C18.0992 16.4442 18.1555 16.6879 18.0711 17.3629C17.9797 18.0286 17.9023 18.1879 17.5578 18.7786L17.5508 18.7692ZM18.4859 19.8567C18.4508 19.3692 18.5211 19.1442 18.493 18.8254C18.4578 18.2629 18.3242 17.8692 18.4789 17.8411C18.6336 17.8036 18.718 17.9911 18.732 18.5723C18.7461 19.1348 18.7109 19.2942 18.4859 19.8567ZM19.9484 20.7567C19.7867 20.3161 19.6461 20.1942 19.5477 19.9129C19.3648 19.4161 19.3227 19.0223 19.1891 19.0879C19.0484 19.1629 19.0555 19.3692 19.2594 19.8567C19.4562 20.3254 19.5477 20.4286 19.9414 20.7567H19.9484ZM20.4477 16.8661C20.0398 16.5848 19.8359 16.5848 19.5758 16.3973C19.1187 16.0786 18.8516 15.7317 18.7602 15.9286C18.6617 16.1161 18.7883 16.3129 19.2594 16.6036C19.7305 16.8942 19.8781 16.9036 20.4406 16.8661H20.4477ZM20.5883 18.4879C20.307 18.1692 20.1242 18.1129 19.9344 17.9067C19.5969 17.5317 19.4352 17.1848 19.3297 17.3254C19.2172 17.4754 19.2875 17.6629 19.6391 18.0098C19.9906 18.3567 20.1102 18.3942 20.5953 18.4879H20.5883Z" fill="#B3B3B3"/>
</g>
<defs>
<clipPath id="clip0_45_20816">
<rect width="45" height="45" fill="white"/>
</clipPath>
</defs>
</svg>
