<svg width="45" height="45" viewBox="0 0 45 45" fill="none" xmlns="http://www.w3.org/2000/svg">
<g clip-path="url(#clip0_45_21020)">
<path d="M0 0H45V45H0V0Z" fill="#006600"/>
<path d="M0 0H45V32.1469H0V0Z" fill="white"/>
<path d="M0 0H45V12.8531H0V0Z" fill="#CC0000"/>
<path d="M21.1484 21.8996C21.2147 21.7498 21.3155 21.6326 21.4358 21.5654C21.5561 21.4983 21.6894 21.4848 21.816 21.527C21.9425 21.5691 22.0554 21.6647 22.1378 21.7995C22.2203 21.9342 22.2678 22.1009 22.2734 22.2746V25.4996H22.7234V22.284C22.729 22.1102 22.7766 21.9436 22.859 21.8088C22.9415 21.6741 23.0544 21.5785 23.1809 21.5363C23.3074 21.4942 23.4408 21.5077 23.5611 21.5748C23.6814 21.642 23.7822 21.7592 23.8484 21.909C23.9182 21.6246 23.9364 21.3223 23.9016 21.0268C23.8668 20.7313 23.78 20.4509 23.6483 20.2088C23.5165 19.9666 23.3437 19.7695 23.1438 19.6336C22.944 19.4976 22.7228 19.4268 22.4984 19.4268C22.2741 19.4268 22.0529 19.4976 21.8531 19.6336C21.6532 19.7695 21.4803 19.9666 21.3486 20.2088C21.2169 20.4509 21.1301 20.7313 21.0953 21.0268C21.0605 21.3223 21.0787 21.6246 21.1484 21.909" fill="#F8C300"/>
<path d="M21.4727 21.0653C21.6701 21.0109 21.8753 21.0404 22.0595 21.1497C22.2436 21.2591 22.3974 21.4427 22.4992 21.6747C22.601 21.4427 22.7548 21.2591 22.939 21.1497C23.1231 21.0404 23.3284 21.0109 23.5258 21.0653C23.4963 20.7299 23.3755 20.4206 23.1862 20.1961C22.997 19.9717 22.7525 19.8477 22.4992 19.8477C22.2459 19.8477 22.0015 19.9717 21.8122 20.1961C21.623 20.4206 21.5021 20.7299 21.4727 21.0653Z" fill="white"/>
<path d="M22.275 24.2158C22.2451 24.6727 22.1192 25.1091 21.9116 25.4749C21.7041 25.8406 21.4233 26.1208 21.1017 26.2834C20.78 26.4459 20.4305 26.4841 20.0933 26.3937C19.7561 26.3033 19.4448 26.0878 19.1953 25.7721C19.0895 26.1321 18.9232 26.455 18.7093 26.7161C18.4953 26.9771 18.2393 27.1693 17.961 27.278C17.6826 27.3866 17.3893 27.4087 17.1036 27.3427C16.8178 27.2767 16.5472 27.1242 16.3125 26.8971C16.4883 29.2408 19.125 28.7627 19.3219 26.4846C20.1445 28.4252 21.9656 27.8627 22.5 25.4908L22.275 24.2158Z" fill="#F8C300"/>
<path d="M20.5172 28.3691C20.1445 29.4285 19.4133 29.6066 18.7734 28.7535C18.7734 28.7535 19.0266 28.5098 19.3078 28.4441C19.2516 28.1535 19.357 27.741 19.5117 27.5254C19.7165 27.7045 19.8681 27.9729 19.9406 28.2848C20.3273 28.2191 20.5172 28.3785 20.5172 28.3785V28.3691Z" fill="#F8C300"/>
<path fill-rule="evenodd" clip-rule="evenodd" d="M27.0664 31.2256C24.0874 30.0433 20.9145 30.0433 17.9355 31.2256L17.7148 30.2372C20.8379 28.9978 24.164 28.9978 27.2871 30.2372L27.0664 31.2256Z" fill="#F8C300"/>
<path d="M23.2278 16.7671L21.3223 14.9211H23.6777L21.7721 16.7671L22.5 13.7803L23.2278 16.7671Z" fill="#F8C300"/>
</g>
<defs>
<clipPath id="clip0_45_21020">
<rect width="45" height="45" fill="white"/>
</clipPath>
</defs>
</svg>
