<svg width="45" height="45" viewBox="0 0 45 45" fill="none" xmlns="http://www.w3.org/2000/svg">
<g clip-path="url(#clip0_45_21041)">
<path fill-rule="evenodd" clip-rule="evenodd" d="M-2.8125 0H47.8125V45H-2.8125V0Z" fill="#00843D"/>
<path fill-rule="evenodd" clip-rule="evenodd" d="M14.541 12.085C16.3801 13.2627 18.5686 12.085 19.3596 10.4502C20.177 8.9209 20.2759 6.36328 18.8718 4.0166C21.0471 6.4248 21.5349 9.1582 20.4473 11.4082C18.9971 13.9834 15.7935 13.9043 14.541 12.085Z" fill="white"/>
<path fill-rule="evenodd" clip-rule="evenodd" d="M17.8049 6.09961L18.1741 6.1084L17.884 6.41602L17.9961 6.9082L17.6863 6.61816L17.3896 6.9082L17.4885 6.4248L17.1919 6.11719L17.561 6.1084L17.6863 5.625L17.8049 6.09961ZM15.979 9.1582H16.3481L16.0581 9.47461L16.1702 9.95801L15.8604 9.66797L15.5571 9.9668L15.6626 9.47461L15.366 9.17578L15.7351 9.1582L15.8538 8.6748L15.979 9.1582ZM16.0977 6.75H16.4734L16.1768 7.06641L16.2888 7.5498L15.9856 7.25977L15.6824 7.55859L15.7878 7.06641L15.4912 6.75879L15.8604 6.75L15.979 6.2666L16.0977 6.75ZM16.0977 4.33301H16.4734L16.1702 4.6582L16.2822 5.1416L15.979 4.86035L15.6758 5.15039L15.7813 4.66699L15.4846 4.35937L15.8538 4.35059L15.9724 3.86719L16.0977 4.33301ZM14.074 7.3916H14.4431L14.1465 7.70801L14.2585 8.19141L13.9553 7.90137L13.6521 8.2002L13.7576 7.70801L13.4609 7.40918L13.8301 7.3916L13.9487 6.9082L14.074 7.3916Z" fill="white"/>
<path fill-rule="evenodd" clip-rule="evenodd" d="M0.320312 0H11.1704V45H0.320312V0Z" fill="#CA3745"/>
<path fill-rule="evenodd" clip-rule="evenodd" d="M0.320312 11.7334V11.4082L0.768555 10.6084L0.682861 10.4414L0.946533 9.9668L0.86084 9.7998L0.682861 10.125L0.590576 9.9668L1.22339 8.8418L1.31567 9L1.22339 9.1582L1.40796 9.49219L1.8562 8.68359L1.40137 7.90137L1.22339 8.2002L1.31567 8.36719L1.22339 8.52539L0.590576 7.40039L0.682861 7.24219L0.86084 7.55859L0.953125 7.40039L0.682861 6.91699L0.768555 6.75879L0.320312 5.9502V5.625L0.953125 6.75L0.86084 6.9082L1.1311 7.3916L0.953125 7.7168L1.1311 8.0332L1.40796 7.55859L2.04736 8.70117L1.40796 9.80859L1.14429 9.3252L0.959717 9.65039L1.1377 9.97559L0.874023 10.4502L0.959717 10.6172L0.326904 11.7422L0.320312 11.7334Z" fill="#FAAE29"/>
<path fill-rule="evenodd" clip-rule="evenodd" d="M0.320312 7.7168L0.412598 8.0332V8.52539H0.682861L0.867432 8.68359L0.682861 8.85059H0.419189V9.32519L0.326904 9.65039V7.7168H0.320312Z" fill="#FAAE29"/>
<path fill-rule="evenodd" clip-rule="evenodd" d="M0.320312 19.4502V19.125L0.768555 18.3252L0.682861 18.1582L0.946533 17.6748L0.86084 17.5166L0.682861 17.8418L0.590576 17.6748L1.22339 16.5498L1.31567 16.7168L1.22339 16.875L1.40796 17.2002L1.8562 16.3916L1.40137 15.6094L1.22339 15.9082L1.31567 16.0752L1.22339 16.2334L0.590576 15.1084L0.682861 14.9414L0.86084 15.2578L0.953125 15.0996L0.682861 14.6162L0.768555 14.458L0.320312 13.6494V13.333L0.953125 14.458L0.86084 14.6162L1.1311 15.0996L0.953125 15.416L1.1311 15.7412L1.40137 15.2578L2.04077 16.4004L1.40137 17.5078L1.1377 17.0244L0.953125 17.3496L1.1311 17.666L0.867432 18.1494L0.953125 18.3164L0.320312 19.4414V19.4502Z" fill="#FAAE29"/>
<path fill-rule="evenodd" clip-rule="evenodd" d="M0.320312 15.4248L0.412598 15.75V16.2334H0.682861L0.867432 16.3916L0.682861 16.5498H0.419189V17.0332L0.326904 17.3584V15.4248H0.320312Z" fill="#FAAE29"/>
<path fill-rule="evenodd" clip-rule="evenodd" d="M0.320312 27.1582V26.8418L0.768555 26.0332L0.682861 25.875L0.946533 25.3916L0.86084 25.2334L0.682861 25.5498L0.590576 25.3916L1.22339 24.2666L1.31567 24.4248L1.22339 24.5918L1.40796 24.917L1.8562 24.1084L1.40137 23.3174L1.22339 23.625L1.31567 23.7832L1.22339 23.9414L0.590576 22.8164L0.682861 22.6582L0.86084 22.9834L0.953125 22.8164L0.682861 22.3418L0.768555 22.1748L0.320312 21.375V21.0498L0.953125 22.1748L0.86084 22.3418L1.1311 22.8164L0.953125 23.1416L1.1311 23.4668L1.40796 22.9834L2.04077 24.126L1.40137 25.2334L1.1377 24.75L0.953125 25.0664L1.1311 25.3916L0.867432 25.875L0.953125 26.0332L0.320312 27.1582Z" fill="#FAAE29"/>
<path fill-rule="evenodd" clip-rule="evenodd" d="M0.320312 23.1416L0.419189 23.4668V23.9502H0.682861L0.867432 24.1084L0.682861 24.2578H0.419189V24.7412L0.326904 25.0664V23.1328L0.320312 23.1416Z" fill="#FAAE29"/>
<path fill-rule="evenodd" clip-rule="evenodd" d="M0.320312 34.3916V34.0664L0.768555 33.2666L0.682861 33.1084L0.946533 32.625L0.86084 32.4668L0.682861 32.7832L0.590576 32.625L1.22339 31.5L1.31567 31.6582L1.22339 31.8164L1.40796 32.1416L1.8562 31.3418L1.40137 30.5508L1.22339 30.8584L1.31567 31.0166L1.22339 31.1748L0.590576 30.0498L0.682861 29.8916L0.86084 30.2168L0.953125 30.0498L0.682861 29.5664L0.768555 29.4082L0.320312 28.6084V28.2832L0.953125 29.4082L0.86084 29.5664L1.1311 30.0498L0.953125 30.375L1.1311 30.6914L1.40796 30.2168L2.04077 31.3594L1.40137 32.4668L1.1377 31.9834L0.953125 32.2998L1.1311 32.625L0.867432 33.1084L0.953125 33.2666L0.320312 34.3916Z" fill="#FAAE29"/>
<path fill-rule="evenodd" clip-rule="evenodd" d="M0.320312 30.375L0.412598 30.6914V31.1748H0.682861L0.867432 31.3418L0.682861 31.5H0.419189V31.9834L0.326904 32.2998V30.3662L0.320312 30.375Z" fill="#FAAE29"/>
<path fill-rule="evenodd" clip-rule="evenodd" d="M11.1697 11.7334V11.4082L10.7214 10.6084L10.8137 10.4414L10.5435 9.9668L10.6292 9.7998L10.8137 10.125L10.906 9.9668L10.2732 8.8418L10.1809 9L10.2732 9.1582L10.082 9.4834L9.64038 8.6748L10.0886 7.89258L10.2732 8.19141L10.1809 8.3584L10.2666 8.5166L10.8994 7.3916L10.8137 7.2334L10.6292 7.5498L10.5435 7.3916L10.8071 6.9082L10.7214 6.75L11.1697 5.94141V5.625L10.5435 6.75L10.6292 6.9082L10.3655 7.3916L10.5435 7.7168L10.3589 8.0332L10.0886 7.5498L9.44922 8.69238L10.0886 9.7998L10.3589 9.31641L10.5435 9.6416L10.3589 9.9668L10.6292 10.4414L10.5435 10.6084L11.1697 11.7334Z" fill="#FAAE29"/>
<path fill-rule="evenodd" clip-rule="evenodd" d="M11.1694 7.7168L11.0771 8.0332V8.52539H10.8135L10.6289 8.68359L10.8069 8.85059H11.0771V9.32519L11.1694 9.65039V7.7168Z" fill="#FAAE29"/>
<path fill-rule="evenodd" clip-rule="evenodd" d="M11.2009 19.4502V19.125L10.7527 18.3252L10.8384 18.1582L10.5747 17.6748L10.6604 17.5166L10.8384 17.8418L10.9307 17.6748L10.2979 16.5498L10.2056 16.7168L10.2979 16.875L10.1133 17.2002L9.66504 16.3916L10.1199 15.6094L10.2979 15.9082L10.2056 16.0664L10.2979 16.2334L10.9307 15.1084L10.8384 14.9414L10.6604 15.2666L10.5681 15.1084L10.8384 14.625L10.7527 14.4668L11.2009 13.6582V13.3418L10.5681 14.4668L10.6604 14.625L10.3901 15.1084L10.5681 15.4248L10.3901 15.75L10.1199 15.2666L9.48047 16.4092L10.1199 17.5166L10.3835 17.0332L10.5681 17.3584L10.3901 17.6748L10.6538 18.1582L10.5681 18.3164L11.2009 19.4414V19.4502Z" fill="#FAAE29"/>
<path fill-rule="evenodd" clip-rule="evenodd" d="M11.2002 15.4248L11.1079 15.75V16.2334H10.8311L10.6465 16.3916L10.8311 16.5498H11.0947V17.0332L11.1936 17.3584V15.4248H11.2002Z" fill="#FAAE29"/>
<path fill-rule="evenodd" clip-rule="evenodd" d="M11.1697 27.1582V26.8418L10.7214 26.0332L10.8137 25.875L10.5435 25.3916L10.6292 25.2334L10.8137 25.5498L10.906 25.3916L10.2732 24.2666L10.1809 24.4248L10.2732 24.5918L10.082 24.917L9.64038 24.1084L10.0886 23.3174L10.2732 23.625L10.1809 23.7832L10.2666 23.9414L10.8994 22.8164L10.8137 22.6582L10.6292 22.9834L10.5435 22.8164L10.8071 22.3418L10.7214 22.1748L11.1697 21.375V21.0498L10.5435 22.1748L10.6292 22.3418L10.3655 22.8164L10.5435 23.1416L10.3589 23.4668L10.0886 22.9834L9.44922 24.126L10.0886 25.2334L10.3589 24.75L10.5435 25.0664L10.3589 25.3916L10.6292 25.875L10.5435 26.0332L11.1631 27.1582H11.1697Z" fill="#FAAE29"/>
<path fill-rule="evenodd" clip-rule="evenodd" d="M11.1694 23.1416L11.0771 23.4668V23.9502H10.8135L10.6289 24.1084L10.8069 24.2666H11.0771V24.75L11.1694 25.0752V23.1416Z" fill="#FAAE29"/>
<path fill-rule="evenodd" clip-rule="evenodd" d="M11.1697 34.3916V34.0664L10.7214 33.2666L10.8137 33.1084L10.5435 32.625L10.6292 32.4668L10.8137 32.7832L10.906 32.625L10.2732 31.5L10.1809 31.6582L10.2732 31.8164L10.082 32.1416L9.64038 31.3418L10.0886 30.5508L10.2732 30.8584L10.1809 31.0166L10.2666 31.1748L10.8994 30.0586L10.8137 29.9004L10.6292 30.2256L10.5435 30.0586L10.8071 29.5752L10.7214 29.417L11.1697 28.6172V28.292L10.5435 29.417L10.6292 29.5752L10.3655 30.0586L10.5435 30.3838L10.3589 30.7002L10.0886 30.2256L9.44922 31.3682L10.0886 32.4756L10.3589 31.9922L10.5435 32.3086L10.3589 32.6338L10.6292 33.1172L10.5435 33.2754L11.1697 34.4004V34.3916Z" fill="#FAAE29"/>
<path fill-rule="evenodd" clip-rule="evenodd" d="M11.1694 30.375L11.0771 30.6914V31.1748H10.8135L10.6289 31.3418L10.8069 31.5H11.0771V31.9834L11.1694 32.2998V30.3662V30.375Z" fill="#FAAE29"/>
<path fill-rule="evenodd" clip-rule="evenodd" d="M0.319092 3.0498V2.7334L0.767334 1.9248L0.681641 1.7666L0.945312 1.2832L0.859619 1.125L0.681641 1.4502L0.589355 1.2832L1.22217 0.158203L1.31445 0.325195L1.22217 0.483398L1.40674 0.808594L1.85498 0H2.03955L1.40674 1.125L1.12988 0.641602L0.951904 0.966797L1.12988 1.2832L0.866211 1.7666L0.945312 1.93359L0.319092 3.05859V3.0498ZM0.319092 0H0.866211L0.681641 0.158203H0.417969V0.641602L0.3125 0.966797V0H0.319092ZM11.1692 3.0498V2.7334L10.7209 1.9248L10.8132 1.7666L10.543 1.2832L10.6287 1.125L10.8132 1.4502L10.8989 1.2832L10.2661 0.158203L10.1804 0.325195L10.2661 0.483398L10.0815 0.808594L9.6333 0H9.44873L10.0881 1.125L10.3584 0.641602L10.543 0.966797L10.3584 1.2832L10.6287 1.7666L10.543 1.9248L11.1692 3.0498ZM11.1692 0H10.6287L10.8066 0.158203H11.0769V0.641602L11.1692 0.966797V0ZM4.84106 44.3584C4.84106 44.3584 5.23657 43.4443 6.21216 43.1719C7.19434 42.8906 7.36572 43.7783 7.92603 43.7783C8.48633 43.7783 9.37622 43.1631 9.37622 43.1631C9.37622 43.1631 8.48633 44.332 7.79419 44.3057C7.11523 44.2793 6.88452 43.6904 6.1792 43.7783C5.48047 43.8662 4.84106 44.3848 4.84106 44.3584Z" fill="#FAAE29"/>
<path fill-rule="evenodd" clip-rule="evenodd" d="M6.73169 44.3588C6.73169 44.3588 6.34277 43.4447 5.36719 43.1722C4.37842 42.891 4.21362 43.7787 3.65332 43.7787C3.09302 43.7787 2.20312 43.1635 2.20312 43.1635C2.20312 43.1635 3.09302 44.3324 3.77856 44.306C4.46411 44.2797 4.70142 43.6908 5.39356 43.7787C6.09888 43.8666 6.73169 44.3851 6.73169 44.3588Z" fill="#FAAE29"/>
<path fill-rule="evenodd" clip-rule="evenodd" d="M3.53079 42.8468C3.4451 42.6095 3.22757 41.5548 3.33963 41.423C3.51761 41.3351 3.97904 42.4162 3.93289 43.3742C3.62967 43.5939 2.61453 43.2863 2.62113 43.005C2.69364 42.6095 3.27371 42.7414 3.53079 42.8468Z" fill="#FAAE29"/>
<path fill-rule="evenodd" clip-rule="evenodd" d="M2.90859 41.924C2.85585 41.6603 2.76357 40.5529 2.8954 40.465C3.07338 40.4475 3.39638 41.6691 3.24477 42.592C2.92177 42.6975 1.95937 42.0207 2.00551 41.7482C2.12416 41.3967 2.66469 41.7307 2.90859 41.924Z" fill="#FAAE29"/>
<path fill-rule="evenodd" clip-rule="evenodd" d="M2.40819 40.9043C2.36864 40.623 2.35545 39.498 2.48729 39.4453C2.66527 39.4629 2.90916 40.7461 2.69823 41.6338C2.36864 41.6689 1.45897 40.79 1.52489 40.5352C1.65672 40.2012 2.18407 40.6494 2.40819 40.9043Z" fill="#FAAE29"/>
<path fill-rule="evenodd" clip-rule="evenodd" d="M2.01229 39.8145C1.99911 39.5244 2.07821 38.4082 2.21664 38.3906C2.39462 38.4521 2.51986 39.7881 2.22982 40.6055C1.90682 40.5527 1.08285 39.4365 1.17513 39.1992C1.33334 38.9092 1.81454 39.498 2.01229 39.8145Z" fill="#FAAE29"/>
<path fill-rule="evenodd" clip-rule="evenodd" d="M1.73613 38.6631C1.74932 38.3731 1.9207 37.3008 2.05913 37.3096C2.22393 37.4239 2.2437 38.7686 1.89434 39.5069C1.57793 39.3663 0.846241 38.0567 0.951709 37.837C1.14287 37.5909 1.56475 38.3028 1.74272 38.6631H1.73613Z" fill="#FAAE29"/>
<path fill-rule="evenodd" clip-rule="evenodd" d="M1.81432 37.3535C1.79455 38.4961 1.63635 38.5137 1.3529 37.6699C1.22106 37.3447 1.20788 36.0264 1.31994 35.9736C1.48473 35.9736 1.80773 36.9141 1.81432 37.3535Z" fill="#FAAE29"/>
<path fill-rule="evenodd" clip-rule="evenodd" d="M7.99827 42.9787C8.08397 42.7326 8.3015 41.6779 8.18944 41.5461C8.01146 41.4582 7.55662 42.5305 7.59617 43.4973C7.8994 43.717 8.92113 43.4094 8.90794 43.1281C8.83543 42.7326 8.26195 42.8644 7.99827 42.9699V42.9787Z" fill="#FAAE29"/>
<path fill-rule="evenodd" clip-rule="evenodd" d="M8.61745 42.0471C8.67678 41.7834 8.76247 40.676 8.63723 40.5881C8.45925 40.5705 8.12966 41.7834 8.28786 42.715C8.60427 42.8205 9.57326 42.1437 9.52053 41.8713C9.40847 41.5109 8.86135 41.8537 8.61745 42.0471Z" fill="#FAAE29"/>
<path fill-rule="evenodd" clip-rule="evenodd" d="M9.11922 41.0273C9.15877 40.7461 9.17196 39.6211 9.04012 39.5684C8.86214 39.5859 8.61824 40.8604 8.83577 41.748C9.16536 41.7832 10.075 40.9131 10.0091 40.6494C9.86409 40.3154 9.34993 40.7725 9.11922 41.0273Z" fill="#FAAE29"/>
<path fill-rule="evenodd" clip-rule="evenodd" d="M9.51515 39.9287C9.52833 39.6475 9.44923 38.5312 9.3108 38.5137C9.13282 38.5752 9.00758 39.9111 9.29762 40.7285C9.62721 40.6758 10.4446 39.5596 10.3589 39.3223C10.1941 39.0234 9.71949 39.6211 9.51515 39.9287Z" fill="#FAAE29"/>
<path fill-rule="evenodd" clip-rule="evenodd" d="M9.79105 38.7776C9.78445 38.4963 9.60648 37.4153 9.47464 37.4328C9.30325 37.5383 9.28348 38.8918 9.63944 39.6301C9.95584 39.4895 10.6809 38.1799 10.5755 37.9602C10.3843 37.7141 9.96243 38.426 9.78446 38.7776H9.79105Z" fill="#FAAE29"/>
<path fill-rule="evenodd" clip-rule="evenodd" d="M9.71094 37.4766C9.7373 38.6191 9.88892 38.6279 10.1724 37.7842C10.3042 37.4678 10.3174 36.1406 10.2053 36.0967C10.0405 36.0967 9.71753 37.0371 9.71094 37.4766Z" fill="#FAAE29"/>
<path fill-rule="evenodd" clip-rule="evenodd" d="M9.48675 28.9091H8.94722V29.3917H8.4273V29.8743H6.34763L5.99448 30.3707L6.17106 30.6189H7.04412L7.21089 30.3707H6.34763L6.5144 30.1225H7.73081L7.21089 30.8533H6.00429L5.66095 30.6189L5.3078 30.8533H4.09139L3.57147 30.1225H4.78788L4.96446 30.3707H4.09139L4.26796 30.6189H5.14103L5.3078 30.3707L4.96446 29.8743H3.05155V29.3917H2.53164V28.9091H2.01172V26.703H2.53164V26.2205H3.05155V25.7241H4.96446L5.3078 25.2415L5.14103 24.9933H4.26796L4.09139 25.2415H4.96446L4.78788 25.4759H3.57147L4.09139 24.7451H5.31761L5.67076 24.9933L6.0141 24.7451H7.23051L7.75043 25.4759H6.53402L6.36725 25.2415H7.23051L7.05393 24.9933H6.19068L6.00429 25.2415L6.35744 25.7241H8.43711V26.2205H8.95703V26.703H9.48675V28.9091Z" fill="#CA3745"/>
<path fill-rule="evenodd" clip-rule="evenodd" d="M4.09035 24.7383H5.31998L5.67185 24.9856L6.01395 24.7383H7.2338L7.76328 25.4825H6.53298L6.35666 25.2347H7.21992L7.0529 24.9999H6.19389L6.0125 25.2414L6.36069 25.7172H8.44328V26.2136H8.96319V26.6962H9.49292V28.909H9.48788V28.9157H8.95338V29.3983H8.43347V29.8809H6.35093L6.00255 30.3706L6.17435 30.612H7.043L7.20075 30.3773H6.33749L6.51328 30.1157H7.74366L7.21418 30.8599H6.00421L5.66205 30.6263L5.31011 30.8599H4.09035L3.56088 30.1157H4.79117L4.9773 30.3773H4.10424L4.27126 30.612H5.13991L5.30212 30.3706L4.96338 29.8809H3.04765V29.3983H2.52773V28.9157H2.00781V26.6962H2.52773V26.2136H3.04765V25.7172H4.96342L5.30208 25.2412L5.13991 24.9999H4.27126L4.10424 25.2347H4.97778L4.79109 25.4825H3.56088L4.09035 24.7383ZM9.48285 28.9023V26.7096H8.95312V26.227H8.4332V25.7307H6.35645L5.99834 25.2413L6.18972 24.9865H7.05723L7.24336 25.2481H6.3801L6.53731 25.4691H7.73984L7.22948 24.7517H6.01651L5.67192 25.0008L5.31749 24.7517H4.09468L3.58432 25.4691H4.78693L4.95339 25.2481H4.0808L4.26693 24.9865H5.14441L5.31578 25.2415L4.96775 25.7307H3.05772V26.227H2.5378V26.7096H2.01788V28.9023H2.5378V29.3849H3.05772V29.8675H4.96779L5.31573 30.3705L5.14441 30.6255H4.26693L4.0808 30.3639H4.95387L4.78685 30.1291H3.58432L4.09468 30.8464H5.30774L5.66211 30.6112L6.00663 30.8464H7.20986L7.72022 30.1291H6.51778L6.36003 30.3639H7.22329L7.0475 30.6255H6.17002L5.98867 30.3706L6.3466 29.8675H8.42339V29.3849H8.94331V28.9023H9.48285Z" fill="black"/>
<path fill-rule="evenodd" clip-rule="evenodd" d="M2.1875 26.9598V28.6695H2.70741V29.1521H3.22732V29.6347H4.96853L5.66501 30.3724L6.35659 29.6416H8.26947V29.159L8.78938 29.1521V28.6695H9.3191V26.9529H8.79428V26.4703H8.27437V25.9739H6.3615L5.66992 25.2432L4.97343 25.9739H3.23222V26.4703H2.71231V26.9529H2.19241L2.1875 26.9598Z" fill="#00843D"/>
<path fill-rule="evenodd" clip-rule="evenodd" d="M5.67009 25.1836L6.37387 25.9273H8.30972V26.4236H8.82963V26.9062H9.35445V28.7168H8.82473V29.199L8.30482 29.2059V29.6889H6.36896L5.66508 30.4327L4.95633 29.682H3.19216V29.1994H2.67225V28.7168H2.15234V26.9414L2.17735 26.9062H2.67716V26.4236H3.19707V25.9273H4.96132L5.67009 25.1836ZM5.66994 25.3034L4.98574 26.0213H3.26757V26.5176H2.74766V27.0002H2.22285V28.6228H2.74276V29.1054H3.26267V29.588H4.98092L5.66513 30.3127L6.34441 29.5949H8.23431V29.1128L8.75422 29.1059V28.6228H9.28394V27.0002H8.75913V26.5176H8.23922V26.0213H6.34932L5.66994 25.3034Z" fill="#FAAE29"/>
<path fill-rule="evenodd" clip-rule="evenodd" d="M4.61752 26.2129L3.57617 27.436V26.2129H4.61752ZM6.70021 26.2129L7.74815 27.436V26.2129H6.70021ZM4.61752 29.3931L3.57617 28.1699V29.3931H4.61752ZM6.70021 29.3931L7.74815 28.1699V29.3931H6.70021ZM7.04953 26.9468L6.70021 27.436H7.39884L7.04953 26.9468ZM4.26821 26.9468L3.92548 27.436H4.61752L4.26821 26.9468ZM4.26821 28.6592L3.92548 28.1699H4.61752L4.26821 28.6592ZM7.04953 28.6592L6.70021 28.1699H7.39884L7.04953 28.6592Z" fill="#CA3745"/>
<path fill-rule="evenodd" clip-rule="evenodd" d="M5.65791 29.8823L5.30859 29.3931H6.00722L5.65791 29.8823ZM5.65791 27.436L5.30859 26.9468H6.00722L5.65791 27.436ZM5.65791 25.7236L5.30859 26.224H6.00722L5.65791 25.7236ZM5.65791 28.1699L5.30859 28.6592H6.00722L5.65791 28.1699Z" fill="#FAAE29"/>
<path fill-rule="evenodd" clip-rule="evenodd" d="M6.70312 27.4424H7.40451V27.6837H6.70803L6.70312 27.4424Z" fill="#FAAE29"/>
<path fill-rule="evenodd" clip-rule="evenodd" d="M6.70117 27.4395H7.40766V27.6875H6.70621L6.70117 27.4395ZM6.70635 27.4462L6.71111 27.6807H7.40263V27.4462H6.70635Z" fill="black"/>
<path fill-rule="evenodd" clip-rule="evenodd" d="M4.09961 27.6836H4.44295V27.9318H4.09961V27.6836ZM6.88064 27.6836H7.22397V27.9318H6.88064V27.6836Z" fill="#CC0000"/>
<path fill-rule="evenodd" clip-rule="evenodd" d="M4.09766 27.6807H4.44603V27.9356H4.09766V27.6807ZM4.10269 27.6874V27.9288H4.44099V27.6874H4.10269ZM6.87868 27.6807H7.22706V27.9356H6.87868V27.6807ZM6.88372 27.6874V27.9288H7.22202V27.6874H6.88372Z" fill="black"/>
<path fill-rule="evenodd" clip-rule="evenodd" d="M5.31641 26.2217H6.00799V26.463H5.31641V26.2217ZM5.31641 26.7043H6.00799V26.9525H5.31641V26.7043Z" fill="#990000"/>
<path fill-rule="evenodd" clip-rule="evenodd" d="M5.31445 26.2188H6.01107V26.4668H5.31445V26.2188ZM5.31949 26.2255V26.46H6.00603V26.2255H5.31949ZM5.31445 26.7013H6.01107V26.9562H5.31445V26.7013ZM5.31949 26.7081V26.9495H6.00603V26.7081H5.31949Z" fill="black"/>
<path fill-rule="evenodd" clip-rule="evenodd" d="M5.14062 26.4639H6.18535V26.7121H5.14062V26.4639ZM5.3172 28.67H6.00878V28.9044H5.3172V28.67ZM5.3172 29.1526H6.00878V29.3939H5.3172V29.1526ZM5.14062 28.9113H6.18535V29.1526H5.14062V28.9113Z" fill="#990000"/>
<path fill-rule="evenodd" clip-rule="evenodd" d="M5.13672 26.46H6.18648V26.7149H5.13672V26.46ZM5.14175 26.4667V26.7081H6.18144V26.4667H5.14175ZM5.31329 28.6661H6.00991V28.9072H5.31329V28.6661ZM5.31833 28.6728V28.9005H6.00487V28.6728H5.31833ZM5.13672 28.9074H6.18648V29.1554H6.00991V29.3967H5.31329V29.1554H5.13672V28.9074ZM6.18144 29.1487V28.9141H5.14175V29.1487H6.18144ZM5.31833 29.1554V29.3899H6.00487V29.1554H5.31833Z" fill="black"/>
<path fill-rule="evenodd" clip-rule="evenodd" d="M6.7027 27.9319H7.40409V28.1732H6.7076L6.7027 27.9319ZM3.92167 27.4424H4.61815V27.6837H3.92167V27.4424ZM3.92167 27.925H4.61815V28.1732H3.92167V27.925ZM3.75 27.6837H4.09334V27.9319H3.75V27.6837ZM4.44648 27.6837H4.78982V27.9319H4.44648V27.6837ZM6.53103 27.6837H6.87437V27.9319H6.53103V27.6837ZM7.22751 27.6837H7.57085V27.9319H7.22751V27.6837Z" fill="#FAAE29"/>
<path fill-rule="evenodd" clip-rule="evenodd" d="M3.92167 27.4395H4.62319V27.6807H4.79486V27.9356H4.62319V28.1769H3.92167V27.9356H3.75V27.6807H3.92167V27.4395ZM3.9267 27.6807H4.61815V27.4462H3.9267V27.6807ZM4.44648 27.6875H4.09837V27.922H4.44648V27.6875ZM4.44648 27.9288H4.09837V27.9356H3.9267V28.1702H4.61815V27.9356H4.44648V27.9288ZM4.62319 27.9289V27.922H4.45152V27.6875H4.78982V27.9289H4.62319ZM4.61815 27.9289H4.45152V27.9288H4.61815V27.9289ZM3.9267 27.9289H4.09334V27.9288H3.9267V27.9289ZM4.09334 27.922V27.6875H3.75504V27.9289H3.92167V27.922H4.09334ZM6.53103 27.6807H6.8794V27.9289H7.22751V27.6807H7.57589V27.9356H7.40912V28.1769H6.70767L6.70277 27.9356H6.53103V27.6807ZM6.87437 27.9289V27.6875H6.53607V27.9289H6.87437ZM6.7078 27.9356L6.71257 28.1702H7.40409V27.9356H6.7078ZM7.57085 27.9289V27.6875H7.23255V27.9289H7.57085Z" fill="black"/>
<path d="M5.23555 29.0821C5.25993 29.0821 5.27969 29.0543 5.27969 29.0201C5.27969 28.9858 5.25993 28.958 5.23555 28.958C5.21117 28.958 5.19141 28.9858 5.19141 29.0201C5.19141 29.0543 5.21117 29.0821 5.23555 29.0821Z" fill="white"/>
<path d="M5.66524 29.0821C5.68962 29.0821 5.70938 29.0543 5.70938 29.0201C5.70938 28.9858 5.68962 28.958 5.66524 28.958C5.64086 28.958 5.62109 28.9858 5.62109 29.0201C5.62109 29.0543 5.64086 29.0821 5.66524 29.0821Z" fill="white"/>
<path d="M6.09883 29.0821C6.12321 29.0821 6.14298 29.0543 6.14298 29.0201C6.14298 28.9858 6.12321 28.958 6.09883 28.958C6.07445 28.958 6.05469 28.9858 6.05469 29.0201C6.05469 29.0543 6.07445 29.0821 6.09883 29.0821Z" fill="white"/>
<path d="M5.40743 28.8487C5.43181 28.8487 5.45157 28.8209 5.45157 28.7867C5.45157 28.7524 5.43181 28.7246 5.40743 28.7246C5.38305 28.7246 5.36328 28.7524 5.36328 28.7867C5.36328 28.8209 5.38305 28.8487 5.40743 28.8487Z" fill="white"/>
<path d="M5.9211 28.8487C5.94548 28.8487 5.96524 28.8209 5.96524 28.7867C5.96524 28.7524 5.94548 28.7246 5.9211 28.7246C5.89672 28.7246 5.87695 28.7524 5.87695 28.7867C5.87695 28.8209 5.89672 28.8487 5.9211 28.8487Z" fill="white"/>
<path d="M5.39961 29.3262C5.42399 29.3262 5.44376 29.2985 5.44376 29.2642C5.44376 29.2299 5.42399 29.2021 5.39961 29.2021C5.37523 29.2021 5.35547 29.2299 5.35547 29.2642C5.35547 29.2985 5.37523 29.3262 5.39961 29.3262Z" fill="white"/>
<path d="M5.9211 29.338C5.94548 29.338 5.96524 29.3102 5.96524 29.2759C5.96524 29.2416 5.94548 29.2139 5.9211 29.2139C5.89672 29.2139 5.87695 29.2416 5.87695 29.2759C5.87695 29.3102 5.89672 29.338 5.9211 29.338Z" fill="white"/>
<path d="M6.61446 27.8585C6.63884 27.8585 6.6586 27.8307 6.6586 27.7964C6.6586 27.7622 6.63884 27.7344 6.61446 27.7344C6.59008 27.7344 6.57031 27.7622 6.57031 27.7964C6.57031 27.8307 6.59008 27.8585 6.61446 27.8585Z" fill="white"/>
<path d="M7.04805 27.8585C7.07243 27.8585 7.09219 27.8307 7.09219 27.7964C7.09219 27.7622 7.07243 27.7344 7.04805 27.7344C7.02367 27.7344 7.00391 27.7622 7.00391 27.7964C7.00391 27.8307 7.02367 27.8585 7.04805 27.8585Z" fill="white"/>
<path d="M7.4836 27.8585C7.50798 27.8585 7.52774 27.8307 7.52774 27.7964C7.52774 27.7622 7.50798 27.7344 7.4836 27.7344C7.45922 27.7344 7.43945 27.7622 7.43945 27.7964C7.43945 27.8307 7.45922 27.8585 7.4836 27.8585Z" fill="white"/>
<path d="M6.79024 27.6143C6.81462 27.6143 6.83438 27.5866 6.83438 27.5523C6.83438 27.518 6.81462 27.4902 6.79024 27.4902C6.76586 27.4902 6.74609 27.518 6.74609 27.5523C6.74609 27.5866 6.76586 27.6143 6.79024 27.6143Z" fill="white"/>
<path d="M7.30586 27.6143C7.33024 27.6143 7.35001 27.5866 7.35001 27.5523C7.35001 27.518 7.33024 27.4902 7.30586 27.4902C7.28148 27.4902 7.26172 27.518 7.26172 27.5523C7.26172 27.5866 7.28148 27.6143 7.30586 27.6143Z" fill="white"/>
<path d="M6.78438 28.0919C6.80876 28.0919 6.82852 28.0641 6.82852 28.0298C6.82852 27.9956 6.80876 27.9678 6.78438 27.9678C6.76 27.9678 6.74023 27.9956 6.74023 28.0298C6.74023 28.0641 6.76 28.0919 6.78438 28.0919Z" fill="white"/>
<path d="M7.30586 28.1036C7.33024 28.1036 7.35001 28.0758 7.35001 28.0415C7.35001 28.0073 7.33024 27.9795 7.30586 27.9795C7.28148 27.9795 7.26172 28.0073 7.26172 28.0415C7.26172 28.0758 7.28148 28.1036 7.30586 28.1036Z" fill="white"/>
<path d="M5.22969 26.6466C5.25407 26.6466 5.27383 26.6188 5.27383 26.5845C5.27383 26.5502 5.25407 26.5225 5.22969 26.5225C5.20531 26.5225 5.18555 26.5502 5.18555 26.5845C5.18555 26.6188 5.20531 26.6466 5.22969 26.6466Z" fill="white"/>
<path d="M5.66524 26.6466C5.68962 26.6466 5.70938 26.6188 5.70938 26.5845C5.70938 26.5502 5.68962 26.5225 5.66524 26.5225C5.64086 26.5225 5.62109 26.5502 5.62109 26.5845C5.62109 26.6188 5.64086 26.6466 5.66524 26.6466Z" fill="white"/>
<path d="M6.09883 26.6358C6.12321 26.6358 6.14298 26.608 6.14298 26.5738C6.14298 26.5395 6.12321 26.5117 6.09883 26.5117C6.07445 26.5117 6.05469 26.5395 6.05469 26.5738C6.05469 26.608 6.07445 26.6358 6.09883 26.6358Z" fill="white"/>
<path d="M5.39961 26.4024C5.42399 26.4024 5.44376 26.3746 5.44376 26.3404C5.44376 26.3061 5.42399 26.2783 5.39961 26.2783C5.37523 26.2783 5.35547 26.3061 5.35547 26.3404C5.35547 26.3746 5.37523 26.4024 5.39961 26.4024Z" fill="white"/>
<path d="M5.9211 26.4024C5.94548 26.4024 5.96524 26.3746 5.96524 26.3404C5.96524 26.3061 5.94548 26.2783 5.9211 26.2783C5.89672 26.2783 5.87695 26.3061 5.87695 26.3404C5.87695 26.3746 5.89672 26.4024 5.9211 26.4024Z" fill="white"/>
<path d="M5.39961 26.88C5.42399 26.88 5.44376 26.8522 5.44376 26.8179C5.44376 26.7836 5.42399 26.7559 5.39961 26.7559C5.37523 26.7559 5.35547 26.7836 5.35547 26.8179C5.35547 26.8522 5.37523 26.88 5.39961 26.88Z" fill="white"/>
<path d="M5.9211 26.8917C5.94548 26.8917 5.96524 26.8639 5.96524 26.8296C5.96524 26.7954 5.94548 26.7676 5.9211 26.7676C5.89672 26.7676 5.87695 26.7954 5.87695 26.8296C5.87695 26.8639 5.89672 26.8917 5.9211 26.8917Z" fill="white"/>
<path d="M3.83711 27.8809C3.86149 27.8809 3.88126 27.8532 3.88126 27.8189C3.88126 27.7846 3.86149 27.7568 3.83711 27.7568C3.81273 27.7568 3.79297 27.7846 3.79297 27.8189C3.79297 27.8532 3.81273 27.8809 3.83711 27.8809Z" fill="white"/>
<path d="M4.27266 27.8809C4.29704 27.8809 4.3168 27.8532 4.3168 27.8189C4.3168 27.7846 4.29704 27.7568 4.27266 27.7568C4.24828 27.7568 4.22852 27.7846 4.22852 27.8189C4.22852 27.8532 4.24828 27.8809 4.27266 27.8809Z" fill="white"/>
<path d="M4.70821 27.8702C4.73259 27.8702 4.75235 27.8424 4.75235 27.8081C4.75235 27.7739 4.73259 27.7461 4.70821 27.7461C4.68383 27.7461 4.66406 27.7739 4.66406 27.8081C4.66406 27.8424 4.68383 27.8702 4.70821 27.8702Z" fill="white"/>
<path d="M4.0168 27.6358C4.04118 27.6358 4.06094 27.608 4.06094 27.5738C4.06094 27.5395 4.04118 27.5117 4.0168 27.5117C3.99242 27.5117 3.97266 27.5395 3.97266 27.5738C3.97266 27.608 3.99242 27.6358 4.0168 27.6358Z" fill="white"/>
<path d="M4.53047 27.6358C4.55485 27.6358 4.57462 27.608 4.57462 27.5738C4.57462 27.5395 4.55485 27.5117 4.53047 27.5117C4.50609 27.5117 4.48633 27.5395 4.48633 27.5738C4.48633 27.608 4.50609 27.6358 4.53047 27.6358Z" fill="white"/>
<path d="M4.00899 28.1143C4.03337 28.1143 4.05313 28.0866 4.05313 28.0523C4.05313 28.018 4.03337 27.9902 4.00899 27.9902C3.98461 27.9902 3.96484 28.018 3.96484 28.0523C3.96484 28.0866 3.98461 28.1143 4.00899 28.1143Z" fill="white"/>
<path d="M4.53047 28.1251C4.55485 28.1251 4.57462 28.0973 4.57462 28.063C4.57462 28.0288 4.55485 28.001 4.53047 28.001C4.50609 28.001 4.48633 28.0288 4.48633 28.063C4.48633 28.0973 4.50609 28.1251 4.53047 28.1251Z" fill="white"/>
<path fill-rule="evenodd" clip-rule="evenodd" d="M6.34375 22.4824L6.64038 22.2891L6.9436 22.4824H6.34375ZM5.44727 22.4824L5.7439 22.2891L6.04712 22.4824H5.44727ZM4.55078 22.4824L4.84741 22.2891L5.15064 22.4824H4.55078ZM6.34375 18.1758L6.64038 18.3691L6.9436 18.1846H6.34375V18.1758ZM5.44727 18.1758L5.7439 18.3691L6.04712 18.1846H5.44727V18.1758ZM4.55078 18.1758L4.84741 18.3691L5.15064 18.1846H4.55078V18.1758Z" fill="white"/>
<path fill-rule="evenodd" clip-rule="evenodd" d="M6.09351 23.0361L5.74414 23.4141L5.39478 23.0361L5.04541 23.4141L4.69604 23.0361V23.2295L4.93335 23.4053L4.8147 23.5986V23.7832H4.93335L5.04541 23.6074L5.16406 23.7832H5.28272V23.6074L5.16406 23.4141L5.39478 23.2295L5.63208 23.4053L5.51343 23.5986V23.7832H5.63208L5.74414 23.6074L5.86279 23.7832H5.97485V23.6074L5.86279 23.4141L6.09351 23.2295L6.32422 23.4053L6.21216 23.5986V23.7832H6.32422L6.44287 23.6074L6.56152 23.7832H6.67358V23.6074L6.56152 23.4141L6.79224 23.2295V23.0273L6.44287 23.4053L6.09351 23.0273V23.0361ZM6.09351 17.6221L5.74414 17.2441L5.39478 17.6221L5.04541 17.2441L4.69604 17.6221V17.4375L4.93335 17.2441L4.8147 17.0684V16.875H4.93335L5.04541 17.0596L5.16406 16.875H5.28272V17.0596L5.16406 17.2529L5.39478 17.4287L5.63208 17.2529L5.51343 17.0596V16.875H5.63208L5.74414 17.0596L5.86279 16.875H5.97485V17.0596L5.86279 17.2529L6.09351 17.4287L6.32422 17.2529L6.21216 17.0596V16.875H6.32422L6.44287 17.0596L6.56152 16.875H6.67358V17.0596L6.56152 17.2529L6.79224 17.4287V17.6221L6.44287 17.2441L6.09351 17.6221ZM8.73023 20.7334L9.11255 20.3291L8.73682 19.9248L9.11255 19.5205L8.73682 19.1162H8.92139L9.11255 19.3799L9.29712 19.248H9.48169V19.3887L9.29712 19.5205L9.48169 19.6523V19.793H9.29712L9.11255 19.6523L8.92139 19.9248L9.11255 20.1885L9.29712 20.0654H9.48169V20.1973L9.29712 20.3291L9.48169 20.4609V20.6016H9.29712L9.11255 20.4609L8.92139 20.7334L9.11255 20.9971L9.29712 20.8652H9.48169V21.0059L9.29712 21.1377L9.48169 21.2783V21.4102H9.29712L9.11255 21.2783L8.92139 21.542H8.73682L9.11255 21.1377L8.73682 20.7334H8.73023ZM2.75806 20.7334L2.38232 20.3291L2.75806 19.9248L2.38232 19.5205L2.75806 19.1162H2.56689L2.38232 19.3799L2.19775 19.248H2V19.3887L2.19775 19.5117L2.00659 19.6436V19.7842H2.19775L2.38232 19.6436L2.56689 19.916L2.38232 20.1797L2.19775 20.0566H2V20.1885L2.19116 20.3203L2 20.4521V20.5928H2.19775L2.38232 20.4521L2.56689 20.7246L2.38232 20.9971L2.19775 20.8652H2V20.9971L2.19116 21.1289L2 21.2695V21.4014H2.19775L2.38232 21.2695L2.56689 21.5332H2.75806L2.38232 21.1289L2.75806 20.7246V20.7334Z" fill="#00843D"/>
<path fill-rule="evenodd" clip-rule="evenodd" d="M8.87954 22.1111H9.03139V22.2903H8.87954V22.1111ZM8.72769 22.2903H8.87954V22.48H8.73613L8.72769 22.2903ZM7.98531 23.2286H8.13716V23.4183H7.98531V23.2286ZM8.13716 23.0388H8.28057V23.2286H8.13716V23.0388ZM3.20199 23.0388H3.35384V23.2286H3.19356L3.20199 23.0388ZM2.45117 22.1111H2.60302V22.2903H2.45117V22.1111ZM2.60302 22.2903H2.75487V22.48H2.60302V22.2903ZM2.60302 18.1787H2.75487V18.3685H2.60302V18.1787ZM2.45117 18.3685H2.60302V18.5582H2.45117V18.3685ZM3.35384 17.251H3.49726V17.4407H3.36228L3.35384 17.251ZM3.20199 17.4407H3.35384V17.6305H3.19356L3.20199 17.4407ZM7.98531 17.251H8.13716V17.4407H7.98531V17.251ZM8.13716 17.4407H8.28057V17.6305H8.13716V17.4407ZM8.72769 18.1787H8.87954V18.3685H8.73613L8.72769 18.1787ZM8.87954 18.379H9.03139V18.5582H8.87954V18.379ZM3.36228 23.2286H3.50569V23.4183H3.36228V23.2286Z" fill="#00843D"/>
<path fill-rule="evenodd" clip-rule="evenodd" d="M3.33942 17.2344H3.50809V17.4568H3.36467V17.6466H3.17914L3.18903 17.4241H3.34786L3.33942 17.2344ZM3.37241 17.4241H3.48359V17.267H3.36542L3.37241 17.4241ZM3.34017 17.4568H3.21212L3.20513 17.6139H3.34017V17.4568ZM7.97164 17.2344H8.14799V17.4241H8.2914V17.6466H8.12349V17.4568H7.97164V17.2344ZM8.14799 17.4568V17.6139H8.2669V17.4568H8.14799ZM8.12349 17.4241V17.267H7.99614V17.4241H8.12349ZM2.58935 18.1621H2.7657V18.3845H2.61385V18.5743H2.4375V18.3519H2.58935V18.1621ZM2.58935 18.3845H2.462V18.5416H2.58935V18.3845ZM2.61385 18.3519H2.7412V18.1948H2.61385V18.3519ZM8.71327 18.1621H8.89037V18.3624H9.04222V18.5743H8.86587V18.3845H8.72316L8.71327 18.1621ZM8.89037 18.3951V18.5416H9.01772V18.3951H8.89037ZM8.86587 18.3519V18.1948H8.73927L8.74625 18.3519H8.86587ZM2.4375 22.0945H2.61385V22.2737H2.7657V22.4961H2.58935V22.3063H2.4375V22.0945ZM2.61385 22.3063V22.4634H2.7412V22.3063H2.61385ZM2.58935 22.2737V22.1271H2.462V22.2737H2.58935ZM8.86587 22.0945H9.04222V22.3063H8.89037V22.4961H8.72316L8.71327 22.2737H8.86587V22.0945ZM8.86587 22.3063H8.73927L8.74625 22.4634H8.86587V22.3063ZM8.89037 22.2737H9.01772V22.1271H8.89037V22.2737ZM3.18903 23.0222H3.36467V23.212H3.51652V23.4344H3.34861V23.2446H3.17914L3.18903 23.0222ZM3.37311 23.2446V23.4017H3.49202V23.2446H3.37311ZM3.34017 23.212V23.0549H3.21212L3.20513 23.212H3.34017ZM8.12349 23.0222H8.2914V23.2446H8.14799V23.4344H7.97164V23.212H8.12349V23.0222ZM8.12349 23.2446H7.99614V23.4017H8.12349V23.2446ZM8.14799 23.212H8.2669V23.0549H8.14799V23.212Z" fill="black"/>
<path fill-rule="evenodd" clip-rule="evenodd" d="M5.28931 20.3291H4.84766V19.96H5.14429V19.6172H5.43433V19.3008H5.73096V19.6963C5.48706 19.6963 5.28931 19.96 5.28931 20.3291Z" fill="white"/>
<path fill-rule="evenodd" clip-rule="evenodd" d="M6.17212 20.3291H6.61377V19.96H6.31714V19.6172H6.02051V19.3008H5.73047V19.6963C5.97437 19.6963 6.17212 19.96 6.17212 20.3291Z" fill="#FAAE29"/>
<path fill-rule="evenodd" clip-rule="evenodd" d="M6.17212 20.3291H6.61377V20.6982H6.31714V21.041H6.02051V21.3574H5.73047V20.9619C5.97437 20.9619 6.17212 20.6982 6.17212 20.3291Z" fill="white"/>
<path fill-rule="evenodd" clip-rule="evenodd" d="M5.28931 20.3291H4.84766V20.6982H5.14429V21.041H5.43433V21.3574H5.73096V20.9619C5.48706 20.9619 5.28931 20.6982 5.28931 20.3291Z" fill="#FAAE29"/>
<path fill-rule="evenodd" clip-rule="evenodd" d="M6.17212 20.3291H5.73047V19.6963C5.97437 19.6963 6.17212 19.9863 6.17212 20.3291Z" fill="#00843D"/>
<path fill-rule="evenodd" clip-rule="evenodd" d="M6.17212 20.3291H5.73047V20.9619C5.97437 20.9619 6.17212 20.6807 6.17212 20.3291Z" fill="#CA3745"/>
<path fill-rule="evenodd" clip-rule="evenodd" d="M5.28906 20.3291H5.73071V20.9619C5.48682 20.9619 5.28906 20.6807 5.28906 20.3291Z" fill="#00843D"/>
<path fill-rule="evenodd" clip-rule="evenodd" d="M5.28906 20.3291H5.73071V19.6963C5.48682 19.6963 5.28906 19.9863 5.28906 20.3291Z" fill="#CA3745"/>
<path fill-rule="evenodd" clip-rule="evenodd" d="M6.19141 22.667L5.74316 22.2891L5.29492 22.667L4.84668 22.2891L4.39844 22.667V22.4824L4.69507 22.2891L4.55005 22.1045V21.9199H4.69507L4.84668 22.1045L4.99829 21.9199H5.1499V22.1045L4.99829 22.2891L5.29492 22.4824L5.59814 22.2891L5.44653 22.1045V21.9199H5.59814L5.74316 22.1045L5.89478 21.9199H6.04639V22.1045L5.89478 22.2891L6.19141 22.4824L6.49463 22.2891L6.34302 22.1045V21.9199H6.49463L6.63965 22.1045L6.79126 21.9199H6.94287V22.1045L6.79126 22.2891L7.08789 22.4824V22.6582L6.63965 22.2891L6.19141 22.667ZM6.19141 18L5.74316 18.3691L5.29492 18L4.84668 18.3691L4.39844 18V18.1758L4.69507 18.3691L4.55005 18.5537V18.7471H4.69507L4.84668 18.5537L4.99829 18.7471H5.1499V18.5449L4.99829 18.3691L5.29492 18.1758L5.59814 18.3604L5.44653 18.5449V18.7383H5.59814L5.74316 18.5449L5.89478 18.7383H6.04639V18.5449L5.89478 18.3691L6.19141 18.1758L6.49463 18.3604L6.34302 18.5449V18.7383H6.49463L6.63965 18.5449L6.79126 18.7383H6.94287V18.5449L6.79126 18.3691L7.08789 18.1758V17.9912L6.63965 18.3604L6.19141 17.9912V18ZM7.83936 20.7949L7.61523 20.3291L7.83936 19.8633L7.61523 19.3975L7.83936 18.9316H7.72729L7.61523 19.2393L7.50317 19.0811H7.39111V19.2393L7.50317 19.3975L7.39111 19.5557V19.7051H7.50317L7.61523 19.5557L7.72729 19.8633L7.61523 20.1709L7.50317 20.0215H7.39111V20.1709L7.50317 20.3291L7.39111 20.4873V20.6455H7.50317L7.61523 20.4873L7.72729 20.7949L7.61523 21.1113L7.50317 20.9531H7.39111V21.1113L7.50317 21.2607L7.39111 21.4189V21.5771H7.50317L7.61523 21.4189L7.72729 21.7354H7.83936L7.61523 21.2607L7.83936 20.7949Z" fill="#00843D"/>
<path fill-rule="evenodd" clip-rule="evenodd" d="M4.40287 18.1894L3.81234 18.9274V21.7317L4.40287 22.4802H7.10245L7.69298 21.7422V18.9379L7.09401 18.1894H4.40287ZM4.25102 17.6201L2.75781 19.4967V21.1835L4.25945 23.039H7.24586L8.73907 21.1729V19.4861L7.24586 17.6201H4.25945H4.25102Z" fill="#00843D"/>
<path fill-rule="evenodd" clip-rule="evenodd" d="M4.24329 17.5977H7.25108L8.75416 19.476V21.1817L7.25108 23.06H4.2518L2.74023 21.1923V19.4866L4.24329 17.5977ZM4.25626 17.6412L2.7729 19.5054V21.1733L4.26461 23.0165H7.23816L8.72149 21.1628V19.4949L7.23816 17.6412H4.25626ZM4.39517 18.1669H7.09922L7.70807 18.9278V21.751L7.10766 22.5013H4.3951L3.79476 21.7403V18.9173L4.39517 18.1669ZM4.40808 18.2105L3.82743 18.9361V21.7217L4.40815 22.4577H7.09474L7.6754 21.7321V18.9467L7.08631 18.2105H4.40808Z" fill="black"/>
<path fill-rule="evenodd" clip-rule="evenodd" d="M5.02237 22.6621L5.25859 23.0416L5.50155 22.6621H5.01562H5.02237Z" fill="#FAAE29"/>
<path fill-rule="evenodd" clip-rule="evenodd" d="M5.52108 22.6504L5.25863 23.0604L5.01831 22.6742H5.01576V22.6702L5.01562 22.6699L5.01576 22.6698V22.6504H5.52108ZM5.04156 22.6742H5.48229L5.25882 23.0233L5.04156 22.6742Z" fill="black"/>
<path fill-rule="evenodd" clip-rule="evenodd" d="M5.02237 17.9951L5.25859 17.6156L5.50155 17.9951H5.01562H5.02237Z" fill="#FAAE29"/>
<path fill-rule="evenodd" clip-rule="evenodd" d="M5.52108 18.0078L5.25863 17.5978L5.01831 17.984H5.01576V17.988L5.01562 17.9883L5.01576 17.9884V18.0078H5.52108ZM5.04156 17.984H5.48229L5.25882 17.6349L5.04156 17.984Z" fill="black"/>
<path fill-rule="evenodd" clip-rule="evenodd" d="M5.98526 17.9951L6.22148 17.6156L6.46444 17.9951H5.97852H5.98526Z" fill="#FAAE29"/>
<path fill-rule="evenodd" clip-rule="evenodd" d="M6.48397 18.0078L6.22152 17.5978L5.9812 17.984H5.97865V17.988L5.97852 17.9883L5.97865 17.9884V18.0078H6.48397ZM6.00445 17.984H6.44518L6.22171 17.6349L6.00445 17.984Z" fill="black"/>
<path fill-rule="evenodd" clip-rule="evenodd" d="M5.98526 22.6621L6.22148 23.0416L6.46444 22.6621H5.97852H5.98526Z" fill="#FAAE29"/>
<path fill-rule="evenodd" clip-rule="evenodd" d="M6.48397 22.6504L6.22152 23.0604L5.9812 22.6742H5.97865V22.6702L5.97852 22.6699L5.97865 22.6698V22.6504H6.48397ZM6.00445 22.6742H6.44518L6.22171 23.0233L6.00445 22.6742Z" fill="black"/>
<path fill-rule="evenodd" clip-rule="evenodd" d="M4.54776 17.9951L4.78398 17.6156L5.02694 17.9951H4.54102H4.54776Z" fill="#CA3745"/>
<path fill-rule="evenodd" clip-rule="evenodd" d="M5.04647 18.0078L4.78402 17.5978L4.5437 17.984H4.54115V17.988L4.54102 17.9883L4.54115 17.9884V18.0078H5.04647ZM4.56695 17.984H5.00768L4.78421 17.6349L4.56695 17.984Z" fill="black"/>
<path fill-rule="evenodd" clip-rule="evenodd" d="M5.5048 17.9951L5.74101 17.6156L5.98397 17.9951H5.49805H5.5048Z" fill="#CA3745"/>
<path fill-rule="evenodd" clip-rule="evenodd" d="M6.00351 18.0078L5.74105 17.5978L5.50073 17.984H5.49818V17.988L5.49805 17.9883L5.49818 17.9884V18.0078H6.00351ZM5.52398 17.984H5.96471L5.74124 17.6349L5.52398 17.984Z" fill="black"/>
<path fill-rule="evenodd" clip-rule="evenodd" d="M6.45987 17.9951L6.69609 17.6156L6.93905 17.9951H6.45312H6.45987Z" fill="#CA3745"/>
<path fill-rule="evenodd" clip-rule="evenodd" d="M6.95858 18.0078L6.69613 17.5978L6.45581 17.984H6.45326V17.988L6.45312 17.9883L6.45326 17.9884V18.0078H6.95858ZM6.47906 17.984H6.91979L6.69632 17.6349L6.47906 17.984Z" fill="black"/>
<path fill-rule="evenodd" clip-rule="evenodd" d="M3.95703 22.1048L4.39991 22.6582H3.95703V22.1048Z" fill="#CA3745"/>
<path fill-rule="evenodd" clip-rule="evenodd" d="M3.93945 22.6826H4.44718L3.93945 22.0481V22.6826ZM3.9762 22.6336V22.1612L4.35423 22.6336H3.9762Z" fill="black"/>
<path fill-rule="evenodd" clip-rule="evenodd" d="M3.64844 20.7949L3.87915 20.3291L3.64844 19.8633L3.87256 19.3975L3.64844 18.9316H3.7605L3.87256 19.2393L3.98462 19.0811H4.09668V19.2393L3.98462 19.3975L4.09668 19.5557V19.7051H3.98462L3.87256 19.5557L3.7605 19.8633L3.87256 20.1709L3.98462 20.0215H4.09668V20.1709L3.98462 20.3291L4.09668 20.4873V20.6455H3.98462L3.87256 20.4873L3.7605 20.7949L3.87256 21.1113L3.98462 20.9531H4.09668V21.1113L3.98462 21.2607L4.09668 21.4189V21.5771H3.98462L3.87256 21.4189L3.7605 21.7354H3.64844L3.87256 21.2607L3.64844 20.7949Z" fill="#00843D"/>
<path fill-rule="evenodd" clip-rule="evenodd" d="M7.98438 19.8249H8.58334L8.73519 19.9957L8.58334 20.1665H7.99281V19.8154L7.98438 19.8249Z" fill="#CA3745"/>
<path fill-rule="evenodd" clip-rule="evenodd" d="M7.97979 19.8406H7.95117L8.00303 19.7822V19.8096H8.58619L8.75182 19.9959L8.58619 20.1821H7.97979V19.8406ZM8.00303 19.8406H8.57769L8.71577 19.9959L8.57769 20.1512H8.00303V19.8406Z" fill="black"/>
<path fill-rule="evenodd" clip-rule="evenodd" d="M3.95493 18.5576L3.65123 18.9371V21.7309L3.95493 22.1104H3.50781V18.5576H3.95493Z" fill="#CA3745"/>
<path fill-rule="evenodd" clip-rule="evenodd" d="M3.49023 18.5361H3.995L3.66632 18.9469V21.7218L3.995 22.1325H3.49023V18.5361ZM3.5229 18.5797V22.0889H3.91237L3.63365 21.7406V18.928L3.91237 18.5797H3.5229Z" fill="black"/>
<path fill-rule="evenodd" clip-rule="evenodd" d="M4.54776 22.6621L4.78398 23.0416L5.02694 22.6621H4.54102H4.54776Z" fill="#CA3745"/>
<path fill-rule="evenodd" clip-rule="evenodd" d="M5.04647 22.6504L4.78402 23.0604L4.5437 22.6742H4.54115V22.6702L4.54102 22.6699L4.54115 22.6698V22.6504H5.04647ZM4.56695 22.6742H5.00768L4.78421 23.0233L4.56695 22.6742Z" fill="black"/>
<path fill-rule="evenodd" clip-rule="evenodd" d="M5.5048 22.6621L5.74101 23.0416L5.98397 22.6621H5.49805H5.5048Z" fill="#CA3745"/>
<path fill-rule="evenodd" clip-rule="evenodd" d="M6.00351 22.6504L5.74105 23.0604L5.50073 22.6742H5.49818V22.6702L5.49805 22.6699L5.49818 22.6698V22.6504H6.00351ZM5.52398 22.6742H5.96471L5.74124 23.0233L5.52398 22.6742Z" fill="black"/>
<path fill-rule="evenodd" clip-rule="evenodd" d="M6.45987 22.6621L6.69609 23.0416L6.93905 22.6621H6.45312H6.45987Z" fill="#CA3745"/>
<path fill-rule="evenodd" clip-rule="evenodd" d="M6.95858 22.6504L6.69613 23.0604L6.45581 22.6742H6.45326V22.6702L6.45312 22.6699L6.45326 22.6698V22.6504H6.95858ZM6.47906 22.6742H6.91979L6.69632 23.0233L6.47906 22.6742Z" fill="black"/>
<path fill-rule="evenodd" clip-rule="evenodd" d="M7.53335 18.5576L7.83705 18.9371V21.7309L7.53335 22.1104H7.98047V18.5576H7.53335Z" fill="#CA3745"/>
<path fill-rule="evenodd" clip-rule="evenodd" d="M7.99609 18.5361H7.49133L7.82001 18.9469V21.7218L7.49133 22.1325H7.99609V18.5361ZM7.96342 18.5797V22.0889H7.57396L7.85268 21.7406V18.928L7.57396 18.5797H7.96342Z" fill="black"/>
<path fill-rule="evenodd" clip-rule="evenodd" d="M7.53711 22.1048L7.09423 22.6582H7.53711V22.1048Z" fill="#CA3745"/>
<path fill-rule="evenodd" clip-rule="evenodd" d="M7.55469 22.6826H7.04696L7.55469 22.0481V22.6826ZM7.51794 22.6336V22.1612L7.13991 22.6336H7.51794Z" fill="black"/>
<path fill-rule="evenodd" clip-rule="evenodd" d="M7.53711 18.5534L7.09423 18H7.53711V18.5534Z" fill="#CA3745"/>
<path fill-rule="evenodd" clip-rule="evenodd" d="M7.55469 17.9756H7.04696L7.55469 18.6101V17.9756ZM7.51794 18.0246V18.497L7.13991 18.0246H7.51794Z" fill="black"/>
<path fill-rule="evenodd" clip-rule="evenodd" d="M3.95703 18.5534L4.39991 18H3.95703V18.5534Z" fill="#CA3745"/>
<path fill-rule="evenodd" clip-rule="evenodd" d="M3.93945 17.9756H4.44718L3.93945 18.6101V17.9756ZM3.9762 18.0246V18.497L4.35423 18.0246H3.9762Z" fill="black"/>
<path fill-rule="evenodd" clip-rule="evenodd" d="M4.40254 18.1888L3.81201 18.9268V21.7311L4.40254 22.4796H7.10212L7.69265 21.7416V18.9373L7.09368 18.1888H4.40254ZM4.40254 17.999L3.66016 18.9268V21.7311L4.40254 22.6693H7.10212L7.8445 21.7311V18.9268L7.09368 17.999H4.40254Z" fill="#00843D"/>
<path fill-rule="evenodd" clip-rule="evenodd" d="M4.39484 17.9775H7.09884L7.85959 18.9175V21.7407L7.10739 22.6914H4.39479L3.64258 21.7407V18.9176L4.39484 17.9775ZM4.40776 18.0211L3.67525 18.9365V21.722L4.40781 22.6479H7.09436L7.82692 21.722V18.9366L7.08603 18.0211H4.40776ZM4.39484 18.1673H7.0989L7.70774 18.9282V21.7513L7.10733 22.5017H4.39477L3.79443 21.7407V18.9176L4.39484 18.1673ZM4.40776 18.2109L3.8271 18.9365V21.722L4.40782 22.4581H7.09442L7.67507 21.7325V18.947L7.08598 18.2109H4.40776Z" fill="black"/>
<path fill-rule="evenodd" clip-rule="evenodd" d="M7.98438 20.1599H8.58334L8.73519 20.3307L8.58334 20.5015H7.99281V20.1504L7.98438 20.1599Z" fill="#FAAE29"/>
<path fill-rule="evenodd" clip-rule="evenodd" d="M7.97979 20.1755H7.95117L8.00303 20.1172V20.1445H8.58619L8.75182 20.3308L8.58619 20.5171H7.97979V20.1755ZM8.00303 20.1755H8.57769L8.71577 20.3308L8.57769 20.4861H8.00303V20.1755Z" fill="black"/>
<path fill-rule="evenodd" clip-rule="evenodd" d="M7.98438 20.4929H8.58334L8.73519 20.6637L8.58334 20.8345H7.99281V20.4834L7.98438 20.4929Z" fill="#CA3745"/>
<path fill-rule="evenodd" clip-rule="evenodd" d="M7.97979 20.5085H7.95117L8.00303 20.4502V20.4775H8.58619L8.75182 20.6638L8.58619 20.8501H7.97979V20.5085ZM8.00303 20.5085H8.57769L8.71577 20.6638L8.57769 20.8191H8.00303V20.5085Z" fill="black"/>
<path fill-rule="evenodd" clip-rule="evenodd" d="M7.98438 20.8278H8.58334L8.73519 20.9987L8.58334 21.1695H7.99281V20.8184L7.98438 20.8278Z" fill="#FAAE29"/>
<path fill-rule="evenodd" clip-rule="evenodd" d="M7.97979 20.8435H7.95117L8.00303 20.7852V20.8125H8.58619L8.75182 20.9988L8.58619 21.1851H7.97979V20.8435ZM8.00303 20.8435H8.57769L8.71577 20.9988L8.57769 21.1541H8.00303V20.8435Z" fill="black"/>
<path fill-rule="evenodd" clip-rule="evenodd" d="M7.98438 19.4831H8.58334L8.73519 19.6539L8.58334 19.8247H7.99281V19.4736L7.98438 19.4831Z" fill="#FAAE29"/>
<path fill-rule="evenodd" clip-rule="evenodd" d="M7.97979 19.4988H7.95117L8.00303 19.4404V19.4678H8.58619L8.75182 19.6541L8.58619 19.8404H7.97979V19.4988ZM8.00303 19.4988H8.57769L8.71577 19.6541L8.57769 19.8094H8.00303V19.4988Z" fill="black"/>
<path fill-rule="evenodd" clip-rule="evenodd" d="M3.50391 19.8249H2.90494L2.75309 19.9957L2.90494 20.1665H3.49547V19.8154L3.50391 19.8249Z" fill="#CA3745"/>
<path fill-rule="evenodd" clip-rule="evenodd" d="M3.50654 19.8406H3.53516L3.4833 19.7822V19.8096H2.90014L2.73451 19.9959L2.90014 20.1821H3.50654V19.8406ZM3.4833 19.8406H2.90863L2.77056 19.9959L2.90863 20.1512H3.4833V19.8406Z" fill="black"/>
<path fill-rule="evenodd" clip-rule="evenodd" d="M3.50391 20.1599H2.90494L2.75309 20.3307L2.90494 20.5015H3.49547V20.1504L3.50391 20.1599Z" fill="#FAAE29"/>
<path fill-rule="evenodd" clip-rule="evenodd" d="M3.50654 20.1755H3.53516L3.4833 20.1172V20.1445H2.90014L2.73451 20.3308L2.90014 20.5171H3.50654V20.1755ZM3.4833 20.1755H2.90863L2.77056 20.3308L2.90863 20.4861H3.4833V20.1755Z" fill="black"/>
<path fill-rule="evenodd" clip-rule="evenodd" d="M3.50391 20.4929H2.90494L2.75309 20.6637L2.90494 20.8345H3.49547V20.4834L3.50391 20.4929Z" fill="#CA3745"/>
<path fill-rule="evenodd" clip-rule="evenodd" d="M3.50654 20.5085H3.53516L3.4833 20.4502V20.4775H2.90014L2.73451 20.6638L2.90014 20.8501H3.50654V20.5085ZM3.4833 20.5085H2.90863L2.77056 20.6638L2.90863 20.8191H3.4833V20.5085Z" fill="black"/>
<path fill-rule="evenodd" clip-rule="evenodd" d="M3.50391 20.8278H2.90494L2.75309 20.9987L2.90494 21.1695H3.49547V20.8184L3.50391 20.8278Z" fill="#FAAE29"/>
<path fill-rule="evenodd" clip-rule="evenodd" d="M3.50654 20.8435H3.53516L3.4833 20.7852V20.8125H2.90014L2.73451 20.9988L2.90014 21.1851H3.50654V20.8435ZM3.4833 20.8435H2.90863L2.77056 20.9988L2.90863 21.1541H3.4833V20.8435Z" fill="black"/>
<path fill-rule="evenodd" clip-rule="evenodd" d="M3.50391 19.4831H2.90494L2.75309 19.6539L2.90494 19.8247H3.49547V19.4736L3.50391 19.4831Z" fill="#FAAE29"/>
<path fill-rule="evenodd" clip-rule="evenodd" d="M3.50654 19.4988H3.53516L3.4833 19.4404V19.4678H2.90014L2.73451 19.6541L2.90014 19.8404H3.50654V19.4988ZM3.4833 19.4988H2.90863L2.77056 19.6541L2.90863 19.8094H3.4833V19.4988Z" fill="black"/>
<path fill-rule="evenodd" clip-rule="evenodd" d="M2.60156 18.3789V22.2796H3.35238V23.2179H8.1357V22.2796H8.87808V18.3789H8.1357V17.4512H3.35238V18.3789H2.60156ZM2.75341 18.5581V22.1109H3.4958V23.0387H7.98385V22.1109H8.73467V18.5581H7.98385V17.6409H3.4958V18.5687H2.75341V18.5581Z" fill="#970000"/>
<path fill-rule="evenodd" clip-rule="evenodd" d="M3.34066 17.4346H8.14848V18.3623H8.89087V22.2957H8.14848V23.234H3.34066V22.2957H2.58984V18.3623H3.34066V17.4346ZM3.36517 17.4672V18.395H2.61435V22.263H3.36517V23.2013H8.12398V22.263H8.86636V18.395H8.12398V17.4672H3.36517ZM3.48408 17.6243H7.99663V18.5415H8.74745V22.127H7.99663V23.0548H3.48408V22.127H2.7417V18.5579H2.75395V18.5521H3.48408V17.6243ZM2.7662 18.5847V22.0943H3.50858V23.0221H7.97213V22.0943H8.72295V18.5742H7.97213V17.657H3.50858V18.5847H2.7662Z" fill="black"/>
<path fill-rule="evenodd" clip-rule="evenodd" d="M9.47774 3.78002L9.03062 3.06021V2.52289L8.5835 1.98557H7.68927L6.93845 1.44824H4.55101L3.80019 1.98557H2.90595L2.45884 2.52289V3.06021L2.01172 3.76989V5.21965L2.45884 5.92932V6.47678L2.90595 7.01411H3.80019L4.55101 7.55143H6.93845L7.68927 7.01411H8.5835L9.03906 6.47678V5.93946L9.48618 5.21965V3.76989L9.47774 3.78002Z" fill="#CA3745"/>
<path fill-rule="evenodd" clip-rule="evenodd" d="M4.54828 1.43164H6.94176L7.69258 1.96896H8.58841L9.04293 2.51518V3.05386L9.4793 3.75636L9.49849 3.7333V5.22484L9.05137 5.94465V6.48341L8.58835 7.02954H7.69258L6.94176 7.56686H4.54828L3.79746 7.02954H2.90163L2.44712 6.48332V5.93457L2 5.2249V3.76347L2.44712 3.05379V2.51518L2.90163 1.96896H3.79746L4.54828 1.43164ZM9.47446 3.79879L9.0189 3.0654V2.52943L8.57918 2.001H7.68654L6.93572 1.46368H4.55432L3.8035 2.001H2.91086L2.47115 2.52943V3.06547L2.02403 3.77514V5.21323L2.47115 5.9229V6.46907L2.91086 6.9975H3.8035L4.55433 7.53483H6.93572L7.68654 6.9975H8.57925L9.02734 6.46898V5.9331L9.47446 5.21329V3.79879Z" fill="black"/>
<path fill-rule="evenodd" clip-rule="evenodd" d="M2.1582 4.5V5.03613L2.60645 5.75684V6.29297L3.05469 6.83789H3.95117L4.70264 7.36523H5.74414V4.50879H2.1582V4.5Z" fill="#FAAE29"/>
<path fill-rule="evenodd" clip-rule="evenodd" d="M4.48413 5.75684L3.93701 6.22266H3.60742L3.71948 6.37207L3.50195 6.67969L3.61401 6.83789L3.9436 6.67969L4.04907 6.83789L4.09521 6.4248L4.70166 5.93262L4.48413 5.75684Z" fill="#CA3745"/>
<path fill-rule="evenodd" clip-rule="evenodd" d="M3.88428 5.39648L3.33716 5.8623H3.01416L3.11963 6.01172L2.90869 6.31934L3.01416 6.47754L3.34375 6.31934L3.44922 6.47754L3.50195 6.06445L4.10181 5.58105L3.88428 5.40527V5.39648ZM3.58765 4.67578L3.04053 5.1416H2.71094L2.823 5.2998L2.60547 5.60742L2.71753 5.75684L3.04712 5.59863L3.15259 5.75684L3.19873 5.34375L3.80518 4.86035L3.58765 4.68457V4.67578Z" fill="#CA3745"/>
<path fill-rule="evenodd" clip-rule="evenodd" d="M9.33008 4.5V3.96387L8.88184 3.24316V2.70703L8.43359 2.16211H7.53711L6.79224 1.62598H5.74414V4.5H9.33008Z" fill="#FAAE29"/>
<path fill-rule="evenodd" clip-rule="evenodd" d="M5.74365 7.37402H5.4668L5.15039 7.01367H4.63623L4.35938 6.83789L4.4978 6.66211L4.77466 6.83789H5.05151L5.32837 6.29297L5.74365 6.46875V6.83789H5.32837L5.74365 7.36523V7.37402Z" fill="#CA3745"/>
<path fill-rule="evenodd" clip-rule="evenodd" d="M2.1582 4.5V3.96387L2.60645 3.24316V2.70703L3.05469 2.16211H3.95117L4.70264 1.62598H5.74414V4.5H2.1582Z" fill="white"/>
<path fill-rule="evenodd" clip-rule="evenodd" d="M5.74365 1.62598H5.4668L5.15039 1.97754H4.63623L4.35938 2.16211L4.4978 2.33789L4.77466 2.16211H5.05151L5.32837 2.70703L5.74365 2.53125V2.16211H5.32837L5.74365 1.62598Z" fill="#CA3745"/>
<path fill-rule="evenodd" clip-rule="evenodd" d="M5.74414 1.62598H6.021L6.34399 1.97754H6.85156L7.12842 2.16211L6.99658 2.33789L6.71313 2.16211H6.43628L6.15942 2.70703L5.74414 2.53125V2.16211H6.15942L5.74414 1.62598Z" fill="#CA3745"/>
<path fill-rule="evenodd" clip-rule="evenodd" d="M9.33008 4.5V5.03613L8.88184 5.75684V6.29297L8.43359 6.83789H7.53711L6.79224 7.36523H5.74414V4.50879H9.33008V4.5Z" fill="white"/>
<path fill-rule="evenodd" clip-rule="evenodd" d="M5.74463 7.37402H6.02148L6.34448 7.01367H6.85205L7.12891 6.83789L6.99707 6.66211L6.71362 6.83789H6.43677L6.15991 6.29297L5.74463 6.46875V6.83789H6.15991L5.74463 7.36523V7.37402ZM3.88574 3.59473L3.33862 3.1377H3.01562L3.12109 2.98828L2.91016 2.68066L3.01562 2.52246L3.34521 2.68066L3.45068 2.52246L3.50342 2.93555L4.10327 3.41895L3.88574 3.59473ZM7.01025 3.24316L7.55078 2.77734H7.88037L7.76831 2.62793L7.98584 2.32031L7.88037 2.16211L7.55078 2.32031L7.44531 2.16211L7.39258 2.5752L6.79272 3.06738L7.01025 3.24316Z" fill="#CA3745"/>
<path fill-rule="evenodd" clip-rule="evenodd" d="M4.48291 3.24316L3.93579 2.77734H3.6062L3.71826 2.62793L3.50073 2.32031L3.61279 2.16211L3.94238 2.32031L4.04785 2.16211L4.09399 2.5752L4.70044 3.05859L4.48291 3.23437V3.24316ZM3.57983 4.32422L3.03271 3.8584H2.70312L2.81519 3.7002L2.59766 3.39258L2.7229 3.25195L3.05249 3.41016L3.15796 3.25195L3.2041 3.66504L3.81055 4.14844L3.59302 4.32422H3.57983Z" fill="#CA3745"/>
<path fill-rule="evenodd" clip-rule="evenodd" d="M2.42969 4.5H2.56152L2.69995 4.67578L2.83838 4.5H5.74536V7.01367H5.61353L5.74536 7.18945V7.38281L5.33008 6.84668V6.6709H5.46851V6.84668H5.60693V6.6709L4.48633 5.87988H3.53711V5.08887L3.12183 4.69336H2.84497L2.70654 4.86914L2.83838 5.04492H2.70654L2.42969 4.51758V4.5Z" fill="white"/>
<path fill-rule="evenodd" clip-rule="evenodd" d="M2.42969 4.5H2.56152L2.69995 4.32422L2.83838 4.5H5.74536V1.98633H5.61353L5.74536 1.81055V1.62598L5.33008 2.16211V2.33789H5.46851V2.16211H5.60693V2.33789L4.48633 3.1377H3.53711V3.91992L3.12183 4.32422H2.84497L2.70654 4.14844L2.83838 3.96387H2.70654L2.42969 4.5Z" fill="#FAAE29"/>
<path fill-rule="evenodd" clip-rule="evenodd" d="M3.05469 4.5H5.74414V6.65332L4.55103 5.75684H3.65454V5.03613L3.06128 4.5H3.05469Z" fill="#00843D"/>
<path fill-rule="evenodd" clip-rule="evenodd" d="M7.60156 3.60352L8.14868 3.1377H8.47827L8.36621 2.98828L8.58374 2.68066L8.47827 2.52246L8.14868 2.68066L8.04321 2.52246L7.99048 2.93555L7.39062 3.41895L7.60156 3.59473V3.60352ZM7.90479 4.32422L8.4519 3.8584H8.7749L8.66284 3.7002L8.88037 3.39258L8.7749 3.24316L8.44531 3.40137L8.33984 3.24316L8.28711 3.65625L7.68726 4.13965L7.90479 4.31543V4.32422Z" fill="#CA3745"/>
<path fill-rule="evenodd" clip-rule="evenodd" d="M9.06641 4.5H8.92798L8.78955 4.32422L8.65112 4.5H5.74414V1.98633H5.88257L5.74414 1.81055V1.62598L6.15942 2.16211V2.33789H6.021V2.16211H5.88257V2.33789L7.00317 3.1377H7.95239V3.91992L8.37427 4.32422H8.65112L8.78296 4.14844L8.65112 3.96387H8.78296L9.06641 4.5Z" fill="white"/>
<path fill-rule="evenodd" clip-rule="evenodd" d="M8.43359 4.5H5.74414V2.34668L6.94385 3.24316H7.84033V3.96387L8.44019 4.5H8.43359Z" fill="#00843D"/>
<path fill-rule="evenodd" clip-rule="evenodd" d="M7.00855 5.75684L7.54907 6.22266H7.87866L7.7666 6.37207L7.98413 6.67969L7.87866 6.83789L7.54907 6.67969L7.4436 6.83789L7.39087 6.4248L6.79102 5.93262L7.00855 5.75684Z" fill="#CA3745"/>
<path fill-rule="evenodd" clip-rule="evenodd" d="M7.60156 5.39648L8.14868 5.8623H8.47827L8.36621 6.01172L8.58374 6.31934L8.47827 6.47754L8.14868 6.31934L8.04321 6.47754L7.99048 6.06445L7.39062 5.58105L7.60156 5.40527V5.39648ZM7.90479 4.67578L8.4519 5.1416H8.7749L8.66284 5.29102L8.88037 5.59863L8.7749 5.75684L8.44531 5.59863L8.33984 5.75684L8.28711 5.34375L7.68726 4.86035L7.90479 4.68457V4.67578Z" fill="#CA3745"/>
<path fill-rule="evenodd" clip-rule="evenodd" d="M9.06641 4.5H8.92798L8.78955 4.67578L8.65112 4.5H5.74414V7.01367H5.88257L5.74414 7.18945V7.38281L6.15942 6.84668V6.6709H6.021V6.84668H5.88257V6.6709L7.00317 5.87988H7.95239V5.08887L8.37427 4.69336H8.65112L8.78296 4.86914L8.65112 5.04492H8.78296L9.06641 4.51758V4.5Z" fill="#FAAE29"/>
<path fill-rule="evenodd" clip-rule="evenodd" d="M8.43359 4.5H5.74414V6.65332L6.94385 5.75684H7.84033V5.03613L8.44019 4.5H8.43359ZM3.05469 4.5H5.74414V2.34668L4.55103 3.24316H3.65454V3.96387L3.06128 4.5H3.05469Z" fill="#CA3745"/>
<path fill-rule="evenodd" clip-rule="evenodd" d="M6.03955 4.5L6.79102 3.96387H7.23926L7.08765 3.78809L7.39087 3.41895L7.23926 3.24316L6.79102 3.41895L6.6394 3.24316L6.57349 3.72656L5.74292 4.28906L6.03955 4.5ZM5.44629 4.5L4.70142 5.03613H4.25317L4.39819 5.21191L4.10156 5.58105L4.25317 5.75684L4.70142 5.58105L4.84644 5.75684L4.91235 5.27344L5.74292 4.71094L5.44629 4.5Z" fill="#CA3745"/>
<path fill-rule="evenodd" clip-rule="evenodd" d="M5.44751 4.5L4.70264 3.96387H4.25439L4.40601 3.78809L4.10938 3.41895L4.26099 3.24316L4.70923 3.41895L4.85425 3.24316L4.92017 3.72656L5.75073 4.28906L5.4541 4.5H5.44751ZM6.04077 4.5L6.79224 5.03613H7.24048L7.08887 5.21191L7.39209 5.58105L7.24048 5.75684L6.79224 5.58105L6.64062 5.75684L6.57471 5.27344L5.74414 4.71094L6.04077 4.5Z" fill="#00843D"/>
<path fill-rule="evenodd" clip-rule="evenodd" d="M4.84766 4.5L5.74414 3.60352L6.64062 4.5L5.74414 5.39648L4.84766 4.5Z" fill="white"/>
<path fill-rule="evenodd" clip-rule="evenodd" d="M2.83496 4.86035L2.97339 5.03613L2.84155 5.21191H2.69653L2.28125 4.5H2.41968L2.69653 5.03613H2.83496L2.70312 4.86035L2.83496 4.68457H3.11841V4.86035H2.84155H2.83496Z" fill="#CA3745"/>
<path fill-rule="evenodd" clip-rule="evenodd" d="M2.83496 4.13965L2.97339 3.96387L2.84155 3.78809H2.69653L2.28125 4.5H2.41968L2.69653 3.96387H2.83496L2.70312 4.13965L2.83496 4.31543H3.11841V4.13965H2.84155H2.83496ZM8.64893 4.86035L8.51709 5.03613L8.64893 5.21191H8.78735L9.20264 4.5H9.0708L8.78735 5.03613H8.65552L8.78735 4.86035L8.65552 4.68457H8.37207V4.86035H8.64893Z" fill="#CA3745"/>
<path fill-rule="evenodd" clip-rule="evenodd" d="M8.65747 4.13965L8.51245 3.96387L8.65088 3.78809H8.78931L9.20459 4.5H9.07275L8.78931 3.96387H8.65747L8.78931 4.13965L8.65747 4.31543H8.37402V4.13965H8.65088H8.65747ZM5.60547 3.78809H5.88232V5.2207H5.60547V3.78809Z" fill="#CA3745"/>
<path fill-rule="evenodd" clip-rule="evenodd" d="M5.18945 4.13965H6.29687V4.86035H5.18945V4.13965Z" fill="#CA3745"/>
<path fill-rule="evenodd" clip-rule="evenodd" d="M4.47813 31.7979L1.99414 33.6237V36.5991L4.50156 38.4249H6.98555L9.46953 36.5991V33.6237L6.98555 31.8317H4.50156L4.47813 31.7979Z" fill="#00843D"/>
<path fill-rule="evenodd" clip-rule="evenodd" d="M4.48303 31.7773L4.50932 31.8153H6.99106L9.48415 33.6139V36.6086L6.99111 38.441H4.50088L1.98438 36.6086V33.6139L4.48303 31.7773ZM2.00875 33.6331V36.5893L4.5071 38.4085H6.98484L9.45977 36.5894V33.6332L6.98489 31.8478H4.49865L4.47808 31.8181L2.00875 33.6331Z" fill="black"/>
<path fill-rule="evenodd" clip-rule="evenodd" d="M2.93555 34.8311H3.08057V34.4531H3.38379V34.8223H3.5354V33.9609H3.38379V34.3301H3.08716V33.9609H2.93555V34.8223V34.8311ZM6.7522 37.6963H6.90381V37.3271H7.20044V37.6963H7.35205V36.8262H7.20703V37.1953H6.90381V36.8262H6.75879V37.6875L6.7522 37.6963ZM4.3396 33.3896H4.49121V33.0293H4.79443V33.3984H4.93945V32.5371H4.79443V32.9062H4.49121V32.5371H4.3396V33.3984V33.3896ZM6.54785 33.3896H6.69946V33.0293H7.00269V33.3984H7.1543V32.5371H7.00269V32.9062H6.69946V32.5371H6.54785V33.3984V33.3896ZM7.9585 34.8311H8.10352V34.4531H8.40674V34.8223H8.55835V33.9609H8.40674V34.3301H8.10352V33.9609H7.9585V34.8223V34.8311ZM7.9585 36.2637H8.10352V35.8945H8.40674V36.2637H8.55835V35.4023H8.40674V35.7715H8.10352V35.4023H7.9585V36.2637Z" fill="#CC0000"/>
<path fill-rule="evenodd" clip-rule="evenodd" d="M5.74316 38.2676V35.1123H9.36206V36.5449L6.94287 38.2676H5.73657H5.74316ZM5.74316 31.9658V35.1123H2.13086V33.6797L4.53687 31.9658H5.74316Z" fill="#FAAE29"/>
<path fill-rule="evenodd" clip-rule="evenodd" d="M5.74316 31.9658V35.1123H9.36206V33.6797L6.94287 31.9658H5.73657H5.74316ZM5.74316 38.2676V35.1123H2.13086V36.5449L4.53687 38.2676H5.74316Z" fill="white"/>
<path fill-rule="evenodd" clip-rule="evenodd" d="M7.67536 33.8305H9.12448L7.67536 32.9734V33.8305ZM9.3626 33.6849V35.1161H7.07666V33.976H6.59362L5.98812 33.5475V32.5448L6.3555 32.1082H5.87246V33.5475H5.75V31.9707H6.9542L9.3626 33.6849Z" fill="#FAAE29"/>
<path fill-rule="evenodd" clip-rule="evenodd" d="M5.74609 31.9668H6.95431L9.36342 33.6815L9.36191 33.6853H9.36512V35.1208H7.07276V33.9807H6.59213L5.98421 33.5504V32.5433L6.34638 32.1128H5.87498V33.5521H5.74609V31.9668ZM9.3587 33.6879L6.9527 31.9754H5.75252V33.5436H5.86856V32.1043H6.36324L5.99064 32.5471V33.5453L6.59373 33.9721H7.07918V35.1122H9.3587V33.6879ZM7.67145 32.9672L9.12509 33.8269L9.12379 33.8351H7.67145V32.9672ZM7.67788 32.9803V33.8266H9.10863L7.67788 32.9803Z" fill="black"/>
<path fill-rule="evenodd" clip-rule="evenodd" d="M4.53906 34.1104V36.123H4.90161L5.74536 36.7031L6.58911 36.123H6.95166V34.1191H6.58911L5.74536 33.5479L4.90161 34.1191H4.53906V34.1104Z" fill="#CA3745"/>
<path fill-rule="evenodd" clip-rule="evenodd" d="M3.81878 36.4029H2.36966L3.81878 37.26V36.4029ZM2.13154 36.5485V35.1173H4.41748V36.2574H4.90052L5.50602 36.6859V37.6886L5.13864 38.1252H5.62168V36.6859H5.74414V38.2627H4.53994L2.13154 36.5485Z" fill="#FAAE29"/>
<path fill-rule="evenodd" clip-rule="evenodd" d="M5.74609 38.2666H4.53788L2.12877 36.5519L2.13028 36.5481H2.12707V35.1126H4.41943V36.2527H4.90006L5.50797 36.683V37.6901L5.14581 38.1206H5.61721V36.6813H5.74609V38.2666ZM2.13349 36.5455L4.53949 38.258H5.73967V36.6898H5.62363V38.1291H5.12895L5.50155 37.6863V36.6881L4.89846 36.2613H4.41301V35.1212H2.13349V36.5455ZM3.82073 37.2662L2.3671 36.4065L2.3684 36.3983H3.82073V37.2662ZM3.81431 37.2531V36.4068H2.38356L3.81431 37.2531Z" fill="black"/>
<path fill-rule="evenodd" clip-rule="evenodd" d="M3.81878 33.8305H2.36966L3.81878 32.9734V33.8305ZM2.13154 33.6849V35.1161H4.41748V33.976H4.90052L5.50602 33.5475V32.5448L5.13864 32.1082H5.62168V33.5475H5.74414V31.9707H4.53994L2.13154 33.6849Z" fill="white"/>
<path fill-rule="evenodd" clip-rule="evenodd" d="M5.74609 31.9668H4.53788L2.12877 33.6815L2.13028 33.6853H2.12707V35.1208H4.41943V33.9807H4.90006L5.50797 33.5504V32.5433L5.14581 32.1128H5.61721V33.5521H5.74609V31.9668ZM2.13349 33.6879L4.53949 31.9754H5.73967V33.5436H5.62363V32.1043H5.12895L5.50155 32.5471V33.5453L4.89846 33.9721H4.41301V35.1122H2.13349V33.6879ZM3.82073 32.9672L2.3671 33.8269L2.3684 33.8351H3.82073V32.9672ZM3.81431 32.9803V33.8266H2.38356L3.81431 32.9803Z" fill="black"/>
<path fill-rule="evenodd" clip-rule="evenodd" d="M7.67536 36.4029H9.12448L7.67536 37.26V36.4029ZM9.3626 36.5485V35.1173H7.07666V36.2574H6.59362L5.98812 36.6859V37.6886L6.3555 38.1252H5.87246V36.6859H5.75V38.2627H6.9542L9.3626 36.5485Z" fill="white"/>
<path fill-rule="evenodd" clip-rule="evenodd" d="M5.74609 38.2666H6.95431L9.36342 36.5519L9.36191 36.5481H9.36512V35.1126H7.07276V36.2527H6.59213L5.98421 36.683V37.6901L6.34638 38.1206H5.87498V36.6813H5.74609V38.2666ZM9.3587 36.5455L6.9527 38.258H5.75252V36.6898H5.86856V38.1291H6.36324L5.99064 37.6863V36.6881L6.59373 36.2613H7.07918V35.1212H9.3587V36.5455ZM7.67145 37.2662L9.12509 36.4065L9.12379 36.3983H7.67145V37.2662ZM7.67788 37.2531V36.4068H9.10863L7.67788 37.2531Z" fill="black"/>
<path fill-rule="evenodd" clip-rule="evenodd" d="M2.85815 36.2637H3.00317V35.8242H3.3064V36.2637H3.45801V35.2617H3.3064V35.6924H3.00317V35.2529H2.85815V36.2637ZM4.30176 37.6963H4.45337V37.2568H4.75V37.6963H4.90161V36.6943H4.75V37.125H4.45337V36.6855H4.30176V37.7051V37.6963ZM2.85156 33.9697H3.00317V34.4004H3.3064V33.9609H3.45801V34.9805H3.3064V34.541H3.00317V34.9717H2.85815V33.9697H2.85156ZM4.30176 32.5371H4.45337V32.9678H4.75V32.5283H4.90161V33.5391H4.75V33.1084H4.45337V33.5479H4.30176V32.5371ZM6.58911 37.6963H6.74072V37.2568H7.04394V37.6963H7.19556V36.6943H7.04394V37.125H6.74072V36.6855H6.58911V37.7051V37.6963ZM8.03931 34.9717H8.19092V34.541H8.48755V34.9805H8.63916V33.9697H8.48755V34.4004H8.19751V33.9609H8.0459V34.9805L8.03931 34.9717Z" fill="#CA3745"/>
<path fill-rule="evenodd" clip-rule="evenodd" d="M6.58789 37.6963H6.7395V37.2568H7.04272V37.6963H7.19434V36.6943H7.04272V37.125H6.7395V36.6855H6.58789V37.7051V37.6963Z" fill="#CA3745"/>
<path fill-rule="evenodd" clip-rule="evenodd" d="M6.58789 37.6963H6.7395V37.2568H7.04272V37.6963H7.19434V36.6943H7.04272V37.125H6.7395V36.6855H6.58789V37.7051V37.6963ZM8.03809 36.2637H8.1897V35.8242H8.48633V36.2637H8.63794V35.2617H8.48633V35.6836H8.19629V35.2529H8.04468V36.2637H8.03809ZM6.58789 33.5391H6.7395V33.1084H7.04272V33.5479H7.19434V32.5371H7.04272V32.9678H6.7395V32.5283H6.58789V33.5391Z" fill="#CA3745"/>
<path fill-rule="evenodd" clip-rule="evenodd" d="M5.8689 35.1123L6.3501 34.585H6.5874V34.8486H6.3501V34.9805H6.71265V34.4619H6.3501V34.0664H5.8689V34.4619H5.98755V34.1982H6.22485V34.4619L5.74365 34.9893L5.26245 34.4619V34.1982H5.50635V34.4619H5.625V34.0664H5.1438V34.4619H4.78125V34.9893H5.1438V34.8574H4.8999V34.5938H5.1438L5.625 35.1211L5.1438 35.6396H4.8999V35.376H5.1438V35.2441H4.78125V35.7715H5.1438V36.1582H5.625V35.7715H5.50635V36.0352H5.26245V35.7715L5.74365 35.2441L6.22485 35.7715V36.0352H5.98755V35.7715H5.8689V36.1582H6.3501V35.7715H6.71265V35.2441H6.3501V35.376H6.5874V35.6396H6.3501L5.8689 35.1123Z" fill="white"/>
<path fill-rule="evenodd" clip-rule="evenodd" d="M2.36618 12.9123L2.59749 12.5922H3.99899L5.04672 11.1855H6.44821L7.49594 12.6007H8.89744L9.12875 12.9123L8.89744 13.224H7.48913L6.44141 14.6391H5.03991L3.99899 13.224H2.59069L2.35938 12.9123H2.36618Z" fill="#CA3745"/>
<path fill-rule="evenodd" clip-rule="evenodd" d="M2.48633 12.9375L2.61301 12.7844H4.05722L5.14037 11.2988H6.34388L7.43336 12.792H8.87757L8.99792 12.9452L8.87757 13.0907H7.43336L6.46423 14.4307H5.02002L4.05722 13.0907H2.60668L2.48633 12.9375Z" fill="#CA3745"/>
<path fill-rule="evenodd" clip-rule="evenodd" d="M5.13694 11.2871H6.34808L7.43757 12.7803H8.88158L9.01159 12.9457L8.88145 13.1031H7.43759L6.46846 14.4431H5.01655L4.05374 13.1031H2.60344L2.48047 12.9466L2.48672 12.9379L2.48064 12.9289L2.60991 12.7726H4.05378L5.13694 11.2871ZM2.5 12.9381L2.61069 13.0789H4.06147L5.02427 14.419H6.46077L7.42991 13.0789H8.87446L8.98502 12.9453L8.87433 12.8044H7.42993L6.34044 11.3112H5.14458L4.06143 12.7968H2.61689L2.5 12.9381Z" fill="black"/>
<path fill-rule="evenodd" clip-rule="evenodd" d="M6.33298 13.0722L6.79561 13.6955L6.56429 14.0072L6.44183 13.8555H6.33298V14.0072L6.44864 14.1672H6.68676L6.91807 13.8555V13.5355L6.44864 12.9121L6.91807 12.2804V11.9687L6.68676 11.6571H6.44864L6.33298 11.8087V11.9687H6.44864L6.5711 11.8087L6.80241 12.1288L6.33298 12.7521L5.87035 12.1288L6.33298 11.497V11.337H6.21732L5.75469 11.9687L5.28526 11.337H5.1696V11.497L5.63223 12.1288L5.1696 12.7521L4.70016 12.1288L4.93828 11.8087L5.05394 11.9687H5.1696V11.8087L5.05394 11.6571H4.81582L4.58451 11.9687V12.2804L5.05394 12.9121L4.58451 13.5355V13.8555L4.81582 14.1672H5.05394L5.1696 14.0072V13.8555H5.04033L4.92468 14.0072L4.68656 13.6955L5.15599 13.0722L5.61862 13.6955L5.15599 14.3272V14.4789H5.27165L5.74108 13.8555L6.20371 14.4789H6.31937V14.3272L5.85674 13.6955L6.31937 13.0722H6.33298ZM5.74789 12.2804L5.27845 12.9121L5.74789 13.5355L6.21052 12.9121L5.74789 12.2804ZM5.04714 14.6389V15.9024L5.1628 15.7339L5.27845 15.9024L5.39411 15.7339L5.50977 15.9024L5.63223 15.7339L5.74789 15.9024L5.86354 15.7339L5.9792 15.9024L6.09486 15.7339L6.21052 15.9024L6.32618 15.7339L6.44864 15.9024V14.6389H5.04033H5.04714ZM6.44864 11.1854V9.92188L6.32618 10.0903L6.21052 9.92188L6.09486 10.0903L5.9792 9.92188L5.86354 10.0903L5.74789 9.92188L5.62543 10.0903L5.50977 9.92188L5.39411 10.0903L5.27845 9.92188L5.1628 10.0903L5.04714 9.92188V11.1854H6.44864ZM8.42162 12.6005V11.337L8.31277 11.5054L8.19711 11.337L8.08145 11.5054L7.95899 11.337L7.84333 11.5054L7.72767 11.337L7.61202 11.5054L7.49636 11.337V12.6005H8.42842H8.42162ZM3.99941 12.6005V11.337L3.87695 11.5054L3.7613 11.337L3.64564 11.5054L3.52998 11.337L3.41432 11.5054L3.29867 11.337L3.1762 11.5054L3.06055 11.337V12.6005H3.99261H3.99941ZM8.42842 13.2238V14.4873L8.31277 14.3188L8.19711 14.4873L8.08145 14.3188L7.95899 14.4873L7.84333 14.3188L7.72767 14.4873L7.61202 14.3188L7.49636 14.4873V13.2238H8.42842ZM3.99261 13.2238V14.4873L3.87695 14.3188L3.7613 14.4873L3.64564 14.3188L3.52998 14.4873L3.41432 14.3188L3.29867 14.4873L3.1762 14.3188L3.06055 14.4873V13.2238H3.99261Z" fill="#FAAE29"/>
<path fill-rule="evenodd" clip-rule="evenodd" d="M6.44226 14.6383V15.4216L6.56472 15.2616L6.68038 15.4301L6.79603 15.2616L6.91169 15.4301L7.02735 15.2616L7.14301 15.4301L7.26547 15.2616L7.38113 15.4301L7.49678 15.2616V13.2232L6.44226 14.6383ZM5.04756 14.6383V15.4216L4.9251 15.2616L4.80944 15.4301L4.69379 15.2616L4.57813 15.4301L4.46247 15.2616L4.34681 15.4301L4.23115 15.2616L4.1155 15.4301L3.99304 15.2616V13.2232L5.04756 14.6383ZM5.04756 11.1847V10.4014L4.9251 10.553L4.80944 10.4014L4.69379 10.553L4.57813 10.4014L4.46247 10.553L4.34681 10.4014L4.23115 10.553L4.1155 10.4014L3.99304 10.553V12.5998L5.04756 11.1847ZM6.44226 11.1847V10.4014L6.56472 10.553L6.68038 10.4014L6.79603 10.553L6.91169 10.4014L7.02735 10.553L7.14301 10.4014L7.25866 10.553L7.38113 10.4014L7.49678 10.553V12.5998L6.44226 11.1847ZM3.06097 14.1666L2.94531 14.0065L2.82966 14.175L2.714 14.0065L2.59834 14.175L2.48268 14.0065L2.36022 14.175L2.24456 14.0065L2.12891 14.175V11.648L2.24456 11.8165L2.36022 11.648L2.48268 11.8165L2.59834 11.648L2.714 11.8165L2.82966 11.648L2.94531 11.8165L3.06097 11.648V12.5998H2.59834L2.36022 12.9115L2.59834 13.2232H3.06097V14.1666ZM8.42885 14.1666L8.54451 14.0065L8.66016 14.175L8.77582 14.0065L8.89828 14.175L9.01394 14.0065L9.1296 14.175L9.24526 14.0065L9.36091 14.175V11.648L9.24526 11.8165L9.1296 11.648L9.01394 11.8165L8.89828 11.648L8.77582 11.8165L8.66016 11.648L8.54451 11.8165L8.42885 11.648V12.5998H8.89828L9.1296 12.9115L8.89828 13.2232H8.42885V14.1666Z" fill="#00843D"/>
<path fill-rule="evenodd" clip-rule="evenodd" d="M4.46973 14.7398C4.46973 14.7398 4.37448 14.8577 4.37448 14.9251C4.37448 14.984 4.47653 15.1104 4.52415 15.1104C4.57858 15.1104 4.66703 14.984 4.66703 14.9251C4.66703 14.8661 4.57178 14.7398 4.57178 14.7398V14.4871C4.57178 14.4871 4.77588 14.9167 4.77588 14.7313C4.77588 14.5966 4.57178 14.3691 4.57178 14.3691H4.46973C4.46973 14.3691 4.26562 14.6387 4.26562 14.7313C4.26562 14.9167 4.46973 14.4871 4.46973 14.4871V14.7398Z" fill="white"/>
<path fill-rule="evenodd" clip-rule="evenodd" d="M5.6879 15.2195C5.6879 15.2195 5.57224 15.388 5.57224 15.4722C5.57224 15.5564 5.6947 15.7417 5.74913 15.7417C5.81716 15.7417 5.91921 15.5649 5.91921 15.4806C5.91921 15.3964 5.80355 15.2195 5.80355 15.2195V14.8657C5.80355 14.8657 6.00766 15.4385 6.00766 15.1774C6.00766 15.0089 5.80355 14.6973 5.80355 14.6973H5.6879C5.6879 14.6973 5.44978 15.0847 5.48379 15.1774C5.48379 15.4385 5.6879 14.8657 5.6879 14.8657V15.2195Z" fill="#CA3745"/>
<path d="M4.46091 13.0623C4.58817 13.0623 4.69134 12.9909 4.69134 12.9028C4.69134 12.8146 4.58817 12.7432 4.46091 12.7432C4.33364 12.7432 4.23047 12.8146 4.23047 12.9028C4.23047 12.9909 4.33364 13.0623 4.46091 13.0623Z" fill="#00843D"/>
<path d="M5.74606 13.0623C5.87333 13.0623 5.9765 12.9909 5.9765 12.9028C5.9765 12.8146 5.87333 12.7432 5.74606 12.7432C5.6188 12.7432 5.51562 12.8146 5.51562 12.9028C5.51562 12.9909 5.6188 13.0623 5.74606 13.0623Z" fill="#00843D"/>
<path d="M7.02536 13.0623C7.15263 13.0623 7.2558 12.9909 7.2558 12.9028C7.2558 12.8146 7.15263 12.7432 7.02536 12.7432C6.89809 12.7432 6.79492 12.8146 6.79492 12.9028C6.79492 12.9909 6.89809 13.0623 7.02536 13.0623Z" fill="#00843D"/>
<path fill-rule="evenodd" clip-rule="evenodd" d="M4.44919 11.1007C4.44919 11.1007 4.35394 10.9744 4.35394 10.9154C4.35394 10.8565 4.45599 10.7217 4.49681 10.7217C4.55124 10.7217 4.63968 10.848 4.63968 10.907C4.63968 10.9744 4.54443 11.1007 4.54443 11.1007V11.3534C4.54443 11.3534 4.75534 10.9154 4.75534 11.1007C4.75534 11.2355 4.55124 11.4713 4.55124 11.4713H4.44919C4.44919 11.4713 4.23828 11.2018 4.23828 11.1091C4.23828 10.9238 4.44238 11.345 4.44238 11.345V11.0923L4.44919 11.1007Z" fill="white"/>
<path fill-rule="evenodd" clip-rule="evenodd" d="M5.65954 10.6125C5.65954 10.6125 5.54389 10.444 5.54389 10.3598C5.54389 10.2755 5.67315 10.0986 5.72077 10.0986C5.78881 10.0986 5.89766 10.2671 5.89766 10.3513C5.89766 10.4356 5.782 10.6209 5.782 10.6209V10.9578C5.782 10.9578 5.98611 10.3934 5.98611 10.6546C5.98611 10.823 5.782 11.1431 5.782 11.1431H5.65274C5.65274 11.1431 5.41462 10.7472 5.44864 10.6546C5.44864 10.4019 5.65274 10.9662 5.65274 10.9662V10.6125H5.65954Z" fill="#CA3745"/>
<path fill-rule="evenodd" clip-rule="evenodd" d="M6.95202 14.7396C6.95202 14.7396 6.85677 14.8575 6.85677 14.9249C6.85677 14.9839 6.95882 15.1102 7.00645 15.1102C7.06087 15.1102 7.14932 14.9839 7.14932 14.9249C7.14932 14.8659 7.05407 14.7396 7.05407 14.7396V14.4869C7.05407 14.4869 7.25817 14.9165 7.25817 14.7312C7.25817 14.5964 7.05407 14.369 7.05407 14.369H6.94522C6.94522 14.369 6.74111 14.6385 6.74111 14.7312C6.74111 14.9165 6.94522 14.4869 6.94522 14.4869V14.7396H6.95202ZM6.93161 11.1007C6.93161 11.1007 6.83636 10.9744 6.83636 10.907C6.83636 10.8565 6.93841 10.7217 6.97923 10.7217C7.03366 10.7217 7.1221 10.848 7.1221 10.907C7.1221 10.9744 7.02686 11.1007 7.02686 11.1007V11.3534C7.02686 11.3534 7.23776 10.9154 7.23776 11.1007C7.23776 11.2355 7.03366 11.4713 7.03366 11.4713H6.93161C6.93161 11.4713 6.7207 11.2018 6.7207 11.1091C6.7207 10.9238 6.9248 11.345 6.9248 11.345V11.0923L6.93161 11.1007Z" fill="white"/>
<path fill-rule="evenodd" clip-rule="evenodd" d="M3.45521 13.864C3.45521 13.864 3.32595 13.9819 3.32595 14.0325C3.32595 14.0914 3.46202 14.2178 3.52325 14.2094C3.59128 14.2094 3.71374 14.0998 3.71374 14.0409C3.71374 13.9819 3.58448 13.864 3.58448 13.864V13.6281C3.58448 13.6281 3.81579 14.0072 3.81579 13.8387C3.81579 13.7208 3.58448 13.5102 3.58448 13.5102H3.45521C3.45521 13.5102 3.18988 13.7798 3.2307 13.8387C3.2307 14.0072 3.45521 13.6281 3.45521 13.6281V13.864ZM3.428 12.0867C3.428 12.0867 3.29874 11.9688 3.29874 11.9098C3.29874 11.8508 3.4348 11.7329 3.49603 11.7413C3.56407 11.7413 3.68653 11.8508 3.68653 11.9098C3.68653 11.9688 3.55726 12.0783 3.55726 12.0783V12.3141C3.55726 12.3141 3.78858 11.9351 3.78858 12.112C3.78858 12.2215 3.55726 12.432 3.55726 12.432H3.428C3.428 12.432 3.16267 12.1709 3.20349 12.112C3.20349 11.9435 3.428 12.3141 3.428 12.3141V12.0867ZM7.93865 13.8219C7.93865 13.8219 7.80258 13.9398 7.80258 13.9988C7.80258 14.0577 7.94545 14.1757 8.00668 14.1757C8.07472 14.1757 8.19718 14.0577 8.19718 14.0072C8.19718 13.9398 8.06111 13.8219 8.06111 13.8219V13.5945C8.06111 13.5945 8.29243 13.9735 8.29243 13.7966C8.29243 13.6871 8.06791 13.4765 8.06791 13.4765H7.93185C7.93185 13.4765 7.67332 13.7376 7.70733 13.7966C7.70733 13.9735 7.93865 13.5945 7.93865 13.5945V13.8303V13.8219ZM7.91144 12.053C7.91144 12.053 7.77537 11.9351 7.77537 11.8761C7.77537 11.8171 7.91824 11.6992 7.97947 11.6992C8.0475 11.6992 8.16996 11.8171 8.16996 11.8677C8.16996 11.9351 8.0339 12.0446 8.0339 12.0446V12.2804C8.0339 12.2804 8.26521 11.9014 8.26521 12.0698C8.26521 12.1878 8.0407 12.3983 8.0407 12.3983H7.90463C7.90463 12.3983 7.6461 12.1372 7.68012 12.0783C7.68012 11.9014 7.91144 12.2804 7.91144 12.2804V12.0446V12.053Z" fill="#CA3745"/>
<path fill-rule="evenodd" clip-rule="evenodd" d="M2.504 13.8473C2.46318 13.7378 2.47679 13.6872 2.47679 13.6283C2.47679 13.5693 2.59244 13.4598 2.63326 13.4598C2.68769 13.4598 2.77614 13.5777 2.77614 13.6451C2.77614 13.7041 2.77614 13.7546 2.75573 13.8641L2.7013 13.6872C2.62646 13.9399 2.61966 13.9399 2.57884 13.6788L2.5108 13.8473H2.504ZM2.504 12.0363C2.46998 12.1458 2.47679 12.1963 2.47679 12.2553C2.47679 12.3143 2.59244 12.4238 2.64007 12.4238C2.69449 12.4238 2.78294 12.3058 2.78294 12.2384C2.78294 12.1795 2.78294 12.1289 2.76253 12.0194L2.7013 12.1963C2.63326 11.9436 2.62646 11.9436 2.57884 12.2048L2.5108 12.0363H2.504ZM8.79714 13.822C8.75632 13.7125 8.76312 13.662 8.76312 13.603C8.76312 13.544 8.88558 13.4345 8.9264 13.4345C8.98083 13.4345 9.06927 13.5609 9.06927 13.6199C9.06927 13.6788 9.06927 13.7378 9.04886 13.8389L8.98763 13.662C8.9196 13.9147 8.9128 13.9231 8.86517 13.662L8.79714 13.822ZM8.79714 12.0194C8.75632 12.1205 8.76993 12.1711 8.76993 12.2384C8.76993 12.289 8.88558 12.4069 8.9264 12.4069C8.98083 12.4069 9.07608 12.2806 9.07608 12.2216C9.07608 12.1542 9.07608 12.1037 9.05567 11.9942L8.98763 12.1795C8.9196 11.9184 8.9196 11.9099 8.87198 12.1795L8.80394 12.011L8.79714 12.0194Z" fill="white"/>
<path fill-rule="evenodd" clip-rule="evenodd" d="M5.02562 15.9352V15.4803H3.93708V14.5875H2.971V14.2927H2.12738V11.5972H2.971V11.3024H3.93708V10.4096H5.02562V9.96314H6.46794V10.4096H7.55648V11.3024H8.51576V11.6057H9.36619V14.2927H8.52257V14.5875H7.56329V15.4803H6.47474V15.9268H5.03243L5.02562 15.9352ZM4.90316 16.0784V15.6319H3.81462V14.7391H2.85534V14.4358H2.01172V11.454H2.85534V11.1592H3.81462V10.258H4.90316V9.81152H6.5904V10.258H7.67895V11.1592H8.63822V11.454H9.48184V14.4358H8.63822V14.7391H7.67214V15.6319H6.5836V16.0784H4.90316Z" fill="#CA3745"/>
<path fill-rule="evenodd" clip-rule="evenodd" d="M4.90121 9.80762H6.59501V10.254H7.68355V11.1553H8.64283V11.4501H9.48645V14.4407H8.64283V14.7439H7.67675V15.6368H6.5882V16.0832H4.90449V16.0788H4.90121V15.6368H3.81266V14.7439H2.85339V14.4407H2.00977V11.4501H2.85339V11.1553H3.81266V10.254H4.90121V9.80762ZM4.90776 16.0745H6.58165V15.628H7.67019V14.7352H8.63627V14.4319H9.47989V11.4589H8.63627V11.1641H7.67699V10.2628H6.58845V9.81636H4.90776V10.2628H3.81922V11.1641H2.85994V11.4589H2.01632V14.4319H2.85994V14.7352H3.81922V15.628H4.90776V16.0745ZM5.02367 9.95923H6.47254V10.4057H7.56109V11.2985H8.52037V11.6018H9.37079V14.2975H8.52717V14.5923H7.56789V15.4852H6.47935V15.9316H5.03504L5.02367 15.9457V15.4852H3.93513V14.5923H2.96904V14.2975H2.12542V11.5933H2.96904V11.2985H3.93513V10.4057H5.02367V9.95923ZM5.03022 9.96798V10.4144H3.94168V11.3073H2.9756V11.6021H2.13198V14.2887H2.9756V14.5836H3.94168V15.4764H5.03022V15.9256L5.03246 15.9228H6.47279V15.4764H7.56134V14.5836H8.52061V14.2887H9.36423V11.6105H8.51381V11.3073H7.55453V10.4144H6.46599V9.96798H5.03022Z" fill="black"/>
</g>
<defs>
<clipPath id="clip0_45_21041">
<rect width="45" height="45" fill="white"/>
</clipPath>
</defs>
</svg>
