<svg width="45" height="45" viewBox="0 0 45 45" fill="none" xmlns="http://www.w3.org/2000/svg">
<g clip-path="url(#clip0_45_21294)">
<path d="M0 0H45V45H0V0Z" fill="#009FCA"/>
<path fill-rule="evenodd" clip-rule="evenodd" d="M41.718 11.5031H43.6656L42.0977 12.9281L42.6953 15.2438L41.1273 13.8094L39.5664 15.2438L40.1641 12.9281L38.5961 11.5031H40.5297L41.1273 9.1875L41.718 11.5031ZM36.8523 29.9531H38.793L37.225 31.3781L37.8227 33.6937L36.2547 32.2594L34.6867 33.6937L35.2914 31.3781L33.7234 29.9531H35.65L36.2477 27.6375L36.8523 29.9531ZM41.718 25.7719H43.6656L42.0977 27.1969L42.6953 29.5125L41.1273 28.0781L39.5664 29.5125L40.1641 27.1969L38.5961 25.7719H40.5297L41.1273 23.4562L41.718 25.7719ZM20.8 39.1594H22.7406L21.1656 40.575L21.7703 42.8812L20.2023 41.4563L18.6344 42.8812L19.2391 40.575L17.6641 39.1406H19.6047L20.2023 36.8344L20.8 39.1594ZM25.2016 31.9875H23.2609L24.8289 30.5531L24.2312 28.2469L25.7992 29.6719L27.3672 28.2469L26.7625 30.5531L28.3305 31.9875H26.3969L25.7992 34.2937L25.2016 31.9875ZM30.918 21.4406H28.9703L30.5383 20.0156L29.9406 17.7L31.5086 19.1344L33.0766 17.7L32.4719 20.0156L34.0398 21.4406H32.1062L31.5086 23.7562L30.918 21.4406ZM35.7203 19.2562H33.7797L35.3547 17.8219L34.75 15.5156L36.318 16.9406L37.8859 15.5156L37.2812 17.8219L38.8562 19.2562H36.9156L36.318 21.5625L35.7203 19.2562ZM30.918 37.5H28.9703L30.5383 36.075L29.9547 33.75L31.5227 35.175L33.0906 33.75L32.4859 36.0656L34.0539 37.4906H32.1203L31.5227 39.8063L30.918 37.5ZM25.2016 39.3656H23.2609L24.8289 37.9406L24.2312 35.625L25.7992 37.05L27.3672 35.625L26.7625 37.9313L28.3375 39.375H26.4039L25.8062 41.6906L25.2016 39.3656Z" fill="#FFF40D"/>
<path d="M0 0H22.5V22.5H0V0Z" fill="#012169"/>
<path d="M2.63672 0L11.2148 8.48438L19.7578 0H22.5V2.90625L14.0625 11.2969L22.5 19.6406V22.5H19.6875L11.25 14.1094L2.84766 22.5H0V19.6875L8.40234 11.3438L0 3V0H2.63672Z" fill="white"/>
<path d="M14.9062 13.1719L22.5 20.625V22.5L12.9727 13.1719H14.9062ZM8.4375 14.1094L8.64844 15.75L1.89844 22.5H0L8.4375 14.1094ZM22.5 0V0.140625L13.7461 8.95312L13.8164 6.89062L20.7422 0H22.5ZM0 0L8.40234 8.25H6.29297L0 1.96875V0Z" fill="#C8102E"/>
<path d="M8.47266 0V22.5H14.0977V0H8.47266ZM0 7.5V15H22.5V7.5H0Z" fill="white"/>
<path d="M0 9.04688V13.5469H22.5V9.04688H0ZM9.59766 0V22.5H12.9727V0H9.59766Z" fill="#C8102E"/>
</g>
<defs>
<clipPath id="clip0_45_21294">
<rect width="45" height="45" fill="white"/>
</clipPath>
</defs>
</svg>
