<svg width="45" height="45" viewBox="0 0 45 45" fill="none" xmlns="http://www.w3.org/2000/svg">
<g clip-path="url(#clip0_45_21302)">
<path d="M0 0H50.625V45H0V0Z" fill="#FF0000"/>
<path d="M0 0H25.3125V22.5H0V0Z" fill="#000095"/>
<path d="M10.8281 11.8969L10.6523 12.7969L11.3133 13.0406L11.1867 12.375L10.8281 11.8969ZM14.1258 12.375L13.9992 13.0406L14.6602 12.7969L14.4844 11.8969L14.1258 12.375ZM11.1867 10.125L10.8281 10.6031L10.9617 11.25L11.1867 10.125Z" fill="white"/>
<path d="M10.9617 11.25L10.8281 11.8969L11.1867 12.375L10.9617 11.25Z" fill="white"/>
<path d="M10.8289 10.6035L10.3438 11.2504L10.8289 11.8973L10.9625 11.2504L10.8289 10.6035ZM11.8133 13.2098L12.1719 13.6879L12.657 13.5098L11.8133 13.2098ZM13.1422 13.6879L13.8172 13.9223L14 13.041L13.5008 13.2098L13.1422 13.6879Z" fill="white"/>
<path d="M13.4992 13.2094L13.9984 13.0406L14.125 12.375L13.4992 13.2094ZM11.3125 13.0406L11.4953 13.9219L12.1703 13.6875L11.8117 13.2094L11.3125 13.0406ZM12.6555 13.5094L13.1406 13.6875L13.4992 13.2094L12.6555 13.5094Z" fill="white"/>
<path d="M12.1711 13.6871L12.6562 14.334L13.1414 13.6871L12.6562 13.509L12.1711 13.6871ZM11.3133 9.45898L10.6523 9.70273L10.8281 10.6027L11.1867 10.1246L11.3133 9.45898ZM11.1867 12.3746L11.3133 13.0402L11.8125 13.209L11.1867 12.3746ZM14.3508 11.2496L14.4844 10.6027L14.1258 10.1246L14.3508 11.2496Z" fill="white"/>
<path d="M11.8133 9.29102L11.3141 9.45977L11.1875 10.1254L11.8133 9.29102ZM14.1266 10.1254L14 9.45977L13.5008 9.29102L14.1266 10.1254ZM14.4852 11.8973L14.9703 11.2504L14.4852 10.6035L14.3516 11.2504L14.4852 11.8973Z" fill="white"/>
<path d="M14.125 10.1246L13.4992 9.29023L12.6555 8.99023L11.8117 9.29023L11.1859 10.1246L10.9609 11.2496L11.1859 12.3746L11.8117 13.209L12.6555 13.509L13.4992 13.209L14.125 12.3746L14.35 11.2496L14.125 10.1246Z" fill="white"/>
<path d="M14.125 12.375L14.4836 11.8969L14.35 11.25L14.125 12.375ZM14.4836 10.6031L14.6594 9.70312L13.9984 9.45938L14.125 10.125L14.4836 10.6031ZM13.9984 9.45938L13.8156 8.57812L13.1406 8.8125L13.4992 9.29062L13.9984 9.45938ZM12.1703 8.8125L11.4953 8.57812L11.3125 9.45938L11.8117 9.29062L12.1703 8.8125ZM12.6555 8.99063L12.1703 8.8125L11.8117 9.29062L12.6555 8.99063Z" fill="white"/>
<path d="M13.1422 8.81289L12.657 8.16602L12.1719 8.81289L12.657 8.99102L13.1422 8.81289Z" fill="white"/>
<path d="M13.5008 9.29062L13.1422 8.8125L12.657 8.99063L13.5008 9.29062ZM12.1719 13.6875L11.4969 13.9219L11.8133 15.4781L12.657 14.3344L12.1719 13.6875ZM11.8133 15.4781L12.657 19.6875L13.5008 15.4781L12.657 14.3344L11.8133 15.4781ZM11.3141 13.0406L10.6531 12.7969L10.3438 14.3344L11.4969 13.9219L11.3141 13.0406Z" fill="white"/>
<path d="M10.343 14.3344L9.49922 18.5625L11.8125 15.4781L11.4961 13.9219L10.343 14.3344ZM9.49922 12.375L7.17188 15.4781L10.343 14.3344L10.6523 12.7969L9.49922 12.375Z" fill="white"/>
<path d="M10.8289 11.8969L10.3438 11.25L9.5 12.375L10.6531 12.7969L10.8289 11.8969ZM10.8289 10.6031L10.6531 9.70312L9.5 10.125L10.3438 11.25L10.8289 10.6031Z" fill="white"/>
<path d="M9.49922 10.125L6.32812 11.25L9.49922 12.375L10.343 11.25L9.49922 10.125ZM15.8273 12.375L14.6602 12.7969L14.9695 14.3344L18.1406 15.4781L15.8273 12.375Z" fill="white"/>
<path d="M13.9992 13.0406L13.8164 13.9219L14.9695 14.3344L14.6602 12.7969L13.9992 13.0406ZM13.1414 13.6875L12.6562 14.3344L13.5 15.4781L13.8164 13.9219L13.1414 13.6875ZM14.4844 11.8969L14.6602 12.7969L15.8273 12.375L14.9695 11.25L14.4844 11.8969Z" fill="white"/>
<path d="M13.5 15.4785L15.8273 18.5629L14.9695 14.3348L13.8164 13.9223L13.5 15.4785ZM13.9992 9.45977L14.6602 9.70352L14.9695 8.16602L13.8164 8.57852L13.9992 9.45977Z" fill="white"/>
<path d="M15.8273 10.125L18.1406 7.04062L14.9695 8.16562L14.6602 9.70312L15.8273 10.125ZM14.9695 8.16562L15.8273 3.9375L13.5 7.04062L13.8164 8.57812L14.9695 8.16562ZM15.8273 12.375L18.9844 11.25L15.8273 10.125L14.9695 11.25L15.8273 12.375Z" fill="white"/>
<path d="M14.4852 10.6031L14.9703 11.25L15.8281 10.125L14.6609 9.70312L14.4852 10.6031ZM11.8133 7.04062L9.5 3.9375L10.3438 8.16562L11.4969 8.57812L11.8133 7.04062Z" fill="white"/>
<path d="M11.3141 9.45977L11.4969 8.57852L10.3438 8.16602L10.6531 9.70352L11.3141 9.45977Z" fill="white"/>
<path d="M10.343 8.16602L7.17188 7.04102L9.49922 10.1254L10.6523 9.70352L10.343 8.16602ZM13.1414 8.81289L13.8164 8.57852L13.5 7.04102L12.6562 8.16602L13.1414 8.81289Z" fill="white"/>
<path d="M13.5 7.04062L12.6562 2.8125L11.8125 7.04062L12.6562 8.16562L13.5 7.04062Z" fill="white"/>
<path d="M12.1711 8.81289L12.6562 8.16602L11.8125 7.04102L11.4961 8.57852L12.1711 8.81289Z" fill="white"/>
<path d="M12.6555 16.0402C14.6398 16.0402 16.2484 13.8954 16.2484 11.2496C16.2484 8.60382 14.6398 6.45898 12.6555 6.45898C10.6711 6.45898 9.0625 8.60382 9.0625 11.2496C9.0625 13.8954 10.6711 16.0402 12.6555 16.0402Z" fill="#000095"/>
<path d="M12.6555 15.4777C14.4068 15.4777 15.8266 13.5847 15.8266 11.2496C15.8266 8.91448 14.4068 7.02148 12.6555 7.02148C10.9041 7.02148 9.48438 8.91448 9.48438 11.2496C9.48438 13.5847 10.9041 15.4777 12.6555 15.4777Z" fill="white"/>
</g>
<defs>
<clipPath id="clip0_45_21302">
<rect width="45" height="45" fill="white"/>
</clipPath>
</defs>
</svg>
