<svg width="45" height="45" viewBox="0 0 45 45" fill="none" xmlns="http://www.w3.org/2000/svg">
<g clip-path="url(#clip0_45_21340)">
<path fill-rule="evenodd" clip-rule="evenodd" d="M-2.8125 30.0059H47.8125V37.5029H-2.8125V30.0059Z" fill="#FFE700"/>
<path fill-rule="evenodd" clip-rule="evenodd" d="M-2.8125 22.5H47.8125V29.9971H-2.8125V22.5Z" fill="black"/>
<path fill-rule="evenodd" clip-rule="evenodd" d="M-2.8125 15.0029H47.8125V22.5H-2.8125V15.0029Z" fill="#DE3908"/>
<path fill-rule="evenodd" clip-rule="evenodd" d="M-2.8125 7.50586H47.8125V15.0029H-2.8125V7.50586Z" fill="#FFE700"/>
<path fill-rule="evenodd" clip-rule="evenodd" d="M-2.8125 0H47.8125V7.49707H-2.8125V0Z" fill="black"/>
<path fill-rule="evenodd" clip-rule="evenodd" d="M27.7534 22.5C27.7534 24.3578 27.1999 26.1395 26.2147 27.4532C25.2294 28.7669 23.8931 29.5049 22.4998 29.5049C21.1064 29.5049 19.7701 28.7669 18.7849 27.4532C17.7996 26.1395 17.2461 24.3578 17.2461 22.5C17.2461 20.6422 17.7996 18.8605 18.7849 17.5468C19.7701 16.2331 21.1064 15.4951 22.4998 15.4951C23.8931 15.4951 25.2294 16.2331 26.2147 17.5468C27.1999 18.8605 27.7534 20.6422 27.7534 22.5Z" fill="#FFFDFF"/>
<path fill-rule="evenodd" clip-rule="evenodd" d="M22.4995 15.5391C21.1149 15.5391 19.787 16.2724 18.8079 17.5779C17.8288 18.8833 17.2788 20.6538 17.2788 22.5C17.2788 24.3462 17.8288 26.1167 18.8079 27.4221C19.787 28.7276 21.1149 29.4609 22.4995 29.4609C23.8841 29.4609 25.212 28.7276 26.1911 27.4221C27.1702 26.1167 27.7202 24.3462 27.7202 22.5C27.7202 20.6538 27.1702 18.8833 26.1911 17.5779C25.212 16.2724 23.8841 15.5391 22.4995 15.5391ZM18.7613 17.5157C19.7527 16.1938 21.0974 15.4512 22.4995 15.4512C23.9016 15.4512 25.2463 16.1938 26.2377 17.5157C27.2292 18.8376 27.7861 20.6305 27.7861 22.5C27.7861 24.3695 27.2292 26.1624 26.2377 27.4843C25.2463 28.8062 23.9016 29.5488 22.4995 29.5488C21.0974 29.5488 19.7527 28.8062 18.7613 27.4843C17.7699 26.1624 17.2129 24.3695 17.2129 22.5C17.2129 20.6305 17.7699 18.8376 18.7613 17.5157Z" fill="black"/>
<path fill-rule="evenodd" clip-rule="evenodd" d="M21.5771 17.1299L21.2344 16.2949C21.3662 16.1191 21.5837 15.9785 21.9397 15.9785L21.9001 16.9014L21.5706 17.1299H21.5771Z" fill="#DE3108"/>
<path fill-rule="evenodd" clip-rule="evenodd" d="M21.2751 16.3033L21.5889 17.0675L21.8681 16.8739L21.9045 16.0229C21.592 16.0314 21.3969 16.1532 21.2751 16.3033ZM21.6205 17.1446L21.9317 16.9288L21.9743 15.9346H21.9395C21.5766 15.9346 21.35 16.0782 21.2108 16.2638L21.1934 16.2871L21.548 17.151L21.564 17.1393L21.5703 17.1738H21.6325L21.6205 17.1446Z" fill="black"/>
<path fill-rule="evenodd" clip-rule="evenodd" d="M21.905 16.9015L21.9512 15.9787C21.9512 15.9787 22.6565 15.9259 23.0388 16.5412L22.6631 17.2619L21.8984 16.9103L21.905 16.9015Z" fill="#FFE700"/>
<path fill-rule="evenodd" clip-rule="evenodd" d="M21.9841 16.0216L21.941 16.8825L22.6523 17.2095L22.9993 16.5439C22.8157 16.2644 22.5609 16.1331 22.3467 16.0722C22.2368 16.0409 22.1385 16.0285 22.0677 16.0239C22.0324 16.0216 22.004 16.0213 21.9845 16.0215C21.9844 16.0215 21.9842 16.0216 21.9841 16.0216ZM21.875 16.8821L21.9222 15.937L21.9513 15.9348L21.9532 15.9787C21.9513 15.9348 21.9513 15.9348 21.9513 15.9348L21.9514 15.9348L21.9515 15.9348L21.952 15.9347L21.9537 15.9346C21.9552 15.9345 21.9573 15.9344 21.9601 15.9343C21.9656 15.9341 21.9736 15.9338 21.9839 15.9337C22.0045 15.9334 22.0342 15.9338 22.0709 15.9361C22.1444 15.9409 22.2463 15.9538 22.3605 15.9862C22.5882 16.051 22.8684 16.1948 23.0662 16.5131L23.0822 16.5388L22.6779 17.3143L21.8398 16.9289L21.875 16.8821Z" fill="black"/>
<path fill-rule="evenodd" clip-rule="evenodd" d="M22.6719 17.2529L23.0212 16.5322C23.252 16.8574 23.3508 17.0859 23.3838 17.4375C23.3904 17.4463 22.8367 17.6221 22.8367 17.6133L22.6719 17.2529Z" fill="#DE3108"/>
<path fill-rule="evenodd" clip-rule="evenodd" d="M23.0171 16.4609L23.046 16.5016C23.2791 16.8302 23.3827 17.0667 23.4171 17.4294C23.4179 17.4352 23.4178 17.4415 23.4166 17.4478C23.4145 17.4596 23.4093 17.4667 23.4076 17.469C23.4038 17.4739 23.3998 17.4766 23.3988 17.4773L23.3988 17.4774C23.3958 17.4794 23.3927 17.481 23.3907 17.4819C23.386 17.4842 23.3796 17.4868 23.3722 17.4897C23.3572 17.4955 23.3357 17.5032 23.3101 17.512C23.2589 17.5297 23.1901 17.5523 23.1212 17.5743C23.0523 17.5963 22.9831 17.6178 22.931 17.6332C22.9051 17.6409 22.8832 17.6472 22.8676 17.6513C22.86 17.6533 22.8534 17.6549 22.8485 17.6559C22.8463 17.6563 22.8435 17.6568 22.8408 17.657C22.8398 17.6571 22.8369 17.6573 22.8334 17.6567C22.832 17.6564 22.8275 17.6555 22.8224 17.652C22.819 17.6497 22.8124 17.6438 22.8082 17.6332L22.6445 17.2754L22.6727 17.2525L22.645 17.2286L23.0171 16.4609ZM22.7116 17.2532L22.8543 17.5652C22.8545 17.5652 22.8547 17.5651 22.8549 17.5651C22.8696 17.5612 22.8909 17.5551 22.9167 17.5474C22.9683 17.5321 23.0371 17.5107 23.1058 17.4888C23.1745 17.4669 23.2429 17.4444 23.2936 17.4269C23.3159 17.4192 23.3346 17.4126 23.3483 17.4074C23.3149 17.1021 23.2264 16.8914 23.0268 16.6029L22.7116 17.2532ZM22.8665 17.5919L22.8651 17.5889C22.8656 17.5898 22.866 17.5908 22.8665 17.5919Z" fill="black"/>
<path fill-rule="evenodd" clip-rule="evenodd" d="M21.7502 29.1007C21.7502 29.1007 22.4028 28.1076 23.6684 28.3185C23.4772 27.9054 22.8576 27.9581 22.8576 27.9581C22.8576 27.9581 22.673 26.0246 22.818 25.9191C22.9631 25.8136 23.6091 25.9279 23.6091 25.9279C23.6882 25.9279 23.8332 25.629 23.7145 25.4357C23.6025 25.2423 23.2663 24.5128 23.4047 24.3634C23.5431 24.2228 24.288 24.4513 24.288 24.4513L22.1786 20.8478C22.1786 20.8478 21.9611 19.4855 22.3962 18.8263C22.9169 18.255 22.8576 17.631 22.8444 17.6398C22.7719 17.007 22.0534 16.5587 21.5656 17.1388C21.2822 17.5958 21.4733 17.9474 21.4733 17.9474C21.4733 17.9474 20.7153 18.2199 20.6889 18.3956C20.6559 18.5714 21.5392 18.3693 21.5392 18.3693L21.4535 19.1691C21.4535 19.1691 19.7397 21.2433 21.058 23.0363L21.0976 22.966C21.0976 22.966 21.559 23.7218 22.0402 23.8888C22.5016 24.504 22.4555 24.4162 22.4555 24.4162C22.4555 24.4162 22.5412 25.3917 22.4555 25.5851C22.3434 25.5412 21.1833 25.4796 21.0119 25.5675C20.8537 25.6378 20.2604 25.5939 20.4054 26.8947L20.623 26.2355C20.623 26.2355 20.6032 26.7013 20.7482 26.8683C20.7218 26.3761 20.8866 26.0421 20.8866 26.0421C20.8866 26.0421 20.913 26.5871 21.0053 26.6574C21.0976 26.7453 21.0976 25.7785 21.5986 25.8663C22.0864 25.9454 22.4489 25.9191 22.4489 25.9191C22.4489 25.9191 22.6137 27.7999 22.561 27.9757C22.205 27.8615 21.3481 28.0197 21.2953 28.3097C21.7963 28.2658 22.027 28.3449 22.027 28.3449C22.027 28.3449 21.6249 28.8283 21.7502 29.1007Z" fill="black"/>
<path fill-rule="evenodd" clip-rule="evenodd" d="M22.8709 17.623C22.8295 17.2933 22.6236 17.0177 22.3691 16.8967C22.1106 16.7739 21.7973 16.8078 21.5442 17.1088C21.5431 17.1101 21.5421 17.1116 21.5411 17.1131C21.3944 17.3497 21.3688 17.5626 21.3821 17.7185C21.3887 17.7957 21.4047 17.8579 21.4192 17.901C21.4218 17.9088 21.4244 17.9159 21.4268 17.9225C21.4062 17.9302 21.3779 17.941 21.3444 17.9543C21.2726 17.9827 21.1766 18.0224 21.0796 18.0678C20.9828 18.113 20.8841 18.1642 20.8076 18.2156C20.7695 18.2413 20.7357 18.2677 20.7103 18.2943C20.6864 18.3192 20.6641 18.35 20.6583 18.3865C20.6544 18.4083 20.6576 18.4299 20.6678 18.4477C20.677 18.464 20.6904 18.4742 20.7033 18.4812C20.729 18.495 20.7649 18.5017 20.8046 18.5047C20.8852 18.5106 20.9944 18.5015 21.103 18.4872C21.212 18.4729 21.3219 18.453 21.4045 18.4367C21.4447 18.4288 21.4784 18.4217 21.5025 18.4166L21.424 19.1491C21.421 19.1529 21.4171 19.1578 21.4125 19.1638C21.4 19.1796 21.3821 19.2031 21.3597 19.2335C21.3149 19.2943 21.2526 19.3831 21.182 19.4953C21.0409 19.7193 20.8662 20.0375 20.733 20.4129C20.5997 20.7882 20.5072 21.2225 20.5325 21.678C20.5577 22.1344 20.701 22.6089 21.0352 23.0635C21.0413 23.0717 21.0497 23.076 21.0584 23.0752C21.067 23.0745 21.075 23.0687 21.0801 23.0595L21.0974 23.0289C21.111 23.0498 21.13 23.0786 21.1538 23.113C21.205 23.1871 21.2784 23.2878 21.367 23.3937C21.5416 23.6024 21.7784 23.8356 22.0233 23.9238C22.25 24.226 22.353 24.3569 22.3995 24.4122C22.4112 24.4262 22.4197 24.4357 22.4258 24.4421C22.426 24.4423 22.4261 24.4425 22.4263 24.4426C22.4268 24.4482 22.4273 24.4547 22.4279 24.4622C22.4301 24.4891 22.4331 24.5278 22.4364 24.5748C22.4431 24.669 22.4511 24.7964 22.4564 24.9297C22.4617 25.0632 22.4644 25.2018 22.4604 25.3186C22.4584 25.377 22.4548 25.4292 22.4493 25.4721C22.4457 25.4998 22.4414 25.5222 22.4368 25.5394C22.4191 25.5355 22.3962 25.5318 22.3697 25.5283C22.3264 25.5225 22.2708 25.5168 22.207 25.5115C22.0793 25.5009 21.9181 25.4918 21.755 25.4868C21.592 25.4819 21.4268 25.481 21.2914 25.487C21.2237 25.4899 21.1632 25.4946 21.1139 25.5014C21.066 25.508 21.0258 25.5169 21.0003 25.5297C20.9828 25.5374 20.9586 25.5439 20.9272 25.5521L20.9241 25.5528C20.8938 25.5607 20.8585 25.5699 20.8209 25.5828C20.7433 25.6096 20.6543 25.6532 20.5748 25.7383C20.4133 25.911 20.3012 26.2423 20.3745 26.9C20.3764 26.9174 20.3868 26.931 20.3999 26.9334C20.413 26.9357 20.4257 26.9262 20.431 26.9101L20.5943 26.4153C20.5956 26.4402 20.5976 26.4666 20.6002 26.4938C20.6069 26.5642 20.6184 26.6412 20.638 26.7121C20.6575 26.7827 20.6857 26.85 20.7272 26.8977C20.7363 26.9082 20.7492 26.9103 20.7599 26.9031C20.7706 26.896 20.777 26.8809 20.7762 26.865C20.7634 26.6254 20.797 26.4243 20.8339 26.2832C20.8443 26.2434 20.855 26.2085 20.8648 26.1788C20.8687 26.2236 20.8738 26.2759 20.8805 26.3294C20.8897 26.4027 20.9019 26.4798 20.9181 26.5437C20.9262 26.5757 20.9356 26.6055 20.9465 26.6303C20.957 26.654 20.9704 26.6764 20.9877 26.6902C20.9991 26.7004 21.0136 26.7058 21.0292 26.6991C21.0431 26.6931 21.0527 26.6794 21.0591 26.6679C21.0718 26.6447 21.0825 26.6092 21.0928 26.5714C21.0988 26.549 21.105 26.5245 21.1116 26.4986C21.1285 26.432 21.1479 26.3553 21.1741 26.2776C21.2104 26.1702 21.2578 26.0668 21.3244 25.9956C21.39 25.9255 21.4758 25.8845 21.5931 25.9051L21.5934 25.9051C21.8385 25.9449 22.0521 25.9581 22.2046 25.9614C22.2808 25.9631 22.3417 25.9622 22.3837 25.961C22.3986 25.9606 22.411 25.9601 22.421 25.9596C22.422 25.9717 22.4233 25.9867 22.4248 26.0042C22.4292 26.0559 22.4354 26.13 22.4427 26.2195C22.4573 26.3984 22.4763 26.6388 22.4936 26.8847C22.5108 27.1306 22.5265 27.3816 22.5345 27.5818C22.5385 27.682 22.5405 27.7689 22.54 27.836C22.5397 27.8695 22.5388 27.8975 22.5373 27.9194C22.537 27.9225 22.5368 27.9254 22.5366 27.9281C22.3506 27.8792 22.0609 27.8929 21.8077 27.9516C21.6738 27.9827 21.5482 28.0268 21.4519 28.0823C21.4038 28.11 21.3619 28.1413 21.3298 28.1763C21.298 28.2111 21.2736 28.2521 21.2649 28.2999C21.2627 28.3121 21.2649 28.325 21.271 28.3347C21.2771 28.3443 21.2862 28.3495 21.2957 28.3487C21.5447 28.3268 21.7261 28.3356 21.8448 28.3497C21.8959 28.3558 21.9354 28.3628 21.9636 28.3688C21.9573 28.3773 21.9505 28.3866 21.9432 28.3967C21.9069 28.4471 21.8595 28.5174 21.8161 28.5968C21.7728 28.6758 21.7322 28.7657 21.7107 28.8551C21.6893 28.9445 21.6857 29.0391 21.7233 29.1209L21.7486 29.1002C21.7709 29.1263 21.7709 29.1263 21.7709 29.1263L21.7709 29.1262L21.7712 29.1258L21.7724 29.1239C21.7736 29.1222 21.7754 29.1196 21.7778 29.1162C21.7827 29.1093 21.79 29.0991 21.7999 29.0861C21.8197 29.0601 21.8495 29.0229 21.8893 28.9787C21.9688 28.8905 22.0882 28.7746 22.2467 28.6651C22.5635 28.4464 23.037 28.2529 23.6631 28.3572C23.6744 28.3591 23.6856 28.3522 23.6917 28.3394C23.6979 28.3266 23.698 28.3102 23.692 28.2972C23.5891 28.0747 23.3742 27.9825 23.1944 27.9439C23.1032 27.9243 23.0184 27.9178 22.9563 27.9163C22.9253 27.9155 22.8999 27.916 22.8822 27.9166C22.8821 27.9166 22.8821 27.9166 22.882 27.9166C22.8809 27.904 22.8795 27.8882 22.8778 27.8696C22.873 27.8167 22.8664 27.7409 22.8589 27.6496C22.8439 27.4669 22.8254 27.2224 22.8114 26.9747C22.7974 26.7268 22.788 26.4767 22.7911 26.2825C22.7926 26.1852 22.7973 26.1035 22.8056 26.0437C22.8099 26.0138 22.8148 25.9909 22.8201 25.9748C22.8257 25.9579 22.8301 25.9537 22.8306 25.9533C22.8444 25.9433 22.8665 25.9344 22.8969 25.9277C22.9268 25.9211 22.9626 25.917 23.0023 25.915C23.0818 25.9109 23.175 25.9152 23.2644 25.9229C23.3537 25.9305 23.4385 25.9415 23.501 25.9505C23.5323 25.955 23.558 25.959 23.5758 25.9619C23.5847 25.9634 23.5917 25.9645 23.5964 25.9653L23.6018 25.9663L23.6031 25.9665L23.6034 25.9666L23.6035 25.9666C23.6048 25.9668 23.6061 25.9669 23.6074 25.9669C23.6395 25.9669 23.6708 25.9385 23.6951 25.9054C23.7208 25.8705 23.7447 25.8228 23.7617 25.7692C23.7953 25.6629 23.8048 25.5228 23.7361 25.4106C23.6813 25.3159 23.5706 25.0879 23.4908 24.8655C23.4508 24.754 23.4195 24.6462 23.4064 24.5586C23.3999 24.5147 23.3983 24.4782 23.4014 24.4497C23.4045 24.422 23.4117 24.4047 23.4214 24.394C23.4329 24.3825 23.4538 24.3722 23.4855 24.3654C23.5168 24.3587 23.5554 24.3561 23.5991 24.3569C23.6865 24.3585 23.7911 24.3736 23.8924 24.3933C23.9935 24.4129 24.0903 24.4369 24.162 24.4561C24.1978 24.4656 24.2273 24.474 24.2478 24.4799C24.2581 24.4829 24.2661 24.4852 24.2715 24.4869L24.2777 24.4887L24.2792 24.4892L24.2796 24.4893L24.2797 24.4893C24.292 24.4931 24.3047 24.4862 24.3114 24.472C24.3182 24.4579 24.3175 24.4397 24.3098 24.4265L22.2047 20.8303C22.2044 20.8285 22.2041 20.8265 22.2038 20.8242C22.2023 20.8143 22.2003 20.7996 22.1977 20.7806C22.1927 20.7426 22.186 20.6873 22.1792 20.619C22.1658 20.4822 22.1523 20.2931 22.1523 20.0837C22.1523 19.6637 22.2066 19.1725 22.4153 18.8543C22.6791 18.564 22.7973 18.2591 22.8474 18.0259C22.8725 17.9093 22.8805 17.8108 22.8812 17.7412C22.8816 17.7065 22.8802 17.6785 22.878 17.6587C22.877 17.6491 22.8757 17.64 22.8739 17.6326C22.8733 17.6304 22.8724 17.6269 22.8709 17.623ZM22.177 20.8473C22.148 20.8555 22.148 20.8555 22.148 20.8555L22.148 20.8552L22.1478 20.8544L22.1474 20.8513C22.1469 20.8486 22.1463 20.8446 22.1456 20.8394C22.1441 20.8291 22.1419 20.8139 22.1393 20.7943C22.1341 20.7553 22.1273 20.6989 22.1204 20.6293C22.1067 20.4901 22.093 20.2974 22.093 20.0837C22.093 19.6589 22.1472 19.1407 22.3723 18.7997C22.3733 18.7981 22.3745 18.7966 22.3757 18.7953C22.6313 18.5149 22.7434 18.223 22.7904 18.0041C22.8139 17.8944 22.8212 17.8029 22.8219 17.7401C22.8222 17.7085 22.8209 17.6848 22.8193 17.6699C22.8189 17.6663 22.8186 17.6635 22.8182 17.6615C22.8158 17.6567 22.8141 17.6511 22.8135 17.6453C22.7793 17.3467 22.5913 17.0863 22.3492 16.9712C22.1089 16.857 21.8198 16.8885 21.5854 17.1658C21.45 17.3852 21.4296 17.5758 21.441 17.7095C21.4468 17.7773 21.4608 17.8315 21.4733 17.8686C21.4796 17.8872 21.4854 17.9014 21.4896 17.9107C21.4916 17.9154 21.4933 17.9189 21.4944 17.921C21.4949 17.9221 21.4953 17.9229 21.4955 17.9233L21.4957 17.9237C21.5014 17.9342 21.5029 17.9478 21.4997 17.9601C21.4964 17.9724 21.4888 17.9817 21.4794 17.9851L21.4789 17.9853L21.4773 17.9858L21.471 17.9881C21.4655 17.9902 21.4574 17.9931 21.4471 17.997C21.4264 18.0048 21.3969 18.016 21.3613 18.0301C21.2901 18.0583 21.195 18.0977 21.0992 18.1424C21.0032 18.1873 20.9074 18.2372 20.8343 18.2863C20.7977 18.3109 20.7679 18.3346 20.7468 18.3566C20.7256 18.3787 20.7182 18.3941 20.7166 18.4017C20.7168 18.4018 20.717 18.402 20.7172 18.4022C20.719 18.4038 20.7216 18.4057 20.7255 18.4078C20.7417 18.4165 20.7694 18.4228 20.8079 18.4257C20.8836 18.4313 20.9891 18.4228 21.0972 18.4085C21.2049 18.3943 21.3137 18.3746 21.3958 18.3585C21.4368 18.3504 21.471 18.3432 21.495 18.3381C21.507 18.3355 21.5164 18.3334 21.5228 18.332L21.5301 18.3303L21.5326 18.3298C21.5419 18.3277 21.5515 18.3316 21.5583 18.3404C21.5651 18.3492 21.5683 18.3618 21.567 18.3744L21.4813 19.1742C21.4803 19.1833 21.477 19.1917 21.4719 19.1979L21.4716 19.1982L21.4708 19.1992L21.4673 19.2035C21.4642 19.2074 21.4595 19.2132 21.4535 19.2209C21.4415 19.2362 21.424 19.2591 21.402 19.2889C21.3582 19.3485 21.2969 19.4358 21.2275 19.5461C21.0884 19.767 20.917 20.0794 20.7866 20.4467C20.6562 20.8141 20.5674 21.2345 20.5916 21.6722C20.6152 22.098 20.7459 22.5433 21.0536 22.9749L21.0722 22.9417C21.0777 22.932 21.0863 22.9261 21.0954 22.9259C21.1045 22.9257 21.1132 22.931 21.119 22.9405L21.1193 22.9409L21.1202 22.9425C21.1207 22.9433 21.1213 22.9443 21.1221 22.9456C21.1227 22.9465 21.1233 22.9475 21.124 22.9486C21.1274 22.954 21.1325 22.9621 21.1392 22.9724C21.1526 22.9931 21.1723 23.023 21.1974 23.0594C21.2477 23.1321 21.3197 23.2309 21.4066 23.3348C21.5812 23.5436 21.8125 23.769 22.0461 23.85C22.0512 23.8518 22.0558 23.8554 22.0596 23.8603C22.2903 24.168 22.3936 24.2991 22.439 24.3532C22.4483 24.3642 22.4549 24.3718 22.4596 24.3768C22.4669 24.3788 22.4737 24.3844 22.4782 24.393L22.4539 24.4156L22.4255 24.4201C22.4255 24.4201 22.4255 24.4201 22.4255 24.4201L22.4539 24.4156C22.4782 24.393 22.4782 24.3929 22.4782 24.393L22.4782 24.3931L22.4783 24.3932L22.4784 24.3934L22.4787 24.3941C22.4789 24.3943 22.479 24.3947 22.4792 24.3951C22.4794 24.3954 22.4795 24.3956 22.4796 24.3959C22.4801 24.3971 22.4814 24.3999 22.4825 24.4035C22.483 24.4053 22.484 24.4088 22.4845 24.4133C22.4847 24.4153 22.4851 24.4196 22.4845 24.425C22.4851 24.4321 22.4859 24.4417 22.4869 24.4537C22.4891 24.4809 22.4921 24.52 22.4955 24.5674C22.5022 24.6622 22.5103 24.7908 22.5156 24.9255C22.521 25.0601 22.5237 25.2016 22.5197 25.3222C22.5176 25.3824 22.5139 25.4382 22.5077 25.4856C22.5017 25.5321 22.4929 25.5742 22.4794 25.6047C22.4725 25.6203 22.4585 25.6276 22.4455 25.6225C22.4346 25.6183 22.4071 25.6128 22.3637 25.607C22.3215 25.6013 22.2667 25.5957 22.2033 25.5904C22.0765 25.5799 21.916 25.5708 21.7536 25.5659C21.5912 25.561 21.4272 25.5602 21.2934 25.566C21.2264 25.569 21.1673 25.5736 21.12 25.5801C21.0716 25.5867 21.0383 25.595 21.0209 25.6039C21.0205 25.6041 21.0201 25.6043 21.0197 25.6045C20.9977 25.6143 20.9689 25.6218 20.9385 25.6297L20.9359 25.6304C20.9054 25.6383 20.8716 25.6471 20.8358 25.6594C20.7623 25.6848 20.6823 25.7247 20.6119 25.8C20.484 25.9368 20.3787 26.2008 20.4199 26.7472L20.5942 26.2191C20.6 26.2015 20.6143 26.1921 20.6283 26.1965C20.6422 26.201 20.6518 26.2181 20.651 26.2372M20.651 26.2372L20.651 26.2374L20.6509 26.2383L20.6508 26.2419C20.6507 26.2452 20.6506 26.2501 20.6504 26.2564C20.6502 26.269 20.65 26.2873 20.6502 26.3099C20.6506 26.3551 20.6526 26.417 20.659 26.4837C20.6654 26.5507 20.6762 26.6214 20.6937 26.6848C20.6998 26.7068 20.7066 26.7276 20.7141 26.7468C20.7155 26.5486 20.7455 26.381 20.7779 26.2571C20.7974 26.1827 20.8177 26.1238 20.8333 26.0834C20.8411 26.0632 20.8477 26.0476 20.8524 26.0369C20.8548 26.0315 20.8567 26.0274 20.858 26.0246C20.8587 26.0231 20.8592 26.022 20.8596 26.0213L20.86 26.0203L20.8602 26.0199C20.8602 26.0199 20.8602 26.0199 20.885 26.0416L20.8602 26.0199C20.8672 26.0057 20.8803 25.999 20.8926 26.0034C20.9049 26.0077 20.9138 26.0221 20.9146 26.0391L20.9146 26.0394L20.9147 26.0405L20.9149 26.0449C20.9151 26.0488 20.9155 26.0546 20.9159 26.062C20.9168 26.0768 20.9182 26.0981 20.9201 26.1239C20.924 26.1756 20.9301 26.245 20.939 26.3164C20.948 26.388 20.9596 26.4604 20.9743 26.5184C20.9817 26.5474 20.9895 26.5717 20.9976 26.5902C21.0035 26.6034 21.0088 26.612 21.0132 26.6173C21.0197 26.6038 21.0274 26.58 21.037 26.5446C21.0423 26.5246 21.0481 26.5018 21.0544 26.4769C21.0715 26.4094 21.0925 26.3267 21.12 26.2451C21.1579 26.1328 21.2101 26.0164 21.2873 25.9339C21.3655 25.8502 21.4675 25.8033 21.6007 25.8266C21.8433 25.8659 22.0547 25.879 22.2055 25.8823C22.2809 25.884 22.3411 25.8831 22.3824 25.8819C22.403 25.8813 22.4189 25.8806 22.4296 25.88C22.435 25.8798 22.439 25.8795 22.4417 25.8793L22.4447 25.8791L22.4455 25.8791L22.4456 25.8791C22.4613 25.8779 22.4749 25.8932 22.4767 25.914L22.4473 25.9186C22.4767 25.914 22.4767 25.914 22.4767 25.914L22.4786 25.9352C22.4798 25.9491 22.4815 25.9694 22.4837 25.9953C22.4881 26.0471 22.4944 26.1213 22.5017 26.2109C22.5163 26.3901 22.5353 26.6309 22.5526 26.8773C22.5699 27.1235 22.5856 27.3758 22.5937 27.5776C22.5977 27.6785 22.5999 27.7673 22.5993 27.8368C22.5991 27.8715 22.5981 27.902 22.5963 27.9269C22.5946 27.9509 22.5919 27.9733 22.5869 27.9899C22.5814 28.0081 22.5667 28.0183 22.5524 28.0137C22.3801 27.9584 22.0815 27.9684 21.8179 28.0296C21.6865 28.06 21.5658 28.1028 21.4754 28.1549C21.4302 28.181 21.3937 28.2088 21.3674 28.2375C21.3588 28.247 21.3514 28.2563 21.3453 28.2654C21.5701 28.2489 21.737 28.2575 21.8501 28.2709C21.911 28.2781 21.9563 28.2868 21.9865 28.2937C22.0017 28.2972 22.013 28.3002 22.0207 28.3024C22.0246 28.3035 22.0275 28.3043 22.0295 28.305L22.0318 28.3057L22.0325 28.3059L22.0327 28.306L22.0328 28.306C22.0328 28.306 22.0328 28.3061 22.0254 28.3444L22.0328 28.306C22.0433 28.3097 22.0516 28.3208 22.0542 28.3349C22.0568 28.3491 22.0534 28.364 22.0453 28.3737C22.0453 28.3737 22.0453 28.3737 22.0453 28.3737L22.0451 28.374L22.0443 28.3749L22.0411 28.3788C22.0383 28.3823 22.0342 28.3875 22.0289 28.3942C22.0184 28.4076 22.0035 28.4272 21.9859 28.4516C21.9507 28.5003 21.9054 28.5679 21.864 28.6434C21.8224 28.7194 21.7859 28.8014 21.7672 28.8792C21.7539 28.9349 21.7502 28.9855 21.7583 29.0297C21.7792 29.0022 21.8102 28.9635 21.8513 28.9179C21.9337 28.8266 22.0566 28.7073 22.2194 28.5949C22.5335 28.378 22.9958 28.1865 23.6014 28.2683C23.5031 28.1257 23.3392 28.0551 23.185 28.022C23.0973 28.0031 23.0154 27.9969 22.9552 27.9954C22.9252 27.9947 22.9007 27.9951 22.8838 27.9957C22.8753 27.996 22.8688 27.9964 22.8644 27.9967C22.863 27.9967 22.8618 27.9968 22.8608 27.9969L22.8594 27.997L22.8582 27.9971L22.8579 27.9971C22.8423 27.9984 22.8285 27.9833 22.8266 27.9626L22.856 27.9576C22.8266 27.9626 22.8266 27.9626 22.8266 27.9626L22.8265 27.9625L22.8265 27.9623L22.826 27.957L22.8245 27.9408C22.8232 27.9265 22.8213 27.9056 22.8189 27.879C22.8141 27.8259 22.8074 27.7498 22.7999 27.6582C22.7849 27.475 22.7663 27.2295 22.7522 26.9806C22.7382 26.732 22.7286 26.4789 22.7318 26.2808C22.7333 26.182 22.7381 26.0953 22.7473 26.0292C22.752 25.9962 22.7579 25.9667 22.7658 25.9429C22.7734 25.9199 22.7846 25.8966 22.8022 25.8839C22.8247 25.8675 22.8545 25.8569 22.8872 25.8497C22.9204 25.8423 22.9589 25.838 23.0001 25.8359C23.0825 25.8317 23.178 25.8362 23.2682 25.844C23.3586 25.8517 23.4443 25.8627 23.5074 25.8718C23.539 25.8764 23.5649 25.8805 23.583 25.8834C23.588 25.8842 23.5923 25.8849 23.5961 25.8856C23.5991 25.8861 23.6017 25.8865 23.6039 25.8869L23.6088 25.8877C23.6168 25.8867 23.6327 25.8772 23.6528 25.8499C23.6728 25.8228 23.6927 25.7836 23.707 25.7384C23.7359 25.647 23.7397 25.5413 23.69 25.4602L23.6894 25.4594C23.6321 25.3604 23.5189 25.1273 23.4373 24.8996C23.3966 24.7859 23.3628 24.6712 23.3483 24.574C23.341 24.5254 23.3382 24.479 23.3427 24.4382C23.3473 24.3969 23.3597 24.3589 23.3844 24.3322L23.3851 24.3314C23.4083 24.3079 23.4409 24.2948 23.4761 24.2873C23.512 24.2796 23.5544 24.2769 23.5999 24.2778C23.6911 24.2795 23.7987 24.2951 23.9009 24.315C24.0034 24.3349 24.1014 24.3592 24.1737 24.3785C24.1877 24.3823 24.2007 24.3858 24.2127 24.3891L22.1536 20.8716C22.1509 20.8669 22.1489 20.8614 22.148 20.8555L22.177 20.8473M22.8174 17.6571C22.8174 17.6571 22.8175 17.6571 22.8174 17.6571V17.6571Z" fill="black"/>
<path fill-rule="evenodd" clip-rule="evenodd" d="M21.9467 18.8789C21.9467 18.8789 20.7009 20.707 21.2414 22.1045C21.2678 21.9111 21.2546 21.7881 21.2744 21.7969C21.2414 21.7705 21.426 21.9639 21.4128 21.9287C21.4128 21.8232 21.3601 21.6035 21.3601 21.6035L21.5249 21.665L21.426 21.4189L21.6699 21.4541C21.6699 21.4541 21.5842 21.1553 21.6106 21.1553L21.8083 21.1729C21.4524 20.3291 21.7885 19.626 21.9467 18.8701V18.8789Z" fill="#9CA69C"/>
<path fill-rule="evenodd" clip-rule="evenodd" d="M21.9492 18.8304C21.9639 18.8331 21.9748 18.8499 21.9748 18.8696V18.8784C21.9748 18.8868 21.9729 18.8948 21.9692 18.9015C21.9368 19.053 21.8977 19.2025 21.8589 19.3502C21.8508 19.3811 21.8428 19.4119 21.8348 19.4426C21.7866 19.6279 21.7414 19.811 21.7122 19.9962C21.6539 20.3651 21.659 20.7415 21.8326 21.153C21.8379 21.1656 21.8376 21.1812 21.8318 21.1935C21.826 21.2057 21.8156 21.2128 21.8048 21.2118L21.6367 21.1969C21.6408 21.2224 21.6484 21.2565 21.657 21.292C21.6659 21.3288 21.6757 21.3657 21.6832 21.3934C21.687 21.4073 21.6902 21.4189 21.6925 21.4269L21.6951 21.4363L21.6958 21.4387L21.696 21.4393L21.696 21.4395C21.6997 21.4523 21.6981 21.4669 21.6918 21.4778C21.6855 21.4887 21.6754 21.4944 21.6651 21.4929L21.4771 21.4658L21.5494 21.6459C21.5551 21.6598 21.5539 21.6769 21.5464 21.6893C21.539 21.7017 21.5267 21.7069 21.5153 21.7026L21.4023 21.6604C21.4058 21.6772 21.4097 21.6961 21.4136 21.7162C21.4262 21.7816 21.4399 21.8639 21.4409 21.9221C21.4411 21.9239 21.4414 21.9258 21.4415 21.9278C21.4421 21.9377 21.4399 21.9551 21.4273 21.9657C21.4179 21.9736 21.4086 21.9721 21.406 21.9716C21.4023 21.9709 21.3992 21.9695 21.3973 21.9686C21.3902 21.9651 21.3818 21.9583 21.3745 21.952C21.3586 21.9384 21.3371 21.9176 21.3167 21.8972C21.3071 21.8875 21.2975 21.8776 21.2888 21.8685C21.2887 21.8711 21.2885 21.8739 21.2884 21.8768C21.2883 21.8788 21.2882 21.8808 21.2881 21.8828C21.2857 21.9366 21.2821 22.0155 21.269 22.1111C21.2668 22.1277 21.2568 22.1406 21.2442 22.1431C21.2317 22.1456 21.2193 22.1372 21.2135 22.1221C20.9363 21.4054 21.1186 20.5833 21.3634 19.9491C21.4864 19.6307 21.6262 19.3566 21.7352 19.1622C21.7897 19.065 21.8366 18.9875 21.8699 18.9344C21.8866 18.9078 21.8998 18.8872 21.909 18.8733C21.9116 18.8693 21.9139 18.8658 21.9158 18.863C21.9161 18.8616 21.9163 18.8603 21.9166 18.859C21.9206 18.84 21.9345 18.8278 21.9492 18.8304ZM21.8714 19.0568C21.8456 19.0998 21.8156 19.151 21.7827 19.2096C21.675 19.4016 21.5372 19.6719 21.4162 19.9853C21.1876 20.5774 21.0232 21.3126 21.2242 21.9646C21.2265 21.9314 21.2278 21.9022 21.2289 21.8775L21.2292 21.872C21.2304 21.8462 21.2315 21.8225 21.2339 21.806C21.2349 21.799 21.2369 21.7878 21.2418 21.7778C21.2498 21.7534 21.2688 21.7542 21.271 21.7544C21.2756 21.7548 21.279 21.7566 21.28 21.7571C21.2815 21.7578 21.2827 21.7586 21.2835 21.7591C21.2852 21.7602 21.2867 21.7614 21.2881 21.7625C21.2928 21.7663 21.2965 21.7716 21.299 21.7777C21.2997 21.7786 21.3005 21.7795 21.3014 21.7804C21.3134 21.7938 21.3325 21.814 21.3525 21.834C21.3605 21.8421 21.3685 21.85 21.3761 21.8574C21.3713 21.8192 21.3639 21.7762 21.3561 21.736C21.3497 21.7025 21.3432 21.6722 21.3383 21.6502C21.3359 21.6393 21.3338 21.6304 21.3324 21.6244L21.3308 21.6174L21.3304 21.6156L21.3303 21.6151L21.3585 21.603M21.7552 21.1281C21.5982 20.7204 21.5967 20.3436 21.6541 19.9799C21.6842 19.7894 21.7305 19.6022 21.7787 19.4167C21.7868 19.3856 21.795 19.3545 21.8031 19.3235C21.8264 19.2345 21.8497 19.1458 21.8714 19.0568" fill="#9CA69C"/>
<path fill-rule="evenodd" clip-rule="evenodd" d="M22.3817 17.3057C22.3817 17.3057 22.4477 17.9385 22.184 18.1143C22.151 18.1582 21.9862 18.2285 22.0126 18.3604C22.039 18.5361 22.1115 18.501 22.2104 18.4658C22.4806 18.4043 22.797 17.6396 22.3817 17.3057Z" fill="#9CA69C"/>
<path fill-rule="evenodd" clip-rule="evenodd" d="M22.3395 17.2207L22.3986 17.2683C22.5094 17.3574 22.573 17.4769 22.5998 17.6079C22.6265 17.7379 22.6163 17.8758 22.5842 18.0022C22.5522 18.1287 22.4977 18.246 22.4333 18.3361C22.3697 18.4251 22.2938 18.491 22.2173 18.509C22.2134 18.5104 22.2096 18.5118 22.2056 18.5132C22.186 18.5203 22.1661 18.5275 22.1476 18.5323C22.125 18.5382 22.1009 18.5416 22.0778 18.5356C22.0534 18.5292 22.0316 18.5127 22.0145 18.483C21.9983 18.4549 21.9875 18.4173 21.9803 18.3705C21.9619 18.2751 22.0147 18.2084 22.0569 18.1687C22.0783 18.1486 22.1013 18.1312 22.1201 18.1171C22.1211 18.1163 22.1222 18.1155 22.1232 18.1147C22.1332 18.1072 22.1415 18.1009 22.1484 18.0951C22.1556 18.0891 22.1592 18.0853 22.1605 18.0834L22.1643 18.0784L22.1691 18.0752C22.2851 17.9979 22.3327 17.8165 22.3489 17.639C22.3568 17.552 22.3569 17.47 22.3549 17.4095C22.3539 17.3793 22.3524 17.3547 22.3511 17.3377C22.3505 17.3292 22.3499 17.3227 22.3496 17.3183C22.3494 17.3161 22.3492 17.3144 22.3491 17.3134L22.349 17.3122L22.349 17.312L22.3395 17.2207ZM22.4204 17.3961C22.4205 17.3992 22.4206 17.4024 22.4207 17.4056C22.4228 17.4693 22.4228 17.5564 22.4143 17.6496C22.3978 17.8307 22.3473 18.0511 22.2028 18.1509C22.1968 18.1579 22.1899 18.1641 22.1835 18.1695C22.1751 18.1765 22.1654 18.1839 22.1557 18.1912C22.1549 18.1918 22.1541 18.1925 22.1532 18.1931C22.1339 18.2076 22.1135 18.223 22.0949 18.2405C22.0533 18.2797 22.0372 18.3137 22.0443 18.3493L22.0446 18.3506L22.0448 18.352C22.0509 18.3925 22.0589 18.416 22.0667 18.4294C22.0737 18.4415 22.0811 18.4469 22.0905 18.4493C22.1011 18.4521 22.1154 18.4511 22.135 18.446C22.1509 18.4419 22.168 18.4357 22.1875 18.4287C22.1921 18.4271 22.1968 18.4254 22.2017 18.4236L22.2032 18.4231L22.2047 18.4228C22.2628 18.4095 22.3272 18.3571 22.3856 18.2755C22.4435 18.1945 22.4928 18.0882 22.5218 17.9741C22.5507 17.8599 22.5586 17.7403 22.5362 17.631C22.5188 17.5457 22.4824 17.4648 22.4204 17.3961Z" fill="#9CA69C"/>
<path fill-rule="evenodd" clip-rule="evenodd" d="M21.9204 17.8418C21.9204 17.8768 21.91 17.9103 21.8915 17.935C21.8729 17.9597 21.8478 17.9736 21.8215 17.9736C21.7953 17.9736 21.7702 17.9597 21.7516 17.935C21.7331 17.9103 21.7227 17.8768 21.7227 17.8418C21.7227 17.8068 21.7331 17.7733 21.7516 17.7486C21.7702 17.7239 21.7953 17.71 21.8215 17.71C21.8478 17.71 21.8729 17.7239 21.8915 17.7486C21.91 17.7733 21.9204 17.8068 21.9204 17.8418Z" fill="white"/>
<path fill-rule="evenodd" clip-rule="evenodd" d="M21.5187 18.3691C21.4527 18.4482 21.11 18.9229 21.4527 19.0986C21.8021 18.9756 21.7032 18.8877 21.7823 18.7822C21.7823 18.5625 21.6109 18.5098 21.5187 18.3779V18.3691Z" fill="#DE3108"/>
<path fill-rule="evenodd" clip-rule="evenodd" d="M21.5514 18.36V18.2705L21.4964 18.3365C21.4622 18.3775 21.3561 18.5208 21.3022 18.6796C21.2752 18.759 21.2591 18.8488 21.2772 18.9337C21.2959 19.0212 21.3484 19.0924 21.4407 19.1397L21.4506 19.1448L21.4609 19.1412C21.6359 19.0795 21.7087 19.024 21.7449 18.9605C21.7605 18.9331 21.7684 18.9054 21.7745 18.8839C21.7754 18.8808 21.7762 18.8777 21.7771 18.8749C21.7837 18.8522 21.7903 18.8335 21.8054 18.8133L21.8151 18.8005V18.7823C21.8151 18.6531 21.7633 18.5736 21.7053 18.5126C21.6846 18.4909 21.6619 18.4703 21.6403 18.4507C21.6325 18.4436 21.6248 18.4366 21.6174 18.4298C21.5927 18.4069 21.5703 18.3846 21.5514 18.36ZM21.5148 18.4348C21.4719 18.4929 21.401 18.6016 21.3622 18.7158C21.3381 18.7869 21.3287 18.8536 21.3406 18.9096C21.3516 18.9608 21.3825 19.0125 21.4546 19.0525C21.6206 18.9927 21.6714 18.9441 21.6924 18.9073C21.7019 18.8907 21.7063 18.8752 21.7126 18.8535C21.7136 18.8502 21.7146 18.8466 21.7157 18.8429C21.7225 18.8196 21.7312 18.7932 21.7487 18.7657C21.7448 18.6846 21.712 18.6316 21.6645 18.5817C21.6457 18.562 21.6259 18.544 21.605 18.5251C21.5968 18.5176 21.5883 18.5099 21.5797 18.5019C21.5579 18.4817 21.5354 18.4598 21.5148 18.4348Z" fill="black"/>
<path fill-rule="evenodd" clip-rule="evenodd" d="M22.2756 22.8955C22.2558 23.001 22.1767 23.3877 22.2822 23.6865C22.5854 23.5107 22.7238 23.5635 22.8227 23.6514C22.5788 23.3877 22.4799 23.2734 22.2756 22.8955Z" fill="#9CA69C"/>
<path fill-rule="evenodd" clip-rule="evenodd" d="M22.3 22.8721C22.5023 23.2462 22.5991 23.358 22.8418 23.6203C22.8541 23.6336 22.8564 23.6575 22.847 23.6745C22.8376 23.6915 22.8198 23.6957 22.8066 23.684C22.7609 23.6433 22.7069 23.6113 22.6289 23.6093C22.5498 23.6073 22.4438 23.6359 22.2944 23.7225C22.2797 23.731 22.2625 23.7224 22.2557 23.7031C22.1998 23.5447 22.1935 23.3654 22.2027 23.215C22.2114 23.0746 22.2339 22.9557 22.2449 22.8976C22.2457 22.8933 22.2465 22.8893 22.2472 22.8856L22.276 22.8952L22.3 22.8721ZM22.2897 22.9873C22.4317 23.2434 22.5257 23.3715 22.6694 23.5336C22.6568 23.5317 22.6437 23.5306 22.63 23.5302C22.5448 23.528 22.4383 23.5569 22.2981 23.6345C22.2588 23.5023 22.2537 23.3537 22.2618 23.2214C22.2675 23.1302 22.2793 23.0484 22.2897 22.9873Z" fill="#9CA69C"/>
<path fill-rule="evenodd" clip-rule="evenodd" d="M22.7891 24.7061L22.8022 25.6025C22.8022 25.6025 23.0396 25.6553 23.145 25.6025C23.2505 25.5498 23.145 24.9873 22.7891 24.7061Z" fill="white"/>
<path fill-rule="evenodd" clip-rule="evenodd" d="M22.7764 24.6714C22.7857 24.6642 22.7972 24.6642 22.8065 24.6715C22.9907 24.8171 23.1099 25.0351 23.1697 25.2241C23.1996 25.3184 23.2153 25.4076 23.2159 25.4788C23.2163 25.5142 23.2129 25.5474 23.2043 25.5751C23.1956 25.6031 23.1807 25.6276 23.1578 25.6391C23.1271 25.6544 23.089 25.6613 23.0508 25.6638C23.0121 25.6664 22.9713 25.6646 22.9344 25.6613C22.8974 25.6579 22.8638 25.6529 22.8395 25.6487C22.8273 25.6466 22.8174 25.6447 22.8106 25.6433C22.8071 25.6426 22.8044 25.6421 22.8026 25.6417L22.8005 25.6412L22.7999 25.6411L22.7998 25.6411C22.7998 25.6411 22.7997 25.6411 22.8046 25.602L22.7997 25.6411C22.7856 25.6379 22.7752 25.6219 22.7749 25.6028L22.7617 24.7063C22.7615 24.692 22.7671 24.6786 22.7764 24.6714ZM22.8337 25.5679C22.8378 25.5686 22.8422 25.5694 22.8471 25.5702C22.8706 25.5743 22.9029 25.5791 22.9384 25.5824C22.974 25.5856 23.0123 25.5872 23.0478 25.5848C23.0838 25.5824 23.1148 25.5761 23.1369 25.565C23.1404 25.5633 23.1452 25.5587 23.1495 25.5448C23.154 25.5304 23.1569 25.5089 23.1566 25.4798C23.1561 25.4218 23.1429 25.3429 23.1151 25.2549C23.0646 25.0953 22.9681 24.9126 22.8221 24.7787L22.8337 25.5679Z" fill="white"/>
<path fill-rule="evenodd" clip-rule="evenodd" d="M24.4769 24.82C24.4769 24.82 24.0484 23.4314 22.9476 23.0798C21.8468 22.7282 21.9918 21.1638 22.0775 21.0671C22.1302 20.9353 22.1632 20.7243 22.4796 20.9265C22.796 21.1286 24.2594 22.1042 24.4703 22.1569C24.6812 22.2097 24.4967 24.8552 24.4835 24.82H24.4769Z" fill="#9CA69C"/>
<path fill-rule="evenodd" clip-rule="evenodd" d="M22.1246 21.0442C22.1194 21.0586 22.1139 21.0737 22.1083 21.0878L22.1053 21.0952L22.1005 21.1007C22.1006 21.1005 22.1006 21.1006 22.1004 21.1009C22.0997 21.1021 22.097 21.1071 22.093 21.1193C22.0884 21.1333 22.0835 21.1529 22.0788 21.1777C22.0693 21.2274 22.0612 21.2951 22.0571 21.3759C22.0488 21.5375 22.0569 21.7482 22.1011 21.9664C22.1892 22.401 22.4204 22.8657 22.957 23.0371C23.5163 23.2157 23.9044 23.6578 24.1521 24.0536C24.2759 24.2516 24.365 24.4385 24.4232 24.576C24.4403 24.6166 24.4548 24.653 24.4667 24.684C24.4721 24.6174 24.4786 24.528 24.4855 24.4224C24.5013 24.179 24.519 23.8506 24.5297 23.5196C24.5404 23.1882 24.544 22.8556 24.532 22.6031C24.526 22.4765 24.5161 22.3723 24.5018 22.2991C24.4946 22.2623 24.4868 22.2359 24.4789 22.2189C24.4751 22.2106 24.4718 22.2057 24.4694 22.203C24.4672 22.2005 24.4661 22.2002 24.4659 22.2002C24.436 22.1927 24.3872 22.1701 24.3267 22.1381C24.2653 22.1057 24.1891 22.0622 24.103 22.011C23.9308 21.9087 23.7179 21.7753 23.5019 21.6374C23.2859 21.4994 23.0667 21.3568 22.8817 21.2361C22.8355 21.206 22.7914 21.1772 22.7501 21.1502C22.6258 21.069 22.5263 21.004 22.467 20.9661C22.3111 20.8665 22.2378 20.8774 22.1984 20.9092C22.1779 20.9258 22.1623 20.9512 22.1482 20.9833C22.1411 20.9994 22.1348 21.0163 22.1283 21.0342C22.127 21.0375 22.1258 21.0408 22.1246 21.0442ZM24.4481 24.8368L24.4481 24.8367L24.4479 24.836L24.447 24.8333C24.4462 24.8308 24.445 24.8271 24.4434 24.8222C24.4401 24.8123 24.4351 24.7976 24.4283 24.7787C24.4147 24.7408 24.394 24.6861 24.3657 24.6192C24.3091 24.4853 24.2223 24.303 24.1014 24.1099C23.8597 23.7236 23.4831 23.2955 22.9416 23.1226C22.3774 22.9424 22.1307 22.4491 22.0375 21.9894C21.9911 21.7604 21.9826 21.5399 21.9913 21.37C21.9956 21.285 22.0043 21.2119 22.0149 21.1562C22.0201 21.1283 22.0261 21.104 22.0325 21.0843C22.0374 21.0692 22.0438 21.053 22.0524 21.0407C22.0565 21.03 22.0606 21.0187 22.065 21.0066C22.0663 21.0031 22.0676 20.9994 22.069 20.9957C22.0756 20.9776 22.0829 20.958 22.0913 20.9389C22.1081 20.9007 22.1305 20.8613 22.1643 20.834C22.2337 20.7779 22.335 20.7843 22.4955 20.8869C22.555 20.9249 22.655 20.9902 22.7794 21.0715C22.8207 21.0984 22.8646 21.1271 22.9106 21.1572C23.0956 21.2779 23.3147 21.4203 23.5304 21.5581C23.7462 21.696 23.9585 21.829 24.1299 21.9307C24.2156 21.9817 24.2908 22.0246 24.351 22.0564C24.4121 22.0887 24.4553 22.1081 24.4781 22.1138C24.5045 22.1204 24.5227 22.146 24.5352 22.173C24.5478 22.2005 24.5576 22.2364 24.5656 22.2769C24.5815 22.3583 24.5917 22.4692 24.5978 22.5975C24.6101 22.8547 24.6063 23.1911 24.5956 23.5234C24.5848 23.8559 24.5671 24.1856 24.5512 24.43C24.5432 24.5522 24.5357 24.6533 24.5298 24.7229C24.5268 24.7575 24.5242 24.7849 24.5221 24.8032C24.5211 24.8121 24.52 24.8201 24.5189 24.8261L24.5189 24.8262C24.5185 24.8282 24.5174 24.8342 24.5152 24.84C24.5145 24.8418 24.5131 24.8451 24.5109 24.8486C24.509 24.8516 24.5039 24.8589 24.4951 24.8624C24.4904 24.8644 24.4857 24.8648 24.4813 24.864H24.4565L24.4481 24.8368Z" fill="black"/>
<path fill-rule="evenodd" clip-rule="evenodd" d="M23.4363 23.0713C23.4165 23.0889 24.9063 24.249 24.458 25.2422C24.8799 24.8643 24.748 24.2139 24.748 24.2139C24.748 24.2139 25.0908 25.418 24.2471 26.0068C24.3394 26.1123 24.3987 26.0947 24.3987 26.0947L24.2537 26.2793C24.2537 26.2793 24.1877 26.4287 24.7546 26.0596C24.603 26.2266 24.5898 26.3496 24.5898 26.3496C24.5898 26.3496 24.6294 26.5078 24.9985 26.0771C24.7019 26.5078 24.636 26.7275 24.636 26.7187C25.4468 26.6309 27.2068 23.1152 24.0823 22.0869L24.2207 22.2803L23.4297 23.0713H23.4363Z" fill="#DE3108"/>
<path fill-rule="evenodd" clip-rule="evenodd" d="M24.055 22.0666C24.0616 22.0514 24.075 22.0438 24.0878 22.048C24.873 22.3065 25.3561 22.7227 25.6233 23.2082C25.8909 23.6944 25.939 24.2449 25.8624 24.7627C25.7858 25.2797 25.5848 25.7656 25.3518 26.1278C25.2353 26.309 25.1103 26.4602 24.988 26.5691C24.8674 26.6765 24.7476 26.7445 24.6402 26.7573C24.6346 26.7588 24.6271 26.7587 24.6194 26.7526C24.6094 26.7447 24.6065 26.7323 24.6057 26.7286C24.6048 26.7238 24.6047 26.7199 24.6047 26.7183C24.6047 26.7092 24.607 26.7008 24.6109 26.6942L24.6116 26.6924C24.6139 26.6865 24.6178 26.6766 24.6234 26.6632C24.6345 26.6362 24.6525 26.5952 24.6797 26.5404C24.7069 26.4857 24.7434 26.4173 24.7917 26.3356C24.7343 26.3826 24.6918 26.4051 24.6597 26.4132C24.6263 26.4218 24.6016 26.4153 24.5842 26.4004C24.5757 26.3932 24.57 26.3848 24.5663 26.3775C24.5644 26.3739 24.563 26.3706 24.5621 26.3679C24.5616 26.3666 24.5612 26.3653 24.5609 26.3643L24.5604 26.3628L24.5603 26.3622L24.5602 26.3619L24.5602 26.3618C24.5601 26.3617 24.5601 26.3616 24.5883 26.3491C24.5589 26.3435 24.5589 26.3435 24.5589 26.3435L24.5589 26.3434L24.5589 26.3433L24.559 26.343L24.559 26.3423L24.5593 26.3404C24.5595 26.3388 24.5598 26.3368 24.5603 26.3344C24.5611 26.3295 24.5625 26.3228 24.5646 26.3146C24.5688 26.298 24.576 26.2751 24.5881 26.247C24.5956 26.2295 24.6051 26.21 24.6169 26.1889C24.5478 26.231 24.4918 26.2626 24.4463 26.286C24.3722 26.3243 24.3245 26.3416 24.2935 26.3466C24.2782 26.3491 24.2646 26.349 24.2532 26.3447C24.2408 26.3401 24.2292 26.3299 24.2234 26.3121C24.2183 26.2962 24.2202 26.2815 24.2218 26.274C24.2226 26.2698 24.2237 26.2664 24.2245 26.264C24.2249 26.2627 24.2253 26.2616 24.2257 26.2608L24.2261 26.2596L24.2263 26.2592L24.2264 26.2589L24.2265 26.2589C24.2265 26.2588 24.2265 26.2588 24.2521 26.2788L24.2265 26.2588C24.2279 26.2556 24.2296 26.2527 24.2316 26.2502L24.3325 26.1218C24.3034 26.1087 24.2673 26.0834 24.2262 26.0364C24.2187 26.0278 24.2149 26.0149 24.216 26.0019C24.2171 25.9888 24.223 25.9774 24.2317 25.9713C24.6427 25.6845 24.7636 25.2501 24.7828 24.8863C24.7872 24.8031 24.7862 24.7236 24.7822 24.6504C24.7538 24.8564 24.6731 25.0953 24.473 25.2745C24.4614 25.2849 24.4461 25.2831 24.436 25.2704C24.4259 25.2576 24.4238 25.2372 24.431 25.2213C24.5371 24.9863 24.5294 24.7412 24.4556 24.501C24.3815 24.2594 24.2411 24.0251 24.0853 23.8184C23.9298 23.6122 23.7608 23.4359 23.6315 23.3097C23.5735 23.253 23.5236 23.2066 23.4864 23.1721C23.4822 23.1682 23.4782 23.1644 23.4743 23.1608C23.4555 23.1433 23.4402 23.129 23.43 23.1188C23.4267 23.1155 23.4235 23.1122 23.4207 23.1091C23.4111 23.1058 23.4032 23.0963 23.4 23.0833C23.3959 23.0672 23.4001 23.0494 23.4103 23.0392L24.1746 22.2749L24.0592 22.1137C24.0501 22.101 24.0484 22.0818 24.055 22.0666ZM23.4794 23.0689C23.4873 23.0764 23.497 23.0854 23.5083 23.096C23.5121 23.0996 23.5162 23.1033 23.5204 23.1072C23.5575 23.1417 23.6079 23.1886 23.6666 23.2458C23.797 23.3732 23.9687 23.5522 24.1272 23.7624C24.2853 23.9721 24.4321 24.2152 24.5106 24.471C24.5737 24.6767 24.593 24.8921 24.5378 25.104C24.6656 24.9397 24.7147 24.7456 24.7302 24.5809C24.7397 24.4798 24.7366 24.39 24.731 24.3254C24.7282 24.2932 24.7249 24.2674 24.7222 24.2498C24.7209 24.241 24.7198 24.2343 24.719 24.2299C24.7186 24.2277 24.7183 24.226 24.7181 24.225L24.7179 24.2239L24.7178 24.2237L24.7178 24.2237L24.7178 24.2237C24.7137 24.2033 24.7223 24.1823 24.7373 24.1758C24.7524 24.1693 24.7686 24.1796 24.7742 24.1993L24.7465 24.2134C24.7742 24.1993 24.7742 24.1994 24.7742 24.1994L24.7742 24.1995L24.7743 24.1997L24.7745 24.2005L24.7753 24.2034C24.776 24.2059 24.777 24.2095 24.7782 24.2142C24.7806 24.2236 24.784 24.2373 24.7879 24.2548C24.7959 24.2899 24.8062 24.3404 24.8159 24.4027C24.8352 24.5273 24.8521 24.6999 24.842 24.8918C24.8223 25.2649 24.7002 25.7099 24.2998 26.0119C24.3264 26.0355 24.3479 26.0464 24.3631 26.0515C24.3739 26.0551 24.3817 26.0558 24.3864 26.0558C24.3887 26.0558 24.3903 26.0556 24.391 26.0555C24.3912 26.0555 24.3913 26.0554 24.3914 26.0554C24.4041 26.0521 24.4171 26.0602 24.4233 26.0756C24.4295 26.0913 24.4272 26.1106 24.4176 26.1228L24.3073 26.2632C24.3325 26.2558 24.37 26.2406 24.4249 26.2123C24.4974 26.1749 24.5987 26.1156 24.74 26.0235C24.7535 26.0148 24.7698 26.0208 24.778 26.0377C24.7861 26.0545 24.7835 26.0768 24.7719 26.0896C24.6986 26.1704 24.6598 26.2393 24.6395 26.2864C24.6303 26.3079 24.6248 26.3249 24.6217 26.3366C24.6265 26.3381 24.6349 26.339 24.6486 26.3355C24.6962 26.3234 24.7932 26.2618 24.9774 26.0469C24.9893 26.0331 25.0072 26.034 25.0182 26.049C25.0292 26.0641 25.0295 26.0879 25.0188 26.1034C24.8714 26.3173 24.7818 26.4783 24.7292 26.5841C24.7128 26.617 24.7 26.6446 24.6901 26.6668C24.7708 26.6428 24.861 26.5871 24.9551 26.5033C25.0721 26.3991 25.1931 26.2531 25.3068 26.0763C25.5343 25.7225 25.7299 25.2488 25.8042 24.7473C25.8783 24.2467 25.8313 23.7199 25.5755 23.255C25.3304 22.8098 24.8912 22.4165 24.1739 22.1593L24.2406 22.2525C24.2464 22.2607 24.2494 22.2718 24.2487 22.2831C24.248 22.2943 24.2437 22.3046 24.2369 22.3114L23.4794 23.0689ZM24.5883 26.3491L24.5589 26.3435C24.5582 26.3496 24.5587 26.3558 24.5601 26.3616L24.5883 26.3491Z" fill="black"/>
<path fill-rule="evenodd" clip-rule="evenodd" d="M23.501 22.7283C23.6988 22.9217 23.7713 22.992 23.7977 23.0799C23.6131 23.0271 23.4483 23.0447 23.4483 23.0447C23.4483 23.0447 23.0462 22.535 22.9737 22.491C22.921 22.491 22.6046 22.2273 22.6046 22.2273C22.4529 22.1219 22.3079 21.41 22.8814 21.6121C23.1014 21.7651 23.3281 21.9001 23.5604 22.0164L24.2657 22.3152L24.6744 22.9217C24.6744 22.9217 23.9493 22.4471 23.857 22.4383C24.0547 22.6492 24.1668 22.948 24.1668 22.948C23.9361 22.8602 23.7383 22.7723 23.501 22.7283Z" fill="white"/>
<path fill-rule="evenodd" clip-rule="evenodd" d="M22.5307 22.0428C22.5555 22.1177 22.5894 22.1724 22.6186 22.1928C22.6193 22.1932 22.62 22.1937 22.6206 22.1943L22.6241 22.1972L22.6342 22.2055C22.6429 22.2127 22.6554 22.2229 22.6706 22.2352C22.701 22.2599 22.742 22.2927 22.7845 22.3254C22.8272 22.3582 22.8711 22.3907 22.9074 22.4149C22.9256 22.4271 22.9414 22.4368 22.954 22.4434C22.9602 22.4467 22.9653 22.449 22.9692 22.4504C22.9727 22.4518 22.9742 22.4519 22.9742 22.4519C22.9742 22.452 22.9742 22.452 22.9741 22.452C22.9783 22.452 22.9825 22.4532 22.9863 22.4555C22.9988 22.463 23.0154 22.4784 23.0332 22.4964C23.0517 22.5151 23.0738 22.5392 23.098 22.5664C23.1463 22.6208 23.2036 22.689 23.2585 22.7556C23.3135 22.8222 23.3661 22.8875 23.405 22.936C23.4244 22.9603 23.4405 22.9804 23.4516 22.9945L23.4597 23.0047C23.4642 23.0044 23.4698 23.0041 23.4763 23.0038C23.4951 23.0029 23.5221 23.0024 23.5549 23.0035C23.6041 23.0052 23.6667 23.0106 23.7349 23.0247C23.7243 23.0096 23.7112 22.993 23.6947 22.9742C23.6503 22.9234 23.5851 22.8597 23.4881 22.7649L23.4839 22.7607L23.5014 22.7288L23.5055 22.6896C23.7029 22.7262 23.8736 22.7929 24.0555 22.8641C24.072 22.8705 24.0886 22.877 24.1053 22.8835C24.0937 22.8581 24.0792 22.8282 24.0621 22.7953C24.0103 22.6961 23.9347 22.5719 23.8388 22.4697C23.8287 22.4588 23.825 22.4405 23.8297 22.4244C23.8345 22.4082 23.8465 22.3981 23.8595 22.3993C23.8758 22.4009 23.9011 22.4114 23.9291 22.4249C23.9584 22.439 23.9949 22.4586 24.0356 22.4816C24.117 22.5276 24.2167 22.588 24.3132 22.6479C24.4002 22.7019 24.4848 22.7557 24.5516 22.7985L24.2494 22.3502L23.5517 22.0546C23.5513 22.0544 23.5508 22.0542 23.5503 22.0539C23.318 21.9376 23.0911 21.8026 22.871 21.6497C22.7324 21.6015 22.6429 21.6104 22.5877 21.6445C22.5341 21.6776 22.508 21.7376 22.5008 21.81C22.4935 21.884 22.5063 21.9692 22.5307 22.0428ZM24.6747 22.9222C24.6617 22.9577 24.6617 22.9577 24.6617 22.9577L24.6535 22.9524C24.6482 22.9489 24.6404 22.9438 24.6304 22.9373C24.6104 22.9243 24.5818 22.9058 24.5471 22.8835C24.4778 22.8389 24.3844 22.7794 24.2881 22.7196C24.1918 22.6598 24.0929 22.5999 24.0124 22.5544C24.0015 22.5483 23.991 22.5424 23.9808 22.5368C24.0336 22.6107 24.0772 22.6858 24.1108 22.7502C24.1377 22.8017 24.1583 22.8466 24.1722 22.8787C24.1792 22.8948 24.1845 22.9077 24.1881 22.9166C24.1899 22.9211 24.1913 22.9246 24.1922 22.927L24.1933 22.9297L24.1936 22.9305L24.1937 22.9307L24.1937 22.9308C24.1937 22.9308 24.1937 22.9308 24.1672 22.9485L24.1937 22.9308C24.199 22.9449 24.1975 22.9617 24.19 22.9738C24.1825 22.9859 24.1703 22.9909 24.159 22.9866C24.1175 22.9707 24.0771 22.955 24.0375 22.9395C23.8951 22.8838 23.7624 22.8319 23.6188 22.7949C23.6665 22.8422 23.704 22.8807 23.7333 22.9141C23.7807 22.9682 23.8097 23.0128 23.8256 23.0657C23.8296 23.0792 23.8278 23.0947 23.8207 23.1059C23.8136 23.117 23.8025 23.1221 23.7918 23.119C23.7018 23.0933 23.6164 23.0847 23.5534 23.0826C23.5219 23.0815 23.4961 23.082 23.4783 23.0828C23.4694 23.0832 23.4625 23.0837 23.4578 23.084C23.4555 23.0842 23.4538 23.0844 23.4526 23.0845L23.4514 23.0846L23.4511 23.0846C23.4511 23.0846 23.4511 23.0846 23.4511 23.0846M23.4487 23.0452L23.4282 23.0739L23.4237 23.0682L23.4109 23.052C23.3998 23.038 23.3838 23.0179 23.3644 22.9937C23.3257 22.9453 23.2733 22.8804 23.2186 22.8141C23.1639 22.7477 23.1071 22.6803 23.0597 22.6268C23.0359 22.6 23.0147 22.577 22.9973 22.5594C22.9827 22.5446 22.9722 22.5351 22.9657 22.5302C22.9686 22.5307 22.9714 22.5311 22.9741 22.5311V22.4915L22.9618 22.5275C22.9629 22.5282 22.9642 22.5291 22.9657 22.5302C22.9547 22.5281 22.9428 22.5225 22.9322 22.517C22.9173 22.5091 22.8998 22.4983 22.8809 22.4857C22.843 22.4604 22.7979 22.427 22.7549 22.3939C22.7118 22.3608 22.6704 22.3276 22.6398 22.3028C22.6245 22.2904 22.6118 22.2801 22.603 22.2728L22.5928 22.2644L22.5901 22.2622C22.544 22.2294 22.5033 22.1561 22.4764 22.0747C22.4489 21.9916 22.4329 21.8916 22.442 21.7997C22.4513 21.7062 22.4871 21.6195 22.5628 21.5727C22.6365 21.5272 22.7431 21.5228 22.8894 21.5744C22.8915 21.5751 22.8935 21.5762 22.8955 21.5775C23.1142 21.7296 23.3396 21.8638 23.5704 21.9795L24.275 22.278C24.2801 22.2802 24.2846 22.284 24.2881 22.2893L24.6968 22.8957C24.7063 22.9098 24.707 22.9309 24.6984 22.946C24.6898 22.9611 24.6744 22.966 24.6617 22.9577L24.6747 22.9222M23.4511 23.0846C23.4511 23.0846 23.4511 23.0846 23.4511 23.0846C23.4427 23.0855 23.4343 23.0816 23.4282 23.0739L23.4487 23.0452" fill="black"/>
<path fill-rule="evenodd" clip-rule="evenodd" d="M20.6891 18.4869C20.6732 18.4921 20.6572 18.4792 20.6532 18.458C20.6493 18.4368 20.659 18.4154 20.6749 18.4101L20.682 18.4485C20.6749 18.4101 20.6749 18.4101 20.6749 18.4101L20.6827 18.4075C20.6879 18.4059 20.6954 18.4034 20.7049 18.4003C20.7241 18.3941 20.7515 18.3853 20.7847 18.3749C20.851 18.3539 20.9404 18.3264 21.0326 18.3C21.1246 18.2736 21.2197 18.2481 21.2975 18.2315C21.3363 18.2232 21.3712 18.2169 21.3995 18.2139C21.4136 18.2124 21.4265 18.2117 21.4376 18.212C21.4482 18.2123 21.4592 18.2135 21.4686 18.2173C21.4842 18.2238 21.493 18.2459 21.4882 18.2668C21.4834 18.2877 21.4668 18.2994 21.4511 18.2929C21.4498 18.2924 21.4454 18.2913 21.4364 18.2911C21.428 18.2908 21.4172 18.2914 21.4042 18.2928C21.3782 18.2955 21.345 18.3014 21.3069 18.3096C21.2307 18.3259 21.1367 18.351 21.045 18.3773C20.9534 18.4036 20.8644 18.431 20.7983 18.4518C20.7653 18.4623 20.738 18.471 20.7189 18.4772C20.7094 18.4803 20.7019 18.4827 20.6969 18.4844L20.6891 18.4869Z" fill="white"/>
<path fill-rule="evenodd" clip-rule="evenodd" d="M-2.8125 37.5029H47.8125V45H-2.8125V37.5029Z" fill="#DE3908"/>
</g>
<defs>
<clipPath id="clip0_45_21340">
<rect width="45" height="45" fill="white"/>
</clipPath>
</defs>
</svg>
