<svg width="45" height="45" viewBox="0 0 45 45" fill="none" xmlns="http://www.w3.org/2000/svg">
<g clip-path="url(#clip0_45_21383)">
<path fill-rule="evenodd" clip-rule="evenodd" d="M0 0H45V45H0V0Z" fill="#4B92DB"/>
<path d="M25.1545 33.0191C25.0321 33.1962 24.898 33.3581 24.7537 33.5029C23.8593 32.2654 22.8046 30.9041 21.8048 30.9041C21.1846 30.9041 20.7417 31.5341 20.2185 31.9729C19.4971 32.5916 18.5057 32.9404 17.6578 32.4848C17.1782 32.2658 16.7523 31.8769 16.4259 31.3598C16.7849 31.6584 17.1919 31.8395 17.6135 31.8884C18.0351 31.9373 18.4593 31.8525 18.8517 31.641C19.6828 31.1798 20.535 30.5666 21.4842 30.5666C22.8848 30.5666 24.2179 31.8323 25.1545 33.0191ZM14.7932 29.1379C15.7214 30.5441 17.2359 30.0941 18.472 30.4429C18.645 30.4991 18.8095 30.5723 18.9951 30.5329C18.8475 30.4091 18.6492 30.3923 18.4804 30.3079C17.5185 29.8241 17.3709 28.4516 16.8435 27.5123C17.5185 28.1085 18.0712 28.9185 18.6998 29.6891C19.1429 30.1777 19.6788 30.4931 20.2481 30.6004C20.1131 30.6679 19.9359 30.6566 19.784 30.7016C18.7715 31.0391 17.6493 31.5679 16.5693 31.0954C15.8162 30.7606 15.1842 30.0623 14.7975 29.1379H14.7932ZM13.3082 25.8754C13.8862 27.6248 15.3417 27.7654 16.3035 28.8341C16.476 29.0384 16.6674 29.2123 16.8731 29.3516L16.8857 29.3404C16.6479 29.0639 16.4342 28.7526 16.2487 28.4123C15.696 27.3435 15.8775 25.881 15.4514 24.7448C15.8471 25.3314 16.1756 25.9929 16.4259 26.7079C16.7845 27.8441 16.9068 29.1435 17.7126 30.0098C16.8393 29.6273 15.8353 29.7004 15.0548 29.0198C14.2279 28.2998 13.4643 27.1635 13.3082 25.881V25.8754ZM12.6881 22.3429C12.7725 23.8841 13.9959 24.7054 14.5865 25.971C14.7131 26.241 14.8396 26.5223 15.021 26.736C14.9915 26.5729 14.8945 26.4266 14.8354 26.2691C14.6417 25.7005 14.5646 25.0736 14.6118 24.4523C14.6667 23.6648 14.9114 22.9335 14.8185 22.1066C15.3248 23.5635 15.1603 25.3804 15.4514 26.9498C15.5189 27.2985 15.675 27.6023 15.772 27.9341C15.2784 27.4279 14.6287 26.9779 14.0845 26.4154C13.5419 25.8953 13.1184 25.1845 12.861 24.3623C12.6954 23.7135 12.6364 23.0248 12.6881 22.3429ZM12.7218 19.5079C12.7809 19.1648 12.8273 18.8104 12.937 18.4954C12.726 19.9466 13.4517 20.9929 13.6964 22.2529C13.7892 22.7254 13.8229 23.226 13.9664 23.6704C13.979 23.676 13.9917 23.6591 14.0001 23.6479C13.6415 22.3091 14.1689 21.0716 14.6751 20.0198C14.7992 19.7312 14.8875 19.4178 14.9367 19.0916C14.9915 19.6991 14.8945 20.3966 14.8101 21.021C14.7046 21.8254 14.4979 22.5791 14.3334 23.3554C14.2443 23.8613 14.2371 24.3867 14.3123 24.8966L14.2575 24.8404C13.8778 23.9066 13.1268 23.1754 12.9032 22.1516C12.6895 21.3012 12.6274 20.396 12.7218 19.5079ZM13.1226 17.9441C13.1364 16.9109 13.4198 15.9163 13.9242 15.1316C13.9368 15.1204 13.9495 15.1035 13.9664 15.1091C13.4348 16.1779 13.92 17.5391 13.8482 18.7598L13.7807 20.0085C13.7892 20.0198 13.7892 20.0591 13.8145 20.0423C13.8482 19.9016 13.8567 19.7554 13.8735 19.6091C14.0001 18.5966 14.6667 17.8991 15.2278 17.1904C15.3575 17.027 15.4584 16.8272 15.5231 16.6054C15.4767 17.1116 15.3712 17.6235 15.2025 18.0791C14.7679 19.2491 13.9326 20.1941 13.7807 21.5273C13.709 20.2504 13.1226 19.2998 13.1226 17.9441ZM14.5148 14.2373C14.7573 13.8485 15.08 13.563 15.4429 13.416C14.7468 14.0516 14.7848 15.1823 14.5739 16.1273C14.4979 16.4704 14.384 16.7966 14.3207 17.151L14.3418 17.1735C14.4662 16.7481 14.6608 16.3654 14.9114 16.0541C15.3965 15.4466 16.1264 15.0754 16.3668 14.181C16.3542 15.4241 15.561 16.3691 14.8354 17.1004C14.5124 17.4253 14.2497 17.8449 14.0676 18.3266C14.0929 17.9891 14.1098 17.6966 14.0845 17.3648C14.0085 16.2791 13.9579 15.0585 14.519 14.2373H14.5148ZM17.3203 12.1504C16.8098 12.7523 16.4681 13.5229 16.0715 14.2148C15.7467 14.7941 15.2953 15.1485 14.9114 15.6323C15.1223 15.0585 15.156 14.3948 15.4218 13.8379C15.8732 12.8816 16.6242 12.5104 17.3203 12.1504Z" fill="white"/>
<path d="M28.7586 24.563L28.6109 24.4505C28.2902 25.3293 27.8652 26.1334 27.3523 26.8317L26.4734 25.6505C26.8983 25.0654 27.2475 24.3907 27.507 23.6536L27.3594 23.5411C27.1054 24.2615 26.7632 24.9205 26.3469 25.4911L25.5453 24.4223C25.8847 23.9549 26.1606 23.4125 26.3609 22.8192L26.2133 22.7067C26.0204 23.2824 25.754 23.809 25.4258 24.263L24.5469 23.0911C24.7886 22.7482 24.9794 22.3474 25.1094 21.9098L24.9617 21.7973C24.8388 22.2142 24.6575 22.596 24.4273 22.9223L23.6187 21.8536C23.8457 21.5169 23.9797 21.0869 23.9984 20.6348H25.1375C25.129 21.0329 25.0695 21.426 24.9617 21.7973L25.1094 21.9098C25.2305 21.5035 25.2972 21.0719 25.3062 20.6348H26.5578C26.545 21.3497 26.4255 22.0541 26.2063 22.7067L26.3609 22.8192C26.5913 22.1311 26.7157 21.3883 26.7266 20.6348H27.8656C27.853 21.6404 27.6805 22.631 27.3594 23.5411L27.507 23.6536C27.8395 22.7081 28.0169 21.679 28.0273 20.6348H29.2859C29.2742 21.9574 29.0437 23.2603 28.6109 24.4505L28.7586 24.563C29.2187 23.3075 29.4591 21.9291 29.4617 20.5317C29.4626 19.3397 29.2907 18.1587 28.9555 17.0536L28.8008 17.1473C29.1159 18.1877 29.2828 19.2973 29.293 20.4192H28.0344C28.0268 19.5201 27.8958 18.6304 27.6477 17.7942L27.493 17.888C27.7341 18.6939 27.8627 19.5517 27.8727 20.4192H26.7195C26.7116 19.7584 26.6164 19.1047 26.4383 18.488L26.2836 18.5817C26.4522 19.1688 26.5426 19.7906 26.5508 20.4192H25.3133C25.3052 20.0159 25.2482 19.617 25.1445 19.238L24.9898 19.3317C25.0842 19.681 25.1364 20.0481 25.1445 20.4192H24.0055C23.9867 19.9672 23.8528 19.5372 23.6258 19.2005L24.4344 18.1223C24.6787 18.4679 24.8677 18.8762 24.9898 19.3223L25.1445 19.238C25.0145 18.764 24.8136 18.3302 24.5539 17.963L25.4398 16.7817C25.8128 17.2996 26.1045 17.9115 26.2977 18.5817L26.4523 18.488C26.2484 17.7925 25.9424 17.1582 25.5523 16.6223L26.3609 15.5536C26.8503 16.2278 27.2351 17.0243 27.493 17.8973L27.6477 17.8036C27.3788 16.9054 26.9798 16.0867 26.4734 15.3942L27.3594 14.213C27.9792 15.0559 28.469 16.0529 28.8008 17.1473L28.9555 17.0536C28.6047 15.9017 28.0833 14.8559 27.4227 13.9786C26.7613 13.092 25.972 12.3935 25.1023 11.9255L25.0461 12.1411C25.8664 12.5807 26.6141 13.2305 27.2469 14.0536L26.3609 15.2348C25.8501 14.5749 25.2485 14.0528 24.5891 13.6973L24.5188 13.9036C25.1604 14.2501 25.7455 14.7595 26.2414 15.4036L25.4398 16.4723C25.054 15.9751 24.6006 15.5805 24.1039 15.3098L24.0477 15.5161C24.5179 15.7755 24.9473 16.1508 25.3133 16.6223L24.4344 17.8036C24.1886 17.4939 23.9027 17.2461 23.5906 17.0723L23.5273 17.288C23.818 17.4483 24.0847 17.677 24.3148 17.963L23.4992 19.0317C23.2467 18.7291 22.9242 18.5505 22.5852 18.5255V17.0067C22.9067 17.0203 23.2237 17.1125 23.5203 17.2786L23.5836 17.0723C23.267 16.8946 22.9285 16.7961 22.5852 16.7817V15.113C23.0844 15.1235 23.5778 15.257 24.0406 15.5067L24.1039 15.3005C23.6211 15.0391 23.1062 14.8992 22.5852 14.888V13.3692C23.2485 13.3829 23.9042 13.5609 24.5188 13.8942L24.575 13.688C23.9422 13.3474 23.2675 13.1662 22.5852 13.1536V11.4755C23.4266 11.489 24.2588 11.7115 25.0391 12.1317L25.0953 11.9161C24.2699 11.4779 23.3892 11.2552 22.5008 11.2598C21.422 11.257 20.3576 11.5909 19.393 12.2348L19.4633 12.4223C20.3815 11.8149 21.3914 11.4943 22.4164 11.4848V13.1536C21.5939 13.1669 20.7841 13.4264 20.0469 13.913L20.1242 14.1005C20.8379 13.632 21.621 13.3821 22.4164 13.3692V14.888C21.8068 14.903 21.2069 15.095 20.6586 15.4505L20.7289 15.6473C21.2558 15.3085 21.8315 15.1262 22.4164 15.113V16.7817C22.034 16.7983 21.6583 16.9196 21.3125 17.138L21.3828 17.3255C21.7075 17.1267 22.0592 17.0182 22.4164 17.0067V18.5255C22.2472 18.538 22.0807 18.5887 21.9242 18.6755L21.9945 18.863C22.1558 18.779 22.3277 18.7376 22.5008 18.7411C22.6755 18.7402 22.8487 18.7853 23.0104 18.8738C23.1721 18.9623 23.3191 19.0924 23.443 19.2567C23.5692 19.4234 23.669 19.6221 23.7367 19.841C23.8043 20.06 23.8383 20.2949 23.8367 20.5317C23.8367 21.0041 23.696 21.4572 23.4454 21.7912C23.1949 22.1253 22.8551 22.313 22.5008 22.313C22.3255 22.3126 22.1521 22.266 21.9904 22.1759C21.8287 22.0858 21.6819 21.954 21.5586 21.788C21.4341 21.6235 21.3352 21.4279 21.2676 21.2123C21.2 20.9967 21.1651 20.7654 21.1648 20.5317C21.1642 20.2965 21.1986 20.0634 21.2663 19.8461C21.3339 19.6288 21.4332 19.4316 21.5586 19.2661C21.6835 19.1009 21.8317 18.9703 21.9945 18.8817L21.9172 18.6848C21.7627 18.7714 21.6201 18.8918 21.4953 19.0411L20.6937 17.963C20.8991 17.7053 21.1341 17.4932 21.3898 17.3348L21.3125 17.1473C21.0419 17.3126 20.7927 17.5341 20.5742 17.8036L19.6883 16.6223C19.9951 16.2299 20.3463 15.904 20.7289 15.6567L20.6586 15.4692C20.2607 15.7264 19.8953 16.0648 19.5758 16.4723L18.7672 15.3755C19.1672 14.8592 19.625 14.429 20.1242 14.1005L20.0539 13.913C19.537 14.2507 19.0626 14.6935 18.6477 15.2255L17.7617 14.0348C18.2653 13.3828 18.8417 12.8389 19.4703 12.4223L19.393 12.2255C18.0356 13.1354 16.9374 14.6096 16.2641 16.4255L16.4047 16.5192C16.7225 15.662 17.1402 14.8772 17.6422 14.1942L18.5352 15.3848C18.1194 15.9546 17.7752 16.6098 17.5156 17.3255L17.6563 17.4286C17.9076 16.7299 18.2424 16.0903 18.6477 15.5348L19.4563 16.6036C19.1287 17.0567 18.8601 17.5795 18.6617 18.1505L18.8023 18.2536C18.9953 17.7022 19.2568 17.1982 19.5758 16.763L20.4617 17.9442C20.2311 18.2666 20.0454 18.6412 19.9133 19.0505L20.0609 19.163C20.1826 18.7714 20.3565 18.4124 20.5742 18.1036L21.3828 19.1723C21.1548 19.5119 21.0209 19.9453 21.0031 20.4005H19.8641C19.873 19.9755 19.9397 19.5562 20.0609 19.163L19.9203 19.0505C19.7827 19.4778 19.7064 19.9357 19.6953 20.4005H18.4437C18.4536 19.6589 18.578 18.9281 18.8094 18.2536L18.6687 18.1598C18.4225 18.8623 18.2884 19.6253 18.275 20.4005H17.1359C17.1486 19.3707 17.3285 18.3567 17.6633 17.4286L17.5156 17.3255C17.1695 18.2857 16.9847 19.3352 16.9742 20.4005H15.7156C15.7279 19.0567 15.9658 17.7337 16.4117 16.5286L16.2641 16.4255C15.7923 17.6963 15.5469 19.095 15.5469 20.513C15.5468 21.3982 15.6415 22.279 15.8281 23.1286L15.9898 23.0723C15.8151 22.2772 15.7228 21.454 15.7156 20.6255H16.9742C16.98 21.3147 17.0581 21.9995 17.2062 22.6598L17.368 22.6036C17.2215 21.962 17.1434 21.2961 17.1359 20.6255H18.282C18.2888 21.1728 18.3551 21.716 18.4789 22.238L18.6477 22.1817C18.5254 21.6786 18.4591 21.1542 18.4508 20.6255H19.6883C19.6972 21.0156 19.7518 21.4015 19.85 21.7692L20.0117 21.713C19.9175 21.3636 19.8653 20.9966 19.857 20.6255H20.9961C21.0149 21.0775 21.1488 21.5075 21.3758 21.8442L20.5672 22.9223C20.3222 22.5739 20.1332 22.1623 20.0117 21.713L19.85 21.7692C19.9807 22.2581 20.1867 22.7052 20.4547 23.0817L19.5617 24.263C19.138 23.672 18.8206 22.9603 18.6336 22.1817L18.4648 22.238C18.6629 23.0572 18.9997 23.8046 19.4492 24.4223L18.6477 25.5005C18.057 24.6869 17.6206 23.6969 17.375 22.613L17.2133 22.6692C17.466 23.7919 17.9168 24.8174 18.5281 25.6598L17.6492 26.8411C16.8758 25.7873 16.3084 24.4964 15.9969 23.0817L15.8281 23.138C16.1561 24.6269 16.7607 25.9812 17.5859 27.0755C18.1437 27.8227 18.7928 28.4377 19.5055 28.8942L19.5898 28.6973C18.9145 28.27 18.2967 27.6966 17.7617 27.0005L18.6477 25.8192C19.1017 26.4026 19.6273 26.8782 20.2016 27.2255L20.2859 27.038C19.724 26.6984 19.2102 26.2322 18.7672 25.6598L19.5687 24.5911C19.9402 25.0671 20.3739 25.4484 20.8484 25.7161L20.9328 25.5192C20.4712 25.2623 20.0492 24.8936 19.6883 24.4317L20.5742 23.2505C20.8572 23.6044 21.1925 23.8758 21.5586 24.0473L21.6359 23.8505C21.2852 23.6888 20.9641 23.43 20.6937 23.0911L21.5023 22.013C21.7549 22.3156 22.0774 22.4942 22.4164 22.5192V24.038C22.153 24.0273 21.8923 23.9641 21.643 23.8505L21.5516 24.038C21.8291 24.1734 22.121 24.2493 22.4164 24.263V25.9317C21.9068 25.9201 21.4034 25.7802 20.9328 25.5192L20.8484 25.7067C21.3447 25.989 21.877 26.1418 22.4164 26.1567V27.6755C21.6809 27.6607 20.9556 27.4437 20.2859 27.038L20.2016 27.2255C20.8967 27.6531 21.651 27.883 22.4164 27.9005V29.5692C21.438 29.5552 20.4735 29.2577 19.5898 28.6973L19.5055 28.8848C20.4403 29.4831 21.4639 29.7939 22.5008 29.7942C23.6117 29.7942 24.6805 29.4473 25.6367 28.8005L25.5523 28.5942C24.6324 29.218 23.6172 29.5516 22.5852 29.5692V27.8911C23.4159 27.8755 24.2331 27.6095 24.9758 27.113L24.9055 26.9161C24.1846 27.3971 23.3912 27.6536 22.5852 27.6661V26.1661C23.2112 26.1473 23.8261 25.9423 24.3852 25.5661L24.3078 25.3692C23.772 25.7247 23.1836 25.9168 22.5852 25.9317V24.263C22.9829 24.2483 23.3736 24.1204 23.7312 23.888L23.6609 23.6817C23.3255 23.9013 22.9587 24.0228 22.5852 24.038V22.5192C22.9242 22.4942 23.2467 22.3156 23.4992 22.013L24.3078 23.0911C24.1132 23.3304 23.8928 23.5295 23.6539 23.6817L23.7312 23.888C23.986 23.7234 24.2207 23.5085 24.4273 23.2505L25.3133 24.4223C25.0161 24.8041 24.677 25.1234 24.3078 25.3692L24.3781 25.5661C24.7653 25.3116 25.121 24.9796 25.4328 24.5817L26.2344 25.6505C25.8402 26.1608 25.3896 26.5877 24.8984 26.9161L24.9828 27.113C25.487 26.7744 25.9494 26.3349 26.3539 25.8098L27.2328 26.9911C26.737 27.6363 26.1704 28.1769 25.5523 28.5942L25.6367 28.8005C26.2945 28.3548 26.895 27.7725 27.4156 27.0755C27.9653 26.3437 28.4192 25.4945 28.7586 24.563Z" fill="white"/>
<path d="M22.9007 18.3752H22.8585V18.4408H22.9007V18.3752ZM22.7952 18.2814H22.8515V18.3377H22.7952V18.2814ZM22.6968 18.2627L22.739 18.2721L22.746 18.2158H22.6968V18.2627ZM22.6546 18.2439H22.6054V18.1783L22.6616 18.1877L22.6546 18.2439ZM22.2468 18.1689H22.3031V18.2252H22.2468V18.1689ZM22.1273 18.2814L22.1765 18.2908V18.2346H22.1343L22.1273 18.2814ZM22.1273 18.3752L22.0781 18.3471V18.2908L22.1413 18.3189L22.1273 18.3752ZM22.0288 18.4408V18.3846L22.064 18.3752L22.071 18.4314L22.0288 18.4408ZM16.5023 24.2158V24.1689H16.4671V24.2627H16.5234V24.3846H16.5656V24.2439L16.5023 24.2158ZM17.0296 25.0596L16.9593 24.9658L16.896 24.8627L16.8679 24.7689L16.8187 24.6002L16.9241 24.6752L16.9593 24.8064L17.0085 24.8533L17.0577 24.9939L17.0296 25.0596ZM18.4851 27.6002L18.4781 27.5158L18.4148 27.4033L18.5062 27.4221L18.5906 27.5252L18.6327 27.6471L18.5765 27.6846L18.5554 27.6283L18.4851 27.6002ZM22.282 18.9846H22.2116L22.1906 18.7783L22.2327 18.7408V18.6377H21.9866V18.5346L22.0148 18.5064L21.9585 18.4783L21.9163 18.5533L21.9023 18.6377L21.832 18.6564V18.7033H21.7827V18.8252L21.5859 19.0408L21.1921 19.0221C21.171 19.1158 21.1007 19.0221 21.1007 19.0221C21.0796 18.9564 20.9882 19.0221 20.9882 19.0221C20.9882 19.1158 20.8476 18.9658 20.8476 18.9658L20.6085 18.7314C20.4679 18.5627 20.257 18.7783 20.2499 18.8252C20.2499 18.9564 20.0882 18.8533 20.0882 18.8533C20.0882 18.8533 19.9476 18.7971 19.9265 18.8721C19.9054 18.9471 19.814 18.9283 19.814 18.9283L19.7999 18.9658L19.7296 18.9846L19.7156 19.0408L19.6312 19.0596H19.8421C19.8984 19.0408 19.821 19.2189 19.7859 19.2096H19.6874L19.6523 19.2658H19.5609L19.5187 19.3408L19.3851 19.3314C19.3851 19.3314 19.3148 19.4158 19.3148 19.4439C19.3218 19.4721 19.3007 19.5564 19.2796 19.5564C19.2585 19.5564 19.2163 19.6502 19.2304 19.6689C19.2445 19.6971 19.1882 19.7908 19.1882 19.7908L19.1741 19.8846L19.132 19.9127V20.1658L19.0476 20.2408V20.3533L18.921 20.5408L18.9351 20.6814L18.8296 20.8408L18.8437 20.9908L18.7804 21.0189L18.7663 21.0846L18.7382 21.2814L18.8085 21.2908C18.8437 21.2721 18.8366 21.4127 18.8085 21.4408C18.7804 21.4596 18.7031 21.4971 18.7452 21.5346C18.7874 21.5721 18.6327 21.5627 18.6327 21.5064C18.6327 21.4408 18.5484 21.3939 18.5273 21.4127C18.5062 21.4314 18.471 21.3283 18.471 21.3283C18.4007 21.2346 18.1616 21.3377 18.1616 21.3377L18.1265 21.4971C18.0491 21.5064 17.9999 21.6846 17.9999 21.6846C17.9296 21.7127 17.8874 21.8158 17.9085 21.8439C17.9296 21.8721 17.8734 21.8814 17.8734 21.8814V22.0877L17.8382 22.1533V22.3877C17.8874 22.3877 17.8804 22.4814 17.8804 22.4814C17.8101 22.5002 17.8241 22.6221 17.8241 22.6221L17.6765 22.6877L17.6484 22.7439H17.4656L17.4163 22.8002L17.3671 22.7346H17.0156L17.0015 22.6877L16.9312 22.6689V22.5658H16.8187L16.7976 22.6314L16.6851 22.6408C16.6921 22.7346 16.5726 22.8752 16.5585 22.8377C16.5445 22.8002 16.4671 22.6971 16.5023 22.6783C16.5437 22.6618 16.586 22.6493 16.6288 22.6408V22.5752L16.3687 22.5658L16.3406 22.6221L16.2351 22.6314V22.7814L16.1859 22.8002C16.1507 22.8283 16.1929 22.9314 16.1929 22.9314C16.2421 22.9971 16.1929 23.1096 16.1929 23.1096C16.1437 23.1658 16.221 23.2689 16.221 23.2689C16.2773 23.2877 16.1859 23.3439 16.1859 23.3439C16.1999 23.4377 16.2421 23.4658 16.2421 23.4658C16.1999 23.5596 16.2702 23.6064 16.2702 23.6064L16.2773 23.7658L16.3265 23.8033V23.9158L16.3546 23.9814H16.4671V23.7377C16.3616 23.5877 16.5445 23.5502 16.5515 23.6064C16.5585 23.6627 16.6359 23.7002 16.6359 23.7002C16.6499 23.8408 16.7765 23.9252 16.8046 23.7752C16.8398 23.6346 16.8749 23.7189 16.889 23.7846C16.9101 23.8596 17.0437 24.0189 17.0437 24.0189H17.1491L17.1632 24.1502C17.2827 24.1408 17.3179 24.1502 17.3671 24.3752C17.3789 24.4379 17.4016 24.496 17.4334 24.5449C17.4651 24.5937 17.5051 24.6319 17.5499 24.6564L17.6484 24.6471C17.6484 24.5252 17.7468 24.6658 17.7468 24.7221C17.7468 24.7783 17.9366 24.9939 17.9366 24.9939L18.1265 25.0502L18.3023 25.2377L18.4359 25.2189H18.4921C18.5273 25.0596 18.696 25.2283 18.7031 25.2846C18.7171 25.3408 18.8296 25.4439 18.8437 25.3971C18.8577 25.3502 18.9351 25.3783 18.9491 25.5189C18.9632 25.6596 19.0195 25.6314 19.0195 25.6314L19.4132 25.6221L19.5538 25.4627L19.9124 25.4533C20.0952 25.4439 19.9827 25.1064 19.9476 25.1064C19.8843 25.0408 19.9687 24.7689 19.9687 24.7689L19.4554 24.1314C19.3359 24.1314 19.4413 23.9064 19.4413 23.9064C19.5327 23.8314 19.4202 23.7002 19.4202 23.7002C19.4343 23.5877 19.371 23.4564 19.371 23.4564C19.2445 23.3439 19.2796 23.1283 19.2796 23.1283V22.9689C19.1741 22.8377 19.3218 22.8189 19.3218 22.8189C19.371 22.7064 19.2866 22.6221 19.2866 22.6221V22.5002L19.1671 22.4814L19.1531 22.0314L18.8999 21.5533C18.8507 21.5346 18.8859 21.4127 18.8859 21.4127C18.9562 21.3658 18.8718 21.2533 18.8718 21.2533V21.0471L19.0124 21.0283L19.0476 20.9533H19.1179V20.7096C19.146 20.5783 19.2304 20.6439 19.2304 20.6439L19.3288 20.6533L19.3851 20.5127L19.3991 20.4002H19.3288C19.2374 20.3252 19.2796 20.0814 19.2796 20.0814C19.4202 19.8096 19.5679 19.9689 19.5679 19.9689L19.6663 19.9596C19.814 20.0908 19.6804 20.3346 19.6804 20.3346C19.6523 20.3908 19.6663 20.5689 19.6663 20.5689L19.7015 20.8783L19.6101 20.9721C19.5398 21.0377 19.5398 21.1689 19.6171 21.1971C19.6734 21.2064 19.6523 21.3846 19.5679 21.2627C19.4413 21.2627 19.6382 21.4127 19.582 21.3752C19.7085 21.4689 19.6804 21.3002 19.6804 21.3002L19.8491 21.1221C19.9195 21.0564 20.0249 21.2627 20.0249 21.2908C20.0249 21.3189 20.3062 21.3002 20.3062 21.3002C20.3765 21.3658 20.4116 21.5439 20.4116 21.5439C20.482 21.4033 20.6507 21.5346 20.5312 21.6096C20.6437 21.7033 20.6437 21.7877 20.6437 21.7877C20.7351 21.7502 20.7351 21.8439 20.7351 21.8721L20.7632 21.7314C20.6577 21.6283 20.9038 21.5908 20.8335 21.7783L20.7913 21.8627L20.8616 21.9377V22.1533C21.0234 22.1346 20.9812 21.8814 20.9812 21.8814L21.0515 21.8627C21.0515 21.7689 21.1007 21.8252 21.1007 21.8252C21.0515 21.5064 21.2132 21.4502 21.2132 21.4502C21.3046 21.4127 21.3116 21.1596 21.3116 21.1596C21.2413 21.1221 21.2835 20.9908 21.3538 21.1033C21.4241 21.2158 21.3116 20.8783 21.3116 20.8783L21.2554 20.8127L21.1781 20.8033L21.171 20.7002H21.0445L21.0234 20.8314L20.9741 20.8502L20.9601 20.8127L20.939 20.9064H20.8124L20.8054 20.8033L20.8757 20.7752L20.9109 20.7189L20.932 20.5596H21.0234L21.1429 20.5127C21.1429 20.3533 21.2132 20.3908 21.2132 20.3908L21.2554 20.4377L21.3187 20.5033V20.5596L21.2835 20.5877L21.2765 20.6627L21.2976 20.7752H21.3468C21.3679 20.6158 21.5156 20.6158 21.5577 20.7189L21.5999 20.5783C21.5015 20.5127 21.5999 20.4096 21.6281 20.4564C21.6562 20.5033 21.7195 20.3346 21.7195 20.3346C21.7195 20.3346 21.7687 20.4283 21.7195 20.3064C21.6702 20.1939 21.7546 20.1377 21.7546 20.1377C21.7406 20.0252 21.846 20.0439 21.846 20.0439L21.8531 19.8846H21.7546C21.7335 20.0158 21.6491 19.8939 21.6913 19.8658C21.7335 19.8377 21.7757 19.7814 21.7757 19.7814V19.6877L21.8179 19.6689L21.8249 19.5752H21.9304L22.0218 19.5189L22.0429 19.4721L22.1413 19.4627L22.282 19.2939L22.2679 19.2189C22.1835 19.2189 22.2679 19.1252 22.2679 19.1252L22.282 18.9846Z" fill="white"/>
<path d="M19.4555 20.8684L19.329 20.8496L19.336 20.9152H19.3711C19.4274 21.0465 19.3782 21.3652 19.3782 21.3652C19.3782 21.3652 19.2938 21.3746 19.2797 21.3184C19.2657 21.2621 19.2305 21.4402 19.2586 21.4777C19.2868 21.5059 19.3852 21.4777 19.3993 21.5715C19.3993 21.684 19.4555 21.5152 19.4555 21.5152V20.859V20.8684Z" fill="white"/>
<path d="M19.4547 21.6746L19.4969 21.6652L19.5039 21.5996L19.3984 21.6934L19.3281 21.6371V21.8621L19.4406 22.059L19.4828 21.9277L19.4969 21.8434L19.4477 21.8152L19.4547 21.6746ZM19.5109 22.2746V22.1809H19.4617V22.2652L19.5109 22.2746ZM19.4477 22.7246V22.659L19.3914 22.6684V22.734L19.4477 22.7246ZM19.532 22.434C19.5404 22.434 19.5485 22.4295 19.5544 22.4216C19.5603 22.4137 19.5637 22.403 19.5637 22.3918C19.5637 22.3806 19.5603 22.3699 19.5544 22.362C19.5485 22.3541 19.5404 22.3496 19.532 22.3496C19.5277 22.3494 19.5233 22.3506 19.5194 22.353C19.5154 22.3555 19.5119 22.3591 19.5092 22.3637C19.5064 22.3682 19.5045 22.3735 19.5036 22.3792C19.5027 22.3849 19.5028 22.3908 19.5039 22.3965C19.5039 22.4152 19.518 22.434 19.532 22.434Z" fill="white"/>
<path d="M19.5828 22.6316C19.5983 22.6316 19.6109 22.6149 19.6109 22.5941C19.6109 22.5734 19.5983 22.5566 19.5828 22.5566C19.5673 22.5566 19.5547 22.5734 19.5547 22.5941C19.5547 22.6149 19.5673 22.6316 19.5828 22.6316Z" fill="white"/>
<path d="M19.5828 21.5438C19.5983 21.5438 19.6109 21.527 19.6109 21.5062C19.6109 21.4855 19.5983 21.4688 19.5828 21.4688C19.5673 21.4688 19.5547 21.4855 19.5547 21.5062C19.5547 21.527 19.5673 21.5438 19.5828 21.5438Z" fill="white"/>
<path d="M21.9641 20.1098L21.8938 20.1004L21.8727 20.1473H21.8375V20.2223H21.8727L21.8797 20.2785L21.8516 20.316L21.8375 20.3629L21.7812 20.3817L21.6547 20.541V20.616L21.6125 20.6817L21.5703 20.8317H21.4297L21.3945 21.0098L21.4156 21.1504L21.5422 21.216L21.5563 21.1223L21.5984 21.0942L21.6055 21.0004L21.6336 20.9348L21.6758 20.8692L21.6898 20.7942L21.7602 20.7379L21.8445 20.7098L21.8797 20.6535L21.8938 20.541V20.4567L21.9289 20.4004L22.0133 20.3535V20.166H21.9711L21.9641 20.1098ZM22.1609 20.7567V20.616L22.1469 20.4942L22.0414 20.4285L21.9711 20.5223L21.95 20.6535V20.7473L21.8797 20.766L21.8656 21.0192L21.8094 21.0473L21.8164 21.141L21.7461 21.1692L21.6617 21.1973L21.6477 21.3192L21.5914 21.366L21.5633 21.4879L21.5281 21.7598C21.5281 21.7598 21.5984 21.9192 21.6266 21.8442C21.6617 21.7692 21.718 21.7504 21.718 21.7504L21.7391 21.6942H21.9289C21.943 21.6004 22.0344 21.6379 22.0344 21.6848C22.0344 21.7317 22.1047 21.6848 22.1047 21.6848L22.1539 21.591H22.2313L22.2383 21.4692L22.2734 21.441V21.2817C22.3859 21.2348 22.3719 21.0942 22.3719 21.0942L22.4 21.0473L22.3859 20.9817C22.3297 20.9535 22.3578 20.8879 22.393 20.9067C22.4281 20.9254 22.3438 20.8129 22.3438 20.8129C22.3016 20.8692 22.2734 20.766 22.2734 20.766H22.1609V20.7567ZM22.2734 21.9004C22.2734 22.0129 22.1609 22.0504 22.1609 22.0504L22.0906 22.0223L22.0414 21.9754V21.8442L22.0977 21.8348L22.1117 21.891L22.2734 21.9004ZM22.6531 21.291C22.6672 21.3848 22.6672 21.1598 22.6953 21.1692C22.7234 21.1785 22.7023 21.0379 22.7023 21.0379L22.5758 21.1598C22.6391 21.1692 22.6461 21.2535 22.6531 21.291ZM23.0258 20.8035C23.0539 20.8879 23.0469 21.0098 23.1523 21.1035C23.1875 21.1317 23.1313 21.1973 23.0961 21.1692C23.0431 21.0979 22.9959 21.0194 22.9555 20.9348V20.8129C22.9836 20.7379 23.0117 20.766 23.0258 20.8035ZM23.0469 23.7098L23.068 23.7567L23.1172 23.6629L23.075 23.6348L23.0258 23.6817L23.0469 23.7098ZM22.85 23.5317V23.6442V23.5317ZM23.8625 23.4004L23.9188 23.3535L23.8977 23.2973L23.8414 23.3442L23.8625 23.4004ZM24.882 25.5004L24.9453 25.5473V25.7067C25.0367 25.8192 25.3109 25.7254 25.3109 25.6973L25.2969 25.341L25.2617 25.2942L25.2547 25.0598C25.2828 24.9379 25.1141 24.7598 25.107 24.7973C25.093 24.8348 25.0016 24.7973 25.0016 24.8442C25.0016 24.8817 24.9453 25.0692 24.9734 25.1348C25.0016 25.2004 24.9523 25.2004 24.9453 25.266C24.9383 25.3317 24.868 25.4535 24.875 25.5098L24.882 25.5004ZM24.7273 25.1254C24.7133 25.2004 24.657 25.2379 24.6359 25.2192C24.6078 25.1817 24.6711 25.2567 24.6852 25.2942C24.6992 25.3317 24.7414 25.3317 24.7555 25.2942C24.7695 25.2567 24.7555 25.1723 24.7766 25.1348C24.7906 25.0973 24.7344 25.0879 24.7273 25.1348V25.1254ZM24.3969 23.3817H24.4461V23.5692H24.3969V23.3817ZM25.1281 21.5629C25.093 21.5067 25.2687 21.4035 25.2969 21.5254C25.325 21.6379 25.2969 21.6192 25.2688 21.6098C25.2406 21.6004 25.1703 21.6379 25.1281 21.5629ZM25.2758 20.2879V20.3442L25.3461 20.3629L25.3531 20.3067L25.2758 20.2879ZM24.9594 20.4379L25.0156 20.4848H25.0367L25.0789 20.4473V20.466L25.1211 20.4473L25.107 20.4004V20.3723L25.0789 20.3817L25.0297 20.4285L24.9805 20.3817L24.9594 20.4379ZM26.3656 18.0004H26.2602C26.2602 18.0004 26.2953 18.0192 26.1898 17.8973C26.0984 17.7754 26.0352 17.9254 26.0352 17.9254L25.9227 17.9442V18.0942L25.8664 18.1223V18.216H25.9508C25.9508 18.216 25.9508 18.3192 25.9719 18.2723C25.993 18.2254 26.1688 18.2817 26.1547 18.4035C26.1477 18.4504 26.3305 18.5723 26.3094 18.7223C26.4008 18.741 26.3797 18.8629 26.3797 18.8629L26.4992 18.8817L26.5344 18.7879L26.5695 18.7973V18.741L26.4922 18.7129L26.4781 18.4035L26.4289 18.3567L26.443 18.2817L26.3867 18.2535L26.4148 18.1317L26.3656 18.0004ZM26.668 18.966H26.6117L26.4852 18.9848L26.4148 19.1723C26.4148 19.1723 26.45 19.2004 26.4852 19.266C26.5063 19.3317 26.5203 19.716 26.4359 19.7817C26.3516 19.8473 26.443 19.8098 26.443 19.8098L26.4289 20.0254C26.45 20.1192 26.4852 20.0723 26.5063 20.0254C26.5273 19.9785 26.5484 19.9692 26.5766 19.9223C26.6047 19.8754 26.6469 19.7817 26.6539 19.716C26.6609 19.6504 26.6961 19.5473 26.675 19.5192C26.6539 19.491 26.6961 19.3598 26.6961 19.3598C26.6961 19.3598 26.7242 19.2848 26.6961 19.2098C26.668 19.1348 26.7031 19.041 26.7242 19.0035L26.668 18.966ZM26.7523 19.3598L26.7594 19.2848H26.8016V19.3598H26.7523ZM26.7523 19.6223L26.7172 19.5942L26.7383 19.5379L26.7734 19.566L26.7523 19.6223ZM26.6891 18.8723L26.6609 18.7785C26.6609 18.7785 26.6609 18.7035 26.675 18.666C26.6891 18.6285 26.6469 18.591 26.6258 18.5723C26.6047 18.5723 26.6117 18.4973 26.6047 18.4598C26.6047 18.4223 26.5484 18.3942 26.5484 18.3942L26.5344 18.216C26.5344 18.1879 26.4711 18.1504 26.4922 18.1223L26.5484 18.0379C26.5695 18.0192 26.5273 17.8879 26.5625 17.916C26.5977 17.9442 26.5977 17.991 26.6117 18.0285C26.6258 18.066 26.6117 18.1973 26.6398 18.2254C26.675 18.2535 26.6398 18.3567 26.6891 18.3567C26.7453 18.3567 26.7102 18.5348 26.7102 18.5348C26.7102 18.5348 26.6961 18.666 26.7313 18.6754C26.7664 18.6848 26.7453 18.9098 26.7453 18.9098L26.6891 18.8629V18.8723ZM26.2391 17.3254C26.2602 17.3629 26.3023 17.391 26.3023 17.4285C26.3023 17.466 26.2883 17.4942 26.3305 17.5035C26.3727 17.5129 26.4008 17.5035 26.4148 17.541C26.4289 17.5879 26.4289 17.6723 26.4148 17.7098C26.4148 17.7473 26.4289 17.8035 26.4641 17.8035C26.4992 17.8035 26.5063 17.8035 26.5063 17.841C26.5063 17.8692 26.5484 17.7379 26.5484 17.7379C26.5133 17.7004 26.4781 17.616 26.4781 17.616L26.45 17.4567C26.45 17.4379 26.4008 17.4192 26.3797 17.4098C26.3586 17.4098 26.3234 17.316 26.3234 17.316L26.2391 17.3254ZM26.3094 17.241C26.2883 17.2035 26.2672 17.1754 26.2391 17.1567C26.2109 17.1379 26.1898 17.1192 26.1617 17.1192C26.1536 17.1187 26.1457 17.1155 26.1388 17.11C26.1318 17.1044 26.1259 17.0966 26.1218 17.0874C26.1176 17.0781 26.1152 17.0676 26.1148 17.0568C26.1144 17.046 26.116 17.0352 26.1195 17.0254C26.1336 16.9879 26.0984 16.9692 26.0984 16.9317C26.0984 16.8942 26.1195 16.8942 26.1547 16.9223C26.1898 16.9504 26.1828 16.9598 26.2109 17.0067C26.2391 17.0535 26.2531 17.1004 26.2812 17.091C26.3094 17.0817 26.3305 17.1754 26.3516 17.1473C26.3867 17.1192 26.3797 17.2129 26.3797 17.2129L26.3094 17.241ZM25.4867 18.3098C25.5219 18.366 25.2758 18.3473 25.2758 18.3098C25.2758 18.2723 25.2969 18.141 25.3602 18.1692C25.4234 18.1973 25.4305 18.0004 25.4305 18.0004C25.4305 18.0004 25.3742 18.0098 25.4234 17.9723C25.4727 17.9348 25.4234 17.8785 25.4023 17.8504L25.3602 17.7754H25.4586C25.5008 17.7379 25.5148 17.5598 25.5148 17.5598C25.5992 17.5973 25.6414 17.5129 25.6414 17.5129L25.6836 17.6254C25.7117 17.6723 25.6133 17.691 25.6484 17.7192C25.6836 17.7473 25.6977 17.8317 25.6836 17.8598C25.6695 17.8879 25.5922 17.8598 25.5922 17.8317C25.5922 17.8035 25.5641 17.8785 25.5922 17.9254C25.6203 17.9723 25.557 18.0379 25.543 18.0379C25.5289 18.0379 25.4375 18.0567 25.5148 18.1129C25.5852 18.1692 25.6766 18.141 25.6766 18.141C25.6766 18.141 25.7398 18.141 25.7609 18.1785C25.782 18.2254 25.7539 18.2348 25.7188 18.2348L25.5078 18.216C25.5078 18.216 25.4656 18.2817 25.4867 18.3098ZM25.0367 18.4035C25.0719 18.3942 25.1563 18.3848 25.1773 18.4035C25.1844 18.441 25.1211 18.4785 25.1211 18.4785L25.0367 18.4973C25.0086 18.4504 25.0016 18.4035 25.0367 18.4035ZM25.9438 17.6067C26 17.5692 26.1195 17.5692 26.1125 17.5129C26.1055 17.4473 26.1828 17.4285 26.1828 17.4285L26.2039 17.541L26.2672 17.6067V17.7004L26.218 17.7192C26.1406 17.7473 26.1898 17.7942 26.1898 17.7942H26.0141L25.993 17.7004L25.9367 17.6067H25.9438ZM25.6625 17.091C25.7117 17.091 25.6555 17.3067 25.768 17.2879C25.8805 17.2692 25.768 17.3535 25.8594 17.3629C25.9437 17.3723 25.9227 17.2785 25.9508 17.2129C25.9789 17.1473 25.9648 17.1098 25.9156 17.091C25.8664 17.0723 25.8664 17.0723 25.8453 16.9973C25.8383 16.9223 25.775 16.9035 25.775 16.9035L25.7609 16.791L25.6695 16.866L25.5781 17.0254C25.5781 17.1473 25.6273 17.091 25.6695 17.091H25.6625ZM25.8523 17.8879L25.8734 17.8317L25.9156 17.8598L25.8945 17.916L25.8523 17.8879ZM25.782 17.7942H25.8242V17.8692H25.782V17.7942ZM25.8172 16.5379V16.6223H25.782L25.775 16.5473L25.8172 16.5379ZM25.6977 17.4192H25.7398V17.466H25.6977V17.4192ZM25.5852 17.4192V17.3629H25.6555V17.4098L25.5852 17.4192ZM25.0086 18.3379L24.9664 18.3098L24.9875 18.2442L25.0297 18.2723L25.0086 18.3379ZM24.7836 18.1598V18.1035H24.8539V18.1504L24.7836 18.1598ZM23.5672 18.141L23.4125 18.1504V18.2067H23.5742L23.5672 18.141ZM23.3141 18.2254L23.3 18.141L23.3422 18.1317L23.3563 18.216L23.3141 18.2254ZM23.2859 18.2817L23.2719 18.2348L23.293 18.2254L23.307 18.2723L23.2859 18.2817ZM23.6375 18.1223L23.6305 18.1879L23.7008 18.1973C23.7008 18.1973 23.7359 18.2348 23.7359 18.2629C23.7359 18.291 23.7852 18.3192 23.8133 18.3192C23.8414 18.3192 23.9188 18.2442 23.9188 18.2442C23.9188 18.2442 23.9539 18.1129 23.9258 18.1223C23.8977 18.1317 23.8414 18.1879 23.8344 18.1317C23.8344 18.0754 23.743 18.1035 23.743 18.1035L23.6305 18.1223H23.6375ZM23.9891 18.0285C23.9891 18.0473 23.968 18.0848 24.0102 18.0942C24.0523 18.1035 24.1297 18.0567 24.1367 18.1129C24.1437 18.1692 24.1437 18.2067 24.207 18.2348C24.2471 18.2576 24.29 18.2704 24.3336 18.2723L24.4742 18.2535C24.4742 18.2535 24.5656 18.2817 24.5867 18.3004C24.6641 18.4129 24.7133 18.441 24.7344 18.3942C24.7555 18.3473 24.7344 18.2348 24.7203 18.2067C24.7203 18.1598 24.6148 17.9817 24.5797 18.0192C24.5445 18.0567 24.5375 18.0192 24.4742 18.0473C24.4109 18.0754 24.2773 18.0567 24.2703 18.0192C24.2703 17.9817 24.1648 17.9629 24.1648 17.9254C24.1648 17.8879 24.0945 17.8317 24.1016 17.8973C24.1086 17.9535 24.0523 17.9817 24.0383 17.9629C24.0242 17.9442 23.982 18.0192 23.982 18.0192L23.9891 18.0285ZM25.5992 16.8098L25.6484 16.5942C25.5781 16.5754 25.5922 16.4723 25.5922 16.4723C25.5852 16.3785 25.4867 16.2848 25.4516 16.3223C25.4164 16.3504 25.4305 16.1254 25.4305 16.1254C25.4305 16.1254 25.4938 16.0692 25.5219 16.0973C25.55 16.1254 25.2828 15.6192 25.2266 15.666C25.1703 15.7129 25.0438 15.6192 25.0508 15.5348C25.0578 15.441 24.7977 15.1598 24.7977 15.1598C24.7977 15.1598 24.7133 15.0848 24.6992 15.141C24.6852 15.1973 24.657 15.2348 24.6992 15.2723C24.7414 15.3004 24.7344 15.2254 24.7836 15.291C24.8328 15.3567 24.9242 15.441 24.8891 15.4973C24.8539 15.5535 24.8188 15.5723 24.8188 15.5723L24.8609 15.6473H24.9383L24.9523 15.8067C24.9523 15.8067 25.0367 15.8629 25.0578 15.9285C25.0789 15.9942 25.0789 16.0317 25.0578 16.0785C25.0367 16.116 24.9945 16.1723 25.0016 16.2473C25.0086 16.3129 25.0719 16.341 25.0719 16.341H25.1211L25.1633 16.3785V16.5004C25.2195 16.4817 25.3109 16.5942 25.3039 16.6504C25.3039 16.716 25.318 16.6785 25.3883 16.7442C25.4586 16.8098 25.4375 16.8192 25.4867 16.8754C25.5359 16.9223 25.5781 16.8942 25.5992 16.8004V16.8098Z" fill="white"/>
<path d="M24.4336 15.5248C24.4336 15.4873 24.4125 15.3561 24.4547 15.3654C24.4969 15.3654 24.4687 15.3654 24.525 15.3936C24.5812 15.4217 24.5742 15.3467 24.5742 15.3467H24.6516L24.75 15.4404L24.7359 15.5342H24.6656C24.6305 15.4686 24.5602 15.4967 24.5742 15.5623C24.5883 15.6279 24.5391 15.7498 24.5109 15.7592C24.4828 15.7686 24.3914 15.7686 24.3984 15.7123L24.4336 15.5248ZM24.3773 15.2717V15.1873C24.3773 15.1873 24.3773 15.1123 24.3352 15.1123C24.293 15.1123 24.2367 15.0561 24.2508 15.0186C24.2648 14.9811 24.1313 14.9436 24.1313 14.9436C24.1313 14.9436 24.0117 14.7936 24.0609 14.8123C24.0961 14.8311 24.075 14.7467 24.075 14.7467C24.075 14.7467 23.9906 14.7654 23.9695 14.7467C23.9484 14.7467 23.9555 14.6529 23.9555 14.6529C23.9555 14.6529 23.8711 14.6342 23.8711 14.6529C23.8711 14.6717 23.8992 14.6904 23.9133 14.7467C23.9273 14.8029 23.9203 14.8967 23.9836 14.9154C24.0539 14.9342 24.0609 14.9529 24.068 14.9904C24.075 15.0279 24.1523 15.0373 24.1523 15.0373L24.2086 15.0748L24.3773 15.2623V15.2717ZM23.625 14.2967L23.6039 14.2217L23.5477 14.2029V14.2967H23.625ZM23.6039 13.9029C23.5336 13.8279 23.7023 13.9592 23.7023 13.9592C23.7586 13.9592 23.7937 14.0154 23.7937 14.0436C23.7937 14.0717 23.8641 14.0623 23.8641 14.0623L23.8711 13.9967L23.8148 13.9029L23.7656 13.8561C23.7656 13.8561 23.6953 13.8467 23.6953 13.8186C23.6953 13.7904 23.625 13.9311 23.5969 13.9029H23.6039ZM24.8906 13.9592C24.8695 14.0436 24.8625 14.1561 24.8273 14.1561C24.7922 14.1561 24.8062 14.2779 24.8062 14.2779L24.9258 14.2873C24.9539 14.2967 24.9539 14.3904 24.9539 14.3904C25.0594 14.3904 25.1016 14.5779 25.0945 14.6248C25.0734 14.6717 25.1297 14.6717 25.1297 14.6717C25.1297 14.6717 25.1297 14.8217 25.1156 14.8592C25.1016 14.8967 25.207 14.9248 25.2352 14.9811C25.2633 15.0373 25.2211 15.2248 25.2 15.2342C25.1789 15.2529 25.2563 15.2811 25.2492 15.3279C25.2422 15.3748 25.2703 15.3279 25.2773 15.4029L25.2984 15.6373L25.3969 15.6467C25.4109 15.5248 25.5937 15.5154 25.6219 15.5342C25.7414 15.5904 25.8328 15.8342 25.8328 15.8904C25.8328 15.9467 25.7555 15.9561 25.7555 15.9561L25.7695 16.2373C25.8891 16.2842 25.9805 16.5186 25.9734 16.5467C25.9594 16.5842 26.0578 16.5748 26.0578 16.5748C26.0719 16.4061 26.1914 16.4623 26.1984 16.5186C26.1984 16.5748 26.2266 16.7061 26.2266 16.7061L26.2617 16.7811L26.3109 16.8467H26.3813L26.4094 16.9029L26.4937 16.9217C26.4937 16.9217 26.5711 17.0342 26.5781 17.0623C26.5852 17.0904 26.6906 17.0811 26.7188 17.0904C26.7469 17.0904 26.7891 17.1279 26.7961 17.1748C26.8031 17.2217 26.8453 17.2967 26.8453 17.2967C26.8453 17.2967 26.9297 17.3248 26.9367 17.3623L26.9789 17.4842L27.0492 17.5592L27.0562 17.6529H27.1336L27.1547 17.7748L27.2812 17.7654L27.3516 17.6998C27.4167 17.6569 27.4724 17.5923 27.5133 17.5123C27.5203 17.4654 27.5344 17.3248 27.6047 17.3529C27.675 17.3811 27.6258 17.1467 27.6258 17.1467C27.6258 17.1467 27.5273 17.0529 27.5344 17.0061C27.5414 16.9592 27.4359 16.8654 27.443 16.8186C27.45 16.7904 27.3516 16.7061 27.3586 16.6686C27.3656 16.6311 27.3094 16.5279 27.3094 16.5279L27.2109 16.4061L27.1969 16.3123H27.1125L26.9438 16.0311L26.9508 15.9561H26.9016V15.8436L26.8523 15.8061H26.782L26.6203 15.5717L26.6062 15.4686H26.5359L26.55 15.2717C26.5992 15.1779 26.5711 15.0186 26.5711 15.0186C26.5711 15.0186 26.4727 15.0842 26.4234 15.0561C26.3742 15.0279 26.4445 14.9623 26.4445 14.9623V14.8873L26.4023 14.8311C26.4023 14.8311 26.2828 14.8498 26.2758 14.8217L26.2477 14.6717L26.2406 14.5123L26.1914 14.4842L26.1844 14.4186L26.107 14.4279V14.3154L26.0648 14.2967L26.0227 14.2686L26.0156 14.1561L25.8609 14.1467L25.8117 14.0529L25.7555 13.9404L25.5797 13.9217L25.5375 13.8654L25.4672 13.8467L25.418 13.8186L25.3969 13.8654H25.2563V13.9311C25.1859 13.9779 24.9047 13.9311 24.9047 13.9686L24.8906 13.9592ZM25.6289 13.7061C25.6148 13.6404 25.7695 13.5654 25.8047 13.6217C25.8398 13.6779 25.9383 13.6873 25.9453 13.9779C25.9523 14.0717 25.8258 13.8748 25.8258 13.8748L25.7203 13.8279C25.6641 13.8092 25.6359 13.7623 25.6289 13.7154V13.7061ZM23.5688 13.8279L23.5336 13.7998L23.5617 13.7154L23.5969 13.7436L23.5688 13.8279ZM23.2102 12.8904L23.1187 12.7686V12.6748L23.0906 12.6279L23.0625 12.4967L22.9711 12.4592L22.8797 12.5061L22.7812 12.5904L22.6758 12.6092L22.6195 12.7029L22.8445 12.7217L22.8867 12.8154L23.0484 12.8342L23.1539 12.9748C23.2453 13.0217 23.2664 12.9561 23.2102 12.8904ZM23.1961 12.4217C23.182 12.3467 23.0906 12.5342 23.182 12.5717C23.2734 12.6092 23.3648 12.5717 23.3648 12.5717L23.3859 12.5154L23.7375 12.5248C23.7656 12.4873 23.7797 12.4311 23.7797 12.4311C23.7797 12.4311 23.8641 12.3936 23.8992 12.4123C23.9344 12.4311 23.8992 12.2811 23.8711 12.2998C23.8359 12.3186 23.7656 12.2998 23.7656 12.2998H23.6391C23.632 12.2436 23.5195 12.2717 23.5125 12.2998C23.5055 12.3467 23.4633 12.3561 23.4633 12.3561L23.3016 12.3748C23.2875 12.4311 23.2031 12.4686 23.1961 12.4311V12.4217ZM22.5 14.0342C22.6055 14.0811 22.6477 14.0342 22.6547 14.0061C22.6617 13.9686 22.6688 13.9592 22.7109 13.9498C22.7531 13.9404 22.7039 13.8279 22.6617 13.8373C22.6195 13.8373 22.5773 13.8186 22.5703 13.7717C22.5633 13.7154 22.493 13.5936 22.4859 13.6873C22.4789 13.7811 22.4367 13.7811 22.4438 13.8561C22.4508 13.9217 22.4719 14.0154 22.5 14.0342ZM21.6914 14.1373C21.6914 14.0998 21.832 14.0998 21.8531 14.1279C21.8742 14.1561 21.8602 14.2029 21.9234 14.2029C21.9867 14.2029 21.9586 14.2592 21.9516 14.2967C21.9516 14.3154 21.8813 14.3061 21.8672 14.2779C21.8672 14.2498 21.7547 14.2404 21.7547 14.2404C21.7547 14.2404 21.6984 14.1842 21.6914 14.1373ZM24.082 12.1029L24.0258 12.1592L23.9906 12.1123L23.9555 12.1592L24.0047 12.2248L24.0188 12.2436L24.0328 12.2248L24.1031 12.1498L24.082 12.1029ZM23.6953 11.9342L23.6461 11.8967L23.625 11.9436L23.6812 11.9904H23.7023L23.7797 11.9248L23.7586 11.8779L23.6953 11.9342ZM23.4633 13.8842H23.4563L23.3859 13.8748V13.9311H23.4422L23.4844 14.0248L23.5195 13.9967L23.4703 13.9029L23.4633 13.8842ZM21.143 16.5279L21.15 16.6311H21.2555C21.2977 16.6311 21.2203 16.5654 21.2203 16.5654C21.2203 16.5654 21.1359 16.5748 21.15 16.5279H21.143ZM21.2836 16.5279L21.3047 16.4904L21.3469 16.5373L21.3188 16.5748L21.2836 16.5279ZM20.0039 14.7561L20.032 14.7186L20.0742 14.7748L20.0461 14.8123L20.0039 14.7561ZM22.043 26.9717L21.9727 26.9248L21.9516 26.9717L21.9937 26.9998L21.9797 27.0186L22.0078 27.0654L22.043 27.0186L22.0641 26.9904L22.043 26.9717ZM21.4945 26.2873L21.4664 26.2404L21.4242 26.2873L21.4031 26.3154L21.4312 26.3342L21.4805 26.3811L21.5016 26.3342L21.4734 26.3061L21.4945 26.2873ZM26.7117 24.4873C26.7047 24.4404 26.6625 24.4217 26.6555 24.4123L26.6414 24.4686L26.6555 24.4779L26.6625 24.5248L26.6555 24.5436L26.6836 24.5811C26.7117 24.5529 26.7187 24.5154 26.7117 24.4873ZM26.782 24.2998H26.7117V24.2154L26.782 24.2342V24.2998ZM28.3992 23.5686C28.4344 23.5404 28.4695 23.4936 28.4695 23.6061C28.4625 23.7092 28.4273 23.6717 28.3992 23.7092C28.3781 23.7467 28.357 23.6061 28.3992 23.5686ZM28.7578 23.1654C28.7577 23.1623 28.7577 23.1592 28.7578 23.1561C28.757 23.133 28.7522 23.1106 28.7437 23.0904L28.7086 23.1186L28.7156 23.1561C28.7156 23.1748 28.7156 23.1936 28.7297 23.2029C28.7367 23.2123 28.7437 23.2123 28.7578 23.2029L28.7508 23.1561L28.7578 23.1654ZM28.6664 23.2123L28.6945 23.3248L28.7297 23.3061C28.7212 23.2691 28.7142 23.2315 28.7086 23.1936L28.6664 23.2123ZM28.5117 23.4373H28.4695C28.4695 23.4748 28.4695 23.5311 28.5047 23.5311L28.5188 23.4842L28.5117 23.4373ZM28.3289 22.3123C28.328 22.3017 28.3249 22.2917 28.3199 22.2834C28.3149 22.2752 28.3083 22.2689 28.3008 22.2654C28.2727 22.2467 28.2234 22.2748 28.1953 22.3029L28.2164 22.3498C28.2445 22.3217 28.2797 22.3123 28.2867 22.3123L28.3289 22.3029V22.3123ZM26.3813 19.2748C26.3531 19.3123 26.2898 19.3311 26.2898 19.3311L26.2688 19.4248L26.2406 19.4717V19.5654C26.2406 19.6311 26.1703 19.6686 26.1703 19.6686L26.1422 19.7154H25.9523C25.882 19.6779 25.9312 19.5654 25.9734 19.5748C26.0156 19.5842 25.9664 19.4154 25.9664 19.4154L26.0227 19.4061C26.0227 19.4061 26.0227 19.2373 26.0508 19.2373C26.0719 19.2373 26.0437 19.1811 26.0156 19.1436C25.9875 19.1154 25.9453 19.0217 25.9242 19.0311H25.7836L25.7625 19.0873L25.6852 19.1061L25.6781 19.1998C25.6359 19.2748 25.4672 19.4154 25.5375 19.1811L25.5656 19.1154V19.0311H25.4391C25.4391 19.0311 25.3687 18.9936 25.3687 18.9561V18.8717L25.2211 18.6561L25.0453 18.6279L25.0312 18.5811L24.9258 18.5623C24.7992 18.4686 24.6867 18.5529 24.7148 18.6936C24.7289 18.8342 24.7641 18.8904 24.6938 18.8904C24.6234 18.8904 24.6094 18.8154 24.6094 18.8154C24.6094 18.8154 24.5531 18.7873 24.5531 18.8248C24.5531 18.8623 24.532 18.9373 24.5531 18.9748C24.5742 19.0123 24.525 19.0686 24.5039 19.0404C24.4828 19.0123 24.4336 18.9279 24.4406 18.8998C24.4547 18.8717 24.3422 18.6936 24.4547 18.6654C24.5672 18.6373 24.4547 18.5529 24.4898 18.5342L24.5461 18.4967H24.6023L24.6375 18.4592L24.5461 18.4404L24.4898 18.4311L24.3844 18.4217C24.3255 18.4687 24.2807 18.5417 24.2578 18.6279C24.2016 18.7686 24.068 18.5717 24.1172 18.4967C24.1664 18.4217 23.9625 18.4873 23.9273 18.5248C23.8922 18.5623 23.7867 18.5436 23.7867 18.5436C23.7656 18.6279 23.6672 18.5342 23.6953 18.4779C23.7234 18.4217 23.7234 18.3842 23.7234 18.3842L23.6883 18.3654L23.6461 18.4779C23.5547 18.4779 23.5266 18.5529 23.5406 18.5998C23.5617 18.6467 23.5125 18.5904 23.4984 18.6561C23.4914 18.7217 23.5125 18.7217 23.5477 18.7498C23.5898 18.7779 23.5266 18.7779 23.5547 18.8248C23.5828 18.8717 23.6672 18.8248 23.625 18.8904C23.5687 18.9561 23.4773 18.9279 23.4773 18.9279C23.4703 19.0217 23.3367 18.9936 23.3227 18.9654L23.2031 18.7686L23.0625 18.7592C23.0555 18.6279 23.1328 18.6936 23.1609 18.5904C23.1891 18.4873 23.2031 18.3092 23.2031 18.3092C23.2031 18.3092 23.0906 18.3092 23.0836 18.3467C23.0766 18.3936 23.0063 18.4311 23.0063 18.4311C23.0063 18.4311 22.95 18.4592 22.9711 18.4967C22.9922 18.5342 22.9289 18.5529 22.9289 18.5529C22.9289 18.5529 22.9359 18.6092 22.9219 18.6373C22.8656 18.7123 22.725 18.6373 22.7039 18.6186L22.6195 18.5717L22.5352 18.4967L22.4367 18.5529L22.4086 18.5904H22.3031L22.2961 18.7029L22.4859 18.7311L22.5 18.9654L22.4227 18.9279H22.3734L22.3523 18.8717H22.3102V19.0686L22.3523 19.1154L22.3875 19.1623L22.4578 19.1717L22.4719 19.2936H22.6477L22.6687 19.3498H22.7742L22.9781 19.6311L22.9641 19.7248L22.9289 19.7436C22.943 19.8092 22.8375 19.7717 22.8375 19.7717V19.8279L22.8867 19.8373L22.9359 19.8748L23.0063 19.7154C23.0766 19.6498 23.1187 19.7436 23.1258 19.8092C23.1258 19.8561 23.0906 19.8467 23.0906 19.8467V19.9873L23.1328 20.0061C23.2031 20.1186 23.1047 20.1842 23.1047 20.1842L23.0836 20.2779C23.0625 20.3623 22.9852 20.3436 22.9852 20.3436L22.957 20.3998L22.8727 20.4279L23.0414 20.4561C23.0555 20.3811 23.0977 20.3623 23.1117 20.3998C23.1398 20.4373 23.1398 20.5029 23.1398 20.5029L23.182 20.5123L23.175 20.6154L23.2172 20.6342V20.9436L23.2664 21.0186C23.3508 20.9717 23.3508 21.0467 23.3086 21.0842C23.2664 21.1217 23.2945 21.2904 23.2945 21.2904L23.2594 21.3373V21.4123L23.2172 21.4498V21.5623C23.1469 21.5154 23.0625 21.5342 23.0414 21.5623C22.9711 21.5061 22.8445 21.5248 22.8445 21.5623C22.8867 21.6467 22.7953 21.6561 22.7953 21.6561L22.7461 21.7404C22.7812 21.8342 22.7109 21.8436 22.7109 21.8436V22.0311L22.6266 22.1248V22.3779C22.6266 22.4436 22.7391 22.4529 22.7602 22.4154C22.7813 22.3779 22.8656 22.4904 22.8656 22.4904H22.9289L22.943 22.3217L22.9008 22.2936V22.0123L22.9711 21.9186C23.0555 21.8717 23.0273 22.1529 23.0273 22.1811C23.0273 22.2936 23.0695 22.2748 23.0977 22.2561C23.168 22.2186 23.1188 22.3686 23.0625 22.3498C23.0062 22.3498 23.0414 22.4436 23.0414 22.4436L23.0766 22.4717L23.0063 22.5373L22.957 22.6217L22.8867 22.5936L22.8023 22.5842L22.7742 22.5186L22.725 22.5092L22.718 22.6404L22.6828 22.6967L22.5984 22.8092C22.7109 22.8092 22.5844 22.9123 22.5562 22.9123C22.6195 22.9404 22.5492 23.0248 22.3875 22.9592V23.0248L22.3313 23.0342L22.3805 23.1186H22.4367L22.4156 23.2873C22.4156 23.4092 22.1836 23.3248 22.1625 23.2873V23.4748H22.1133L22.1203 23.5873V23.7467L22.1906 23.7279V23.7936L22.3805 23.8029L22.6547 23.4186L22.8164 23.3717C22.8305 23.2779 22.9008 23.3904 22.9008 23.3904C22.9711 23.3811 22.9852 23.4467 22.9852 23.4467L23.0766 23.4654C23.1469 23.4936 23.1047 23.5029 23.1117 23.5404C23.1117 23.5967 23.1539 23.5779 23.1539 23.5779L23.168 23.4561L23.2102 23.4654L23.168 23.3998L23.0906 23.3529L23.0063 23.3061C22.95 23.2029 23.0203 23.2123 23.0766 23.2311H23.168C23.168 23.2311 23.2734 23.4186 23.2734 23.4654C23.2734 23.5123 23.3227 23.5217 23.3227 23.5217H23.3859L23.407 23.5779H23.4703L23.4914 23.6342H23.618V23.5498L23.5055 23.5217L23.4984 23.4279L23.4141 23.3998C23.3859 23.2404 23.4352 23.1936 23.4703 23.2686H23.5125L23.4984 23.1373L23.5477 23.1186L23.5336 22.9123L23.4914 22.8936V22.8279L23.6672 22.8373C23.6531 22.7154 23.6672 22.6592 23.6672 22.6592H23.7234V22.7061L23.9414 22.7342L24.0961 22.4998C24.0891 22.4811 24.1102 22.4717 24.0961 22.4529C24.068 22.4248 24.0398 22.4529 24.0047 22.4248C23.9695 22.3967 24.0047 22.2373 24.0047 22.1904C23.9906 22.1529 24.1172 22.0967 24.0961 22.1904C24.075 22.2654 24.0961 22.3123 24.0961 22.3123C24.1875 22.1904 24.2648 22.3123 24.2578 22.3498C24.2578 22.3779 24.307 22.4061 24.3422 22.3779C24.3773 22.3498 24.4195 22.4623 24.4125 22.5186C24.3914 22.5748 24.2719 22.5654 24.2578 22.5092C24.2578 22.4529 24.2297 22.4717 24.2156 22.4998C24.2016 22.5279 24.1453 22.5467 24.1031 22.5186C24.0997 22.5131 24.0973 22.5067 24.0961 22.4998L23.9414 22.7342H23.9484C24.0328 22.7998 23.9906 22.8842 23.9625 22.9029C23.9344 22.9217 23.8922 22.9217 23.8922 22.9217L23.8711 22.9592L23.6883 22.9779L23.6742 23.0717C23.5898 23.0623 23.5547 23.1936 23.5758 23.2592C23.5969 23.3248 23.5758 23.3811 23.5758 23.3811L23.6461 23.4279L23.7516 23.3904C23.7656 23.2967 23.8219 23.2779 23.8781 23.2217C23.9344 23.1654 24.0258 23.3154 23.9977 23.3998C23.9695 23.4748 23.9695 23.5029 23.9695 23.5029L23.9766 23.5967L23.9062 23.6248L23.85 23.6623V23.7092H23.6531L23.625 23.7561L23.5336 23.7654L23.5055 23.8311H23.4352C23.4352 23.8311 23.3367 23.9061 23.3789 23.9811C23.4211 24.0561 23.2031 24.0467 23.1539 23.9436C23.1398 24.0373 23.0625 23.9436 23.0625 23.9436L22.9852 23.9248L22.9781 23.7842C22.9641 23.6904 22.8305 23.6904 22.8375 23.7561C22.8375 23.8217 22.5844 23.7842 22.5844 23.7842L22.5 23.8311L22.4227 23.8967L22.4156 23.9436L22.2891 23.9623L22.2328 23.9998L22.2117 23.9436H22.1555L22.0992 24.0373C21.9586 24.0561 21.818 24.1686 21.825 24.2248C21.8391 24.2623 21.7688 24.3186 21.7688 24.3186L21.7055 24.3373L21.6633 24.4311L21.5789 24.4592L21.5648 24.6654L21.5227 24.7029V24.7873L21.4734 24.8061V24.8529H21.4031L21.4453 25.0029L21.5016 25.0404C21.6 25.0592 21.5578 25.2279 21.5578 25.2279H21.6141L21.6422 25.3311L21.6984 25.4904C21.7195 25.6029 21.7828 25.5748 21.8109 25.5654C21.8391 25.5561 21.8672 25.6779 21.8672 25.6779L22.1484 25.6873C22.1484 25.6873 22.1344 25.7248 22.1836 25.7436C22.2328 25.7623 22.5563 25.7811 22.5703 25.7529C22.5563 25.6686 22.7461 25.6498 22.8234 25.7248C22.8938 25.7998 23.0063 25.7529 23.0063 25.7529L23.1117 25.9217L23.182 26.1373L23.3016 26.1842L23.3859 26.2123L23.4141 26.3717H23.4773L23.4984 26.4842C23.5688 26.5592 23.4773 26.7186 23.4773 26.7186V26.9342L23.5336 26.9717L23.5266 27.0467L23.618 27.1686H23.7234L23.9836 27.5529L24.1945 27.6467L24.2297 27.7967L24.2859 27.7873L24.3281 27.7404L24.4969 27.7311L24.5813 27.6186L24.6727 27.5998L25.4461 26.7186L25.3758 26.6623V26.4561C25.5094 26.3342 25.5164 26.1092 25.3969 26.0904C25.3055 26.0811 25.3477 25.9498 25.432 25.9311L25.4812 25.9029V25.8186L25.643 25.6217V25.4717L25.2914 25.0779C25.1367 25.0029 25.2914 24.5436 25.3969 24.5529C25.5023 24.5623 25.3898 23.8592 25.3898 23.8592L25.3336 23.8217L25.3477 23.5873H25.2703L25.1438 23.8123L25.1086 23.9623C25.0945 24.1592 24.6586 24.1217 24.6375 24.0936C24.6164 24.0654 24.4688 23.9811 24.4688 23.9811C24.4688 23.9811 24.3563 23.8592 24.3352 23.8873C24.3141 23.9342 24.2156 23.8498 24.2156 23.8779C24.2156 23.9061 24.1242 23.8029 24.1242 23.8029L23.9836 23.7373L24.0891 23.7092L24.068 23.5967L24.2508 23.7186C24.2719 23.7561 24.3633 23.7467 24.3633 23.7467L24.3914 23.7936C24.3914 23.7936 24.4477 23.7936 24.4828 23.8404C24.518 23.9061 24.7008 23.8592 24.7008 23.8592L24.75 23.9154L24.8273 23.9529H25.0453L25.0523 23.7748L25.0945 23.7186V23.6061L25.1367 23.5498V23.4561L25.1789 23.4373L25.1859 23.2311L25.2211 23.2217V22.7623L25.1156 22.6311C25.1086 22.6779 24.9961 22.6779 24.9961 22.6779C24.9961 22.6779 24.968 22.7436 24.9469 22.7436C24.9258 22.7436 24.975 22.8373 24.9609 22.8842C24.9469 22.9404 24.8906 22.9404 24.8906 22.9404L24.7852 22.9779L24.757 23.0248H24.6445L24.6305 22.9029L24.757 22.8561L24.8273 22.8092L24.8625 22.7154C24.8695 22.6217 24.9539 22.6311 24.9539 22.6311C24.9539 22.6311 25.1156 22.4436 25.1227 22.3686C25.1297 22.2748 25.1859 22.0404 25.2844 22.0404H25.4672C25.5375 22.0029 25.5164 21.8811 25.5164 21.8811L25.6078 21.8623L25.6219 21.9279C25.6219 21.9279 25.7484 21.9467 25.7625 21.9279C25.7766 21.8904 25.8047 21.8342 25.8328 21.8529C25.875 21.8811 25.9875 21.7873 25.9875 21.7873C25.9875 21.7217 26.1703 21.7498 26.1703 21.7498L26.1914 21.6561C26.1914 21.6561 26.0719 21.4404 26.0508 21.4404C26.0297 21.4404 25.9102 21.3092 25.9031 21.3561C25.7906 21.3186 25.7977 21.1123 25.7977 21.1123L25.7555 20.9811C25.7555 20.9061 25.65 20.7467 25.6289 20.7654C25.6128 20.7531 25.5995 20.7353 25.5902 20.7139C25.5809 20.6925 25.5761 20.6683 25.5761 20.6436C25.5761 20.6188 25.5809 20.5946 25.5902 20.5732C25.5995 20.5518 25.6128 20.534 25.6289 20.5217C25.657 20.5217 25.7273 20.3811 25.7273 20.3811L25.7625 20.2498L25.882 20.2029L25.8961 20.0811L25.8258 20.0717C25.8258 20.0717 25.8961 19.8936 25.9383 19.8936C25.9805 19.8936 26.2055 19.8936 26.2195 19.8748C26.2477 19.8561 26.2898 19.7061 26.2898 19.6873C26.2898 19.6498 26.3461 19.6404 26.3602 19.6311C26.3883 19.6311 26.4305 19.5467 26.4516 19.5092C26.4656 19.4717 26.4164 19.2279 26.3813 19.2748Z" fill="white"/>
<path d="M22.5 22.6874C22.507 22.6874 22.5211 22.7342 22.5422 22.7249C22.5633 22.7249 22.5773 22.7811 22.5492 22.7811C22.5352 22.7811 22.5352 22.8092 22.5352 22.828C22.5352 22.8374 22.5352 22.8749 22.5141 22.903C22.5 22.9217 22.4859 22.903 22.4648 22.8936C22.4437 22.8749 22.4297 22.8749 22.4016 22.8749C22.3805 22.8749 22.4016 22.9311 22.4016 22.9311C22.4016 22.9311 22.2891 22.9311 22.3102 22.903C22.3312 22.8842 22.3523 22.8749 22.3383 22.8655C22.3242 22.8467 22.3383 22.8374 22.3383 22.8092C22.3383 22.7811 22.3875 22.7905 22.3734 22.7717C22.3594 22.753 22.3734 22.6686 22.4016 22.7155L22.4156 22.6686C22.4016 22.6405 22.4156 22.6405 22.3805 22.6217C22.3453 22.603 22.3734 22.528 22.3734 22.528V22.4624C22.3875 22.3967 22.493 22.3874 22.5 22.453V22.5561L22.5352 22.5749C22.5352 22.5749 22.5281 22.6124 22.5 22.6124C22.4719 22.6124 22.5 22.6311 22.4859 22.6592L22.5 22.6967V22.6874ZM22.1484 22.7624C22.1695 22.7249 22.2047 22.5374 22.2469 22.5936C22.2891 22.6499 22.3172 22.5936 22.3172 22.5936C22.3172 22.5936 22.3383 22.6217 22.3242 22.6874C22.3172 22.7342 22.3031 22.7905 22.282 22.7999C22.2539 22.7999 22.2328 22.828 22.1977 22.8374C22.1695 22.8374 22.1555 22.7624 22.1555 22.7624H22.1484Z" fill="white"/>
</g>
<defs>
<clipPath id="clip0_45_21383">
<rect width="45" height="45" fill="white"/>
</clipPath>
</defs>
</svg>
