<svg width="45" height="45" viewBox="0 0 45 45" fill="none" xmlns="http://www.w3.org/2000/svg">
<g clip-path="url(#clip0_45_21396)">
<path fill-rule="evenodd" clip-rule="evenodd" d="M0 0H64.125V3.46875H0V0ZM0 6.92813H64.125V10.3969H0V6.92813ZM0 13.8469H64.125V17.3156H0V13.8469ZM0 20.7656H64.125V24.2344H0V20.7656ZM0 27.7031H64.125V31.1531H0V27.7031ZM0 34.6125H64.125V38.0813H0V34.6125ZM0 41.5312H64.125V45H0V41.5312Z" fill="#BD3D44"/>
<path fill-rule="evenodd" clip-rule="evenodd" d="M0 3.46875H64.125V6.92813H0V3.46875ZM0 10.3875H64.125V13.8469H0V10.3875ZM0 17.3063H64.125V20.775H0V17.3063ZM0 24.2344H64.125V27.7031H0V24.2344ZM0 31.1531H64.125V34.6219H0V31.1531ZM0 38.0719H64.125V41.5406H0V38.0719Z" fill="white"/>
<path fill-rule="evenodd" clip-rule="evenodd" d="M0 0H30V24H0V0Z" fill="#192F5D"/>
<path fill-rule="evenodd" clip-rule="evenodd" d="M2.18844 1L2.47501 1.97003H3.36845L2.64359 2.56336L2.92173 3.53339L2.18844 2.93065L1.46358 3.52397L1.73329 2.56336L1 1.97003H1.91872L2.18844 1ZM7.31306 1L7.59121 1.97003H8.5015L7.76821 2.56336L8.03793 3.53339L7.31306 2.93065L6.57977 3.52397L6.85792 2.56336L6.13305 1.97003H7.02649L7.31306 1ZM12.4377 1L12.7158 1.97003H13.6177L12.8928 2.56336L13.171 3.53339L12.4377 2.93065L11.7044 3.52397L11.9825 2.56336L11.2492 1.97003H12.1595L12.4377 1ZM17.5623 1L17.8405 1.97003H18.7508L18.0175 2.56336L18.2956 3.53339L17.5623 2.93065L16.829 3.52397L17.1156 2.56336L16.3739 1.97003H17.2757L17.5623 1ZM22.6869 1L22.9651 1.97003H23.8669L23.1421 2.56336L23.4202 3.53339L22.6869 2.93065L21.9536 3.52397L22.2318 2.56336L21.5069 1.97003H22.4088L22.6869 1ZM27.8116 1L28.0897 1.97003H29L28.2583 2.56336L28.5449 3.53339L27.8116 2.93065L27.0783 3.52397L27.3648 2.56336L26.6231 1.97003H27.5334L27.8116 1ZM4.75075 3.44863L5.0289 4.40925H5.94762L5.21433 4.99315L5.48405 5.96318L4.76761 5.36986L4.03432 5.96318L4.29561 4.99315L3.5876 4.40925H4.48946L4.75075 3.44863ZM9.87538 3.44863L10.162 4.40925H11.0638L10.3221 4.99315L10.6087 5.96318L9.87538 5.36986L9.14208 5.96318L9.42023 4.99315L8.68693 4.40925H9.59723L9.87538 3.44863ZM15 3.44863L15.2781 4.40925H16.1884L15.4551 4.99315L15.7333 5.96318L15 5.36986L14.2667 5.96318L14.5449 4.99315L13.82 4.40925H14.7134L15 3.44863ZM20.1246 3.44863L20.4112 4.40925H21.3131L20.5713 4.99315L20.8579 5.96318L20.1246 5.36986L19.3998 5.96318L19.6695 4.99315L18.9362 4.40925H19.8549L20.1246 3.44863ZM25.2492 3.44863L25.5274 4.40925H26.4377L25.7044 4.99315L25.9825 5.96318L25.2492 5.36986L24.516 5.96318L24.7941 4.99315L24.0692 4.40925H24.9711L25.2492 3.44863ZM2.18844 5.85959L2.47501 6.83904H3.36845L2.64359 7.43236L2.92173 8.39298L2.18844 7.79966L1.46358 8.39298L1.73329 7.43236L1 6.83904H1.91872L2.18844 5.85959ZM7.31306 5.85959L7.59121 6.83904H8.5015L7.76821 7.43236L8.03793 8.39298L7.31306 7.79966L6.57977 8.39298L6.85792 7.42295L6.13305 6.82962H7.02649L7.31306 5.85959ZM12.4377 5.85959L12.7158 6.82962H13.6177L12.8928 7.42295L13.171 8.38356L12.4377 7.79024L11.7044 8.38356L11.9825 7.41353L11.2492 6.82021H12.1595L12.4377 5.85959ZM17.5623 5.85959L17.8405 6.82962H18.7508L18.0175 7.42295L18.2956 8.38356L17.5623 7.79024L16.829 8.38356L17.1156 7.41353L16.3739 6.82021H17.2757L17.5623 5.85959ZM22.6869 5.85959L22.9651 6.82962H23.8669L23.1421 7.42295L23.4202 8.38356L22.6869 7.79024L21.9536 8.38356L22.2318 7.41353L21.5069 6.82021H22.4088L22.6869 5.85959ZM27.8116 5.85959L28.0897 6.82962H29L28.2583 7.42295L28.5449 8.38356L27.8116 7.79024L27.0783 8.38356L27.3648 7.41353L26.6231 6.82021H27.5334L27.8116 5.85959ZM4.75075 8.30822L5.0289 9.26884H5.94762L5.21433 9.86216L5.49247 10.8322L4.75918 10.2295L4.02589 10.8228L4.30403 9.86216L3.57917 9.26884H4.48104L4.75075 8.30822ZM9.87538 8.30822L10.162 9.26884H11.0638L10.3221 9.86216L10.6087 10.8322L9.87538 10.2295L9.14208 10.8228L9.42023 9.86216L8.68693 9.26884H9.59723L9.87538 8.30822ZM15 8.30822L15.2781 9.26884H16.1884L15.4551 9.86216L15.7333 10.8322L15 10.2295L14.2667 10.8228L14.5449 9.86216L13.82 9.26884H14.7134L15 8.30822ZM20.1246 8.30822L20.4112 9.26884H21.3131L20.5798 9.86216L20.8579 10.8322L20.1246 10.2295L19.3998 10.8228L19.6695 9.86216L18.9362 9.26884H19.8549L20.1246 8.30822ZM25.2492 8.30822L25.5274 9.26884H26.4377L25.7044 9.86216L25.9825 10.8322L25.2492 10.2295L24.516 10.8228L24.7941 9.86216L24.0692 9.26884H24.9711L25.2492 8.30822ZM2.18844 10.7474L2.47501 11.708H3.36845L2.64359 12.3014L2.92173 13.2714L2.18844 12.6687L1.46358 13.262L1.73329 12.3014L1 11.708H1.91872L2.18844 10.7474ZM7.31306 10.7474L7.59121 11.708H8.5015L7.76821 12.3014L8.03793 13.262L7.31306 12.6687L6.57977 13.262L6.85792 12.3014L6.13305 11.708H7.02649L7.31306 10.7474ZM12.4377 10.7474L12.7158 11.708H13.6177L12.8928 12.3014L13.171 13.2714L12.4377 12.6687L11.7044 13.262L11.9825 12.3014L11.2492 11.708H12.1595L12.4377 10.7474ZM17.5623 10.7474L17.8405 11.708H18.7508L18.0175 12.3014L18.2956 13.2714L17.5623 12.6687L16.829 13.262L17.1156 12.3014L16.3739 11.708H17.2757L17.5623 10.7474ZM22.6869 10.7474L22.9651 11.708H23.8669L23.1421 12.3014L23.4202 13.2714L22.6869 12.6687L21.9536 13.262L22.2318 12.3014L21.5069 11.708H22.4088L22.6869 10.7474ZM27.8116 10.7474L28.0897 11.708H29L28.2583 12.3014L28.5449 13.2714L27.8116 12.6687L27.0783 13.262L27.3564 12.3014L26.6147 11.708H27.525L27.8116 10.7474ZM4.75075 13.1772L5.0289 14.1473H5.94762L5.21433 14.7312L5.49247 15.7012L4.75918 15.0985L4.02589 15.7012L4.30403 14.7312L3.57917 14.1378H4.48104L4.75075 13.1772ZM9.87538 13.1772L10.162 14.1473H11.0638L10.3221 14.7312L10.6087 15.7012L9.87538 15.0985L9.14208 15.7012L9.42023 14.7312L8.68693 14.1378H9.59723L9.87538 13.1772ZM15 13.1772L15.2781 14.1473H16.1884L15.4551 14.7312L15.7333 15.7012L15 15.0985L14.2667 15.7012L14.5449 14.7312L13.82 14.1378H14.7134L15 13.1772ZM20.1246 13.1772L20.4112 14.1473H21.3131L20.5798 14.7312L20.8579 15.7012L20.1246 15.0985L19.3998 15.7012L19.6695 14.7312L18.9362 14.1378H19.8549L20.1246 13.1772ZM25.2492 13.1772L25.5274 14.1473H26.4377L25.7044 14.7312L25.9825 15.7012L25.2492 15.0985L24.516 15.7012L24.7941 14.7312L24.0692 14.1378H24.9711L25.2492 13.1772ZM2.18844 15.607L2.47501 16.5771H3.36845L2.64359 17.1704L2.92173 18.1216L2.18844 17.5377L1.46358 18.1216L1.73329 17.161L1 16.5676H1.91872L2.18844 15.607ZM7.31306 15.607L7.59121 16.5771H8.5015L7.76821 17.1704L8.04636 18.1216L7.31306 17.5377L6.57977 18.1216L6.86635 17.161L6.13305 16.5676H7.02649L7.31306 15.607ZM12.4377 15.607L12.7158 16.5771H13.6177L12.8928 17.1704L13.171 18.1216L12.4377 17.5377L11.7044 18.1216L11.9825 17.161L11.2492 16.5676H12.1595L12.4377 15.607ZM17.5623 15.607L17.8405 16.5771H18.7508L18.0175 17.1704L18.2956 18.1216L17.5623 17.5377L16.829 18.1216L17.1156 17.161L16.3739 16.5676H17.2757L17.5623 15.607ZM22.6869 15.607L22.9651 16.5771H23.8669L23.1421 17.1704L23.4202 18.1216L22.6869 17.5377L21.9536 18.1216L22.2318 17.161L21.5069 16.5676H22.4088L22.6869 15.607ZM27.8116 15.607L28.0897 16.5771H29L28.2583 17.1704L28.5449 18.1216L27.8116 17.5377L27.0783 18.1216L27.3648 17.161L26.6231 16.5676H27.5334L27.8116 15.607ZM4.75075 18.0462L5.0289 19.0068H5.94762L5.21433 19.6002L5.49247 20.5702L4.75918 19.9675L4.02589 20.5608L4.30403 19.6002L3.57917 19.0068H4.48104L4.75075 18.0462ZM9.87538 18.0462L10.162 19.0068H11.0638L10.3221 19.6002L10.6087 20.5702L9.87538 19.9675L9.14208 20.5608L9.42023 19.6002L8.68693 19.0068H9.59723L9.87538 18.0462ZM15 18.0462L15.2781 19.0068H16.1884L15.4551 19.6002L15.7333 20.5702L15 19.9675L14.2667 20.5608L14.5449 19.6002L13.82 19.0068H14.7134L15 18.0462ZM20.1246 18.0462L20.4112 19.0068H21.3131L20.5798 19.6002L20.8579 20.5702L20.1246 19.9675L19.3998 20.5608L19.6695 19.6002L18.9362 19.0068H19.8549L20.1246 18.0462ZM25.2492 18.0462L25.5274 19.0068H26.4377L25.7044 19.6002L25.9825 20.5702L25.2492 19.9675L24.516 20.5608L24.7941 19.6002L24.0692 19.0068H24.9711L25.2492 18.0462ZM2.18844 20.4854L2.47501 21.4461H3.36845L2.64359 22.0394L2.92173 23L2.18844 22.4067L1.46358 23L1.73329 22.03L1 21.4366H1.91872L2.18844 20.4854ZM7.31306 20.4854L7.59121 21.4461H8.5015L7.76821 22.0394L8.04636 23L7.31306 22.4067L6.57977 23L6.86635 22.03L6.13305 21.4366H7.02649L7.31306 20.4854ZM12.4377 20.4854L12.7158 21.4461H13.6177L12.9097 22.0394L13.1878 23L12.4545 22.4067L11.7213 23L11.9994 22.03L11.2661 21.4366H12.1764L12.4377 20.4854ZM17.5623 20.4854L17.8405 21.4461H18.7508L18.0175 22.0394L18.2956 23L17.5623 22.4067L16.829 23L17.1156 22.03L16.3739 21.4366H17.2757L17.5623 20.4854ZM22.6869 20.4854L22.9651 21.4461H23.8669L23.1421 22.0394L23.4202 23L22.6869 22.4067L21.9536 23L22.2318 22.03L21.5069 21.4366H22.4088L22.6869 20.4854ZM27.8116 20.4854L28.0897 21.4461H29L28.2583 22.0394L28.5449 23L27.8116 22.4067L27.0783 23L27.3648 22.03L26.6231 21.4366H27.5334L27.8116 20.4854Z" fill="white"/>
</g>
<defs>
<clipPath id="clip0_45_21396">
<rect width="45" height="45" fill="white"/>
</clipPath>
</defs>
</svg>
