<svg width="45" height="45" viewBox="0 0 45 45" fill="none" xmlns="http://www.w3.org/2000/svg">
<g clip-path="url(#clip0_45_22443)">
<path d="M0 0H45V45H0V0Z" fill="#009543"/>
<path d="M0 0H45V22.5H0V0Z" fill="#D21034"/>
<path d="M0 0L21 18.4738H44.9999V26.5264H21L0 45.0002" fill="black"/>
<path fill-rule="evenodd" clip-rule="evenodd" d="M-1.80469 3.6484L1.80603 -3.64844L21.9846 14.1028H48.2788V30.8974H21.9846L1.80603 48.6486L-1.80469 41.3517L19.6249 22.5001L-1.80469 3.6484Z" fill="#FDCE12"/>
<path fill-rule="evenodd" clip-rule="evenodd" d="M-0.984375 1.98986L0.985108 -1.99023L21.5371 16.0894H45.0003V20.8577H20.4636L-0.984375 1.98986ZM20.4636 24.1421H45.0003V28.9104H21.5371L0.985108 46.99L-0.984375 43.0099L20.4636 24.1421Z" fill="black"/>
<path d="M6.04941 26.8108V29.3687C7.71915 29.3687 11.0018 27.6635 11.0018 22.1592C11.0018 16.655 7.49889 15.6318 6.45441 15.6318C5.40283 15.6318 2.16992 16.636 2.16992 21.1266C2.16992 25.6361 5.34599 26.0529 5.97125 26.0529C6.59652 26.0529 8.94126 25.295 8.67126 21.9224C8.60126 22.7455 8.30587 23.5053 7.84171 24.0559C7.37756 24.6066 6.7773 24.9095 6.15599 24.9066C4.45072 24.9066 3.38493 23.2203 3.38493 21.5529C3.38493 19.8855 4.4223 17.6497 6.21994 17.6497C8.01757 17.6497 9.33205 19.7813 9.33205 21.9224C9.33205 24.0729 8.06731 26.8013 6.04941 26.8013V26.8108Z" fill="#FDCE12"/>
<path d="M4.58008 23.4665L4.67955 23.5612C4.67955 23.5612 5.47534 21.1454 7.59983 19.4307C7.32982 19.6201 5.90877 20.5675 4.58008 23.4665Z" fill="#FDCE12"/>
<path fill-rule="evenodd" clip-rule="evenodd" d="M7.56598 19.4101C7.57301 19.4052 7.5795 19.4007 7.58545 19.3965L7.6134 19.4624C6.55488 20.3168 5.82737 21.3458 5.36453 22.1612C5.13312 22.5688 4.96793 22.923 4.86067 23.175C4.80704 23.301 4.76789 23.4015 4.7422 23.4703C4.72935 23.5047 4.71987 23.5312 4.71362 23.5491C4.71049 23.558 4.70817 23.5647 4.70665 23.5692L4.70495 23.5742L4.70455 23.5755L4.70446 23.5757L4.69036 23.6185L4.56242 23.4967L4.57894 23.4658L4.55469 23.4461C5.85797 20.6025 7.25078 19.6302 7.56598 19.4101ZM4.61701 23.4555L4.66701 23.5031C4.67313 23.4859 4.68121 23.4636 4.69131 23.4365C4.71744 23.3665 4.75706 23.2649 4.81123 23.1376C4.91957 22.8831 5.08611 22.5261 5.31921 22.1154C5.3552 22.052 5.39279 21.9873 5.43199 21.9215C5.16379 22.3581 4.88858 22.866 4.61701 23.4555Z" fill="#FDCE12"/>
<path d="M4.78428 23.0495C4.78428 23.0495 4.5427 22.3863 4.75586 22.0831C4.96902 21.7895 4.87665 22.8695 4.87665 22.8695L4.96902 22.6895C4.96902 22.6895 4.82691 21.8747 4.98323 21.7042C5.14665 21.5242 5.06849 22.4905 5.06849 22.4905L5.16797 22.32C5.16797 22.32 5.06139 21.5242 5.2177 21.3726C5.38113 21.221 5.28165 22.1305 5.28165 22.1305L5.39534 21.941C5.39534 21.941 5.31007 21.1831 5.50192 21.0031C5.69376 20.8231 5.52323 21.7231 5.52323 21.7231L5.65113 21.5337C5.65113 21.5337 5.59428 20.8421 5.75771 20.681C5.92113 20.5295 5.78613 21.3442 5.78613 21.3442L5.89981 21.1737C5.89981 21.1737 5.86429 20.5295 6.0206 20.3779C6.18402 20.2263 6.03481 20.9937 6.03481 20.9937L6.1556 20.8421C6.1556 20.8421 6.12718 20.1884 6.32613 20.0652C6.52508 19.9421 6.2906 20.6716 6.2906 20.6716L6.43271 20.52C6.43271 20.52 6.46823 19.7621 6.63876 19.6958C6.80929 19.62 6.56771 20.3589 6.56771 20.3589L6.6885 20.2263C6.6885 20.2263 6.75245 19.5821 6.93718 19.5063C7.12903 19.421 6.8235 20.0937 6.8235 20.0937L6.94429 19.9705C6.94429 19.9705 7.07929 19.3263 7.25692 19.2505C7.42745 19.1842 7.07218 19.8663 7.07218 19.8663L7.19297 19.7526C7.19297 19.7526 7.38482 19.1652 7.54824 19.1273C7.69745 19.0895 7.3635 19.6105 7.3635 19.6105L7.51271 19.4968C7.51271 19.4968 7.7614 18.8905 7.85377 19.0705C7.93903 19.26 7.4985 19.5347 7.4985 19.5347L7.3564 19.6484C7.3564 19.6484 7.88929 19.3073 7.95324 19.4779C8.01719 19.6484 7.2214 19.7621 7.2214 19.7621L7.0935 19.8758C7.0935 19.8758 7.6264 19.6863 7.56245 19.8663C7.4914 20.0463 6.96561 20.0084 6.96561 20.0084L6.84481 20.1221C6.84481 20.1221 7.37771 19.9516 7.30666 20.1221C7.23561 20.2737 6.71692 20.2642 6.71692 20.2642L6.58902 20.4063C6.58902 20.4063 7.10771 20.2168 7.02955 20.4347C6.9585 20.6431 6.36166 20.6337 6.36166 20.6337L6.21955 20.8231C6.21955 20.8231 6.76666 20.5674 6.71692 20.7663C6.67429 20.9558 6.04902 21.0505 6.04902 21.0505L5.90692 21.24C5.90692 21.24 6.49666 20.9842 6.31902 21.221C6.1485 21.4674 5.71507 21.5242 5.71507 21.5242L5.55165 21.8084C5.55165 21.8084 6.13429 21.3347 6.04902 21.6C5.97086 21.8653 5.39534 22.0453 5.39534 22.0453L5.28165 22.2347C5.28165 22.2347 5.80744 21.8274 5.7506 22.0453C5.70086 22.2821 5.13955 22.5189 5.13955 22.5189L5.04718 22.6895C5.04718 22.6895 5.66534 22.1968 5.6156 22.4526C5.55876 22.6989 4.96902 22.8789 4.96902 22.8789L4.89797 23.04C4.89797 23.04 5.46639 22.5947 5.46639 22.8126C5.4806 23.021 4.79849 23.2295 4.79849 23.2295L4.78428 23.0495Z" fill="#FDCE12"/>
</g>
<defs>
<clipPath id="clip0_45_22443">
<rect width="45" height="45" fill="white"/>
</clipPath>
</defs>
</svg>
