<svg width="45" height="45" viewBox="0 0 45 45" fill="none" xmlns="http://www.w3.org/2000/svg">
<g clip-path="url(#clip0_45_22466)">
<path d="M0 0H45V45H0V0Z" fill="#244AA5"/>
<path d="M17.7906 21.075C17.7906 21.075 17.875 21 17.9031 20.9906C17.9383 20.9906 18.0438 20.9344 18.0438 20.9344C18.0438 20.9344 18.1141 20.8875 18.1492 20.8875C18.1914 20.8875 18.2617 20.9437 18.2898 20.9906C18.3109 21.0375 18.4305 21.1219 18.4305 21.1219C18.4305 21.1219 18.5148 21.1594 18.5359 21.1219C18.55 21.0844 18.5852 21.0562 18.6273 21.0562C18.6625 21.0562 18.6695 21.0094 18.6695 20.9719C18.6695 20.9344 18.6836 20.8875 18.7117 20.8406C18.7469 20.7937 18.8031 20.7656 18.8031 20.7656C18.8031 20.7656 18.8875 20.7187 18.8945 20.6531C18.9086 20.5875 18.9859 20.5406 19.0352 20.5312C19.0844 20.5312 19.0352 20.4937 19.1617 20.5125C19.2812 20.5312 19.3023 20.475 19.3023 20.4281C19.3094 20.3812 19.3023 20.3344 19.3797 20.3344C19.457 20.3531 19.4922 20.3531 19.4922 20.2969C19.4922 20.2406 19.5625 20.2031 19.443 20.1656C19.3164 20.1187 19.3305 20.1562 19.3164 20.0719C19.3164 20.0062 19.3164 20.0156 19.2391 20.0062C19.1547 19.9969 19.1969 19.9406 19.1898 19.8844C19.1828 19.8281 19.1617 19.7906 19.1477 19.7625C19.1266 19.725 19.0844 19.725 19.0844 19.6687C19.0844 19.6125 19.0773 19.575 19.0352 19.575C18.9859 19.575 18.9648 19.575 18.9648 19.5281C18.9648 19.4719 18.9789 19.4344 19.0211 19.4344C19.0703 19.4344 19.0914 19.3781 19.0914 19.3219C19.0773 19.2656 19.0773 19.1437 19.0773 19.1437L19.1406 19.05C19.1406 19.05 19.3234 18.8531 19.3375 18.8156C19.3516 18.7781 19.4148 18.75 19.443 18.825C19.4711 18.9 19.4852 18.9187 19.5133 18.9562C19.5344 18.9937 19.6047 18.9656 19.6188 18.9281C19.6328 18.8906 19.6398 18.75 19.682 18.675C19.7242 18.6094 19.7523 18.5719 19.7594 18.5062C19.7664 18.4406 19.7945 18.3937 19.8438 18.3937C19.8859 18.3937 19.9141 18.3094 19.9141 18.2625C19.9141 18.2156 19.9422 18.1687 19.9984 18.15C20.0547 18.1406 20.0898 18.0937 20.1109 18.1687C20.132 18.2437 20.1531 18.2344 20.1883 18.2625C20.2305 18.2906 20.2867 18.3187 20.3148 18.2906C20.35 18.2531 20.3641 18.1969 20.4063 18.225C20.4484 18.2625 20.4766 18.225 20.4906 18.1594L20.5117 17.9812C20.5117 17.9812 20.5187 17.9344 20.5891 17.9344C20.6594 17.9344 20.6102 17.8781 20.6453 17.8406C20.6875 17.8031 20.6875 17.7656 20.7367 17.7844C20.7859 17.8125 20.8633 17.7562 20.8281 17.6906C20.7859 17.6344 20.7016 17.5406 20.7508 17.4656C20.8 17.3906 20.8211 17.2781 20.7719 17.2594C20.7227 17.25 20.6453 17.2687 20.6383 17.2031C20.6313 17.1281 20.6102 17.0719 20.6734 17.0625C20.7297 17.0531 20.8281 17.0531 20.8633 17.0156C20.8914 16.9781 20.9898 16.95 20.9898 16.8469C20.9898 16.7344 21.018 16.725 21.032 16.6594C21.0391 16.6031 21.0391 16.4719 20.9969 16.4156C20.9547 16.35 20.8984 16.2656 20.8914 16.2281C20.8773 16.1906 20.8422 16.1344 20.7789 16.1062C20.7227 16.0875 20.6664 16.0687 20.6664 16.0125C20.6664 15.9469 20.7086 16.0219 20.7086 15.8625C20.7086 15.7031 20.6312 15.675 20.6312 15.675L20.5117 15.5812C20.5117 15.5812 20.3008 15.5062 20.2445 15.5062C20.1883 15.5062 20.118 15.4312 20.1813 15.375C20.2516 15.3281 20.2656 15.2344 20.2445 15.1687C20.2164 15.1031 20.2023 15.0469 20.1109 15.0187C20.0195 14.9906 19.9984 14.9625 20.0406 14.8875C20.0758 14.8219 20.0898 14.7656 20.1391 14.8219C20.1812 14.8688 20.2656 14.8875 20.3289 14.85C20.3992 14.8125 20.4203 14.775 20.4555 14.8219C20.4836 14.8594 20.5258 14.8969 20.575 14.8406C20.6242 14.775 20.7156 14.7656 20.7578 14.7937C20.793 14.8312 20.8984 14.8219 20.9266 14.7937C20.9547 14.775 21.025 14.7 21.025 14.6719C21.025 14.6437 21.0672 14.5594 21.1023 14.5312C21.1445 14.4937 21.1938 14.4 21.2359 14.4C21.2781 14.4 21.2922 14.3344 21.2922 14.3062C21.2922 14.2594 21.3273 14.175 21.3344 14.1469C21.3344 14.1187 21.4187 14.0719 21.475 14.1469C21.5383 14.1937 21.6156 14.2219 21.6156 14.2219C21.6156 14.2219 21.6859 14.2406 21.7352 14.2219C21.7573 14.2036 21.7829 14.194 21.809 14.194C21.8351 14.194 21.8606 14.2036 21.8828 14.2219C21.9461 14.2781 22.0234 14.2781 22.0234 14.2781L22.0445 14.1562C22.0445 14.1187 22.0586 14.0437 22.0234 14.0156C21.9953 13.9875 21.9531 13.95 22.0164 13.8844C22.0867 13.8281 22.0867 13.8375 22.15 13.8375L22.3047 13.8469C22.3539 13.8469 22.4313 13.9125 22.4313 13.9687C22.4313 14.025 22.4664 14.0625 22.5016 14.1C22.5437 14.1281 22.593 14.1562 22.5719 14.2125C22.5648 14.2594 22.5648 14.3062 22.6141 14.2875C22.6633 14.2781 22.6773 14.3156 22.6773 14.3719C22.6773 14.4187 22.6914 14.4469 22.7477 14.4656C22.7898 14.4844 22.818 14.5312 22.818 14.5781C22.818 14.625 22.8039 14.6625 22.818 14.7094L22.8883 14.8406C22.8883 14.8406 22.9797 14.9812 22.8602 14.9062C22.7477 14.8406 22.7195 14.8125 22.6844 14.8125L22.6141 14.8594L22.5227 14.8781C22.4805 14.8781 22.4383 14.9906 22.5086 15.0094C22.5719 15.0281 22.593 15.0469 22.593 15.1219C22.593 15.1969 22.5719 15.1687 22.5367 15.2156C22.5086 15.2719 22.4805 15.2344 22.4242 15.2344C22.368 15.2344 22.3539 15.3 22.3539 15.3562C22.3539 15.4125 22.375 15.4125 22.3961 15.45C22.4242 15.5062 22.4664 15.5156 22.5086 15.4687C22.5438 15.4219 22.5789 15.3844 22.6 15.4781C22.6281 15.5719 22.6633 15.5719 22.7055 15.5719C22.7547 15.5719 22.7758 15.5719 22.818 15.5344C22.8531 15.5062 22.9023 15.5344 22.9094 15.6188C22.9234 15.6938 22.9586 15.7125 23.0008 15.7406C23.043 15.7687 23.0711 15.7875 23.0711 15.8344C23.0852 15.8906 23.1063 15.9094 23.1484 15.8812C23.1906 15.8437 23.2539 15.825 23.282 15.8719L23.3453 15.9844V16.0875L23.507 16.1625L23.5211 16.2562C23.5211 16.2844 23.5492 16.3125 23.5914 16.2937H23.7039C23.7039 16.2937 23.7602 16.2656 23.7602 16.2C23.7602 16.1437 23.7812 16.125 23.8305 16.125C23.8656 16.125 23.957 16.1719 23.9781 16.1062C24.0063 16.05 24.0766 16.0312 24.1328 16.0594L24.3438 16.1719C24.3438 16.1719 24.3227 16.1719 24.3719 16.275C24.4211 16.3781 24.5125 16.3781 24.5125 16.3781C24.5125 16.3781 24.5125 16.4719 24.5336 16.5094C24.5477 16.5469 24.625 16.5656 24.6602 16.5281C24.7023 16.4906 24.7586 16.4344 24.8078 16.4344C24.857 16.4344 24.8922 16.4344 24.8922 16.3969C24.8922 16.3594 24.843 16.3312 24.843 16.2656C24.843 16.2 24.8922 16.2094 24.8992 16.1437C24.9063 16.0875 24.9555 16.1437 24.9906 16.1813C25.0258 16.2188 25.0609 16.2562 25.0609 16.2937C25.0609 16.3406 25.1312 16.4812 25.1664 16.5C25.2086 16.5187 25.3141 16.5281 25.3492 16.4812C25.3773 16.425 25.4617 16.4062 25.4547 16.5281C25.4477 16.65 25.4266 16.6594 25.4828 16.6969C25.5391 16.7344 25.5531 16.8844 25.5039 16.9219C25.4547 16.9594 25.4336 16.9687 25.4336 17.0344C25.4336 17.1 25.4195 17.1844 25.4617 17.2219C25.5039 17.2687 25.532 17.2969 25.532 17.3344C25.532 17.3812 25.5742 17.5594 25.5742 17.5594C25.5742 17.5594 25.6023 17.7375 25.5883 17.775C25.5883 17.8219 25.5672 17.8875 25.6375 17.8781C25.7078 17.8687 25.7289 17.8687 25.7289 17.9437C25.7289 18.0187 25.757 18.0562 25.7148 18.0844C25.6727 18.1219 25.6445 18.2156 25.6867 18.2344C25.7289 18.2531 25.757 18.2906 25.7711 18.3281C25.7781 18.3656 25.8414 18.4406 25.8836 18.3937C25.9258 18.3562 25.9328 18.3375 25.968 18.3281C25.9961 18.3187 26.0242 18.2906 25.9891 18.2344C25.9609 18.1875 25.9469 18.1406 25.982 18.1031C26.0172 18.075 26.0313 17.9812 26.0313 17.9812C26.0313 17.9812 26.0805 17.8875 26.1367 17.9812C26.193 18.075 26.207 18.0375 26.2422 18.0375C26.2773 18.0375 26.2984 18.0844 26.2984 18.1312C26.2984 18.1875 26.3828 18.1781 26.3828 18.2531L26.3969 18.5344C26.3969 18.5344 26.3969 18.6375 26.4461 18.675C26.4953 18.7219 26.4883 18.7312 26.4602 18.7687C26.4391 18.825 26.4461 18.9094 26.4461 18.9562C26.4461 19.0031 26.4602 19.0031 26.425 19.05C26.3828 19.0875 26.3617 19.1437 26.3898 19.2C26.4109 19.2562 26.4039 19.2937 26.4672 19.3687C26.5375 19.4344 26.5305 19.4625 26.5305 19.5187C26.5305 19.5656 26.5938 19.6406 26.5938 19.6875C26.5938 19.7344 26.643 19.8 26.6852 19.8094C26.7273 19.8187 26.7695 19.9031 26.7695 19.9594L26.7766 20.1375C26.7766 20.1375 26.7766 20.1656 26.8187 20.1656C26.868 20.1656 26.9031 20.2406 26.9172 20.1656C26.9312 20.0719 26.9875 20.0719 27.0156 20.0437C27.0438 20.0156 27.1141 19.9875 27.1492 20.0156C27.1844 20.0437 27.2195 20.0437 27.2547 20.0437L27.4375 20.0531C27.4375 20.0531 27.4797 20.0531 27.5078 20.1281C27.5289 20.2031 27.5992 20.2969 27.5641 20.3344C27.5219 20.3812 27.5219 20.4562 27.5641 20.4562C27.6062 20.4562 27.6695 20.4562 27.6695 20.5031C27.6695 20.5594 27.6695 20.5969 27.7188 20.5687C27.7539 20.5406 27.782 20.5312 27.7961 20.5687C27.8172 20.6062 27.8453 20.6062 27.8875 20.6344C27.9297 20.6719 27.9437 20.6437 27.9719 20.6062C27.993 20.5687 28.0914 20.5312 28.0914 20.5312C28.0914 20.5312 28.218 20.4844 28.2672 20.5031L28.3867 20.5687C28.3867 20.5687 28.4148 20.6625 28.4008 20.7281C28.3867 20.7844 28.3656 20.775 28.3867 20.8687C28.4008 20.9625 28.3656 20.9625 28.3375 20.9625C28.3023 20.9437 28.2672 20.9437 28.2672 21.0281C28.2672 21.1031 28.2391 21.1219 28.2391 21.1969C28.2391 21.2719 28.2391 21.2531 28.2039 21.2906C28.1758 21.3187 28.1617 21.3656 28.2109 21.3844C28.2602 21.3844 28.2461 21.4594 28.2461 21.4969L28.2391 21.6281C28.2391 21.6281 28.2391 21.675 28.1898 21.675C28.1406 21.675 28.0844 21.675 28.0773 21.7219C28.0633 21.7687 28.007 21.8438 28.0563 21.9C28.1125 21.9469 28.0984 21.975 28.0633 21.9937C28.0352 22.0219 28.007 22.1156 28.0773 22.1437C28.1406 22.1812 28.1336 22.2094 28.0914 22.2469C28.0492 22.2844 27.9719 22.3219 27.9719 22.3781C27.9719 22.4344 27.9508 22.4344 27.9016 22.4437C27.8523 22.4531 27.8313 22.5375 27.8875 22.6312C27.9438 22.7344 27.9578 22.725 28 22.725C28.0422 22.725 28.0422 22.6312 28.0422 22.6312L28.218 22.65C28.2602 22.65 28.3164 22.65 28.3516 22.6219C28.3867 22.5844 28.4711 22.5375 28.4711 22.6219C28.4711 22.7156 28.4922 22.7156 28.5273 22.7437C28.5695 22.7906 28.5766 22.7531 28.6117 22.8187C28.6469 22.875 28.6539 22.8187 28.682 22.7531C28.7031 22.6875 28.7523 22.6219 28.7945 22.6969C28.8297 22.7812 28.8297 22.7531 28.8789 22.7531C28.9281 22.7531 28.9492 22.7906 28.9492 22.8375C28.9492 22.8844 28.9914 22.8844 29.0547 22.875C29.1109 22.875 29.118 22.9219 29.1391 22.9687C29.1602 23.0156 29.1742 23.0062 29.2094 23.0062C29.2375 23.0062 29.2727 23.0062 29.2938 22.9687C29.3219 22.9312 29.35 22.875 29.3852 22.9406C29.4203 22.9969 29.4836 22.9875 29.4977 22.9219C29.5188 22.8469 29.5891 22.7906 29.6312 22.8656C29.6734 22.95 29.7016 22.95 29.7438 22.9594C29.7859 22.9594 29.8422 22.9594 29.8633 23.0156C29.8914 23.0719 29.9688 23.1469 29.9125 23.2031C29.8562 23.2687 29.793 23.3438 29.8422 23.3719C29.8863 23.3862 29.9257 23.4191 29.9547 23.4656C29.9898 23.5031 30.0953 23.5312 30.1445 23.5406C30.1938 23.5406 30.2289 23.5594 30.2852 23.4937C30.3484 23.4375 30.4047 23.4375 30.3977 23.5219C30.3906 23.5969 30.4188 23.6906 30.4188 23.6906C30.4188 23.6906 30.4609 23.8219 30.4609 23.8687C30.4609 23.9156 30.4539 23.925 30.5313 23.9906C30.6016 24.0469 30.5875 24.0844 30.6508 24.0281C30.707 23.9719 30.7211 23.9344 30.7211 23.8875V23.7281C30.7211 23.7281 30.8055 23.7094 30.8336 23.6812C30.8687 23.6438 30.9953 23.5594 31.0305 23.5969C31.0656 23.6344 31.1008 23.625 31.1359 23.6062C31.1711 23.5875 31.2344 23.5875 31.2695 23.5875C31.2977 23.5875 31.3539 23.5969 31.4242 23.5312C31.4875 23.4562 31.4875 23.475 31.5297 23.5312C31.5648 23.5781 31.5648 23.6344 31.5438 23.6812C31.5156 23.7188 31.5437 23.8031 31.6 23.8031C31.6562 23.8031 31.6703 23.85 31.6703 23.8969L31.6914 24.0562C31.6914 24.0938 31.6914 24.1219 31.7898 24.15C31.8742 24.1781 31.8602 24.2438 31.8742 24.3C31.8953 24.3469 31.8953 24.3938 31.8461 24.3938C31.7969 24.3938 31.7758 24.4219 31.7758 24.4687C31.7617 24.5156 31.6914 24.5344 31.6914 24.5344L31.6211 24.5156C31.6211 24.5156 31.5648 24.5156 31.5438 24.5531C31.5156 24.6 31.4734 24.675 31.5016 24.7406C31.5367 24.8156 31.5367 24.8531 31.5016 24.8906C31.4734 24.9187 31.4523 25.0687 31.4242 25.0406C31.3891 25.0031 31.3539 25.0406 31.3188 25.0687C31.2836 25.0875 31.2906 25.2281 31.3539 25.275C31.4242 25.3313 31.4383 25.3969 31.4383 25.3969L31.5086 25.5469C31.5086 25.5469 31.4875 25.575 31.4734 25.6312C31.4523 25.6781 31.4031 25.7812 31.4523 25.8C31.5016 25.8188 31.4805 25.9313 31.4312 25.9313C31.382 25.9313 31.3258 25.8938 31.3188 25.9781C31.3117 26.0625 31.2836 26.0344 31.2344 26.025C31.1852 26.025 31.0656 25.9781 31.0305 26.0531C30.9953 26.1375 30.9883 26.1656 30.932 26.1562C30.8758 26.1562 30.8969 26.2781 30.918 26.325L30.9883 26.4469C30.9883 26.4469 31.0375 26.4938 31.0375 26.5969C31.0375 26.6906 31.0023 26.6906 30.9672 26.6156C30.9391 26.55 30.8758 26.5594 30.8687 26.6344C30.8617 26.7188 30.8477 26.8406 30.7984 26.8406C30.7352 26.8406 30.7141 26.8594 30.6859 26.8969C30.6648 26.9344 30.6227 27.0094 30.6227 27.0469C30.6227 27.0844 30.6156 27.1313 30.5734 27.1406C30.5312 27.15 30.5242 27.2531 30.5242 27.2531C30.5242 27.2531 30.4258 27.2812 30.4188 27.3281C30.4117 27.375 30.4258 27.4594 30.3484 27.4688C30.3169 27.4737 30.2866 27.4881 30.2598 27.5108C30.2331 27.5335 30.2105 27.564 30.1938 27.6C30.1656 27.6469 30.1586 27.6937 30.1938 27.7406C30.2289 27.7875 30.25 27.9469 30.2922 27.975C30.3273 28.0031 30.3625 28.0219 30.3555 28.0969C30.3484 28.1813 30.2992 28.2375 30.3625 28.2375C30.4328 28.2375 30.468 28.2563 30.4469 28.3313C30.4188 28.3969 30.4188 28.4062 30.3766 28.4344C30.3203 28.4719 30.2992 28.4719 30.2992 28.5469C30.2992 28.6219 30.3133 28.6313 30.2711 28.6594C30.2289 28.6875 30.2289 28.725 30.2289 28.7906C30.2289 28.8563 30.2148 28.8281 30.1656 28.8938C30.1164 28.9688 30.0531 28.9687 30.0109 28.95C29.9687 28.9312 29.9617 28.9312 29.9547 28.8656C29.9477 28.8094 29.8773 28.8094 29.8352 28.8187C29.793 28.8187 29.7367 28.8844 29.7367 28.8844C29.7367 28.8844 29.6664 28.95 29.6945 28.9969C29.7297 29.0437 29.7086 29.1281 29.6523 29.1188C29.5961 29.1094 29.4695 29.1938 29.4273 29.1094C29.3852 29.0156 29.2727 28.9594 29.2516 29.0813C29.2375 29.1938 29.3008 29.1844 29.2938 29.3063C29.2938 29.4281 29.2727 29.4281 29.2375 29.4656C29.2094 29.5031 29.2094 29.5406 29.1953 29.5875C29.1953 29.6344 29.1812 29.7469 29.2375 29.7844C29.2937 29.8313 29.3219 29.9344 29.3219 30C29.3219 30.0562 29.3219 30.1219 29.3781 30.1219C29.4344 30.1219 29.4836 30.1031 29.4906 30.0375C29.4977 29.9719 29.6102 29.925 29.6242 30.0656C29.6242 30.2063 29.6242 30.2812 29.6734 30.3375C29.7086 30.3938 29.7438 30.4781 29.7789 30.5062C29.807 30.5344 29.8633 30.7875 29.8633 30.7875C29.7859 30.8156 29.7648 30.9562 29.7156 30.975C29.6875 30.9937 29.6523 30.975 29.6242 31.0031C29.6102 31.0313 29.6102 31.0688 29.582 31.0781C29.5188 31.1156 29.5328 30.9938 29.4555 31.0406C29.3922 31.0781 29.3852 31.1813 29.2938 31.1344C29.2445 31.1156 29.2164 30.8531 29.2023 30.7969L29.125 30.6281C29.0688 30.5156 28.9633 30.6281 28.9281 30.5906C28.8719 30.5437 28.893 30.4594 28.8086 30.45C28.6398 30.4312 28.7594 30.5906 28.6891 30.6188C28.5484 30.6844 28.5484 30.45 28.45 30.5625C28.4148 30.6 28.5203 30.6281 28.4922 30.6937C28.4711 30.75 28.3727 30.8438 28.3727 30.9094C28.3867 31.0031 28.457 31.0313 28.4781 31.0969C28.5484 31.3125 28.443 31.4531 28.2883 31.2844C28.2039 31.2 28.1828 31.0313 28.0563 31.05C28.0211 31.05 28.0141 31.0875 27.9859 31.0969C27.9508 31.0969 27.9297 31.0594 27.8945 31.0687C27.8453 31.0969 27.8945 31.1438 27.8805 31.1813C27.8805 31.1813 27.8102 31.2469 27.8102 31.275C27.768 31.3313 27.782 31.3875 27.7258 31.4437C27.6836 31.4906 27.6484 31.4625 27.5992 31.5375C27.55 31.6031 27.543 31.7156 27.4797 31.7812C27.4445 31.8188 27.4234 31.6781 27.3812 31.7719L27.3672 31.8094C27.3531 31.8375 27.3531 31.8469 27.3672 31.875C27.4516 32.1 27.2688 32.175 27.2125 32.3344C27.1914 32.4 27.2547 32.4562 27.2336 32.5125L27.1281 32.6719C27.1281 32.6906 27.1141 32.7469 27.1 32.7656C27.0859 32.7844 27.0297 32.7656 27.0297 32.8031C27.0297 32.8406 27.0859 32.8687 27.1 32.8875C27.1141 32.9156 27.0859 32.9531 27.1 32.9625C27.1844 33.0844 27.1352 33.0469 27.1773 33.15C27.1844 33.1688 27.2125 33.1406 27.2266 33.1781C27.2336 33.2156 27.1984 33.2156 27.2125 33.2531C27.2125 33.2719 27.2828 33.3844 27.2828 33.3844C27.2828 33.4219 27.1562 33.4969 27.1281 33.4969C27.0508 33.4969 27.1984 33.2906 27.0719 33.2906C27.0156 33.2906 27.0086 33.45 27.0016 33.4781H26.9313C26.8469 33.4781 26.7906 33.6094 26.7625 33.6188C26.7414 33.6281 26.6922 33.6 26.657 33.6188C26.6289 33.6188 26.5867 33.6656 26.5586 33.6656C26.5375 33.6656 26.5305 33.6469 26.5094 33.6281C26.4742 33.6 26.4039 33.5906 26.3688 33.5719C26.3406 33.5719 26.2984 33.6094 26.2844 33.6C26.2633 33.5812 26.3055 33.5063 26.2422 33.4688L26.193 33.3094C26.2141 33.2156 26.2352 33.1219 26.2281 33.0188C26.2141 32.9156 26.0875 32.8313 26.0594 32.7375C26.0383 32.6813 26.0172 32.5125 25.968 32.475C25.9144 32.4202 25.871 32.3496 25.8414 32.2688C25.8414 32.25 25.8625 32.2125 25.8414 32.175C25.8203 32.1469 25.7852 32.1281 25.7711 32.0813C25.7641 32.0438 25.7711 31.9125 25.7359 31.8844C25.7008 31.8563 25.4547 31.8094 25.3844 31.8C25.3562 31.8 25.3352 31.8 25.3141 31.7719L25.2719 31.7063L25.2016 31.725C25.1805 31.725 25.1453 31.7062 25.1312 31.725C25.0539 31.7906 25.0328 31.8844 24.9555 31.9688C24.8781 32.0438 24.7937 32.0438 24.7164 32.1281C24.6672 32.1844 24.632 32.325 24.5828 32.3906C24.5617 32.4188 24.5336 32.3906 24.5266 32.4C24.4844 32.4656 24.4281 32.5125 24.3859 32.5687C24.3789 32.5875 24.3859 32.6062 24.3719 32.6156L24.2805 32.6531H24.1961C24.1609 32.6719 24.1609 32.7281 24.0203 32.7656L23.9852 32.7937L23.943 32.8406H23.8797C23.8445 32.8406 23.8234 32.8875 23.7953 32.8875C23.725 32.9062 23.5984 32.8406 23.5422 32.8781C23.507 32.8875 23.4156 33.0375 23.3805 33.0469C23.3594 33.0562 23.3383 33.0469 23.3102 33.0375L23.268 33.2438L23.0992 33.4406C23.0781 33.4688 23.0711 33.5063 23.043 33.5344C23.0289 33.5625 23.0008 33.5813 22.9727 33.5813C22.9445 33.5813 22.8953 33.5437 22.8602 33.5437C22.8039 33.525 22.6281 33.5156 22.5789 33.5344C22.5156 33.5438 22.5367 33.7594 22.3961 33.7781L22.1641 33.8156C22.157 33.8156 22.1078 33.7781 22.0586 33.7875C22.0375 33.7969 21.9813 33.8813 21.9813 33.9V33.9469L21.9953 33.9844C21.9672 34.0312 21.8969 34.1063 21.8758 34.1719L21.8477 34.2094C21.8336 34.2281 21.7352 34.275 21.7281 34.2937C21.707 34.3687 21.7984 34.4438 21.7844 34.4719C21.7633 34.5656 21.6648 34.6594 21.6297 34.7531C21.6227 34.7906 21.6648 34.9125 21.6648 34.95C21.6508 35.0719 21.6227 35.2219 21.6297 35.3344L21.6437 35.4938L21.693 35.5406L21.8195 35.8781C21.8406 36.0844 21.6086 36.0094 21.7492 36.2156C21.7633 36.2531 21.7773 36.2812 21.8055 36.3094L22.0023 36.525C22.0023 36.5625 21.8617 36.5906 21.8406 36.6188C21.7703 36.7125 21.7211 36.8625 21.6578 36.9563C21.6156 37.0031 21.5875 36.9469 21.5313 37.0781C21.5172 37.125 21.5312 37.2281 21.5102 37.2656C21.475 37.3031 21.4539 37.2469 21.4188 37.2656C21.4047 37.2656 21.3977 37.3312 21.3836 37.3406C21.3484 37.3875 21.018 37.6219 20.9898 37.5938C20.9758 37.5844 20.9547 37.5094 20.9547 37.4906C20.9547 37.4625 20.9266 37.4062 20.9125 37.3969C20.8281 37.3031 20.7016 37.275 20.6172 37.3969C20.5961 37.425 20.5961 37.4719 20.568 37.4906L20.4273 37.6406L20.3922 37.6875C20.357 37.6875 20.2797 37.5656 20.2516 37.5281C20.2234 37.4719 20.1109 37.3406 20.1039 37.275C20.1039 37.05 19.9703 36.8156 19.9211 36.6H19.9984C20.0898 36.5156 20.0688 36.3188 20.2305 36.3938C20.2516 36.3563 20.2516 36.3188 20.2867 36.3C20.3008 36.2813 20.3289 36.2719 20.3359 36.2531C20.3922 36.1406 20.4555 35.7094 20.3992 35.5969C20.35 35.5031 20.2938 35.5031 20.2586 35.3438C20.2445 35.2969 20.2586 35.25 20.2586 35.1937L20.1883 34.9031C20.1742 34.875 20.1391 34.8563 20.1391 34.8375L20.125 34.5469C20.0758 34.3406 19.8859 34.2188 19.8789 34.1906L19.8086 34.0312C19.7805 33.9656 19.7805 33.9375 19.7664 33.8812C19.7594 33.8531 19.7242 33.825 19.7242 33.7969C19.7242 33.7406 19.8367 33.6375 19.8297 33.5437C19.8297 33.5156 19.7594 33.4219 19.7734 33.375C19.7875 33.3188 19.8578 33.2062 19.8578 33.1406C19.8578 33.0656 19.7453 32.8969 19.7313 32.8219C19.7242 32.775 19.7734 32.7469 19.7594 32.7188C19.7453 32.6812 19.6328 32.5406 19.6188 32.5031C19.5977 32.475 19.6539 32.4375 19.6188 32.3812C19.5766 32.3344 19.6117 32.3438 19.5977 32.3063C19.5836 32.2594 19.5484 32.2125 19.5273 32.1656C19.5133 32.1188 19.4148 31.65 19.4219 31.6219C19.4008 31.5937 19.3727 31.5656 19.3586 31.5281L19.3305 31.4156C19.3305 31.4156 19.218 31.3688 19.1969 31.3219C19.1828 31.2938 19.1758 31.1719 19.1477 31.1156C19.1336 31.0875 19.1125 31.0969 19.0984 31.0781C19.0844 31.0594 19.0844 31.0312 19.0773 31.0125C19.0422 30.9562 18.9789 31.0125 18.9367 30.7875C18.8664 30.7312 18.8172 30.6938 18.768 30.6188L18.7398 30.5813C18.6977 30.5625 18.6344 30.5531 18.5992 30.5156C18.5781 30.5156 18.4727 30.5156 18.4586 30.4969L18.4305 30.4219C18.3742 30.4125 18.2758 30.4219 18.2266 30.3656C18.1914 30.3187 18.1844 30.1031 18.1141 30.1312C18.1049 30.1276 18.0951 30.1276 18.0859 30.1312C18.0367 30.0375 17.882 30.0375 17.8187 29.9812C17.8047 29.9719 17.7484 29.9813 17.7484 29.9625L17.7555 29.8406L17.6781 29.7094C17.6148 29.6906 17.6359 29.6812 17.6078 29.6531C17.5023 29.6531 17.4883 29.6719 17.425 29.7469C17.4109 29.7656 17.3758 29.775 17.3547 29.7844C17.3195 29.8125 17.3125 29.8969 17.2633 29.8594L17.2211 29.8125C17.193 29.775 17.1789 29.7938 17.1648 29.7375C17.0805 29.6719 16.8484 29.8781 16.7992 29.7375C16.757 29.7094 16.7289 29.7375 16.6937 29.7C16.6797 29.6812 16.743 29.4187 16.5742 29.325L16.6867 29.2219C16.7008 29.1938 16.6867 29.1469 16.6867 29.1281C16.6867 29.0813 16.7078 28.9969 16.7008 28.9688C16.7008 28.9406 16.6727 28.9125 16.6656 28.875C16.6516 28.8469 16.6656 28.8 16.6516 28.7625L16.5953 28.725C16.5531 28.6781 16.5109 28.65 16.4758 28.5938L16.4477 28.5469C16.4195 28.5188 16.3211 28.4719 16.3211 28.4156C16.3211 28.3969 16.3492 28.3875 16.3492 28.3688C16.3563 28.3406 16.3492 28.3125 16.3703 28.2937C16.4125 28.2 16.518 28.2469 16.5039 28.0875C16.4969 28.0125 16.4547 27.9562 16.4477 27.8812C16.4266 27.8625 16.4266 27.8344 16.4125 27.8156C16.307 27.8063 16.3211 27.6656 16.2859 27.6281C16.1805 27.5344 16.0961 27.5906 16.2156 27.4031C16.2297 27.3375 16.1102 27.2344 16.0891 27.2063C16.0469 27.15 16.068 27.0281 16.0469 26.9719C16.0469 26.9438 15.9695 26.8875 15.9484 26.85L15.9133 26.7562V26.7469C15.9344 26.7187 15.9273 26.6719 15.9133 26.6531C15.9063 26.625 15.8711 26.6344 15.8641 26.6156C15.7656 26.5031 15.6531 26.4469 15.5195 26.3812C15.4844 26.3625 15.4984 26.325 15.4633 26.3063L15.2523 26.1937C15.2383 26.1937 15.2242 26.0906 15.2102 26.0531L15.1469 25.9594C15.1469 25.8656 15.1047 25.8656 15.0484 25.8094V25.7531L15.0906 25.5562C15.0977 25.5188 15.1328 25.4812 15.1258 25.4437L15.0977 25.2281C15.0414 25.0406 14.9781 25.0594 15.0133 24.8062C15.0133 24.75 15.0063 24.7219 15.0344 24.675L15.0484 24.6469L15.1328 24.5625C15.1609 24.5062 15.182 24.3844 15.2172 24.3469L15.3438 24.2344C15.3578 24.2156 15.3719 24.15 15.3648 24.1219C15.3367 24.1031 15.3086 24.1125 15.2805 24.1031C15.2664 24.1031 15.2313 24.0656 15.2031 24.0656C15.1961 24.0469 15.182 24.0375 15.182 24.0188L15.168 24C15.1328 24 15.0977 23.9719 15.0695 23.9531C15.0344 23.9344 14.9852 23.9344 14.95 23.9062C14.8797 23.8594 14.8094 23.7188 14.7461 23.7C14.6617 23.6719 14.6055 23.7094 14.5211 23.7187C14.4719 23.7187 14.4719 23.6812 14.4297 23.6625C14.3734 23.6344 14.4156 23.7 14.2891 23.6437C14.268 23.625 14.2891 23.5687 14.2891 23.55H14.2188C14.1203 23.5125 14.1555 23.3812 14.1273 23.2969C14.1203 23.2781 14.0711 23.2781 14.057 23.2781C14.043 23.2781 14.043 23.2594 14.043 23.2594L14.057 23.25C14.0711 23.2125 14.0078 23.1187 14.0078 23.1C14.0148 23.0719 14.1484 23.0437 14.1625 23.0437C14.1695 23.0156 14.1555 22.9969 14.1484 22.9781C14.1484 22.9312 14.1695 22.8656 14.1836 22.8187V22.8C14.1414 22.7719 14.1344 22.7344 14.0992 22.7062C14.0992 22.6781 14.1203 22.6687 14.1273 22.6406C14.1906 22.4062 14.2891 22.5937 14.3734 22.3781C14.3805 22.3594 14.4086 22.3125 14.4156 22.275H14.4297C14.4437 22.275 14.4719 22.2937 14.4859 22.275C14.5 22.2562 14.5211 22.2562 14.5422 22.2469H14.5773C14.732 22.2094 14.6969 22.1344 14.7883 22.05C14.8164 22.0219 14.8867 22.0125 14.9148 21.9937C14.95 22.0219 14.9992 22.0875 15.0625 22.125C15.1117 22.1437 15.2734 22.1906 15.3016 22.2187C15.3367 22.2375 15.3438 22.2937 15.3719 22.3125C15.4633 22.3875 15.407 22.275 15.4984 22.2937C15.5898 22.3219 15.6602 22.425 15.7445 22.4719L15.8148 22.4625C15.8359 22.4531 15.9766 22.4156 15.9906 22.425L16.0469 22.4531C16.068 22.4625 16.082 22.4062 16.1031 22.4062C16.1594 22.425 16.1594 22.4531 16.2438 22.4437C16.2438 22.4437 16.2859 22.1344 16.3281 22.125C16.3492 22.1156 16.4125 22.1906 16.4266 22.2C16.4547 22.2094 16.4266 22.1344 16.4266 22.1344C16.4125 22.1062 16.3703 21.9187 16.3773 21.9C16.3773 21.9 16.4125 21.9187 16.4336 21.9094C16.4758 21.8906 16.5391 21.8719 16.5742 21.825L16.6445 21.6844C16.6516 21.6656 16.6305 21.6094 16.6445 21.5906L16.7078 21.5344C16.7359 21.4969 16.7359 21.4406 16.7781 21.4125C16.9188 21.3937 16.968 21.2437 17.1016 21.225H17.1438L17.1719 21.2812C17.1719 21.2906 17.2633 21.3656 17.2773 21.3562C17.2914 21.3562 17.2984 21.3281 17.3125 21.3187C17.3336 21.3281 17.4109 21.2719 17.418 21.2344C17.418 21.2344 17.4039 21.2062 17.4109 21.1781C17.446 21.1365 17.4837 21.0989 17.5234 21.0656H17.6219C17.6359 21.0844 17.6359 21.1219 17.657 21.1219H17.7414C17.7555 21.1219 17.7625 21.075 17.7906 21.075Z" fill="#D0A650"/>
<path d="M24.7414 6.88086L25.8734 11.5309L22.9062 8.65273H26.5766L23.6094 11.5309L24.7344 6.88086H24.7414ZM29.157 7.92148L30.282 12.5715L27.3219 9.69336H30.9852L28.018 12.5715L29.157 7.92148ZM33.3688 9.96523L34.4938 14.6152L31.5336 11.7371H35.1969L32.2297 14.6246L33.3688 9.97461V9.96523Z" fill="white"/>
<path d="M20.2586 6.88086L19.1266 11.5309L22.0938 8.65273H18.4234L21.3906 11.5309L20.2656 6.88086H20.2586ZM15.843 7.92148L14.718 12.5715L17.6781 9.69336H14.0148L16.982 12.5715L15.843 7.92148ZM11.6523 9.96523L12.7914 14.6152L9.82422 11.7371H13.4875L10.5203 14.6152L11.6523 9.96523Z" fill="white"/>
</g>
<defs>
<clipPath id="clip0_45_22466">
<rect width="45" height="45" fill="white"/>
</clipPath>
</defs>
</svg>
