<svg width="21" height="17" viewBox="0 0 21 17" fill="none" xmlns="http://www.w3.org/2000/svg">
<rect width="21" height="17" fill="white"/>
<path d="M-3888 -381C-3888 -382.105 -3887.1 -383 -3886 -383H1506C1507.1 -383 1508 -382.105 1508 -381V742C1508 743.105 1507.1 744 1506 744H-3886C-3887.1 744 -3888 743.105 -3888 742V-381Z" fill="#02121F"/>
<rect width="669.286" height="362" transform="translate(-540 -115)" fill="#091C2E"/>
<path fill-rule="evenodd" clip-rule="evenodd" d="M13.9138 8.30175C13.9138 10.0478 12.4978 11.4637 10.7518 11.4637C9.00583 11.4637 7.58984 10.0478 7.58984 8.30175C7.58984 6.55476 9.00583 5.13977 10.7518 5.13977C12.4978 5.13977 13.9138 6.55476 13.9138 8.30175Z" stroke="white" stroke-width="1.5" stroke-linecap="round" stroke-linejoin="round"/>
<path fill-rule="evenodd" clip-rule="evenodd" d="M1.5 8.30176C1.5 11.5818 5.64199 15.6038 10.752 15.6038C15.8609 15.6038 20.0039 11.5848 20.0039 8.30176C20.0039 5.01876 15.8609 0.999756 10.752 0.999756C5.64199 0.999756 1.5 5.02176 1.5 8.30176Z" stroke="#009AFE" stroke-width="1.5" stroke-linecap="round" stroke-linejoin="round"/>
<path d="M-3886 -382H1506V-384H-3886V-382ZM1507 -381V742H1509V-381H1507ZM1506 743H-3886V745H1506V743ZM-3887 742V-381H-3889V742H-3887ZM-3886 743C-3886.55 743 -3887 742.552 -3887 742H-3889C-3889 743.657 -3887.66 745 -3886 745V743ZM1507 742C1507 742.552 1506.55 743 1506 743V745C1507.66 745 1509 743.657 1509 742H1507ZM1506 -382C1506.55 -382 1507 -381.552 1507 -381H1509C1509 -382.657 1507.66 -384 1506 -384V-382ZM-3886 -384C-3887.66 -384 -3889 -382.657 -3889 -381H-3887C-3887 -381.552 -3886.55 -382 -3886 -382V-384Z" fill="white" fill-opacity="0.1"/>
</svg>
