<svg width="45" height="45" viewBox="0 0 45 45" fill="none" xmlns="http://www.w3.org/2000/svg">
<g clip-path="url(#clip0_45_3444)">
<path d="M0 0H45V45H0V0Z" fill="#012169"/>
<path d="M34.0508 16.9125L34.1914 17.1L34.0508 16.9125Z" fill="#49497D"/>
<path d="M34.1914 16.9125L34.332 17.1L34.1914 16.9125Z" fill="#0E0E6E"/>
<path d="M33.7656 17.1L33.9062 17.2875L33.7656 17.1Z" fill="#262678"/>
<path d="M33.9102 17.1L34.0508 17.2875L33.9102 17.1Z" fill="#808067"/>
<path d="M34.332 17.1L34.4727 17.2875L34.332 17.1Z" fill="#58587B"/>
<path d="M29.0547 17.2969L29.1953 17.4844L29.0547 17.2969Z" fill="#0E0E6E"/>
<path d="M33.4844 17.2969L33.625 17.4844L33.4844 17.2969Z" fill="#1B1B74"/>
<path d="M33.625 17.2969L33.7656 17.4844L33.625 17.2969Z" fill="#6E6C70"/>
<path d="M29.3046 17.625C29.3046 22.5562 28.8827 28.0969 31.6249 31.95C32.1874 32.7375 33.2702 34.5469 34.1913 34.4812C35.1546 34.4062 36.3991 32.5031 36.9476 31.575C39.3382 27.375 38.9655 22.3687 39.0429 17.4937C37.9671 18.1406 37.4257 18.3562 36.4835 18.3375C35.7804 18.4312 34.7046 17.8219 34.0577 17.4C33.6359 17.775 33.0241 18.2344 31.9202 18.2812C30.6546 18.3562 30.2468 18.0656 29.3046 17.625Z" fill="#CCCC33"/>
<path d="M34.4805 17.2969L34.6211 17.4844L34.4805 17.2969Z" fill="#99994E"/>
<path d="M34.6211 17.2969L34.7617 17.4844L34.6211 17.2969Z" fill="#49497D"/>
<path d="M39.043 17.2969L39.1836 17.4844L39.043 17.2969Z" fill="#0E0E6E"/>
<path d="M29.1992 17.4844L29.3398 17.6719L29.1992 17.4844Z" fill="#A4A43D"/>
<path d="M29.3398 17.4844L29.4805 17.6719L29.3398 17.4844Z" fill="#6E6C70"/>
<path d="M29.4805 17.4844L29.6211 17.6719L29.4805 17.4844Z" fill="#3A3A7C"/>
<path d="M33.1875 17.4844L33.3281 17.6719L33.1875 17.4844Z" fill="#1B1B74"/>
<path d="M33.3281 17.4844L33.4688 17.6719L33.3281 17.4844Z" fill="#6E6C70"/>
<path d="M33.4844 17.4844L33.625 17.6719L33.4844 17.4844Z" fill="#A4A43D"/>
<path d="M34.0508 17.4844L34.1914 17.6719L34.0508 17.4844Z" fill="#D0D045"/>
<path d="M34.6211 17.4844L34.7617 17.6719L34.6211 17.4844Z" fill="#A4A43D"/>
<path d="M34.7617 17.4844L34.9023 17.6719L34.7617 17.4844Z" fill="#8D8D5B"/>
<path d="M34.9102 17.4844L35.0508 17.6719L34.9102 17.4844Z" fill="#3A3A7C"/>
<path d="M38.6172 17.4844L38.7578 17.6719L38.6172 17.4844Z" fill="#262678"/>
<path d="M38.7617 17.4844L38.9023 17.6719L38.7617 17.4844Z" fill="#53527C"/>
<path d="M38.9023 17.4844L39.043 17.6719L38.9023 17.4844Z" fill="#8D8D5B"/>
<path d="M29.7695 17.6812L29.9102 17.8687L29.7695 17.6812Z" fill="#737370"/>
<path d="M29.9102 17.6812L30.0508 17.8687L29.9102 17.6812Z" fill="#53527C"/>
<path d="M30.0508 17.6812L30.1914 17.8687L30.0508 17.6812Z" fill="#1B1B74"/>
<path d="M32.9062 17.6813L33.0469 17.8688L32.9062 17.6813Z" fill="#262678"/>
<path d="M33.0469 17.6813L33.1875 17.8688L33.0469 17.6813Z" fill="#6E6C70"/>
<path d="M33.1875 17.6813L33.3281 17.8688L33.1875 17.6813Z" fill="#A4A43D"/>
<path d="M33.9102 17.6812L34.0508 17.8687L33.9102 17.6812Z" fill="#E5E59D"/>
<path d="M29.5956 18.1687C29.5253 20.7562 29.5815 23.6625 29.8769 26.4187C30.2214 27.8719 30.1722 28.6687 30.6714 29.5312L37.6323 29.4562C38.0542 28.5469 38.3706 27.1687 38.4058 26.6156C38.7995 23.8312 38.8065 20.7469 38.8206 17.9906C38.0549 18.5521 37.1804 18.7938 36.3105 18.6844C35.5549 18.6238 34.8205 18.3285 34.1659 17.8219C33.4979 18.3469 33.2659 18.5906 32.169 18.6562C31.3112 18.7125 30.6222 18.8062 29.5956 18.1687Z" fill="white"/>
<path d="M34.1914 17.6812L34.332 17.8687L34.1914 17.6812Z" fill="#F2F1D7"/>
<path d="M34.332 17.6812L34.4727 17.8687L34.332 17.6812Z" fill="#D9D868"/>
<path d="M34.9102 17.6813L35.0508 17.8688L34.9102 17.6813Z" fill="#A4A43D"/>
<path d="M35.0508 17.6813L35.1914 17.8688L35.0508 17.6813Z" fill="#99994E"/>
<path d="M35.1914 17.6813L35.332 17.8688L35.1914 17.6813Z" fill="#49497D"/>
<path d="M35.332 17.6813L35.4727 17.8688L35.332 17.6813Z" fill="#0E0E6E"/>
<path d="M38.1953 17.6812L38.3359 17.8687L38.1953 17.6812Z" fill="#3A3A7C"/>
<path d="M38.3359 17.6812L38.4766 17.8687L38.3359 17.6812Z" fill="#666677"/>
<path d="M38.4766 17.6812L38.6172 17.8687L38.4766 17.6812Z" fill="#99994E"/>
<path d="M38.6148 17.6812L38.7555 17.8687L38.6148 17.6812ZM30.0508 17.8687L30.1914 18.0562L30.0508 17.8687Z" fill="#A4A43D"/>
<path d="M30.1992 17.8688L30.3398 18.0563L30.1992 17.8688Z" fill="#99994E"/>
<path d="M30.3398 17.8688L30.4805 18.0563L30.3398 17.8688Z" fill="#6E6C70"/>
<path d="M30.4805 17.8688L30.6211 18.0563L30.4805 17.8688Z" fill="#49497D"/>
<path d="M30.6211 17.8688L30.7617 18.0563L30.6211 17.8688ZM32.4773 17.8688L32.618 18.0563L32.4773 17.8688Z" fill="#1B1B74"/>
<path d="M32.6172 17.8687L32.7578 18.0562L32.6172 17.8687Z" fill="#53527C"/>
<path d="M32.7656 17.8688L32.9062 18.0563L32.7656 17.8688Z" fill="#8D8D5B"/>
<path d="M32.9062 17.8688L33.0469 18.0563L32.9062 17.8688Z" fill="#A4A43D"/>
<path d="M33.625 17.8687L33.7656 18.0562L33.625 17.8687Z" fill="#E5E59D"/>
<path d="M33.7656 17.8687L33.9062 18.0562L33.7656 17.8687Z" fill="#FBFAF2"/>
<path d="M34.4805 17.8687L34.6211 18.0562L34.4805 17.8687Z" fill="#F2F1D2"/>
<path d="M34.6211 17.8687L34.7617 18.0562L34.6211 17.8687Z" fill="#D9D868"/>
<path d="M35.332 17.8688L35.4727 18.0563L35.332 17.8688Z" fill="#A4A43D"/>
<path d="M35.4805 17.8687L35.6211 18.0562L35.4805 17.8687Z" fill="#6E6C70"/>
<path d="M35.6211 17.8687L35.7617 18.0562L35.6211 17.8687Z" fill="#3A3A7C"/>
<path d="M37.4766 17.8688L37.6172 18.0563L37.4766 17.8688Z" fill="#0E0E6E"/>
<path d="M37.6172 17.8688L37.7578 18.0563L37.6172 17.8688Z" fill="#32327B"/>
<path d="M37.7578 17.8688L37.8984 18.0563L37.7578 17.8688Z" fill="#58587B"/>
<path d="M37.8984 17.8688L38.0391 18.0563L37.8984 17.8688Z" fill="#808067"/>
<path d="M38.1445 17.925L38.2359 17.9906L38.1445 17.925Z" fill="#A4A43D"/>
<path d="M29.4805 18.0562L29.6211 18.2437L29.4805 18.0562Z" fill="#DDDC7A"/>
<path d="M29.6211 18.0562L29.7617 18.2437L29.6211 18.0562Z" fill="#D0D045"/>
<path d="M30.7188 18.1125L30.8172 18.1781L30.7188 18.1125Z" fill="#A4A43D"/>
<path d="M30.9102 18.0562L31.0508 18.2437L30.9102 18.0562Z" fill="#808067"/>
<path d="M31.0508 18.0562L31.1914 18.2437L31.0508 18.0562Z" fill="#666677"/>
<path d="M31.1992 18.0562L31.3398 18.2437L31.1992 18.0562Z" fill="#58587B"/>
<path d="M31.3398 18.0562L31.4805 18.2437L31.3398 18.0562Z" fill="#49497D"/>
<path d="M32.1953 18.0562L32.3359 18.2437L32.1953 18.0562Z" fill="#737370"/>
<path d="M32.3359 18.0562L32.4766 18.2437L32.3359 18.0562Z" fill="#99994E"/>
<path d="M32.4766 18.0562L32.6172 18.2437L32.4766 18.0562Z" fill="#A4A43D"/>
<path d="M33.3281 18.0563L33.4688 18.2438L33.3281 18.0563Z" fill="#E5E59D"/>
<path d="M33.4844 18.0562L33.625 18.2437L33.4844 18.0562Z" fill="#FBFAF2"/>
<path d="M34.7617 18.0562L34.9023 18.2437L34.7617 18.0562Z" fill="#F2F1D2"/>
<path d="M34.9102 18.0563L35.0508 18.2438L34.9102 18.0563Z" fill="#D9D868"/>
<path d="M35.7109 18.1125L35.8094 18.1781L35.718 18.1125H35.7109Z" fill="#A4A43D"/>
<path d="M35.9102 18.0562L36.0508 18.2437L35.9102 18.0562Z" fill="#808067"/>
<path d="M36.0508 18.0562L36.1914 18.2437L36.0508 18.0562Z" fill="#666677"/>
<path d="M36.1914 18.0562L36.332 18.2437L36.1914 18.0562Z" fill="#58587B"/>
<path d="M36.3359 18.0562L36.4766 18.2437L36.3359 18.0562Z" fill="#3A3A7C"/>
<path d="M37 18.1125L37.0984 18.1781L37 18.1125Z" fill="#58587B"/>
<path d="M37.1875 18.0562L37.3281 18.2437L37.1875 18.0562Z" fill="#737370"/>
<path d="M37.3281 18.0562L37.4688 18.2437L37.3281 18.0562Z" fill="#99994E"/>
<path d="M37.4766 18.0563L37.6172 18.2438L37.4766 18.0563Z" fill="#A4A43D"/>
<path d="M38.6172 18.0562L38.7578 18.2437L38.6172 18.0562Z" fill="#DDDC7A"/>
<path d="M38.7617 18.0562L38.9023 18.2437L38.7617 18.0562Z" fill="#D0D045"/>
<path d="M29.7695 18.2437L29.9102 18.4312L29.7695 18.2437Z" fill="#F2F1D7"/>
<path d="M29.9102 18.2437L30.0508 18.4312L29.9102 18.2437Z" fill="#E0DEA1"/>
<path d="M30.0508 18.2437L30.1914 18.4312L30.0508 18.2437Z" fill="#DDDC7A"/>
<path d="M32.9062 18.2438L33.0469 18.4313L32.9062 18.2438Z" fill="#D9D868"/>
<path d="M33.0469 18.2438L33.1875 18.4313L33.0469 18.2438Z" fill="#E5E3AF"/>
<path d="M35.0508 18.2438L35.1914 18.4313L35.0508 18.2438Z" fill="#F6F6E4"/>
<path d="M35.1914 18.2438L35.332 18.4313L35.1914 18.2438Z" fill="#E1E18C"/>
<path d="M38.0391 18.2438L38.1797 18.4313L38.0391 18.2438Z" fill="#D4D456"/>
<path d="M38.1953 18.2437L38.3359 18.4312L38.1953 18.2437Z" fill="#E1E18C"/>
<path d="M38.3359 18.2437L38.4766 18.4312L38.3359 18.2437Z" fill="#EEEDC1"/>
<path d="M30.3398 18.4313L30.4805 18.6188L30.3398 18.4313Z" fill="#F2F1D2"/>
<path d="M30.4805 18.4313L30.6211 18.6188L30.4805 18.4313Z" fill="#E0DEA1"/>
<path d="M30.6211 18.4313L30.7617 18.6188L30.6211 18.4313Z" fill="#DDDC7A"/>
<path d="M30.7695 18.4312L30.9102 18.6187L30.7695 18.4312Z" fill="#D0D045"/>
<path d="M32.4766 18.4312L32.6172 18.6187L32.4766 18.4312Z" fill="#DDDC7A"/>
<path d="M32.6172 18.4312L32.7578 18.6187L32.6172 18.4312Z" fill="#E5E3AF"/>
<path d="M32.7656 18.4313L32.9062 18.6188L32.7656 18.4313Z" fill="#F6F6E4"/>
<path d="M35.4805 18.4312L35.6211 18.6187L35.4805 18.4312Z" fill="#EEEDC1"/>
<path d="M35.6211 18.4312L35.7617 18.6187L35.6211 18.4312Z" fill="#E1E18C"/>
<path d="M35.7617 18.4312L35.9023 18.6187L35.7617 18.4312Z" fill="#D4D456"/>
<path d="M37.4766 18.4313L37.6172 18.6188L37.4766 18.4313Z" fill="#D9D868"/>
<path d="M37.6172 18.4313L37.7578 18.6188L37.6172 18.4313Z" fill="#E1E18C"/>
<path d="M37.7578 18.4313L37.8984 18.6188L37.7578 18.4313Z" fill="#EEEDC1"/>
<path d="M37.8984 18.4313L38.0391 18.6188L37.8984 18.4313Z" fill="#F6F6E4"/>
<path d="M31.0508 18.6187L31.1914 18.8062L31.0508 18.6187Z" fill="#F2F1D7"/>
<path d="M31.1992 18.6187L31.3398 18.8062L31.1992 18.6187Z" fill="#F2F1D2"/>
<path d="M31.3398 18.6187L31.4805 18.8062L31.3398 18.6187Z" fill="#EEEDC1"/>
<path d="M32.0078 18.6844L32.0992 18.75L32.0078 18.6844Z" fill="#F2F1D2"/>
<path d="M32.1953 18.6187L32.3359 18.8062L32.1953 18.6187Z" fill="#FBFAF2"/>
<path d="M32.9062 18.6188L33.1875 18.9938V18.6188H32.9062Z" fill="#FEF8F1"/>
<path d="M36.0508 18.6187L36.1914 18.8062L36.0508 18.6187Z" fill="#F2F1D7"/>
<path d="M36.1914 18.6187L36.332 18.8062L36.1914 18.6187Z" fill="#F2F1D2"/>
<path d="M36.3359 18.6187L36.4766 18.8062L36.3359 18.6187Z" fill="#E5E3AF"/>
<path d="M36.5773 18.6844L36.6688 18.75L36.5703 18.6844H36.5773Z" fill="#E5E59D"/>
<path d="M36.7656 18.6187L36.9062 18.8062L36.7656 18.6187Z" fill="#E0DEA1"/>
<path d="M37 18.6844L37.0984 18.75L37 18.6844Z" fill="#F2F1D2"/>
<path d="M37.1875 18.6187L37.3281 18.8062L37.1875 18.6187Z" fill="#FBFAF2"/>
<path d="M32.6172 18.8156L32.7578 19.0031L32.6172 18.8156Z" fill="#FEF8F1"/>
<path d="M32.7656 18.8156L32.9062 19.0031L32.7656 18.8156Z" fill="#FBBE66"/>
<path d="M32.6172 19.0031L32.7578 19.1906L32.6172 19.0031Z" fill="#FBC477"/>
<path d="M32.9062 19.0031L33.0469 19.1906L32.9062 19.0031Z" fill="#FCB144"/>
<path d="M32.6172 19.2L32.7578 19.3875L32.6172 19.2Z" fill="#FE9F11"/>
<path d="M32.9062 19.2L33.0469 19.3875L32.9062 19.2Z" fill="#FEA522"/>
<path d="M32.4766 19.3875L32.6172 19.575L32.4766 19.3875ZM33.0531 19.3875L33.1938 19.575L33.0531 19.3875Z" fill="#FAE3C9"/>
<path d="M33.7656 19.3875L33.9062 19.575L33.7656 19.3875Z" fill="#FBEAD6"/>
<path d="M33.9102 19.3875L34.0508 19.575L33.9102 19.3875Z" fill="#F9D6AA"/>
<path d="M34.4805 19.3875L34.6211 19.575L34.4805 19.3875Z" fill="#FAE3C9"/>
<path d="M34.6211 19.3875L34.7617 19.575L34.6211 19.3875Z" fill="#FEF8F1"/>
<path d="M32.4766 19.575L32.6172 19.7625L32.4766 19.575Z" fill="#F9D099"/>
<path d="M33.0469 19.575L33.1875 19.7625L33.0469 19.575Z" fill="#FDAB33"/>
<path d="M33.3281 19.575L33.4688 19.7625L33.3281 19.575Z" fill="#FCF1E4"/>
<path d="M33.4844 19.575L33.625 19.7625L33.4844 19.575Z" fill="#FBC477"/>
<path d="M33.625 19.575L33.7656 19.7625L33.625 19.575Z" fill="#FEA522"/>
<path d="M34.7617 19.575L34.9023 19.7625L34.7617 19.575Z" fill="#FCB755"/>
<path d="M34.9102 19.575L35.0508 19.7625L34.9102 19.575Z" fill="#F9D6AA"/>
<path d="M32.4766 19.7719L32.6172 19.9594L32.4766 19.7719Z" fill="#FACA88"/>
<path d="M33.1875 19.7719L33.3281 19.9594L33.1875 19.7719ZM35.0508 19.7719L35.1914 19.9594L35.0508 19.7719Z" fill="#FEA522"/>
<path d="M35.1914 19.7719L35.332 19.9594L35.1914 19.7719Z" fill="#F8DCBB"/>
<path d="M29.4805 19.9594L29.6211 20.1469L29.4805 19.9594Z" fill="#F6F6E4"/>
<path d="M32.4766 19.9594L32.6172 20.1469L32.4766 19.9594Z" fill="#FBC477"/>
<path d="M35.332 19.9594L35.4727 20.1469L35.332 19.9594Z" fill="#FBBE66"/>
<path d="M35.4805 19.9594L35.6211 20.1469L35.4805 19.9594Z" fill="#F8DCBB"/>
<path d="M32.4766 20.1469L32.6172 20.3344L32.4766 20.1469Z" fill="#FACA88"/>
<path d="M35.7617 20.1469L35.9023 20.3344L35.7617 20.1469Z" fill="#FCB755"/>
<path d="M35.9102 20.1469L36.0508 20.3344L35.9102 20.1469Z" fill="#F8DCBB"/>
<path d="M32.3359 20.3438L32.4766 20.5312L32.3359 20.3438Z" fill="#FEF8F1"/>
<path d="M32.4766 20.3438L32.6172 20.5312L32.4766 20.3438Z" fill="#FE9F11"/>
<path d="M36.4766 20.3438L36.6172 20.5312L36.4766 20.3438Z" fill="#FDAB33"/>
<path d="M36.625 20.3438L36.7656 20.5312L36.625 20.3438Z" fill="#FCB144"/>
<path d="M36.7656 20.3438L36.9062 20.5312L36.7656 20.3438Z" fill="#FBC477"/>
<path d="M36.9062 20.3438L37.1875 20.7188L36.9062 20.3438Z" fill="#F9D6AA"/>
<path d="M37.0469 20.3438L37.1875 20.5312L37.0469 20.3438Z" fill="#FEF8F1"/>
<path d="M32.3359 20.5312L32.4766 20.7188L32.3359 20.5312Z" fill="#FCB144"/>
<path d="M34.332 20.5312L34.4727 20.7188L34.332 20.5312Z" fill="#FDAB33"/>
<path d="M34.4805 20.5312L34.6211 20.7188L34.4805 20.5312ZM35.043 20.5312L35.1836 20.7188L35.043 20.5312Z" fill="#FBC477"/>
<path d="M35.1914 20.5312L35.332 20.7188L35.1914 20.5312Z" fill="#FEA522"/>
<path d="M32.1953 20.7188L32.3359 20.9062L32.1953 20.7188Z" fill="#FAE3C9"/>
<path d="M34.0508 20.7188L34.1914 20.9062L34.0508 20.7188Z" fill="#FCB144"/>
<path d="M34.1914 20.7188L34.332 20.9062L34.1914 20.7188Z" fill="#FAE3C9"/>
<path d="M35.332 20.7188L35.4727 20.9062L35.332 20.7188Z" fill="#F8DCBB"/>
<path d="M35.4805 20.7188L35.6211 20.9062L35.4805 20.7188Z" fill="#FDAB33"/>
<path d="M36.3359 20.7188L36.4766 20.9062L36.3359 20.7188Z" fill="#FE9F11"/>
<path d="M36.4766 20.7188L36.6172 20.9062L36.4766 20.7188Z" fill="#FCB755"/>
<path d="M36.625 20.7188L36.7656 20.9062L36.625 20.7188Z" fill="#F9D099"/>
<path d="M36.7656 20.7188L36.9062 20.9062L36.7656 20.7188Z" fill="#FBEAD6"/>
<path d="M32.1953 20.9062L32.3359 21.0938L32.1953 20.9062Z" fill="#FCB144"/>
<path d="M33.9102 20.9062L34.0508 21.0938L33.9102 20.9062Z" fill="#FBBE66"/>
<path d="M35.6211 20.9062L35.7617 21.0938L35.6211 20.9062Z" fill="#F9D099"/>
<path d="M36.1914 20.9062L36.332 21.0938L36.1914 20.9062Z" fill="#FBEAD6"/>
<path d="M32.0547 21.0938L32.1953 21.2812L32.0547 21.0938Z" fill="#FCF1E4"/>
<path d="M33.7656 21.0938L33.9062 21.2812L33.7656 21.0938Z" fill="#FBBE66"/>
<path d="M35.7617 21.0938L35.9023 21.2812L35.7617 21.0938Z" fill="#F9D099"/>
<path d="M36.1914 21.0938L36.332 21.2812L36.1914 21.0938Z" fill="#FAE3C9"/>
<path d="M32.0547 21.2812L32.1953 21.4688L32.0547 21.2812Z" fill="#FBC477"/>
<path d="M33.625 21.2812L33.7656 21.4688L33.625 21.2812ZM35.9102 21.2812L36.0508 21.4688L35.9102 21.2812Z" fill="#FCB144"/>
<path d="M36.1914 21.2812L36.332 21.4688L36.1914 21.2812Z" fill="#FBBE66"/>
<path d="M29.4805 21.4688L29.6211 21.6562L29.4805 21.4688Z" fill="#F6F6E4"/>
<path d="M32.0547 21.4688L32.1953 21.6562L32.0547 21.4688Z" fill="#FEA522"/>
<path d="M33.625 21.4688L33.7656 21.6562L33.625 21.4688Z" fill="#FBEAD6"/>
<path d="M35.9102 21.4688L36.0508 21.6562L35.9102 21.4688Z" fill="#FCF1E4"/>
<path d="M36.3359 21.4688L36.4766 21.6562L36.3359 21.4688Z" fill="#FEF8F1"/>
<path d="M31.9141 21.675L32.0547 21.8625L31.9141 21.675Z" fill="#FCF1E4"/>
<path d="M33.4844 21.675L33.625 21.8625L33.4844 21.675Z" fill="#FBBE66"/>
<path d="M36.0508 21.675L36.1914 21.8625L36.0508 21.675Z" fill="#FACA88"/>
<path d="M36.3359 21.675L36.4766 21.8625L36.3359 21.675Z" fill="#F9D099"/>
<path d="M31.9141 21.8625L32.0547 22.05L31.9141 21.8625Z" fill="#F9D6AA"/>
<path d="M33.4844 21.8625L33.625 22.05L33.4844 21.8625Z" fill="#FCF1E4"/>
<path d="M34.1914 21.8625L34.332 22.05L34.1914 21.8625Z" fill="#FAE3C9"/>
<path d="M34.332 21.8625L34.4727 22.05L34.332 21.8625Z" fill="#FEA522"/>
<path d="M34.4805 21.8625L34.6211 22.05L34.4805 21.8625Z" fill="#FCB144"/>
<path d="M34.6211 21.8625L34.7617 22.05L34.6211 21.8625Z" fill="#F9D6AA"/>
<path d="M36.0508 21.8625L36.1914 22.05L36.0508 21.8625Z" fill="#FEF8F1"/>
<path d="M36.1914 21.8625L36.332 22.05L36.1914 21.8625Z" fill="#FEA522"/>
<path d="M36.3359 21.8625L36.4766 22.05L36.3359 21.8625Z" fill="#FDAB33"/>
<path d="M31.9133 22.05L31.7656 22.6125L31.9062 22.05H31.9133Z" fill="#FACA88"/>
<path d="M33.3281 22.05L33.4688 22.2375L33.3281 22.05Z" fill="#FEA522"/>
<path d="M33.4844 22.05L33.625 22.2375L33.4844 22.05Z" fill="#FEF8F1"/>
<path d="M34.1914 22.05L34.332 22.2375L34.1914 22.05Z" fill="#F9D099"/>
<path d="M34.7617 22.05L34.9023 22.2375L34.7617 22.05Z" fill="#FDAB33"/>
<path d="M34.9102 22.05L35.0508 22.2375L34.9102 22.05Z" fill="#FAE3C9"/>
<path d="M36.1914 22.05L36.332 22.2375L36.1914 22.05Z" fill="#F8DCBB"/>
<path d="M36.3359 22.05L36.4766 22.2375L36.3359 22.05Z" fill="#FF9900"/>
<path d="M36.5273 22.1813L36.5695 22.3031L36.5273 22.1813Z" fill="#FBEAD6"/>
<path d="M33.625 22.2375L33.7656 22.425L33.625 22.2375Z" fill="#FEA522"/>
<path d="M33.7656 22.2375L33.9062 22.425L33.7656 22.2375Z" fill="#FBBE66"/>
<path d="M33.9102 22.2375L34.0508 22.425L33.9102 22.2375Z" fill="#FACA88"/>
<path d="M34.0508 22.2375L34.1914 22.425L34.0508 22.2375Z" fill="#FCB144"/>
<path d="M34.1914 22.2375L34.332 22.425L34.1914 22.2375Z" fill="#FAE3C9"/>
<path d="M34.332 22.2375L34.4727 22.425L34.332 22.2375Z" fill="#FE9F11"/>
<path d="M35.0508 22.2375L35.1914 22.425L35.0508 22.2375Z" fill="#FDAB33"/>
<path d="M35.1914 22.2375L35.332 22.425L35.1914 22.2375Z" fill="#FBC477"/>
<path d="M35.332 22.2375L35.4727 22.425L35.332 22.2375Z" fill="#FACA88"/>
<path d="M35.4805 22.2375L35.6211 22.425L35.4805 22.2375Z" fill="#F9D6AA"/>
<path d="M35.7109 22.3031L35.8094 22.3688L35.718 22.3031H35.7109Z" fill="#FAE3C9"/>
<path d="M35.9102 22.2375L36.0508 22.425L35.9102 22.2375Z" fill="#FEF8F1"/>
<path d="M36.3359 22.2375L36.4766 22.425L36.3359 22.2375Z" fill="#FBC477"/>
<path d="M30.1992 22.4344L30.3398 22.6219L30.1992 22.4344Z" fill="#FEF8F1"/>
<path d="M30.3398 22.4344L30.4805 22.6219L30.3398 22.4344Z" fill="#FCF1E4"/>
<path d="M34.0508 22.4344L34.1914 22.6219L34.0508 22.4344Z" fill="#FCB755"/>
<path d="M34.332 22.4344L34.4727 22.6219L34.332 22.4344Z" fill="#FBEAD6"/>
<path d="M34.4805 22.4344L34.6211 22.6219L34.4805 22.4344Z" fill="#FEA522"/>
<path d="M35.6211 22.4344L35.7617 22.6219L35.6211 22.4344Z" fill="#FE9F11"/>
<path d="M35.7617 22.4344L35.6211 22.8094L35.7617 22.4344Z" fill="#FCB144"/>
<path d="M36.0508 22.4344L36.1914 22.6219L36.0508 22.4344Z" fill="#FE9F11"/>
<path d="M36.1914 22.4344L36.332 22.6219L36.1914 22.4344Z" fill="#FBBE66"/>
<path d="M36.3359 22.4344L36.4766 22.6219L36.3359 22.4344Z" fill="#FCF1E4"/>
<path d="M30.1992 22.6219L30.3398 22.8094L30.1992 22.6219Z" fill="#FAE3C9"/>
<path d="M30.3398 22.6219L30.6211 22.9969L30.3398 22.6219Z" fill="#FE9F11"/>
<path d="M30.4805 22.6219L30.6211 22.8094L30.4805 22.6219ZM31.7672 22.6219L31.9078 22.8094L31.7672 22.6219Z" fill="#FBEAD6"/>
<path d="M31.9141 22.6219L32.0547 22.8094L31.9141 22.6219Z" fill="#FAE3C9"/>
<path d="M33.1875 22.6219L33.3281 22.8094L33.1875 22.6219Z" fill="#FE9F11"/>
<path d="M33.3281 22.6219L33.4688 22.8094L33.3281 22.6219Z" fill="#FBC477"/>
<path d="M33.4844 22.6219L33.625 22.8094L33.4844 22.6219Z" fill="#FEA522"/>
<path d="M33.9102 22.6219L34.0508 22.8094L33.9102 22.6219Z" fill="#FBC477"/>
<path d="M34.0508 22.6219L34.1914 22.8094L34.0508 22.6219Z" fill="#FEF8F1"/>
<path d="M34.6211 22.6219L34.7617 22.8094L34.6211 22.6219Z" fill="#FBC477"/>
<path d="M35.7617 22.6219L35.9023 22.8094L35.7617 22.6219Z" fill="white"/>
<path d="M35.9102 22.6219L36.0508 22.8094L35.9102 22.6219Z" fill="#FDAB33"/>
<path d="M36.4766 22.6219L36.6172 22.8094L36.4766 22.6219Z" fill="#FBC477"/>
<path d="M30.1992 22.8094L30.3398 22.9969L30.1992 22.8094Z" fill="#FEF8F1"/>
<path d="M30.6211 22.8094L30.7617 22.9969L30.6211 22.8094Z" fill="#FBEAD6"/>
<path d="M31.3398 22.8094L31.4805 22.9969L31.3398 22.8094Z" fill="#F9D6AA"/>
<path d="M32.0547 22.8094L32.1953 22.9969L32.0547 22.8094Z" fill="#FE9F11"/>
<path d="M32.2891 22.875L32.3875 22.9406L32.2891 22.875Z" fill="#F9D6AA"/>
<path d="M33.1875 22.8094L33.3281 22.9969L33.1875 22.8094Z" fill="#F8DCBB"/>
<path d="M33.625 22.8094L33.7656 22.9969L33.625 22.8094Z" fill="#FCF1E4"/>
<path d="M34.7617 22.8094L34.9023 22.9969L34.7617 22.8094Z" fill="#F9D6AA"/>
<path d="M35.7617 22.8094L35.9023 22.9969L35.7617 22.8094Z" fill="#FDAB33"/>
<path d="M36.625 22.8094L36.7656 22.9969L36.625 22.8094Z" fill="#FCB755"/>
<path d="M36.7656 22.8094L36.9062 22.9969L36.7656 22.8094Z" fill="#FEF8F1"/>
<path d="M29.0547 23.0063L29.1953 23.1938L29.0547 23.0063Z" fill="#53527C"/>
<path d="M30.3398 23.0062L30.4805 23.1937L30.3398 23.0062Z" fill="#FCB755"/>
<path d="M30.6211 23.0062L30.7617 23.1937L30.6211 23.0062Z" fill="#FEA522"/>
<path d="M31.1992 23.0063L31.3398 23.1938L31.1992 23.0063Z" fill="#FBEAD6"/>
<path d="M31.4805 23.0063L31.6211 23.1938L31.4805 23.0063Z" fill="#FE9F11"/>
<path d="M31.625 23.0063L31.7656 23.1938L31.625 23.0063Z" fill="#FCF1E4"/>
<path d="M32.0547 23.0063L32.1953 23.1938L32.0547 23.0063Z" fill="#FBBE66"/>
<path d="M32.1953 23.0063L32.3359 23.1938L32.1953 23.0063Z" fill="#FBC477"/>
<path d="M32.3359 23.0063L32.4766 23.1938L32.3359 23.0063Z" fill="#FBBE66"/>
<path d="M33.0469 23.0062L33.1875 23.1937L33.0469 23.0062Z" fill="#FEA522"/>
<path d="M34.9102 23.0062L35.0508 23.1937L34.9102 23.0062Z" fill="#F9D6AA"/>
<path d="M36.7656 23.0063L36.9062 23.1938L36.7656 23.0063Z" fill="#FCB144"/>
<path d="M39.043 23.0063L39.1836 23.1938L39.043 23.0063Z" fill="#8D8D5B"/>
<path d="M29.4805 23.1938L29.6211 23.3813L29.4805 23.1938Z" fill="#E5E3AF"/>
<path d="M30.3398 23.1937L30.4805 23.3812L30.3398 23.1937Z" fill="#F8DCBB"/>
<path d="M30.7695 23.1938L30.9102 23.3813L30.7695 23.1938Z" fill="#FDAB33"/>
<path d="M31.1992 23.1938L31.3398 23.3813L31.1992 23.1938Z" fill="#FE9F11"/>
<path d="M31.4805 23.1938L31.6211 23.3813L31.4805 23.1938Z" fill="#FACA88"/>
<path d="M32.0547 23.1938L32.1953 23.3813L32.0547 23.1938Z" fill="#FCF1E4"/>
<path d="M33.0469 23.1937L33.1875 23.3812L33.0469 23.1937ZM35.0508 23.1937L35.1914 23.3812L35.0508 23.1937Z" fill="#F9D099"/>
<path d="M36.9062 23.1938L37.0469 23.3813L36.9062 23.1938Z" fill="#FBBE66"/>
<path d="M30.4805 23.3812L30.6211 23.5687L30.4805 23.3812Z" fill="#FEA522"/>
<path d="M30.9102 23.3813L31.0508 23.5688L30.9102 23.3813Z" fill="#FDAB33"/>
<path d="M31.0508 23.3813L31.1914 23.5688L31.0508 23.3813Z" fill="#FEA522"/>
<path d="M31.3398 23.3813L31.4805 23.5688L31.3398 23.3813Z" fill="#FE9F11"/>
<path d="M31.4805 23.3813L31.6211 23.5688L31.4805 23.3813Z" fill="#FEF8F1"/>
<path d="M32.1953 23.3813L32.3359 23.5688L32.1953 23.3813Z" fill="#FBBE66"/>
<path d="M33.0469 23.3812L33.1875 23.5687L33.0469 23.3812Z" fill="#FEF8F1"/>
<path d="M35.1914 23.3812L35.332 23.5687L35.1914 23.3812Z" fill="#FBBE66"/>
<path d="M37.0469 23.3813L37.1875 23.5688L37.0469 23.3813Z" fill="#F9D099"/>
<path d="M30.4805 23.5781L30.6211 23.7656L30.4805 23.5781Z" fill="#F9D6AA"/>
<path d="M31.3398 23.5781L31.4805 23.7656L31.3398 23.5781Z" fill="#F9D099"/>
<path d="M32.1953 23.5781L32.3359 23.7656L32.1953 23.5781Z" fill="#FCF1E4"/>
<path d="M32.9062 23.5781L33.0469 23.7656L32.9062 23.5781ZM35.332 23.5781L35.4727 23.7656L35.332 23.5781Z" fill="#FDAB33"/>
<path d="M37.1875 23.5781L37.3281 23.7656L37.1875 23.5781Z" fill="#FBEAD6"/>
<path d="M30.6211 23.7656L30.7617 23.9531L30.6211 23.7656Z" fill="#FEA522"/>
<path d="M31.1992 23.7656L31.3398 23.9531L31.1992 23.7656Z" fill="#FE9F11"/>
<path d="M32.3359 23.7656L32.4766 23.9531L32.3359 23.7656Z" fill="#FCB144"/>
<path d="M32.9062 23.7656L33.0469 23.9531L32.9062 23.7656Z" fill="#FACA88"/>
<path d="M35.332 23.7656L35.4727 23.9531L35.332 23.7656Z" fill="#F8DCBB"/>
<path d="M37.1875 23.7656L37.3281 23.9531L37.1875 23.7656Z" fill="#FCB144"/>
<path d="M29.4805 23.9625L29.6211 24.15L29.4805 23.9625Z" fill="#D3D079"/>
<path d="M30.6211 23.9625L30.7617 24.15L30.6211 23.9625ZM32.3367 23.9625L32.4773 24.15L32.3367 23.9625Z" fill="#FACA88"/>
<path d="M32.9062 23.9625L33.0469 24.15L32.9062 23.9625ZM35.332 23.9625L35.4727 24.15L35.332 23.9625Z" fill="#FAE3C9"/>
<path d="M37.3281 23.9625L37.4688 24.15L37.3281 23.9625Z" fill="#F8DCBB"/>
<path d="M38.6172 23.9625L38.7578 24.15L38.6172 23.9625Z" fill="#F2F1D7"/>
<path d="M39.0938 24.0844L39.143 24.2063L39.0938 24.0844Z" fill="#58587B"/>
<path d="M29.5234 24.2719L29.5797 24.4031L29.5305 24.2719H29.5234Z" fill="#D9D868"/>
<path d="M30.6211 24.15L30.7617 24.3375L30.6211 24.15Z" fill="#F8DCBB"/>
<path d="M35.1914 24.15L35.332 24.3375L35.1914 24.15Z" fill="#F9D6AA"/>
<path d="M35.332 24.15L35.4727 24.3375L35.332 24.15Z" fill="#FE9F11"/>
<path d="M37.3281 24.15L37.4688 24.3375L37.3281 24.15Z" fill="#FCB144"/>
<path d="M38.6641 24.2719L38.7133 24.4031L38.6641 24.2719Z" fill="#F2F1D2"/>
<path d="M30.6211 24.3375L30.7617 24.525L30.6211 24.3375Z" fill="#FCF1E4"/>
<path d="M35.0508 24.3375L35.1914 24.525L35.0508 24.3375Z" fill="#FEF8F1"/>
<path d="M35.1914 24.3375L35.332 24.525L35.1914 24.3375Z" fill="#FE9F11"/>
<path d="M35.6211 24.3375L35.4805 24.7125L35.6211 24.3375Z" fill="#FDAB33"/>
<path d="M35.7617 24.3375L35.9023 24.525L35.7617 24.3375Z" fill="#FCB755"/>
<path d="M37.4766 24.3375L37.6172 24.525L37.4766 24.3375Z" fill="#FEA522"/>
<path d="M37.6172 24.3375L37.7578 24.525L37.6172 24.3375Z" fill="#F9D099"/>
<path d="M39.043 24.3375L39.1836 24.525L39.043 24.3375Z" fill="#53527C"/>
<path d="M29.2422 24.6562L29.2914 24.7781L29.2422 24.6562Z" fill="#808067"/>
<path d="M30.7695 24.525L30.9102 24.7125L30.7695 24.525ZM31.1914 24.525L31.332 24.7125L31.1914 24.525Z" fill="#FEA522"/>
<path d="M32.7656 24.525L32.9062 24.7125L32.7656 24.525Z" fill="#FE9F11"/>
<path d="M35.0508 24.525L35.1914 24.7125L35.0508 24.525Z" fill="#FAE3C9"/>
<path d="M35.6211 24.525L35.7617 24.7125L35.6211 24.525Z" fill="#FEF8F1"/>
<path d="M35.9102 24.525L36.0508 24.7125L35.9102 24.525Z" fill="#FCB144"/>
<path d="M37.7578 24.525L37.8984 24.7125L37.7578 24.525Z" fill="#FCB755"/>
<path d="M37.8984 24.525L38.1797 24.9L37.8984 24.525Z" fill="#FEF8F1"/>
<path d="M38.6641 24.6562L38.7133 24.7781L38.6641 24.6562Z" fill="#E5E59D"/>
<path d="M39.0938 24.6562L39.143 24.7781L39.0938 24.6562Z" fill="#32327B"/>
<path d="M30.8164 24.8438L30.8586 24.975L30.8164 24.8438Z" fill="#FCB755"/>
<path d="M31.3398 24.7125L31.4805 24.9L31.3398 24.7125Z" fill="#FEF8F1"/>
<path d="M32.7656 24.7125L32.9062 24.9L32.7656 24.7125Z" fill="#FBBE66"/>
<path d="M35.0508 24.7125L35.1914 24.9L35.0508 24.7125Z" fill="#FBEAD6"/>
<path d="M35.332 24.7125L35.4727 24.9L35.332 24.7125Z" fill="#FE9F11"/>
<path d="M35.4805 24.7125L35.6211 24.9L35.4805 24.7125Z" fill="#FCF1E4"/>
<path d="M35.9102 24.7125L36.0508 24.9L35.9102 24.7125Z" fill="#FBEAD6"/>
<path d="M37.8984 24.7125L38.0391 24.9L37.8984 24.7125Z" fill="#FDAB33"/>
<path d="M29.1992 24.9L29.3398 25.0875L29.1992 24.9Z" fill="#666677"/>
<path d="M29.6211 24.9L29.7617 25.0875L29.6211 24.9Z" fill="#F6F6E4"/>
<path d="M31.3398 24.9L31.4805 25.0875L31.3398 24.9Z" fill="#F9D6AA"/>
<path d="M32.4766 24.9L32.6172 25.0875L32.4766 24.9Z" fill="#FDAB33"/>
<path d="M32.6172 24.9L32.7578 25.0875L32.6172 24.9Z" fill="#FE9F11"/>
<path d="M32.7656 24.9L32.9062 25.0875L32.7656 24.9Z" fill="#FCF1E4"/>
<path d="M35.1914 24.9L35.332 25.0875L35.1914 24.9Z" fill="#FEA522"/>
<path d="M35.332 24.9L35.4727 25.0875L35.332 24.9ZM36.0492 24.9L36.1898 25.0875L36.0492 24.9Z" fill="#FACA88"/>
<path d="M38.0391 24.9L38.1797 25.0875L38.0391 24.9Z" fill="#FCB144"/>
<path d="M38.6172 24.9L38.7578 25.0875L38.6172 24.9Z" fill="#DDDC7A"/>
<path d="M29.1992 25.0969L29.3398 25.2844L29.1992 25.0969Z" fill="#58587B"/>
<path d="M29.6211 25.0969L29.7617 25.2844L29.6211 25.0969Z" fill="#F2F1D2"/>
<path d="M30.8164 25.2188L30.8586 25.35L30.8164 25.2188Z" fill="#FCB144"/>
<path d="M31.3398 25.0969L31.4805 25.2844L31.3398 25.0969Z" fill="#FEA522"/>
<path d="M32.7656 25.0969L32.9062 25.2844L32.7656 25.0969Z" fill="#FEF8F1"/>
<path d="M32.9062 25.0969L33.0469 25.2844L32.9062 25.0969Z" fill="#FEA522"/>
<path d="M33.1875 25.0969L33.3281 25.2844L33.1875 25.0969Z" fill="#FCB144"/>
<path d="M33.3281 25.0969L33.4688 25.2844L33.3281 25.0969Z" fill="#FBEAD6"/>
<path d="M35.1914 25.0969L35.332 25.2844L35.1914 25.0969Z" fill="#F8DCBB"/>
<path d="M35.332 25.0969L35.4727 25.2844L35.332 25.0969Z" fill="#FCF1E4"/>
<path d="M36.0508 25.0969L36.1914 25.2844L36.0508 25.0969Z" fill="#FEF8F1"/>
<path d="M36.1914 25.0969L36.332 25.2844L36.1914 25.0969Z" fill="#FE9F11"/>
<path d="M38.1953 25.0969L38.3359 25.2844L38.1953 25.0969Z" fill="#FBEAD6"/>
<path d="M38.6172 25.0969L38.7578 25.2844L38.6172 25.0969Z" fill="#D9D868"/>
<path d="M29.1992 25.2844L29.3398 25.4719L29.1992 25.2844Z" fill="#3A3A7C"/>
<path d="M29.6211 25.2844L29.7617 25.4719L29.6211 25.2844Z" fill="#E5E3AF"/>
<path d="M31.4805 25.2844L31.6211 25.4719L31.4805 25.2844Z" fill="#FACA88"/>
<path d="M32.9062 25.2844L33.0469 25.4719L32.9062 25.2844Z" fill="#FBEAD6"/>
<path d="M33.3281 25.2844L33.4688 25.4719L33.3281 25.2844Z" fill="#FE9F11"/>
<path d="M33.4844 25.2844L33.625 25.4719L33.4844 25.2844Z" fill="#FCF1E4"/>
<path d="M35.0508 25.2844L35.1914 25.4719L35.0508 25.2844Z" fill="#FBEAD6"/>
<path d="M35.1914 25.2844L35.332 25.4719L35.1914 25.2844Z" fill="#FAE3C9"/>
<path d="M35.332 25.2844L35.4727 25.4719L35.332 25.2844Z" fill="#FBEAD6"/>
<path d="M36.1914 25.2844L36.332 25.4719L36.1914 25.2844ZM37.3375 25.2844L37.4781 25.4719L37.3375 25.2844Z" fill="#FBBE66"/>
<path d="M37.4766 25.2844L37.6172 25.4719L37.4766 25.2844Z" fill="#FCF1E4"/>
<path d="M37.6172 25.2844L37.7578 25.4719L37.6172 25.2844Z" fill="#FEF8F1"/>
<path d="M37.7578 25.2844L37.8984 25.4719L37.7578 25.2844Z" fill="#F8DCBB"/>
<path d="M37.8984 25.2844L38.0391 25.4719L37.8984 25.2844Z" fill="#FCB755"/>
<path d="M38.1953 25.2844L38.3359 25.4719L38.1953 25.2844Z" fill="#FAE3C9"/>
<path d="M38.9023 25.2844L39.043 25.4719L38.9023 25.2844Z" fill="#808067"/>
<path d="M29.1992 25.4813L29.3398 25.6688L29.1992 25.4813Z" fill="#32327B"/>
<path d="M29.3828 25.5938L29.432 25.7344L29.3898 25.6031L29.3828 25.5938Z" fill="#A4A43D"/>
<path d="M29.6211 25.4813L29.7617 25.6688L29.6211 25.4813Z" fill="#E5E59D"/>
<path d="M30.7695 25.4813L30.9102 25.6688L30.7695 25.4813Z" fill="#FBC477"/>
<path d="M31.625 25.4813L31.7656 25.6688L31.625 25.4813Z" fill="#F9D6AA"/>
<path d="M33.0469 25.4812L33.1875 25.6687L33.0469 25.4812Z" fill="#FBBE66"/>
<path d="M33.4844 25.4813L33.625 25.6688L33.4844 25.4813Z" fill="#F9D099"/>
<path d="M34.7617 25.4813L34.9023 25.6688L34.7617 25.4813Z" fill="#FAE3C9"/>
<path d="M34.9102 25.4812L35.0508 25.6687L34.9102 25.4812Z" fill="#FCB144"/>
<path d="M35.4805 25.4813L35.6211 25.6688L35.4805 25.4813Z" fill="#FAE3C9"/>
<path d="M36.1914 25.4813L36.332 25.6688L36.1914 25.4813Z" fill="#F8DCBB"/>
<path d="M37.3281 25.4813L37.4688 25.6688L37.3281 25.4813Z" fill="#F9D099"/>
<path d="M38.0391 25.4812L38.1797 25.6687L38.0391 25.4812Z" fill="#FBC477"/>
<path d="M38.1953 25.4813L38.3359 25.6688L38.1953 25.4813Z" fill="#FBEAD6"/>
<path d="M38.9023 25.4813L39.043 25.6688L38.9023 25.4813Z" fill="#737370"/>
<path d="M29.6211 25.6688L29.7617 25.8563L29.6211 25.6688Z" fill="#D9D868"/>
<path d="M30.7695 25.6688L30.9102 25.8563L30.7695 25.6688Z" fill="#F9D099"/>
<path d="M31.7656 25.6688L31.9062 25.8563L31.7656 25.6688ZM33.0523 25.6688L33.193 25.8563L33.0523 25.6688Z" fill="#F9D6AA"/>
<path d="M33.4844 25.6688L33.625 25.8563L33.4844 25.6688Z" fill="#FBC477"/>
<path d="M34.1914 25.6688L34.332 25.8563L34.1914 25.6688Z" fill="#FEF8F1"/>
<path d="M34.332 25.6688L34.4727 25.8563L34.332 25.6688Z" fill="#F8DCBB"/>
<path d="M34.4805 25.6688L34.6211 25.8563L34.4805 25.6688Z" fill="#FBC477"/>
<path d="M34.6211 25.6688L34.7617 25.8563L34.6211 25.6688Z" fill="#FEA522"/>
<path d="M35.4805 25.6688L35.6211 25.8563L35.4805 25.6688Z" fill="#FBEAD6"/>
<path d="M38.4766 25.6688L38.6172 25.8563L38.4766 25.6688Z" fill="#F2F1D2"/>
<path d="M38.9023 25.6688L39.043 25.8563L38.9023 25.6688Z" fill="#58587B"/>
<path d="M29.3398 25.8563L29.4805 26.0438L29.3398 25.8563Z" fill="#99994E"/>
<path d="M29.6211 25.8563L29.7617 26.0438L29.6211 25.8563Z" fill="#D0D045"/>
<path d="M31.9141 25.8563L32.0547 26.0438L31.9141 25.8563Z" fill="#FCB144"/>
<path d="M32.0547 25.8563L32.1953 26.0438L32.0547 25.8563Z" fill="#FAE3C9"/>
<path d="M33.0469 25.8562L33.1875 26.0437L33.0469 25.8562Z" fill="#FEF8F1"/>
<path d="M33.625 25.8563L33.7656 26.0438L33.625 25.8563Z" fill="#FCB755"/>
<path d="M33.7656 25.8563L33.9062 26.0438L33.7656 25.8563Z" fill="#FBC477"/>
<path d="M33.9102 25.8563L34.0508 26.0438L33.9102 25.8563Z" fill="#FCB144"/>
<path d="M34.0508 25.8563L34.1914 26.0438L34.0508 25.8563Z" fill="#FEA522"/>
<path d="M35.1914 25.8562L35.332 26.0437L35.1914 25.8562Z" fill="#FE9F11"/>
<path d="M35.332 25.8562L35.4727 26.0437L35.332 25.8562Z" fill="#F9D6AA"/>
<path d="M37.3281 25.8563L37.4688 26.0438L37.3281 25.8563Z" fill="#FEF8F1"/>
<path d="M38.4766 25.8563L38.6172 26.0438L38.4766 25.8563Z" fill="#E0DEA1"/>
<path d="M38.9023 25.8563L39.043 26.0438L38.9023 25.8563Z" fill="#3A3A7C"/>
<path d="M29.3398 26.0531L29.4805 26.2406L29.3398 26.0531Z" fill="#737370"/>
<path d="M29.7695 26.0531L29.9102 26.2406L29.7695 26.0531Z" fill="#FBFAF2"/>
<path d="M30.9102 26.0531L31.0508 26.2406L30.9102 26.0531Z" fill="#FEA522"/>
<path d="M32.1953 26.0531L32.3359 26.2406L32.1953 26.0531Z" fill="#FE9F11"/>
<path d="M32.3359 26.0531L32.4766 26.2406L32.3359 26.0531Z" fill="#FCB144"/>
<path d="M32.4766 26.0531L32.6172 26.2406L32.4766 26.0531Z" fill="#FBC477"/>
<path d="M32.6172 26.0531L32.7578 26.2406L32.6172 26.0531Z" fill="#FACA88"/>
<path d="M32.7656 26.0531L32.9062 26.2406L32.7656 26.0531Z" fill="#FBC477"/>
<path d="M32.9062 26.0531L33.0469 26.2406L32.9062 26.0531Z" fill="#FCB144"/>
<path d="M33.0469 26.0531L33.1875 26.2406L33.0469 26.0531Z" fill="#FDAB33"/>
<path d="M35.0508 26.0531L35.1914 26.2406L35.0508 26.0531Z" fill="#FBC477"/>
<path d="M35.1914 26.0531L35.332 26.2406L35.1914 26.0531Z" fill="#FEF8F1"/>
<path d="M37.1875 26.0531L37.3281 26.2406L37.1875 26.0531Z" fill="#FDAB33"/>
<path d="M38.4766 26.0531L38.6172 26.2406L38.4766 26.0531Z" fill="#E1E18C"/>
<path d="M38.8047 26.175L38.8539 26.3062L38.8047 26.175Z" fill="#A4A43D"/>
<path d="M38.9023 26.0531L39.043 26.2406L38.9023 26.0531Z" fill="#262678"/>
<path d="M29.3398 26.2406L29.4805 26.4281L29.3398 26.2406Z" fill="#58587B"/>
<path d="M29.7695 26.2406L29.9102 26.4281L29.7695 26.2406Z" fill="#F2F1D2"/>
<path d="M30.9102 26.2406L31.0508 26.4281L30.9102 26.2406Z" fill="#FACA88"/>
<path d="M34.7617 26.2406L34.9023 26.4281L34.7617 26.2406Z" fill="#FE9F11"/>
<path d="M34.9102 26.2406L35.0508 26.4281L34.9102 26.2406Z" fill="#FBEAD6"/>
<path d="M36.1914 26.2406L36.332 26.4281L36.1914 26.2406Z" fill="#FBC477"/>
<path d="M37.1875 26.2406L37.3281 26.4281L37.1875 26.2406Z" fill="#FACA88"/>
<path d="M38.4766 26.2406L38.6172 26.4281L38.4766 26.2406Z" fill="#D4D456"/>
<path d="M29.3398 26.4281L29.4805 26.6156L29.3398 26.4281Z" fill="#32327B"/>
<path d="M29.7695 26.4281L29.9102 26.6156L29.7695 26.4281Z" fill="#E5E59D"/>
<path d="M30.9102 26.4281L31.0508 26.6156L30.9102 26.4281Z" fill="#FEF8F1"/>
<path d="M31.0508 26.4281L31.1914 26.6156L31.0508 26.4281Z" fill="#FE9F11"/>
<path d="M34.7617 26.4281L34.9023 26.6156L34.7617 26.4281Z" fill="#FBEAD6"/>
<path d="M36.1914 26.4281L36.332 26.6156L36.1914 26.4281Z" fill="#FEA522"/>
<path d="M37.1875 26.4281L37.3281 26.6156L37.1875 26.4281Z" fill="#FCF1E4"/>
<path d="M38.7617 26.4281L38.9023 26.6156L38.7617 26.4281Z" fill="#808067"/>
<path d="M29.3398 26.6156L29.4805 26.8031L29.3398 26.6156Z" fill="#0E0E6E"/>
<path d="M29.4805 26.6156L29.6211 26.8031L29.4805 26.6156Z" fill="#A4A43D"/>
<path d="M29.7695 26.6156L29.9102 26.8031L29.7695 26.6156Z" fill="#D9D868"/>
<path d="M31.0508 26.6156L31.1914 26.8031L31.0508 26.6156Z" fill="#F8DCBB"/>
<path d="M36.0508 26.6156L36.1914 26.8031L36.0508 26.6156Z" fill="#F9D6AA"/>
<path d="M37.0469 26.6156L37.1875 26.8031L37.0469 26.6156Z" fill="#FACA88"/>
<path d="M38.3359 26.6156L38.4766 26.8031L38.3359 26.6156Z" fill="#F2F1D2"/>
<path d="M38.7617 26.6156L38.9023 26.8031L38.7617 26.6156Z" fill="#58587B"/>
<path d="M29.4805 26.8125L29.6211 27L29.4805 26.8125Z" fill="#8D8D5B"/>
<path d="M31.1992 26.8125L31.3398 27L31.1992 26.8125Z" fill="#F9D6AA"/>
<path d="M34.0508 26.8125L34.1914 27L34.0508 26.8125Z" fill="#FDAB33"/>
<path d="M34.1914 26.8125L34.332 27L34.1914 26.8125Z" fill="white"/>
<path d="M34.4336 26.8687L34.532 26.9344L34.4336 26.8687Z" fill="#FCB144"/>
<path d="M35.9102 26.8125L35.7695 27.1875L35.9102 26.8125Z" fill="#FEF8F1"/>
<path d="M36.0508 26.8125L36.1914 27L36.0508 26.8125Z" fill="#FE9F11"/>
<path d="M36.9062 26.8125L36.7656 27.1875L36.9062 26.8125Z" fill="#FDAB33"/>
<path d="M38.3359 26.8125L38.4766 27L38.3359 26.8125Z" fill="#E5E59D"/>
<path d="M38.7617 26.8125L38.9023 27L38.7617 26.8125Z" fill="#3A3A7C"/>
<path d="M29.4805 27L29.6211 27.1875L29.4805 27Z" fill="#666677"/>
<path d="M29.9102 27L30.0508 27.1875L29.9102 27Z" fill="#F2F1D2"/>
<path d="M31.3398 27L31.4805 27.1875L31.3398 27Z" fill="#F9D6AA"/>
<path d="M34.0508 27L34.1914 27.1875L34.0508 27Z" fill="#FE9F11"/>
<path d="M34.1914 27L34.332 27.1875L34.1914 27Z" fill="#FACA88"/>
<path d="M34.332 27L34.4727 27.1875L34.332 27Z" fill="#FEA522"/>
<path d="M34.4805 27L34.6211 27.1875L34.4805 27Z" fill="#FCF1E4"/>
<path d="M35.9102 27L36.0508 27.1875L35.9102 27Z" fill="#FDAB33"/>
<path d="M36.9062 27L37.0469 27.1875L36.9062 27Z" fill="#FEF8F1"/>
<path d="M38.3359 27L38.4766 27.1875L38.3359 27Z" fill="#D9D868"/>
<path d="M38.6172 27L38.7578 27.1875L38.6172 27Z" fill="#A4A43D"/>
<path d="M38.7617 27L38.9023 27.1875L38.7617 27Z" fill="#0E0E6E"/>
<path d="M29.4805 27.1875L29.6211 27.375L29.4805 27.1875Z" fill="#3A3A7C"/>
<path d="M29.9102 27.1875L30.0508 27.375L29.9102 27.1875Z" fill="#E5E59D"/>
<path d="M31.4805 27.1875L31.7617 27.5625L31.4805 27.1875Z" fill="#FAE3C9"/>
<path d="M31.625 27.1875L31.7656 27.375L31.625 27.1875Z" fill="#FE9F11"/>
<path d="M34.332 27.1875L34.4727 27.375L34.332 27.1875Z" fill="#F8DCBB"/>
<path d="M35.6211 27.1875L35.7617 27.375L35.6211 27.1875Z" fill="#FCF1E4"/>
<path d="M35.7617 27.1875L35.9023 27.375L35.7617 27.1875Z" fill="#FDAB33"/>
<path d="M36.625 27.1875L36.7656 27.375L36.625 27.1875Z" fill="#FCB144"/>
<path d="M36.7656 27.1875L36.9062 27.375L36.7656 27.1875Z" fill="#FEF8F1"/>
<path d="M38.1953 27.1875L38.3359 27.375L38.1953 27.1875Z" fill="#FBFAF2"/>
<path d="M38.6172 27.1875L38.7578 27.375L38.6172 27.1875Z" fill="#8D8D5B"/>
<path d="M29.4805 27.375L29.6211 27.5625L29.4805 27.375Z" fill="#0E0E6E"/>
<path d="M29.6211 27.375L29.7617 27.5625L29.6211 27.375Z" fill="#A4A43D"/>
<path d="M29.9102 27.375L30.0508 27.5625L29.9102 27.375Z" fill="#D4D456"/>
<path d="M34.1914 27.375L34.332 27.5625L34.1914 27.375Z" fill="#F9D6AA"/>
<path d="M35.4805 27.375L35.6211 27.5625L35.4805 27.375Z" fill="#F9D099"/>
<path d="M35.6211 27.375L35.7617 27.5625L35.6211 27.375Z" fill="#FE9F11"/>
<path d="M36.4766 27.375L36.6172 27.5625L36.4766 27.375Z" fill="#FACA88"/>
<path d="M38.1953 27.375L38.3359 27.5625L38.1953 27.375Z" fill="#EEEDC1"/>
<path d="M38.6172 27.375L38.7578 27.5625L38.6172 27.375Z" fill="#58587B"/>
<path d="M29.6211 27.5625L29.7617 27.75L29.6211 27.5625Z" fill="#737370"/>
<path d="M30.0508 27.5625L30.1914 27.75L30.0508 27.5625Z" fill="#F6F6E4"/>
<path d="M31.625 27.5625L31.7656 27.75L31.625 27.5625Z" fill="#FBBE66"/>
<path d="M33.9102 27.5625L34.0508 27.75L33.9102 27.5625Z" fill="#FCB144"/>
<path d="M34.0938 27.7031L34.143 27.825L34.0938 27.7031Z" fill="#F8DCBB"/>
<path d="M35.1914 27.5625L35.332 27.75L35.1914 27.5625Z" fill="#FBBE66"/>
<path d="M35.332 27.5625L35.4727 27.75L35.332 27.5625Z" fill="#FE9F11"/>
<path d="M36.1914 27.5625L36.332 27.75L36.1914 27.5625Z" fill="#FBC477"/>
<path d="M36.3359 27.5625L36.4766 27.75L36.3359 27.5625Z" fill="#FCF1E4"/>
<path d="M38.1953 27.5625L38.3359 27.75L38.1953 27.5625Z" fill="#D3D079"/>
<path d="M38.4766 27.5625L38.6172 27.75L38.4766 27.5625Z" fill="#A4A43D"/>
<path d="M38.6172 27.5625L38.7578 27.75L38.6172 27.5625Z" fill="#262678"/>
<path d="M29.6211 27.75L29.7617 27.9375L29.6211 27.75Z" fill="#49497D"/>
<path d="M30.0508 27.75L30.1914 27.9375L30.0508 27.75Z" fill="#E0DEA1"/>
<path d="M31.4805 27.75L31.6211 27.9375L31.4805 27.75Z" fill="#FAE3C9"/>
<path d="M33.4844 27.75L33.625 27.9375L33.4844 27.75Z" fill="#FDAB33"/>
<path d="M33.625 27.75L33.7656 27.9375L33.625 27.75Z" fill="#FBC477"/>
<path d="M33.7656 27.75L33.9062 27.9375L33.7656 27.75Z" fill="#FBEAD6"/>
<path d="M34.1914 27.75L34.332 27.9375L34.1914 27.75Z" fill="#FCB144"/>
<path d="M36.0508 27.75L36.1914 27.9375L36.0508 27.75Z" fill="#F9D6AA"/>
<path d="M38.4766 27.75L38.6172 27.9375L38.4766 27.75Z" fill="#99994E"/>
<path d="M29.6211 27.9562L29.7617 28.1437L29.6211 27.9562Z" fill="#0E0E6E"/>
<path d="M29.7695 27.9562L29.9102 28.1437L29.7695 27.9562Z" fill="#A4A43D"/>
<path d="M30.0508 27.9562L30.1914 28.1437L30.0508 27.9562Z" fill="#D4D456"/>
<path d="M31.3398 27.9562L31.4805 28.1437L31.3398 27.9562Z" fill="#F9D099"/>
<path d="M31.4805 27.9562L31.6211 28.1437L31.4805 27.9562ZM32.1977 27.9562L32.3383 28.1437L32.1977 27.9562Z" fill="#FE9F11"/>
<path d="M32.3359 27.9562L32.4766 28.1437L32.3359 27.9562Z" fill="#F9D6AA"/>
<path d="M32.4766 27.9562L32.6172 28.1437L32.4766 27.9562Z" fill="#F9D099"/>
<path d="M33.0469 27.9563L33.1875 28.1438L33.0469 27.9563Z" fill="#F9D6AA"/>
<path d="M33.1875 27.9563L33.3281 28.1438L33.1875 27.9563Z" fill="#FAE3C9"/>
<path d="M33.3281 27.9563L33.4688 28.1438L33.3281 27.9563Z" fill="#FEF8F1"/>
<path d="M34.4805 27.9562L34.6211 28.1437L34.4805 27.9562Z" fill="#FBEAD6"/>
<path d="M34.6211 27.9562L34.7617 28.1437L34.6211 27.9562Z" fill="#FAE3C9"/>
<path d="M34.7617 27.9562L34.9023 28.1437L34.7617 27.9562Z" fill="#FACA88"/>
<path d="M34.9102 27.9563L35.0508 28.1438L34.9102 27.9563Z" fill="#FBC477"/>
<path d="M35.0508 27.9563L35.1914 28.1438L35.0508 27.9563Z" fill="#FDAB33"/>
<path d="M35.7617 27.9562L35.9023 28.1437L35.7617 27.9562Z" fill="#FE9F11"/>
<path d="M35.9102 27.9562L36.0508 28.1437L35.9102 27.9562Z" fill="#F9D6AA"/>
<path d="M38.0391 27.9563L38.1797 28.1438L38.0391 27.9563Z" fill="#E5E3AF"/>
<path d="M38.4766 27.9562L38.6172 28.1437L38.4766 27.9562Z" fill="#666677"/>
<path d="M29.7695 28.1437L29.9102 28.3312L29.7695 28.1437Z" fill="#737370"/>
<path d="M30.1992 28.1438L30.3398 28.3313L30.1992 28.1438Z" fill="#F2F1D7"/>
<path d="M31.1992 28.1437L31.3398 28.3312L31.1992 28.1437Z" fill="#FEA522"/>
<path d="M31.9141 28.1437L32.0547 28.3312L31.9141 28.1437Z" fill="#FE9F11"/>
<path d="M32.0547 28.1437L32.1953 28.3312L32.0547 28.1437Z" fill="#FBBE66"/>
<path d="M32.1953 28.1437L32.3359 28.3312L32.1953 28.1437Z" fill="#FCF1E4"/>
<path d="M35.6211 28.1437L35.7617 28.3312L35.6211 28.1437Z" fill="#FEA522"/>
<path d="M35.7617 28.1437L35.9023 28.3312L35.7617 28.1437Z" fill="#FBEAD6"/>
<path d="M38.0391 28.1438L38.1797 28.3313L38.0391 28.1438Z" fill="#DDDC7A"/>
<path d="M38.3359 28.1437L38.4766 28.3312L38.3359 28.1437Z" fill="#A4A43D"/>
<path d="M38.4766 28.1437L38.6172 28.3312L38.4766 28.1437Z" fill="#262678"/>
<path d="M29.7695 28.3312L29.9102 28.5187L29.7695 28.3312Z" fill="#49497D"/>
<path d="M29.9531 28.4625L30.0094 28.5844L29.9531 28.4625Z" fill="#A4A43D"/>
<path d="M30.1992 28.3313L30.3398 28.5188L30.1992 28.3313Z" fill="#D3D079"/>
<path d="M31.3398 28.3312L31.4805 28.5187L31.3398 28.3312Z" fill="#F9D099"/>
<path d="M31.4805 28.3312L31.6211 28.5187L31.4805 28.3312Z" fill="#FCB144"/>
<path d="M31.625 28.3312L31.7656 28.5187L31.625 28.3312Z" fill="#FACA88"/>
<path d="M31.7656 28.3312L31.9062 28.5187L31.7656 28.3312Z" fill="#F8DCBB"/>
<path d="M31.9141 28.3312L32.0547 28.5187L31.9141 28.3312Z" fill="#FEF8F1"/>
<path d="M35.0508 28.3313L35.1914 28.5188L35.0508 28.3313Z" fill="#F8DCBB"/>
<path d="M35.6211 28.3312L35.7617 28.5187L35.6211 28.3312Z" fill="#FCF1E4"/>
<path d="M37.8984 28.3313L38.0391 28.5188L37.8984 28.3313Z" fill="#F6F6E4"/>
<path d="M38.3359 28.3312L38.4766 28.5187L38.3359 28.3312Z" fill="#8D8D5B"/>
<path d="M30.3398 28.5188L30.4805 28.7063L30.3398 28.5188Z" fill="#FBFAF2"/>
<path d="M35.0508 28.5188L35.1914 28.7063L35.0508 28.5188Z" fill="#FBBE66"/>
<path d="M35.4805 28.5187L35.6211 28.7062L35.4805 28.5187Z" fill="#FACA88"/>
<path d="M37.8984 28.5188L38.0391 28.7063L37.8984 28.5188Z" fill="#E1E18C"/>
<path d="M38.3359 28.5187L38.4766 28.7062L38.3359 28.5187Z" fill="#49497D"/>
<path d="M29.9102 28.7156L30.0508 28.9031L29.9102 28.7156Z" fill="#58587B"/>
<path d="M30.3398 28.7156L30.4805 28.9031L30.3398 28.7156Z" fill="#E5E59D"/>
<path d="M35.0508 28.7156L35.1914 28.9031L35.0508 28.7156Z" fill="#FE9F11"/>
<path d="M35.332 28.7156L35.4727 28.9031L35.332 28.7156Z" fill="#FDAB33"/>
<path d="M37.7578 28.7156L37.8984 28.9031L37.7578 28.7156Z" fill="#FBFAF2"/>
<path d="M38.1953 28.7156L38.3359 28.9031L38.1953 28.7156Z" fill="#A4A43D"/>
<path d="M38.3359 28.7156L38.4766 28.9031L38.3359 28.7156Z" fill="#0E0E6E"/>
<path d="M29.9102 28.9031L30.0508 29.0906L29.9102 28.9031Z" fill="#1B1B74"/>
<path d="M30.0508 28.9031L30.1914 29.0906L30.0508 28.9031Z" fill="#A4A43D"/>
<path d="M30.3398 28.9031L30.4805 29.0906L30.3398 28.9031Z" fill="#D0D045"/>
<path d="M34.9102 28.9031L35.0508 29.0906L34.9102 28.9031Z" fill="#FBEAD6"/>
<path d="M35.1914 28.9031L35.332 29.0906L35.1914 28.9031Z" fill="#FE9F11"/>
<path d="M35.332 28.9031L35.4727 29.0906L35.332 28.9031Z" fill="#FBEAD6"/>
<path d="M37.7578 28.9031L37.8984 29.0906L37.7578 28.9031Z" fill="#E5E59D"/>
<path d="M38.1953 28.9031L38.3359 29.0906L38.1953 28.9031Z" fill="#666677"/>
<path d="M30.0508 29.0906L30.1914 29.2781L30.0508 29.0906Z" fill="#6E6C70"/>
<path d="M30.4805 29.0906L30.6211 29.2781L30.4805 29.0906Z" fill="#E5E3AF"/>
<path d="M34.9453 29.2219L35.0016 29.3531L34.9453 29.2219Z" fill="#FACA88"/>
<path d="M35.1914 29.0906L35.332 29.2781L35.1914 29.0906Z" fill="#FAE3C9"/>
<path d="M37.6172 29.0906L37.7578 29.2781L37.6172 29.0906Z" fill="#FBFAF2"/>
<path d="M38.0391 29.0906L38.1797 29.2781L38.0391 29.0906Z" fill="#A4A43D"/>
<path d="M38.193 29.0906L38.3336 29.2781L38.193 29.0906ZM30.0508 29.2781L30.1914 29.4656L30.0508 29.2781Z" fill="#1B1B74"/>
<path d="M30.1992 29.2875L30.3398 29.475L30.1992 29.2875Z" fill="#A4A43D"/>
<path d="M30.4805 29.2875L30.6211 29.475L30.4805 29.2875Z" fill="#D0D045"/>
<path d="M30.6211 29.2875L30.7617 29.475L30.6211 29.2875Z" fill="#FBFAF2"/>
<path d="M35.0508 29.2875L35.1914 29.475L35.0508 29.2875Z" fill="#F9D6AA"/>
<path d="M37.6172 29.2875L37.7578 29.475L37.6172 29.2875Z" fill="#E5E59D"/>
<path d="M38.0391 29.2875L38.1797 29.475L38.0391 29.2875ZM30.1992 29.475L30.3398 29.6625L30.1992 29.475Z" fill="#6E6C70"/>
<path d="M30.6211 29.475L30.7617 29.6625L30.6211 29.475Z" fill="#8CBF84"/>
<path d="M30.6836 29.475C31.1758 30.8625 32.9336 34.1438 34.2695 34.0875C35.5773 34.0219 37.0469 30.8063 37.6164 29.475H30.6836Z" fill="#00CCFF"/>
<path d="M37.8984 29.475L38.0391 29.6625L37.8984 29.475Z" fill="#A4A43D"/>
<path d="M38.0391 29.475L38.1797 29.6625L38.0391 29.475ZM30.1992 29.6625L30.3398 29.85L30.1992 29.6625Z" fill="#1B1B74"/>
<path d="M30.3398 29.6625L30.4805 29.85L30.3398 29.6625Z" fill="#A4A43D"/>
<path d="M30.6211 29.6625L30.7617 29.85L30.6211 29.6625Z" fill="#ADB333"/>
<path d="M30.7695 29.6625L30.9102 29.85L30.7695 29.6625Z" fill="#1AC5B5"/>
<path d="M37.4766 29.6625L37.6172 29.85L37.4766 29.6625Z" fill="#68B070"/>
<path d="M37.8984 29.6625L38.0391 29.85L37.8984 29.6625Z" fill="#666677"/>
<path d="M30.3398 29.8594L30.4805 30.0469L30.3398 29.8594Z" fill="#58587B"/>
<path d="M30.7695 29.8594L30.9102 30.0469L30.7695 29.8594Z" fill="#7FB15C"/>
<path d="M37.3281 29.8594L37.4688 30.0469L37.3281 29.8594Z" fill="#27C2AA"/>
<path d="M37.7578 29.8594L37.6172 30.2344L37.7578 29.8594Z" fill="#A4A43D"/>
<path d="M37.8984 29.8594L38.0391 30.0469L37.8984 29.8594ZM30.3398 30.0469L30.4805 30.2344L30.3398 30.0469Z" fill="#0E0E6E"/>
<path d="M30.4805 30.0469L30.7617 30.4219L30.4805 30.0469Z" fill="#A4A43D"/>
<path d="M30.9102 30.0469L31.0508 30.2344L30.9102 30.0469Z" fill="#34BE9E"/>
<path d="M37.3281 30.0469L37.4688 30.2344L37.3281 30.0469Z" fill="#96B247"/>
<path d="M37.7578 30.0469L37.8984 30.2344L37.7578 30.0469Z" fill="#53527C"/>
<path d="M30.4805 30.2438L30.6211 30.4313L30.4805 30.2438Z" fill="#3A3A7C"/>
<path d="M30.9102 30.2437L31.0508 30.4312L30.9102 30.2437Z" fill="#A2B23D"/>
<path d="M31.0508 30.2437L31.1914 30.4312L31.0508 30.2437Z" fill="#0DC9C1"/>
<path d="M37.1875 30.2437L37.3281 30.4312L37.1875 30.2437Z" fill="#5BB47C"/>
<path d="M37.6172 30.2438L37.7578 30.4313L37.6172 30.2438Z" fill="#8D8D5B"/>
<path d="M30.6211 30.4313L30.7617 30.6188L30.6211 30.4313Z" fill="#737370"/>
<path d="M31.0508 30.4312L31.1914 30.6187L31.0508 30.4312Z" fill="#74B166"/>
<path d="M37.0469 30.4312L37.1875 30.6187L37.0469 30.4312Z" fill="#27C2AA"/>
<path d="M37.4766 30.4313L37.3359 30.8063L37.4766 30.4313Z" fill="#A4A43D"/>
<path d="M37.6172 30.4313L37.7578 30.6188L37.6172 30.4313Z" fill="#262678"/>
<path d="M30.6211 30.6188L30.7617 30.8063L30.6211 30.6188Z" fill="#0E0E6E"/>
<path d="M30.7695 30.6187L31.0508 30.9937L30.7695 30.6187Z" fill="#A4A43D"/>
<path d="M31.1992 30.6187L31.3398 30.8062L31.1992 30.6187Z" fill="#42BB92"/>
<path d="M36.9062 30.6187L37.0469 30.8062L36.9062 30.6187Z" fill="#0DC9C1"/>
<path d="M37.0469 30.6187L37.1875 30.8062L37.0469 30.6187Z" fill="#96B247"/>
<path d="M37.4766 30.6188L37.6172 30.8063L37.4766 30.6188Z" fill="#58587B"/>
<path d="M30.7695 30.8062L30.9102 30.9937L30.7695 30.8062Z" fill="#3A3A7C"/>
<path d="M31.1992 30.8062L31.3398 30.9937L31.1992 30.8062Z" fill="#ADB333"/>
<path d="M31.3398 30.8062L31.4805 30.9937L31.3398 30.8062Z" fill="#27C2AA"/>
<path d="M36.9062 30.8062L37.0469 30.9937L36.9062 30.8062Z" fill="#74B166"/>
<path d="M37.3281 30.8062L37.4688 30.9937L37.3281 30.8062Z" fill="#8D8D5B"/>
<path d="M30.9102 30.9937L31.0508 31.1812L30.9102 30.9937Z" fill="#6E6C70"/>
<path d="M31.3398 30.9937L31.4805 31.1812L31.3398 30.9937Z" fill="#96B247"/>
<path d="M31.4805 30.9937L31.6211 31.1812L31.4805 30.9937Z" fill="#0DC9C1"/>
<path d="M36.7656 30.9937L36.9062 31.1812L36.7656 30.9937Z" fill="#42BB92"/>
<path d="M37.1875 30.9937L36.9062 31.5562L37.1875 30.9937Z" fill="#A4A43D"/>
<path d="M37.3281 30.9937L37.4688 31.1812L37.3281 30.9937Z" fill="#1B1B74"/>
<path d="M30.9102 31.1812L31.0508 31.3687L30.9102 31.1812Z" fill="#0E0E6E"/>
<path d="M31.0508 31.1812L31.1914 31.3687L31.0508 31.1812Z" fill="#8D8D5B"/>
<path d="M31.4805 31.1812L31.6211 31.3687L31.4805 31.1812Z" fill="#7FB15C"/>
<path d="M36.625 31.1812L36.7656 31.3687L36.625 31.1812Z" fill="#34BE9E"/>
<path d="M37.1875 31.1812L37.3281 31.3687L37.1875 31.1812Z" fill="#3A3A7C"/>
<path d="M31.0508 31.3781L31.1914 31.5656L31.0508 31.3781Z" fill="#1B1B74"/>
<path d="M31.1992 31.3781L32.7672 33.4687L31.1992 31.3781Z" fill="#A4A43D"/>
<path d="M31.625 31.3781L31.7656 31.5656L31.625 31.3781Z" fill="#74B166"/>
<path d="M36.4766 31.3781L36.6172 31.5656L36.4766 31.3781Z" fill="#27C2AA"/>
<path d="M36.625 31.3781L36.7656 31.5656L36.625 31.3781Z" fill="#ADB333"/>
<path d="M37.0469 31.3781L37.1875 31.5656L37.0469 31.3781Z" fill="#666677"/>
<path d="M31.1992 31.5656L31.3398 31.7531L31.1992 31.5656Z" fill="#32327B"/>
<path d="M31.7656 31.5656L31.9062 31.7531L31.7656 31.5656Z" fill="#42BB92"/>
<path d="M36.3383 31.5656L35.7617 32.5219L36.3453 31.5562L36.3383 31.5656Z" fill="#0DC9C1"/>
<path d="M36.4766 31.5656L36.6172 31.7531L36.4766 31.5656Z" fill="#ADB333"/>
<path d="M36.9062 31.5656L37.0469 31.7531L36.9062 31.5656Z" fill="#737370"/>
<path d="M31.3398 31.7625L31.4805 31.95L31.3398 31.7625Z" fill="#49497D"/>
<path d="M31.9141 31.7625L32.0547 31.95L31.9141 31.7625Z" fill="#42BB92"/>
<path d="M36.3359 31.7625L36.4766 31.95L36.3359 31.7625Z" fill="#96B247"/>
<path d="M36.7656 31.7625L36.625 32.1375L36.7656 31.7625Z" fill="#8D8D5B"/>
<path d="M36.9062 31.7625L37.0469 31.95L36.9062 31.7625Z" fill="#0E0E6E"/>
<path d="M31.4805 31.95L31.6211 32.1375L31.4805 31.95Z" fill="#53527C"/>
<path d="M32.0547 31.95L32.1953 32.1375L32.0547 31.95Z" fill="#42BB92"/>
<path d="M36.1914 31.95L36.332 32.1375L36.1914 31.95Z" fill="#96B247"/>
<path d="M36.7656 31.95L36.9062 32.1375L36.7656 31.95Z" fill="#0E0E6E"/>
<path d="M31.625 32.1375L31.7656 32.325L31.625 32.1375Z" fill="#6E6C70"/>
<path d="M32.1953 32.1375L32.3359 32.325L32.1953 32.1375Z" fill="#42BB92"/>
<path d="M36.0508 32.1375L36.1914 32.325L36.0508 32.1375Z" fill="#96B247"/>
<path d="M36.4766 32.1375L36.1953 32.7L36.4766 32.1375Z" fill="#A4A43D"/>
<path d="M36.625 32.1375L36.7656 32.325L36.625 32.1375Z" fill="#262678"/>
<path d="M31.7656 32.3344L31.9062 32.5219L31.7656 32.3344Z" fill="#6E6C70"/>
<path d="M32.3359 32.3344L32.4766 32.5219L32.3359 32.3344Z" fill="#42BB92"/>
<path d="M35.9102 32.3344L36.0508 32.5219L35.9102 32.3344Z" fill="#96B247"/>
<path d="M36.4766 32.3344L36.6172 32.5219L36.4766 32.3344Z" fill="#262678"/>
<path d="M31.9141 32.5219L32.0547 32.7094L31.9141 32.5219Z" fill="#6E6C70"/>
<path d="M32.4766 32.5219L32.6172 32.7094L32.4766 32.5219Z" fill="#68B070"/>
<path d="M35.6211 32.5219L35.7617 32.7094L35.6211 32.5219Z" fill="#27C2AA"/>
<path d="M35.7617 32.5219L35.9023 32.7094L35.7617 32.5219Z" fill="#ADB333"/>
<path d="M36.3359 32.5219L36.4766 32.7094L36.3359 32.5219Z" fill="#262678"/>
<path d="M32.0547 32.7094L32.1953 32.8969L32.0547 32.7094Z" fill="#666677"/>
<path d="M32.6172 32.7094L32.7578 32.8969L32.6172 32.7094Z" fill="#74B166"/>
<path d="M35.4805 32.7094L35.6211 32.8969L35.4805 32.7094Z" fill="#34BE9E"/>
<path d="M35.6211 32.7094L35.7617 32.8969L35.6211 32.7094Z" fill="#ADB333"/>
<path d="M36.0508 32.7094L35.9102 33.0844L36.0508 32.7094Z" fill="#8D8D5B"/>
<path d="M36.1914 32.7094L36.332 32.8969L36.1914 32.7094Z" fill="#262678"/>
<path d="M32.1953 32.8969L32.3359 33.0844L32.1953 32.8969Z" fill="#49497D"/>
<path d="M32.7656 32.8969L32.9062 33.0844L32.7656 32.8969Z" fill="#96B247"/>
<path d="M32.9062 32.8969L33.0469 33.0844L32.9062 32.8969Z" fill="#0DC9C1"/>
<path d="M35.332 32.8969L35.4727 33.0844L35.332 32.8969Z" fill="#42BB92"/>
<path d="M36.0508 32.8969L36.1914 33.0844L36.0508 32.8969Z" fill="#0E0E6E"/>
<path d="M32.3359 33.0938L32.4766 33.2812L32.3359 33.0938Z" fill="#49497D"/>
<path d="M32.9062 33.0938L33.0469 33.2812L32.9062 33.0938Z" fill="#A2B23D"/>
<path d="M33.0469 33.0938L33.1875 33.2812L33.0469 33.0938Z" fill="#27C2AA"/>
<path d="M35.1914 33.0938L35.332 33.2812L35.1914 33.0938Z" fill="#74B166"/>
<path d="M35.6211 33.0938L35.1992 33.8438L35.6211 33.0938Z" fill="#A4A43D"/>
<path d="M35.7617 33.0938L35.9023 33.2812L35.7617 33.0938Z" fill="#808067"/>
<path d="M35.9102 33.0938L36.0508 33.2812L35.9102 33.0938Z" fill="#0E0E6E"/>
<path d="M32.4766 33.2812L32.6172 33.4688L32.4766 33.2812Z" fill="#262678"/>
<path d="M33.0469 33.2812L33.1875 33.4688L33.0469 33.2812Z" fill="#ADB333"/>
<path d="M33.1875 33.2812L33.3281 33.4688L33.1875 33.2812Z" fill="#42BB92"/>
<path d="M34.9102 33.2812L35.0508 33.4688L34.9102 33.2812Z" fill="#0DC9C1"/>
<path d="M35.0508 33.2812L35.1914 33.4688L35.0508 33.2812Z" fill="#96B247"/>
<path d="M35.6211 33.2812L35.7617 33.4688L35.6211 33.2812Z" fill="#6E6C70"/>
<path d="M32.6172 33.4688L32.7578 33.6562L32.6172 33.4688Z" fill="#1B1B74"/>
<path d="M32.7656 33.4688L32.9062 33.6562L32.7656 33.4688Z" fill="#8D8D5B"/>
<path d="M33.3281 33.4688L33.4688 33.6562L33.3281 33.4688Z" fill="#74B166"/>
<path d="M33.4844 33.4688L33.625 33.6562L33.4844 33.4688Z" fill="#0DC9C1"/>
<path d="M34.7617 33.4688L34.9023 33.6562L34.7617 33.4688Z" fill="#34BE9E"/>
<path d="M34.9102 33.4688L35.0508 33.6562L34.9102 33.4688Z" fill="#ADB333"/>
<path d="M35.4805 33.4688L35.6211 33.6562L35.4805 33.4688Z" fill="#49497D"/>
<path d="M32.7656 33.6562L32.9062 33.8438L32.7656 33.6562Z" fill="#0E0E6E"/>
<path d="M32.9062 33.6562L33.0469 33.8438L32.9062 33.6562Z" fill="#6E6C70"/>
<path d="M33.0469 33.6562L33.3281 34.0312L33.0469 33.6562Z" fill="#A4A43D"/>
<path d="M33.4844 33.6562L33.625 33.8438L33.4844 33.6562Z" fill="#96B247"/>
<path d="M33.625 33.6562L33.7656 33.8438L33.625 33.6562Z" fill="#27C2AA"/>
<path d="M34.6211 33.6562L34.7617 33.8438L34.6211 33.6562Z" fill="#68B070"/>
<path d="M35.332 33.6562L35.4727 33.8438L35.332 33.6562Z" fill="#32327B"/>
<path d="M33.0469 33.8438L33.1875 34.0312L33.0469 33.8438Z" fill="#49497D"/>
<path d="M33.7656 33.8438L33.9062 34.0312L33.7656 33.8438Z" fill="#5BB47C"/>
<path d="M34.332 33.8438L34.4727 34.0312L34.332 33.8438Z" fill="#27C2AA"/>
<path d="M34.4805 33.8438L34.6211 34.0312L34.4805 33.8438Z" fill="#96B247"/>
<path d="M34.9102 33.8438L34.7695 34.2188L34.9102 33.8438Z" fill="#A4A43D"/>
<path d="M35.0508 33.8438L35.1914 34.0312L35.0508 33.8438Z" fill="#808067"/>
<path d="M35.1914 33.8438L35.332 34.0312L35.1914 33.8438Z" fill="#0E0E6E"/>
<path d="M33.1875 34.0312L33.3281 34.2188L33.1875 34.0312Z" fill="#262678"/>
<path d="M33.3281 34.0312L33.4688 34.2188L33.3281 34.0312Z" fill="#8D8D5B"/>
<path d="M33.9102 34.0312L34.0508 34.2188L33.9102 34.0312Z" fill="#8BB252"/>
<path d="M34.0508 34.0312L34.1914 34.2188L34.0508 34.0312Z" fill="#1AC5B5"/>
<path d="M34.1914 34.0312L34.332 34.2188L34.1914 34.0312Z" fill="#5BB47C"/>
<path d="M34.9102 34.0312L35.0508 34.2188L34.9102 34.0312Z" fill="#58587B"/>
<path d="M33.3281 34.2375L33.4688 34.425L33.3281 34.2375Z" fill="#0E0E6E"/>
<path d="M33.4844 34.2375L33.625 34.425L33.4844 34.2375Z" fill="#666677"/>
<path d="M33.625 34.2375L33.7656 34.425L33.625 34.2375Z" fill="#A4A43D"/>
<path d="M34.6211 34.2375L34.7617 34.425L34.6211 34.2375Z" fill="#99994E"/>
<path d="M34.7641 34.2375L34.9047 34.425L34.7641 34.2375ZM33.625 34.425L33.7656 34.6125L33.625 34.425Z" fill="#32327B"/>
<path d="M33.7656 34.425L33.9062 34.6125L33.7656 34.425Z" fill="#99994E"/>
<path d="M34.332 34.425L34.4727 34.6125L34.332 34.425Z" fill="#A4A43D"/>
<path d="M34.4805 34.425L34.6211 34.6125L34.4805 34.425Z" fill="#666677"/>
<path d="M34.6234 34.425L34.7641 34.6125L34.6234 34.425ZM33.7656 34.6125L33.9062 34.8L33.7656 34.6125Z" fill="#0E0E6E"/>
<path d="M33.9102 34.6125L34.0508 34.8L33.9102 34.6125Z" fill="#666677"/>
<path d="M34.0508 34.6125L34.1914 34.8L34.0508 34.6125Z" fill="#A4A43D"/>
<path d="M34.1914 34.6125L34.332 34.8L34.1914 34.6125Z" fill="#99994E"/>
<path d="M34.332 34.6125L34.4727 34.8L34.332 34.6125Z" fill="#32327B"/>
<path d="M34.0508 34.8L34.1914 34.9875L34.0508 34.8Z" fill="#262678"/>
<path d="M34.1914 34.8L34.332 34.9875L34.1914 34.8Z" fill="#0E0E6E"/>
<path d="M34.3335 22.05C34.5585 22.7438 35.2616 23.5031 35.4585 23.8781C35.2124 24.2531 35.1632 24.2156 35.1913 24.9094C35.6132 24.3094 35.6272 24.2531 35.9085 24.3375C36.5132 25.1438 36.0139 26.8688 35.5147 27.2438C35.0155 27.6469 35.1069 27.2344 34.3546 27.7313C34.6991 28.125 35.0999 27.675 35.4233 27.7969C35.5991 28.0781 35.3389 28.5844 35.4725 29.0719C35.7538 29.0344 35.7257 28.2563 35.796 27.975C36.0069 26.9438 37.2725 26.2313 37.3358 25.2844C37.603 25.125 37.8632 25.2375 38.1796 25.4719C38.0249 24.5906 37.4975 24.6 37.3499 24.3281C37.0124 23.6344 36.71 22.8469 35.9858 22.6406C35.4233 22.4813 35.4725 22.6875 35.121 22.3594C34.896 22.1344 34.228 21.7031 34.3335 22.05Z" fill="#FF9900"/>
<path fill-rule="evenodd" clip-rule="evenodd" d="M35.9234 22.8375C35.9234 22.8785 35.9112 22.9179 35.8895 22.9469C35.8677 22.9759 35.8382 22.9922 35.8074 22.9922C35.7767 22.9922 35.7471 22.9759 35.7254 22.9469C35.7036 22.9179 35.6914 22.8785 35.6914 22.8375C35.6914 22.7965 35.7036 22.7571 35.7254 22.7281C35.7471 22.6991 35.7767 22.6828 35.8074 22.6828C35.8382 22.6828 35.8677 22.6991 35.8895 22.7281C35.9112 22.7571 35.9234 22.7965 35.9234 22.8375Z" fill="white"/>
<path d="M32.5695 24.9844C32.921 24.4031 33.1038 23.2031 33.2585 22.8094C33.6242 22.9219 33.6101 22.9969 34.0671 22.6406C33.4695 22.4156 33.4202 22.4344 33.3499 22.0688C33.6031 20.9719 34.9812 20.7563 35.4593 21.1688C35.9656 21.5719 35.6492 21.6563 36.3312 22.2938C36.4296 21.7125 35.9445 21.45 35.8742 21.0188C35.9796 20.6719 36.4367 20.7375 36.6898 20.3625C36.5351 20.0344 36.0359 20.4375 35.8179 20.4938C35.0445 20.7281 33.9687 19.575 33.3148 19.9313C33.0827 19.6969 33.0335 19.3313 33.0335 18.8344C32.5343 19.4438 32.7874 20.0531 32.6679 20.3625C32.3726 21.0844 31.9859 21.8156 32.1898 22.7625C32.3445 23.4938 32.457 23.3438 32.4148 23.9156C32.3656 24.2813 32.3867 25.275 32.5695 24.9844Z" fill="#FF9900"/>
<path fill-rule="evenodd" clip-rule="evenodd" d="M32.3447 22.7437C32.408 22.7062 32.4783 22.7344 32.5064 22.8094C32.5162 22.8358 32.5199 22.8654 32.5171 22.8945C32.5143 22.9237 32.5051 22.9511 32.4907 22.9734C32.4763 22.9957 32.4573 23.0119 32.4361 23.0199C32.4149 23.0279 32.3924 23.0274 32.3714 23.0185C32.3503 23.0096 32.3318 22.9926 32.3179 22.9697C32.3041 22.9468 32.2956 22.919 32.2935 22.8897C32.2914 22.8605 32.2958 22.831 32.3062 22.8051C32.3165 22.7791 32.3324 22.7578 32.3517 22.7437H32.3447Z" fill="white"/>
<path d="M35.4593 25.3875C34.8968 25.2937 34.0461 25.6969 33.7015 25.7344C33.5961 25.2562 33.6453 25.2187 33.1812 24.8906C33.3429 25.6969 33.3781 25.7344 33.1812 26.0156C32.3515 26.2875 31.4937 24.825 31.5078 24.0656C31.5078 23.2875 31.7328 23.5969 31.789 22.4719C31.3672 22.6594 31.4515 23.3625 31.2054 23.6719C30.9242 23.7281 30.7414 23.175 30.3617 23.0812C30.2351 23.4281 30.7484 23.7844 30.8961 24.0094C31.4515 24.7781 31.2617 26.5875 31.8312 27.15C31.8031 27.5437 31.5922 27.7875 31.2687 28.0312C31.9226 28.3031 32.1828 27.6844 32.4429 27.6562C33.0617 27.6375 33.7296 27.6937 34.2359 26.9719C34.6156 26.4094 34.4679 26.3625 34.8547 26.1281C35.1148 25.9969 35.7406 25.4531 35.4593 25.3781V25.3875Z" fill="#FF9900"/>
<path fill-rule="evenodd" clip-rule="evenodd" d="M34.1374 26.8031C34.1245 26.7927 34.1132 26.7789 34.1043 26.7627C34.0954 26.7464 34.0889 26.7279 34.0853 26.7083C34.0817 26.6888 34.0811 26.6684 34.0834 26.6485C34.0857 26.6286 34.0909 26.6094 34.0988 26.5922C34.1066 26.575 34.1169 26.56 34.1291 26.548C34.1413 26.5361 34.1552 26.5275 34.1698 26.5227C34.1845 26.5179 34.1998 26.5171 34.2147 26.5201C34.2297 26.5232 34.244 26.5302 34.257 26.5406C34.2831 26.5618 34.3018 26.5959 34.3091 26.6354C34.3163 26.675 34.3115 26.7168 34.2956 26.7516C34.2798 26.7864 34.2542 26.8114 34.2245 26.821C34.1949 26.8307 34.1635 26.8243 34.1374 26.8031Z" fill="white"/>
<path d="M0 0H22.5V22.5H0V0Z" fill="#012169"/>
<path d="M2.63672 0L11.2148 8.48438L19.7578 0H22.5V2.90625L14.0625 11.2969L22.5 19.6406V22.5H19.6875L11.25 14.1094L2.84766 22.5H0V19.6875L8.40234 11.3438L0 3V0H2.63672Z" fill="white"/>
<path d="M14.9062 13.1719L22.5 20.625V22.5L12.9727 13.1719H14.9062ZM8.4375 14.1094L8.64844 15.75L1.89844 22.5H0L8.4375 14.1094ZM22.5 0V0.140625L13.7461 8.95312L13.8164 6.89062L20.7422 0H22.5ZM0 0L8.40234 8.25H6.29297L0 1.96875V0Z" fill="#C8102E"/>
<path d="M8.47266 0V22.5H14.0977V0H8.47266ZM0 7.5V15H22.5V7.5H0Z" fill="white"/>
<path d="M0 9.04688V13.5469H22.5V9.04688H0ZM9.59766 0V22.5H12.9727V0H9.59766Z" fill="#C8102E"/>
</g>
<defs>
<clipPath id="clip0_45_3444">
<rect width="45" height="45" fill="white"/>
</clipPath>
</defs>
</svg>
