<svg width="45" height="45" viewBox="0 0 45 45" fill="none" xmlns="http://www.w3.org/2000/svg">
<g clip-path="url(#clip0_45_4201)">
<path d="M0 0H45V45H0V0Z" fill="#E41E20"/>
<path d="M19.1234 8.74689C18.8 8.74689 18.2586 8.88751 18.2656 9.21564C17.3516 9.01876 17.2602 9.51564 17.3164 9.96564C17.4008 9.78751 17.5062 9.68439 17.5906 9.67501C17.7102 9.64689 17.8367 9.70314 17.9703 9.80626C18.0963 9.91166 18.21 10.0412 18.3078 10.1906C17.9844 10.2938 17.7313 10.2281 17.4781 10.1719C17.3351 10.1312 17.1991 10.0549 17.0773 9.94689C16.9719 9.85314 16.9367 9.75939 16.775 9.54376C16.5852 9.28126 16.3812 9.35626 16.4445 9.75939C16.5922 10.1344 16.8383 10.3031 17.1477 10.3781C17.2953 10.4063 17.5203 10.4719 17.7734 10.4719C18.0266 10.4719 18.3078 10.425 18.4625 10.4719C18.3711 10.5469 18.2656 10.6875 18.0547 10.7344C17.8437 10.7906 17.5273 10.5656 17.3305 10.5094C17.3516 10.725 17.5625 10.9313 17.9703 11.0438C18.6453 11.2313 19.2008 11.3813 19.5734 11.6531C19.8681 11.8722 20.1284 12.1651 20.3398 12.5156C20.6703 13.0313 20.6914 13.4344 20.7055 13.5281C20.7758 14.3531 20.5578 14.8219 20.15 14.9719C19.9531 15.0375 19.5875 14.9063 19.4609 14.7C19.3203 14.4938 19.2008 14.1375 19.2359 13.575C19.2711 13.3688 19.4539 12.7969 19.2992 12.6844C18.5661 12.1472 17.8074 11.6743 17.0281 11.2688C16.8523 11.175 16.7117 11.4938 16.6555 11.625C16.1363 11.5285 15.6397 11.279 15.2019 10.8947C14.7641 10.5104 14.3959 10.0009 14.1242 9.40314C13.8289 8.69064 13.3297 9.40314 13.4141 10.0875C13.5477 10.8375 13.9766 11.3813 14.4969 11.775C15.0242 12.1594 15.6922 12.5438 16.3602 12.525C16.7258 12.6188 16.7187 13.2375 16.2898 13.3594C15.4391 13.3594 14.757 13.3406 14.1172 12.5156C13.632 11.925 13.3648 12.6281 13.4984 13.0219C13.7375 14.25 15.0523 14.5969 16.3812 14.2031C16.9016 14.0906 16.5922 14.8219 16.4516 14.8313C15.8891 15.3656 14.8977 15.8813 14.0187 14.8313C13.618 14.4188 13.3437 14.7563 13.4984 15.3469C13.8852 16.8938 15.3758 16.5656 16.3953 15.8156C16.6555 15.6188 16.8945 16.0688 16.5781 16.4156C15.3055 17.5969 14.6727 17.6156 14.0961 17.1656C13.3789 16.7813 13.3227 17.8406 13.7445 18.1969C14.2156 18.5719 15.418 18.2906 16.3039 17.5406C16.6836 17.1656 16.6977 17.7563 16.4586 17.9906C15.4109 19.2 14.9961 19.5188 13.9062 19.3219C13.3648 19.2656 13.3719 20.1563 13.7937 20.5031C14.3773 20.9813 15.5164 20.1938 16.3953 19.2094C16.768 18.9469 16.8312 19.3781 16.6484 19.8938C16.2592 20.6281 15.7301 21.2106 15.1156 21.5813C14.6234 21.8344 14.1594 21.7969 13.8289 21.6469C13.4211 21.4594 13.3719 22.0219 13.5969 22.5281C13.7305 22.8375 14.2859 22.9313 14.8906 22.65C15.4953 22.3688 16.1422 21.6938 16.5852 20.9156C16.9719 20.4563 16.9297 21.0656 16.7469 21.4969C15.8609 23.3719 15.0453 24.0656 13.9695 23.9531C13.4984 23.8406 13.3859 24.3281 13.6883 24.7969C14.2227 25.3781 14.8836 25.3594 15.4742 24.7781C15.9875 24.1219 16.9789 22.6781 17.4992 21.9094C17.8648 21.525 17.9844 21.9094 17.8719 22.6969C17.7734 23.1469 17.5344 23.6344 16.8664 23.9719C16.4094 24.3188 16.7539 24.7969 17.0914 24.8156C17.2812 24.8156 17.6609 24.5156 17.9562 24.0844C18.3359 23.5031 18.3641 23.1188 18.575 22.2188C18.7719 21.7875 19.1305 21.9938 19.1305 22.4438C18.9547 23.3438 18.8141 23.5031 18.4625 23.8688C18.132 24.2906 18.6945 24.4313 18.8844 24.2531C19.4328 23.7656 19.6297 23.1281 19.8125 22.5469C19.9531 22.1344 20.3328 22.3313 20.15 23.0156C19.7281 24.6469 19.025 25.2844 17.8086 25.6219C17.6891 25.65 17.6117 25.7438 17.6539 25.9313L18.1461 26.5875C17.3938 26.8875 16.782 27.0563 16.0227 27.3375L14.982 26.4188C14.8906 26.1188 14.8414 25.65 14.293 25.9781C13.9273 25.7531 13.7516 25.8375 13.5477 26.0719C13.843 26.0719 13.9695 26.1844 14.0891 26.3625C14.2437 26.8969 14.5953 26.9531 14.9539 26.8031C15.1859 27.0563 15.3055 27.2625 15.5445 27.525L14.3703 27.4781C13.9484 26.8875 13.625 26.9156 13.3297 27.3844C13.0977 27.4313 13.0063 27.4313 12.8516 27.7969C13.0906 27.6656 13.2453 27.6281 13.3508 27.7688C13.7937 28.1156 14.082 28.0406 14.3 27.7688L15.5305 27.8719C15.3758 28.0594 15.1648 28.1531 15.0031 28.3219C14.3703 28.0781 14.0328 28.4156 13.9203 29.1C13.8314 29.3743 13.8022 29.6765 13.8359 29.9719C13.8922 29.6906 13.9977 29.4563 14.1805 29.3156C14.743 29.5031 14.9539 29.1938 14.9891 28.7438C15.2703 28.4438 15.6781 28.3781 15.9523 28.0781C16.2758 28.2094 16.4305 28.2938 16.7539 28.4344C16.8664 28.9031 17.1266 29.0813 17.5484 28.9594C18.0406 28.9781 17.9562 29.2594 17.9984 29.475C18.1391 29.1656 18.132 28.8563 17.8227 28.575C17.7102 28.1719 17.457 27.9844 17.1336 28.2188C16.8242 28.1063 16.7469 27.9375 16.4375 27.8156C17.2109 27.4875 17.7594 27.4125 18.5328 27.0844L19.0742 27.7219C19.1797 27.8063 19.2781 27.825 19.3414 27.7219C19.8266 26.7844 20.0445 25.9688 20.4875 25.35C20.6633 25.0875 20.8812 24.75 21.1203 24.6656C21.2398 24.6188 21.3875 24.6469 21.4859 24.7875C21.5773 24.9188 21.6547 25.1719 21.6266 25.5563C21.5773 26.0906 21.4789 26.2688 21.3664 26.5875C21.2469 26.9156 21.1133 27.1125 20.9656 27.3656C20.6844 27.8625 20.3047 28.1531 20.0797 28.35C19.6297 28.7344 19.4469 28.5656 19.0953 28.5375C18.6453 28.6031 18.5328 28.8938 18.8984 29.2969C19.2359 29.5406 19.5453 29.5688 19.7984 29.5031C20.0094 29.4469 20.2625 29.0813 20.4453 28.8844C20.6422 28.575 20.9797 28.9406 20.7477 29.3063C20.3328 29.9625 19.925 30.3938 19.4117 30.3844C18.8703 30.4781 18.9758 30.8813 19.3273 31.0781C19.9742 31.425 20.5508 30.7688 20.8461 30.3281C21.0711 30 21.2328 29.9906 21.1977 30.5063C20.9656 31.4344 20.6633 31.7906 20.157 31.8375C19.7492 31.7813 19.7422 32.2125 20.0445 32.4938C20.7195 33.1125 21.2117 32.0438 21.4437 31.4063C21.6055 30.825 21.8586 31.0969 21.8867 31.575C21.8867 32.2219 21.6758 32.7375 21.0922 33.3938C21.5352 34.3406 22.0555 35.3063 22.4984 36.2531L23.8484 16.1906L22.4984 13.0313C22.3578 12.8625 21.8797 12.1125 21.7602 12C21.7109 11.9438 21.6898 11.9063 21.7531 11.8688C21.8164 11.8313 21.9641 11.7938 22.0695 11.775C21.7883 11.3906 21.5352 11.2688 20.9938 11.0625C21.1273 10.9875 21.2539 11.025 21.6477 11.0063C21.4061 10.5734 21.0767 10.2417 20.6984 10.05C20.9937 9.76876 21.05 9.75001 21.3453 9.42189C20.8795 9.37391 20.4194 9.25437 19.9742 9.06564C19.7083 8.89717 19.4231 8.78942 19.1305 8.74689H19.1234ZM19.1797 9.53439C19.4469 9.53439 19.6086 9.65626 19.6086 9.80626C19.6086 9.95626 19.4469 10.0781 19.1797 10.0781C18.9125 10.0781 18.7438 9.93751 18.7438 9.79689C18.7438 9.64689 18.9125 9.53439 19.1797 9.53439Z" fill="black"/>
</g>
<defs>
<clipPath id="clip0_45_4201">
<rect width="45" height="45" fill="white"/>
</clipPath>
</defs>
</svg>
