<svg width="45" height="45" viewBox="0 0 45 45" fill="none" xmlns="http://www.w3.org/2000/svg">
<g clip-path="url(#clip0_45_4223)">
<path d="M0 0H45V45H0V0Z" fill="#74ACDF"/>
<path d="M0 15H45V30H0V15Z" fill="white"/>
<path d="M22.2832 22.617L24.207 28.197C24.207 28.197 24.2407 28.305 24.2947 28.278C24.3487 28.242 24.315 28.134 24.315 28.134L22.7152 22.374M22.668 24.552C22.641 25.398 23.0325 25.866 22.9852 26.622C22.9312 27.387 23.2417 27.81 23.3227 28.107C23.3902 28.404 23.2417 28.575 23.3025 28.62C23.37 28.665 23.505 28.431 23.4645 28.008C23.4172 27.594 23.181 27.468 23.235 26.541C23.289 25.614 22.9515 25.398 23.0325 24.561" fill="#F6B40E"/>
<path fill-rule="evenodd" clip-rule="evenodd" d="M24.3501 28.1162L22.7505 22.3568L22.6809 22.3912L24.2809 28.1521L24.2812 28.1528L24.2812 28.1529L24.2812 28.153L24.2813 28.1532C24.2814 28.1536 24.2816 28.1544 24.2819 28.1555C24.2825 28.1577 24.2833 28.161 24.2843 28.1652C24.2861 28.1738 24.288 28.1848 24.2886 28.196C24.2898 28.2181 24.2861 28.2275 24.2804 28.2324C24.2762 28.2336 24.2699 28.2319 24.2593 28.2154C24.2539 28.207 24.2494 28.1974 24.2461 28.1896C24.2445 28.1857 24.2434 28.1826 24.2426 28.1804C24.2423 28.1796 24.2421 28.179 24.2419 28.1785L24.2418 28.1782L24.2418 28.178L24.2417 28.1779L24.2415 28.1771L23.0584 24.7456C23.0601 24.6894 23.0637 24.6302 23.0698 24.5673L22.9962 24.5547C22.9959 24.5574 22.9956 24.56 22.9954 24.5627L22.3175 22.5963L22.25 22.6377L22.9837 24.7658C22.9777 25.0795 23.0328 25.3048 23.0888 25.5327L23.0896 25.5358C23.1565 25.8078 23.2248 26.0855 23.1985 26.5372C23.1711 27.0073 23.2172 27.2781 23.2777 27.4849C23.2971 27.5511 23.3184 27.6122 23.3383 27.6692C23.3486 27.6987 23.3585 27.727 23.3676 27.7545C23.3949 27.8368 23.4171 27.9177 23.4282 28.0149C23.4476 28.2185 23.4245 28.3728 23.3909 28.4685C23.3739 28.5168 23.3552 28.5478 23.3397 28.5637C23.334 28.5696 23.3294 28.5728 23.3261 28.5744C23.3262 28.5739 23.3262 28.5735 23.3263 28.573C23.3279 28.5628 23.331 28.5499 23.3356 28.5325C23.3368 28.5276 23.3382 28.5223 23.3397 28.5167C23.3432 28.5036 23.3471 28.4888 23.3509 28.4735C23.3732 28.3832 23.3956 28.2549 23.3588 28.0926L23.3585 28.0914L23.3581 28.0901C23.3366 28.0112 23.3003 27.9252 23.261 27.8329L23.2581 27.8259C23.2191 27.7342 23.1764 27.6336 23.1377 27.5196C23.0586 27.2868 22.9964 26.9985 23.0227 26.6266L23.0227 26.6261C23.0469 26.2388 22.9593 25.925 22.8717 25.6113L22.8695 25.6035C22.7808 25.286 22.6924 24.966 22.7056 24.5541L22.6314 24.5499C22.6175 24.984 22.7114 25.321 22.7999 25.638L22.8001 25.6388C22.8889 25.9567 22.9715 26.2526 22.9488 26.6176C22.9211 27.0106 22.9871 27.3162 23.07 27.5604C23.1102 27.6786 23.1543 27.7825 23.1931 27.8737L23.1964 27.8816C23.2363 27.9755 23.269 28.0534 23.288 28.1226C23.3182 28.2568 23.3002 28.3621 23.2804 28.4425C23.2769 28.4568 23.2734 28.4698 23.27 28.4824C23.2685 28.4883 23.2669 28.4941 23.2654 28.5C23.2609 28.5174 23.2564 28.5355 23.2537 28.5523C23.2511 28.5686 23.2492 28.5891 23.2533 28.6098C23.2579 28.6332 23.2691 28.6515 23.285 28.6633L23.2857 28.6638L23.2864 28.6643C23.3215 28.6877 23.3583 28.6698 23.3852 28.642C23.4128 28.6135 23.4379 28.5679 23.4581 28.5105C23.4987 28.3948 23.5228 28.2209 23.5018 28.0017L23.5017 28.0006C23.4892 27.891 23.4642 27.801 23.4356 27.7145C23.4252 27.6832 23.4147 27.6531 23.4041 27.6229C23.3849 27.5679 23.3655 27.5126 23.3469 27.4489C23.2909 27.2574 23.2459 27.0017 23.2725 26.5448C23.3 26.0735 23.2279 25.7806 23.1603 25.5057L23.1594 25.5018C23.1199 25.3412 23.0822 25.187 23.0659 25.0043L24.1736 28.2171L24.1739 28.2182C24.1741 28.2188 24.1743 28.2195 24.1746 28.2202C24.1749 28.221 24.1751 28.2218 24.1755 28.2227C24.1768 28.2264 24.1787 28.2315 24.1811 28.2373C24.1858 28.2489 24.1931 28.2646 24.2029 28.2798C24.2211 28.3081 24.2585 28.3492 24.3083 28.3243L24.3101 28.3234L24.3118 28.3223C24.3592 28.2907 24.3647 28.2276 24.3626 28.189C24.3616 28.1687 24.3583 28.1505 24.3556 28.1377C24.3542 28.1312 24.3528 28.1258 24.3518 28.1219C24.3512 28.12 24.3508 28.1184 24.3504 28.1172L24.3501 28.1162Z" fill="#85340A"/>
<path d="M22.7908 24.696C22.8246 25.506 23.1688 25.866 23.1013 26.613C23.2498 26.028 22.8921 25.569 22.9123 24.705M22.3926 22.563L23.7088 26.397L22.6086 22.446" fill="#85340A"/>
<path d="M22.4984 25.0031C23.5353 25.0031 24.3758 23.8824 24.3758 22.5C24.3758 21.1176 23.5353 19.9969 22.4984 19.9969C21.4616 19.9969 20.6211 21.1176 20.6211 22.5C20.6211 23.8824 21.4616 25.0031 22.4984 25.0031Z" fill="#F6B40E"/>
<path fill-rule="evenodd" clip-rule="evenodd" d="M22.5008 20.0625C21.4911 20.0625 20.6727 21.1538 20.6727 22.5C20.6727 23.8462 21.4911 24.9375 22.5008 24.9375C23.5104 24.9375 24.3289 23.8462 24.3289 22.5C24.3289 21.1538 23.5104 20.0625 22.5008 20.0625ZM20.5742 22.5C20.5742 21.0813 21.4368 19.9313 22.5008 19.9313C23.5648 19.9313 24.4273 21.0813 24.4273 22.5C24.4273 23.9187 23.5648 25.0688 22.5008 25.0688C21.4368 25.0688 20.5742 23.9187 20.5742 22.5Z" fill="#85340A"/>
<path d="M23.1328 21.9656C23.0133 21.9656 22.8867 22.0406 22.8164 22.1906C22.957 22.3688 23.2805 22.3781 23.4984 22.1719C23.4524 22.1067 23.3968 22.0548 23.3351 22.0193C23.2735 21.9838 23.207 21.9656 23.1398 21.9656H23.1328ZM23.1328 22.0031C23.2594 22.0031 23.3789 22.0781 23.393 22.1531C23.2523 22.3688 23.0203 22.3406 22.8727 22.1906C22.943 22.0594 23.0414 22.0031 23.1398 22.0031H23.1328Z" fill="#843511"/>
<path d="M22.2203 22.8469C22.2008 22.853 22.1826 22.8653 22.1673 22.8826C22.1521 22.9 22.1401 22.9219 22.1324 22.9467C22.1248 22.9714 22.1216 22.9982 22.1233 23.0249C22.1249 23.0516 22.1313 23.0773 22.1419 23.1001C22.1525 23.1228 22.1669 23.1419 22.1841 23.1557C22.2013 23.1695 22.2208 23.1776 22.2408 23.1795C22.2608 23.1813 22.2809 23.1767 22.2993 23.1662C22.3178 23.1556 22.3341 23.1394 22.3469 23.1187C22.3933 23.1571 22.447 23.1766 22.5016 23.175H22.5156C22.5578 23.175 22.6281 23.1656 22.6773 23.1187C22.6984 23.1656 22.7406 23.1844 22.7828 23.1844C22.8164 23.1881 22.8497 23.1739 22.8754 23.1449C22.9011 23.1159 22.9171 23.0744 22.9199 23.0297C22.9227 22.9849 22.9121 22.9405 22.8903 22.9062C22.8686 22.8719 22.8375 22.8506 22.8039 22.8469C22.8391 22.8656 22.8602 22.9031 22.8602 22.9594C22.8602 22.9892 22.8513 23.0178 22.8354 23.0389C22.8196 23.06 22.7982 23.0719 22.7758 23.0719C22.7534 23.0719 22.7319 23.06 22.7161 23.0389C22.7003 23.0178 22.6914 22.9892 22.6914 22.9594C22.6747 23.0056 22.6489 23.045 22.6167 23.0731C22.5845 23.1012 22.5471 23.1169 22.5086 23.1187C22.4713 23.1153 22.4354 23.0987 22.4045 23.0707C22.3737 23.0427 22.3489 23.0043 22.3328 22.9594C22.3328 23.025 22.2906 23.0719 22.2414 23.0719C22.1992 23.0719 22.157 23.0156 22.157 22.9594C22.157 22.9031 22.1781 22.8656 22.2133 22.8469H22.2203ZM22.3609 23.3531C22.2133 23.3531 22.15 23.5406 22.0234 23.6437C22.0938 23.6062 22.15 23.5312 22.2555 23.4562C22.3539 23.3812 22.4383 23.475 22.5016 23.475C22.5578 23.475 22.6422 23.3812 22.7477 23.4562C22.8461 23.5312 22.9094 23.6062 22.9797 23.6437C22.8461 23.5312 22.7898 23.3625 22.6422 23.3625C22.6141 23.3625 22.5578 23.3812 22.5016 23.4187L22.3609 23.3531Z" fill="#85340A"/>
<path d="M22.3016 23.5875C22.2453 23.5875 22.175 23.6063 22.0625 23.6438C22.3227 23.5688 22.3789 23.6907 22.4984 23.6907C22.6109 23.6907 22.6742 23.5688 22.9273 23.6438C22.6461 23.5313 22.5828 23.6063 22.4984 23.6063C22.4422 23.6063 22.4 23.5782 22.3016 23.5875Z" fill="#85340A"/>
<path d="M22.0797 23.6437H22.0234C22.3258 23.6906 22.1852 23.925 22.5016 23.925C22.818 23.925 22.6773 23.6906 22.9797 23.6437C22.6633 23.6062 22.7617 23.8594 22.5016 23.8594C22.2555 23.8594 22.3328 23.6437 22.0797 23.6437Z" fill="#85340A"/>
<path d="M22.7586 24.2719C22.7586 24.1799 22.7312 24.0916 22.6824 24.0266C22.6336 23.9615 22.5674 23.925 22.4984 23.925C22.4294 23.925 22.3633 23.9615 22.3145 24.0266C22.2657 24.0916 22.2383 24.1799 22.2383 24.2719C22.252 24.1936 22.2852 24.1238 22.3324 24.0739C22.3797 24.024 22.4382 23.9968 22.4984 23.9968C22.5587 23.9968 22.6172 24.024 22.6644 24.0739C22.7117 24.1238 22.7449 24.1936 22.7586 24.2719Z" fill="#85340A"/>
<path d="M21.332 21.9656C21.6625 21.5813 22.0844 21.5156 22.3164 21.8063C22.3698 21.9 22.406 22.0092 22.4219 22.125C22.45 22.35 22.4008 22.5844 22.2742 22.8281L22.3305 22.8656C22.443 22.575 22.4852 22.275 22.443 21.9844L22.4008 21.7688C22.0844 21.4219 21.6484 21.3938 21.332 21.9563V21.9656Z" fill="#85340A"/>
<path d="M21.8533 21.8438C22.0431 21.8438 22.0853 21.9 22.1697 22.0031C22.2541 22.0969 22.3033 22.0781 22.3103 22.0969C22.3314 22.1156 22.3103 22.1719 22.2892 22.1531C22.2541 22.1344 22.1978 22.0969 22.1134 22.0031C22.0291 21.9094 21.9377 21.9094 21.8533 21.9094C21.5931 21.9094 21.4525 22.1906 21.4244 22.1719C21.3892 22.1531 21.565 21.8438 21.8533 21.8438Z" fill="#85340A"/>
<path d="M21.8609 22.3219C21.9308 22.3219 21.9875 22.2463 21.9875 22.1531C21.9875 22.0599 21.9308 21.9844 21.8609 21.9844C21.791 21.9844 21.7344 22.0599 21.7344 22.1531C21.7344 22.2463 21.791 22.3219 21.8609 22.3219Z" fill="#85340A"/>
<path d="M21.5078 22.2656C21.7539 22.5188 22 22.5 22.1406 22.3875C22.2813 22.2656 22.2813 22.2281 22.2531 22.2281C22.225 22.2281 22.1969 22.2656 22.0844 22.35C21.9648 22.425 21.7961 22.425 21.5078 22.2656Z" fill="#85340A"/>
</g>
<defs>
<clipPath id="clip0_45_4223">
<rect width="45" height="45" fill="white"/>
</clipPath>
</defs>
</svg>
