<svg width="45" height="45" viewBox="0 0 45 45" fill="none" xmlns="http://www.w3.org/2000/svg">
<g clip-path="url(#clip0_45_4241)">
<path d="M0 0H45V45H0V0Z" fill="#000066"/>
<path d="M-0.0429688 22.5L44.957 0V45L-0.0429688 22.5Z" fill="#BD1021"/>
<path d="M4.19922 22.5L44.9805 2.40936V42.5906" fill="white"/>
<path d="M33.3289 25.35C33.6875 25.3781 33.6805 25.8563 33.6805 25.8563L34.9461 25.8938C35.1078 25.3032 35.2836 25.3688 35.593 25.6688C35.7812 25.8394 35.9874 25.9721 36.2047 26.0625C36.3242 25.2188 37.2242 25.3875 37.2242 25.3875C37.618 24.1688 37.6461 24.1781 37.4141 24.0281C37.2763 23.9351 37.1634 23.7878 37.0906 23.6063C36.8797 23.2594 36.7672 22.7531 36.7391 22.4438C36.7109 22.1344 36.4437 22.5938 36.3875 22.5C36.3453 22.4063 35.9445 22.4625 35.9445 22.4625C36.043 22.6032 35.7055 22.5188 35.7055 22.5188C35.7406 22.5563 35.7055 22.6781 35.7055 22.6781C35.6773 22.6219 35.4172 22.5656 35.4172 22.5656C35.3976 22.6208 35.3715 22.6715 35.3398 22.7156C35.1992 22.6406 34.918 22.65 34.918 22.65C34.6489 22.6379 34.3829 22.729 34.1516 22.9125C34.0391 22.9969 33.6312 23.2688 33.2867 23.7094C32.9562 24.1406 32.7664 24.0844 32.7664 24.0844C32.668 24.5719 31.8664 25.1625 31.8664 25.1625C31.7398 25.3125 31.332 25.3875 31.1281 25.1625C30.9242 24.9375 31.1281 24.5156 31.1281 24.5156C31.2125 24.3281 31.2828 24.3375 31.2898 23.6719C31.2969 23.2313 31.6414 22.875 31.993 22.3594C32.4359 21.7219 33.0477 20.6719 33.0477 20.6719C33.0477 20.9906 33.1742 21.0469 33.1742 21.0469C33.2937 20.7188 33.4695 20.4563 33.4695 20.4563C33.4766 20.4844 33.5047 20.4938 33.5047 20.4938C33.6453 20.25 33.7156 20.1563 33.7156 20.1563C33.6805 20.1281 33.2937 20.1563 32.9422 20.5688C32.5906 20.9813 32.3516 20.85 32.3516 20.85C32.1055 20.7375 32.0844 20.475 32.0844 20.475C31.9086 19.4531 32.6047 18.7219 32.6047 18.7219C31.6625 18.4219 32.3445 16.8188 33.5188 16.1438C34.6859 15.4688 34.6719 15.1594 34.6719 15.1594C34.7234 15.2451 34.7659 15.3397 34.7984 15.4406C34.8055 15.4406 34.8969 15.2625 35.5719 14.8688C36.2469 14.4657 36.5703 14.1188 36.5703 14.1188C36.6547 14.3438 36.6406 14.4938 36.6406 14.4938C38.4898 13.6407 40.2969 11.6625 40.2969 11.6625C40.3531 11.8219 40.332 12.075 40.332 12.075C40.6273 11.7 41.7172 10.8375 41.7172 10.8375C41.7251 10.9937 41.6987 11.1495 41.6412 11.286C41.5838 11.4226 41.4978 11.5338 41.3938 11.6063C41.421 11.6737 41.4399 11.7465 41.45 11.8219C41.7928 11.5359 42.1304 11.2389 42.4625 10.9313C42.7648 11.2781 42.4906 11.85 42.4906 11.85C42.6031 11.8219 42.6734 11.7 42.6734 11.7C42.7578 12.3 42.2586 12.825 42.2586 12.825C42.35 12.825 42.4906 12.7031 42.4906 12.7031C42.3992 13.3594 41.4781 14.0719 41.4781 14.0719C41.6117 14.2407 41.4781 14.4469 41.3656 14.5407C41.2602 14.6344 41.0633 14.85 41.1266 14.9344C41.1828 15.0281 41.5977 14.6344 41.5977 14.6344C41.668 14.9063 41.1406 15.4406 41.1406 15.4406C41.5062 15.5063 42.5188 14.8875 42.5188 14.8875C42.4414 15.4125 42.0547 15.825 41.5836 16.0594C41.1125 16.2938 41.1336 16.3406 41.1336 16.3406C41.218 16.4156 41.8719 16.1719 41.8719 16.1719C41.675 16.7531 40.993 17.1563 40.993 17.1563C41.1828 17.3719 41.4359 17.1188 41.6961 16.8844C42.0028 16.6272 42.3339 16.4254 42.6805 16.2844C43.0531 16.1063 43.3273 16.2375 43.3273 16.2375C43.6508 16.1063 43.918 16.2938 43.918 16.2938C44.5297 16.3594 44.593 16.6594 44.593 16.6594C44.6633 16.6781 44.7125 16.7156 44.8742 16.875C45.0219 17.025 45.0148 17.4938 45.0148 17.7375C45.0008 17.9625 44.9516 17.9625 44.9234 18.0188C44.8953 18.0938 44.8883 18.1688 44.8883 18.2531C44.8883 18.3469 44.7336 18.9 43.7844 18.9H42.357C42.2727 18.9 42.1813 18.9656 42.1813 18.9656C41.7805 19.2281 41.9914 18.7781 41.5203 19.3031C41.0422 19.8188 40.8031 19.7344 40.8031 19.7344C40.5376 20.0964 40.2481 20.4259 39.9383 20.7188C39.657 20.9625 39.7062 20.9344 39.9594 21.075C40.2125 21.2156 40.5781 21.075 40.5781 21.075C40.3391 21.2906 40.5078 21.3938 40.5078 21.3938C40.8172 21.1406 41.0141 21.2344 41.0141 21.2344C41.1125 21.6 40.7469 22.1719 40.7469 22.1719C40.8875 22.2 41.1547 22.1719 41.1547 22.1719C41.0844 22.425 40.8313 22.6969 40.6344 22.7719C40.4445 22.8656 40.4727 22.8938 40.5359 23.0531C40.5852 23.2031 40.543 23.3625 40.543 23.3625C40.2055 23.0532 40.1914 23.325 40.1914 23.325C40.1562 23.7 40.1633 24.225 40.1633 24.225C39.9242 24.0656 39.9172 24.2719 39.9172 24.2719C39.8469 24.6094 39.5586 24.9938 39.5586 24.9938C39.5445 24.7875 39.4039 24.7313 39.4039 24.7313C39.2492 25.125 38.975 25.3594 38.975 25.3594C38.9398 25.6875 39.0102 26.1656 39.0102 26.1656C38.8273 26.1094 38.7641 26.1094 38.7289 26.1656C38.7078 26.2313 38.7711 26.2594 38.7711 26.2594L41.1195 26.3344C41.1547 26.3344 41.2953 26.3625 41.2953 26.6906C41.2953 27.0375 41.0844 27.0563 41.0844 27.0563L38.525 26.9719C38.525 26.9719 38.532 27.0657 38.3984 27.1594C38.2648 27.2532 38.3141 27.0563 38.2789 27.4781C38.2367 27.8906 37.7305 27.4407 37.7305 27.4407C37.6461 27.6094 37.4492 27.8157 37.4492 27.8157C37.3297 27.3469 37.2102 27.2156 37.0273 27.6094C36.8445 28.0125 37.3648 27.9469 37.3648 27.9469C37.3648 27.9469 40.3742 27.3563 40.5359 27.3375C40.6977 27.3094 40.8805 27.3281 40.9578 27.6282C41.0281 27.9375 40.5852 27.9844 40.5852 27.9844L37.4914 28.4344C37.4281 28.6781 37.175 28.6594 37.175 28.6594C37.1961 28.8938 37.0133 29.0344 36.9219 29.1282C36.8234 29.2031 36.5281 29.175 36.5281 29.175C36.1766 29.4938 35.9937 29.2406 35.9937 29.2406C35.7617 29.3719 35.6141 29.3156 35.4242 29.2031C35.2273 29.0906 35.2484 28.7813 35.2484 28.7813L33.2937 29.0625C33.2373 29.0867 33.1849 29.1249 33.1391 29.175C33.2094 29.2969 32.9984 29.5781 32.9984 29.5781C33.0617 29.625 33.1742 29.775 33.1883 30.0938C33.2023 30.4406 32.8719 30.4969 33.0336 30.75C33.1953 30.9844 33.5047 30.7781 33.8422 30.5625C34.1797 30.3469 34.5102 30.375 34.6508 30.375C34.7914 30.375 35.1992 30.525 35.4523 30.6375C35.7055 30.75 35.7898 30.675 35.8039 30.5063C35.818 30.3469 35.9375 30.2906 35.9375 30.2906C35.9023 30.4594 35.9727 30.5344 35.9727 30.5344C36.0641 30.5149 36.1523 30.4736 36.2328 30.4125C36.2187 30.5438 36.0922 30.6188 36.0922 30.6188C35.8531 30.8344 36.1906 30.7594 36.1906 30.7594C36.8586 30.5719 37.1047 30.5906 37.2734 30.6188C37.6158 30.7533 37.9517 30.9161 38.2789 31.1063C38.307 30.9938 38.2859 30.7313 38.2859 30.7313C38.4969 30.8063 38.5813 30.9656 38.5813 30.9656C38.6656 30.8531 38.6094 30.6469 38.6094 30.6469C39.2914 31.1625 38.4688 31.3969 38.2508 31.4906C38.0398 31.5844 38.0398 31.7063 38.0398 31.7063C38.2156 31.6313 38.3422 31.6031 38.4898 31.5844C38.6445 31.5656 38.5883 31.5844 38.9469 31.4906C39.3125 31.3969 39.4953 31.6031 39.4953 31.6031C39.193 31.6219 39.1086 31.7438 39.1086 31.7438C39.2914 31.9031 39.1086 32.0625 39.1086 32.0625C38.8414 31.5938 38.6023 32.0719 38.6023 32.0719C38.7577 32.0718 38.9112 32.1166 39.0523 32.2031L39.432 32.4563C39.6852 32.6063 39.6359 32.5125 39.8258 32.6063C40.0227 32.7 39.9453 32.9531 39.9453 32.9531C39.868 32.7469 39.6852 32.6719 39.6852 32.6719C39.6711 32.9531 39.4672 33 39.4672 33C39.7203 32.625 39.1789 32.4563 38.9187 32.4656C38.6656 32.4656 38.4758 32.6907 38.4758 32.6907C38.9891 33.3375 39.3406 33.1219 39.3406 33.1219C39.2773 33.3563 38.8555 33.2625 38.8555 33.2625C39.0523 33.4688 39.0312 33.6 39.0312 33.6C38.9258 33.4688 38.75 33.5344 38.3844 33.225C38.0188 32.8969 37.6883 33.0094 37.6883 33.0094C38.0539 33.5063 37.5617 33.8157 37.5617 33.8157C37.3789 33.9657 37.632 34.1438 37.632 34.1438C37.407 34.2 37.3789 33.9 37.3789 33.9C37.2594 33.8625 37.0836 34.05 37.0836 34.05C37.0977 33.75 37.407 33.9 37.407 33.5813C37.4211 33.2532 37.1258 33 36.2609 33.1594C35.3891 33.3188 35.1359 32.9531 35.1359 32.9531C35.0656 32.9531 35.0516 33.0469 35.0516 33.0469C35.1922 33.2344 35.2555 33.3094 35.2344 33.4407C35.2063 33.5625 35.2766 33.6094 35.2766 33.6094C35.1148 33.5906 35.1078 33.3469 35.1078 33.3469C35.1078 33.45 35.0727 33.4594 35.0164 33.5625C34.9602 33.6656 35.0164 33.8157 35.0164 33.8157C34.9461 33.7407 34.8266 33.6469 34.9461 33.4125C35.0305 33.2438 34.7562 33.0188 34.7562 33.0188C34.6508 32.8782 34.3625 33.0188 34.3625 33.0188C34.1972 33.0658 34.0258 33.0589 33.863 32.9985C33.7001 32.9381 33.5507 32.826 33.4273 32.6719C33.357 32.6719 33.2234 32.6156 33.2234 32.6156C32.5977 32.9906 32.0492 32.1844 32.0492 32.1844C31.5781 32.3063 31.3602 31.9969 31.2195 31.6969C31.1385 31.4924 31.0103 31.3281 30.8539 31.2281C30.6711 31.0781 30.4883 30.6469 30.6711 30.4125C30.8117 30.2156 30.7766 30.1688 30.7766 30.1688C30.5305 29.6156 31.2055 29.4469 31.2195 29.3063C31.2406 29.1188 31.3812 28.9969 31.5359 28.9875C31.6906 28.9688 31.6906 28.9875 31.7961 28.8563C31.8875 28.7156 32.0773 28.8844 32.0773 28.8844C32.1266 28.8469 32.4641 28.5 32.7594 28.6781C33.0617 28.8563 33.3148 28.7344 33.3148 28.7344C33.5258 28.6688 35.2836 28.3594 35.2836 28.3594C35.3891 28.125 35.4734 27.8531 35.9586 27.7031C36.4437 27.5531 36.8023 27.1406 36.8023 27.1406C36.718 27.0281 36.5773 27.0282 36.507 27.0188C36.4297 27.0188 36.282 26.8313 36.282 26.8313C36.1906 26.8875 36.1414 26.8594 35.5086 27.375C34.9391 27.8438 34.925 26.925 34.925 26.925H33.6805C33.6594 27.2719 33.4695 27.4125 33.4695 27.4125L33.0125 27.4407C32.7594 27.2719 32.7594 26.6719 32.7594 26.6719C31.3953 26.7 30.643 27.3469 30.643 27.3469C29.0961 26.2969 27.8867 26.0531 27.8867 26.0531C28.8772 25.9575 29.8478 25.6339 30.7555 25.0969C31.3633 25.5874 32.0505 25.8767 32.7594 25.9406C32.7945 25.4344 33.0477 25.3125 33.0477 25.3125L33.3289 25.35Z" fill="black"/>
<path d="M31.0985 29.4938C30.7118 29.7938 30.7821 29.9625 30.8173 30.0563C30.8524 30.15 30.8524 30.2438 30.747 30.3938C30.6415 30.5344 30.6485 30.5813 30.6485 30.5813C30.6696 31.0875 30.9298 31.2 31.0493 31.3313C31.1478 31.425 31.3024 31.7531 31.3024 31.7531C31.5063 32.1375 31.7173 32.1469 31.872 32.1469C32.0337 32.1469 32.0126 32.1188 31.9423 32.025L31.7032 31.7719C31.8599 31.8606 32.0011 31.9915 32.1181 32.1563C32.5118 32.7375 32.8774 32.6625 33.0392 32.6438C33.2009 32.6156 33.1798 32.4844 33.1798 32.4844C33.1251 32.4618 33.0683 32.4491 33.011 32.4469C32.4134 32.3719 32.2376 31.8469 32.2376 31.8469C32.5412 32.2028 32.9302 32.4024 33.3345 32.4094C33.5032 32.4 33.4962 32.4656 33.454 32.4844L33.2853 32.4656C33.2079 32.4656 33.2079 32.4938 33.222 32.5406C33.2431 32.5781 33.3204 32.5781 33.4118 32.5781C33.5103 32.5781 33.4329 32.5875 33.679 32.8406C33.9321 33.1031 34.5438 32.8875 34.5438 32.8875C34.1431 32.7656 34.0938 32.5125 34.0938 32.5125C33.5524 32.6063 33.3345 32.175 33.3345 32.175C33.2119 32.0481 33.08 31.9382 32.9407 31.8469C32.6454 31.6688 32.5892 31.3031 32.5892 31.3031C32.6806 31.4719 32.8493 31.6594 33.0603 31.7344C33.2712 31.8094 33.3274 31.8469 33.3274 31.8469C33.2734 31.8632 33.2169 31.8566 33.1657 31.8281C32.9548 31.7344 33.0743 31.8563 33.0743 31.8563C33.3134 32.1094 33.3767 32.0906 33.3767 32.0906C33.9813 32.175 33.679 31.8469 33.679 31.8469C34.1149 31.9875 34.1853 31.7719 34.1853 31.7719C34.2767 32.025 34.6071 31.9313 34.6071 31.9313C34.1712 32.2125 34.5017 32.1281 34.5017 32.1281C34.9446 32.025 35.036 32.175 35.036 32.175C35.1485 32.3156 35.2751 32.3063 35.2751 32.3063C35.2751 32.3063 35.3595 32.3063 35.5212 32.3438C35.6899 32.3906 35.9571 32.5781 36.1962 32.55C36.4423 32.5031 36.4774 32.6063 36.4774 32.6063C36.4353 32.5781 36.3228 32.5594 36.1399 32.6719C35.9501 32.7938 35.6196 32.8219 35.1415 32.6719C34.6634 32.5219 34.6212 32.55 34.6212 32.55C34.7407 32.6531 34.8392 32.8219 34.8603 32.925C34.8813 33.0375 34.9657 33.0375 34.9657 33.0375C35.0009 32.8969 35.1415 32.8406 35.1415 32.8406C35.2514 32.9445 35.3692 33.0325 35.4931 33.1031C35.5212 33.0375 35.4931 32.9813 35.4931 32.9813C35.6759 33.2156 35.8868 33.1406 35.8868 33.1406C35.9431 33.0938 35.929 32.9531 35.929 32.9531C35.9993 32.9531 36.0134 33.0094 36.0696 33.0656C36.1188 33.1031 36.2806 33.075 36.2806 33.075C36.2243 33.0375 36.1751 32.9156 36.1751 32.9156C36.4212 32.7 36.9485 32.7938 36.9485 32.7938C37.3212 32.8875 37.279 33.2156 37.279 33.2156C37.3453 33.268 37.4047 33.3345 37.4548 33.4125C37.4899 33.3 37.4548 33.1781 37.4548 33.1781C37.6376 33.2906 37.6657 33.5531 37.6657 33.5531C37.8767 33.2531 37.4759 32.9156 37.4759 32.9156C37.6657 32.8781 37.8767 32.8969 38.0032 32.9156C38.1747 32.9553 38.3349 33.0557 38.4673 33.2063C38.6149 33.3656 38.8821 33.4406 38.8821 33.4406C38.8751 33.375 38.7274 33.2531 38.6923 33.2344C38.6642 33.2156 38.6501 33.15 38.6501 33.15C38.7837 33.1875 38.8681 33.1688 38.8681 33.1688C38.4181 32.7938 38.2985 32.6156 38.2985 32.6156C38.4673 32.6438 38.5657 32.5031 38.5657 32.5031C38.2071 32.5031 38.186 32.3906 38.186 32.3906C38.2353 32.4 38.404 32.4563 38.622 32.4C38.8399 32.3438 39.1282 32.4 39.1282 32.4C38.9735 32.0625 38.3759 32.1188 38.179 32.1375C37.9821 32.1563 37.9118 32.1188 37.9118 32.1188C37.9399 32.1 37.9751 32.0625 38.1228 32.0531C38.2774 32.0531 38.4251 32.0719 38.6009 31.9031C38.7626 31.7531 39.0017 31.8094 39.0017 31.8094C38.9454 31.6594 38.6712 31.6031 38.4392 31.8094C38.1931 32.0063 37.9821 31.95 37.9821 31.95C38.3548 31.875 38.4673 31.6969 38.4673 31.6969C38.3548 31.6594 38.2915 31.7063 38.0595 31.7719C37.8345 31.8281 37.7782 31.725 37.7782 31.725C38.0243 31.5281 38.2001 31.4438 38.2001 31.4438C37.9892 31.3875 37.7923 31.2563 37.7923 31.2563C37.5673 31.5375 37.3985 31.6875 36.9696 31.4063C36.5478 31.1063 36.3228 31.1438 36.3228 31.1438C36.7024 30.8531 37.0821 30.975 37.3634 31.2C37.6446 31.4156 37.7149 31.2375 37.7149 31.2375C37.6306 31.1719 37.6446 31.0969 37.6446 31.0969C38.3196 31.5563 38.6149 31.2844 38.7626 31.1438C38.9103 31.0031 38.6923 30.825 38.6923 30.825C38.6782 31.1063 38.411 31.2563 38.186 31.1531C37.9751 31.0594 37.7642 30.9281 37.4548 30.75C37.1454 30.5813 36.7517 30.675 36.3931 30.7688C36.0274 30.8719 35.9782 30.825 35.9431 30.7875C35.9079 30.75 35.8938 30.6281 35.704 30.7313C35.5212 30.8344 35.0853 30.5625 34.8181 30.4781C34.5509 30.3844 34.1079 30.4313 33.7282 30.7125C33.3485 31.0031 33.1517 30.9281 33.0392 30.8625C32.9267 30.7875 32.8493 30.6 32.9759 30.4313C33.1024 30.2625 33.1165 30.2156 33.1024 29.9625C33.0884 29.7188 32.9056 29.5688 32.9056 29.5688C33.0743 29.3344 33.1165 29.2875 33.0603 29.1938C33.004 29.0813 33.0884 29.0813 33.1868 29.025C33.2853 28.9688 33.2431 28.9594 33.222 28.8844C33.1938 28.8094 33.1376 28.8281 33.1376 28.8281C32.9196 28.8375 32.7931 28.7531 32.7931 28.7531C32.4274 28.5281 32.0829 28.9688 32.0829 28.9688C31.872 28.7531 31.8228 28.9031 31.7876 28.95C31.7524 28.9969 31.6751 29.0438 31.5767 29.0438C31.4923 29.0625 31.3587 29.1094 31.3095 29.2219C31.3095 29.2219 31.2673 29.3156 31.3165 29.4094C31.3165 29.4094 31.3728 29.5219 31.2743 29.6625C31.1688 29.8031 31.1337 29.8313 31.1688 29.9719C31.197 30.0938 31.1899 30.1969 31.1478 30.2813C31.1478 30.2813 31.0985 30.2156 31.1126 30.1219C31.1267 30.0281 31.1267 29.9719 31.1126 29.9344C31.1126 29.9344 31.0071 30.0656 30.986 30.1594C30.986 30.1594 30.9438 30.0094 31.0985 29.8125C31.2392 29.625 31.3095 29.5125 31.2673 29.4375C31.2392 29.3813 31.1267 29.475 31.1056 29.4938H31.0985Z" fill="#FFC221"/>
<path d="M31.5284 31.6875C31.5284 31.6875 31.3386 31.5 31.3597 31.2281C31.3808 30.975 31.3808 30.9469 31.3597 30.8813C31.3597 30.8813 31.3245 30.9094 31.3315 31.0125C31.3315 31.1063 31.3175 31.2094 31.3104 31.2281C31.3104 31.2281 31.219 31.0125 31.1698 30.9656C31.1698 30.9656 31.212 30.7406 31.1558 30.6469C31.1065 30.5438 31.0503 30.5344 30.987 30.5719C30.9026 30.6094 30.8393 30.7125 31.1276 31.0219C31.1276 31.0219 31.2331 31.1438 31.3034 31.3875C31.3737 31.6313 31.5003 31.6688 31.5214 31.6875H31.5284ZM32.4425 30.9563C32.4425 30.9563 32.4354 30.8156 32.5339 30.5531C32.5686 30.4743 32.5887 30.3854 32.5924 30.2941C32.596 30.2027 32.5832 30.1115 32.555 30.0281C32.5339 29.9531 32.5128 29.9813 32.6183 29.8688C32.7378 29.7281 32.569 29.55 32.78 29.3063C32.78 29.3063 32.9065 29.1563 32.9417 29.0906C32.9417 29.0906 32.7308 29.2406 32.5761 29.325C32.4354 29.4 31.9011 29.7563 32.0136 29.9906C32.1401 30.225 32.1261 30.2438 32.105 30.3469C32.105 30.3469 31.7815 30.1125 31.894 29.7469C31.894 29.7469 31.9503 29.6063 32.0839 29.4281C32.2104 29.2781 32.1401 29.4656 32.3862 29.2688C32.3862 29.2688 32.5761 29.1188 32.6886 28.9031C32.6886 28.9031 32.5479 29.0156 32.5058 29.0344C32.5058 29.0344 32.2245 29.1094 32.0979 29.2688C31.9854 29.4281 31.7393 29.7094 31.8167 30.0188C31.8167 30.0188 31.5354 29.9813 31.4651 29.5781C31.4651 29.5781 30.9308 30.4594 32.0558 30.8719C32.0558 30.8719 32.2667 30.9469 32.4495 30.9656L32.4425 30.9563Z" fill="black"/>
<path d="M37.3777 28.0312C37.7996 27.9375 40.2183 27.45 40.4433 27.4219C40.6824 27.3937 40.7738 27.3469 40.8582 27.6094C40.9496 27.8906 40.5207 27.9 40.5207 27.9L37.6308 28.3406C37.4902 28.3594 37.4551 28.2844 37.4551 28.2844L37.3496 28.0969C37.3496 28.0969 37.3144 28.0406 37.3777 28.0219V28.0312Z" fill="#FFC221"/>
<path d="M31.4509 29.7844C31.4509 29.7844 31.1415 30.6562 32.365 30.8719C32.365 30.8719 32.372 30.7781 32.4212 30.6375C32.4775 30.4969 32.5829 30.2156 32.4775 30.0375C32.379 29.8594 32.5619 29.9531 32.5829 29.7187C32.6181 29.4844 32.5689 29.5125 32.6533 29.3625C32.6533 29.3625 32.2736 29.55 32.1189 29.7844C31.9783 30.0094 32.3228 30.1781 32.1189 30.4312C32.1189 30.4312 31.9431 30.3375 31.8376 30.0937C31.8376 30.0937 31.6056 30.0937 31.4509 29.7844Z" fill="#5A3719"/>
<path d="M32.6594 30.8625C32.6594 30.8625 32.9617 31.2094 33.3203 31.2C33.6789 31.1719 33.8407 31.05 33.9321 30.8625C33.9321 30.8625 34.0024 31.0031 34.0024 31.1062C34.0024 31.1062 34.3117 30.7594 34.8461 31.0594C35.3805 31.3594 35.2258 31.275 35.3453 31.2937C35.3453 31.2937 35.1133 31.2469 34.593 31.5656C34.0516 31.8937 32.6453 31.7812 32.6524 30.8625H32.6594Z" fill="black"/>
<path d="M32.1556 29.3062C32.1556 29.3062 32.2891 29.3344 32.4227 29.1281C32.4227 29.1281 32.2399 29.175 32.1556 29.3156V29.3062ZM31.122 30.9375C31.122 30.9375 30.8688 30.675 31.0306 30.6187C31.0306 30.6187 31.1501 30.5906 31.122 30.9375Z" fill="#5A3719"/>
<path d="M36.6484 32.6063C36.6484 32.6063 36.7891 32.2781 37.1758 32.2781C37.5625 32.2781 37.6047 32.5219 38.0969 32.5594C38.0969 32.5594 37.5062 32.7844 37.0984 32.5875C36.8875 32.4844 36.6906 32.5688 36.6484 32.6063Z" fill="black"/>
<path d="M32.7852 31.0969C32.7852 31.0969 33.3758 31.5656 33.8891 31.05C33.8891 31.05 33.9313 31.1062 33.9734 31.2375C33.9734 31.2375 34.3672 30.7312 35.0633 31.275C35.0633 31.275 34.9789 31.2656 34.6484 31.4437C34.2195 31.6969 33.1437 31.8656 32.7852 31.0875V31.0969Z" fill="#5A3719"/>
<path d="M35.0352 31.5656C35.0352 31.5656 35.5977 31.6594 36.0688 31.6219C36.357 31.6031 36.6734 31.5281 36.5188 31.6594C36.357 31.7812 36.4414 31.8 37.1094 31.725C37.7703 31.6312 37.1023 31.8844 37.5594 31.9687C37.5594 31.9687 36.4414 32.7187 35.0352 31.5656Z" fill="black"/>
<path d="M36.5078 31.0969C36.5078 31.0969 36.8312 30.9375 37.1406 31.125C37.443 31.3125 37.3937 31.3312 37.5977 31.3594C37.5977 31.3594 37.457 31.6312 37.1266 31.4156C36.7891 31.2 36.7047 31.1531 36.5078 31.0969ZM36.8734 32.4375C36.8734 32.4375 37.1969 32.2219 37.5484 32.4375C37.5906 32.475 37.6891 32.5312 37.7805 32.55C37.7805 32.55 37.5133 32.6719 37.232 32.55C37.1125 32.5031 37.0211 32.4656 36.8734 32.4375ZM35.2773 31.6687C35.2773 31.6687 36.0016 31.7625 36.3883 31.6594C36.3883 31.6594 35.9383 31.9406 37.0703 31.8187C37.0703 31.8187 37.3164 31.7812 37.2812 31.8281C37.2602 31.875 37.2391 31.9219 37.3656 31.9687C37.3656 31.9687 36.5219 32.475 35.2773 31.6687Z" fill="#5A3719"/>
<path d="M31.6901 30.8625C31.6901 30.8625 31.7041 30.9281 31.8588 31.0219C32.0206 31.125 32.1049 31.2938 32.1401 31.3875C32.1646 31.4533 32.1991 31.5114 32.2415 31.5582C32.2839 31.6051 32.3332 31.6395 32.3862 31.6594C32.3862 31.6594 31.8237 31.8188 31.5706 31.4156C31.5706 31.4156 31.3807 31.1344 31.6831 30.8531" fill="black"/>
<path d="M36.1186 32.5875C36.1186 32.5875 35.9006 32.5687 35.5912 32.4281C35.2889 32.2875 35.2116 32.4094 35.0358 32.2406C34.867 32.0625 34.5225 32.175 34.4592 32.1844C34.3889 32.1937 34.2061 32.1844 34.4381 31.9875C34.4381 31.9875 34.2553 31.9875 34.185 31.8562C34.185 31.8562 34.1006 31.9687 33.7912 31.9312C33.7912 31.9312 33.9319 32.2125 33.3694 32.1281C33.4637 32.2731 33.5884 32.3774 33.7274 32.4275C33.8664 32.4776 34.0135 32.4713 34.1498 32.4094C34.1498 32.4281 34.1147 32.6437 34.3608 32.7375C34.628 32.8219 34.6772 32.8875 34.8108 32.9531C34.8108 32.9531 34.8319 32.8125 34.4873 32.4844C34.4873 32.4844 34.6701 32.4656 34.9373 32.55C35.2045 32.6344 35.7951 32.8406 36.1186 32.5875ZM36.2592 32.9344C36.2592 32.9344 36.3155 33.1031 36.4842 33.0656C36.653 33.0281 36.9342 32.9719 37.2014 33.1406C37.2014 33.1406 37.2506 32.8406 36.7092 32.8219C36.7092 32.8219 36.3717 32.8406 36.2592 32.9344ZM31.6748 30.9656C31.6748 30.9656 31.4639 31.2 31.6537 31.4344C31.8225 31.65 32.0897 31.6312 32.2162 31.6219C32.2162 31.6219 32.1459 31.5656 32.0756 31.4344C32.0053 31.2937 32.0053 31.2 31.8647 31.1156C31.717 31.0312 31.703 31.0125 31.6748 30.9656ZM31.4639 29.7844C31.4639 29.7844 31.1405 30.6562 32.378 30.8719C32.378 30.8719 32.378 30.7781 32.4272 30.6375C32.4694 30.4969 32.5748 30.2156 32.4834 30.0375C32.3709 29.8594 32.5608 29.9531 32.5889 29.7187C32.617 29.4844 32.5678 29.5125 32.6592 29.3625C32.6592 29.3625 32.2725 29.55 32.1178 29.7844C31.9772 30.0094 32.3217 30.1781 32.1178 30.4312C32.1178 30.4312 31.942 30.3375 31.8366 30.0937C31.8366 30.0937 31.6045 30.0937 31.4498 29.7844H31.4639Z" fill="#5A3719"/>
<path d="M34.6836 31.8094C34.6836 31.8094 34.9437 31.7531 35.5977 32.0813C36.2586 32.4 36.5328 32.325 36.6242 32.3156C36.6242 32.3156 36.2586 32.5781 35.682 32.2406C35.1758 31.9406 35.1477 32.0531 34.6836 31.8094Z" fill="black"/>
<path d="M38.7974 31.6125C38.7974 31.6125 38.938 31.6125 39.0364 31.6594C39.0364 31.6594 39.0857 31.5938 39.2263 31.5656C39.2263 31.5656 39.1349 31.4531 38.7974 31.6125ZM38.3474 31.125C38.3474 31.125 38.495 31.125 38.5442 31.0125C38.5442 31.0125 38.4669 30.8906 38.3474 30.825C38.3474 30.825 38.3755 30.975 38.3474 31.125ZM33.306 28.8938C33.306 28.8938 33.2708 28.8 33.4325 28.7625L35.6333 28.3406C35.6333 28.3406 35.7388 28.3406 35.7528 28.4344C35.7739 28.5375 35.7458 28.6125 35.2466 28.6875L33.4466 28.9875C33.4466 28.9875 33.313 29.0156 33.306 28.8938Z" fill="#FFC221"/>
<path d="M35.2969 28.7719C35.2969 28.7719 35.2969 29.1562 35.5922 29.2125C35.8734 29.2687 35.9789 29.1937 36.0492 28.9969C36.0703 28.9312 36.1617 28.5281 36.0352 28.5C35.9789 28.4906 35.8945 28.5 35.8313 28.5281C35.7328 28.5937 35.6414 28.6594 35.6695 28.7156C35.7398 28.8656 35.7539 28.9031 35.7398 28.9031C35.6555 28.9312 35.6133 28.8469 35.5992 28.7906C35.5781 28.7156 35.6344 28.6781 35.4445 28.7156C35.3602 28.725 35.3039 28.725 35.3039 28.7719H35.2969ZM36.5273 28.4719C36.668 28.5 36.6609 28.9219 36.4852 29.1187C36.2883 29.325 36.1055 29.2406 36.1055 29.2406C36.007 29.1937 36.0211 29.2031 36.0984 29.0531C36.1688 28.9125 36.2039 28.7156 36.1617 28.5844C36.1477 28.5375 36.1828 28.5 36.232 28.4906C36.232 28.4906 36.3727 28.4531 36.5273 28.4719Z" fill="#FFC221"/>
<path d="M36.6532 28.5094C36.6532 28.5094 36.7657 28.6969 36.625 29.025C36.625 29.025 36.5688 29.1188 36.7024 29.1094C36.8289 29.0906 37.1313 28.9031 37.1032 28.6594C37.1032 28.6594 37.0891 28.6031 37.0118 28.6031C36.9344 28.6031 36.9977 28.5563 37.0328 28.5281C37.061 28.5281 37.1664 28.4719 36.8993 28.2469C36.8993 28.2469 36.8571 28.1906 36.8078 28.2188C36.7657 28.2375 36.625 28.3125 36.625 28.425C36.625 28.4719 36.6532 28.5188 36.6532 28.5188V28.5094Z" fill="#FFC221"/>
<path d="M36.943 28.2094C36.943 28.2094 37.1539 28.4062 37.1539 28.4719C37.1539 28.5281 37.1328 28.6125 37.1891 28.5937C37.2453 28.5937 37.4703 28.5281 37.4 28.3312C37.3438 28.1344 37.2805 28.05 37.175 28.0125C37.0695 27.9562 37.0414 28.0219 36.95 28.1156C36.95 28.1156 36.8867 28.1719 36.943 28.2094ZM35.8109 28.4906C35.8109 28.4906 35.8461 28.35 35.6562 28.2844C35.6562 28.2844 35.7336 28.1906 35.8953 28.2469C36.05 28.2844 36.0359 28.4344 36.0359 28.4437C36.0359 28.4437 35.9094 28.4437 35.8109 28.4906ZM36.2187 28.4531C36.2187 28.4531 36.4297 28.4062 36.5352 28.4156C36.5352 28.4156 36.4227 28.1062 36.1344 28.2C36.1344 28.2 36.2398 28.3687 36.2187 28.4531ZM36.5914 28.3781C36.5914 28.3781 36.5914 28.275 36.7742 28.1812C36.7742 28.1812 36.6898 28.0687 36.5633 28.0875C36.4227 28.0875 36.3875 28.1531 36.3875 28.1531C36.3875 28.1531 36.5492 28.2281 36.5914 28.3781ZM36.6617 28.0406C36.6617 28.0406 36.7812 28.0781 36.8516 28.1625C36.8516 28.1625 36.957 28.0031 37.0484 27.975C37.0484 27.975 36.8727 27.8437 36.6617 28.0406Z" fill="#FFC221"/>
<path d="M30.6422 27.2719C30.6422 27.2719 31.1484 26.6906 31.4297 26.7656C31.7109 26.8406 31.5703 26.7844 31.8797 26.7188C32.1891 26.6625 32.5125 26.6156 32.6391 26.6344C32.6391 26.6344 32.2594 26.2781 31.5914 26.2875C31.5914 26.2875 31.1273 26.5031 30.7969 26.7844C30.7969 26.7844 30.1711 26.325 29.5312 26.5969C29.5312 26.5969 30.2273 26.9438 30.6422 27.2719Z" fill="#5A3719"/>
<path d="M36.0133 28.2562L36.0977 28.2375C36.0977 28.2375 36.2383 28.4719 36.1398 28.4719C36.0555 28.4719 36.0836 28.4437 36.0695 28.3781C36.0617 28.3301 36.0419 28.2871 36.0133 28.2562ZM35.3805 28.275C35.3805 28.275 35.3242 28.3687 35.4227 28.35C35.5422 28.3219 35.5211 28.35 35.6406 28.2281C35.6406 28.2281 35.725 28.125 35.8656 28.1906C35.8656 28.1906 35.9922 28.2469 36.0906 28.1812C36.1891 28.1062 36.2102 28.1156 36.2664 28.125C36.3227 28.125 36.3227 28.1437 36.3859 28.0687C36.4563 28.0031 36.5828 28.0594 36.6602 27.975C36.7375 27.8812 36.8359 27.9562 36.6602 27.7875C36.6602 27.7875 36.625 27.7406 36.625 27.6937C36.625 27.6937 36.6953 27.7312 36.7516 27.7875C36.8078 27.8625 36.8922 27.8344 36.9063 27.825C36.9063 27.825 36.9203 27.6094 37.068 27.4219C37.2297 27.2344 37.2297 27.2156 37.1383 27.2156C37.0469 27.2156 36.8922 27.1594 36.8359 27.2156C36.7797 27.2719 36.3297 27.6656 36.0625 27.7312C35.7953 27.7968 35.5492 27.9 35.3805 28.275ZM28.2578 26.0812C28.2578 26.0812 29.0805 26.3625 29.2633 26.475C29.2633 26.475 29.3055 26.2969 28.9328 26.1562C28.9328 26.1562 29.8398 26.1187 30.7891 26.7C30.7891 26.7 31.2531 26.175 32.7367 26.3344C32.7367 26.3344 32.7367 26.1656 32.7508 26.025C32.7508 26.025 31.7102 25.9875 30.7539 25.2094C30.7539 25.2094 29.8891 25.7719 28.2578 26.0812ZM32.807 26.6062C32.7578 25.5 33.0742 25.3875 33.0742 25.3875C33.0742 25.3875 33.2219 25.3875 33.3836 25.4344C33.3836 25.4344 33.1305 25.8375 33.2008 26.6344C33.2008 26.6344 33.2289 26.7562 33.0109 26.7562C32.793 26.7562 32.807 26.6156 32.807 26.6156V26.6062Z" fill="#FFC221"/>
<path d="M33.0312 27.3469C33.0312 27.3469 32.8695 27.1312 32.8555 26.8875C32.8555 26.8875 32.8555 26.8312 33.0102 26.8312C33.1719 26.8312 33.1859 26.8125 33.2211 26.9344C33.2633 27.0562 33.3617 27.3094 33.3828 27.3375L33.0312 27.3469Z" fill="#5A3719"/>
<path d="M33.3629 26.7844C33.3498 26.6445 33.3451 26.5034 33.3488 26.3625C33.3559 25.7437 33.4332 25.8 33.4684 25.875H33.6301C33.6301 25.875 33.5106 25.1812 33.3699 25.5937C33.2667 25.8991 33.2302 26.237 33.2645 26.5687C33.2715 26.7562 33.2856 26.8781 33.3066 26.9437L33.3629 26.7844Z" fill="#FFC221"/>
<path d="M35.1688 26.7844C35.1688 26.7844 35.4711 26.8594 35.007 27C35.007 27 35.0281 27.7687 35.5836 27.2344C35.5836 27.2344 35.9141 26.9531 36.1461 26.8406C36.1461 26.8406 36.2586 26.7844 36.2445 26.6719C36.2445 26.6719 36.2586 26.5312 36.1391 26.5687C36.1391 26.5687 36.0406 26.5687 35.9773 26.5406C35.9773 26.5406 35.907 26.4281 35.8648 26.4656C35.8227 26.5125 35.7172 26.4844 35.8016 26.625C35.8859 26.7562 35.907 26.7187 35.9422 26.6812C35.9844 26.6437 36.1602 26.55 36.0055 26.7468C35.8508 26.9437 35.7102 26.6344 35.6539 26.5781L35.1688 26.7844ZM33.6219 26.8781H33.4813C33.4813 26.8781 33.4109 27.0281 33.3617 26.7844L33.3125 26.9343C33.3125 26.9343 33.4742 27.7594 33.6219 26.8781Z" fill="#5A3719"/>
<path d="M33.4282 25.9312C33.4282 25.9312 33.3579 26.475 33.4493 26.7937L34.9329 26.8406C34.9329 26.8406 34.9188 26.4656 34.9329 25.9312H34.736C34.736 25.9312 34.7008 26.3625 34.736 26.6344H34.7008C34.7008 26.6344 34.6727 26.2594 34.7008 25.9312H34.525C34.525 25.9312 34.4969 26.3344 34.525 26.6344H34.4899C34.4899 26.6344 34.4618 26.2875 34.4899 25.9312H34.3141C34.3141 25.9312 34.279 26.2969 34.3141 26.6344H34.2719C34.2719 26.6344 34.2368 26.2687 34.2719 25.9312H34.0821C34.0821 25.9312 34.0399 26.2687 34.0821 26.6344H34.0469C34.0469 26.6344 34.0047 26.2969 34.0469 25.9312H33.8571C33.8571 25.9312 33.8149 26.325 33.8571 26.6344H33.8149C33.8149 26.6344 33.7868 26.2594 33.8219 25.9312H33.6461C33.6461 25.9312 33.5969 26.2594 33.6461 26.6344H33.5969C33.5969 26.6344 33.5688 26.3531 33.611 25.9312H33.4282ZM34.9961 26.9062C34.9961 26.9062 34.961 25.95 35.0946 25.6875C35.2352 25.4437 35.2704 25.5 35.5024 25.6875C35.7415 25.8937 36.0438 26.1094 36.1 26.1375C36.1422 26.1656 36.2125 26.1844 36.2125 26.3625C36.2125 26.5406 36.2336 26.5875 36.0297 26.3625C36.0086 26.3344 35.9102 26.2219 35.8399 26.1937C35.6571 26.1094 35.8821 26.2406 35.9454 26.3719C36.0016 26.4656 36.0508 26.4656 35.9032 26.5125C35.5978 26.6312 35.2954 26.7625 34.9961 26.9062Z" fill="#FFC221"/>
<path d="M35.5093 26.2125C35.5093 26.2125 35.4039 26.0437 35.5445 25.9969C35.6851 25.9594 35.6921 26.2781 35.7203 26.475C35.7414 26.6812 35.5445 26.2781 35.5234 26.2219L35.5093 26.2125ZM35.3195 27.0562C35.3195 27.0562 35.1578 27.1406 35.2703 27.2062C35.3687 27.2719 35.657 26.9531 35.5656 26.9719C35.4531 27 35.3195 27.0656 35.3195 27.0656V27.0562ZM35.5304 26.775C35.5304 26.775 35.6711 26.7469 35.6429 26.8219C35.6218 26.9156 35.5726 26.8594 35.5445 26.8406C35.5234 26.8219 35.432 26.775 35.5375 26.7656L35.5304 26.775Z" fill="black"/>
<path d="M36.2814 26.5125C36.2814 26.5125 36.3235 26.8875 36.5626 26.9813C36.5626 26.9813 36.7032 27.0188 36.6681 26.8594C36.6681 26.8594 36.647 26.7188 36.6259 26.6719C36.6048 26.6063 36.5134 26.5781 36.4993 26.5688C36.4853 26.5688 36.4782 26.5219 36.5415 26.55C36.6118 26.5781 36.6118 26.5875 36.6118 26.5219C36.6118 26.4563 36.5696 26.4844 36.5134 26.4469C36.4853 26.4281 36.5134 26.4094 36.5345 26.4188C36.5626 26.4188 36.6259 26.4469 36.6259 26.325C36.6259 26.325 36.6329 26.25 36.5626 26.25C36.4853 26.25 36.4923 26.1938 36.5134 26.1844C36.5345 26.1844 36.6189 26.2594 36.647 26.1281C36.6681 26.0063 36.5345 26.0813 36.5485 26.0156C36.5696 25.9406 36.6681 26.0438 36.6681 25.9688C36.6821 25.8938 36.7595 25.8656 36.6259 25.8375C36.5626 25.8281 36.6259 25.7813 36.6962 25.8C36.7665 25.8094 36.8087 25.6875 36.8579 25.65C36.9001 25.6031 37.1532 25.4063 36.8157 25.4719C36.4853 25.5375 36.3868 25.7531 36.3728 25.8C36.2889 26.0197 36.2571 26.2681 36.2814 26.5125Z" fill="#FFC221"/>
<path d="M37.0533 26.7938C37.1025 26.7938 37.1376 26.7938 37.1517 26.8406C37.208 26.9906 37.0814 26.9344 37.0111 27.0469C36.9408 27.1594 36.9408 27.1406 36.8423 27.0938C36.7439 27.0563 36.7017 26.8594 36.7017 26.8594C36.7017 26.7938 36.7369 26.7844 36.7861 26.8031C36.7861 26.8031 36.9478 26.8219 37.0603 26.8031L37.0533 26.7938ZM36.7017 26.7188C36.7017 26.7188 36.7017 26.7563 36.765 26.7656C36.8142 26.7656 36.9759 26.7938 37.0814 26.7563C37.0814 26.7563 37.1095 26.7469 37.0955 26.6625C37.0955 26.6625 37.0955 26.5969 37.0111 26.625C36.9197 26.6438 36.8001 26.625 36.7509 26.6156C36.7087 26.5969 36.6806 26.6156 36.6947 26.7094L36.7017 26.7188ZM36.6876 26.4469C36.6876 26.4469 36.6806 26.5688 36.765 26.5781C36.8564 26.5969 36.9689 26.5969 37.0111 26.5781C37.0462 26.5781 37.1095 26.5594 37.1166 26.4844C37.1166 26.4188 37.1306 26.3719 37.0251 26.4094C36.9197 26.4469 36.7861 26.4094 36.772 26.4094C36.765 26.4094 36.6876 26.3813 36.6876 26.4469ZM36.7228 26.2125C36.7228 26.2125 36.7017 26.2688 36.7087 26.325C36.7087 26.3719 36.772 26.3906 36.8845 26.3906C36.997 26.3906 37.0955 26.3719 37.1095 26.325C37.1165 26.2594 37.1447 26.2031 37.0603 26.2313C36.9689 26.2406 36.8494 26.25 36.8072 26.2313C36.765 26.2031 36.7298 26.1938 36.7228 26.2125Z" fill="#FFC221"/>
<path d="M40.9273 26.8125C40.9273 26.8125 40.9273 26.9062 40.9906 27.0187L37.8125 26.8969C37.8125 26.8969 37.8547 26.8594 37.8687 26.6906L40.9273 26.8125Z" fill="#5A3719"/>
<path d="M36.7531 26.0437C36.7531 26.0437 36.725 26.1469 36.7812 26.175C36.8305 26.1938 36.9359 26.2125 37.0625 26.1844C37.0625 26.1844 37.1328 26.1844 37.1539 26.0906C37.175 25.9969 37.175 26.0531 36.9922 26.0156C36.9922 26.0156 36.9359 25.9875 37.0977 25.9875C37.0977 25.9875 37.1961 25.9875 37.2031 25.9688C37.2242 25.95 37.3437 25.8094 37.182 25.8281C37.0203 25.8281 37.1047 25.7812 37.182 25.7812C37.2664 25.7812 37.2945 25.8094 37.3227 25.7812C37.3508 25.7531 37.3227 25.7625 37.2734 25.7063C37.2242 25.65 37.2664 25.6594 37.2945 25.6969C37.3297 25.725 37.3508 25.7438 37.3859 25.6969C37.4211 25.65 37.3578 25.5844 37.3859 25.6031C37.407 25.6031 37.4281 25.6781 37.5266 25.6031C37.6391 25.5375 37.7727 25.575 37.8078 25.6031C37.85 25.65 37.9625 25.6969 38.0258 25.6031C38.0961 25.5281 37.9484 25.4437 38.0047 25.4344C38.075 25.425 38.1172 25.4531 38.1383 25.3875C38.1664 25.3125 38.0398 25.2563 38.1594 25.2188C38.2719 25.1719 38.1734 24.75 38.1383 24.7031C38.1383 24.7031 38.0047 24.8062 37.8711 25.1062C37.7234 25.4156 37.6391 25.5938 37.4492 25.5C37.175 25.3594 37.0273 25.5562 36.9922 25.5938C36.9219 25.65 37.1328 25.6687 37.0062 25.6781C36.8867 25.6781 36.8867 25.6969 36.8797 25.7156C36.8656 25.7437 36.8797 25.7625 36.9008 25.7719C36.9219 25.7719 36.9641 25.8281 36.8938 25.8281C36.8234 25.8281 36.7672 25.8 36.7883 25.9125C36.7883 25.9125 36.7883 25.9313 36.8305 25.9406C36.8727 25.9406 36.8867 26.0156 36.8094 26.0156C36.7531 26.0156 36.7531 26.0344 36.7531 26.0437ZM37.0414 27.1031C37.0414 27.1031 36.9922 27.15 37.0625 27.1594C37.1469 27.1594 37.182 27.1875 37.2102 27.1312C37.2383 27.075 37.3367 27.0938 37.2664 27.0188C37.1961 26.9438 37.1539 26.9906 37.0414 27.1125V27.1031Z" fill="#FFC221"/>
<path d="M37.3718 25.8281C37.3718 25.8281 37.639 25.5 37.857 25.7156C38.082 25.95 38.096 25.9781 38.1031 25.9875C38.1031 25.9875 38.1312 26.0156 38.075 26.0812C38.0117 26.1562 38.075 26.1562 38.1382 26.1094C38.2015 26.0625 38.2085 26.1094 38.2367 26.1562C38.2718 26.2031 38.314 26.2312 38.2156 26.2312H37.8921C37.8921 26.2312 37.7445 26.25 37.8218 26.1656C37.8921 26.0812 37.8781 25.9875 37.8429 25.9781C37.8007 25.9781 37.8429 26.0344 37.8218 26.0719C37.7937 26.1094 37.7445 26.1375 37.6882 26.1375C37.632 26.1375 37.5898 26.1937 37.6742 26.2312C37.7515 26.2687 37.6601 26.2969 37.6179 26.2969C37.5757 26.2969 37.3718 26.3156 37.5828 26.3531C37.7937 26.3812 37.5617 26.3812 37.7234 26.4937C37.8921 26.625 37.7656 26.8969 37.7023 26.925C37.7023 26.925 37.632 26.9719 37.7164 26.9625C37.8078 26.9437 37.857 26.9344 37.7867 27C37.7304 27.0562 37.6039 27.2719 37.4351 27.1125C37.4351 27.1125 37.3507 27.0562 37.4914 27.0469C37.632 27.0469 37.3789 27 37.3296 26.9531C37.2945 26.925 37.1187 26.7 37.2242 26.7187C37.3367 26.7562 37.2945 26.6719 37.2312 26.6437C37.175 26.6156 37.1609 26.4937 37.2312 26.5125C37.3015 26.5406 37.3718 26.5969 37.4421 26.5875C37.4914 26.5875 37.4773 26.5594 37.3578 26.5125C37.2382 26.4562 37.189 26.4469 37.2171 26.325C37.2453 26.1844 37.3789 26.3719 37.3437 26.2687C37.3156 26.175 37.2031 26.2219 37.2593 26.0906C37.3156 25.9594 37.3296 26.0156 37.3648 26.0344C37.3859 26.0437 37.4351 26.0344 37.3578 25.9594C37.3015 25.9125 37.3578 25.8375 37.3718 25.8281Z" fill="#FFC221"/>
<path d="M37.5625 25.9219C37.5625 25.9219 37.5625 25.875 37.6187 25.8844C37.6609 25.8844 37.6469 25.8656 37.6609 25.8469C37.675 25.8469 37.7945 25.8937 37.682 25.9406C37.6398 25.9687 37.5695 25.9594 37.5695 25.9219H37.5625Z" fill="black"/>
<path d="M37.8205 26.2969C37.8205 26.2969 37.7291 26.3531 37.8065 26.4844C37.8768 26.5781 37.8768 26.625 37.8768 26.6906C37.8697 26.7656 40.9283 26.8125 40.9283 26.8125C40.9283 26.8125 40.9283 26.5406 41.0549 26.3906L37.8205 26.2969Z" fill="#FFC221"/>
<path d="M40.9766 26.7375C40.9766 26.7375 40.9906 26.5125 41.0891 26.4469C41.1383 26.4 41.2016 26.4187 41.2297 26.5969C41.2719 26.85 41.1102 27.075 41.0398 26.9719C40.9695 26.8781 40.9836 26.7375 40.9836 26.7375H40.9766Z" fill="#5A3719"/>
<path d="M37.4696 27.6938C37.4696 27.6938 37.6735 27.4594 37.7087 27.3563C37.7087 27.3563 38.2571 27.8813 38.222 27.3938L38.236 27.15C38.236 27.15 38.4399 27.1781 38.4681 26.9625L37.9548 26.9344C37.9548 26.9344 37.8985 26.925 37.8142 27.0375C37.7438 27.15 37.5751 27.2719 37.4274 27.1688C37.4274 27.1688 37.3571 27.0938 37.2938 27.1688C37.2235 27.2156 37.2235 27.2344 37.2798 27.3094C37.336 27.3844 37.4485 27.5813 37.4696 27.6844V27.6938ZM38.6509 26.25L38.3485 26.2313C38.3485 26.2313 38.2431 26.025 38.0251 25.8C38.0251 25.8 37.9618 25.7625 38.0813 25.6313C38.2079 25.5 38.2431 25.3688 38.2431 25.3031C38.2431 25.2469 38.2431 25.1438 38.2852 25.2094C38.3274 25.2844 38.6368 25.6688 38.6931 25.5563C38.7352 25.4438 38.7423 25.3969 38.7423 25.3594C38.7563 25.3219 38.7634 25.2188 38.8126 25.3313C38.8548 25.4344 38.8829 25.4063 38.8899 25.6875C38.8899 25.6875 38.8899 25.9688 38.9251 26.0625C38.9251 26.0625 38.5313 25.9031 38.6579 26.25H38.6509ZM37.3431 25.3875C37.3431 25.3875 37.5751 25.575 37.6946 25.3313C37.8001 25.0969 37.8774 25.0688 37.7931 24.8344C37.7087 24.6188 37.7931 24.5156 37.8563 24.4219C37.9267 24.3281 37.9829 24.3469 37.9829 23.9906C37.997 23.625 38.1798 23.5219 38.2642 23.4C38.3485 23.2875 38.5595 23.1188 38.236 23.0531C37.9267 22.9781 37.2938 22.7719 37.1321 22.4438C36.9704 22.1156 36.9001 22.3031 36.9001 22.3219C36.9001 22.3406 36.8438 22.575 37.0056 23.0063C37.1673 23.4375 37.3009 23.7188 37.4626 23.85C37.6173 23.9906 37.7579 24.0656 37.6735 24.3563C37.5892 24.6469 37.4626 25.1625 37.3431 25.3875Z" fill="#7B3C20"/>
<path d="M38.1937 24.4688C38.1937 24.4688 38.2359 25.2188 38.6367 25.4813C38.6367 25.4813 38.7281 25.2 38.6929 24.9094C38.6929 24.9094 38.8265 24.9188 38.8617 25.0031C38.8617 25.0031 38.8617 24.7875 38.6788 24.7031C38.489 24.6375 38.5804 24.1406 38.6507 24.0938C38.714 24.0375 38.6929 23.9344 38.6507 23.85C38.6015 23.7563 38.5945 23.6344 38.7492 23.6906C38.9109 23.7469 38.8898 23.6344 38.7843 23.5313C38.6929 23.4281 38.6929 23.2969 38.8335 23.2969C38.9742 23.2969 39.1851 23.1188 39.0585 23.0719C38.9179 23.0156 38.8827 22.95 39.0585 22.8844C39.2484 22.8094 39.3398 22.725 39.1992 22.6969C39.0585 22.6781 38.9671 22.6125 39.1007 22.5844C39.2343 22.5563 39.0796 22.3688 38.9249 22.3688C38.7632 22.35 38.4327 22.4344 38.6929 22.1531C38.9601 21.8719 38.3132 22.0781 38.5804 21.8906C38.8476 21.7031 38.489 21.7875 38.4398 21.7875C38.3906 21.7875 38.3906 21.7875 38.4117 21.6938C38.4257 21.6 38.3765 21.5438 38.2921 21.6094C38.2218 21.6656 38.2218 21.6656 38.2218 21.5438C38.2218 21.4031 38.1304 21.5063 38.0742 21.5438C38.0109 21.5719 37.8632 21.7219 37.7999 21.6375C37.7507 21.5531 37.7156 21.4781 37.5327 21.6188C37.3499 21.7594 37.3921 21.6375 37.3921 21.5719C37.3921 21.5063 37.4624 21.2531 37.2234 21.525C36.9843 21.7969 37.1742 21.2438 36.9773 21.4313C36.7874 21.6188 36.7663 21.6563 36.7312 21.5719C36.696 21.4781 36.6609 21.4125 36.4499 21.6C36.232 21.7781 36.3937 21.4781 36.4148 21.4125C36.4499 21.3563 36.5413 20.9438 36.3515 21.2625C36.3515 21.2625 36.2601 21.4875 36.0562 21.0844C36.0562 21.0844 35.8452 21.4875 35.782 21.3094C35.7257 21.1219 35.6765 21.1219 35.5992 21.2344C35.5288 21.3469 35.5851 21.225 35.5499 21.1219C35.5218 21.0281 35.5007 20.85 35.1421 21.1969C34.7835 21.5531 35.2687 21.2906 34.9945 21.45C34.7202 21.6094 34.0452 22.1063 34.657 22.0031C35.2687 21.8813 34.3617 22.3125 34.5726 22.3969C34.7835 22.4719 34.7132 22.725 35.5148 22.425C36.3023 22.1438 36.1757 22.3875 36.5835 22.1438C36.9913 21.9188 36.4851 22.2281 37.0335 22.2188C37.5749 22.2 37.1249 22.2188 37.2304 22.3688C37.3359 22.5188 37.7929 22.8656 38.2218 22.9313C38.6507 22.9875 38.7632 22.7719 38.6367 23.025C38.5101 23.2688 38.4679 23.3625 38.3976 23.4563C38.3273 23.5313 38.1163 23.7375 38.1163 24.075C38.1163 24.4219 37.7788 24.4781 37.9054 24.8531L38.1937 24.4781V24.4688Z" fill="#5A3719"/>
<path d="M38.9049 25.3031C38.9049 25.3031 38.8064 25.2094 38.8064 25.0406C38.8064 25.0406 38.8767 25.0594 38.9049 25.1156C38.9049 25.1156 39.151 24.7406 38.8486 24.6094C38.5603 24.4781 38.708 24.1125 38.8064 24.1125C38.9049 24.1125 38.926 24.0844 38.8346 23.925C38.7502 23.7844 38.7642 23.775 38.926 23.7375C39.0877 23.7 39.0736 23.6438 38.9963 23.5969C38.9459 23.5569 38.9008 23.5062 38.8627 23.4469C38.8627 23.4469 39.3408 23.175 39.1861 23.0438C39.0314 22.9219 39.1861 22.95 39.3267 22.8281C39.4674 22.6969 39.4814 22.6688 39.5025 22.6125C39.5025 22.6125 39.3619 22.6406 39.2635 22.6125C39.2635 22.6125 39.383 22.5281 39.2635 22.3969C39.1439 22.2656 39.1017 22.1531 38.9119 22.2094C38.7221 22.275 38.7853 22.1906 38.8556 22.0875C38.926 21.9844 38.8978 21.9281 38.7642 21.9C38.7642 21.9 38.7783 21.7875 38.8838 21.6656C38.8838 21.6656 38.6236 21.6844 38.5322 21.6281C38.5322 21.6281 38.6447 21.5344 38.6447 21.4125C38.6447 21.4125 38.5041 21.4781 38.3283 21.4594C38.3283 21.4594 38.4338 21.3375 38.4338 21.2344C38.4338 21.2344 38.1244 21.3281 37.9838 21.4688C37.9838 21.4688 37.9486 21.4688 37.9275 21.4125C37.8994 21.375 37.8853 21.3188 37.5408 21.4688C37.5408 21.4688 37.576 21.2625 37.6603 21.1875C37.7447 21.1125 37.7306 20.9438 37.2033 21.3844C37.2033 21.3844 37.133 21.3281 37.0697 21.1125C37.0697 21.1125 36.9502 21.3281 36.8658 21.4031C36.8658 21.4031 36.7955 21.45 36.7955 21.3094C36.8096 21.1688 36.7463 21.2625 36.6971 21.3094C36.6408 21.3469 36.6056 21.45 36.6267 21.1688C36.6478 20.8875 36.5564 20.8313 36.5564 20.8313C36.5564 20.8313 36.3947 21.1406 36.2963 21.1781C36.2963 21.1781 36.1205 20.9531 36.0572 20.8031C36.001 20.6531 36.001 20.5969 35.9377 20.8594C35.8744 21.1125 35.7971 21.1406 35.7971 21.1406C35.7971 21.1406 35.6916 21.0188 35.6846 20.9531C35.6846 20.9531 35.6635 21.0188 35.6283 21.0469C35.6283 21.0469 35.5369 20.9063 35.5439 20.7C35.5439 20.7 34.9674 21.1219 34.8971 21.375C34.8971 21.375 34.3556 21.3281 34.1377 21.3844C34.1377 21.3844 34.1869 21.1594 34.3275 21.0375C34.3275 21.0375 34.1869 21.0188 34.1869 20.8219C34.1869 20.8219 34.2994 20.8406 34.3697 20.8219C34.44 20.8031 34.2713 20.5313 34.4471 20.5219C34.6228 20.5125 34.7424 20.6344 34.658 20.3156C34.5877 20.0063 34.6158 20.0063 34.6158 20.0063C34.6158 20.0063 34.9252 20.25 34.9744 20.1844C35.0306 20.1281 34.9392 19.9969 35.2135 20.0531C35.4877 20.1188 35.4103 19.9125 35.5228 19.8938C35.6283 19.8938 35.6846 19.9875 35.6142 19.3219C35.5439 18.6563 35.9517 19.65 35.6775 18.6469C35.6775 18.6469 35.6072 18.3375 35.4455 18.2063C35.4455 18.2063 35.4033 18.4219 35.2205 18.2344C35.0377 18.0469 34.6721 17.9719 34.8267 17.8219C34.9814 17.6625 35.0517 17.4563 35.0096 17.3344C35.0096 17.3344 34.8267 17.5781 34.5174 17.4C34.2642 17.2594 34.208 17.5219 33.9549 17.4469C33.9549 17.4469 33.9549 17.3531 34.1728 17.1281C34.3838 16.9125 34.0463 17.2031 33.9197 17.25C33.7861 17.2875 33.751 17.25 34.0252 16.9594C34.3064 16.6781 34.8689 16.1625 34.7986 15.7406C34.7986 15.7406 34.9252 15.9563 35.2697 15.7969C35.6213 15.6375 35.8744 15.5813 35.9728 15.3281C36.0853 15.0938 36.3525 14.8594 36.4228 14.8031C36.5002 14.7563 36.5916 14.7094 36.4861 14.9438C36.3736 15.1688 36.2049 15.5625 35.7267 15.825C35.2486 16.0875 35.0588 16.275 34.9744 16.4156C34.89 16.5563 34.4541 16.8656 34.7424 16.8188C35.0236 16.7531 35.5088 16.8188 35.2767 16.725C35.0517 16.6406 34.7916 16.7813 35.0025 16.5281C35.2135 16.275 35.2486 16.1906 35.558 16.0219C35.8674 15.8438 36.2049 15.45 36.1697 15.8719C36.1346 16.2844 35.565 16.725 35.4244 16.8656C35.2838 16.9969 35.34 16.9781 35.34 17.0344C35.34 17.0906 35.3119 17.2031 35.2556 17.25C35.1994 17.3063 35.2205 17.3625 35.2346 17.475C35.2486 17.5969 35.2205 17.6438 35.2627 17.6625C35.3049 17.6719 35.3471 17.6813 35.3611 17.7656C35.3752 17.8594 35.4033 17.8594 35.4877 17.8594C35.565 17.8406 35.6283 17.8594 35.6283 17.9156C35.6283 17.9813 35.7127 18.075 35.7197 17.8781C35.7267 17.6719 35.79 17.6438 35.6353 17.7375C35.4806 17.8219 35.4525 17.7938 35.4525 17.7C35.4525 17.6063 35.4385 17.625 35.3822 17.6156C35.3119 17.6156 35.2908 17.4938 35.4033 17.4094C35.5158 17.3344 35.5158 17.4094 35.6564 17.2594C35.7971 17.1 35.7971 17.0719 35.8181 16.9781C35.8392 16.9125 35.6142 17.2031 35.5088 17.2594C35.4033 17.3344 35.4385 17.2125 35.4525 17.0625C35.4736 16.9031 35.7338 16.6875 35.8533 16.6875C35.9799 16.6875 36.2471 16.7813 36.1346 16.9969C36.015 17.2125 35.6846 17.4844 35.8181 17.5031C35.9658 17.5219 35.9869 17.4469 36.0713 17.5406C36.1556 17.6344 36.0713 17.8406 36.0431 17.9531C36.0054 18.051 35.9527 18.1372 35.8885 18.2063C35.8885 18.2063 35.7338 17.85 35.7408 18.1313C35.7408 18.4219 35.7056 18.525 35.7408 18.5344C35.776 18.5438 35.9377 18.6938 35.9939 18.6938C36.0502 18.6938 35.7056 18.9094 35.8533 18.9281C35.9939 18.9375 36.226 18.8344 36.3033 18.6469C36.3033 18.6469 36.008 18.5531 35.8885 18.4031C35.8885 18.4031 36.233 18.2906 36.1346 17.8594C36.1346 17.8594 36.4791 17.9813 36.3244 18.1875C36.1838 18.3844 36.0924 18.3563 36.2189 18.4125C36.3525 18.4688 36.4088 18.525 36.4088 18.525C36.4088 18.525 36.5002 18.5813 36.4439 18.675C36.3947 18.7688 36.3947 18.9188 36.4439 18.9094C36.4791 18.9094 36.6267 18.8156 36.5072 18.7219C36.3806 18.6281 36.6408 18.6469 36.5353 18.5625C36.4228 18.4688 36.3947 18.4594 36.3666 18.4125C36.3314 18.3844 37.7517 17.2688 37.0346 17.6813C37.0346 17.6813 37.1822 17.25 37.3931 17.25C37.6041 17.25 37.6181 17.4656 37.4986 17.6438C37.3791 17.8031 37.3017 18.075 37.0275 18.1313C37.0275 18.1313 37.4213 18.3844 36.9572 18.8063C36.9572 18.8063 36.8517 18.8719 36.8869 18.9188C36.9221 18.9656 37.2033 18.7594 37.2385 18.6375C37.2579 18.5743 37.2866 18.517 37.3228 18.4687C37.359 18.4204 37.402 18.3822 37.4494 18.3563C37.5549 18.2906 38.0822 17.8125 38.2369 17.4563C38.3986 17.0906 38.4338 17.0813 38.7431 16.7531C39.0525 16.425 38.9963 16.4906 39.0385 16.4156C39.0736 16.3313 39.0877 16.2 39.2283 16.0969C39.3689 15.9844 39.9174 15.5906 40.0931 15.4219C40.2619 15.2531 40.6135 14.9531 40.7681 14.6906C40.9158 14.4375 41.3306 14.1094 41.4291 14.1656C41.5275 14.2313 41.415 14.4281 41.183 14.6719C40.9369 14.9063 40.3392 15.5438 40.2478 15.6469C40.0094 15.9032 39.744 16.1117 39.4603 16.2656C39.2705 16.2938 39.2916 16.3875 39.1791 16.5469C39.0666 16.7063 38.8064 17.0531 38.7221 17.1469C38.6306 17.2406 38.4197 17.4281 38.4127 17.5688C38.3986 17.7094 38.4478 17.7188 38.2791 17.925C38.0291 18.2306 37.7473 18.4864 37.4424 18.6844C37.4424 18.6844 37.7588 18.8344 37.5689 19.1156C37.3861 19.3969 37.3931 19.3594 37.3861 19.3781C37.3861 19.3781 37.8572 19.2844 37.5267 19.7813C37.5267 19.7813 37.4564 19.9219 37.6041 19.7813C37.7658 19.6031 37.7025 19.3969 37.6744 19.3594C37.6744 19.3594 37.9346 19.1438 38.2299 19.1438C38.5181 19.1438 38.5111 19.1156 38.2439 19.0125C38.2439 19.0125 38.4338 18.7125 38.5955 18.8625C38.7502 19.0031 38.6939 19.0969 38.5322 19.2188C38.3635 19.3313 38.1244 19.3781 37.9346 19.5188C37.9346 19.5188 38.2861 19.6125 38.4689 19.4156C38.6517 19.2281 38.6658 19.3219 38.6799 19.3594C38.715 19.3969 38.7361 19.4531 38.6517 19.6031C38.5674 19.7625 38.5603 19.7719 38.5674 19.8094C38.5674 19.8469 38.5603 19.95 38.3916 19.9969C38.2299 20.025 38.1455 20.1188 38.2088 20.2219C38.258 20.3344 38.258 20.5969 38.1244 20.5688C37.9838 20.5406 38.0119 20.3906 37.9627 20.3344C37.9064 20.2781 37.8291 20.1938 37.583 20.3531C37.3299 20.5313 37.3158 20.325 37.3228 20.2125C37.3228 20.2125 37.1611 20.4 37.0275 20.2313C36.8869 20.0531 37.0135 19.9875 37.0978 19.9031C37.1681 19.8094 37.4846 19.6219 37.2947 19.6688C37.1049 19.6969 36.8236 19.7063 36.7603 19.5188C36.69 19.3219 36.901 19.3406 36.9291 19.3594C36.9642 19.3781 37.0908 19.5188 37.1049 19.3313C37.1049 19.1438 37.3158 19.1156 37.2455 19.0875C37.1752 19.05 37.0697 19.1719 37.0416 19.2094C37.0416 19.2094 36.901 18.9375 36.6619 19.0219C36.4228 19.1156 36.7322 19.0875 36.8025 19.0969C36.8588 19.1156 36.8236 19.2656 36.6127 19.5281C36.4017 19.7813 36.4931 19.6969 36.6478 19.6969C36.8096 19.6969 37.2033 19.6969 36.9713 19.9406C36.7463 20.1938 36.6549 20.3156 36.5494 20.2781C36.4228 20.2313 36.5494 20.1281 36.6056 20.0813C36.6619 20.0344 36.69 19.9688 36.5775 20.025C36.465 20.0719 36.4299 20.0906 36.3385 19.8844C36.2541 19.6688 36.2822 19.7344 36.3244 19.5938C36.3666 19.4531 36.451 19.3125 36.3525 19.3594C36.24 19.4156 36.2541 19.425 36.2611 19.2656C36.2681 19.1063 36.1416 19.0688 36.1416 19.0688C36.1416 19.0688 36.1978 19.2281 36.1486 19.3313C36.1064 19.425 36.0994 19.4625 36.1767 19.4813C36.2471 19.5188 36.3174 19.6031 36.2189 19.6969C36.1205 19.7813 36.1346 19.7625 36.1908 19.8188C36.2611 19.8844 36.3525 19.9406 36.2541 20.0719C36.1556 20.2031 36.233 20.1656 36.2822 20.1656C36.3385 20.1656 36.4439 20.2219 36.4439 20.3531C36.4439 20.4656 36.4439 20.4938 36.6056 20.3813C36.7674 20.2594 37.0767 20.2781 37.0767 20.4375C37.0767 20.6063 37.0346 20.6531 37.2033 20.5125C37.3721 20.3719 37.4494 20.6438 37.5689 20.5125C37.6814 20.3719 37.7517 20.25 37.8924 20.475C38.026 20.7 37.9838 20.7563 37.8221 20.925C37.6603 21.0844 37.8994 20.9625 38.026 20.8781C38.1525 20.7938 38.4971 20.7375 38.6939 20.8594C38.8978 20.9719 38.9541 20.9531 39.1017 20.8594C39.2494 20.7844 39.3267 20.7656 39.5447 20.9625C39.7767 21.1688 39.9455 21.2063 40.065 21.1969C40.065 21.1969 39.8189 21.3281 39.5377 21.3469C39.2564 21.375 39.1158 21.4406 39.0666 21.4969C39.0666 21.4969 39.2283 21.6375 39.2635 21.7969C39.2635 21.7969 39.4463 21.7688 39.5306 21.8156C39.5306 21.8156 39.4885 21.9938 39.601 22.0875C39.7135 22.1813 39.7908 22.2188 39.7064 22.3406C39.6221 22.4719 39.84 22.4156 39.7135 22.5938C39.5939 22.7813 39.5658 22.875 39.5588 23.0156C39.5588 23.1656 39.5869 23.1844 39.4814 23.2031C39.3689 23.2125 39.4955 23.3813 39.4463 23.5781C39.3971 23.7656 39.0947 23.7375 39.1088 24.2531C39.1088 24.2531 39.1931 24 39.376 23.7844C39.5517 23.5594 39.5588 23.5406 39.5517 23.4094C39.5517 23.2781 39.5447 23.3063 39.6361 23.2031C39.7346 23.1094 39.5939 23.0156 39.6924 22.8656C39.7838 22.725 39.7064 22.7531 39.8189 22.6125C39.9244 22.4625 39.7135 22.4531 39.833 22.3031C39.9385 22.1531 39.5517 21.975 39.6713 21.8813C39.7767 21.7875 39.9736 21.6563 39.3197 21.6656C39.3197 21.6656 39.4814 21.3281 40.0228 21.3938C40.0228 21.3938 39.8822 21.5438 39.8681 21.675L39.9806 21.7219C39.9806 21.7219 39.9525 21.825 39.8471 21.9375C39.8471 21.9375 40.1424 22.1531 40.1916 22.2938C40.1916 22.2938 40.0088 22.3688 39.9596 22.4625C39.9596 22.4625 40.0439 22.5844 40.0721 22.7438C40.0721 22.7438 39.8681 22.7063 39.8471 22.9031C39.8189 23.1 39.7556 22.9688 39.7556 23.0906C39.7556 23.2125 39.7627 23.25 39.6924 23.2781C39.6221 23.2781 39.6853 23.3813 39.6924 23.4469C39.7064 23.5125 39.7346 23.6625 39.7205 23.7094C39.7205 23.7094 39.615 23.7094 39.5728 23.7281C39.5728 23.7281 39.601 24.0094 39.4814 24.0563C39.3619 24.0938 39.5517 24.15 39.4181 24.1781C39.2916 24.2063 39.3127 24.225 39.158 24.6C39.158 24.6 39.2916 24.5063 39.4252 24.375C39.5658 24.2531 39.4111 24.2813 39.6361 24C39.8681 23.6906 39.826 23.6719 39.8049 23.5219C39.7908 23.3719 39.7838 23.2406 39.8681 23.1C39.9525 22.9594 39.9736 22.8 40.2689 22.8188C40.2689 22.8188 40.1846 22.5563 40.0791 22.4906C40.0791 22.4906 40.2197 22.3688 40.3603 22.35C40.3603 22.35 40.2338 22.1344 39.9666 21.9375C39.9666 21.9375 40.1775 21.6938 40.2408 21.5719C40.2408 21.5719 40.1353 21.6 40.051 21.5719C40.051 21.5719 40.0931 21.45 40.29 21.2813C40.29 21.2813 40.3955 21.4125 40.3885 21.5531C40.3885 21.5531 40.726 21.3 40.9158 21.3281C40.9158 21.3281 41.0142 21.6469 40.5431 22.2656C40.5431 22.2656 40.8385 22.2938 40.965 22.2656C40.965 22.2656 40.8947 22.5656 40.5431 22.7344C40.1916 22.9219 40.6135 23.1281 40.2549 23.0906C39.9033 23.0531 40.0088 23.2125 40.0158 23.4563C40.0299 23.7 40.0369 23.9531 40.0299 24.0188C40.0299 24.0188 39.7486 23.8969 39.7486 24.2625C39.7556 24.6375 39.608 24.7125 39.5728 24.7406C39.5728 24.7406 39.4885 24.6469 39.3619 24.5813C39.3619 24.5813 39.1861 25.0406 38.9049 25.3031Z" fill="#5A3719"/>
<path d="M38.4888 20.6718C38.4888 20.6718 38.5872 20.6531 38.756 20.7843C38.9177 20.925 39.0794 20.6437 38.8966 20.5687C38.7138 20.4937 38.8966 20.4 39.0654 20.5875C39.2341 20.7656 39.2974 20.6718 39.3607 20.6156C39.4169 20.55 39.4943 20.5125 39.3818 20.4093C39.2693 20.3062 39.4521 20.3531 39.5435 20.4375C39.6279 20.5031 39.5927 20.5781 39.5857 20.5968C39.5716 20.6156 39.5646 20.8687 39.7263 20.6437C39.895 20.4093 39.9864 20.1937 39.9794 20.0812C39.9794 20.0812 40.0708 20.1562 40.0849 20.2968C40.0989 20.4375 40.2255 20.2218 40.2677 20.1468C40.3099 20.0718 40.3802 19.8656 40.3732 19.7343C40.3732 19.7343 40.4857 19.9687 40.6544 19.7343C40.8232 19.5 40.7529 19.6406 40.9497 19.575C41.18 19.4926 41.3875 19.3233 41.5474 19.0875C41.688 18.8531 41.695 19.0125 41.8708 18.9562C42.0466 18.9 42.4122 18.5625 42.4474 18.3843C42.4755 18.2062 42.4685 18.0937 42.4193 18.1593C42.37 18.2156 42.3911 18.1593 42.3138 18.1031C42.2364 18.0375 42.1239 18.1875 42.1239 18.1875C42.1239 18.1875 42.2364 18.3 42.145 18.3468C42.0607 18.4031 41.9833 18.5625 41.8216 18.4968C41.6599 18.4406 41.4841 18.7031 41.4841 18.7031C41.4841 18.7031 41.6247 18.8531 41.4349 18.9562C41.245 19.05 41.2732 19.0875 41.1607 18.975C41.1607 18.975 40.9568 19.3218 40.8372 19.3968C40.8372 19.3968 40.788 19.3968 40.7529 19.3218C40.7529 19.3218 40.6122 19.5187 40.556 19.5562C40.556 19.5562 40.4646 19.4625 40.3943 19.4156C40.3943 19.4156 40.2325 19.6875 40.0989 19.7625C40.0989 19.7625 40.0568 19.6687 39.9724 19.6031C39.9724 19.6031 39.9302 19.9406 39.6489 20.1468C39.6489 20.1468 39.663 20.0531 39.5224 19.9312C39.5224 19.9312 39.1708 20.3343 39.0372 20.3718C38.8966 20.4093 39.0232 20.2875 39.0372 20.2312C39.0654 20.1843 39.1497 20.0156 38.981 19.95C38.8122 19.8843 38.8404 19.9968 38.8052 20.0156C38.763 20.0343 38.763 19.9781 38.6505 19.9968C38.538 20.0156 38.5591 20.0812 38.5099 20.1093C38.4536 20.1281 38.2568 20.0625 38.2708 20.2406C38.2779 20.4093 38.3763 20.5312 38.2005 20.6343C38.0247 20.7281 38.2708 20.7093 38.4888 20.6718Z" fill="#7B3C20"/>
<path d="M39.1992 20.1844C39.1992 20.1844 39.2414 19.95 39.0938 19.8562C39.0938 19.8562 40.0219 19.6594 39.3188 19.1812C39.3188 19.1812 40.1555 18.9656 39.9516 18.6094C39.7617 18.2531 39.5719 18.3281 39.5438 18.3281C39.5156 18.3281 39.7195 18.1312 39.7758 18.1594C39.825 18.1875 40.493 18.525 40.3242 18.225C40.1555 17.9437 40.1695 17.9531 40.1414 17.8687C40.1414 17.8687 40.3594 17.8687 40.6969 18.3C40.6969 18.3 40.7672 18.2062 40.7602 18.0281C40.7602 18.0281 40.9922 18.1219 41.0695 18.2156C41.0695 18.2156 41.1117 18.1031 41.0906 18.0469C41.0906 18.0469 41.3016 18.1875 41.3719 18.3469C41.3719 18.3469 41.4633 18.2344 41.4773 18.1031C41.4773 18.1031 41.6883 18.225 41.7375 18.3094C41.7375 18.3094 41.8078 18.1875 41.7797 18.0281C41.7797 18.0281 42.1242 18.15 42.1664 17.8781C42.1664 17.8781 42.5109 17.9719 42.2859 18.15C42.0047 18.3844 42.2578 18.0937 41.9625 18.3656C41.7375 18.5812 41.6109 18.825 41.4984 18.7781C41.4211 18.7312 41.3227 19.05 41.2172 18.9C41.1117 18.7406 41.1117 18.8062 41.0273 18.9656C40.9694 19.0828 40.9035 19.1926 40.8305 19.2937C40.8305 19.2937 40.7742 19.2469 40.718 19.1812C40.718 19.1812 40.6617 19.3312 40.5773 19.4437C40.5773 19.4437 40.507 19.3219 40.3945 19.2562C40.3945 19.2562 40.2328 19.5094 40.1273 19.6031C40.1273 19.6031 40.0289 19.4719 39.9234 19.425C39.9234 19.425 39.9094 19.7812 39.7055 19.9594C39.7055 19.9594 39.6633 19.8469 39.5227 19.7719C39.5227 19.7719 39.4242 19.9875 39.1992 20.175V20.1844Z" fill="#5A3719"/>
<path d="M38.7135 19.6406C38.7135 19.6406 38.601 19.7531 38.6714 19.875C38.7417 20.0062 38.7487 19.8562 38.8401 19.8469C38.9315 19.8281 40.0706 19.5656 39.037 19.1625C39.037 19.1625 39.0862 19.1062 39.255 19.0875C39.4378 19.0594 40.0846 18.8344 39.7823 18.525C39.48 18.225 39.2268 18.6281 39.48 18.2625C39.6909 17.9719 39.5221 17.8312 39.5221 17.8312C39.5221 17.8312 38.9245 18.3562 38.7909 18.4594C38.6643 18.5531 38.4675 18.7406 38.6925 18.8344C38.9245 18.9281 39.0721 18.5156 39.0932 18.6094C39.1143 18.7031 38.6432 19.0594 38.7135 19.2094C38.7768 19.3781 38.7628 19.5187 38.8823 19.4812C38.9948 19.4531 39.3042 19.5562 39.0581 19.5469C38.7979 19.5375 38.7065 19.6406 38.7065 19.6406H38.7135Z" fill="#5A3719"/>
<path d="M39.122 18.8719C39.122 18.8719 39.0165 18.975 39.1571 18.9281C39.2977 18.8812 39.5719 18.7969 39.5227 18.7031C39.4665 18.6094 39.2837 18.7219 39.122 18.8719Z" fill="black"/>
<path d="M40.9511 17.2969C40.9511 17.2969 41.4784 17.2781 41.6893 17.475C41.9003 17.6625 42.0128 17.7937 42.0761 17.8312C42.0761 17.8312 42.069 18.0937 41.7245 17.8969C41.7245 17.8969 41.7526 18.0281 41.7104 18.1594C41.7104 18.1594 41.5909 18.0469 41.4433 18C41.4433 18 41.4151 18.0937 41.3729 18.1594C41.3729 18.1594 41.2253 17.9531 41.0495 17.8875C41.0495 17.8875 41.0214 17.9906 40.9933 18.0375C40.9933 18.0375 40.8104 17.8875 40.6698 17.8875C40.6698 17.8875 40.6979 18.0469 40.6698 18.1031C40.6698 18.1031 40.2901 17.7 39.9456 17.7469C39.9456 17.7469 40.1073 18.075 40.2128 18.225C40.2128 18.225 39.5237 18.1594 39.6503 17.6625C39.7558 17.1656 39.6362 17.2875 40.0862 17.2875H40.9511V17.2969Z" fill="#7B3C20"/>
<path d="M37.7082 18.6656C37.7082 18.6656 37.6309 18.7594 37.7082 18.825C37.7855 18.9 38.0598 18.6375 38.0949 18.6C38.1371 18.5625 38.2355 18.5625 38.0949 18.7031C37.9543 18.8438 37.8277 18.9844 37.7434 19.1344C37.7434 19.1344 38.1934 18.9656 38.4887 18.6281C38.791 18.2812 38.4816 18.5062 38.9809 18.1781C39.4941 17.85 39.7613 17.325 39.4871 17.3812C39.2199 17.4375 38.9738 17.85 38.7559 18.0094C38.5449 18.1688 38.4254 18.1969 38.4605 18.1031C38.4887 18.0094 38.6504 18.0469 38.9457 17.7281C39.234 17.4188 39.1707 17.4469 39.1707 17.3344C39.1707 17.2219 39.0652 16.9594 39.5012 16.6406C39.9371 16.3312 41.3012 15.2812 41.4207 14.9062C41.4207 14.9062 41.0199 14.9625 40.4926 15.4781C40.2034 15.8005 39.8872 16.0774 39.5504 16.3031C39.4098 16.3781 39.4238 16.3219 39.3324 16.4813C39.1052 16.8003 38.8683 17.1068 38.6223 17.4C38.5309 17.4938 38.4957 17.55 38.4887 17.7562C38.4887 17.85 37.898 18.4406 37.7152 18.6656H37.7082Z" fill="#5A3719"/>
<path d="M39.5154 17.2781C39.5154 17.2781 39.4099 17.3344 39.3044 17.2781C39.213 17.2125 39.2482 16.9406 39.4802 16.7625C39.7589 16.5599 40.057 16.4085 40.3661 16.3125C40.3661 16.3125 40.331 16.6688 39.656 16.9781C39.656 16.9781 39.6982 17.1656 39.5154 17.2781Z" fill="#5A3719"/>
<path d="M39.7539 17.0437C39.7539 17.0437 39.775 17.1375 39.7539 17.2125C39.7539 17.2125 41.0125 17.3719 41.6594 16.35C41.6594 16.35 40.7664 16.4625 40.4148 16.7531C40.4148 16.7531 40.6398 16.3781 41.3078 16.0687C41.9758 15.7594 42.25 15.375 42.3062 15.1594C42.3062 15.1594 41.4625 15.5625 41.0617 15.5625C41.0617 15.5625 40.9773 15.5625 40.9 15.6094C40.8227 15.675 40.2812 16.1906 40.1406 16.2844C40.1406 16.2844 40.443 16.2469 40.5555 16.1156C40.5555 16.1156 40.3445 16.8656 39.7539 17.0531V17.0437Z" fill="#AA5323"/>
<path d="M37.3359 18C37.3359 18 37.1742 18.1594 37.2445 18.225C37.3148 18.3094 37.4273 18.3187 37.6664 18.0469C37.9195 17.7656 38.5172 17.0906 38.1445 17.0625C38.1445 17.0625 37.6523 17.025 37.6734 17.4187C37.6875 17.8125 37.3641 17.9812 37.3359 18ZM36.218 17.7656C36.218 17.7656 36.5414 18.0187 36.4148 18.225C36.4148 18.225 37.3992 17.1187 37.118 16.875C36.8508 16.6312 36.6328 17.0906 36.6961 17.1281C36.7664 17.1844 36.907 17.0906 36.8578 17.1844C36.6574 17.3978 36.4459 17.592 36.225 17.7656H36.218ZM35.9648 17.4094C35.9648 17.4094 36.1758 17.5031 36.1898 17.625C36.1969 17.7375 36.8367 17.025 36.668 16.7156C36.5906 16.575 36.2461 16.5281 36.218 16.7906C36.2039 17.0719 36.5414 16.7625 36.4289 16.9594C36.2742 17.2125 36.0141 17.3719 35.9648 17.4094ZM38.257 16.8094C38.257 16.8094 38.1234 16.9406 38.25 17.025C38.3766 17.0906 38.4469 16.9687 38.5102 16.9031C38.5734 16.8281 38.8828 16.5281 38.9461 16.3406C39.0164 16.1531 39.1219 16.0875 39.2344 15.9937C39.3398 15.9 40.1203 15.375 40.6055 14.8031C41.0836 14.2312 40.8867 14.3812 41.3789 14.0156C41.8711 13.65 42.2016 13.3125 42.307 12.9094C42.307 12.9094 42.075 13.0031 41.8711 13.1906C41.6243 13.4023 41.3734 13.6055 41.1187 13.8C41.0273 13.8469 40.9078 13.8562 40.8375 13.95C40.7672 14.0437 40.7672 14.1656 40.5352 14.4187C40.2891 14.6906 39.0586 15.8531 38.9039 16.0125C38.6846 16.2727 38.4689 16.5384 38.257 16.8094Z" fill="#5A3719"/>
<path d="M37.2656 17.1937C37.2656 17.1937 37.4062 17.1 37.6594 17.1187C37.9125 17.1375 38.9109 15.8437 39.2062 15.5906C39.6554 15.1794 40.0939 14.7479 40.5211 14.2969C40.6477 14.1281 40.6617 13.9594 40.7742 13.8656C40.8797 13.7719 40.9852 13.7812 41.2242 13.5937C41.4703 13.4062 42.6516 12.4687 42.5812 11.925C42.5812 11.925 40.8234 13.3312 40.4227 13.7812C39.8608 14.3654 39.2814 14.919 38.6859 15.4406C38.4891 15.6187 38.3344 15.9094 37.9898 16.2656C37.6594 16.6312 37.3219 16.9406 37.2656 17.2031V17.1937Z" fill="#AA5323"/>
<path d="M36.8984 16.6875C36.8984 16.6875 37.2219 16.65 37.2641 16.8656C37.2641 16.8656 37.9672 16.2282 38.1219 15.9657C38.2766 15.7032 38.0656 15.8531 38.4664 15.5063C39.1116 14.933 39.7446 14.3359 40.3648 13.7157C40.5547 13.5 40.9133 13.2 41.2016 12.9469C41.4828 12.6844 42.6008 11.9531 42.4742 11.3531L41.4758 12.2438C41.2859 12.4125 41.2016 12.3188 41.0188 12.5156C40.8359 12.7125 40.4211 13.1063 40.3508 13.2282C40.028 13.5969 39.69 13.9412 39.3383 14.2594C39.0289 14.5407 38.3469 15.0656 38.0094 15.4594C37.6444 15.8803 37.274 16.2929 36.8984 16.6969V16.6875Z" fill="#AA5323"/>
<path d="M35.8867 16.575C35.8867 16.575 36.0484 16.575 36.1047 16.6594C36.1047 16.6594 36.407 16.2937 36.7305 16.6594C36.7305 16.6594 37.9117 15.5813 38.0313 15.3094C38.1508 15.0469 38.3477 15.0375 38.8047 14.5969C39.2688 14.1469 39.557 13.95 39.8594 13.6406C40.1688 13.3219 40.4289 12.9562 40.6469 12.7687C40.8648 12.5812 41.4203 12.0938 41.3359 11.6719C41.3359 11.6719 40.8789 12.0094 40.5906 12.4406C40.2953 12.8719 40.3234 12.5062 40.0211 12.8625C39.6739 13.2888 39.289 13.6571 38.875 13.9594C38.4883 14.2125 38.7203 14.1844 38.4391 14.4281C38.1648 14.6625 38.1859 14.6156 38.0875 14.6625C37.9494 14.7059 37.8244 14.8039 37.7289 14.9437C37.6164 15.1031 37.3492 15.3187 37.0539 15.5531C36.6418 15.8445 36.2511 16.1866 35.8867 16.575Z" fill="#AA5323"/>
<path d="M36.2452 15.75C36.2452 15.75 36.1748 15.5719 36.2944 15.4406C36.4069 15.3187 36.6178 14.9906 36.6459 14.7844C36.6811 14.5687 36.653 14.6062 36.9834 14.4281C37.9349 13.8951 38.8363 13.2155 39.6694 12.4031C39.7959 12.2625 40.1194 11.9719 40.253 11.8219C40.253 11.8219 40.3092 12.0562 40.1686 12.2156C39.6857 12.7204 39.1809 13.1869 38.6569 13.6125C38.5022 13.7156 38.1225 13.9781 37.9819 14.1281C37.8483 14.2781 37.8694 14.3156 37.2647 14.7187C36.667 15.1031 36.6319 15.15 36.653 15.1781C36.6741 15.2156 36.9483 15.0562 37.0748 14.9531C37.2014 14.8594 37.6936 14.55 37.8483 14.3906C38.0049 14.2209 38.1692 14.0643 38.3405 13.9219C38.7716 13.5921 39.1938 13.2419 39.6061 12.8719C39.8522 12.6187 39.9225 12.5437 39.9787 12.5906C40.028 12.6281 40.1194 12.6281 40.0069 12.7781C39.8944 12.9281 39.5358 13.3406 39.3952 13.4625C39.2545 13.5844 38.8256 13.9312 38.7061 14.0062C38.5866 14.1 38.5373 14.2406 38.467 14.3062C38.4037 14.3812 38.2069 14.5594 37.9748 14.6344C37.7428 14.7094 37.6936 14.9437 37.5319 15.0844C37.3702 15.2156 36.2662 16.0219 36.2311 16.05C36.2311 16.05 36.2944 15.9562 36.2452 15.75Z" fill="#AA5323"/>
<path d="M40.0993 12.4125C40.0993 12.4125 40.036 12.4875 40.0712 12.525C40.1134 12.5812 40.2681 12.7312 40.4649 12.4687C40.7398 12.1273 41.0336 11.8139 41.3438 11.5312C41.5056 11.3906 41.597 11.2687 41.5899 11.0906C41.5899 11.0906 40.7884 11.6531 40.0993 12.4125ZM41.1962 12.3187C41.1962 12.3187 41.3157 12.0469 41.6181 11.7844C41.9204 11.5312 42.3774 11.1562 42.4266 11.0719C42.4266 11.0719 42.5391 11.2312 42.3071 11.4281C42.0506 11.6399 41.7975 11.8587 41.5477 12.0844C41.4985 12.15 41.4071 12.2344 41.1962 12.3187Z" fill="#AA5323"/>
<path d="M35.0874 15.2812C35.0874 15.2812 34.7499 15.525 34.8694 15.675C34.9889 15.8156 35.1647 15.7688 35.2491 15.7313L35.4741 15.6375C35.5022 15.6375 35.7905 15.5156 35.8678 15.3375C35.9381 15.15 36.135 14.9438 36.2897 14.7938C36.4444 14.6531 36.5006 14.4938 36.4795 14.3906L35.0874 15.2812ZM33.0905 17.3438C33.0905 17.3438 33.3295 17.1563 33.653 17.2781C33.653 17.2781 33.6389 17.175 33.5827 17.1188C33.5827 17.1188 33.9835 16.9781 34.0678 16.7438C34.1522 16.5094 34.1733 16.5563 34.2436 16.5C34.328 16.425 34.8553 15.8625 34.792 15.7406C34.7288 15.6187 34.7217 15.45 34.6725 15.3937C34.6725 15.3937 34.567 15.5906 34.0397 15.9281C33.5335 16.2656 32.9569 16.5094 32.535 17.2594C32.1202 18.0094 32.1624 18.4406 32.6756 18.6375C32.6756 18.6375 33.0272 18.3375 33.9131 18.4406C34.785 18.5437 35.0803 18.9844 35.1366 19.0594C35.1928 19.1438 35.3686 19.4344 35.1999 19.9125C35.1999 19.9125 35.3756 20.0156 35.3827 19.7906C35.4038 19.575 35.4108 19.6219 35.453 19.65C35.4952 19.6875 35.5444 19.6969 35.5233 19.5187C35.5058 19.281 35.4507 19.051 35.3616 18.8438C35.2842 18.7031 35.3756 18.7687 35.4249 18.7875C35.4741 18.8156 35.6569 19.0219 35.5514 18.6469C35.446 18.2906 35.4108 18.4594 35.4108 18.4781C35.4108 18.5063 35.3827 18.5906 35.1436 18.3469C34.9582 18.1596 34.7484 18.0198 34.5249 17.9344C34.3631 17.8781 34.4756 17.8781 34.5741 17.8406C34.6725 17.7844 34.792 17.7656 34.8413 17.6156C34.8413 17.6156 34.7428 17.6438 34.5741 17.5594C34.4375 17.5059 34.2936 17.495 34.1534 17.5275C34.0132 17.56 33.8805 17.6351 33.7655 17.7469C33.7655 17.7469 33.8499 17.325 33.5897 17.3438C33.3366 17.3719 33.1538 17.3625 32.8866 17.6437C32.8866 17.6437 32.8655 17.2125 33.1256 16.9875C33.3858 16.7531 33.3506 16.8938 33.4913 16.8375C33.6319 16.7813 33.653 16.5844 33.5897 16.5187C33.5897 16.5187 33.9272 16.6031 34.4897 15.975C34.4897 15.975 34.1874 16.5094 33.8217 16.6125C33.8217 16.6125 33.7585 16.8937 33.421 16.9594C33.0835 17.025 33.0975 17.2781 33.0975 17.3438H33.0905Z" fill="#7B3C20"/>
<path d="M32.1313 19.9406C32.1313 19.9406 32.2859 18.6187 33.2211 18.525C34.0227 18.4312 34.2828 18.5719 34.4445 18.6469C34.6063 18.7219 35.007 18.8719 34.8523 19.0406C34.6977 19.2094 34.6063 19.1812 34.6063 19.1812C34.6063 19.1812 34.782 18.9094 34.6203 18.8719C34.4586 18.825 34.4516 18.9562 34.4305 19.0594C34.4023 19.1812 34.3953 19.3031 34.318 19.3969C34.318 19.3969 34.2336 19.2656 34.1141 19.3781C33.9945 19.4906 34.1 19.4906 34.1492 19.4719C34.1914 19.4531 34.2547 19.425 34.2406 19.5187C34.2336 19.6125 34.1703 19.7812 33.9734 19.9125C33.7836 20.0437 33.7906 20.0344 33.5656 20.0906C33.3336 20.1375 33.1227 20.2594 32.8273 20.5875C32.532 20.925 32.2156 20.8125 32.1523 20.4469C32.0961 20.1281 32.1242 19.9406 32.1242 19.9406H32.1313Z" fill="#5A3719"/>
<path d="M33.1875 19.8937C33.1875 19.8937 33.2719 19.6406 33.1172 19.5187C33.1172 19.5187 32.632 19.6312 32.4844 19.4344C32.4844 19.4344 33.0117 19.3969 33.3422 19.2187C33.6656 19.0594 33.5742 18.9375 33.4617 18.9C33.3492 18.8719 33.1383 18.9469 33.1172 19.0875C33.1172 19.0875 33.0469 18.9375 33.1313 18.8437C33.2227 18.7406 33.3422 18.7219 33.4617 18.7687C33.5812 18.8062 33.6797 18.8812 34.0664 18.6187C34.0664 18.6187 34.2844 18.6844 34.2984 18.8812C34.2984 19.0875 34.2773 19.1625 34.2563 19.1906C34.2422 19.2281 34.2141 19.2844 34.1648 19.2844C34.1227 19.2656 34.0594 19.2562 34.0031 19.3969C33.9539 19.5375 33.9117 19.65 33.8203 19.7437C33.8203 19.7437 33.9258 19.3125 33.6445 19.2094C33.6445 19.2094 33.4125 19.3969 33.2367 19.4062C33.2367 19.4062 33.4617 19.6875 33.1805 19.8937H33.1875Z" fill="black"/>
<path d="M33.7008 19.1062C33.7008 19.1062 33.5883 18.9562 33.7289 18.9281C33.8696 18.9187 34.0524 19.0594 34.0242 19.1812C33.9821 19.2937 33.8133 19.2844 33.7008 19.1062Z" fill="#5A3719"/>
<path d="M41.6668 17.025C41.6668 17.025 41.4066 17.1187 41.6527 17.3344C41.8918 17.55 42.0043 17.7281 42.1801 17.7844C42.3558 17.85 42.5316 17.925 42.5316 18.1594C42.5316 18.3937 42.4965 18.4875 42.398 18.6469C42.3066 18.8062 42.4543 18.8719 42.5808 18.7875C42.7074 18.6937 42.8129 18.6469 42.8972 18.5812C42.9746 18.5156 43.1082 18.525 42.9957 18.6094C42.8621 18.7031 42.7355 18.75 42.8972 18.75C43.059 18.7594 44.0363 18.7875 44.2402 18.6937C44.4512 18.6094 44.7183 18.5812 44.7324 18.225C44.7324 18.225 44.7465 18.075 44.8238 18C44.8941 17.9344 44.9504 17.7844 44.8379 17.8875C44.7324 17.9906 44.648 18.0469 44.6269 18.0094C44.6058 17.9812 44.5918 17.9531 44.6762 17.9062C44.7605 17.8594 44.8027 17.9062 44.8801 17.7656C44.9504 17.6156 44.9504 17.6344 44.9082 17.5781C44.866 17.5219 44.7816 17.4844 44.8238 17.4094C44.866 17.3344 44.9082 17.1281 44.7254 17.25C44.5496 17.3719 44.191 17.7 44.0222 17.7469C43.8676 17.7937 43.741 17.8594 43.523 17.9156C43.3121 17.9812 43.1715 18.0469 42.9254 18.225C42.6933 18.3937 42.7144 18.1219 42.7496 18.0844C42.7496 18.0844 42.841 18.3 43.0801 18.0187C43.3191 17.7469 43.2418 18.0094 43.8254 17.7469C44.409 17.4937 44.2683 17.4562 44.4933 17.2969C44.7254 17.1375 44.9433 17.1281 44.7746 16.9219C44.6199 16.6969 44.6058 16.6875 44.4019 16.9219C44.071 17.2455 43.684 17.452 43.2769 17.5219C43.2769 17.5219 44.5988 16.7719 44.4652 16.6594C44.3499 16.5582 44.2245 16.4793 44.0926 16.425C44.0012 16.3969 43.973 16.3687 43.7621 16.5C43.5512 16.6219 43.516 16.65 43.4597 16.6594C43.3894 16.6594 43.2137 16.7156 42.9676 16.8844C42.7144 17.0625 42.5808 17.1281 42.4051 17.2594C42.4051 17.2594 42.5246 16.95 43.0449 16.7437C43.5652 16.5375 43.8254 16.35 43.7762 16.3125C43.7269 16.275 43.5863 16.2375 43.4949 16.2656C43.3894 16.2937 43.4246 16.2562 43.1012 16.425C42.7847 16.5937 42.9183 16.5562 42.6652 16.6312C42.4051 16.6969 42.3066 16.7719 42.1801 16.8469C42.1801 16.8469 42.2363 16.7531 42.398 16.6687C42.4894 16.6312 42.3066 16.5844 42.5527 16.575H42.623C42.8347 16.511 43.0383 16.4069 43.2277 16.2656C43.1785 16.2562 42.8691 16.2094 42.5597 16.4156C42.2433 16.6031 42.384 16.5375 42.2785 16.5562C42.166 16.5937 41.9269 16.7812 41.8566 16.875C41.7793 16.9594 41.6668 17.0156 41.6668 17.0156V17.025Z" fill="white"/>
<path d="M33.9402 18.9187C33.9402 18.9187 34.0667 18.9656 34.0948 19.0875C34.13 19.2 34.2073 19.0312 34.2073 18.9844C34.2003 18.9281 34.123 18.7031 33.9964 18.8062C33.8558 18.9094 33.9261 18.9094 33.9402 18.9187Z" fill="#5A3719"/>
<path d="M33.6031 21.1875C33.6031 21.1875 33.8633 21.0187 34.0883 21.0469C34.0883 21.0469 33.9969 20.6344 34.1516 20.7C34.2992 20.775 34.257 20.7375 34.2922 20.7375C34.2922 20.7375 34.2992 20.4656 34.257 20.3625C34.257 20.3625 34.4187 20.4094 34.5805 20.4094C34.5805 20.4094 34.4258 20.025 34.5945 19.7531C34.6251 19.83 34.6671 19.8979 34.7178 19.9526C34.7686 20.0074 34.8271 20.0479 34.8898 20.0719V19.8562C34.8898 19.8562 35.0094 19.8281 35.1008 19.8937C35.1992 19.9687 35.2766 19.1812 34.9953 19.0219C34.9953 19.0219 34.925 19.1625 34.6648 19.2375C34.4047 19.3125 34.4047 19.3781 34.2992 19.6406C34.1937 19.9031 34.0883 19.9125 33.8633 20.1094C33.6523 20.2969 33.5117 20.6719 33.5117 20.7094C33.5117 20.7094 33.6172 20.8969 33.6031 21.1875Z" fill="#7B3C20"/>
<path d="M42.4051 16.6687C42.4965 16.65 42.3066 16.5844 42.5457 16.575H42.616C42.8301 16.5119 43.0361 16.4077 43.2277 16.2656C43.1785 16.2562 42.8691 16.2094 42.5597 16.4062C42.2504 16.6031 42.384 16.5375 42.2785 16.5656C42.166 16.5937 41.9269 16.7812 41.8566 16.875C41.7793 16.9594 41.6668 17.0156 41.6668 17.0156C41.6668 17.0156 41.4066 17.1094 41.6527 17.3344C41.8918 17.55 42.0043 17.7281 42.1801 17.7844C42.3558 17.85 42.5316 17.925 42.5316 18.1594C42.5354 18.2485 42.5255 18.3376 42.5025 18.4215C42.4795 18.5053 42.444 18.582 42.398 18.6469C42.3066 18.8062 42.4543 18.8719 42.5808 18.7875C42.7074 18.6937 42.8129 18.6469 42.8972 18.5812C42.9746 18.5156 43.1082 18.525 42.9887 18.6094C42.8621 18.7031 42.7355 18.75 42.8972 18.75C43.059 18.7594 44.0363 18.7875 44.2402 18.6937C44.4512 18.6094 44.7183 18.5812 44.7324 18.225C44.7324 18.225 44.7465 18.075 44.8238 18C44.8941 17.9344 44.9504 17.7844 44.8379 17.8875C44.7324 17.9906 44.641 18.0469 44.6269 18.0094C44.6058 17.9812 44.5918 17.9531 44.6762 17.9062C44.7605 17.8594 44.8027 17.9062 44.8801 17.7656C44.9504 17.6156 44.9504 17.6344 44.9082 17.5781L44.8379 17.4937C44.8379 17.4937 44.7746 17.4281 44.7043 17.4844C44.5496 17.5982 44.384 17.6834 44.2121 17.7375C44.0996 17.7469 43.966 17.8219 43.7551 17.9625C43.5441 18.1031 43.1785 18.3937 43.1222 18.1219L42.9254 18.2156C42.6863 18.3844 42.7144 18.15 42.7496 18.0844C42.7496 18.0844 42.623 18.2719 42.6301 18.1031C42.6301 17.9344 42.7144 17.9625 42.8621 17.9062C43.0027 17.85 43.2137 17.7187 43.1293 17.625C43.0379 17.5312 42.9394 17.7187 42.834 17.7937C42.7355 17.8594 42.5316 17.9062 42.4965 17.7094C42.4683 17.5125 42.4683 17.3719 42.1941 17.3531C41.9129 17.3344 41.9199 17.1 41.9972 16.9969C42.0746 16.9031 42.1379 16.7344 42.398 16.6687H42.4051Z" fill="#999999"/>
<path d="M43.2845 18.4594C43.2845 18.4594 43.7134 18.1969 44.1071 18.075C44.5079 17.9531 44.1915 18.0938 44.1282 18.1125C44.0579 18.1406 43.4462 18.4125 43.2986 18.5063C43.1579 18.6 43.179 18.525 43.2845 18.4688V18.4594ZM43.3829 18.5813C43.3829 18.5813 43.8681 18.3656 43.9595 18.45C44.0509 18.5438 43.9736 18.5063 43.8681 18.525C43.7556 18.5344 43.4673 18.6 43.39 18.6C43.3126 18.6 43.3829 18.5813 43.3829 18.5813ZM44.1564 18.3469C44.1564 18.3469 44.2548 18.3281 44.2618 18.3844C44.2689 18.4219 44.2196 18.4313 44.1704 18.4219C44.1212 18.4125 44.079 18.375 44.1634 18.3469H44.1564Z" fill="black"/>
<path d="M31.3599 23.9906C31.3599 23.9906 31.3388 23.4094 31.5568 23.1281C31.7748 22.8469 32.8084 21.3937 32.9701 20.9906C32.9701 20.9906 33.1107 21.1125 33.1107 21.3469C33.1107 21.3469 33.2865 20.9437 33.4271 20.7844C33.4271 20.7844 33.5466 20.9531 33.5326 21.2906C33.5326 21.2906 33.7787 21.1125 34.1654 21.1125C34.1654 21.1125 34.0248 21.3375 34.0177 21.4781C34.0177 21.4781 34.5521 21.3844 34.8404 21.45C34.8404 21.45 34.0951 22.0125 34.299 22.0594C34.517 22.1062 34.7349 22.0594 34.7349 22.0594C34.7349 22.0594 34.4959 22.3687 34.1162 22.4344C34.1162 22.4344 34.6013 22.4344 34.6927 22.575C34.6927 22.575 34.2287 22.6687 33.849 23.0437C33.849 23.0437 33.8209 23.025 33.8209 22.8844C33.8209 22.8844 33.7998 23.0156 33.6943 23.1375C33.5888 23.25 33.3357 23.5125 33.2373 23.6344C33.1388 23.7562 32.9701 24.0094 32.7732 24.0094C32.7732 24.0094 32.8154 23.8125 32.6748 23.7469C32.6018 23.7137 32.5231 23.7093 32.4483 23.7343C32.3735 23.7592 32.3056 23.8124 32.2529 23.8875C32.2529 23.8875 31.7607 23.8969 31.592 23.9344C31.592 23.9344 31.7045 23.6906 31.8029 23.6906C31.9154 23.6906 32.3373 23.7844 32.3724 23.3906C32.4146 23.0156 32.1052 23.1094 32.2177 22.8844C32.3373 22.6594 32.3091 22.6781 32.3162 22.6406C32.3162 22.6406 32.2177 22.7156 32.1615 22.9219C32.1157 23.1498 32.0112 23.349 31.8662 23.4844C31.7278 23.6033 31.6122 23.7639 31.5287 23.9531C31.5287 23.9531 31.4373 23.9531 31.3599 23.9906Z" fill="white"/>
<path d="M31.8359 23.6437C31.8359 23.6437 31.857 23.5687 31.9977 23.5312C32.1523 23.5031 32.1594 23.4094 32.1383 23.3625C32.1172 23.325 32.0328 23.325 32.1734 23.1C32.1734 23.1 32.2297 23.1281 32.2578 23.175C32.3 23.2312 32.4617 23.6906 31.8359 23.6437Z" fill="white"/>
<path d="M31.4922 23.2406C31.4922 23.6156 31.8648 23.475 31.8648 23.475C31.7658 23.5725 31.676 23.6858 31.5977 23.8125C31.6258 23.625 31.3867 23.5781 31.3867 23.5781C31.4082 23.4589 31.4438 23.3449 31.4922 23.2406ZM32.8492 21.225L32.9688 20.9906C32.9688 20.9906 33.1094 21.1125 33.1094 21.3469C33.1094 21.3469 33.2852 20.9437 33.4258 20.7844C33.4258 20.7844 33.5453 20.9531 33.5312 21.2906C33.5312 21.2906 33.7773 21.1125 34.1641 21.1125C34.1641 21.1125 34.0234 21.3375 34.0164 21.4781C34.0164 21.4781 34.5508 21.3844 34.8391 21.45C34.8391 21.45 34.0937 22.0125 34.2977 22.0594C34.5156 22.1062 34.7336 22.0594 34.7336 22.0594C34.7336 22.0594 34.4945 22.3687 34.1148 22.4344C34.1148 22.4344 34.6 22.4344 34.6914 22.575C34.6914 22.575 34.5508 22.6031 34.368 22.6875C34.368 22.6875 34.2344 22.5187 33.8336 22.5469C33.8336 22.5469 34.143 22.3031 34.3961 22.2281C34.3961 22.2281 34.2836 22.0406 34.1148 22.2187C34.1148 22.2187 33.7703 21.9094 34.0586 21.6375C34.0586 21.6375 33.8617 21.5906 33.7281 21.7125C33.7281 21.7125 33.7281 21.4969 33.8758 21.4031C33.8758 21.4031 33.4961 21.3094 33.4047 21.6844C33.4047 21.6844 33.3344 21.5437 33.3695 21.3656C33.3695 21.3656 33.1375 21.5437 33.032 21.7406C33.032 21.7406 32.9969 21.3656 32.8492 21.225ZM32.118 23.625C32.0547 23.6437 31.9562 23.6531 31.8367 23.6437C31.8367 23.6437 31.8508 23.5969 31.9281 23.55C31.9281 23.55 31.9562 23.625 32.118 23.625Z" fill="#999999"/>
<path d="M32.8086 22.1906C32.8086 22.1906 32.9844 22.3781 33.0406 22.4719C33.0406 22.4719 33.2023 22.3406 33.2516 22.2188C33.2516 22.2188 33.3852 22.3219 33.4203 22.4813C33.4203 22.4813 33.5117 22.4063 33.5258 22.2938C33.5258 22.2938 33.7367 22.35 33.8211 22.4438C33.8211 22.4438 33.8492 22.1625 33.8211 21.9938C33.8211 21.9938 33.9687 22.0125 34.0602 22.0594C34.0602 22.0594 33.9758 21.8719 34.4117 21.6375C34.4117 21.6375 34.0812 21.7406 33.9547 21.9188C33.9547 21.9188 33.8141 21.9375 33.7508 21.8813V22.3031C33.7508 22.3031 33.6664 22.2469 33.5047 22.2C33.5047 22.2 33.4625 22.2938 33.4344 22.3125C33.4344 22.3125 33.3289 22.2 33.2867 22.0594C33.2867 22.0594 33.125 22.2563 33.0758 22.3406C33.0758 22.3406 32.9141 22.1906 32.8086 22.1906Z" fill="black"/>
<path d="M31.8164 25.0594C31.8164 25.0594 31.8867 25.0969 32.0484 24.9281C32.2102 24.7594 32.6602 24.375 32.6953 24.0656C32.7445 23.7563 32.5547 23.7469 32.4141 23.8313C32.2594 23.925 32.3227 24.0844 32.3297 24.15C32.3297 24.2063 32.3438 24.4219 32.0977 24.7125L31.8164 25.0594Z" fill="#FFC221"/>
<path d="M31.7744 25.1531C31.7744 25.1531 31.4088 24.9469 31.7322 24.7312C32.0556 24.5156 32.2033 24.4594 32.2385 24.2719C32.2806 24.0937 32.2525 24.1312 32.133 24.2062C32.0135 24.2719 31.5564 24.5625 31.4861 24.3C31.4861 24.3 31.676 24.3937 31.908 24.2437C32.147 24.0844 32.3439 24.0469 32.1892 23.9812C31.9311 23.9453 31.6704 23.9611 31.4158 24.0281C31.3174 24.0656 31.3455 24.0562 31.3244 24.1781C31.3103 24.3 31.2119 24.5531 31.1697 24.6187C31.1345 24.6937 31.0431 24.9937 31.2119 25.1344C31.2975 25.198 31.3934 25.233 31.4914 25.2363C31.5894 25.2396 31.6865 25.211 31.7744 25.1531Z" fill="#FFC221"/>
<path d="M31.634 24.0938C31.634 24.0938 31.5426 24.1125 31.5637 24.1594C31.5778 24.2063 31.5989 24.1969 31.634 24.1969C31.6551 24.1969 31.7043 24.1781 31.7114 24.15C31.7114 24.1219 31.6551 24.0844 31.634 24.1031V24.0938Z" fill="black"/>
<path d="M31.747 25.0406C31.747 25.0406 31.5783 24.9375 31.7751 24.7969C31.965 24.6563 32.1689 24.5156 32.197 24.4594C32.197 24.4594 32.1056 24.6375 31.747 25.0406Z" fill="white"/>
</g>
<defs>
<clipPath id="clip0_45_4241">
<rect width="45" height="45" fill="white"/>
</clipPath>
</defs>
</svg>
