<svg width="45" height="45" viewBox="0 0 45 45" fill="none" xmlns="http://www.w3.org/2000/svg">
<g clip-path="url(#clip0_45_4323)">
<path d="M0 0V44.9996H50.6245V0H0Z" fill="#3399CC"/>
<path d="M0 29.9997V32.4997H50.6245V29.9997H0ZM0 34.9996V37.4996H50.6245V34.9996H0Z" fill="#FFFF00"/>
<path d="M10.0352 2.625L10.2391 2.90625L10.0281 2.625H10.0352ZM9.82422 3.1875L10.0352 3.46875L9.82422 3.1875ZM10.2391 3.1875L10.45 3.46875L10.2391 3.1875Z" fill="#99CCCC"/>
<path d="M9.82422 3.46873L10.0352 3.7406L9.82422 3.45935M10.2391 3.45935L10.45 3.7406L10.2391 3.45935Z" fill="#CCCCFF"/>
<path d="M9.61328 4.01251L9.82422 4.29376L9.61328 4.01251Z" fill="#66CCCC"/>
<path d="M10.0344 4.01251L10.2383 4.29376L10.0273 4.01251H10.0344Z" fill="#CC6666"/>
<path d="M10.4484 4.01251L10.6523 4.29376L10.4414 4.01251H10.4484Z" fill="#66CCCC"/>
<path d="M9.61328 4.29376L9.82422 4.57501L9.61328 4.29376ZM10.45 4.29376L10.6539 4.57501L10.443 4.29376H10.45Z" fill="#CCCCFF"/>
<path d="M9.82422 4.56561L10.0352 4.84686L9.82422 4.56561ZM10.2391 4.56561L10.45 4.84686L10.2391 4.56561Z" fill="#FFCCCC"/>
<path d="M9.40625 4.84686L9.61719 5.12811L9.40625 4.84686Z" fill="#66CCCC"/>
<path d="M9.99687 3.1875L8.54141 10.5469L3.00781 12.5625L8.52031 14.4844L9.99687 21.8344L11.4664 14.4844L16.9789 12.5156L11.4664 10.5562L9.98984 3.20625L9.99687 3.1875Z" fill="#CC0000"/>
<path fill-rule="evenodd" clip-rule="evenodd" d="M9.85864 3.21492L8.43647 10.4059L2.50586 12.5662L8.41595 14.6266L9.99889 22.5062L11.5744 14.6259L17.4845 12.5152L11.5743 10.4145L10.1172 3.16136L10.0396 3.18907L9.88224 3.10992L9.85314 3.18754L9.85864 3.21492ZM9.99422 3.88979L8.64977 10.6878L3.5132 12.5588L8.62811 14.3421L9.99829 21.1625L11.3618 14.3428L16.4768 12.516L11.3619 10.698L9.99422 3.88979Z" fill="white"/>
<path d="M10.6523 4.84686L10.8633 5.12811L10.6523 4.84686Z" fill="#66CCCC"/>
<path d="M9.40625 5.11877L9.61719 5.40002L9.40625 5.11877ZM10.6508 5.11877L10.8617 5.40002L10.6508 5.11877Z" fill="#99CCFF"/>
<path d="M9.61328 5.40002L9.82422 5.68127L9.61328 5.40002ZM10.45 5.40002L10.6539 5.68127L10.443 5.40002H10.45Z" fill="#FFCCCC"/>
<path d="M9.19531 5.67188L9.40625 5.95312L9.19531 5.67188Z" fill="#6699CC"/>
<path d="M9.68359 5.85938L9.75391 6.04688L9.68359 5.85938ZM10.5133 5.85938L10.5836 6.04688L10.5133 5.85938Z" fill="#CC3333"/>
<path d="M10.8633 5.67188L11.0742 5.95312L10.8633 5.67188Z" fill="#6699CC"/>
<path d="M9.19531 5.95312L9.40625 6.23438L9.19531 5.95312ZM10.8617 5.95312L11.0727 6.23438L10.8617 5.95312Z" fill="#99CCFF"/>
<path d="M9.40625 6.22498L9.61719 6.50623L9.40625 6.22498ZM10.6508 6.22498L10.8617 6.50623L10.6508 6.22498Z" fill="#FFCCCC"/>
<path d="M8.99219 6.50623L9.20312 6.78748L8.99219 6.50623ZM11.0664 6.50623L11.2773 6.78748L11.0664 6.50623Z" fill="#6699CC"/>
<path d="M8.99219 6.77814L9.20312 7.05939L8.99219 6.77814ZM11.0664 6.77814L11.2773 7.05939L11.0664 6.77814Z" fill="#99CCCC"/>
<path d="M8.99219 7.05939L9.20312 7.34064L8.99219 7.05939ZM11.0664 7.05939L11.2773 7.34064L11.0664 7.05939Z" fill="#CCFFFF"/>
<path d="M8.78828 7.34061L8.99219 7.61249L8.78125 7.33124L8.78828 7.34061Z" fill="#6699CC"/>
<path d="M9.19531 7.34061L9.40625 7.61249L9.19531 7.33124M10.8617 7.33124L11.0727 7.61249L10.8617 7.33124Z" fill="#FFCCCC"/>
<path d="M11.2773 7.34061L11.4883 7.61249L11.2773 7.33124V7.34061Z" fill="#6699CC"/>
<path d="M8.78828 7.61249L8.99219 7.89374L8.78125 7.61249H8.78828Z" fill="#99CCCC"/>
<path d="M9.26562 7.79999L9.33594 7.98749L9.26562 7.79999ZM10.925 7.79999L10.9953 7.98749L10.925 7.79999Z" fill="#CC3333"/>
<path d="M11.2773 7.61249L11.4883 7.89374L11.2773 7.61249Z" fill="#99CCCC"/>
<path d="M8.78828 7.89374L8.99219 8.17499L8.78125 7.89374M11.2773 7.89374L11.4883 8.17499L11.2773 7.89374Z" fill="#CCFFFF"/>
<path d="M8.99219 8.16565L9.20312 8.4469L8.99219 8.16565ZM11.0664 8.16565L11.2773 8.4469L11.0664 8.16565Z" fill="#FFCCCC"/>
<path d="M8.57812 8.4375L8.78906 8.71875L8.57812 8.4375Z" fill="#99CCCC"/>
<path d="M9.0625 8.625L9.13281 8.8125L9.0625 8.625ZM11.1367 8.625L11.207 8.8125L11.1367 8.625Z" fill="#CC3333"/>
<path d="M11.4805 8.4375L11.6914 8.71875L11.4805 8.4375Z" fill="#99CCCC"/>
<path d="M8.57812 8.71875L8.78906 9L8.57812 8.71875ZM11.482 8.71875L11.693 9L11.482 8.71875Z" fill="#CCCCFF"/>
<path d="M8.78828 9L8.99219 9.28125L8.78125 9M11.2773 9L11.4883 9.28125L11.2773 9Z" fill="#FFCCCC"/>
<path d="M8.36719 9.28126L8.57812 9.55313L8.36719 9.27188V9.28126Z" fill="#99CCCC"/>
<path d="M8.85859 9.45935L8.92188 9.64685L8.85156 9.45935M11.3406 9.45935L11.4109 9.64685L11.3406 9.45935Z" fill="#CC3333"/>
<path d="M11.6914 9.28123L11.9023 9.5531L11.6914 9.27185V9.28123Z" fill="#99CCCC"/>
<path d="M8.36719 9.55313L8.57812 9.83438L8.36719 9.55313ZM11.693 9.55313L11.9039 9.83438L11.693 9.55313Z" fill="#CCCCFF"/>
<path d="M8.57812 9.82501L8.78906 10.1063L8.57812 9.82501ZM11.482 9.82501L11.693 10.1063L11.482 9.82501Z" fill="#FFCCCC"/>
<path d="M8.15625 10.1063L8.36719 10.3875L8.15625 10.1063Z" fill="#99CCCC"/>
<path d="M8.57812 10.1063L8.78906 10.3875L8.57812 10.1063ZM11.482 10.1063L11.693 10.3875L11.482 10.1063Z" fill="#CC3333"/>
<path d="M11.8984 10.1063L12.1094 10.3875L11.8984 10.1063ZM7.53906 10.3875L7.75 10.6594L7.53906 10.3781V10.3875Z" fill="#99CCCC"/>
<path d="M7.75 10.3781L7.96094 10.6594L7.75 10.3781ZM12.3203 10.3781L12.5242 10.6594L12.3133 10.3781H12.3203Z" fill="#CCCCFF"/>
<path d="M12.5148 10.3781L12.7258 10.6594L12.5148 10.3781ZM6.91797 10.6594L7.12891 10.9406L6.91797 10.6594Z" fill="#99CCCC"/>
<path d="M7.12109 10.6594L7.33203 10.9406L7.12109 10.6594Z" fill="#CCCCFF"/>
<path d="M7.95312 10.6594L8.16406 10.9406L7.95312 10.6594Z" fill="#FFCCCC"/>
<path d="M8.15625 10.6594L8.36719 10.9406L8.15625 10.6594ZM11.8969 10.6594L12.1078 10.9406L11.8969 10.6594Z" fill="#CC3333"/>
<path d="M12.1094 10.6594L12.3203 10.9406L12.1094 10.6594Z" fill="#FFCCCC"/>
<path d="M12.9375 10.6594L13.1484 10.9406L12.9375 10.6594Z" fill="#CCCCFF"/>
<path d="M13.1477 10.6594L13.3516 10.9406L13.1406 10.6594H13.1477Z" fill="#99CCCC"/>
<path d="M6.08984 10.9313L6.30078 11.2125L6.08984 10.9313Z" fill="#6699CC"/>
<path d="M6.29297 10.9312L6.50391 11.2125L6.29297 10.9312Z" fill="#99CCCC"/>
<path d="M6.50391 10.9312L6.71484 11.2125L6.50391 10.9312Z" fill="#CCFFFF"/>
<path d="M7.33203 10.9313L7.54297 11.2125L7.33203 10.9313Z" fill="#FFCCCC"/>
<path d="M7.67969 11.025L7.82031 11.1188L7.67969 11.025ZM12.4539 11.025L12.5945 11.1188L12.4539 11.025Z" fill="#CC3333"/>
<path d="M12.7266 10.9312L12.9375 11.2125L12.7266 10.9312Z" fill="#FFCCCC"/>
<path d="M13.5547 10.9313L13.7656 11.2125L13.5547 10.9313Z" fill="#CCFFFF"/>
<path d="M13.7656 10.9313L13.9766 11.2125L13.7656 10.9313Z" fill="#99CCCC"/>
<path d="M13.9727 10.9313L14.1836 11.2125L13.9727 10.9313ZM5.46484 11.2125L5.67578 11.4938L5.46484 11.2125Z" fill="#6699CC"/>
<path d="M5.67578 11.2125L5.88672 11.4938L5.67578 11.2125Z" fill="#99CCCC"/>
<path d="M5.87891 11.2125L6.08984 11.4938L5.87891 11.2125Z" fill="#CCFFFF"/>
<path d="M6.70703 11.2125L6.91797 11.4938L6.70703 11.2125Z" fill="#FFCCCC"/>
<path d="M7.05078 11.3063L7.19141 11.4L7.05078 11.3063ZM13.0695 11.3063L13.2102 11.4L13.0695 11.3063Z" fill="#CC3333"/>
<path d="M13.3516 11.2125L13.5625 11.4938L13.3516 11.2125Z" fill="#FFCCCC"/>
<path d="M14.1836 11.2125L14.3945 11.4938L14.1836 11.2125Z" fill="#CCFFFF"/>
<path d="M14.3867 11.2125L14.5977 11.4938L14.3867 11.2125Z" fill="#99CCCC"/>
<path d="M14.5953 11.2125L14.8063 11.4938L14.5953 11.2125ZM4.83594 11.4938L5.04688 11.7656L4.83594 11.4844V11.4938Z" fill="#6699CC"/>
<path d="M5.04688 11.4844L5.25781 11.7656L5.04688 11.4844Z" fill="#99CCFF"/>
<path d="M6.08984 11.4844L6.30078 11.7656L6.08984 11.4844Z" fill="#FFCCCC"/>
<path d="M6.43359 11.5781L6.57422 11.6719L6.43359 11.5781ZM13.6969 11.5781L13.8375 11.6719L13.6969 11.5781Z" fill="#CC3333"/>
<path d="M13.9727 11.4844L14.1836 11.7656L13.9727 11.4844Z" fill="#FFCCCC"/>
<path d="M15.0117 11.4844L15.2227 11.7656L15.0117 11.4844Z" fill="#99CCFF"/>
<path d="M15.2148 11.4844L15.4258 11.7656L15.2148 11.4844Z" fill="#6699CC"/>
<path d="M4.21875 11.7656L4.42969 12.0469L4.21875 11.7656Z" fill="#66CCCC"/>
<path d="M4.42891 11.7656L4.63281 12.0469L4.42188 11.7656H4.42891Z" fill="#99CCFF"/>
<path d="M5.26094 11.7656L5.46484 12.0469L5.25391 11.7656H5.26094ZM14.8094 11.7656L15.0133 12.0469L14.8023 11.7656H14.8094Z" fill="#FFCCCC"/>
<path d="M15.6289 11.7656L15.8398 12.0469L15.6289 11.7656Z" fill="#99CCFF"/>
<path d="M15.8422 11.7656L16.0531 12.0469L15.8422 11.7656ZM3.59375 12.0469L3.80469 12.3187L3.59375 12.0375V12.0469Z" fill="#66CCCC"/>
<path d="M3.79688 12.0375L4.00781 12.3188L3.79688 12.0375Z" fill="#CCCCFF"/>
<path d="M4.63281 12.0375L4.84375 12.3187L4.63281 12.0375Z" fill="#FFCCCC"/>
<path d="M4.97656 12.1312L5.11719 12.225L4.97656 12.1312ZM15.1508 12.1312L15.2914 12.225L15.1508 12.1312Z" fill="#CC3333"/>
<path d="M15.4258 12.0375L15.6367 12.3187L15.4258 12.0375Z" fill="#FFCCCC"/>
<path d="M16.2578 12.0375L16.4688 12.3187L16.2578 12.0375Z" fill="#CCCCFF"/>
<path d="M16.4688 12.0375L16.6797 12.3187L16.4688 12.0375Z" fill="#66CCCC"/>
<path d="M2.97266 12.3187L3.18359 12.6L2.97266 12.3187Z" fill="#99CCCC"/>
<path d="M3.17969 12.3187L3.39062 12.6L3.17969 12.3187Z" fill="#CCCCFF"/>
<path d="M4.00781 12.3188L4.21875 12.6L4.00781 12.3188ZM16.0523 12.3188L16.2633 12.6L16.0523 12.3188Z" fill="#FFCCCC"/>
<path d="M16.875 12.3188L17.0859 12.6L16.875 12.3188Z" fill="#CCCCFF"/>
<path d="M17.0852 12.3187L17.2961 12.6L17.0852 12.3187ZM2.55859 12.6L2.76953 12.8719L2.55859 12.5906V12.6Z" fill="#99CCCC"/>
<path d="M3.59375 12.5906L3.80469 12.8719L3.59375 12.5906ZM16.4609 12.5906L16.6719 12.8719L16.4609 12.5906Z" fill="#CC6666"/>
<path d="M17.5062 12.5906L17.7102 12.8719L17.4992 12.5906M2.97266 12.8719L3.18359 13.1531L2.97266 12.8719Z" fill="#99CCCC"/>
<path d="M3.17969 12.8719L3.39062 13.1531L3.17969 12.8719Z" fill="#CCCCFF"/>
<path d="M4.00781 12.8719L4.21875 13.1531L4.00781 12.8719ZM16.0523 12.8719L16.2633 13.1531L16.0523 12.8719Z" fill="#FFCCCC"/>
<path d="M16.875 12.8719L17.0859 13.1531L16.875 12.8719Z" fill="#CCCCFF"/>
<path d="M17.0859 12.8719L17.2969 13.1531L17.0859 12.8719Z" fill="#99CCCC"/>
<path d="M3.59375 13.1531L3.80469 13.425L3.59375 13.1437V13.1531Z" fill="#66CCCC"/>
<path d="M3.79688 13.1531L4.00781 13.425L3.79688 13.1437V13.1531Z" fill="#CCCCFF"/>
<path d="M4.63281 13.1531L4.84375 13.425L4.63281 13.1437V13.1531Z" fill="#FFCCCC"/>
<path d="M4.97656 13.2375L5.11719 13.3312L4.97656 13.2375ZM15.1508 13.2375L15.2914 13.3312L15.1508 13.2375Z" fill="#CC3333"/>
<path d="M15.4258 13.1531L15.6367 13.425L15.4258 13.1437V13.1531Z" fill="#FFCCCC"/>
<path d="M16.2578 13.1531L16.4688 13.425L16.2578 13.1437V13.1531Z" fill="#CCCCFF"/>
<path d="M16.4672 13.1531L16.6781 13.425L16.4672 13.1437M4.21875 13.425L4.42969 13.7062L4.21875 13.425Z" fill="#66CCCC"/>
<path d="M4.42891 13.425L4.63281 13.7062L4.42188 13.425H4.42891Z" fill="#99CCFF"/>
<path d="M5.26094 13.425L5.46484 13.7062L5.25391 13.425H5.26094ZM14.8094 13.425L15.0133 13.7062L14.8023 13.425H14.8094Z" fill="#FFCCCC"/>
<path d="M15.6289 13.425L15.8398 13.7062L15.6289 13.425Z" fill="#99CCFF"/>
<path d="M15.8398 13.425L16.0508 13.7062L15.8398 13.425Z" fill="#66CCCC"/>
<path d="M4.83594 13.7063L5.04688 13.9781L4.83594 13.6969V13.7063Z" fill="#6699CC"/>
<path d="M5.04688 13.7063L5.25781 13.9781L5.04688 13.6969V13.7063Z" fill="#99CCFF"/>
<path d="M6.08984 13.7063L6.30078 13.9781L6.08984 13.6969V13.7063Z" fill="#FFCCCC"/>
<path d="M6.43359 13.7906L6.57422 13.8844L6.43359 13.7906ZM13.6969 13.7906L13.8375 13.8844L13.6969 13.7906Z" fill="#CC3333"/>
<path d="M13.9727 13.7063L14.1836 13.9781L13.9727 13.6969V13.7063Z" fill="#FFCCCC"/>
<path d="M15.0117 13.7062L15.2227 13.9781L15.0117 13.6969V13.7062Z" fill="#99CCFF"/>
<path d="M15.2172 13.7063L15.4281 13.9781L15.2172 13.6969M5.46484 13.9781L5.67578 14.2594L5.46484 13.9781Z" fill="#6699CC"/>
<path d="M5.67578 13.9781L5.88672 14.2594L5.67578 13.9781Z" fill="#99CCCC"/>
<path d="M5.87891 13.9781L6.08984 14.2594L5.87891 13.9781Z" fill="#CCFFFF"/>
<path d="M6.70703 13.9781L6.91797 14.2594L6.70703 13.9781Z" fill="#FFCCCC"/>
<path d="M7.05078 14.0625L7.19141 14.1562L7.05078 14.0625ZM13.0695 14.0625L13.2102 14.1562L13.0695 14.0625Z" fill="#CC3333"/>
<path d="M13.3516 13.9781L13.5625 14.2594L13.3516 13.9781Z" fill="#FFCCCC"/>
<path d="M14.1836 13.9781L14.3945 14.2594L14.1836 13.9781Z" fill="#CCFFFF"/>
<path d="M14.3867 13.9781L14.5977 14.2594L14.3867 13.9781Z" fill="#99CCCC"/>
<path d="M14.5969 13.9781L14.8078 14.2594L14.5969 13.9781ZM6.08906 14.2594L6.29297 14.5312L6.08203 14.25L6.08906 14.2594Z" fill="#6699CC"/>
<path d="M6.29297 14.25L6.50391 14.5312L6.29297 14.25Z" fill="#99CCCC"/>
<path d="M6.50391 14.25L6.71484 14.5312L6.50391 14.25Z" fill="#CCFFFF"/>
<path d="M7.33203 14.25L7.54297 14.5312L7.33203 14.25Z" fill="#FFCCCC"/>
<path d="M7.67969 14.3438L7.82031 14.4375L7.67969 14.3438ZM12.4539 14.3438L12.5945 14.4375L12.4539 14.3438Z" fill="#CC3333"/>
<path d="M12.7266 14.25L12.9375 14.5312L12.7266 14.25Z" fill="#FFCCCC"/>
<path d="M13.5547 14.25L13.7656 14.5312L13.5547 14.25Z" fill="#CCFFFF"/>
<path d="M13.7656 14.25L13.9766 14.5312L13.7656 14.25Z" fill="#99CCCC"/>
<path d="M13.9727 14.25L14.1836 14.5312L13.9727 14.25Z" fill="#6699CC"/>
<path d="M6.91797 14.5312L7.12891 14.8125L6.91797 14.5312Z" fill="#99CCCC"/>
<path d="M7.12109 14.5312L7.33203 14.8125L7.12109 14.5312Z" fill="#CCCCFF"/>
<path d="M7.95312 14.5312L8.16406 14.8125L7.95312 14.5312Z" fill="#FFCCCC"/>
<path d="M8.15625 14.5312L8.36719 14.8125L8.15625 14.5312ZM11.8969 14.5312L12.1078 14.8125L11.8969 14.5312Z" fill="#CC3333"/>
<path d="M12.1094 14.5312L12.3203 14.8125L12.1094 14.5312Z" fill="#FFCCCC"/>
<path d="M12.9375 14.5312L13.1484 14.8125L12.9375 14.5312Z" fill="#CCCCFF"/>
<path d="M13.15 14.5312L13.3539 14.8125L13.143 14.5312M7.53906 14.8125L7.75 15.0938L7.53906 14.8125Z" fill="#99CCCC"/>
<path d="M7.75 14.8125L7.96094 15.0938L7.75 14.8125ZM12.3203 14.8125L12.5242 15.0938L12.3133 14.8125H12.3203Z" fill="#CCCCFF"/>
<path d="M12.5156 14.8125L12.7266 15.0938L12.5156 14.8125ZM8.15625 15.0938L8.36719 15.3656L8.15625 15.0844V15.0938Z" fill="#99CCCC"/>
<path d="M8.57812 15.0937L8.78906 15.3656L8.57812 15.0844M11.482 15.0844L11.693 15.3656L11.482 15.0844Z" fill="#CC3333"/>
<path d="M11.8984 15.0937L12.1094 15.3656L11.8984 15.0844V15.0937Z" fill="#99CCCC"/>
<path d="M8.57812 15.3656L8.78906 15.6469L8.57812 15.3656ZM11.482 15.3656L11.693 15.6469L11.482 15.3656Z" fill="#FFCCCC"/>
<path d="M8.36719 15.6375L8.57812 15.9188L8.36719 15.6375Z" fill="#CCCCFF"/>
<path d="M8.85859 15.825L8.92188 16.0125L8.85156 15.825M11.3406 15.825L11.4109 16.0125L11.3406 15.825Z" fill="#CC3333"/>
<path d="M11.6914 15.6375L11.9023 15.9188L11.6914 15.6375Z" fill="#CCCCFF"/>
<path d="M8.36719 15.9188L8.57812 16.2L8.36719 15.9188ZM11.693 15.9188L11.9039 16.2L11.693 15.9188Z" fill="#99CCCC"/>
<path d="M8.78828 16.1906L8.99219 16.4719L8.78125 16.1906M11.2773 16.1906L11.4883 16.4719L11.2773 16.1906Z" fill="#FFCCCC"/>
<path d="M8.57812 16.4719L8.78906 16.7531L8.57812 16.4719Z" fill="#CCCCFF"/>
<path d="M9.0625 16.65L9.13281 16.8375L9.0625 16.65ZM11.1367 16.65L11.207 16.8375L11.1367 16.65Z" fill="#CC3333"/>
<path d="M11.4805 16.4719L11.6914 16.7531L11.4805 16.4719Z" fill="#CCCCFF"/>
<path d="M8.57812 16.7438L8.78906 17.025L8.57812 16.7438ZM11.482 16.7438L11.693 17.025L11.482 16.7438Z" fill="#99CCCC"/>
<path d="M8.99219 17.025L9.20312 17.3063L8.99219 17.025ZM11.0664 17.025L11.2773 17.3063L11.0664 17.025Z" fill="#FFCCCC"/>
<path d="M8.78828 17.2969L8.99219 17.5781L8.78125 17.2969H8.78828Z" fill="#CCFFFF"/>
<path d="M9.26562 17.4844L9.33594 17.6719L9.26562 17.4844ZM10.925 17.4844L10.9953 17.6719L10.925 17.4844Z" fill="#CC3333"/>
<path d="M11.2773 17.2969L11.4883 17.5781L11.2773 17.2969Z" fill="#CCFFFF"/>
<path d="M8.78828 17.5781L8.99219 17.8594L8.78125 17.5781M11.2773 17.5781L11.4883 17.8594L11.2773 17.5781Z" fill="#99CCCC"/>
<path d="M8.78828 17.85L8.99219 18.1312L8.78125 17.85H8.78828Z" fill="#6699CC"/>
<path d="M9.19531 17.85L9.40625 18.1312L9.19531 17.85ZM10.8617 17.85L11.0727 18.1312L10.8617 17.85Z" fill="#FFCCCC"/>
<path d="M11.2773 17.85L11.4883 18.1312L11.2773 17.85Z" fill="#6699CC"/>
<path d="M8.99219 18.1312L9.20312 18.4125L8.99219 18.1312ZM11.0664 18.1312L11.2773 18.4125L11.0664 18.1312Z" fill="#CCFFFF"/>
<path d="M8.99219 18.4031L9.20312 18.6844L8.99219 18.4031ZM11.0664 18.4031L11.2773 18.6844L11.0664 18.4031Z" fill="#99CCCC"/>
<path d="M8.99219 18.6844L9.20312 18.9656L8.99219 18.6844ZM11.0664 18.6844L11.2773 18.9656L11.0664 18.6844Z" fill="#6699CC"/>
<path d="M9.40625 18.9562L9.61719 19.2375L9.40625 18.9562ZM10.6508 18.9562L10.8617 19.2375L10.6508 18.9562Z" fill="#FFCCCC"/>
<path d="M9.19531 19.2375L9.40625 19.5187L9.19531 19.2375Z" fill="#99CCFF"/>
<path d="M9.68359 19.425L9.75391 19.6125L9.68359 19.425ZM10.5133 19.425L10.5836 19.6125L10.5133 19.425Z" fill="#CC3333"/>
<path d="M10.8633 19.2375L11.0742 19.5187L10.8633 19.2375Z" fill="#99CCFF"/>
<path d="M9.19531 19.5188L9.40625 19.7906L9.19531 19.5094M10.8617 19.5094L11.0727 19.7906L10.8617 19.5094Z" fill="#6699CC"/>
<path d="M9.61328 19.7906L9.82422 20.0719L9.61328 19.7906ZM10.45 19.7906L10.6539 20.0719L10.443 19.7906H10.45Z" fill="#FFCCCC"/>
<path d="M9.40625 20.0625L9.61719 20.3438L9.40625 20.0625ZM10.6508 20.0625L10.8617 20.3438L10.6508 20.0625Z" fill="#99CCFF"/>
<path d="M9.40625 20.3438L9.61719 20.625L9.40625 20.3438ZM10.6508 20.3438L10.8617 20.625L10.6508 20.3438Z" fill="#66CCCC"/>
<path d="M9.82422 20.625L10.0352 20.9062L9.82422 20.625ZM10.2391 20.625L10.45 20.9062L10.2391 20.625Z" fill="#FFCCCC"/>
<path d="M9.61328 20.8969L9.82422 21.1781L9.61328 20.8969ZM10.45 20.8969L10.6539 21.1781L10.443 20.8969H10.45Z" fill="#CCCCFF"/>
<path d="M9.61328 21.1781L9.82422 21.4594L9.61328 21.1781Z" fill="#66CCCC"/>
<path d="M10.0344 21.1781L10.2383 21.4594L10.0273 21.1781H10.0344Z" fill="#CC6666"/>
<path d="M10.4484 21.1781L10.6523 21.4594L10.4414 21.1781H10.4484Z" fill="#66CCCC"/>
<path d="M9.82422 21.7313L10.0352 22.0125L9.82422 21.7313ZM10.2391 21.7313L10.45 22.0125L10.2391 21.7313Z" fill="#CCCCFF"/>
<path d="M9.82422 22.0031L10.0352 22.2844L9.82422 22.0031ZM10.2391 22.0031L10.45 22.2844L10.2391 22.0031ZM10.0281 22.5656L10.2391 22.8375L10.0281 22.5562V22.5656Z" fill="#99CCCC"/>
</g>
<defs>
<clipPath id="clip0_45_4323">
<rect width="45" height="45" fill="white"/>
</clipPath>
</defs>
</svg>
