<svg width="45" height="45" viewBox="0 0 45 45" fill="none" xmlns="http://www.w3.org/2000/svg">
<g clip-path="url(#clip0_45_4512)">
<path d="M0.0078125 0H45.0078V45H0.0078125V0Z" fill="#3F9C35"/>
<path d="M0.0078125 0H45.0078V30H0.0078125V0Z" fill="#ED2939"/>
<path d="M0.0078125 0H45.0078V15H0.0078125V0Z" fill="#00B9E4"/>
<path d="M21.375 29.25C24.1709 29.25 26.4375 26.2279 26.4375 22.5C26.4375 18.7721 24.1709 15.75 21.375 15.75C18.5791 15.75 16.3125 18.7721 16.3125 22.5C16.3125 26.2279 18.5791 29.25 21.375 29.25Z" fill="white"/>
<path d="M22.5 28.125C24.83 28.125 26.7188 25.6066 26.7188 22.5C26.7188 19.3934 24.83 16.875 22.5 16.875C20.17 16.875 18.2812 19.3934 18.2812 22.5C18.2812 25.6066 20.17 28.125 22.5 28.125Z" fill="#ED2939"/>
<path d="M27 18.75L27.5414 20.7656L28.9898 19.8469L28.3008 21.7875L29.8125 22.5L28.3008 23.2219L28.9898 25.1531L27.5414 24.2344L27 26.25L26.4586 24.2344L25.0102 25.1531L25.6992 23.2219L24.1875 22.5L25.6992 21.7781L25.0102 19.8469L26.4586 20.7656L27 18.75Z" fill="white"/>
</g>
<defs>
<clipPath id="clip0_45_4512">
<rect width="45" height="45" fill="white"/>
</clipPath>
</defs>
</svg>
