<svg width="45" height="45" viewBox="0 0 45 45" fill="none" xmlns="http://www.w3.org/2000/svg">
<g clip-path="url(#clip0_45_4524)">
<path d="M0 0H45V45H0V0Z" fill="#00267F"/>
<path d="M14.9961 0H30.0008V45H14.9961V0Z" fill="#FFC726"/>
<path d="M22.4862 12.7031C21.994 14.4844 21.5018 16.3219 20.433 17.7375C20.7635 17.5875 21.3471 17.4562 21.7127 17.475V24.9281L20.1377 25.2375C20.0815 25.2375 20.0674 25.1156 20.0674 24.9563C19.9127 22.6406 19.5049 20.6906 19.0268 18.675C18.9916 18.4031 18.394 17.3625 18.858 17.55C18.9143 17.55 19.526 17.8875 19.4346 17.7281C18.5512 16.5401 17.4098 15.7529 16.1721 15.4781C16.0666 15.45 16.0033 15.525 16.1018 15.6844C17.6768 18.9281 19.0057 22.7625 18.9916 27.3094C19.6104 27.3094 21.101 26.8219 21.7127 26.8219V32.0813H22.5002L22.676 17.3906L22.4862 12.7031Z" fill="black"/>
</g>
<defs>
<clipPath id="clip0_45_4524">
<rect width="45" height="45" fill="white"/>
</clipPath>
</defs>
</svg>
