<svg width="45" height="45" viewBox="0 0 45 45" fill="none" xmlns="http://www.w3.org/2000/svg">
<g clip-path="url(#clip0_45_5704)">
<path fill-rule="evenodd" clip-rule="evenodd" d="M0 0H45V45H0V0Z" fill="#229E45"/>
<path fill-rule="evenodd" clip-rule="evenodd" d="M22.5992 40.875L43.7984 22.5281L22.4727 4.125L1.20312 22.5656L22.5992 40.875Z" fill="#F8E509"/>
<path fill-rule="evenodd" clip-rule="evenodd" d="M31.8375 22.5C31.8375 29.0906 27.8227 34.4344 22.8656 34.4344C21.0942 34.4307 19.3634 33.7268 17.892 32.4117C16.4206 31.0967 15.2747 29.2294 14.5991 27.0461C13.9234 24.8628 13.7484 22.4615 14.0962 20.1456C14.444 17.8297 15.299 15.7033 16.553 14.0352C17.8071 12.3671 19.4039 11.2321 21.1416 10.7739C22.8793 10.3156 24.6799 10.5546 26.3158 11.4605C27.9517 12.3665 29.3494 13.8988 30.3322 15.8638C31.3151 17.8288 31.8389 20.1381 31.8375 22.5Z" fill="#2B49A3"/>
<path fill-rule="evenodd" clip-rule="evenodd" d="M19.9187 29.6531L19.6375 29.4375L19.3562 29.625L19.4195 29.2031L19.1945 28.8844L19.5109 28.8375L19.6656 28.4625L19.7992 28.8562L20.1086 28.9312L19.8766 29.2125M25.9234 31.6781L25.6492 31.4625L25.368 31.65L25.4242 31.2281L25.2063 30.9187L25.5227 30.8719L25.6703 30.4875L25.8109 30.8812L26.1203 30.9562L25.8813 31.2469M23.3359 28.4344L23.0969 28.2469L22.8508 28.4156L22.907 28.05L22.7102 27.7781L22.9914 27.7406L23.118 27.4031L23.2305 27.75L23.5047 27.8156L23.2937 28.0687M29.4109 27.2719L29.1719 27.0844L28.9258 27.2531L28.982 26.8875L28.7922 26.625L29.0664 26.5875L29.193 26.2594L29.3055 26.5969L29.5727 26.6625L29.3688 26.9062M23.2305 24.8437L22.9492 24.6375L22.668 24.825L22.7242 24.3937L22.5063 24.0844L22.8227 24.0375L22.9703 23.6531L23.1109 24.0469L23.4203 24.1219L23.1813 24.4219M15.8266 21.1406L15.5453 20.9344L15.2641 21.1219L15.3344 20.6906L15.1023 20.3812L15.4258 20.3344L15.5664 19.95L15.707 20.3437L16.0164 20.4187L15.7844 20.7094M16.7195 26.0719L16.4383 25.8562L16.157 26.0437L16.2203 25.6219L15.9953 25.3125L16.3117 25.2562L16.4594 24.8812L16.6 25.275L16.9094 25.35L16.6773 25.6406M25.9586 19.3312L25.7055 19.1437L25.4523 19.3125L25.5086 18.9375L25.3117 18.6562L25.593 18.6094L25.7266 18.2719L25.8461 18.6281L26.1273 18.6937L25.9164 18.9469M25.4453 22.5375L25.2555 22.3875L25.0516 22.5187L25.0938 22.2187L24.9391 22.0031L25.1641 21.9656L25.2695 21.7031L25.3609 21.9844L25.5719 22.0312L25.4172 22.2375M15.4188 26.9625L15.2289 26.8219L15.0391 26.9437L15.0813 26.6625L14.9336 26.4562L15.1445 26.4187L15.243 26.1656L15.3344 26.4281L15.5453 26.4844L15.3836 26.6719M29.4602 28.1062L29.3055 28.0031L29.1508 28.0969L29.1859 27.8812L29.0664 27.7312L29.2352 27.7031L29.3195 27.5156L29.3898 27.7031L29.5656 27.75L29.432 27.8906" fill="#FFFFEF"/>
<path fill-rule="evenodd" clip-rule="evenodd" d="M15.4188 26.9625L15.2289 26.8219L15.0391 26.9438L15.0813 26.6625L14.9336 26.4563L15.1445 26.4188L15.243 26.1656L15.3344 26.4281L15.5453 26.4844L15.3836 26.6719" fill="#FFFFEF"/>
<path fill-rule="evenodd" clip-rule="evenodd" d="M15.4188 26.9625L15.2289 26.8219L15.0391 26.9437L15.0813 26.6625L14.9336 26.4562L15.1445 26.4187L15.243 26.1656L15.3344 26.4281L15.5453 26.4844L15.3836 26.6719M18.3578 26.9531L18.175 26.8219L17.9852 26.9437L18.0273 26.6625L17.8797 26.4562L18.0906 26.4187L18.1891 26.1656L18.2805 26.4281L18.4914 26.475L18.3297 26.6719M17.9922 28.2656L17.8094 28.125L17.6195 28.2562L17.6617 27.975L17.5141 27.7594L17.725 27.7219L17.8234 27.4687L17.9148 27.7312L18.1258 27.7875L17.9641 27.975M24.1094 25.8937L23.9266 25.7437L23.7297 25.875L23.7719 25.5937L23.6313 25.3781L23.8422 25.35L23.9406 25.0969L24.025 25.3594L24.2359 25.4062L24.0813 25.6031M22.3164 25.8844L22.1266 25.7437L21.9367 25.875L21.9789 25.5937L21.8383 25.3781L22.0492 25.35L22.1477 25.0875L22.232 25.3594L22.443 25.4062L22.2883 25.6031M17.4508 25.0594L17.3313 24.9656L17.2117 25.0406L17.2398 24.8625L17.1484 24.7312L17.282 24.7125L17.3383 24.5531L17.3945 24.7219L17.5281 24.75L17.4297 24.8719M29.2281 29.1281L29.0453 28.9875L28.8555 29.1187L28.8977 28.8375L28.75 28.6219L28.9609 28.5844L29.0594 28.3312L29.1508 28.5937L29.3617 28.65L29.2 28.8375M27.7375 29.4L27.5828 29.2687L27.4211 29.3812L27.4563 29.1375L27.3367 28.9687L27.5125 28.9406L27.5969 28.725L27.6672 28.95L27.843 28.9875L27.7094 29.1562M28.4406 29.3719L28.3 29.2594L28.1523 29.3531L28.1805 29.1375L28.068 28.9781L28.2297 28.95L28.307 28.7625L28.3773 28.95L28.5391 28.9969L28.4195 29.1469M30.4656 27.0094L30.325 26.9156L30.1844 27.0094L30.2195 26.7937L30.107 26.6344L30.2688 26.6062L30.3391 26.4187L30.4094 26.6156L30.557 26.6531L30.4445 26.8031M27.7164 30.7219L27.5406 30.5906L27.3508 30.7031L27.393 30.4406L27.2523 30.2531L27.4633 30.225L27.5547 29.9906L27.6391 30.2344L27.85 30.2812L27.6883 30.4594M27.7305 31.7906L27.5617 31.6594L27.393 31.7812L27.4352 31.5187L27.3016 31.3312L27.4914 31.2937L27.5758 31.0594L27.6531 31.3031L27.843 31.35L27.7023 31.5375M26.3664 29.3719L26.2328 29.2594L26.0922 29.3531L26.1203 29.1469L26.0148 28.9875L26.1695 28.9687L26.2398 28.7812L26.3102 28.9687L26.4648 29.0062L26.3523 29.1562M25.1008 29.3719L24.9602 29.2594L24.8195 29.3531L24.8547 29.1469L24.7422 28.9875L24.9039 28.9687L24.9742 28.7812L25.0445 28.9687L25.1922 29.0062L25.0797 29.1562M22.9422 26.85L22.8016 26.7469L22.6609 26.8406L22.6961 26.625L22.5836 26.475L22.7383 26.4469L22.8086 26.2594L22.8789 26.4469L23.0336 26.4937L22.9211 26.6344M23.1813 31.9781L23.0688 31.8937L22.9422 31.9781L22.9703 31.7906L22.8789 31.6594L23.0125 31.6406L23.0758 31.4812L23.132 31.65L23.2656 31.6781L23.1672 31.8M19.9187 23.6812L19.6375 23.4656L19.3562 23.6531L19.4195 23.2312L19.1945 22.9219L19.5109 22.8656L19.6656 22.4906L19.7992 22.8844L20.1086 22.9594L19.8766 23.25" fill="#FFFFEF"/>
<path fill-rule="evenodd" clip-rule="evenodd" d="M31.2469 26.7937C31.4211 26.1911 31.5575 25.5702 31.6547 24.9375C26.8875 19.3593 21.5789 16.5 14.8711 17.0906C14.6278 17.7182 14.4278 18.3741 14.2734 19.05C22.2188 18.0375 28.0547 22.725 31.2469 26.7937Z" fill="white"/>
<path d="M29.1109 23.6625L29.2727 23.7844C29.2485 23.848 29.2411 23.9207 29.2516 23.9906C29.268 24.0585 29.3032 24.1154 29.35 24.15C29.3992 24.1969 29.4484 24.225 29.4906 24.2156C29.5328 24.2156 29.5609 24.1875 29.582 24.15C29.5943 24.1251 29.5993 24.0951 29.5961 24.0656C29.5903 24.031 29.5783 23.9988 29.5609 23.9719C29.5469 23.9437 29.5117 23.8781 29.4555 23.8031C29.3977 23.7236 29.3543 23.6273 29.3289 23.5219C29.3114 23.4421 29.3159 23.3565 29.3417 23.2808C29.3675 23.2051 29.4129 23.1442 29.4695 23.1094C29.5207 23.0809 29.5772 23.0744 29.6312 23.0906C29.6973 23.1109 29.7596 23.1492 29.8141 23.2031C29.9125 23.2969 29.9758 23.3906 29.9969 23.5031C30.0066 23.5557 30.0079 23.6105 30.0006 23.6638C29.9933 23.7171 29.9777 23.7678 29.9547 23.8125L29.7859 23.6719C29.807 23.6156 29.8141 23.5594 29.8 23.5125C29.793 23.4656 29.7648 23.4187 29.7156 23.3812C29.6795 23.3425 29.6353 23.3196 29.5891 23.3156C29.5763 23.3151 29.5637 23.3191 29.5525 23.3274C29.5414 23.3356 29.5321 23.3478 29.5258 23.3625C29.5117 23.3906 29.5117 23.4187 29.5187 23.4562C29.5258 23.4937 29.5609 23.5687 29.6312 23.6625C29.7016 23.7562 29.7437 23.8406 29.7719 23.8969C29.797 23.9583 29.8083 24.0281 29.8046 24.0979C29.8009 24.1677 29.7822 24.2346 29.7508 24.2906C29.7179 24.3544 29.6713 24.4034 29.6172 24.4313C29.5645 24.4636 29.5055 24.4734 29.4484 24.4594C29.3852 24.4406 29.3219 24.4031 29.2516 24.3375C29.1461 24.2438 29.0828 24.1406 29.0617 24.0281C29.0388 23.9006 29.0539 23.7661 29.1039 23.6531L29.1109 23.6625ZM28.2953 22.95L28.4711 23.0719C28.4493 23.1366 28.4444 23.2092 28.457 23.2781C28.475 23.3425 28.51 23.3958 28.5555 23.4281C28.6117 23.475 28.6539 23.4938 28.6961 23.4844C28.7383 23.4844 28.7664 23.4562 28.7875 23.4094C28.7982 23.3871 28.8031 23.3607 28.8016 23.3344C28.8016 23.3062 28.7875 23.2687 28.7664 23.2406C28.7304 23.1827 28.6929 23.1264 28.6539 23.0719C28.5766 22.9688 28.5273 22.8844 28.5133 22.8094C28.5018 22.7611 28.4983 22.7101 28.5032 22.6599C28.5081 22.6097 28.5211 22.5615 28.5414 22.5187C28.5681 22.4609 28.6074 22.4152 28.6539 22.3875C28.7022 22.3578 28.7561 22.348 28.8086 22.3594C28.8736 22.374 28.9358 22.4059 28.9914 22.4531C29.0969 22.5469 29.1602 22.6406 29.1812 22.7438C29.1941 22.7964 29.1982 22.8522 29.1933 22.9072C29.1885 22.9622 29.1748 23.0152 29.1531 23.0625L28.9773 22.9313C28.9984 22.8656 29.0055 22.8187 28.9914 22.7719C28.9773 22.725 28.9492 22.6781 28.9 22.6406C28.8611 22.6034 28.8143 22.5837 28.7664 22.5844C28.7549 22.5854 28.7437 22.5902 28.7339 22.5984C28.7241 22.6066 28.7159 22.6179 28.7102 22.6312C28.6961 22.6594 28.6961 22.6875 28.7031 22.725C28.7102 22.7625 28.7523 22.8375 28.8227 22.9313C28.893 23.025 28.9422 23.1 28.9633 23.1562C28.9915 23.215 29.0064 23.2834 29.0064 23.3531C29.0064 23.4229 28.9915 23.4912 28.9633 23.55C28.933 23.6154 28.889 23.6675 28.8367 23.7C28.784 23.7324 28.725 23.7422 28.668 23.7281C28.5956 23.7118 28.5263 23.6768 28.4641 23.625C28.3732 23.5604 28.3031 23.4537 28.2672 23.325C28.24 23.1998 28.2501 23.0655 28.2953 22.95ZM27.2969 22.5938L27.8102 21.4688L28.4289 21.9844L28.3445 22.1719L27.8945 21.7969L27.782 22.05L28.2039 22.3969L28.1125 22.5844L27.6906 22.2375L27.55 22.5469L28.0211 22.9219L27.9367 23.1094L27.3039 22.5938H27.2969ZM25.8414 21L25.9187 20.8125L26.2984 21.0656L26.1227 21.5344C26.0664 21.5531 25.9961 21.5625 25.9117 21.5531C25.8307 21.5412 25.752 21.5094 25.6797 21.4594C25.5946 21.4041 25.5219 21.3201 25.4688 21.2156C25.4204 21.1186 25.3958 21.0039 25.3984 20.8875C25.402 20.7663 25.426 20.6477 25.4688 20.5406C25.511 20.4279 25.5739 20.3312 25.6516 20.2594C25.7259 20.1909 25.8143 20.1548 25.9047 20.1562C25.975 20.1562 26.0453 20.1844 26.1297 20.25C26.2422 20.3156 26.3125 20.4094 26.3477 20.5125C26.3842 20.6149 26.3917 20.7314 26.3687 20.8406L26.1789 20.7656C26.1905 20.7028 26.1856 20.6366 26.1648 20.5781C26.1437 20.5219 26.1086 20.4844 26.0523 20.4469C26.0196 20.4219 25.9832 20.4065 25.9456 20.4017C25.908 20.3968 25.8701 20.4026 25.8344 20.4188C25.7641 20.4469 25.7008 20.5312 25.6516 20.6625C25.6023 20.7937 25.5812 20.9156 25.6023 21.0187C25.6121 21.0677 25.6297 21.1131 25.654 21.152C25.6783 21.1909 25.7086 21.2222 25.743 21.2438C25.7781 21.2719 25.8203 21.2906 25.8625 21.2906C25.9044 21.2991 25.9471 21.2991 25.9891 21.2906L26.0453 21.1406L25.8414 21ZM19.4992 18.9094L19.6398 17.5969L19.9352 17.6625L20.0125 18.5812L20.2867 17.7375L20.582 17.7938L20.4414 19.0875L20.2516 19.05L20.3711 18.0281L20.0617 19.0125L19.8719 18.975L19.7945 17.9156L19.682 18.9469L19.4992 18.9094ZM18.5078 18.75L18.5992 17.4375L19.3234 17.5312L19.3094 17.7562L18.782 17.6906L18.7609 17.9719L19.2531 18.0375L19.232 18.2625L18.7398 18.1969L18.7188 18.5531L19.2672 18.6188L19.2531 18.8438L18.5078 18.75Z" fill="#309E3A"/>
<path d="M15.2224 17.9344C15.2224 17.7938 15.2435 17.6906 15.2716 17.5969C15.2962 17.5302 15.3296 17.4699 15.37 17.4188C15.4061 17.3703 15.4491 17.332 15.4966 17.3063C15.5669 17.2781 15.6372 17.2594 15.7075 17.2594C15.8552 17.2594 15.9677 17.3344 16.0591 17.4469C16.1026 17.5186 16.135 17.6011 16.1543 17.6896C16.1736 17.7781 16.1795 17.8709 16.1716 17.9625C16.1716 18.1688 16.1224 18.3375 16.031 18.4594C15.984 18.5173 15.9284 18.5614 15.8679 18.5888C15.8073 18.6163 15.7431 18.6265 15.6794 18.6188C15.6166 18.6196 15.5542 18.6034 15.4962 18.5712C15.4382 18.539 15.3857 18.4914 15.3419 18.4313C15.2544 18.2932 15.2114 18.1146 15.2224 17.9344Z" fill="#309E3A"/>
<path d="M15.4258 17.9344C15.4258 18.0751 15.4469 18.1875 15.4961 18.2719C15.5453 18.3469 15.6086 18.3938 15.693 18.3938C15.7295 18.3972 15.7661 18.3897 15.8001 18.3719C15.8342 18.354 15.8648 18.3263 15.8898 18.2907C15.9391 18.2157 15.9602 18.1032 15.9672 17.9438C15.9672 17.7938 15.9531 17.6813 15.8969 17.6063C15.874 17.5685 15.8451 17.538 15.8122 17.5169C15.7794 17.4958 15.7435 17.4847 15.707 17.4844C15.67 17.4828 15.6332 17.4921 15.5992 17.5115C15.5652 17.531 15.5348 17.5601 15.5102 17.5969C15.4539 17.6719 15.4328 17.7844 15.4258 17.9344Z" fill="#F7FFFF"/>
<path d="M16.3828 18.6094L16.3969 17.2969H16.8187C16.9242 17.2969 16.9945 17.3156 17.0437 17.3438C17.093 17.3625 17.1281 17.4094 17.1562 17.4656C17.1844 17.5219 17.1984 17.5969 17.1984 17.6813C17.199 17.7714 17.1739 17.8585 17.1281 17.925C17.0761 17.9899 17.0093 18.0296 16.9383 18.0375L17.0437 18.15C17.0719 18.1875 17.107 18.2625 17.1492 18.3656L17.2688 18.6281H17.0297L16.8891 18.3281L16.7906 18.1406C16.7736 18.1148 16.7518 18.0954 16.7273 18.0844C16.6954 18.0719 16.6622 18.0656 16.6289 18.0656H16.5867V18.6094H16.3828Z" fill="#309E3A"/>
<path d="M16.5938 17.8594H16.7344C16.8328 17.8594 16.8961 17.8594 16.9172 17.8406C16.9383 17.8406 16.9594 17.8125 16.9734 17.7937C16.9875 17.775 16.9945 17.7281 16.9945 17.7C16.9945 17.6437 16.9875 17.6062 16.9664 17.5875C16.9523 17.5594 16.9242 17.5406 16.8961 17.5312H16.7555L16.5938 17.5219V17.85V17.8594Z" fill="white"/>
<path d="M17.5062 17.3625L17.8719 17.3907C17.9492 17.3907 18.0125 17.4 18.0547 17.4188C18.1094 17.4453 18.1579 17.4905 18.1953 17.55C18.2358 17.6156 18.2647 17.6925 18.2797 17.775C18.3008 17.8594 18.3078 17.9625 18.3008 18.0844C18.3007 18.1801 18.2888 18.2751 18.2656 18.3657C18.2375 18.4594 18.1953 18.5344 18.1461 18.5907C18.1051 18.6357 18.0571 18.6677 18.0055 18.6844C17.9633 18.7032 17.9 18.7032 17.8297 18.7032L17.457 18.675L17.5062 17.3625Z" fill="#309E3A"/>
<path d="M17.6953 17.5969L17.6602 18.4688H17.9273C17.9625 18.4688 17.9906 18.45 18.0117 18.4219C18.0328 18.3938 18.0539 18.3563 18.068 18.3C18.082 18.2438 18.0961 18.1594 18.0961 18.0563L18.0891 17.8219C18.079 17.7725 18.0597 17.7273 18.0328 17.6907C18.0095 17.6594 17.9804 17.6367 17.9484 17.625C17.8953 17.6093 17.8411 17.5999 17.7867 17.5969H17.6953Z" fill="white"/>
<path d="M22.332 19.7063L22.5641 18.4313L22.8734 18.525L23.0984 18.6188C23.1477 18.6563 23.1898 18.7125 23.2109 18.7969C23.2391 18.8719 23.2391 18.9563 23.225 19.0594C23.2109 19.1344 23.1898 19.2 23.1547 19.2469C23.1289 19.2881 23.0966 19.3212 23.0602 19.3438C23.0237 19.3665 22.984 19.3782 22.9437 19.3781C22.8945 19.3781 22.8242 19.3594 22.7328 19.3313L22.6133 19.2844L22.5289 19.7719L22.332 19.7063Z" fill="#309E3A"/>
<path d="M22.7125 18.7125L22.6562 19.0688L22.7617 19.1063C22.832 19.125 22.8883 19.1438 22.9164 19.1344C22.9438 19.1293 22.9693 19.1131 22.9894 19.0879C23.0096 19.0627 23.0234 19.0298 23.0289 18.9938C23.0289 18.9469 23.0289 18.9094 23.0148 18.8719C22.9994 18.8338 22.9746 18.804 22.9445 18.7875L22.8109 18.7406L22.7195 18.7125H22.7125Z" fill="white"/>
<path d="M23.2461 20.0719L23.5766 18.8344L23.9633 19.0219C24.0687 19.0687 24.132 19.1156 24.1742 19.1531C24.2094 19.2 24.2375 19.2469 24.2445 19.3219C24.2516 19.3969 24.2586 19.4625 24.2445 19.5375C24.2164 19.6312 24.1742 19.6969 24.118 19.7437C24.0617 19.7812 23.9914 19.7906 23.907 19.7719C23.9352 19.8187 23.9633 19.8656 23.9773 19.9219L24.0336 20.175L24.0758 20.4656L23.8578 20.3625L23.7875 20.025C23.7747 19.9487 23.7583 19.8735 23.7383 19.8C23.729 19.7708 23.7145 19.7451 23.6961 19.725C23.682 19.6969 23.6539 19.6781 23.6047 19.6594L23.5695 19.6406L23.4289 20.1656L23.2461 20.0719Z" fill="#309E3A"/>
<path d="M23.6242 19.4438L23.7578 19.5094C23.8492 19.5563 23.9055 19.575 23.9336 19.575C23.9547 19.575 23.9758 19.575 23.9969 19.5469C24.018 19.5281 24.032 19.5 24.0391 19.4625C24.0531 19.425 24.0531 19.3875 24.0391 19.35C24.0287 19.3137 24.0087 19.2837 23.9828 19.2656L23.8422 19.2L23.7016 19.1344L23.6172 19.4438H23.6242Z" fill="white"/>
<path d="M24.3998 20.025C24.4239 19.9153 24.4646 19.8132 24.5193 19.725C24.5549 19.6685 24.5977 19.6209 24.6459 19.5844C24.6894 19.5516 24.7371 19.5294 24.7865 19.5188C24.8568 19.5188 24.9271 19.5188 25.0045 19.5563C25.0673 19.577 25.1261 19.6153 25.177 19.6687C25.228 19.722 25.2698 19.7892 25.2998 19.8657C25.356 20.0157 25.356 20.1938 25.3138 20.4C25.279 20.5772 25.1931 20.7289 25.0748 20.8219C24.9693 20.9063 24.8427 20.9157 24.7091 20.8594C24.6465 20.8381 24.5878 20.7996 24.537 20.7463C24.4861 20.6931 24.4442 20.6262 24.4138 20.55C24.3857 20.4681 24.3699 20.3795 24.3675 20.2894C24.3651 20.1993 24.3761 20.1095 24.3998 20.025Z" fill="#309E3A"/>
<path d="M24.5961 20.1C24.5679 20.2406 24.5609 20.3625 24.5961 20.4563C24.6312 20.55 24.6804 20.6063 24.7578 20.6438C24.8281 20.6719 24.8984 20.6625 24.9687 20.6063C25.039 20.5594 25.0812 20.4563 25.1164 20.3063C25.1515 20.1656 25.1515 20.0531 25.1164 19.9594C25.1025 19.9149 25.0814 19.8751 25.0547 19.8427C25.028 19.8102 24.9962 19.7861 24.9617 19.7719C24.9271 19.756 24.8903 19.7502 24.8539 19.7551C24.8175 19.7599 24.7823 19.7753 24.7508 19.8C24.6804 19.8563 24.6312 19.95 24.5961 20.1Z" fill="white"/>
<path d="M26.3164 21.8532L26.7664 20.6907L27.1391 20.9438C27.2093 20.9887 27.2735 21.0489 27.3289 21.1219C27.3641 21.1688 27.3852 21.225 27.3852 21.3C27.3852 21.375 27.3852 21.4407 27.357 21.5063C27.33 21.5906 27.2796 21.6578 27.2164 21.6938C27.1461 21.7125 27.0758 21.7125 26.9984 21.675C27.0266 21.7313 27.0406 21.7875 27.0547 21.8344C27.0688 21.8907 27.0758 21.975 27.0828 22.0969L27.0969 22.3969L26.8859 22.2563L26.8578 21.9094C26.8545 21.8308 26.8474 21.7525 26.8367 21.675C26.8319 21.64 26.8197 21.6075 26.8016 21.5813L26.7172 21.5157L26.682 21.4875L26.4922 21.975L26.3164 21.8532Z" fill="#309E3A"/>
<path d="M26.7539 21.3L26.8875 21.3937C26.9719 21.45 27.0281 21.4875 27.0492 21.4875C27.0703 21.4875 27.0984 21.4875 27.1195 21.4688C27.1406 21.4594 27.1547 21.4312 27.1687 21.3937C27.1828 21.3562 27.1898 21.3187 27.1828 21.2812C27.1741 21.2439 27.1569 21.2111 27.1336 21.1875C27.0924 21.1538 27.0502 21.1225 27.007 21.0938L26.8664 21L26.7539 21.3Z" fill="white"/>
<path d="M29.9599 24.2531C30.0054 24.1567 30.0652 24.0737 30.1357 24.0093C30.183 23.969 30.2354 23.9404 30.2904 23.925C30.3414 23.9111 30.394 23.9111 30.445 23.925C30.5154 23.9437 30.5786 23.9812 30.6419 24.0375C30.6966 24.0829 30.7437 24.1431 30.78 24.2141C30.8163 24.2851 30.8411 24.3654 30.8529 24.45C30.8739 24.6093 30.8388 24.7875 30.7544 24.9656C30.6838 25.1205 30.57 25.2318 30.438 25.275C30.3751 25.2931 30.3099 25.2933 30.2469 25.2755C30.1839 25.2577 30.1244 25.2224 30.0724 25.1718C30.0177 25.1264 29.9706 25.0662 29.9343 24.9952C29.898 24.9242 29.8732 24.8439 29.8614 24.7593C29.8404 24.5906 29.8755 24.4218 29.9599 24.2531Z" fill="#309E3A"/>
<path d="M30.1361 24.403C30.0658 24.5249 30.0447 24.6374 30.0588 24.7405C30.064 24.788 30.0767 24.8335 30.0961 24.8739C30.1155 24.9143 30.1411 24.9488 30.1713 24.9749C30.2416 25.0405 30.3119 25.0593 30.3822 25.0312C30.4526 25.003 30.5229 24.9374 30.5861 24.8062C30.6494 24.6749 30.6776 24.5624 30.6635 24.4687C30.6565 24.3749 30.6143 24.2905 30.551 24.2249C30.4877 24.1593 30.4104 24.1499 30.34 24.178C30.2697 24.1968 30.1994 24.2718 30.1291 24.403H30.1361Z" fill="white"/>
<path d="M21.2188 19.1719L21.3805 18.2532L21.8867 18.4125L21.8656 18.5625L21.493 18.45L21.4578 18.6563L21.8023 18.7594L21.7742 18.9188L21.4297 18.8063L21.3875 19.0594L21.7742 19.1813L21.7461 19.3313L21.2188 19.1719Z" fill="#309E3A"/>
</g>
<defs>
<clipPath id="clip0_45_5704">
<rect width="45" height="45" fill="white"/>
</clipPath>
</defs>
</svg>
