<svg width="45" height="45" viewBox="0 0 45 45" fill="none" xmlns="http://www.w3.org/2000/svg">
<g clip-path="url(#clip0_45_6061)">
<path d="M10.5539 0H34.4391V45H10.5469L10.5539 0Z" fill="white"/>
<path d="M-1.38672 0H10.5523V45H-1.38672V0ZM34.4375 0H46.3766V45H34.4445L34.4375 0ZM14.1312 21.75L13.1961 22.1625L17.5133 27.225C17.8438 28.5094 17.4008 28.8937 17.1195 29.5687L21.8023 28.7812L21.6898 35.0625L22.6672 35.0344L22.4492 28.7906L27.1391 29.5406C26.8508 28.725 26.5906 28.2937 26.8578 26.9906L31.168 22.2094L30.4156 21.8344C29.7969 21.1969 30.6828 18.7781 30.8094 17.25C30.8094 17.25 28.2992 18.4031 28.1375 17.7938L27.4906 16.1531L25.1984 19.5094C24.9523 19.5938 24.8469 19.4625 24.7836 19.1813L25.8383 12.1688L24.1648 13.425C24.0242 13.5094 23.8836 13.4344 23.7992 13.2188L22.182 8.90625L20.5227 13.3875C20.3961 13.5469 20.2695 13.5656 20.1711 13.4531L18.5609 12.2625L19.5242 19.2094C19.4469 19.4906 19.2641 19.5656 19.0531 19.4156L16.8594 16.1063C16.5781 16.7156 16.3813 17.7094 16.0016 17.9344C15.6219 18.15 14.3492 17.5125 13.4984 17.2781C13.7937 18.6656 14.6938 20.9906 14.1312 21.75Z" fill="#D52B1E"/>
</g>
<defs>
<clipPath id="clip0_45_6061">
<rect width="45" height="45" fill="white"/>
</clipPath>
</defs>
</svg>
