<svg width="45" height="45" viewBox="0 0 45 45" fill="none" xmlns="http://www.w3.org/2000/svg">
<g clip-path="url(#clip0_45_6118)">
<path d="M0 0H45V45H0V0Z" fill="#000066"/>
<path fill-rule="evenodd" clip-rule="evenodd" d="M33.1586 19.9688L33.5242 18.4031L32.5398 17.4094L33.7773 17.3906L34.1992 15.8438L34.593 17.3906L35.8375 17.4375L34.8461 18.4219L35.1977 19.9875L34.1781 19.05M36.0836 20.2687L36.8148 18.9656L36.1328 17.5781L37.307 18.1219L38.0805 16.8563V18.5062L39.2336 19.1063L38.0523 19.575L37.9961 21.2156L37.2789 19.8656M30.3602 21.2719L30.3109 19.6312L29.1297 19.1437L30.3039 18.5625V16.9313L31.0703 18.1969L32.2516 17.6719L31.5625 19.05L32.2867 20.3625L31.0914 19.9406M28.307 23.775L27.7867 22.2938L26.5633 22.4625L27.4633 21.3094L26.9992 19.7812L28.068 20.55L29.0031 19.4437L28.7641 21.075L29.8117 21.9094L28.5953 22.1437M27.3508 27.3562L26.4156 26.3156L25.3609 27.1781L25.8109 25.6125L24.9039 24.525L26.1203 24.5906L26.6125 23.0531L26.9148 24.6656L28.1242 24.8063L27.0977 25.725M27.3227 31.3875L26.1625 30.9375L25.4523 32.2969L25.4031 30.6188L24.25 30.1031L25.382 29.5219V27.8344L26.1344 29.1562L27.2875 28.6312L26.6125 30.0375M28.6867 34.8L27.4914 35.025L27.2453 36.6562L26.6969 35.1562L25.4945 35.3063L26.3523 34.1531L25.8531 32.6156L26.9289 33.4125L27.8289 32.3063L27.632 33.9375M30.7961 37.5L29.7344 38.2688L29.9172 39.9187L29.0242 38.7562L27.9273 39.4688L28.4406 37.9781L27.5758 36.7688L28.7922 37.0125L29.3547 35.5594L29.5938 37.1906M33.3766 38.0344L32.793 39.4688L33.6156 40.7063L32.3922 40.3969L31.7664 41.8031L31.5977 40.1813L30.3883 39.8063L31.4992 39.1125L31.3797 37.4719L32.2375 38.6719M36.2734 37.4437L36.2383 39.075L37.3844 39.675L36.1891 40.1438L36.1047 41.7844L35.4016 40.4437L34.2063 40.8562L34.9656 39.5531L34.3047 38.175L35.4719 38.7094M39.3039 19.6688L40.1477 20.85L41.2656 20.1562L40.682 21.6375L41.4906 22.8656L40.2953 22.6031L39.6625 24.0563L39.5148 22.4062L38.3195 22.0781L39.4234 21.3281M41.8281 23.2969L42.2148 24.8531L43.4453 24.8812L42.4469 25.8844L42.7773 27.4594L41.7859 26.5219L40.7594 27.4688L41.1391 25.8938L40.1687 24.9L41.4063 24.8625M42.7773 27.975L42.6367 29.6062L43.7406 30.3281L42.5242 30.6656L42.3344 32.2875L41.7227 30.8719L40.4992 31.1438L41.343 29.925L40.7734 28.4719L41.8984 29.1469M42.1094 32.8781L41.5609 34.3406L42.3977 35.5312L41.1742 35.2781L40.5836 36.7125L40.3727 35.0906L39.1492 34.7812L40.2461 34.0312L40.0844 32.4L40.9703 33.5531M40.2813 37.2188L39.2477 38.0813L39.5148 39.7031L38.5656 38.625L37.5109 39.4313L37.9539 37.9031L37.0328 36.7688L38.2562 36.9094L38.7484 35.4094L39.0578 37.0219" fill="white"/>
<path d="M0 0H22.5V22.5H0V0Z" fill="#000066"/>
<path d="M2.63672 0L11.2148 8.48438L19.7578 0H22.5V2.90625L14.0625 11.2969L22.5 19.6406V22.5H19.6875L11.25 14.1094L2.84766 22.5H0V19.6875L8.40234 11.3438L0 3V0H2.63672Z" fill="white"/>
<path d="M14.9062 13.1719L22.5 20.625V22.5L12.9727 13.1719H14.9062ZM8.4375 14.1094L8.64844 15.75L1.89844 22.5H0L8.4375 14.1094ZM22.5 0V0.140625L13.7461 8.95312L13.8164 6.89062L20.7422 0H22.5ZM0 0L8.40234 8.25H6.29297L0 1.96875V0Z" fill="#C8102E"/>
<path d="M8.47266 0V22.5H14.0977V0H8.47266ZM0 7.5V15H22.5V7.5H0Z" fill="white"/>
<path d="M0 9.04688V13.5469H22.5V9.04688H0ZM9.59766 0V22.5H12.9727V0H9.59766Z" fill="#C8102E"/>
</g>
<defs>
<clipPath id="clip0_45_6118">
<rect width="45" height="45" fill="white"/>
</clipPath>
</defs>
</svg>
