<svg width="45" height="45" viewBox="0 0 45 45" fill="none" xmlns="http://www.w3.org/2000/svg">
<g clip-path="url(#clip0_45_6139)">
<path d="M0 0H45V45H0V0Z" fill="#EE1C25"/>
<path d="M5.39997 16.65L8.43744 4.5L11.4749 16.65L3.375 9.225H13.4999L5.39997 16.65Z" fill="#FFFF00"/>
<path d="M18.575 4.73275L15.4491 5.65639L17.5342 2.4167L17.3297 6.77689L15.595 2.91681L18.575 4.73275Z" fill="#FFFF00"/>
<path d="M21.7302 10.0638L18.5803 9.29862L21.4445 7.39078L19.9878 11.3039L19.5117 6.84894L21.7302 10.0638Z" fill="#FFFF00"/>
<path d="M21.27 17.543L18.6281 15.1314L21.8268 14.9471L19.2998 17.7277L20.2278 13.4012L21.27 17.543Z" fill="#FFFF00"/>
<path d="M17.2969 22.4289L15.5585 18.8439L18.5625 20.3211L15.426 21.5847L17.5353 18.0718L17.2969 22.4289Z" fill="#FFFF00"/>
</g>
<defs>
<clipPath id="clip0_45_6139">
<rect width="45" height="45" fill="white"/>
</clipPath>
</defs>
</svg>
