<svg width="45" height="45" viewBox="0 0 45 45" fill="none" xmlns="http://www.w3.org/2000/svg">
<g clip-path="url(#clip0_45_6179)">
<path d="M0 0H45V45H0V0Z" fill="#0021AD"/>
<path d="M0 0H45V45L0 0Z" fill="#1C8A42"/>
<path d="M22.5016 27.9188C24.7461 27.9188 26.5656 25.4927 26.5656 22.5C26.5656 19.5074 24.7461 17.0813 22.5016 17.0813C20.257 17.0813 18.4375 19.5074 18.4375 22.5C18.4375 25.4927 20.257 27.9188 22.5016 27.9188Z" fill="#FFC639"/>
<path d="M20.0179 20.0625C20.2991 20.5782 20.721 21.4313 21.0585 21.2063C21.3186 21.2063 21.4593 21.2344 21.4944 21.4688C21.9348 21.5269 22.379 21.4343 22.785 21.1997C23.191 20.9651 23.5454 20.5963 23.8147 20.1282C23.8147 20.1282 23.871 20.1282 23.8499 19.7063C23.8499 19.5188 24.0468 19.5563 24.0468 19.6125C24.0749 19.7063 24.0749 19.7719 24.11 19.7813C24.1804 19.7438 24.2999 19.5 24.3913 19.35C24.4124 19.2844 24.3983 19.2094 24.4054 19.125C24.4546 18.9657 24.5741 19.0032 24.6022 19.0875L24.6444 19.2375C24.771 19.35 24.996 19.2375 25.01 19.2375C25.0311 19.1063 25.0944 19.125 25.0944 19.125C25.1788 19.0969 25.1436 19.1063 25.1999 19.1438C25.1507 19.8657 25.3054 19.8938 25.2913 20.2688C25.2983 20.6813 25.1999 20.7938 25.1999 20.9532C25.228 21.1407 25.6921 21.15 25.5233 21.3188C25.3827 21.4125 25.5233 21.6 25.3124 21.675C24.6936 22.0969 24.5811 22.4532 24.5811 22.4532C24.5811 22.4532 24.4265 22.8469 24.4054 22.8469C24.2999 23.1094 24.1733 22.9594 24.096 23.0907C24.0608 23.25 24.0257 23.6063 24.096 23.7844C24.1311 24.0375 24.096 24.1782 24.0468 24.4313C24.0046 24.9563 23.8499 25.0407 23.8288 25.2188C23.7585 25.425 23.8429 26.3438 23.7725 26.3438C23.3155 26.3625 22.964 26.2313 22.7811 26.1844C22.9569 25.1625 22.8866 24.2719 22.8866 24.1782C22.8444 23.4469 22.071 23.625 21.9515 23.5219C21.853 23.5032 21.7897 23.4 21.7616 23.3532C21.6491 23.3344 21.6069 23.2969 21.5015 23.2875C21.4452 23.325 21.4804 23.3625 21.3608 23.4094C21.0444 23.4563 20.9108 23.0532 20.9108 23.0532C20.9249 22.9125 20.2147 23.0813 19.835 22.9594C19.6733 23.0813 19.603 23.4282 19.4765 23.4657C19.4765 23.5688 19.2655 23.3719 19.2233 23.2782C19.2093 22.9594 19.4202 22.8282 19.4202 22.8282C19.589 22.6688 19.6874 22.6407 19.7718 22.5375C19.8069 22.2657 19.7858 22.0688 19.8772 21.8719C19.9475 21.7125 20.053 21.7782 20.1233 21.7219C20.2007 21.6469 20.2358 21.1969 20.1655 21.0657L19.835 20.6719C19.7366 20.2875 19.9546 20.0344 20.0179 20.0625Z" fill="#1C8A42"/>
<path d="M39.5095 13.35C39.3267 12.3844 37.6814 10.2844 36.4368 8.95316C36.1415 8.69066 35.9446 8.85004 35.9868 9.23441C36.1415 9.57191 36.254 9.94691 36.4087 10.2938C36.4509 10.5282 36.5353 10.6875 36.5774 10.9125C36.5774 10.9125 36.5915 11.3063 36.6196 11.3438C36.9993 11.9063 37.0556 12.3844 37.0556 12.3844C37.2494 12.9388 37.5243 13.4361 37.8642 13.8469C38.3001 14.2125 37.9767 15.3469 37.9907 15.9563C37.9907 16.3313 37.7868 16.2938 37.604 16.2375C36.1907 14.5032 34.7845 14.5032 33.5399 13.9969C33.0618 13.9313 33.0478 14.2407 33.2095 14.4094C33.9844 15.5603 34.9176 16.5023 35.9587 17.1844L36.5001 17.6344L37.1189 18.3188C37.597 18.7313 37.6321 19.1063 37.6321 19.1438C37.6462 19.9125 37.3368 20.5125 37.2454 20.7563C37.0837 21.5719 36.7532 21.7125 36.7532 21.7125C34.1095 24.0938 32.7173 24.7125 28.4282 23.9719C28.3579 23.9344 27.9501 24.0188 28.4282 24.2532C29.5181 24.7407 32.204 25.5188 34.7985 23.8782C35.4313 23.2969 35.8392 23.4844 36.2962 23.1282C36.9387 22.5977 37.603 22.1157 38.286 21.6844C38.8696 21.2625 40.4868 20.8032 40.8595 20.3907C41.2884 20.3438 41.7314 20.2688 41.7595 19.7813C41.9001 19.6594 42.111 19.7532 42.2657 19.35C42.6032 19.2657 42.547 19.1063 42.547 19.1063C42.4626 18.7875 42.1392 18.6563 41.9142 18.4219C41.5767 18.2719 41.3517 18.2344 41.1056 18.3844L40.8735 18.525C40.8735 18.525 40.5149 18.4594 40.5149 18.4219C39.7134 18.3657 39.7907 14.8313 39.5095 13.3594V13.35Z" fill="#FFC639"/>
<path d="M41.3845 19.1439C41.3788 19.165 41.3684 19.1839 41.3536 19.1994C41.3389 19.2149 41.3201 19.2268 41.2985 19.2344C41.2769 19.2419 41.2528 19.245 41.2276 19.2434C41.2024 19.2418 41.1767 19.2356 41.1517 19.2252C41.1268 19.2147 41.1032 19.2002 41.0823 19.1824C41.0615 19.1647 41.0437 19.144 41.03 19.1217C41.0164 19.0993 41.0072 19.0757 41.0028 19.0522C40.9985 19.0286 40.9992 19.0056 41.0048 18.9845C41.0162 18.9418 41.0471 18.9092 41.0907 18.894C41.1344 18.8787 41.1872 18.882 41.2375 18.9032C41.2879 18.9243 41.3317 18.9615 41.3592 19.0067C41.3868 19.0518 41.3959 19.1012 41.3845 19.1439Z" fill="#1C8A42"/>
<path d="M8.46966 18.96L7.89366 18.24L7.31316 18.948L7.37616 17.904L6.59766 17.736L7.25016 17.148L6.86316 16.236L7.61466 16.554L7.90716 15.582L8.19066 16.56L8.94216 16.26L8.54616 17.16L9.19416 17.76L8.41566 17.91L8.46966 18.954V18.96Z" fill="white"/>
<path d="M10.5048 27.6301L9.88377 27.0841L9.28077 27.6601L9.49677 26.7301L8.88477 26.1601L9.63177 26.1361L9.85677 25.2061L10.1088 26.1241L10.8603 26.1181L10.2618 26.7001L10.5003 27.6241L10.5048 27.6301Z" fill="white"/>
</g>
<defs>
<clipPath id="clip0_45_6179">
<rect width="45" height="45" fill="white"/>
</clipPath>
</defs>
</svg>
