<svg width="45" height="45" viewBox="0 0 45 45" fill="none" xmlns="http://www.w3.org/2000/svg">
<g clip-path="url(#clip0_45_6189)">
<path d="M0 0H45V45H0V0Z" fill="white"/>
<path d="M21.6426 37.3688C21.6371 37.3638 21.6323 37.3574 21.6285 37.3501H21.6215L21.5301 37.2188L21.2629 36.797L20.9184 36.2063L20.8762 36.122L20.4402 35.9438L20.1168 35.747L20.2855 35.4938L20.8762 35.822L21.3121 35.9438L22.1207 36.7407L21.8887 37.0126C21.8061 37.1152 21.7286 37.2248 21.6566 37.3407L21.7059 37.2938L21.7621 37.3501L21.6496 37.3688H21.6426ZM18.6473 36.1688C18.2508 36.1641 17.8624 36.0185 17.5223 35.747C17.5223 35.747 17.5715 35.6251 17.684 35.522C17.7965 35.4095 17.9934 35.2876 18.3168 35.2782C18.6965 35.2782 19.1605 35.4563 19.6879 35.7845C19.3728 36.0325 19.0132 36.1621 18.6473 36.1595V36.1688ZM16.9949 35.6813C16.9246 35.6813 16.8543 35.6438 16.8121 35.5876C16.7722 35.5227 16.7456 35.4452 16.7348 35.3626C16.7161 35.2583 16.709 35.1509 16.7137 35.0438C16.743 35.03 16.774 35.0236 16.8051 35.0251C16.9457 35.0251 17.0582 35.1845 17.1074 35.3438C17.1355 35.4376 17.1426 35.5126 17.1215 35.5782C17.1074 35.6345 17.0512 35.672 16.9949 35.672V35.6813ZM19.8988 35.2313C18.9215 35.0438 18.5066 34.5751 18.3309 34.2095C18.148 33.8251 18.1902 33.4595 18.1902 33.4595C18.1902 33.4595 18.2465 33.4407 18.3309 33.4407C18.598 33.4407 19.259 33.6188 19.8988 35.222V35.2313ZM17.8949 34.9688C17.4801 34.9688 17.1637 34.8751 16.9527 34.6876C16.8626 34.6121 16.7896 34.5051 16.7418 34.3782C16.7267 34.3304 16.7172 34.2798 16.7137 34.2282C16.874 34.1391 17.0462 34.0945 17.2199 34.097C17.4709 34.109 17.7176 34.1873 17.9457 34.3273C18.1738 34.4673 18.3788 34.6662 18.5488 34.9126C18.3098 34.9501 18.0918 34.9688 17.8949 34.9688ZM15.877 34.8751C15.441 34.8751 14.8363 34.6876 14.4566 34.1907C14.4566 34.1907 14.8715 34.0501 15.3285 34.0313H15.4129C15.8277 34.0313 16.1441 34.1345 16.3551 34.3501C16.4254 34.4251 16.4676 34.4907 16.4746 34.5563C16.4816 34.6126 16.4605 34.6688 16.4184 34.7157C16.3199 34.8095 16.1512 34.8657 15.9121 34.8657H15.877V34.8751ZM14.4496 33.8907C14.4224 33.89 14.3957 33.8813 14.3714 33.865C14.347 33.8488 14.3257 33.8256 14.309 33.797C14.2796 33.7411 14.2603 33.6769 14.2527 33.6095C14.2316 33.4782 14.2387 33.347 14.2387 33.3376C14.2608 33.3247 14.2848 33.3183 14.309 33.3188C14.3723 33.3188 14.4215 33.3657 14.4496 33.4126C14.4924 33.4647 14.526 33.5287 14.548 33.6001C14.5621 33.6845 14.5691 33.7501 14.548 33.8063C14.548 33.8438 14.5059 33.9001 14.4566 33.9001L14.4496 33.8907ZM17.7473 33.797C17.677 33.797 17.6066 33.7595 17.5645 33.7032C17.5246 33.6383 17.4979 33.5608 17.4871 33.4782C17.4684 33.3739 17.4613 33.2665 17.466 33.1595C17.4953 33.1456 17.5263 33.1392 17.5574 33.1407C17.698 33.1407 17.8176 33.3001 17.8598 33.4595C17.8879 33.5532 17.8949 33.6282 17.8809 33.6938C17.8598 33.7501 17.8105 33.7876 17.7402 33.7876L17.7473 33.797ZM16.1441 33.7032C15.2582 33.6657 14.7941 33.3282 14.5691 33.047C14.4711 32.9339 14.39 32.7971 14.3301 32.6438C14.2949 32.5501 14.2809 32.4751 14.2809 32.4563C14.2809 32.4376 14.3652 32.4188 14.4918 32.4188H14.5199C14.8152 32.4188 15.427 32.5876 16.1371 33.7032H16.1441ZM17.1004 33.5907C16.5943 33.5174 16.1238 33.2087 15.7715 32.7188C15.6418 32.5296 15.5435 32.306 15.4832 32.0626C15.4832 32.0626 15.5676 32.0345 15.6941 32.0251C15.7176 32.024 15.741 32.024 15.7645 32.0251C16.116 32.0345 16.7699 32.2501 17.1004 33.5907ZM13.4441 33.122C13.2195 33.1247 12.9954 33.0932 12.7762 33.0282C12.4035 32.897 12.2418 32.7095 12.1715 32.5688C12.1427 32.5125 12.1235 32.4486 12.1152 32.3813C12.113 32.3564 12.113 32.3313 12.1152 32.3063C12.1152 32.3063 12.3613 32.2126 12.7059 32.2032C12.8803 32.1973 13.0547 32.2162 13.2262 32.2595C13.5848 32.3602 13.9043 32.6298 14.1262 33.0188C14.1262 33.0188 13.8449 33.1313 13.4441 33.1313V33.122ZM15.0965 32.3345C15.0639 32.3356 15.0316 32.3279 15.0013 32.3118C14.9711 32.2957 14.9437 32.2715 14.9207 32.2407C14.8808 32.1758 14.8542 32.0983 14.8434 32.0157C14.8152 31.8657 14.8223 31.7157 14.8223 31.697C14.8489 31.681 14.8775 31.6715 14.9066 31.6688H14.9137C15.0543 31.6688 15.1668 31.8376 15.216 31.997C15.2441 32.0907 15.2441 32.1657 15.2301 32.222C15.209 32.2876 15.1598 32.3251 15.0965 32.3251V32.3345ZM13.859 32.1001C13.6216 32.0104 13.3945 31.8779 13.184 31.7063C12.8746 31.4532 12.4879 31.0032 12.4457 30.3001L12.516 30.2907H12.5371C12.6285 30.2907 12.8184 30.3188 13.0504 30.5532C13.3457 30.8532 13.6129 31.3782 13.859 32.1001ZM14.6676 32.0626C14.4737 31.9449 14.2937 31.7901 14.1332 31.6032C13.7217 31.1297 13.4011 30.5318 13.198 29.8595C13.198 29.8595 13.2613 29.8126 13.3598 29.8032C13.3645 29.803 13.3691 29.803 13.3738 29.8032H13.402C13.5426 29.8032 13.7465 29.8876 13.9715 30.2157C14.2387 30.5907 14.4707 31.2095 14.6746 32.0626H14.6676ZM12.5652 31.9782C12.291 31.9782 12.1996 31.7907 12.1715 31.697C12.1442 31.608 12.1346 31.5111 12.1434 31.4157C12.1895 31.4021 12.2367 31.3958 12.284 31.397C12.3713 31.3933 12.4581 31.4168 12.5374 31.4656C12.6167 31.5144 12.6865 31.5872 12.741 31.6782C12.7551 31.7157 12.7973 31.8095 12.7621 31.8938C12.734 31.9501 12.6707 31.9876 12.5652 31.9876V31.9782ZM11.9676 30.9657C11.7556 30.9688 11.5438 30.9468 11.3348 30.9001C11.0957 30.8438 10.9621 30.572 10.8848 30.347C10.8145 30.1126 10.7863 29.8782 10.7863 29.8782C11.5316 29.9063 11.8902 30.197 12.052 30.4407C12.1541 30.5808 12.2184 30.7622 12.2348 30.9563C12.2348 30.9563 12.1223 30.9751 11.9676 30.9751V30.9657ZM12.741 29.9345C12.6809 29.8319 12.6246 29.7256 12.5723 29.6157C12.4809 29.4282 12.4035 29.2407 12.4035 29.0907C12.4035 28.9313 12.3754 28.622 12.3613 28.4345L12.3191 28.0126C12.3402 28.0126 12.7832 28.2376 12.7832 28.8001C12.7832 29.3626 12.741 29.9251 12.741 29.9251V29.9345ZM12.1645 29.8782H12.1504C11.6681 29.6856 11.2286 29.3379 10.8707 28.8657C10.7512 28.6782 10.6738 28.3782 10.6527 27.9845C10.6387 27.7032 10.6527 27.4688 10.6527 27.4407C10.6779 27.4318 10.7041 27.4287 10.7301 27.4313C10.8285 27.4313 10.941 27.4876 11.0816 27.6188C11.2122 27.7421 11.3345 27.8801 11.4473 28.0313C11.6723 28.3313 11.848 28.6313 11.848 28.6313C11.8691 28.6688 11.9887 28.9782 12.0941 29.2782C12.1435 29.416 12.1812 29.5606 12.2066 29.7095C12.2137 29.7657 12.2207 29.8032 12.2066 29.8407C12.2033 29.8563 12.1958 29.8696 12.1855 29.8782C12.1763 29.881 12.1667 29.881 12.1574 29.8782H12.1645Z" fill="#435125"/>
<path d="M36.4906 7.1626L36.3641 7.22822L36.3078 7.25635L36.1531 7.24697L35.9984 7.34072L35.7313 7.58447L35.7242 7.59385L35.6187 7.63135L35.5273 7.5751L35.4781 7.6126L35.457 7.75322L35.4078 7.85635L35.3445 7.9126L35.1336 7.94072L34.9578 8.07197L34.7188 7.97822L34.6133 8.04385L34.3813 8.3251L34.2617 8.39072H34.2266L34.0648 8.38135L34.0016 8.40947L33.9031 8.53135L33.7203 8.5501L33.657 8.60635L33.5656 8.8501L33.4672 9.0001L33.4109 9.00947L33.3547 8.98135L33.3055 8.99072L33.2844 9.1501L33.2422 9.21572L33.1156 9.27197L33.0172 9.38447L32.9258 9.44072H32.7852L32.6656 9.53447L32.4477 9.55322L32.3563 9.66572L32.3352 9.69385L32.293 9.72197L32.2227 9.77822L32.2086 9.79697L32.1242 9.77822L32.0258 9.8251L31.9836 9.7501L31.9133 9.79697L31.8289 9.80635L31.7164 9.74072L31.625 9.68447L31.5617 9.70322L31.5406 9.84385V9.8626L31.4703 9.9751L31.3508 10.0782L31.3367 10.1063L31.1961 10.3501L30.9289 10.7251L30.7039 10.8751L30.4719 10.9688L30.3102 11.147L29.8883 11.4282L29.2062 11.8782L29.0656 11.9345L28.8687 11.972L28.5172 12.1501L28.2078 12.272L28.1867 12.2813L28.1305 12.3095L27.6875 12.4876L27.4836 12.4501L27.3641 12.5157L27.0477 12.4688H26.8297L26.6891 12.5063L26.4289 12.6751L25.9859 12.9563L25.8453 13.1438L25.6203 13.2938L25.3531 13.4063V13.2563L25.2617 13.2938L25.1914 13.322L24.9805 13.3595H24.8609L24.7836 13.3313H24.7695L24.3336 13.5282L23.8414 13.5938L23.5953 13.697H23.4125L23.3 13.7438L23.075 13.7813L22.9906 13.7532L22.9766 13.7438L22.3156 13.7813L22.0133 13.7345L21.8727 13.7813L21.6266 13.6688L21.275 13.6126L21.1906 13.5845L21.0078 13.5095L20.9234 13.5751L20.8531 13.5845L20.7125 13.5095H20.6562L20.5297 13.5657L20.4594 13.547L20.3891 13.472L20.2414 13.4438L20.143 13.3407L19.6156 13.4345L19.475 13.3782L18.9898 13.1907H18.9195L18.8211 13.2845L18.6805 13.3595L18.5469 13.397L18.3781 13.4063L18.1813 13.3407L17.9844 13.2095L17.907 13.1813L17.7383 13.2095H17.6891L17.3797 12.9938L16.9859 12.6657L16.7188 12.4876L16.6133 12.4688L16.5992 12.5345L16.6484 12.7407L16.6695 12.9563V13.1438L16.6625 13.2657L16.6836 13.3688L16.782 13.5188L16.8242 13.6595L16.8523 14.0532V14.4563L16.8031 15.0938L16.7891 15.1876L16.7328 15.5251L16.6836 15.8345L16.4797 16.6501L16.4305 16.7438L16.2898 16.8657L15.9875 17.147L15.7625 17.3157L15.6922 17.3532L15.5094 17.372H15.3969L15.2562 17.2688L15.1156 17.222L14.9328 17.0438L14.7359 16.9876L14.5109 16.8188L14.4547 16.7251L14.3352 16.7063L14.1664 16.6407L14.1031 16.6126L14.0609 16.6032L13.85 16.5938L13.6461 16.472L13.5406 16.4345H13.4L13.2523 16.5282L13.175 16.5657L13.0766 16.5188H13.0062L12.9359 16.6782L12.9219 16.7063L12.8656 16.7438H12.7461L12.6898 16.772L12.6125 16.8188L12.5422 16.8563L12.507 16.8751H12.4859L12.4508 16.8938H12.4086L12.3242 16.8376L12.282 16.8095L12.2117 16.7907L12.1766 16.8188L12.1695 16.997L12.1344 17.1001L12.0219 17.2313L11.9094 17.3626L11.8391 17.5126L11.6281 18.1407L11.4945 18.3938L11.4594 18.4595L11.3187 18.6563L11.1992 18.7782L10.925 19.0595L10.6648 19.2001L10.4398 19.2563H10.3273L10.1164 19.2188L9.93359 19.1438L9.72266 18.9751L9.50469 18.7313L9.17422 18.3095L9.13203 18.272L9.11797 18.2626L9.01953 18.1688H8.94219L8.91406 18.2438L8.89297 18.3376L8.87891 18.422L8.84375 18.8907V18.9188L8.86484 19.1157L9.11797 19.5845L9.18828 19.8282L9.20234 19.8563L9.25156 19.9688L9.29375 20.0626L9.38516 20.4001L9.32188 20.5876L9.35 20.7188L9.27969 20.7938L9.26562 20.9063L9.48359 21.2813L9.53281 21.4407L9.48359 21.6657L9.39219 21.797L9.37109 21.8251L9.38516 21.9188L9.48359 22.0501L9.65937 22.2563L9.75078 22.5563L9.82109 22.6501L9.90547 22.622L9.94766 22.6688H10.018L10.0883 22.7626L10.1305 22.7813L10.2008 22.8282L10.257 22.922L10.2641 23.222L10.3695 23.5782V23.8126L10.4398 23.9532L10.4539 24.0657L10.4187 24.3751L10.5031 24.4688L10.5875 24.4501L10.6437 24.4595L10.7352 24.5626L10.8477 24.7876L10.9602 24.7688L11.0305 24.8063L11.3609 25.2095L11.4313 25.2657L11.4945 25.3032L11.5648 25.397L11.6633 25.3032H11.6773L11.7898 25.2845L11.8391 25.3313L11.9375 25.4157H12.057L12.3383 25.5282L12.4508 25.5657L12.6898 25.7626L12.7953 25.847L12.8516 25.9126L12.9359 26.0063L13.0906 26.1001L13.2312 26.1376L13.3016 26.1563L13.3648 26.1845L13.6602 26.3438L13.8219 26.3907L13.9625 26.4657L14.075 26.5126H14.1594L14.2719 26.3907H14.3773L14.4688 26.4095L14.5602 26.3907L14.7008 26.2782L14.7219 26.222L14.8203 26.1657L15.1578 26.1095L15.2562 26.147L15.5094 26.0063L15.6781 26.0626L15.8187 25.997L16.1492 26.0907L16.2336 26.1751L16.332 26.3157H16.4516L16.4023 26.4188L16.543 26.6251L16.6766 26.8782L16.6836 26.9157L16.775 27.2813L16.8453 27.4126L16.8945 27.5907V27.7032L16.8242 27.7876L16.8102 27.8251V27.8438L16.8242 27.8907L16.8523 27.872L16.9016 27.8345L16.9719 27.8157L17.0844 27.8345L17.1617 27.8438L17.2812 27.7688L17.3656 27.7126L17.4922 27.7876H17.6328L17.6961 27.8157L17.8648 27.9188L17.9492 27.9282L17.9773 27.9001L17.9984 27.8438L17.9914 27.7688L17.9211 27.6657L17.7805 27.4407L17.7242 27.3282L17.682 27.1688L17.668 26.9626L17.6539 26.822L17.675 26.6345L17.7102 26.5688L17.7383 26.4188L17.7453 26.3813L17.8297 26.2407L18.0406 26.0532L18.2656 25.7907L18.4414 25.6313L18.6242 25.5282V25.5001L18.6523 25.5095L19.1164 25.2938L19.3273 25.247L20.7336 25.3782L20.7828 25.3595L20.832 25.1813L20.8531 25.1532L20.8742 25.1345L21.0289 25.0407L21.0992 25.022L21.2961 25.0876L21.3805 25.1157L21.5141 25.022H21.6055L21.7953 24.8813H21.9148L21.9641 24.8626L22.1961 24.6376L22.4141 24.5532L22.4703 24.5157L22.4914 24.497L22.7234 24.3376L22.8641 24.1876L22.9906 24.0938L23.1312 24.0563L23.4828 24.0188L23.5602 23.8595L23.7148 23.8313L23.8063 23.6907L23.9117 23.6345L23.9891 23.4845L24.0594 23.3626L24.1437 23.297L24.432 23.2688L24.7695 23.3251L24.8187 23.2876L24.8891 22.922L24.9734 22.8563L25.1844 22.4345V22.2845L25.1914 22.1532L25.2266 21.9657L25.2055 21.647L25.2336 21.3095L25.3672 20.8876L25.4867 20.7188L25.6766 20.5407L25.775 20.4845L25.9156 20.4563H25.9297L25.9648 20.4376H26.6117L26.7734 20.4282L27.1742 20.522H27.2023L27.3359 20.5876L27.4906 20.747L27.6594 20.9626L27.6875 21.0001L27.793 21.0657L27.8281 21.0845L27.9125 21.0657L28.0391 20.972L28.1375 20.8782L28.2641 20.7845V20.7657L28.3414 20.6251L28.3695 20.5595L28.6227 20.4282L28.918 20.4095L28.9531 20.3813H28.9672L29.0445 20.2501H29.1148L29.2977 20.3438L29.4172 20.3063L29.5156 20.3532L29.593 20.3438L29.7336 20.3157L29.8953 20.4657L29.9867 20.4845L30.3031 20.7282H30.3312L30.3453 20.7376L30.3805 20.7188L30.4367 20.7001H30.4438L30.4508 20.7095L30.493 20.7751L30.5422 20.7845L30.5984 20.6907L30.5773 20.6345L30.5703 20.6157L30.4508 20.5876L30.3523 20.3532L30.4508 20.2126L30.2961 19.9688L30.268 19.922V19.9126L30.2117 19.8001L29.9445 19.2563L29.593 18.8813L29.4734 18.7595L29.4312 18.7126L29.2414 18.4595L29.1078 18.2251L29.0938 18.1782L29.0656 18.0938L28.9883 17.8688L28.8477 17.7282L28.7352 17.5595L28.4961 17.1282L28.4609 17.0626L28.4047 17.0157H28.2852L28.2781 16.997H28.2711V16.9876L28.3273 16.9126L28.3977 16.8938L28.4188 16.8095L28.2992 16.3501V16.3313L28.2922 16.1907L28.3836 15.5251L28.3977 15.4407L28.5664 15.0001L28.6648 14.8876L28.7773 14.597L28.8758 14.4095L28.9672 14.2876L28.9813 14.2782L29.143 14.147L29.2836 14.1188L29.4172 14.0907L29.6492 14.1845H29.8602L29.9094 14.1751L30.0078 14.1563L30.1695 14.0907L30.2469 14.0251L30.2891 13.9501L30.3734 13.5751L30.4016 13.4532L30.4508 13.322L30.7531 12.8626L30.9781 12.5813L31.4844 12.0938L31.7305 11.897L31.857 11.7938L32.9891 11.1188L33.2844 10.7251L33.4391 10.5188L33.7062 10.2751L34.0227 10.097L34.3039 9.81572L34.3602 9.7126L34.4305 9.38447L34.5008 9.36572L34.55 9.20635L34.5711 9.15947L34.7891 8.95322L34.8172 8.93447L35.682 8.35322L35.8086 8.38135L35.8789 8.24072L36.125 8.18447H36.1742L36.2375 8.1376L36.2867 8.01572V7.9876L36.2938 7.66885L36.35 7.58447L36.3781 7.37822L36.4062 7.32197L36.4344 7.2751L36.5047 7.20947L36.4906 7.17197V7.1626Z" fill="#D47600"/>
</g>
<defs>
<clipPath id="clip0_45_6189">
<rect width="45" height="45" fill="white"/>
</clipPath>
</defs>
</svg>
