<svg width="45" height="45" viewBox="0 0 45 45" fill="none" xmlns="http://www.w3.org/2000/svg">
<g clip-path="url(#clip0_45_13329)">
<path d="M22.5 0H45V45H22.5V0Z" fill="white"/>
<path d="M0 0H22.5V45H0V0Z" fill="#006233"/>
<path d="M29.813 19C28.8843 17.4749 27.4508 16.2829 25.7348 15.609C24.0188 14.935 22.1162 14.8168 20.3221 15.2726C18.528 15.7284 16.9426 16.7328 15.8119 18.1299C14.6812 19.5271 14.0684 21.2389 14.0684 23C14.0684 24.7611 14.6812 26.4729 15.8119 27.8701C16.9426 29.2672 18.528 30.2716 20.3221 30.7274C22.1162 31.1832 24.0188 31.065 25.7348 30.391C27.4508 29.7171 28.8843 28.5251 29.813 27C28.9389 28.0351 27.7474 28.7872 26.403 29.1524C25.0586 29.5177 23.6277 29.478 22.3082 29.0388C20.9886 28.5997 19.8455 27.7827 19.0368 26.701C18.2281 25.6192 17.7937 24.326 17.7937 23C17.7937 21.674 18.2281 20.3808 19.0368 19.299C19.8455 18.2173 20.9886 17.4003 22.3082 16.9612C23.6277 16.522 25.0586 16.4823 26.403 16.8476C27.7474 17.2128 28.9389 17.9649 29.813 19ZM30.0942 23L22.5005 20.6533L27.2255 26.7867V19.2133L22.5005 25.3467L30.0942 23Z" fill="#D21034"/>
</g>
<defs>
<clipPath id="clip0_45_13329">
<rect width="45" height="45" fill="white"/>
</clipPath>
</defs>
</svg>
