<svg width="45" height="45" viewBox="0 0 45 45" fill="none" xmlns="http://www.w3.org/2000/svg">
<g clip-path="url(#clip0_45_14191)">
<path fill-rule="evenodd" clip-rule="evenodd" d="M0 0H45V45H0V0Z" fill="#BE0027"/>
<path fill-rule="evenodd" clip-rule="evenodd" d="M0 45L45 44.9719V22.5L0 45Z" fill="#B4D7F4"/>
<path fill-rule="evenodd" clip-rule="evenodd" d="M0 0L45 0.028125V22.5L0 0Z" fill="#239E46"/>
<path fill-rule="evenodd" clip-rule="evenodd" d="M13.0914 33.7875C12.3391 34.0687 11.9102 34.8469 11.9172 35.5781L15.6297 35.5594C15.6578 34.7719 15.1727 34.0406 14.4344 33.75C18.0625 33.6562 21.2125 31.8375 21.7891 30.675C21.2266 30.3469 20.5656 30.8719 20.1016 30.75C21.2055 30.0656 24.5313 27.1969 23.9898 24.1219C23.568 25.8281 22.3023 27.2438 21.7539 27.6281C22.9984 25.1156 24.693 22.4906 23.2234 20.4656C23.2937 21.6375 22.6609 22.9312 22.3797 23.0344C23.1039 20.3719 23.7859 17.0344 22.232 14.8406C22.4359 15.6375 22.3516 17.8781 22.0703 17.9813C21.9859 16.1719 21.7539 12.375 20.3266 12.4219C20.7766 12.9656 20.9734 14.4281 20.9875 15.9094C20.6974 14.8842 20.1799 14.0012 19.5039 13.3781C18.7984 11.751 17.7943 10.3897 16.5859 9.42188C16.7125 10.6125 16.818 11.55 18.0625 12.7875C17.4156 12.7312 16.7688 11.0906 16.0727 11.0438C15.5172 11.0063 15.0883 11.7094 14.1812 11.3062C14.2797 11.7 14.7016 11.8781 14.793 12.1688C14.5961 12.3563 14.1391 12.1406 13.7594 11.8875C14.2867 12.825 15.0953 13.3875 15.7844 13.2C16.607 12.9938 17.4859 13.1063 18.3297 13.7438C17.8092 13.889 17.2733 13.908 16.7477 13.8C17.2328 14.4562 17.5562 14.8969 18.407 14.8875C19.1594 14.8875 19.5602 14.3438 19.75 14.6813C20.2281 15.4313 20.5445 16.1813 20.9453 17.0625C20.0664 17.1844 20.3336 15.7406 19.3562 15C18.8008 16.5 19.9891 18.3 20.7836 19.05C20.7611 20.0747 20.9328 21.0904 21.2828 22.0031C21.5289 22.6125 21.8453 23.2406 21.7258 24.6188C21.2406 24.15 20.7766 22.575 20.9523 21.3281C20.3477 21.5437 20.1086 22.9594 20.3898 23.6719C20.6008 24.2063 20.7414 25.2469 20.5023 25.7063C20.2633 26.1375 20.2422 26.0813 20.2422 27.0188C20.2492 27.5625 20.0172 28.2188 19.6445 28.6781C19.7536 28.1984 19.7801 27.6921 19.7219 27.1969C19.4266 27.8719 18.6742 28.5656 18.4422 29.2969C18.2102 30.0187 18.1539 31.2844 17.0359 31.575C15.5875 31.95 15.0883 32.2875 14.1672 32.7937C14.0617 31.8562 14.3711 29.8875 14.9617 30.0094C15.5312 30.1406 17.282 29.2031 16.6492 27.2438C16.5297 27.8625 16.1219 28.4625 15.6719 28.4906C16.157 27.6656 17.0078 26.8031 16.593 25.4156C16.3418 26.1145 15.9436 26.7008 15.4469 27.1031C16.0375 25.6031 15.5172 25.1344 14.8141 26.3906C14.5469 26.8687 14.3852 27.8344 14.2164 29.0625C13.9352 28.0688 13.9562 26.7563 13.6258 25.6875C13.2883 24.5344 14.0828 24.2344 14.4555 24.3281C15.3695 24.6562 16.9094 24.6562 16.7969 22.6312C16.3961 23.3156 15.707 23.5219 14.9547 23.2875C15.7984 22.4625 16.4594 20.9156 15.5172 20.1C15.4751 20.5784 15.3444 21.0353 15.137 21.4297C14.9296 21.8241 14.6519 22.1436 14.3289 22.3594C14.1779 21.5986 14.1707 20.7998 14.3078 20.0344C13.9422 20.5594 13.675 21.6281 13.457 22.8656C13.4359 21.6469 13.6117 20.775 13.7383 20.1188C13.9352 19.1719 14.4133 19.7906 15.1445 19.8563C15.8617 19.9125 16.832 19.3875 16.6492 18.1031C16.4102 18.6188 15.9109 18.8156 15.4047 18.7594C16.0164 18.2625 17.0781 17.3906 16.4945 16.0406C16.2484 16.5469 16.1711 16.9781 15.4609 17.1375C15.6438 16.575 15.6719 15.7594 16.2344 15.45C15.25 15.1781 14.6875 16.0406 14.3922 17.3906C14.2797 16.4531 14.1391 16.1156 14.1109 15.4219C14.6453 14.6438 14.7016 13.0969 13.5484 12.7594C13.4729 13.3039 13.5019 13.8651 13.6328 14.3906C13.0914 13.9594 12.332 13.725 11.8188 14.325C12.1703 14.8219 12.6977 15.2625 13.5203 14.7188C13.3234 15.5625 12.8172 15.4219 12.1281 15.0938C12.55 16.1531 13.0844 16.3406 13.675 16.2188C13.9844 17.3063 13.9984 18.1312 13.0914 19.7062C13.1336 18.7312 13.0844 18 12.5008 17.2031C11.9945 16.5469 11.5867 17.2313 12.3742 18.6844C11.8961 18.2156 11.3617 17.2781 11.2 16.3312C11.0453 17.4937 11.1859 18.8719 11.6711 19.65C11.4391 19.9781 11.1789 19.6125 10.7922 18.8063C10.9328 21.375 11.7555 21.8719 12.8594 21.3C12.8875 22.7062 12.8875 24.0094 12.9508 25.7063C12.3109 24.4688 11.4953 23.55 11.0453 23.325C10.9047 24.0094 11.432 24.9188 11.7344 25.4156C11.2773 25.2844 10.293 24.2906 10.293 24.2906C10.1945 25.425 11.2984 26.4844 12.0156 26.9531C11.1719 26.9062 10.7992 26.4844 10.2578 25.7906C10.2719 28.9594 12.8313 28.4062 13.3164 27.9187L13.5273 32.8406C12.8031 32.6719 12.8594 32.3719 12.2406 32.3063C10.518 32.2125 9.15391 29.55 8.70391 27.5906C8.57031 27.9094 8.67578 28.2469 8.55625 28.65C8.275 27.6844 7.92344 26.4375 7.43828 25.8562C7.56484 26.4187 7.57891 26.9906 7.53672 28.0406C7.36797 27.3656 7.22031 27.15 7.20625 26.3531C7.21328 25.7438 7.64922 25.2938 7.62812 24.4313C7.60703 23.8031 7.17812 22.4344 7.11484 21.3844C6.90391 22.4719 6.77734 23.6156 6.45391 24.2906C6.61563 23.1281 6.56641 22.3219 6.83359 21.5438C7.14297 20.7281 7.40313 19.9875 7.19922 19.1625C7.00234 19.4812 7.06562 19.7719 6.56641 20.55C6.46094 19.7062 7.21328 18.3469 7.94453 17.8031C8.45781 17.4469 9.10469 16.1531 8.68281 15.2719C8.19766 15.7406 7.97969 16.3594 7.29766 17.4281C7.78984 14.8969 9.05547 14.2219 10.5672 14.2125C10.8977 14.2125 11.5727 14.0531 11.7625 13.4625C11.3406 13.6781 10.8344 13.7063 10.3844 13.5938C10.7148 12.9469 11.3969 13.0312 12.0437 13.0312C12.543 13.0312 13.3305 12.9375 13.6469 11.9813C12.9521 12.3426 12.1899 12.4049 11.4672 12.1594C12.4305 11.5031 13.9281 11.4281 14.7016 10.5562C13.8227 9.68437 11.6289 10.7625 10.2437 12.0281C10.6305 11.5594 11.2422 10.7156 11.5797 10.0406C10.8203 9.55312 8.90781 12.3844 8.24688 14.0719C7.61406 14.5406 7.36797 15.2906 7.12188 15.8063C7.45234 14.2969 7.4875 13.2 7.76875 11.9625C5.62422 12.9375 6.51016 18.2437 6.04609 19.5187C6.10234 18.1125 6.05312 16.3219 5.62422 15.3937C4.96328 16.0687 4.90703 20.0344 5.52578 23.3344C5.30078 22.4531 4.87891 21.6281 4.74531 20.55C3.76094 22.9312 5.32187 25.7531 6.62266 27.975C5.63828 27.2906 4.675 25.8281 4.03516 24.6C4.21094 28.875 7.55078 29.7563 8.07109 30.8063C7.36797 30.3656 6.025 29.5031 5.44844 30.4125C6.24942 30.6105 7.01812 30.9945 7.71953 31.5469C8.59141 32.9906 10.2297 33.6281 13.0914 33.7875Z" fill="#F3E295"/>
</g>
<defs>
<clipPath id="clip0_45_14191">
<rect width="45" height="45" fill="white"/>
</clipPath>
</defs>
</svg>
