<svg width="45" height="45" viewBox="0 0 45 45" fill="none" xmlns="http://www.w3.org/2000/svg">
<g clip-path="url(#clip0_45_15464)">
<path d="M0 0H45V45H0V0Z" fill="#CE1126"/>
<path d="M4.72656 6.2998H40.2766V38.6998H4.72656V6.2998Z" fill="#007A5E"/>
<path d="M4.72656 6.30957H40.2766L4.72656 38.7096H40.2766L4.72656 6.30957Z" fill="#FCD116"/>
<path d="M22.4914 27.9094C24.7282 27.9094 26.5414 25.4917 26.5414 22.5094C26.5414 19.527 24.7282 17.1094 22.4914 17.1094C20.2547 17.1094 18.4414 19.527 18.4414 22.5094C18.4414 25.4917 20.2547 27.9094 22.4914 27.9094Z" fill="#CE1126"/>
<path d="M7.19141 22.5657C7.72554 23.8939 8.54601 24.978 9.54688 25.6782C9.50787 24.213 9.23712 22.7754 8.75234 21.4595L7.19141 22.5657Z" fill="#CE1126"/>
<path d="M6.33585 18.2529C7.0671 20.2873 4.43038 25.1623 8.83194 26.3061C8.23758 25.1578 7.96618 23.7668 8.06554 22.3779C9.04381 22.9809 9.84662 23.9953 10.3507 25.2654C11.5038 19.6873 7.39757 20.0342 6.33585 18.2529Z" fill="#FCD116"/>
</g>
<defs>
<clipPath id="clip0_45_15464">
<rect width="45" height="45" fill="white"/>
</clipPath>
</defs>
</svg>
