<svg width="45" height="45" viewBox="0 0 45 45" fill="none" xmlns="http://www.w3.org/2000/svg">
<g clip-path="url(#clip0_45_16040)">
<path fill-rule="evenodd" clip-rule="evenodd" d="M46.716 45.12H-1.625V0H46.716V45.12Z" fill="#BA0000"/>
<path fill-rule="evenodd" clip-rule="evenodd" d="M21.858 21.8376C21.858 21.8376 18.4476 19.8812 18.9367 14.8052C19.4059 12.3641 20.2453 10.6986 21.7589 9.79089C22.4727 9.50007 23.1997 9.36789 23.94 9.28857C23.7417 9.53532 23.5831 9.78207 23.4971 10.0817C23.3385 10.6457 23.4575 11.1744 23.6756 11.712C23.9466 12.3289 24.1118 12.9634 24.1647 13.7918C24.2143 14.3562 24.1513 14.9282 23.9818 15.4497C23.8123 15.9713 23.5425 16.4238 23.1997 16.7616C22.7635 17.211 22.248 17.3696 21.825 17.8808C21.4945 18.3038 21.2962 18.7356 21.2301 19.4758C21.2169 20.8946 21.5011 21.0973 21.858 21.8376Z" fill="white"/>
<path fill-rule="evenodd" clip-rule="evenodd" d="M21.2736 14.4702V14.4967H21.1348V14.4702H21.2736Z" fill="black"/>
<path fill-rule="evenodd" clip-rule="evenodd" d="M20.518 17.809C20.5286 19.1405 20.8287 20.4841 21.4687 21.2392L21.3767 21.3778C20.6948 20.5732 20.39 19.1672 20.3792 17.811C20.3738 17.1306 20.4421 16.4568 20.5765 15.8685C20.7106 15.2813 20.9119 14.773 21.176 14.4302L21.2728 14.5628C21.0312 14.8765 20.8393 15.353 20.7092 15.9224C20.5794 16.4907 20.5127 17.1455 20.518 17.809Z" fill="#BA0000"/>
<path fill-rule="evenodd" clip-rule="evenodd" d="M22.0359 13.6154L22.254 14.1001L21.8575 13.8797L21.5468 14.3204L21.5997 13.7476L21.2031 13.5272L21.6327 13.3951L21.6856 12.8311L21.9037 13.3157L22.3399 13.1836" fill="#BA0000"/>
<path fill-rule="evenodd" clip-rule="evenodd" d="M22.1484 21.5027C22.1484 21.5027 22.545 16.5765 26.3322 15.7129C28.2225 15.6071 29.6633 16.1799 30.7605 17.8543C31.1768 18.6739 31.4809 19.5639 31.7519 20.4804C31.5205 20.3042 31.3024 20.172 31.0513 20.1544C30.6084 20.1103 30.2581 20.4187 29.9409 20.8505C29.5704 21.3974 29.1085 21.82 28.5926 22.0843C28.2028 22.3141 27.7744 22.4025 27.3508 22.3406C26.9272 22.2787 26.5233 22.0687 26.1802 21.7318C25.7307 21.3 25.4663 20.6919 24.9773 20.3042C24.5798 19.9891 24.1086 19.8823 23.6554 20.0045C22.6309 20.4099 22.578 20.8329 22.1484 21.5027Z" fill="white"/>
<path fill-rule="evenodd" clip-rule="evenodd" d="M27.2386 18.6162H27.2188V18.4312H27.2386V18.6162Z" fill="black"/>
<path fill-rule="evenodd" clip-rule="evenodd" d="M24.646 18.614C23.6941 19.0178 22.8167 19.7944 22.4582 20.8359L22.332 20.7587C22.7138 19.6498 23.6341 18.849 24.6039 18.4377C25.0904 18.2313 25.5933 18.121 26.0542 18.1196C26.5142 18.1182 26.9371 18.2253 27.2598 18.46L27.1933 18.6225C26.898 18.4077 26.5006 18.3033 26.0545 18.3047C25.6092 18.3061 25.1204 18.4128 24.646 18.614Z" fill="#BA0000"/>
<path fill-rule="evenodd" clip-rule="evenodd" d="M28.0981 19.3257L27.8139 19.7399L27.8536 19.1671L27.457 18.9027L27.8734 18.8146L27.9131 18.2241L28.1378 18.7529L28.5608 18.6471L28.2766 19.0613L28.4947 19.5901" fill="#BA0000"/>
<path fill-rule="evenodd" clip-rule="evenodd" d="M22.4004 21.855C22.4004 21.855 26.0355 20.7975 27.8465 25.3183C28.5273 27.6712 28.5735 29.6717 27.7342 31.584C27.2847 32.3771 26.7427 33.038 26.181 33.6814C26.2338 33.3289 26.2537 33.0116 26.1876 32.6944C26.0818 32.1127 25.7513 31.769 25.3416 31.5047C24.8331 31.2082 24.3846 30.7552 24.0329 30.1828C23.7478 29.7628 23.5506 29.2502 23.4613 28.6963C23.3719 28.1425 23.3935 27.5671 23.524 27.0279C23.6826 26.3229 24.0329 25.7942 24.1519 25.0539C24.2508 24.4529 24.1777 23.8243 23.947 23.2914C23.3323 22.1282 23.0151 22.1899 22.4004 21.855Z" fill="white"/>
<path fill-rule="evenodd" clip-rule="evenodd" d="M26.127 27.3276L26.1402 27.3453L26.127 27.3276Z" fill="#BA0000"/>
<path fill-rule="evenodd" clip-rule="evenodd" d="M26.0913 27.4107L26.0781 27.3931L26.1763 27.2622L26.1895 27.2798L26.0913 27.4107Z" fill="black"/>
<path fill-rule="evenodd" clip-rule="evenodd" d="M25.2493 24.0972C24.6608 23.0211 23.8319 22.1588 22.9805 22.035L22.9955 21.8511C23.9022 21.9829 24.762 22.8919 25.3615 23.9881C25.6622 24.538 25.9001 25.1395 26.0475 25.723C26.1946 26.3054 26.253 26.8759 26.1892 27.3611L26.0525 27.3291C26.1109 26.8846 26.0586 26.3469 25.916 25.7821C25.7736 25.2183 25.5426 24.6334 25.2493 24.0972Z" fill="#BA0000"/>
<path fill-rule="evenodd" clip-rule="evenodd" d="M25.8372 28.6935L25.4473 28.4643L25.8769 28.3321L25.9297 27.7417L26.1346 28.244L26.5642 28.1118L26.2668 28.5525L26.4651 29.0548L26.0818 28.8256L25.7843 29.2751" fill="#BA0000"/>
<path fill-rule="evenodd" clip-rule="evenodd" d="M22.3206 22.3574C22.3206 22.3574 24.0985 26.7108 21.3622 30.2887C19.8553 31.8221 18.4277 32.4478 16.815 31.9102C16.121 31.5577 15.4931 31.0554 14.8652 30.509C15.1296 30.4826 15.3742 30.4209 15.5857 30.2446C15.969 29.945 16.121 29.4251 16.2003 28.8346C16.2691 28.0983 16.4685 27.3944 16.782 26.7813C17.0037 26.2975 17.3172 25.9002 17.6909 25.6295C18.0645 25.3587 18.4851 25.2241 18.9102 25.2391C19.4654 25.2479 19.9412 25.5564 20.5096 25.5035C20.9657 25.4242 21.3226 25.2568 21.7258 24.728C22.3867 23.6264 22.2545 23.2299 22.3206 22.3486V22.3574Z" fill="white"/>
<path fill-rule="evenodd" clip-rule="evenodd" d="M19.4246 28.667L19.418 28.6846L19.4246 28.667Z" fill="#BA0000"/>
<path fill-rule="evenodd" clip-rule="evenodd" d="M19.3574 28.6431L19.364 28.6255L19.4882 28.7083L19.4816 28.7259L19.3574 28.6431Z" fill="black"/>
<path fill-rule="evenodd" clip-rule="evenodd" d="M21.5081 26.6299C22.117 25.5735 22.5026 24.2672 22.3458 23.1407L22.4823 23.1069C22.6493 24.3069 22.2385 25.6664 21.6181 26.7427C21.3069 27.2826 20.9404 27.7559 20.5613 28.1073C20.1829 28.458 19.7881 28.6907 19.4205 28.7413L19.4062 28.5572C19.7426 28.5109 20.1152 28.2953 20.4821 27.9553C20.8482 27.6159 21.2046 27.1563 21.5081 26.6299Z" fill="#BA0000"/>
<path fill-rule="evenodd" clip-rule="evenodd" d="M18.3613 28.6758L18.4207 28.1118L18.6388 28.6141L19.0751 28.526L18.771 28.9314L18.9891 29.4337L18.586 29.1781L18.2819 29.5835L18.3348 29.0195L17.9316 28.7639" fill="#BA0000"/>
<path fill-rule="evenodd" clip-rule="evenodd" d="M21.9176 22.2603C21.9176 22.2603 19.4325 25.944 15.9824 23.7056C14.3961 22.322 13.484 20.727 13.332 18.5238C13.3519 17.528 13.4907 16.5763 13.6691 15.6157C13.7815 15.933 13.907 16.215 14.0987 16.4265C14.4358 16.8054 14.8588 16.823 15.3082 16.7261C15.8477 16.5686 16.4077 16.5867 16.9407 16.779C17.3582 16.8961 17.7449 17.1584 18.0618 17.5391C18.3787 17.9198 18.6144 18.4055 18.7451 18.9468C18.9236 19.643 18.8641 20.348 19.0954 21.0442C19.2937 21.5906 19.5316 21.9783 20.0405 22.3132C21.0452 22.7803 21.2765 22.4807 21.9176 22.2692V22.2603Z" fill="white"/>
<path fill-rule="evenodd" clip-rule="evenodd" d="M16.4898 20.7271L16.4766 20.7183L16.4898 20.7271Z" fill="#BA0000"/>
<path fill-rule="evenodd" clip-rule="evenodd" d="M16.5093 20.6353L16.5226 20.6441L16.4605 20.8096L16.4473 20.8008L16.5093 20.6353Z" fill="black"/>
<path fill-rule="evenodd" clip-rule="evenodd" d="M18.6249 22.6592C19.5744 23.074 20.6255 23.1264 21.3678 22.5589L21.4369 22.7195C20.6458 23.3241 19.5489 23.2576 18.5817 22.8351C18.0965 22.6232 17.6397 22.32 17.2649 21.9609C16.8907 21.6024 16.5943 21.1843 16.4355 20.7403L16.5608 20.6606C16.7061 21.067 16.9831 21.463 17.3459 21.8106C17.708 22.1576 18.1517 22.4526 18.6249 22.6592Z" fill="#BA0000"/>
<path fill-rule="evenodd" clip-rule="evenodd" d="M16.1351 19.3876L16.5515 19.273L16.2673 19.7137L16.4722 20.2336L16.0888 19.9869L15.8046 20.4275L15.8509 19.8282L15.4609 19.5815L15.8773 19.4669L15.9236 18.8677" fill="#BA0000"/>
</g>
<defs>
<clipPath id="clip0_45_16040">
<rect width="45" height="45" fill="white"/>
</clipPath>
</defs>
</svg>
