<svg width="45" height="45" viewBox="0 0 45 45" fill="none" xmlns="http://www.w3.org/2000/svg">
<g clip-path="url(#clip0_45_16068)">
<path d="M0 0H45V45H0V0Z" fill="#00008B"/>
<path d="M2.63672 0L11.2148 8.48438L19.7578 0H22.5V2.90625L14.0625 11.2969L22.5 19.6406V22.5H19.6875L11.25 14.1094L2.84766 22.5H0V19.6875L8.40234 11.3438L0 3V0H2.63672Z" fill="white"/>
<path d="M14.9062 13.1719L22.5 20.625V22.5L12.9727 13.1719H14.9062ZM8.4375 14.1094L8.64844 15.75L1.89844 22.5H0L8.4375 14.1094ZM22.5 0V0.140625L13.7461 8.95312L13.8164 6.89062L20.7422 0H22.5ZM0 0L8.40234 8.25H6.29297L0 1.96875V0Z" fill="#FF0000"/>
<path d="M8.47266 0V22.5H14.0977V0H8.47266ZM0 7.5V15H22.5V7.5H0Z" fill="white"/>
<path d="M0 9.04688V13.5469H22.5V9.04688H0ZM9.59766 0V22.5H12.9727V0H9.59766Z" fill="#FF0000"/>
<path d="M37.0555 37.1907L35.6141 37.4345L35.7688 39.3563L34.7281 38.0063L33.6945 39.3657L33.8352 37.4438L32.3938 37.2188L33.6102 36.1688L32.8438 34.5282L34.2219 35.1376L34.707 33.3095L35.2063 35.1282L36.5773 34.5001L35.825 36.1501L37.0484 37.1907H37.0555ZM36.7953 26.2032L36.9852 24.9845L36.2961 24.1407L37.2242 24.0001L37.6109 22.8657L37.9977 24.0001L38.9258 24.1407L38.2367 24.9845L38.4266 26.2032L37.6109 25.5845L36.7953 26.2032ZM29.4758 20.5782L28.0484 20.7845L28.175 22.6876L27.1625 21.3282L26.1219 22.6501L26.2906 20.747L24.8703 20.4938L26.0867 19.4813L25.3484 17.8407L26.7055 18.4782L27.2117 16.6876L27.6828 18.497L29.0469 17.9063L28.2805 19.5282L29.4828 20.5782H29.4758ZM43.8055 17.5032L42.3359 17.7563L42.4977 19.7157L41.4359 18.3376L40.3812 19.7251L40.5289 17.7563L39.0594 17.5313L40.3039 16.4532L39.5234 14.7751L40.9297 15.4032L41.4219 13.547L41.9281 15.4032L43.3273 14.7563L42.5539 16.4438L43.8055 17.5032ZM37.0484 9.6751L35.593 9.89072L35.7266 11.8407L34.693 10.4532L33.6312 11.8032L33.8 9.8626L32.3445 9.6001L33.5891 8.56885L32.8367 6.89072L34.2219 7.5376L34.7352 5.70947L35.2133 7.55635L36.6055 6.94697L35.825 8.59697L37.0484 9.6751ZM16.4539 36.1595L13.2336 36.6657L13.557 40.9688L11.2508 37.9314L8.93047 40.9501L9.275 36.647L6.05469 36.1032L8.78984 33.7782L7.10234 30.0845L10.168 31.4907L11.2789 27.422L12.3687 31.5001L15.4414 30.122L13.7328 33.797L16.4609 36.1501L16.4539 36.1595Z" fill="white"/>
</g>
<defs>
<clipPath id="clip0_45_16068">
<rect width="45" height="45" fill="white"/>
</clipPath>
</defs>
</svg>
