<svg width="45" height="45" viewBox="0 0 45 45" fill="none" xmlns="http://www.w3.org/2000/svg">
<g clip-path="url(#clip0_45_16597)">
<path fill-rule="evenodd" clip-rule="evenodd" d="M-7.03125 0H52.0312V45H-7.03125V0Z" fill="white"/>
<path fill-rule="evenodd" clip-rule="evenodd" d="M-7.03125 30.2168H52.0312V45H-7.03125V30.2168Z" fill="#DA0000"/>
<path fill-rule="evenodd" clip-rule="evenodd" d="M4.20117 30.8496H7.43115V31.1396H4.20117V30.8496ZM4.68237 32.3262H4.90649V32.6162H4.68237V32.3262ZM7.44434 32.3262V32.6162H6.79834V32.3174L7.44434 32.3262ZM7.78711 30.8496H8.01123V32.6074H7.78711V30.8496Z" fill="white"/>
<path fill-rule="evenodd" clip-rule="evenodd" d="M9.07837 32.3174V32.6162H7.85229V32.3174H9.07837ZM6.79761 31.623H7.00854V32.6162H6.79102L6.79761 31.623Z" fill="white"/>
<path fill-rule="evenodd" clip-rule="evenodd" d="M8.89453 30.8496H9.11865V32.6074H8.89453V30.8496ZM8.34082 30.8496H8.55835V32.6074H8.34082V30.8496ZM5.3877 31.5527V31.8516H4.20117V31.5527H5.3877ZM7.97827 31.5527V31.8516H6.79175V31.5527H7.97827Z" fill="white"/>
<path fill-rule="evenodd" clip-rule="evenodd" d="M6.79761 31.6318H7.00854V32.6074H6.79102L6.79761 31.6318Z" fill="white"/>
<path fill-rule="evenodd" clip-rule="evenodd" d="M6.79761 31.6318H7.00854V32.6074H6.79102L6.79761 31.6318Z" fill="white"/>
<path fill-rule="evenodd" clip-rule="evenodd" d="M6.79761 31.6318H7.00854V32.6074H6.79102L6.79761 31.6318ZM4.20703 31.6318H4.42456V32.6074H4.20703V31.6318ZM6.10547 31.6318H6.32959V32.6074H6.10547V31.6318ZM5.16284 31.6318H5.38696V32.6074H5.16284V31.6318Z" fill="white"/>
<path fill-rule="evenodd" clip-rule="evenodd" d="M6.25708 32.3174V32.6162H5.26172V32.3174H6.25708ZM6.323 31.5527V31.8516H5.69019V31.5527H6.323Z" fill="white"/>
<path fill-rule="evenodd" clip-rule="evenodd" d="M-1.11133 30.8496H2.11865V31.1396H-1.11133V30.8496ZM-0.630127 32.3262H-0.406006V32.6162H-0.636719L-0.630127 32.3262ZM2.13184 32.3262V32.6162H1.48584V32.3174L2.13184 32.3262ZM2.47461 30.8496H2.69873V32.6074H2.47461V30.8496Z" fill="white"/>
<path fill-rule="evenodd" clip-rule="evenodd" d="M3.76709 32.3174V32.6162H2.54102V32.3174H3.76709ZM1.48633 31.623H1.70386V32.6162H1.48633V31.623Z" fill="white"/>
<path fill-rule="evenodd" clip-rule="evenodd" d="M3.58203 30.8496H3.80615V32.6074H3.58203V30.8496ZM3.02832 30.8496H3.24585V32.6074H3.02832V30.8496ZM0.0751953 31.5527V31.8516H-1.11133V31.5527H0.0751953ZM2.66577 31.5527V31.8516H1.47925V31.5527H2.66577Z" fill="white"/>
<path fill-rule="evenodd" clip-rule="evenodd" d="M1.48633 31.6318H1.70386V32.6074H1.48633V31.6318Z" fill="white"/>
<path fill-rule="evenodd" clip-rule="evenodd" d="M1.48633 31.6318H1.70386V32.6074H1.48633V31.6318Z" fill="white"/>
<path fill-rule="evenodd" clip-rule="evenodd" d="M1.48706 31.6318H1.70459V32.6074H1.48706V31.6318ZM-1.10352 31.6318H-0.885987V32.6074H-1.10352V31.6318ZM0.794922 31.6318H1.01245V32.6074H0.794922V31.6318ZM-0.147705 31.6318H0.0764161V32.6074H-0.147705V31.6318Z" fill="white"/>
<path fill-rule="evenodd" clip-rule="evenodd" d="M0.945801 32.3174V32.6162H-0.0429688V32.3174H0.945801ZM1.01172 31.5527V31.8516H0.378906V31.5527H1.01172Z" fill="white"/>
<path fill-rule="evenodd" clip-rule="evenodd" d="M9.46875 30.8496H12.6987V31.1396H9.46875V30.8496ZM9.94995 32.3262H10.1741V32.6162H9.94995V32.3262ZM12.7119 32.3262V32.6162H12.0659V32.3174L12.7119 32.3262ZM13.0613 30.8496H13.2854V32.6074H13.0613V30.8496Z" fill="white"/>
<path fill-rule="evenodd" clip-rule="evenodd" d="M14.3472 32.3174V32.6162H13.1211V32.3174H14.3472ZM12.0664 31.623H12.2905V32.6162H12.0664V31.623Z" fill="white"/>
<path fill-rule="evenodd" clip-rule="evenodd" d="M14.1621 30.8496H14.3862V32.6074H14.1621V30.8496ZM13.6084 30.8496H13.8325V32.6074H13.6018L13.6084 30.8496ZM10.6553 31.5527V31.8516H9.46875V31.5527H10.6553ZM13.2458 31.5527V31.8516H12.0593V31.5527H13.2458Z" fill="white"/>
<path fill-rule="evenodd" clip-rule="evenodd" d="M12.0664 31.6318H12.2905V32.6074H12.0664V31.6318Z" fill="white"/>
<path fill-rule="evenodd" clip-rule="evenodd" d="M12.0664 31.6318H12.2905V32.6074H12.0664V31.6318Z" fill="white"/>
<path fill-rule="evenodd" clip-rule="evenodd" d="M12.0652 31.6318H12.2893V32.6074H12.0652V31.6318ZM9.47461 31.6318H9.69873V32.6074H9.47461V31.6318ZM11.373 31.6318H11.5972V32.6074H11.373V31.6318ZM10.4304 31.6318H10.6545V32.6074H10.4304V31.6318Z" fill="white"/>
<path fill-rule="evenodd" clip-rule="evenodd" d="M11.5312 32.3174V32.6162H10.5293V32.3174H11.5312ZM11.5972 31.5527V31.8516H10.9644V31.5527H11.5972Z" fill="white"/>
<path fill-rule="evenodd" clip-rule="evenodd" d="M14.7695 30.8496H18.0061V31.1396H14.7761L14.7695 30.8496ZM15.2573 32.3262H15.4749V32.6162H15.2573V32.3262ZM18.0127 32.3262V32.6162H17.3667V32.3174L18.0127 32.3262ZM18.3621 30.8496H18.5862V32.6074H18.3621V30.8496Z" fill="white"/>
<path fill-rule="evenodd" clip-rule="evenodd" d="M19.6545 32.3174V32.6162H18.4285V32.3174H19.6545ZM17.3672 31.623H17.5913V32.6162H17.3672V31.623Z" fill="white"/>
<path fill-rule="evenodd" clip-rule="evenodd" d="M19.4687 30.8496H19.6929V32.6074H19.4687V30.8496ZM18.9084 30.8496H19.1326V32.6074H18.9084V30.8496ZM15.9553 31.5527V31.8516H14.7754V31.5527H15.9553ZM18.5459 31.5527V31.8516H17.366V31.5527H18.5459Z" fill="white"/>
<path fill-rule="evenodd" clip-rule="evenodd" d="M17.3672 31.6318H17.5913V32.6074H17.3672V31.6318Z" fill="white"/>
<path fill-rule="evenodd" clip-rule="evenodd" d="M17.3672 31.6318H17.5913V32.6074H17.3672V31.6318Z" fill="white"/>
<path fill-rule="evenodd" clip-rule="evenodd" d="M17.366 31.6318H17.5901V32.6074H17.366V31.6318ZM14.7754 31.6318H14.9995V32.6074H14.7754V31.6318ZM16.6738 31.6318H16.8979V32.6074H16.6738V31.6318ZM15.7378 31.6318H15.9553V32.6074H15.7378V31.6318Z" fill="white"/>
<path fill-rule="evenodd" clip-rule="evenodd" d="M16.8333 32.3174V32.6162H15.8379V32.3174H16.8333ZM16.8992 31.5527V31.8516H16.2664V31.5527H16.8992Z" fill="white"/>
<path fill-rule="evenodd" clip-rule="evenodd" d="M20.0938 30.8496H23.3237V31.1396H20.0938V30.8496ZM20.575 32.3262H20.7991V32.6162H20.575V32.3262ZM23.3369 32.3262V32.6162H22.6909V32.3174L23.3369 32.3262ZM23.6863 30.8496H23.9038V32.6074H23.6863V30.8496Z" fill="white"/>
<path fill-rule="evenodd" clip-rule="evenodd" d="M24.9722 32.3174V32.6162H23.7461V32.3174H24.9722ZM22.6914 31.623H22.9155V32.6162H22.6914V31.623Z" fill="white"/>
<path fill-rule="evenodd" clip-rule="evenodd" d="M24.7871 30.8496H25.0112V32.6074H24.7871V30.8496ZM24.2334 30.8496H24.4575V32.6074H24.2334V30.8496ZM21.2803 31.5527V31.8516H20.0938V31.5527H21.2803ZM23.8708 31.5527V31.8516H22.6843V31.5527H23.8708Z" fill="white"/>
<path fill-rule="evenodd" clip-rule="evenodd" d="M22.6914 31.6318H22.9155V32.6074H22.6914V31.6318Z" fill="white"/>
<path fill-rule="evenodd" clip-rule="evenodd" d="M22.6914 31.6318H22.9155V32.6074H22.6914V31.6318Z" fill="white"/>
<path fill-rule="evenodd" clip-rule="evenodd" d="M22.6902 31.6318H22.9143V32.6074H22.6902V31.6318ZM20.0996 31.6318H20.3171V32.6074H20.0996V31.6318ZM21.998 31.6318H22.2222V32.6074H21.998V31.6318ZM21.0554 31.6318H21.2795V32.6074H21.0488L21.0554 31.6318Z" fill="white"/>
<path fill-rule="evenodd" clip-rule="evenodd" d="M22.1562 32.3174V32.6162H21.1543V32.3174H22.1562ZM22.2222 31.5527V31.8516H21.5762V31.5527H22.2222Z" fill="white"/>
<path fill-rule="evenodd" clip-rule="evenodd" d="M-7.03125 0H52.0312V14.7832H-7.03125V0Z" fill="#239F40"/>
<path fill-rule="evenodd" clip-rule="evenodd" d="M25.4473 30.8496H28.6772V31.1396H25.4473V30.8496ZM25.9285 32.3262H26.1526V32.6162H25.9285V32.3262ZM28.6904 32.3262V32.6162H28.0378V32.3174L28.6904 32.3262ZM29.0398 30.8496H29.2573V32.6074H29.0398V30.8496Z" fill="white"/>
<path fill-rule="evenodd" clip-rule="evenodd" d="M30.3245 32.3174V32.6162H29.0984V32.3174H30.3245ZM28.0437 31.623H28.2678V32.6162H28.0371L28.0437 31.623Z" fill="white"/>
<path fill-rule="evenodd" clip-rule="evenodd" d="M30.1472 30.8496H30.3647V32.6074H30.1472V30.8496ZM29.5869 30.8496H29.811V32.6074H29.5869V30.8496ZM26.6338 31.5527V31.8516H25.4473V31.5527H26.6338ZM29.2244 31.5527V31.8516H28.0378V31.5527H29.2244Z" fill="white"/>
<path fill-rule="evenodd" clip-rule="evenodd" d="M28.0371 31.6318H28.2678V32.6074H28.0371V31.6318Z" fill="white"/>
<path fill-rule="evenodd" clip-rule="evenodd" d="M28.0371 31.6318H28.2678V32.6074H28.0371V31.6318Z" fill="white"/>
<path fill-rule="evenodd" clip-rule="evenodd" d="M28.0371 31.6318H28.2678V32.6074H28.0371V31.6318ZM25.4531 31.6318H25.6772V32.6074H25.4531V31.6318ZM27.3516 31.6318H27.5757V32.6074H27.3516V31.6318ZM26.4089 31.6318H26.6331V32.6074H26.4089V31.6318Z" fill="white"/>
<path fill-rule="evenodd" clip-rule="evenodd" d="M27.5098 32.3174V32.6162H26.5078V32.3174H27.5098ZM27.5757 31.5527V31.8516H26.9429V31.5527H27.5757Z" fill="white"/>
<path fill-rule="evenodd" clip-rule="evenodd" d="M30.7656 30.8496H33.9956V31.1396H30.7656V30.8496ZM31.2468 32.3262H31.4709V32.6162H31.2468V32.3262ZM34.0154 32.3262V32.6162H33.3628V32.3174L34.0154 32.3262ZM34.3582 30.8496H34.5823V32.6074H34.3582V30.8496Z" fill="white"/>
<path fill-rule="evenodd" clip-rule="evenodd" d="M35.644 32.3174V32.6162H34.418V32.3174H35.644ZM33.3633 31.623H33.5874V32.6162H33.3633V31.623Z" fill="white"/>
<path fill-rule="evenodd" clip-rule="evenodd" d="M35.4668 30.8496H35.6843V32.6074H35.4668V30.8496ZM34.9065 30.8496H35.1306V32.6074H34.9065V30.8496ZM31.9534 31.5527V31.8516H30.7734V31.5527H31.9534ZM34.5439 31.5527V31.8516H33.364V31.5527H34.5439Z" fill="white"/>
<path fill-rule="evenodd" clip-rule="evenodd" d="M33.3633 31.6318H33.5874V32.6074H33.3633V31.6318Z" fill="white"/>
<path fill-rule="evenodd" clip-rule="evenodd" d="M33.3633 31.6318H33.5874V32.6074H33.3633V31.6318Z" fill="white"/>
<path fill-rule="evenodd" clip-rule="evenodd" d="M33.364 31.6318H33.5881V32.6074H33.364V31.6318ZM30.7734 31.6318H30.9976V32.6074H30.7734V31.6318ZM32.6719 31.6318H32.896V32.6074H32.6719V31.6318ZM31.7292 31.6318H31.9534V32.6074H31.7358L31.7292 31.6318Z" fill="white"/>
<path fill-rule="evenodd" clip-rule="evenodd" d="M32.8293 32.3174V32.6162H31.834V32.3174H32.8293ZM32.8953 31.5527V31.8516H32.2559V31.5527H32.8953Z" fill="white"/>
<path fill-rule="evenodd" clip-rule="evenodd" d="M36.0918 30.8496H39.3218V31.1396H36.0918V30.8496ZM36.573 32.3262H36.7971V32.6162H36.573V32.3262ZM39.335 32.3262V32.6162H38.689V32.3174L39.335 32.3262ZM39.6777 30.8496H39.9019V32.6074H39.6777V30.8496Z" fill="white"/>
<path fill-rule="evenodd" clip-rule="evenodd" d="M40.9709 32.3174V32.6162H39.7449V32.3174H40.9709ZM38.6836 31.623H38.9077V32.6162H38.6836V31.623Z" fill="white"/>
<path fill-rule="evenodd" clip-rule="evenodd" d="M40.7852 30.8496H41.0093V32.6074H40.7852V30.8496ZM40.2314 30.8496H40.449V32.6074H40.2314V30.8496ZM37.2783 31.5527V31.8516H36.0918V31.5527H37.2783ZM39.8689 31.5527V31.8516H38.6824V31.5527H39.8689Z" fill="white"/>
<path fill-rule="evenodd" clip-rule="evenodd" d="M38.6895 31.6318H38.907V32.6074H38.6895V31.6318Z" fill="white"/>
<path fill-rule="evenodd" clip-rule="evenodd" d="M38.6895 31.6318H38.907V32.6074H38.6895V31.6318Z" fill="white"/>
<path fill-rule="evenodd" clip-rule="evenodd" d="M38.689 31.6318H38.9065V32.6074H38.689V31.6318ZM36.0918 31.6318H36.3159V32.6074H36.0918V31.6318ZM37.9968 31.6318H38.2144V32.6074H37.9968V31.6318ZM37.0542 31.6318H37.2783V32.6074H37.0542V31.6318Z" fill="white"/>
<path fill-rule="evenodd" clip-rule="evenodd" d="M38.1497 32.3174V32.6162H37.1543V32.3174H38.1497ZM38.2156 31.5527V31.8516H37.5828V31.5527H38.2156Z" fill="white"/>
<path fill-rule="evenodd" clip-rule="evenodd" d="M41.4453 30.8496H44.6753V31.1396H41.4453V30.8496ZM41.9265 32.3262H42.1506V32.6162H41.9265V32.3262ZM44.6885 32.3262V32.6162H44.0425V32.3174L44.6885 32.3262ZM45.0312 30.8496H45.2554V32.6074H45.0312V30.8496Z" fill="white"/>
<path fill-rule="evenodd" clip-rule="evenodd" d="M46.3237 32.3174V32.6162H45.0977V32.3174H46.3237ZM44.043 31.623H44.2605V32.6162H44.043V31.623Z" fill="white"/>
<path fill-rule="evenodd" clip-rule="evenodd" d="M46.1387 30.8496H46.3628V32.6074H46.1387V30.8496ZM45.585 30.8496H45.8025V32.6074H45.585V30.8496ZM42.6318 31.5527V31.8516H41.4453V31.5527H42.6318ZM45.2224 31.5527V31.8516H44.0359V31.5527H45.2224Z" fill="white"/>
<path fill-rule="evenodd" clip-rule="evenodd" d="M44.043 31.6318H44.2605V32.6074H44.043V31.6318Z" fill="white"/>
<path fill-rule="evenodd" clip-rule="evenodd" d="M44.043 31.6318H44.2605V32.6074H44.043V31.6318Z" fill="white"/>
<path fill-rule="evenodd" clip-rule="evenodd" d="M44.0417 31.6318H44.2593V32.6074H44.0417V31.6318ZM41.4512 31.6318H41.6687V32.6074H41.4512V31.6318ZM43.3496 31.6318H43.5737V32.6074H43.3496V31.6318ZM42.407 31.6318H42.6311V32.6074H42.407V31.6318Z" fill="white"/>
<path fill-rule="evenodd" clip-rule="evenodd" d="M43.5012 32.3174V32.6162H42.5059V32.3174H43.5012ZM43.5671 31.5527V31.8516H42.9343V31.5527H43.5671Z" fill="white"/>
<path fill-rule="evenodd" clip-rule="evenodd" d="M4.20117 12.6035H7.43115V12.9023H4.20117V12.6035ZM4.68237 14.0977H4.90649V14.3789H4.68237V14.0977ZM7.44434 14.0801V14.3789H6.79834V14.0801H7.44434ZM7.78711 12.6035H8.01123V14.3789H7.78711V12.6035Z" fill="white"/>
<path fill-rule="evenodd" clip-rule="evenodd" d="M9.07837 14.0801V14.3789H7.85229V14.0801H9.07837ZM6.79761 13.3857H7.00854V14.3789H6.79102L6.79761 13.3857Z" fill="white"/>
<path fill-rule="evenodd" clip-rule="evenodd" d="M8.89453 12.6035H9.11865V14.3789H8.89453V12.6035ZM8.34082 12.6035H8.55835V14.3789H8.34082V12.6035ZM5.3877 13.3066V13.6055H4.20117V13.3154L5.3877 13.3066ZM7.97827 13.3066V13.6055H6.79175V13.3154L7.97827 13.3066Z" fill="white"/>
<path fill-rule="evenodd" clip-rule="evenodd" d="M6.79761 13.3857H7.00854V14.3789H6.79102L6.79761 13.3857Z" fill="white"/>
<path fill-rule="evenodd" clip-rule="evenodd" d="M6.79761 13.3857H7.00854V14.3789H6.79102L6.79761 13.3857Z" fill="white"/>
<path fill-rule="evenodd" clip-rule="evenodd" d="M6.79761 13.3857H7.00854V14.3789H6.79102L6.79761 13.3857ZM4.20703 13.3857H4.42456V14.3789H4.20703V13.3857ZM6.10547 13.3857H6.32959V14.3789H6.10547V13.3857ZM5.16284 13.3857H5.38696V14.3789H5.16284V13.3857Z" fill="white"/>
<path fill-rule="evenodd" clip-rule="evenodd" d="M6.25708 14.0801V14.3789H5.26172V14.0801H6.25708ZM6.323 13.3154V13.6055H5.69019V13.3154H6.323Z" fill="white"/>
<path fill-rule="evenodd" clip-rule="evenodd" d="M-1.11133 12.6035H2.11865V12.9023H-1.11133V12.6035ZM-0.630127 14.0977H-0.406006V14.3789H-0.636719L-0.630127 14.0977ZM2.13184 14.0801V14.3789H1.48584V14.0801H2.13184ZM2.47461 12.6035H2.69873V14.3789H2.47461V12.6035Z" fill="white"/>
<path fill-rule="evenodd" clip-rule="evenodd" d="M3.76709 14.0801V14.3789H2.54102V14.0801H3.76709ZM1.48633 13.3857H1.70386V14.3789H1.48633V13.3857Z" fill="white"/>
<path fill-rule="evenodd" clip-rule="evenodd" d="M3.58203 12.6035H3.80615V14.3789H3.58203V12.6035ZM3.02832 12.6035H3.24585V14.3789H3.02832V12.6035ZM0.0751953 13.3066V13.6055H-1.11133V13.3154L0.0751953 13.3066ZM2.66577 13.3066V13.6055H1.47925V13.3154L2.66577 13.3066Z" fill="white"/>
<path fill-rule="evenodd" clip-rule="evenodd" d="M1.48633 13.3857H1.70386V14.3789H1.48633V13.3857Z" fill="white"/>
<path fill-rule="evenodd" clip-rule="evenodd" d="M1.48633 13.3857H1.70386V14.3789H1.48633V13.3857Z" fill="white"/>
<path fill-rule="evenodd" clip-rule="evenodd" d="M1.48706 13.3857H1.70459V14.3789H1.48706V13.3857ZM-1.10352 13.3857H-0.885987V14.3789H-1.10352V13.3857ZM0.794922 13.3857H1.01245V14.3789H0.794922V13.3857ZM-0.147705 13.3857H0.0764161V14.3789H-0.147705V13.3857Z" fill="white"/>
<path fill-rule="evenodd" clip-rule="evenodd" d="M0.945801 14.0801V14.3789H-0.0429688V14.0801H0.945801ZM1.01172 13.3154V13.6055H0.378906V13.3154H1.01172Z" fill="white"/>
<path fill-rule="evenodd" clip-rule="evenodd" d="M9.46875 12.6035H12.6987V12.9023H9.46875V12.6035ZM9.94995 14.0977H10.1741V14.3789H9.94995V14.0977ZM12.7119 14.0801V14.3789H12.0659V14.0801H12.7119ZM13.0613 12.6035H13.2854V14.3789H13.0613V12.6035Z" fill="white"/>
<path fill-rule="evenodd" clip-rule="evenodd" d="M14.3472 14.0801V14.3789H13.1211V14.0801H14.3472ZM12.0664 13.3857H12.2905V14.3789H12.0664V13.3857Z" fill="white"/>
<path fill-rule="evenodd" clip-rule="evenodd" d="M14.1621 12.6035H14.3862V14.3789H14.1621V12.6035ZM13.6084 12.6035H13.8325V14.3789H13.6018L13.6084 12.6035ZM10.6553 13.3066V13.6055H9.46875V13.3154L10.6553 13.3066ZM13.2458 13.3066V13.6055H12.0593V13.3154L13.2458 13.3066Z" fill="white"/>
<path fill-rule="evenodd" clip-rule="evenodd" d="M12.0664 13.3857H12.2905V14.3789H12.0664V13.3857Z" fill="white"/>
<path fill-rule="evenodd" clip-rule="evenodd" d="M12.0664 13.3857H12.2905V14.3789H12.0664V13.3857Z" fill="white"/>
<path fill-rule="evenodd" clip-rule="evenodd" d="M12.0652 13.3857H12.2893V14.3789H12.0652V13.3857ZM9.47461 13.3857H9.69873V14.3789H9.47461V13.3857ZM11.373 13.3857H11.5972V14.3789H11.373V13.3857ZM10.4304 13.3857H10.6545V14.3789H10.4304V13.3857Z" fill="white"/>
<path fill-rule="evenodd" clip-rule="evenodd" d="M11.5312 14.0801V14.3789H10.5293V14.0801H11.5312ZM11.5972 13.3154V13.6055H10.9644V13.3154H11.5972Z" fill="white"/>
<path fill-rule="evenodd" clip-rule="evenodd" d="M14.7695 12.6035H18.0061V12.9023H14.7761L14.7695 12.6035ZM15.2573 14.0977H15.4749V14.3789H15.2573V14.0977ZM18.0127 14.0801V14.3789H17.3667V14.0801H18.0127ZM18.3621 12.6035H18.5862V14.3789H18.3621V12.6035Z" fill="white"/>
<path fill-rule="evenodd" clip-rule="evenodd" d="M19.6545 14.0801V14.3789H18.4285V14.0801H19.6545ZM17.3672 13.3857H17.5913V14.3789H17.3672V13.3857Z" fill="white"/>
<path fill-rule="evenodd" clip-rule="evenodd" d="M19.4687 12.6035H19.6929V14.3789H19.4687V12.6035ZM18.9084 12.6035H19.1326V14.3789H18.9084V12.6035ZM15.9553 13.3066V13.6055H14.7754V13.3154L15.9553 13.3066ZM18.5459 13.3066V13.6055H17.366V13.3154L18.5459 13.3066Z" fill="white"/>
<path fill-rule="evenodd" clip-rule="evenodd" d="M17.3672 13.3857H17.5913V14.3789H17.3672V13.3857Z" fill="white"/>
<path fill-rule="evenodd" clip-rule="evenodd" d="M17.3672 13.3857H17.5913V14.3789H17.3672V13.3857Z" fill="white"/>
<path fill-rule="evenodd" clip-rule="evenodd" d="M17.366 13.3857H17.5901V14.3789H17.366V13.3857ZM14.7754 13.3857H14.9995V14.3789H14.7754V13.3857ZM16.6738 13.3857H16.8979V14.3789H16.6738V13.3857ZM15.7378 13.3857H15.9553V14.3789H15.7378V13.3857Z" fill="white"/>
<path fill-rule="evenodd" clip-rule="evenodd" d="M16.8333 14.0801V14.3789H15.8379V14.0801H16.8333ZM16.8992 13.3154V13.6055H16.2664V13.3154H16.8992Z" fill="white"/>
<path fill-rule="evenodd" clip-rule="evenodd" d="M20.0938 12.6035H23.3237V12.9023H20.0938V12.6035ZM20.575 14.0977H20.7991V14.3789H20.575V14.0977ZM23.3369 14.0801V14.3789H22.6909V14.0801H23.3369ZM23.6863 12.6035H23.9038V14.3789H23.6863V12.6035Z" fill="white"/>
<path fill-rule="evenodd" clip-rule="evenodd" d="M24.9722 14.0801V14.3789H23.7461V14.0801H24.9722ZM22.6914 13.3857H22.9155V14.3789H22.6914V13.3857Z" fill="white"/>
<path fill-rule="evenodd" clip-rule="evenodd" d="M24.7871 12.6035H25.0112V14.3789H24.7871V12.6035ZM24.2334 12.6035H24.4575V14.3789H24.2334V12.6035ZM21.2803 13.3066V13.6055H20.0938V13.3154L21.2803 13.3066ZM23.8708 13.3066V13.6055H22.6843V13.3154L23.8708 13.3066Z" fill="white"/>
<path fill-rule="evenodd" clip-rule="evenodd" d="M22.6914 13.3857H22.9155V14.3789H22.6914V13.3857Z" fill="white"/>
<path fill-rule="evenodd" clip-rule="evenodd" d="M22.6914 13.3857H22.9155V14.3789H22.6914V13.3857Z" fill="white"/>
<path fill-rule="evenodd" clip-rule="evenodd" d="M22.6902 13.3857H22.9143V14.3789H22.6902V13.3857ZM20.0996 13.3857H20.3171V14.3789H20.0996V13.3857ZM21.998 13.3857H22.2222V14.3789H21.998V13.3857ZM21.0554 13.3857H21.2795V14.3789H21.0488L21.0554 13.3857Z" fill="white"/>
<path fill-rule="evenodd" clip-rule="evenodd" d="M22.1562 14.0801V14.3789H21.1543V14.0801H22.1562ZM22.2222 13.3154V13.6055H21.5762V13.3154H22.2222Z" fill="white"/>
<path fill-rule="evenodd" clip-rule="evenodd" d="M25.4473 12.6035H28.6772V12.9023H25.4473V12.6035ZM25.9285 14.0977H26.1526V14.3789H25.9285V14.0977ZM28.6904 14.0801V14.3789H28.0378V14.0801H28.6904ZM29.0398 12.6035H29.2573V14.3789H29.0398V12.6035Z" fill="white"/>
<path fill-rule="evenodd" clip-rule="evenodd" d="M30.3245 14.0801V14.3789H29.0984V14.0801H30.3245ZM28.0437 13.3857H28.2678V14.3789H28.0371L28.0437 13.3857Z" fill="white"/>
<path fill-rule="evenodd" clip-rule="evenodd" d="M30.1472 12.6035H30.3647V14.3789H30.1472V12.6035ZM29.5869 12.6035H29.811V14.3789H29.5869V12.6035ZM26.6338 13.3066V13.6055H25.4473V13.3154L26.6338 13.3066ZM29.2244 13.3066V13.6055H28.0378V13.3154L29.2244 13.3066Z" fill="white"/>
<path fill-rule="evenodd" clip-rule="evenodd" d="M28.0371 13.3857H28.2678V14.3789H28.0371V13.3857Z" fill="white"/>
<path fill-rule="evenodd" clip-rule="evenodd" d="M28.0371 13.3857H28.2678V14.3789H28.0371V13.3857Z" fill="white"/>
<path fill-rule="evenodd" clip-rule="evenodd" d="M28.0371 13.3857H28.2678V14.3789H28.0371V13.3857ZM25.4531 13.3857H25.6772V14.3789H25.4531V13.3857ZM27.3516 13.3857H27.5757V14.3789H27.3516V13.3857ZM26.4089 13.3857H26.6331V14.3789H26.4089V13.3857Z" fill="white"/>
<path fill-rule="evenodd" clip-rule="evenodd" d="M27.5098 14.0801V14.3789H26.5078V14.0801H27.5098ZM27.5757 13.3154V13.6055H26.9429V13.3154H27.5757Z" fill="white"/>
<path fill-rule="evenodd" clip-rule="evenodd" d="M30.7656 12.6035H33.9956V12.9023H30.7656V12.6035ZM31.2468 14.0977H31.4709V14.3789H31.2468V14.0977ZM34.0154 14.0801V14.3789H33.3628V14.0801H34.0154ZM34.3582 12.6035H34.5823V14.3789H34.3582V12.6035Z" fill="white"/>
<path fill-rule="evenodd" clip-rule="evenodd" d="M35.644 14.0801V14.3789H34.418V14.0801H35.644ZM33.3633 13.3857H33.5874V14.3789H33.3633V13.3857Z" fill="white"/>
<path fill-rule="evenodd" clip-rule="evenodd" d="M35.4668 12.6035H35.6843V14.3789H35.4668V12.6035ZM34.9065 12.6035H35.1306V14.3789H34.9065V12.6035ZM31.9534 13.3066V13.6055H30.7734V13.3154L31.9534 13.3066ZM34.5439 13.3066V13.6055H33.364V13.3154L34.5439 13.3066Z" fill="white"/>
<path fill-rule="evenodd" clip-rule="evenodd" d="M33.3633 13.3857H33.5874V14.3789H33.3633V13.3857Z" fill="white"/>
<path fill-rule="evenodd" clip-rule="evenodd" d="M33.3633 13.3857H33.5874V14.3789H33.3633V13.3857Z" fill="white"/>
<path fill-rule="evenodd" clip-rule="evenodd" d="M33.364 13.3857H33.5881V14.3789H33.364V13.3857ZM30.7734 13.3857H30.9976V14.3789H30.7734V13.3857ZM32.6719 13.3857H32.896V14.3789H32.6719V13.3857ZM31.7292 13.3857H31.9534V14.3789H31.7358L31.7292 13.3857Z" fill="white"/>
<path fill-rule="evenodd" clip-rule="evenodd" d="M32.8293 14.0801V14.3789H31.834V14.0801H32.8293ZM32.8953 13.3154V13.6055H32.2559V13.3154H32.8953Z" fill="white"/>
<path fill-rule="evenodd" clip-rule="evenodd" d="M36.0918 12.6035H39.3218V12.9023H36.0918V12.6035ZM36.573 14.0977H36.7971V14.3789H36.573V14.0977ZM39.335 14.0801V14.3789H38.689V14.0801H39.335ZM39.6777 12.6035H39.9019V14.3789H39.6777V12.6035Z" fill="white"/>
<path fill-rule="evenodd" clip-rule="evenodd" d="M40.9709 14.0801V14.3789H39.7449V14.0801H40.9709ZM38.6836 13.3857H38.9077V14.3789H38.6836V13.3857Z" fill="white"/>
<path fill-rule="evenodd" clip-rule="evenodd" d="M40.7852 12.6035H41.0093V14.3789H40.7852V12.6035ZM40.2314 12.6035H40.449V14.3789H40.2314V12.6035ZM37.2783 13.3066V13.6055H36.0918V13.3154L37.2783 13.3066ZM39.8689 13.3066V13.6055H38.6824V13.3154L39.8689 13.3066Z" fill="white"/>
<path fill-rule="evenodd" clip-rule="evenodd" d="M38.6895 13.3857H38.907V14.3789H38.6895V13.3857Z" fill="white"/>
<path fill-rule="evenodd" clip-rule="evenodd" d="M38.6895 13.3857H38.907V14.3789H38.6895V13.3857Z" fill="white"/>
<path fill-rule="evenodd" clip-rule="evenodd" d="M38.689 13.3857H38.9065V14.3789H38.689V13.3857ZM36.0918 13.3857H36.3159V14.3789H36.0918V13.3857ZM37.9968 13.3857H38.2144V14.3789H37.9968V13.3857ZM37.0542 13.3857H37.2783V14.3789H37.0542V13.3857Z" fill="white"/>
<path fill-rule="evenodd" clip-rule="evenodd" d="M38.1497 14.0801V14.3789H37.1543V14.0801H38.1497ZM38.2156 13.3154V13.6055H37.5828V13.3154H38.2156Z" fill="white"/>
<path fill-rule="evenodd" clip-rule="evenodd" d="M41.4453 12.6035H44.6753V12.9023H41.4453V12.6035ZM41.9265 14.0977H42.1506V14.3789H41.9265V14.0977ZM44.6885 14.0801V14.3789H44.0425V14.0801H44.6885ZM45.0312 12.6035H45.2554V14.3789H45.0312V12.6035Z" fill="white"/>
<path fill-rule="evenodd" clip-rule="evenodd" d="M46.3237 14.0801V14.3789H45.0977V14.0801H46.3237ZM44.043 13.3857H44.2605V14.3789H44.043V13.3857Z" fill="white"/>
<path fill-rule="evenodd" clip-rule="evenodd" d="M46.1387 12.6035H46.3628V14.3789H46.1387V12.6035ZM45.585 12.6035H45.8025V14.3789H45.585V12.6035ZM42.6318 13.3066V13.6055H41.4453V13.3154L42.6318 13.3066ZM45.2224 13.3066V13.6055H44.0359V13.3154L45.2224 13.3066Z" fill="white"/>
<path fill-rule="evenodd" clip-rule="evenodd" d="M44.043 13.3857H44.2605V14.3789H44.043V13.3857Z" fill="white"/>
<path fill-rule="evenodd" clip-rule="evenodd" d="M44.043 13.3857H44.2605V14.3789H44.043V13.3857Z" fill="white"/>
<path fill-rule="evenodd" clip-rule="evenodd" d="M44.0417 13.3857H44.2593V14.3789H44.0417V13.3857ZM41.4512 13.3857H41.6687V14.3789H41.4512V13.3857ZM43.3496 13.3857H43.5737V14.3789H43.3496V13.3857ZM42.407 13.3857H42.6311V14.3789H42.407V13.3857Z" fill="white"/>
<path fill-rule="evenodd" clip-rule="evenodd" d="M43.5012 14.0801V14.3789H42.5059V14.0801H43.5012ZM43.5671 13.3154V13.6055H42.9343V13.3154H43.5671Z" fill="white"/>
<path fill-rule="evenodd" clip-rule="evenodd" d="M1.08984 29.8389H1.48535V30.7617H1.08984V29.8389ZM11.6697 29.8389H12.0652V30.7617H11.6697V29.8389ZM-7.03125 29.8389H-6.63574V30.7617H-7.03125V29.8389ZM-1.65894 29.8389H-1.26343V30.7617H-1.65894V29.8389ZM3.67383 29.8389H4.06934V30.7617H3.67383V29.8389ZM6.31055 29.8389H6.70605V30.7617H6.31055V29.8389ZM9.00659 29.8389H9.4021V30.7617H9.00659V29.8389ZM14.3064 29.8389H14.7019V30.7617H14.3064V29.8389ZM27.6877 29.8389H28.0898V30.7617H27.6943L27.6877 29.8389ZM17.0024 29.8389H17.3979V30.7617H17.0024V29.8389ZM19.6392 29.8389H20.0347V30.7617H19.6392V29.8389ZM22.3088 29.8389H22.7043V30.7617H22.3088V29.8389ZM24.9719 29.8389H25.3674V30.7617H24.9719V29.8389ZM46.2766 29.8389H46.6721V30.7617H46.2766V29.8389ZM30.2783 29.8389H30.6738V30.7617H30.2783V29.8389ZM32.9678 29.8389H33.3633V30.7617H32.9678V29.8389ZM35.6902 29.8389H36.0857V30.7617H35.6902V29.8389ZM38.2478 29.8389H38.6433V30.7617H38.2478V29.8389ZM40.9702 29.8389H41.3657V30.7617H40.9702V29.8389ZM43.6333 29.8389H44.0288V30.7617H43.6333V29.8389ZM51.5237 29.8389H51.9192V30.7617H51.5237V29.8389ZM48.9661 29.8389H49.3616V30.7617H48.9661V29.8389ZM-4.35498 29.8389H-3.95947V30.7617H-4.35498V29.8389Z" fill="#D90000"/>
<path fill-rule="evenodd" clip-rule="evenodd" d="M1.08984 14.291H1.48535V15.2139H1.08984V14.291ZM11.6697 14.291H12.0652V15.2139H11.6697V14.291ZM-7.03125 14.291H-6.63574V15.2139H-7.03125V14.291ZM-1.65894 14.291H-1.26343V15.2139H-1.65894V14.291ZM3.67383 14.291H4.06934V15.2139H3.67383V14.291ZM6.31055 14.291H6.70605V15.2139H6.31055V14.291ZM9.00659 14.291H9.4021V15.2139H9.00659V14.291ZM14.3064 14.291H14.7019V15.2139H14.3064V14.291ZM27.6877 14.291H28.0898V15.2139H27.6943L27.6877 14.291ZM17.0024 14.291H17.3979V15.2139H17.0024V14.291ZM19.6392 14.291H20.0347V15.2139H19.6392V14.291ZM22.3088 14.291H22.7043V15.2139H22.3088V14.291ZM24.9719 14.291H25.3674V15.2139H24.9719V14.291ZM46.2766 14.291H46.6721V15.2139H46.2766V14.291ZM30.2783 14.291H30.6738V15.2139H30.2783V14.291ZM32.9678 14.291H33.3633V15.2139H32.9678V14.291ZM35.6902 14.291H36.0857V15.2139H35.6902V14.291ZM38.2478 14.291H38.6433V15.2139H38.2478V14.291ZM40.9702 14.291H41.3657V15.2139H40.9702V14.291ZM43.6333 14.291H44.0288V15.2139H43.6333V14.291ZM51.5237 14.291H51.9192V15.2139H51.5237V14.291ZM48.9661 14.291H49.3616V15.2139H48.9661V14.291ZM-4.35498 14.291H-3.95947V15.2139H-4.35498V14.291Z" fill="#239E3F"/>
<path fill-rule="evenodd" clip-rule="evenodd" d="M24.0696 17.3584C24.6233 18.2725 26.3438 23.2998 23.0347 26.6045C21.4725 28.1689 22.4414 28.2393 22.4876 28.5029C24.9925 26.7363 25.8033 24.3281 25.7835 22.1748C25.7703 20.0303 24.9134 18.1318 24.0696 17.3584Z" fill="#DA0000"/>
<path fill-rule="evenodd" clip-rule="evenodd" d="M24.3995 17.1211C25.0111 17.6173 25.5323 18.2885 25.9256 19.0862C26.3188 19.8839 26.5741 20.7881 26.6732 21.7335C26.7722 22.6788 26.7125 23.6418 26.4982 24.5526C26.284 25.4634 25.9206 26.2994 25.4344 27C27.2274 26.4727 29.5213 19.4062 24.3995 17.1211ZM20.6026 17.1211C19.9915 17.618 19.4708 18.2898 19.0782 19.0879C18.6857 19.8859 18.431 20.7903 18.3326 21.7356C18.2342 22.6809 18.2945 23.6436 18.5093 24.5541C18.724 25.4645 19.0878 26.2999 19.5743 27C17.7747 26.4727 15.4874 19.4062 20.6026 17.1211Z" fill="#DA0000"/>
<path fill-rule="evenodd" clip-rule="evenodd" d="M20.933 17.3584C20.3793 18.2725 18.6588 23.2998 21.9679 26.6045C23.5235 28.1689 22.5611 28.2393 22.515 28.5029C20.0101 26.7363 19.1993 24.3281 19.2191 22.1748C19.2323 20.0303 20.0892 18.1318 20.933 17.3584Z" fill="#DA0000"/>
<path fill-rule="evenodd" clip-rule="evenodd" d="M25.6782 28.0459C24.696 28.0635 23.4634 27.8701 22.5471 27.2285C22.6987 27.624 22.824 27.8701 22.9756 28.2568C23.8457 28.3711 25.052 28.5029 25.6782 28.0459ZM19.416 28.0459C20.3982 28.0635 21.6309 27.8701 22.5471 27.2285C22.3955 27.624 22.2703 27.8701 22.1187 28.2568C21.2485 28.3711 20.0422 28.5029 19.416 28.0459ZM21.2156 15.8555C21.4133 16.5586 21.9341 16.6641 22.4878 16.251C22.8965 16.5674 23.5227 16.5938 23.7402 15.8906C23.905 17.6309 22.5339 17.209 22.4878 16.875C21.9736 17.5342 21.0244 17.1562 21.2156 15.8555Z" fill="#DA0000"/>
<path fill-rule="evenodd" clip-rule="evenodd" d="M22.5281 29.1445L23.0422 28.3535L23.1147 17.7979L22.5017 17.0771L21.8887 17.7627L22.0139 28.3975L22.5281 29.1445Z" fill="#DA0000"/>
</g>
<defs>
<clipPath id="clip0_45_16597">
<rect width="45" height="45" fill="white"/>
</clipPath>
</defs>
</svg>
