<svg width="45" height="45" viewBox="0 0 45 45" fill="none" xmlns="http://www.w3.org/2000/svg">
<g clip-path="url(#clip0_45_16796)">
<path d="M0 0H45V45H0V0Z" fill="white"/>
<path fill-rule="evenodd" clip-rule="evenodd" d="M-5.625 0V3L19.0125 22.5L-5.5125 42V45H-1.9125L22.6125 25.5L47.025 45H50.625V42L26.2125 22.5L50.7375 3V0H47.025L22.5 19.5L-1.9125 0H-5.5125H-5.625Z" fill="#DF112D"/>
<path d="M25.4226 6.74959C26.2101 10.6496 25.7601 15.4496 22.4976 18.1496C19.2351 15.4496 18.7851 10.6496 19.5726 6.74959C20.3601 5.84959 23.8476 5.24959 25.4226 6.74959Z" fill="#E8112D"/>
<path d="M22.4984 5.99981C23.6234 5.99981 24.5234 6.29981 25.4234 6.89981C25.5854 5.60027 25.9704 4.36822 26.5484 3.29981C25.9859 3.29981 25.7609 3.59981 25.7609 4.04981C25.6484 3.59981 25.0859 3.59981 24.8609 3.89981C25.5359 4.34981 25.0859 5.39981 24.5234 5.24981C24.1859 5.09981 24.0734 4.79981 24.0734 4.49981C24.1569 4.481 24.232 4.42109 24.2839 4.33194C24.3357 4.24278 24.3606 4.13091 24.3535 4.01847C24.3464 3.90603 24.3079 3.80124 24.2456 3.72486C24.1834 3.64849 24.1018 3.6061 24.0172 3.6061C23.9326 3.6061 23.851 3.64849 23.7887 3.72486C23.7264 3.80124 23.6879 3.90603 23.6809 4.01847C23.6738 4.13091 23.6987 4.24278 23.7505 4.33194C23.8024 4.42109 23.8775 4.481 23.9609 4.49981C23.7532 4.78243 23.4702 4.94417 23.1734 4.94981C23.0442 4.86835 22.9341 4.74156 22.8548 4.58301C22.7756 4.42446 22.7301 4.24014 22.7234 4.04981C22.7234 3.29981 23.3984 3.14981 23.5109 3.29981C23.5109 2.84981 22.8359 2.24981 22.7234 2.84981C22.8396 2.55854 22.8805 2.22434 22.8398 1.89894C22.7992 1.57354 22.6792 1.27509 22.4984 1.0498C22.3419 1.26368 22.2369 1.53499 22.1968 1.82896C22.1568 2.12294 22.1834 2.42618 22.2734 2.69981C22.0484 2.24981 21.4859 2.69981 21.4859 3.29981C21.5984 3.14981 22.1609 3.29981 22.1609 4.04981C22.1609 4.34981 22.1609 4.79981 21.8234 4.79981C21.6857 4.87181 21.534 4.88146 21.3917 4.82725C21.2494 4.77304 21.1244 4.65799 21.0359 4.49981L21.2609 4.34981C21.3253 4.30028 21.3756 4.22382 21.404 4.1323C21.4324 4.04078 21.4374 3.93931 21.4182 3.84363C21.399 3.74794 21.3566 3.66339 21.2976 3.60308C21.2387 3.54278 21.1665 3.51009 21.0922 3.51009C21.0179 3.51009 20.9457 3.54278 20.8867 3.60308C20.8278 3.66339 20.7854 3.74794 20.7662 3.84363C20.747 3.93931 20.7519 4.04078 20.7804 4.1323C20.8088 4.22382 20.8591 4.30028 20.9234 4.34981C20.9234 4.79981 20.6984 5.09981 20.4734 5.09981C20.3554 5.09981 20.2403 5.05028 20.1445 4.95824C20.0488 4.8662 19.9771 4.73631 19.9398 4.58698C19.9025 4.43764 19.9013 4.27643 19.9365 4.12618C19.9717 3.97593 20.0415 3.84425 20.1359 3.74981C19.9109 3.44981 19.3484 3.44981 19.2359 4.04981C19.2359 3.59981 19.0109 3.29981 18.3359 3.29981C18.9139 4.36822 19.2989 5.60027 19.4609 6.89981C20.3958 6.24663 21.444 5.93605 22.4984 5.99981Z" fill="#F9DD16"/>
<path d="M25.0875 9.89987H24.8625H25.2C25.3125 9.89987 25.425 9.74987 25.3125 9.59987H25.5375L25.3125 9.29987H25.5375L25.3125 8.99987H25.425C25.4053 8.95426 25.3949 8.90253 25.3949 8.84987C25.3949 8.79721 25.4053 8.74548 25.425 8.69987H24.6375L24.075 8.54987L24.75 8.09987C24.75 7.79987 24.4125 7.34987 23.85 7.64987L22.6125 7.49987L23.4 7.19987L24.3 7.04987H23.5125C23.175 7.04987 22.3875 6.89987 22.3875 7.49987C22.3875 8.09987 23.175 7.94987 23.9625 7.79987L24.6375 7.94987L23.9625 8.24987C23.6294 8.1473 23.2831 8.1473 22.95 8.24987H22.1625C21.9375 8.24987 21.6 8.24987 21.375 7.94987C21.375 7.94987 20.925 8.24987 20.925 8.54987V8.99987C21.15 9.29987 20.925 9.14987 20.7 9.14987L20.1375 8.99987C20.025 8.69987 19.9125 8.54987 19.6875 8.69987V8.99987H19.9125C19.8783 8.97354 19.8395 8.95968 19.8 8.95968C19.7605 8.95968 19.7217 8.97354 19.6875 8.99987V9.29987H20.025H19.8V9.44987H20.25C20.1903 9.44987 20.1331 9.48148 20.0909 9.53774C20.0487 9.594 20.025 9.6703 20.025 9.74987C20.1375 9.59987 20.25 9.74987 20.475 9.74987L20.25 9.89987C20.3625 9.89987 21.0375 10.0499 21.0375 9.74987V9.89987C21.0375 9.89987 21.375 9.89987 21.375 9.59987V9.89987C21.375 9.89987 21.6 9.89987 21.7125 9.59987V9.29987H22.275C22.5 8.99987 22.6125 9.29987 22.725 9.14987H22.95C23.0625 9.14987 23.175 9.14987 23.2875 8.84987C23.5125 8.99987 23.85 9.14987 24.525 8.99987C24.8625 8.99987 25.0875 9.14987 25.0875 9.44987H24.525C24.525 9.44987 24.4125 9.59987 24.525 9.74987C24.6375 9.89987 24.525 9.74987 24.6375 9.74987C24.6375 9.74987 24.525 9.89987 24.6375 10.0499L24.975 9.89987H25.0875ZM20.5875 7.34987V7.49987L20.7 7.79987L20.8125 7.34987H20.5875Z" fill="#F9DD16"/>
<path d="M21.375 7.5001C21.4875 7.3501 21.6 7.3501 21.6 7.5001L21.4875 7.8001L21.375 7.3501V7.5001Z" fill="#F9DD16"/>
<path d="M21.0359 7.19971C21.3734 7.19971 21.4859 7.49971 21.4859 7.79971L21.2609 8.39971L21.0359 8.54971L20.8109 8.39971C20.8109 7.94971 20.5859 8.09971 20.5859 7.79971C20.5859 7.49971 20.5859 7.19971 21.0359 7.19971Z" fill="#F9DD16"/>
<path d="M20.1367 8.39971H19.9117C20.0242 8.39971 20.0242 8.69971 20.3617 8.69971H20.1367C20.2492 8.69971 20.3617 8.99971 20.6992 8.99971C20.6992 8.99971 20.8117 8.99971 20.6992 8.99971C20.6992 9.14971 20.9242 8.99971 21.0367 9.29972C21.0367 9.14971 20.8117 8.84971 21.0367 8.54971C20.5867 8.54971 20.4742 8.24971 20.3617 8.09971C20.1367 7.94971 20.1367 7.64971 20.0242 7.34971C20.0242 7.34971 19.9117 7.04971 19.7992 7.19971V7.49971H19.6867C19.7992 7.49971 19.6867 7.79971 19.9117 7.94971C19.7992 7.79971 19.6867 7.64971 19.5742 7.79971H19.6867L20.1367 8.39971ZM23.0617 9.89971H23.6242L23.8492 9.74971V9.44972C23.7367 9.44972 23.6242 9.29972 23.7367 9.14971C23.3992 8.54971 22.7242 8.84971 22.7242 9.14971L23.1742 9.44972H23.2867H22.4992L22.6117 9.59971L22.3867 9.74971C22.3867 10.0497 22.6117 9.74971 22.6117 9.74971V9.89971C22.6117 9.89971 22.6117 10.0497 22.7242 9.89971C22.797 9.8654 22.8764 9.8654 22.9492 9.89971H23.0617Z" fill="#F9DD16"/>
<path d="M21.0375 8.39961H21.15V8.09961H20.8125V8.24961L21.0375 8.39961Z" fill="#FF0016"/>
<path d="M19.7984 7.19997C19.7984 7.04997 19.5734 7.19997 19.5734 7.19997H19.7984ZM19.7984 7.34997L19.4609 7.49997H19.6859L19.7984 7.34997ZM19.7984 7.79997H19.4609H19.6859H19.7984ZM19.7984 8.84997C19.6859 8.84997 19.5734 8.84997 19.5734 9.14997C19.5734 8.99997 19.6859 9.14997 19.7984 9.14997V8.84997ZM19.7984 9.14997L19.5734 9.44997L19.7984 9.29997V8.99997V9.14997ZM19.7984 9.29997C19.7984 9.29997 19.6859 9.44997 19.7984 9.59997V9.14997V9.29997ZM22.6109 9.74997C22.4984 9.74997 22.3859 9.74997 22.3859 10.05L22.6109 9.89997V9.74997ZM22.7234 9.74997C22.6109 9.74997 22.4984 10.05 22.6109 10.2L22.7234 10.05V9.89997V9.74997ZM22.7234 9.44997C22.4984 9.44997 22.3859 9.44997 22.3859 9.74997L22.6109 9.59997L22.7234 9.44997ZM24.5234 9.74997C24.5234 9.74997 24.2984 9.89997 24.4109 10.05L24.5234 9.89997V9.74997ZM24.5234 9.59997L24.2984 9.74997H24.5234V9.29997V9.59997ZM24.5234 9.89997C24.5234 9.89997 24.4109 10.2 24.5234 10.2H24.6359V9.74997L24.5234 9.89997ZM21.1484 8.39997V8.99997C20.9234 8.99997 20.9234 8.99997 20.9234 8.69997V8.39997H21.0359H21.1484Z" fill="#0051BA"/>
<path d="M24.6352 13.0496H24.8602C24.8602 13.0496 24.9727 13.0496 24.8602 12.8996H25.0852L24.9727 12.5996H25.0852L24.9727 12.2996C24.9529 12.254 24.9425 12.2023 24.9425 12.1496C24.9425 12.0969 24.9529 12.0452 24.9727 11.9996H24.4102L23.8477 11.8496C24.1852 11.9996 24.5227 11.6996 24.5227 11.3996C24.5227 11.0996 24.1852 10.7996 23.7352 11.0996L22.4977 10.9496L23.1727 10.6496H24.0727L23.2852 10.4996C22.9477 10.3496 22.2727 10.4996 22.2727 10.9496C22.2727 11.3996 23.0602 11.3996 23.7352 11.2496H24.2977L23.7352 11.5496C23.439 11.4596 23.1314 11.4596 22.8352 11.5496L22.0477 11.6996C21.9352 11.6996 21.5977 11.6996 21.3727 11.3996L20.9227 11.8496L21.0352 12.4496C21.1477 12.5996 21.0352 12.4496 20.8102 12.4496H20.2477C20.2477 12.1496 20.0227 11.9996 19.9102 12.1496V12.2996H20.1352C20.101 12.2733 20.0622 12.2594 20.0227 12.2594C19.9832 12.2594 19.9444 12.2733 19.9102 12.2996V12.5996H20.1352H20.0227C20.2477 12.5996 20.2477 12.8996 20.3602 12.7496C20.3233 12.7369 20.2846 12.7369 20.2477 12.7496C20.2477 12.7496 20.4727 13.0496 20.5852 12.8996L20.4727 13.1996C20.4727 13.0496 21.1477 13.1996 21.1477 12.8996V13.1996C21.1477 13.1996 21.3727 13.1996 21.4852 12.8996H21.7102V12.5996H21.9352L22.2727 12.4496H22.8352C22.9477 12.4496 23.0602 12.4496 23.1727 12.1496C23.3977 12.2996 23.6227 12.4496 24.2977 12.2996C24.5227 12.2996 24.6352 12.2996 24.6352 12.5996V12.7496H24.1852V13.0496C24.1852 13.1996 24.2977 13.0496 24.4102 13.0496C24.2977 13.0496 24.1852 13.0496 24.2977 13.1996H24.4102L24.6352 13.0496ZM20.8102 10.7996H20.5852L20.6977 11.2496L20.8102 10.7996Z" fill="#F9DD16"/>
<path d="M21.3711 10.7998H21.5961L21.4836 11.2498L21.3711 10.7998Z" fill="#F9DD16"/>
<path d="M21.1453 10.6494C21.4828 10.6494 21.4828 10.9494 21.4828 11.2494C21.4828 11.5494 21.3703 11.2494 21.2578 11.6994L21.0328 11.8494H20.9203C20.9203 11.3994 20.6953 11.3994 20.6953 11.2494C20.6953 11.0994 20.6953 10.6494 21.1453 10.6494Z" fill="#F9DD16"/>
<path d="M20.2469 11.6994H20.1344C20.1344 11.6994 20.1344 11.9994 20.4719 11.9994H20.2469L20.6969 12.2994C20.6969 12.2994 20.9219 12.2994 20.6969 12.2994L21.1469 12.5994C21.1469 12.2994 20.9219 12.1494 21.0344 11.8494C20.6969 11.8494 20.5844 11.5494 20.4719 11.3994C20.2469 11.3994 20.2469 11.0994 20.2469 10.7994L20.0219 10.6494C19.9094 10.6494 20.0219 10.6494 20.0219 10.6494V10.9494H19.9094L20.0219 11.2494H19.7969C20.0219 11.2494 20.1344 11.6994 20.2469 11.6994ZM22.9469 13.0494H22.8344H23.7344V12.7494C23.6219 12.7494 23.5094 12.5994 23.6219 12.2994C23.2844 11.8494 22.7219 12.1494 22.7219 12.2994L23.1719 12.5994C23.1719 12.5994 23.3969 12.5994 23.1719 12.7494H22.9469C22.7219 12.7494 22.6094 12.5994 22.4969 12.7494V13.0494H22.6094C22.6094 13.0494 22.6094 13.1994 22.7219 13.0494C22.7947 13.0151 22.8741 13.0151 22.9469 13.0494Z" fill="#F9DD16"/>
<path d="M21.1469 11.8499V11.6999C21.1469 11.6999 21.2594 11.5499 21.1469 11.3999C21.1469 11.5499 21.2594 11.5499 21.1469 11.3999C21.1469 11.5499 20.9219 11.5499 20.9219 11.3999V11.6999H21.1469V11.8499Z" fill="#FF0016"/>
<path d="M21.0375 11.5499L20.8125 11.3999L21.0375 11.5499ZM21.0375 11.3999H20.8125H21.0375ZM21.0375 11.3999L20.8125 11.5499L21.0375 11.3999ZM21.15 11.5499L21.375 11.3999L21.15 11.5499ZM21.15 11.3999H21.375H21.15ZM21.15 11.3999L21.375 11.5499L21.15 11.3999Z" fill="black"/>
<path d="M20.025 10.5L19.8 10.65H20.025V10.5ZM20.025 10.8L19.6875 10.95H19.9125L20.025 10.8ZM19.9125 11.25C19.9125 11.1 19.6875 11.25 19.6875 11.25H19.9125ZM19.9125 12.15L19.6875 12.3H20.025L19.9125 12.15ZM19.9125 12.45C19.9125 12.45 19.6875 12.45 19.9125 12.75V12.45ZM20.1375 12.45L19.9125 12.9L20.1375 12.75V12.6V12.45ZM22.3875 12.9C22.3875 12.9 22.275 12.9 22.3875 13.2L22.5 13.05V12.9H22.3875ZM22.6125 13.05C22.6125 13.05 22.3875 13.2 22.5 13.35L22.6125 13.2V13.05ZM22.6125 12.6C22.5 12.6 22.275 12.75 22.3875 12.9H22.5V12.75L22.6125 12.6ZM24.1875 13.05C24.1875 13.05 24.075 13.05 24.1875 13.2V12.9V13.05ZM24.1875 12.75L24.075 12.9H24.3V12.75H24.1875ZM24.3 13.2C24.3 13.2 24.1875 13.2 24.3 13.35V13.2ZM21.15 11.7V12.3V12C21.15 11.85 21.15 11.7 21.0375 11.85V11.7H21.15Z" fill="#0051BA"/>
<path d="M24.6347 15.6448C24.5717 15.6448 24.5717 15.7573 24.5559 15.7573C24.6819 15.7573 24.7449 15.6898 24.7764 15.5998V15.7348C24.8709 15.6898 24.9024 15.5773 24.8709 15.5098L24.9812 15.5548C24.9182 15.4873 24.9654 15.3298 24.8552 15.2398C24.8867 15.2398 24.9497 15.2848 24.9812 15.3523C24.9654 15.1948 24.9497 15.1048 24.8552 15.0148H24.9339C24.9134 14.9952 24.8967 14.9683 24.8857 14.9368C24.8746 14.9052 24.8695 14.87 24.8709 14.8348C24.8709 14.7448 24.8394 14.7448 24.7764 14.7673L24.4929 14.7898C24.3354 14.7898 24.1779 14.7898 24.0519 14.6548C24.2567 14.7898 24.5244 14.5198 24.5244 14.3173C24.5244 14.0923 24.3039 13.8673 23.8944 14.0023C23.4849 14.1373 22.9809 14.0923 22.9809 13.8898C22.9809 13.6873 23.3432 13.6648 23.5322 13.7098C23.7212 13.7548 23.8472 13.7773 24.1937 13.5973C24.1149 13.6423 23.8314 13.6648 23.6109 13.5748C23.3904 13.4848 22.8549 13.4848 22.8549 13.8898C22.8549 14.3173 23.4219 14.2723 23.9259 14.1598C24.2094 14.1148 24.3669 14.1598 24.3669 14.2723C24.3669 14.4073 24.0992 14.4523 23.8944 14.4298C23.6782 14.3882 23.4583 14.4112 23.2487 14.4973C23.0439 14.5873 22.9022 14.4973 22.6817 14.5648C22.5714 14.5648 22.3037 14.5648 22.1777 14.2498C22.0989 14.3398 21.8627 14.4973 21.8154 14.6773C21.7682 14.8123 21.8154 14.9698 21.8784 15.1273C21.9729 15.3073 21.8312 15.2848 21.7209 15.2848C21.5949 15.2848 21.4059 15.2848 21.3114 15.1048C21.2169 14.9698 21.1067 14.8573 21.0122 14.9473C20.9649 15.0148 21.0122 15.0823 21.0437 15.0598L21.1697 15.1048C21.1444 15.0884 21.1165 15.0818 21.0888 15.0857C21.0611 15.0897 21.0347 15.104 21.0122 15.1273C20.9649 15.1723 21.0122 15.2623 21.0594 15.2398C21.0909 15.2173 21.1697 15.1948 21.2169 15.2398C21.1697 15.2398 21.1067 15.2398 21.0909 15.2848C21.0752 15.3298 21.0909 15.3748 21.1382 15.3748C21.2327 15.3748 21.2484 15.4648 21.3429 15.4423C21.3209 15.444 21.2995 15.4531 21.2804 15.4687C21.2612 15.4843 21.2449 15.5061 21.2327 15.5323C21.3272 15.4648 21.4059 15.6223 21.5162 15.5773C21.4847 15.5998 21.4059 15.6673 21.4059 15.7123C21.4689 15.5998 21.9099 15.8023 21.9099 15.5548L21.8942 15.7348C21.9414 15.6898 22.1147 15.6673 22.1777 15.5098C22.1777 15.5548 22.1777 15.6223 22.1462 15.6448C22.1934 15.6448 22.2722 15.5998 22.3509 15.4423C22.3824 15.3748 22.3824 15.3298 22.3824 15.2848C22.4612 15.2848 22.5084 15.2623 22.5714 15.1948C22.6344 15.1273 22.6974 15.2623 22.8077 15.1498C22.9022 15.0598 22.9967 15.1498 23.0597 15.1048C23.1069 15.0598 23.1857 15.1048 23.2487 15.0598C23.3117 15.0148 23.4062 15.0823 23.5007 14.9698C23.6582 15.0598 23.8629 15.1948 24.3197 15.0823C24.5717 15.0148 24.6662 15.1498 24.6662 15.3073C24.6662 15.4423 24.6032 15.4423 24.5717 15.4423C24.4142 15.4648 24.3669 15.3748 24.3039 15.3973C24.2724 15.4198 24.2409 15.5098 24.3039 15.5548C24.2567 15.5773 24.2567 15.6448 24.2882 15.6673C24.3197 15.6898 24.3669 15.6673 24.4142 15.6448C24.3512 15.6673 24.3039 15.7348 24.3354 15.8023C24.3512 15.8473 24.3984 15.8698 24.4457 15.8023C24.4929 15.7123 24.5717 15.6448 24.6347 15.6448ZM21.7052 13.8448C21.5792 13.7773 21.5477 13.7773 21.5634 13.9348C21.5634 14.0023 21.6107 14.0923 21.6422 14.1373C21.6422 14.0698 21.6579 13.9123 21.7052 13.8673V13.8448Z" fill="#F9DD16"/>
<path fill-rule="evenodd" clip-rule="evenodd" d="M23.1472 13.5361C23.3099 13.4964 23.5002 13.519 23.6117 13.5645C23.721 13.6091 23.8461 13.6259 23.9539 13.6259C24.0077 13.6259 24.0571 13.6217 24.0978 13.6148C24.1332 13.6087 24.1616 13.6006 24.1807 13.5917C24.1835 13.5902 24.1863 13.5888 24.1891 13.5873L24.1953 13.6074C24.1925 13.609 24.1896 13.6105 24.1864 13.612C24.0174 13.6991 23.9008 13.7377 23.803 13.7489C23.7034 13.7603 23.6237 13.7431 23.5291 13.7206C23.4355 13.6983 23.2986 13.6927 23.1854 13.7178C23.1288 13.7304 23.0787 13.7505 23.0431 13.7793C23.0076 13.8081 22.9875 13.8445 22.9875 13.8899C22.9875 13.9335 23.0146 13.9717 23.0677 14.0019C23.1202 14.0319 23.195 14.0521 23.2832 14.0619C23.4595 14.0815 23.6869 14.0591 23.8909 13.9919C24.0969 13.924 24.2564 13.9462 24.3649 14.0151C24.4734 14.084 24.531 14.1998 24.531 14.3174C24.531 14.3711 24.5133 14.4282 24.4844 14.481C24.4554 14.5339 24.4147 14.5834 24.3676 14.622C24.2911 14.6848 24.1965 14.7198 24.107 14.6931C24.2205 14.7787 24.3544 14.7791 24.4911 14.7791L24.7735 14.7566C24.789 14.7511 24.803 14.7468 24.8153 14.745C24.8276 14.7432 24.839 14.7437 24.8487 14.7489C24.8696 14.7601 24.8775 14.7893 24.8775 14.8349V14.8355C24.8761 14.869 24.881 14.9024 24.8914 14.9323C24.9019 14.9622 24.9177 14.9876 24.9371 15.0061L24.9578 15.0258H24.8778C24.9145 15.0655 24.9378 15.1064 24.9536 15.154C24.9718 15.209 24.9798 15.2723 24.9876 15.351L24.9726 15.3582C24.9577 15.3261 24.9351 15.2991 24.9122 15.2801C24.9048 15.2739 24.8975 15.2686 24.8905 15.2644C24.9227 15.3066 24.9344 15.3567 24.9422 15.4035C24.9438 15.4128 24.9452 15.4219 24.9465 15.4307C24.9496 15.4506 24.9524 15.4692 24.9566 15.4866C24.9625 15.5111 24.9706 15.5314 24.9847 15.5465L24.9772 15.5653L24.8845 15.5275C24.9038 15.6025 24.8653 15.7034 24.7776 15.7452L24.7667 15.7503V15.6418C24.7513 15.673 24.731 15.7005 24.7042 15.7218C24.6672 15.7511 24.6184 15.7683 24.5543 15.7683V15.7466C24.5532 15.7466 24.5526 15.7471 24.5524 15.7473C24.5525 15.7472 24.5527 15.7469 24.553 15.7463C24.554 15.7443 24.5553 15.741 24.5569 15.7358C24.5578 15.7327 24.5588 15.7291 24.5599 15.7251C24.5623 15.7166 24.5652 15.7063 24.5686 15.6966C24.5717 15.6877 24.5755 15.6786 24.5802 15.6701C24.5659 15.6773 24.5513 15.6871 24.537 15.6991C24.5044 15.7265 24.4737 15.7649 24.4507 15.8087L24.4504 15.8093L24.45 15.8098C24.4252 15.8453 24.3992 15.8587 24.3763 15.8554C24.3536 15.8522 24.3357 15.8329 24.3266 15.8076C24.3181 15.7891 24.3147 15.7701 24.3159 15.7516C24.317 15.733 24.3226 15.7157 24.3312 15.7003C24.3343 15.6948 24.3377 15.6896 24.3415 15.6846C24.3205 15.6895 24.2999 15.6893 24.2827 15.677C24.2638 15.6635 24.2545 15.6365 24.2568 15.6099C24.2587 15.5882 24.2682 15.5673 24.2855 15.5535C24.2755 15.5434 24.2685 15.5318 24.264 15.5192C24.2577 15.5017 24.2566 15.4832 24.2588 15.4659C24.2632 15.4319 24.2803 15.4008 24.2985 15.3878L24.2993 15.3872L24.3002 15.3869C24.3177 15.3807 24.3339 15.3824 24.3504 15.3875C24.3618 15.3911 24.3739 15.3965 24.3867 15.4023C24.3921 15.4047 24.3976 15.4072 24.4033 15.4096C24.4419 15.4261 24.4919 15.4427 24.5692 15.4316L24.5701 15.4315C24.5861 15.4315 24.6073 15.4313 24.6247 15.4164C24.6413 15.4022 24.6564 15.3726 24.6564 15.3074C24.6564 15.2317 24.6338 15.1625 24.5816 15.1198C24.5289 15.0768 24.4447 15.0596 24.3197 15.0931L24.3196 15.0931C24.0904 15.1496 23.924 15.144 23.7949 15.1128C23.6771 15.0843 23.5906 15.0345 23.5166 14.9918C23.5112 14.9887 23.5059 14.9856 23.5006 14.9826C23.4527 15.0372 23.4048 15.0483 23.3617 15.0511C23.3516 15.0517 23.3418 15.0519 23.3324 15.0521L23.3297 15.0522C23.3194 15.0524 23.3096 15.0527 23.3003 15.0535C23.2816 15.0553 23.2652 15.0593 23.2509 15.0695C23.2176 15.0933 23.1804 15.0933 23.1475 15.0933H23.1467C23.1124 15.0933 23.0839 15.0937 23.0628 15.1138L23.0624 15.1142L23.0619 15.1145C23.0444 15.127 23.025 15.1299 23.0052 15.1291C22.9918 15.1287 22.9775 15.1265 22.963 15.1243C22.9564 15.1232 22.9497 15.1222 22.9431 15.1214C22.9004 15.1158 22.8557 15.1161 22.8109 15.1587C22.7824 15.1877 22.7565 15.2012 22.7326 15.2057C22.7088 15.2102 22.6875 15.2056 22.6684 15.1999C22.6632 15.1983 22.6582 15.1967 22.6534 15.1951C22.6403 15.1908 22.6287 15.1871 22.6173 15.1861C22.6024 15.1848 22.5888 15.1885 22.5749 15.2034C22.543 15.2376 22.5146 15.2609 22.484 15.2755C22.4554 15.2891 22.4252 15.295 22.389 15.2957C22.3889 15.3149 22.3883 15.3351 22.3849 15.3574C22.3807 15.3841 22.3724 15.4134 22.3562 15.4482L22.3561 15.4485C22.2765 15.6077 22.1955 15.6558 22.1446 15.6558L22.1407 15.6353C22.1533 15.6264 22.1604 15.6079 22.1642 15.5837C22.1659 15.5723 22.1669 15.5603 22.1674 15.5484C22.1328 15.6103 22.0807 15.648 22.0315 15.6747C22.0084 15.6872 21.9856 15.6974 21.9653 15.7066C21.9602 15.7089 21.9553 15.7111 21.9506 15.7132C21.9264 15.7242 21.908 15.7336 21.8973 15.7438L21.8823 15.758L21.8927 15.6391C21.8795 15.6574 21.8615 15.6699 21.8409 15.6785C21.797 15.6967 21.7387 15.698 21.6797 15.6952C21.6574 15.6941 21.6352 15.6925 21.6134 15.6909C21.5766 15.6882 21.5411 15.6856 21.5097 15.686C21.4848 15.6864 21.4632 15.6886 21.4459 15.6941C21.4286 15.6996 21.417 15.7079 21.4109 15.7189L21.3962 15.7451V15.7124C21.3962 15.6973 21.4026 15.6822 21.4108 15.6687C21.4192 15.6548 21.4305 15.6409 21.4425 15.628C21.4531 15.6167 21.4644 15.606 21.4751 15.5965C21.436 15.597 21.4009 15.5773 21.3685 15.5592C21.3669 15.5583 21.3653 15.5574 21.3638 15.5565C21.3181 15.531 21.2783 15.511 21.2349 15.542L21.2081 15.5612L21.2241 15.5267C21.237 15.4991 21.2542 15.4761 21.2745 15.4595C21.2774 15.4571 21.2804 15.4549 21.2835 15.4528C21.2826 15.4525 21.2817 15.4522 21.2808 15.4519C21.2635 15.4463 21.249 15.4366 21.2351 15.4267C21.2331 15.4253 21.2312 15.4239 21.2293 15.4225C21.2036 15.404 21.1783 15.3858 21.1366 15.3858C21.111 15.3858 21.0922 15.3735 21.0824 15.3525C21.0727 15.3318 21.0732 15.3052 21.0819 15.2803C21.0916 15.2526 21.1151 15.2406 21.1391 15.2348C21.1515 15.2319 21.1648 15.2305 21.1781 15.2297C21.1632 15.225 21.1471 15.2239 21.1312 15.2255C21.1027 15.2282 21.0763 15.2391 21.0617 15.2495L21.0611 15.2499L21.0606 15.2502C21.0324 15.2636 21.0051 15.2432 20.9918 15.2147C20.9851 15.2003 20.9815 15.183 20.9833 15.1657C20.9851 15.1481 20.9923 15.1316 21.0057 15.1187C21.0238 15.1 21.0444 15.0868 21.0661 15.0798L21.0429 15.0715C21.0228 15.0828 21.0005 15.0674 20.9897 15.0429C20.9779 15.0157 20.9789 14.9768 21.0046 14.94L21.0052 14.9392L21.0058 14.9386C21.0563 14.8905 21.1109 14.8972 21.1638 14.9321C21.2164 14.9667 21.2684 15.0298 21.3158 15.0975L21.3162 15.0981L21.3165 15.0987C21.3622 15.1857 21.4309 15.2297 21.5046 15.2518C21.5783 15.274 21.6562 15.2741 21.7193 15.2741C21.7306 15.2741 21.742 15.2743 21.7533 15.2745C21.7703 15.2748 21.7872 15.2752 21.8036 15.2748C21.8308 15.2741 21.8548 15.2712 21.8722 15.2634C21.8895 15.2556 21.8982 15.244 21.8995 15.2269C21.9009 15.2078 21.8936 15.1783 21.8701 15.1337L21.8696 15.1326C21.838 15.0536 21.8101 14.9739 21.7961 14.8965C21.782 14.8193 21.7818 14.7436 21.8063 14.6733C21.8187 14.6264 21.8431 14.5817 21.8734 14.5398C21.9039 14.4977 21.9407 14.4579 21.9783 14.4212C22.012 14.3882 22.0465 14.3575 22.0778 14.3298C22.0813 14.3266 22.0849 14.3234 22.0884 14.3203C22.1224 14.29 22.1515 14.2637 22.1708 14.2417L22.1785 14.2329L22.1833 14.2448C22.3064 14.5526 22.5677 14.554 22.6791 14.5541C22.783 14.5224 22.8696 14.5254 22.9525 14.5282C22.9582 14.5284 22.964 14.5286 22.9697 14.5287C23.0581 14.5316 23.1436 14.5315 23.2445 14.4871L23.2447 14.487C23.4554 14.4005 23.6764 14.3773 23.8937 14.4191C23.9955 14.4303 24.1127 14.4246 24.2042 14.3996C24.2501 14.387 24.2889 14.3698 24.3161 14.3479C24.3433 14.3259 24.3572 14.3006 24.3572 14.2724C24.3572 14.2483 24.3489 14.2274 24.3314 14.2097C24.3136 14.1918 24.2864 14.1775 24.2496 14.1678C24.176 14.1484 24.0668 14.1483 23.9255 14.1707C23.6734 14.2269 23.4048 14.2665 23.199 14.2382C23.0961 14.2241 23.0079 14.1929 22.9453 14.1373C22.8821 14.0813 22.8452 14.0007 22.8452 13.8899C22.8452 13.7849 22.88 13.706 22.9354 13.6486C22.9905 13.5916 23.0658 13.556 23.1472 13.5361ZM21.1115 15.096L21.166 15.1154L21.1716 15.0952C21.1535 15.0833 21.134 15.0763 21.1142 15.0744L21.0411 15.0483L21.0382 15.0503C21.0276 15.058 21.0122 15.0511 21.0038 15.0319C20.9961 15.0143 20.995 14.9861 21.016 14.9556C21.0598 14.9144 21.1074 14.9191 21.1566 14.9515C21.2063 14.9843 21.2565 15.0447 21.3035 15.1118C21.3523 15.2044 21.4252 15.2502 21.501 15.273C21.5767 15.2958 21.6562 15.2958 21.719 15.2958H21.7193C21.73 15.2958 21.7412 15.296 21.7525 15.2962C21.7698 15.2966 21.7874 15.2969 21.8039 15.2965C21.8313 15.2958 21.8575 15.293 21.8775 15.284C21.8977 15.2749 21.9135 15.2583 21.9157 15.229C21.9177 15.2018 21.9074 15.1668 21.8838 15.1217C21.8525 15.0434 21.8254 14.9658 21.8119 14.8914C21.7984 14.817 21.7986 14.7466 21.8212 14.682L21.8215 14.681C21.8328 14.6381 21.8555 14.5958 21.8851 14.5549C21.9147 14.514 21.9507 14.4751 21.988 14.4387C22.0214 14.406 22.0556 14.3756 22.0868 14.3478C22.0904 14.3447 22.0939 14.3415 22.0974 14.3384C22.1272 14.3119 22.1539 14.2878 22.1737 14.2667C22.3038 14.5758 22.5707 14.5758 22.6794 14.5758H22.681L22.6819 14.5755C22.784 14.5442 22.869 14.5471 22.9523 14.5499C22.958 14.5501 22.9636 14.5503 22.9693 14.5505C23.058 14.5533 23.1458 14.5534 23.2495 14.5078C23.458 14.4221 23.6767 14.3993 23.8917 14.4407L23.8922 14.4408C23.9951 14.4521 24.114 14.4464 24.2075 14.4209C24.2542 14.4081 24.2951 14.3902 24.3245 14.3664C24.3539 14.3427 24.3735 14.3117 24.3735 14.2724C24.3735 14.2403 24.3621 14.2134 24.3412 14.1924C24.3206 14.1716 24.2907 14.1564 24.2527 14.1464C24.1767 14.1264 24.0654 14.1266 23.9234 14.1491L23.923 14.1492C23.6711 14.2054 23.4042 14.2446 23.2007 14.2166C23.0988 14.2026 23.0137 14.1719 22.9543 14.1192C22.8954 14.067 22.8615 13.9929 22.8615 13.8899C22.8615 13.7924 22.8935 13.7195 22.9454 13.6658C22.9976 13.6117 23.07 13.577 23.1501 13.5575C23.3102 13.5184 23.4979 13.5408 23.6069 13.5853C23.7182 13.6307 23.845 13.6477 23.9539 13.6477C24.0015 13.6477 24.0459 13.6444 24.084 13.6388C23.9662 13.6927 23.8778 13.7185 23.8016 13.7272C23.7043 13.7383 23.6264 13.7217 23.532 13.6992C23.4367 13.6765 23.2979 13.6709 23.1827 13.6964C23.1252 13.7091 23.0728 13.7298 23.0346 13.7608C22.9963 13.7918 22.9712 13.8341 22.9712 13.8899C22.9712 13.9476 23.007 13.991 23.0613 14.0219C23.1161 14.0532 23.1928 14.0737 23.2818 14.0836C23.4599 14.1034 23.6892 14.0807 23.8948 14.013C24.0983 13.9459 24.2537 13.9686 24.3579 14.0347C24.462 14.1009 24.5147 14.21 24.5147 14.3174C24.5147 14.365 24.4989 14.4176 24.4712 14.4682C24.4436 14.5186 24.4045 14.5662 24.3591 14.6035C24.268 14.6783 24.1529 14.7104 24.0539 14.6452L24.0452 14.6634C24.1735 14.8008 24.3335 14.8008 24.49 14.8008H24.4913L24.7761 14.7782L24.7769 14.7779C24.7926 14.7723 24.8059 14.7683 24.8171 14.7666C24.8283 14.7649 24.8366 14.7658 24.8427 14.7691C24.8533 14.7748 24.8611 14.7905 24.8612 14.8347C24.8597 14.8715 24.8651 14.9084 24.8767 14.9415C24.8849 14.9651 24.8962 14.9863 24.9099 15.0041H24.8281L24.8488 15.0238C24.8951 15.0678 24.9216 15.1114 24.9386 15.1628C24.9527 15.2052 24.9605 15.2534 24.9672 15.3128C24.9532 15.2924 24.937 15.2751 24.9209 15.2616C24.8967 15.2415 24.8716 15.2291 24.8536 15.2291H24.8246L24.8493 15.2492C24.9016 15.2919 24.9167 15.3502 24.9263 15.4082C24.9277 15.4166 24.929 15.4252 24.9303 15.4337C24.9335 15.4542 24.9366 15.4746 24.941 15.4932C24.9444 15.5073 24.9487 15.5209 24.9545 15.5333L24.8509 15.491L24.8624 15.5157C24.8889 15.5725 24.8659 15.6724 24.783 15.719V15.5999L24.7674 15.5953C24.7523 15.6387 24.7297 15.6762 24.6958 15.7031C24.6651 15.7275 24.6247 15.7434 24.5713 15.7461C24.5715 15.7454 24.5717 15.7447 24.572 15.7439C24.5732 15.7399 24.5744 15.7357 24.5756 15.7314C24.5778 15.7234 24.5802 15.7148 24.5834 15.7058C24.5928 15.6789 24.6064 15.6558 24.6331 15.6558V15.6341C24.5995 15.6341 24.5626 15.6519 24.5283 15.6807C24.4941 15.7095 24.462 15.7496 24.4377 15.7955C24.4155 15.8271 24.3944 15.8361 24.378 15.8338C24.3614 15.8314 24.348 15.8172 24.3412 15.7978L24.3407 15.7967C24.3337 15.7816 24.3313 15.767 24.3321 15.7534C24.3329 15.7396 24.3371 15.7261 24.3443 15.7133C24.3547 15.6947 24.3712 15.6783 24.391 15.6666C24.399 15.6629 24.407 15.6591 24.4149 15.6553L24.4153 15.6552L24.4105 15.6344C24.4017 15.6376 24.3932 15.6415 24.3851 15.6463C24.3701 15.653 24.3557 15.6589 24.3421 15.6624C24.3211 15.6678 24.3037 15.6673 24.2904 15.6578C24.2778 15.6488 24.2714 15.6308 24.273 15.6124C24.2746 15.5944 24.2841 15.5752 24.3051 15.5652L24.3224 15.5569L24.3062 15.5453C24.2917 15.535 24.2832 15.5225 24.2787 15.5098C24.2741 15.497 24.2732 15.4832 24.2749 15.4696C24.2784 15.4422 24.2923 15.4175 24.3054 15.4076C24.3191 15.403 24.3321 15.4041 24.3467 15.4087C24.3573 15.412 24.3683 15.4169 24.3807 15.4225C24.3862 15.425 24.392 15.4276 24.3983 15.4303C24.4383 15.4474 24.4905 15.4646 24.5705 15.4533H24.5707C24.5862 15.4533 24.6118 15.4533 24.6335 15.4347C24.6563 15.4152 24.6727 15.3773 24.6727 15.3074C24.6727 15.2256 24.6481 15.1486 24.5901 15.1013C24.5325 15.0543 24.4435 15.0378 24.3165 15.0718C24.089 15.1278 23.9246 15.1221 23.7978 15.0914C23.6819 15.0634 23.597 15.0145 23.523 14.9718C23.516 14.9678 23.5091 14.9638 23.5023 14.9599L23.4975 14.9572L23.4936 14.9618C23.4483 15.0158 23.4032 15.0266 23.3609 15.0294C23.3511 15.03 23.3416 15.0302 23.3321 15.0304L23.3294 15.0305C23.3192 15.0307 23.309 15.031 23.2992 15.0319C23.2795 15.0337 23.2605 15.038 23.2432 15.0503C23.2138 15.0713 23.1805 15.0716 23.1467 15.0716L23.1452 15.0716C23.1131 15.0715 23.0795 15.0715 23.0538 15.0956C23.0399 15.1054 23.024 15.1081 23.0056 15.1074C22.993 15.107 22.9798 15.1049 22.9658 15.1028C22.959 15.1018 22.952 15.1007 22.9447 15.0997C22.9008 15.094 22.851 15.0938 22.8013 15.1411L22.8011 15.1413C22.7745 15.1684 22.7512 15.1802 22.7304 15.1842C22.7094 15.1881 22.6904 15.1842 22.672 15.1787C22.6675 15.1773 22.663 15.1759 22.6585 15.1744C22.645 15.17 22.6313 15.1655 22.6183 15.1644C22.6002 15.1628 22.5823 15.1676 22.5647 15.1865C22.5336 15.2197 22.5069 15.2415 22.4785 15.255C22.4501 15.2685 22.4196 15.2741 22.3808 15.2741H22.3727V15.2849C22.3727 15.3075 22.3726 15.3289 22.3689 15.353C22.3652 15.3769 22.3577 15.4038 22.3425 15.4365C22.277 15.5674 22.2125 15.6178 22.1678 15.6306C22.174 15.6179 22.1778 15.603 22.1801 15.5881C22.1842 15.5617 22.1842 15.5326 22.1842 15.5104V15.5099L22.1689 15.5048C22.1388 15.5801 22.082 15.6239 22.0253 15.6545C22.0028 15.6668 21.9806 15.6768 21.9603 15.6859C21.9552 15.6882 21.9502 15.6904 21.9453 15.6926C21.9293 15.7 21.9145 15.7071 21.9025 15.7148L21.9136 15.5885C21.9155 15.5782 21.9165 15.567 21.9165 15.5549L21.9002 15.5537L21.8975 15.5846C21.8947 15.599 21.8898 15.6109 21.8831 15.6209C21.8723 15.6373 21.8563 15.6493 21.836 15.6577C21.7952 15.6747 21.7393 15.6763 21.6802 15.6734C21.6588 15.6724 21.6368 15.6708 21.6151 15.6692C21.5779 15.6665 21.5414 15.6638 21.5096 15.6643C21.4842 15.6646 21.4611 15.6669 21.4422 15.6729C21.4361 15.6749 21.4302 15.6772 21.4248 15.6801C21.4321 15.6686 21.4419 15.6566 21.4527 15.645C21.4759 15.6202 21.503 15.598 21.5184 15.587L21.5122 15.567C21.4616 15.5877 21.418 15.5633 21.3734 15.5383C21.3723 15.5377 21.3712 15.5371 21.3701 15.5365C21.3334 15.516 21.2955 15.4956 21.255 15.5086C21.2633 15.4967 21.2727 15.4864 21.283 15.4781C21.2959 15.4675 21.3099 15.4602 21.3244 15.4563C21.3302 15.4557 21.3363 15.4547 21.3428 15.4531L21.3408 15.4316C21.3346 15.4321 21.3284 15.4331 21.3222 15.4347C21.3078 15.4361 21.2956 15.4343 21.2847 15.4308C21.2695 15.4259 21.2565 15.4173 21.2428 15.4075C21.2408 15.4061 21.2388 15.4047 21.2368 15.4033C21.2111 15.3846 21.1826 15.3641 21.1366 15.3641C21.1149 15.3641 21.1022 15.3538 21.0962 15.3411C21.0902 15.3281 21.0897 15.3096 21.0967 15.2895C21.1027 15.2723 21.1187 15.2618 21.1419 15.2562C21.1647 15.2508 21.1915 15.2508 21.2153 15.2508H21.2408L21.2201 15.2311C21.1942 15.2065 21.1605 15.2009 21.1301 15.2038C21.0999 15.2066 21.0715 15.218 21.0545 15.2299C21.0356 15.2385 21.0159 15.2252 21.0057 15.2032C21.0006 15.1924 20.9983 15.1801 20.9995 15.1686C21.0006 15.1574 21.0052 15.1459 21.0153 15.1363L21.0156 15.136C21.0369 15.1139 21.0619 15.1004 21.0881 15.0967C21.0959 15.0955 21.1037 15.0953 21.1115 15.096ZM24.5523 15.7474C24.5523 15.7474 24.5524 15.7473 24.5524 15.7473L24.5523 15.7474ZM21.6281 13.7978C21.6491 13.8051 21.6751 13.818 21.7066 13.8348L21.7117 13.8376V13.873L21.7083 13.8763C21.698 13.886 21.6889 13.9025 21.6811 13.9239C21.6733 13.9451 21.6671 13.9703 21.6623 13.9966C21.6526 14.0491 21.6487 14.1045 21.6487 14.1374V14.165L21.6346 14.1448C21.6185 14.1218 21.5984 14.0874 21.5823 14.05C21.5665 14.0132 21.5538 13.9721 21.5537 13.9357C21.5498 13.8965 21.5487 13.8658 21.5516 13.8431C21.5546 13.8198 21.5621 13.8029 21.5766 13.7954C21.59 13.7885 21.6074 13.7907 21.6281 13.7978ZM21.5676 13.8468C21.5652 13.8661 21.566 13.8943 21.5699 13.9335L21.57 13.9342V13.9349C21.57 13.9658 21.5809 14.0031 21.5965 14.0392C21.6076 14.0651 21.6208 14.0896 21.6331 14.1095C21.6346 14.0761 21.6388 14.0329 21.6464 13.9914C21.6514 13.9642 21.658 13.9374 21.6665 13.9143C21.6742 13.8934 21.6836 13.8748 21.6954 13.8621V13.8523C21.6663 13.8368 21.6428 13.8253 21.624 13.8189C21.6038 13.8119 21.5908 13.8114 21.5825 13.8157C21.5753 13.8194 21.5701 13.8278 21.5676 13.8468Z" fill="black"/>
<path d="M22.1289 13.8675C22.2549 13.7775 22.3022 13.7775 22.2707 13.935C22.2707 14.0025 22.2234 14.0925 22.1919 14.1375C22.1919 14.07 22.1919 13.9125 22.1289 13.8675Z" fill="#F9DD16"/>
<path fill-rule="evenodd" clip-rule="evenodd" d="M22.1446 13.8686C22.1713 13.8966 22.1847 13.9447 22.1917 13.992C22.1978 14.0332 22.1993 14.0758 22.1996 14.1087C22.2117 14.089 22.2247 14.0649 22.2357 14.0393C22.2512 14.0033 22.2622 13.9659 22.2622 13.9351V13.9337L22.2625 13.9323C22.2703 13.8932 22.2729 13.8654 22.2711 13.8468C22.2702 13.8377 22.2684 13.8315 22.266 13.8273C22.2638 13.8233 22.2607 13.8206 22.2564 13.819C22.2472 13.8157 22.2325 13.8182 22.211 13.8283C22.1927 13.8369 22.1706 13.8505 22.1446 13.8686ZM22.2785 13.9365C22.2862 13.8975 22.2894 13.8667 22.2873 13.8441C22.2862 13.8325 22.2836 13.8223 22.2791 13.8142C22.2744 13.806 22.2681 13.8007 22.2606 13.798C22.2463 13.7929 22.2275 13.7975 22.2056 13.8078C22.1834 13.8182 22.1564 13.8354 22.1247 13.858L22.1113 13.8676L22.1247 13.8772C22.1528 13.8972 22.1679 13.9433 22.1757 13.9962C22.1834 14.0485 22.1834 14.1037 22.1834 14.1376V14.1651L22.1975 14.145C22.2137 14.1219 22.2338 14.0875 22.2498 14.0502C22.2656 14.0136 22.2782 13.9728 22.2785 13.9365Z" fill="black"/>
<path d="M21.9241 13.7549C22.1761 13.7549 22.2076 13.9349 22.1919 14.1374C22.1919 14.3624 22.1131 14.2724 22.0659 14.5874C22.0501 14.6774 21.9871 14.6999 21.9084 14.6999C21.8611 14.6999 21.7981 14.6999 21.7666 14.5649C21.7194 14.2724 21.6406 14.3399 21.6406 14.1149C21.6406 13.9349 21.6721 13.7549 21.9241 13.7549Z" fill="#F9DD16"/>
<path fill-rule="evenodd" clip-rule="evenodd" d="M21.6946 13.8742C21.6571 13.9386 21.6491 14.0254 21.6491 14.115C21.6491 14.1704 21.654 14.2071 21.6617 14.2354C21.6694 14.2638 21.6801 14.2845 21.6929 14.3084C21.6935 14.3096 21.6941 14.3107 21.6948 14.3119C21.7071 14.3349 21.721 14.3609 21.7347 14.3982C21.749 14.4373 21.7629 14.4887 21.7749 14.5622C21.7901 14.6273 21.8125 14.6582 21.8355 14.6734C21.8592 14.689 21.8848 14.6891 21.9087 14.6891C21.9477 14.6891 21.9817 14.6835 22.0077 14.6676C22.0331 14.6521 22.051 14.6266 22.0582 14.5852C22.0702 14.5059 22.0841 14.4516 22.0985 14.4113C22.1129 14.3709 22.1276 14.3448 22.1404 14.3222L22.1408 14.3216C22.1535 14.2992 22.164 14.2808 22.1716 14.2545C22.1792 14.2281 22.1841 14.193 22.1841 14.1375V14.1364L22.1841 14.1364C22.1919 14.0356 22.1877 13.9435 22.1521 13.8766C22.1169 13.8104 22.0492 13.7659 21.9245 13.7659C21.7998 13.7659 21.7319 13.8103 21.6946 13.8742ZM21.6818 13.8608C21.7233 13.7897 21.7971 13.7441 21.9245 13.7441C22.0517 13.7441 22.1258 13.7896 22.1654 13.864C22.2045 13.9376 22.2082 14.0365 22.2004 14.1381C22.2003 14.1948 22.1953 14.2327 22.1868 14.2624C22.1784 14.2915 22.1667 14.3121 22.1542 14.3339L22.1534 14.3353C22.1407 14.3577 22.1269 14.3823 22.1132 14.4206C22.0995 14.459 22.0859 14.5116 22.0742 14.5896L22.0742 14.59L22.0742 14.59C22.0657 14.6385 22.0442 14.6692 22.0145 14.6874C21.9853 14.7052 21.9485 14.7109 21.9087 14.7109H21.9081C21.8848 14.7109 21.8556 14.7109 21.8283 14.6929C21.8003 14.6744 21.7754 14.6379 21.7592 14.5682L21.759 14.5673L21.759 14.5673C21.7473 14.4949 21.7337 14.4451 21.72 14.4077C21.707 14.3721 21.6937 14.3474 21.6814 14.3244C21.6808 14.3233 21.6802 14.3221 21.6796 14.321C21.6668 14.2971 21.6549 14.2742 21.6463 14.2428C21.6378 14.2114 21.6328 14.1721 21.6328 14.115C21.6328 14.0247 21.6406 13.9314 21.6818 13.8608Z" fill="black"/>
<path d="M21.2799 14.5875C21.2169 14.5425 21.1697 14.5875 21.1382 14.5875C21.2327 14.61 21.2327 14.7675 21.4217 14.8125C21.3744 14.8125 21.3587 14.8575 21.3114 14.8125C21.3902 14.9025 21.4689 15.015 21.6579 15.015C21.7682 15.015 21.6894 15.0825 21.6264 15.0375C21.6894 15.15 21.8312 15.06 21.9257 15.2625C21.9257 15.105 21.7682 14.88 21.8469 14.7225C21.5792 14.7 21.5634 14.4975 21.4217 14.34C21.2957 14.205 21.2799 14.07 21.2327 13.8225C21.2169 13.71 21.1224 13.6425 21.0752 13.665C21.0279 13.665 20.9964 13.7325 21.0437 13.7775C21.0752 13.8225 21.1382 13.8225 21.1382 13.935C21.0909 13.845 21.0122 13.8225 20.9807 13.8675C20.9649 13.9125 20.9807 13.98 21.0122 13.98C21.0909 13.98 21.0437 14.115 21.1224 14.205C21.0437 14.0925 20.9807 14.07 20.9334 14.1375C20.9177 14.1825 20.9334 14.25 20.9964 14.25C21.0752 14.25 21.1539 14.52 21.2799 14.5875ZM23.3274 15.6225C23.2959 15.6225 23.3117 15.735 23.2487 15.735C23.3747 15.735 23.4534 15.69 23.5007 15.6225L23.4692 15.735C23.5322 15.6675 23.7054 15.645 23.7842 15.6675C23.8629 15.69 23.8787 15.645 23.9102 15.5775C23.9417 15.4875 23.9102 15.4425 23.8629 15.3975C23.8157 15.33 23.7999 15.24 23.8157 15.105C23.5952 14.655 23.1857 14.88 23.1857 15.06C23.3274 15.3075 23.3432 15.285 23.4692 15.3075C23.5794 15.3525 23.6582 15.3525 23.5794 15.4425C23.5479 15.4875 23.4219 15.4425 23.3432 15.465C23.1384 15.465 23.0282 15.2625 22.9809 15.375C22.9337 15.465 22.9809 15.51 23.0754 15.51C23.0124 15.51 22.9179 15.51 22.9337 15.6C22.9652 15.7575 23.0597 15.5775 23.1069 15.6225C23.0754 15.6225 23.0124 15.645 23.0124 15.69C23.0124 15.735 23.0912 15.8025 23.1699 15.69C23.2157 15.6429 23.2711 15.6192 23.3274 15.6225Z" fill="#F9DD16"/>
<path fill-rule="evenodd" clip-rule="evenodd" d="M21.239 13.8202C21.2431 13.8414 21.2469 13.8617 21.2505 13.8812C21.2898 14.0908 21.3123 14.2106 21.4252 14.3316L21.4253 14.3317C21.4613 14.3718 21.4893 14.4146 21.5149 14.4562C21.5199 14.4643 21.5248 14.4723 21.5296 14.4802C21.5498 14.5133 21.5692 14.5451 21.5912 14.5743C21.6449 14.6455 21.7139 14.7006 21.8458 14.7117L21.8599 14.7129L21.8521 14.7286C21.8153 14.8021 21.833 14.8925 21.8627 14.9884C21.8693 15.0099 21.8764 15.0313 21.8835 15.0527C21.8843 15.055 21.8851 15.0573 21.8858 15.0596C21.8937 15.0833 21.9014 15.1068 21.9083 15.1299C21.9219 15.1759 21.9322 15.2211 21.9322 15.2626V15.3006L21.9171 15.2683C21.8715 15.1705 21.8149 15.1435 21.7608 15.1269C21.7527 15.1245 21.7446 15.1222 21.7365 15.1199C21.7177 15.1147 21.6991 15.1096 21.6823 15.102C21.6577 15.0911 21.6353 15.0746 21.6183 15.0441L21.6287 15.028C21.643 15.0383 21.6584 15.0422 21.6718 15.0422C21.6854 15.0422 21.6961 15.0382 21.7013 15.0339C21.7014 15.0338 21.7015 15.0337 21.7017 15.0336C21.6992 15.032 21.6948 15.0301 21.6879 15.0286C21.6802 15.027 21.6698 15.026 21.6563 15.026C21.5605 15.026 21.4922 14.9974 21.4377 14.9571C21.3928 14.9238 21.3575 14.8825 21.3245 14.844C21.3177 14.8361 21.3111 14.8284 21.3045 14.8208L21.3145 14.8037C21.3257 14.8143 21.3344 14.8191 21.3417 14.8209C21.349 14.8226 21.3556 14.8215 21.3628 14.819C21.3663 14.8177 21.3702 14.816 21.3744 14.8141C21.3761 14.8133 21.3779 14.8124 21.3797 14.8116C21.3083 14.7854 21.2681 14.7412 21.2371 14.6993C21.2306 14.6906 21.2248 14.6823 21.2191 14.6743C21.2087 14.6595 21.1992 14.646 21.1888 14.6341C21.1733 14.6164 21.1569 14.6035 21.1351 14.5983L21.1366 14.5767C21.1432 14.5767 21.1511 14.5743 21.161 14.5708C21.1626 14.5702 21.1642 14.5696 21.1658 14.569C21.1743 14.5659 21.1839 14.5625 21.1942 14.56C21.2031 14.5579 21.2125 14.5565 21.2226 14.5567C21.2099 14.5439 21.1978 14.5294 21.1862 14.5141C21.1595 14.4788 21.1351 14.4382 21.1125 14.4003C21.1115 14.3988 21.1106 14.3972 21.1097 14.3957C21.088 14.3593 21.0681 14.3259 21.0489 14.3011C21.0287 14.2751 21.0111 14.261 20.9948 14.261C20.9609 14.261 20.9383 14.2426 20.9267 14.2162C20.9154 14.1903 20.9155 14.1584 20.9244 14.133L20.925 14.1314L20.9258 14.1302C20.9384 14.1122 20.9524 14.0997 20.9678 14.0934C20.9832 14.0871 20.9996 14.0873 21.0166 14.0933C21.0344 14.0997 21.0531 14.1126 21.0726 14.1318C21.0661 14.1098 21.0624 14.0883 21.0591 14.0691C21.0586 14.0665 21.0582 14.0639 21.0577 14.0613C21.0537 14.0384 21.0501 14.021 21.0434 14.0091C21.0373 13.9983 21.0282 13.991 21.0106 13.991C20.9897 13.991 20.9758 13.9687 20.9694 13.9443C20.9629 13.9195 20.9628 13.8884 20.9717 13.863L20.9722 13.8614L20.9731 13.8602C20.9918 13.8335 21.023 13.8284 21.0541 13.8403C21.0786 13.8496 21.1041 13.8697 21.1259 13.9004C21.1242 13.8903 21.1218 13.8817 21.119 13.8743C21.1133 13.8596 21.1054 13.8489 21.0962 13.8397C21.0888 13.8323 21.0809 13.8262 21.0726 13.8198C21.0704 13.8182 21.0682 13.8165 21.066 13.8147C21.0558 13.8068 21.0453 13.7979 21.0367 13.7858C21.0241 13.7736 21.0161 13.7594 21.0126 13.7442C21.009 13.7288 21.0102 13.7134 21.015 13.6999C21.0242 13.6735 21.0464 13.6549 21.0722 13.6542C21.0856 13.6483 21.1016 13.6487 21.1177 13.6538C21.1345 13.659 21.1522 13.6695 21.1686 13.6842C21.2015 13.7135 21.2306 13.7606 21.239 13.8202ZM21.0972 14.1885C21.1024 14.197 21.1085 14.2053 21.1155 14.2133L21.1268 14.1977C21.1208 14.1892 21.115 14.1812 21.1091 14.1736C21.0878 14.1386 21.081 14.0992 21.0749 14.0635C21.0744 14.0611 21.074 14.0587 21.0736 14.0564C21.0697 14.0342 21.0655 14.0123 21.0565 13.9961C21.0468 13.9788 21.0323 13.9692 21.0106 13.9692C20.9999 13.9692 20.9902 13.9577 20.9848 13.9371C20.9796 13.9175 20.9796 13.8931 20.9859 13.8738C20.9989 13.8564 21.0223 13.8507 21.0497 13.8612C21.0773 13.8717 21.1073 13.8982 21.1299 13.9413L21.1447 13.9696V13.9351C21.1447 13.9056 21.1406 13.8827 21.1335 13.8644C21.1263 13.846 21.1165 13.8329 21.106 13.8223C21.0977 13.814 21.0887 13.8071 21.0803 13.8007C21.0782 13.7991 21.0762 13.7975 21.0742 13.796C21.064 13.788 21.055 13.7802 21.048 13.7702L21.0475 13.7694L21.0468 13.7687C21.0361 13.7586 21.0305 13.7477 21.0282 13.7378C21.0259 13.7279 21.0266 13.718 21.0298 13.7091C21.0361 13.6908 21.0527 13.676 21.0736 13.676H21.075L21.0763 13.6753C21.0862 13.6706 21.0992 13.6703 21.114 13.675C21.1287 13.6796 21.1446 13.6888 21.1596 13.7022C21.1897 13.7291 21.2157 13.7718 21.223 13.8246L21.2232 13.8253C21.2273 13.8468 21.2311 13.8674 21.2349 13.8874C21.2739 14.096 21.2976 14.2228 21.4149 14.3485C21.4497 14.3872 21.4769 14.4287 21.5023 14.47C21.5072 14.4779 21.512 14.4857 21.5167 14.4935C21.537 14.5268 21.5571 14.5596 21.5797 14.5897C21.6344 14.6622 21.7042 14.7182 21.8315 14.7321C21.7992 14.8129 21.82 14.9073 21.8476 14.9967C21.8543 15.0184 21.8615 15.0402 21.8686 15.0615C21.8694 15.0638 21.8702 15.0661 21.8709 15.0684C21.8788 15.0921 21.8864 15.1153 21.8931 15.1379C21.9019 15.1675 21.9089 15.1957 21.9127 15.2221C21.8673 15.1452 21.8138 15.1209 21.7644 15.1057C21.7556 15.103 21.747 15.1006 21.7387 15.0983C21.7204 15.0933 21.7033 15.0885 21.6874 15.0814C21.6763 15.0764 21.6661 15.0704 21.6568 15.0625C21.662 15.0635 21.667 15.0639 21.6718 15.0639C21.6872 15.0639 21.7012 15.0595 21.7098 15.0525C21.7138 15.0492 21.7186 15.0438 21.7195 15.0356C21.7205 15.026 21.7157 15.0193 21.7109 15.0156C21.706 15.0117 21.6991 15.009 21.6905 15.0072C21.6816 15.0053 21.6704 15.0042 21.6563 15.0042C21.5631 15.0042 21.4976 14.9765 21.4457 14.9381C21.4082 14.9103 21.3777 14.8769 21.3488 14.8435C21.3553 14.8435 21.3613 14.842 21.367 14.84C21.3722 14.8381 21.3771 14.8359 21.3818 14.8337C21.3932 14.8285 21.4044 14.8235 21.4201 14.8235L21.4215 14.8019C21.329 14.7799 21.2832 14.7306 21.2487 14.684C21.2429 14.6763 21.2373 14.6684 21.2318 14.6606C21.221 14.6452 21.2104 14.6303 21.1995 14.6177C21.1902 14.607 21.1803 14.5977 21.1691 14.5904C21.1695 14.5902 21.1699 14.5901 21.1703 14.5899C21.1788 14.5869 21.1876 14.5837 21.197 14.5814C21.2155 14.577 21.2361 14.5763 21.2593 14.5879C21.2645 14.5915 21.2698 14.5948 21.2753 14.5977L21.2783 14.5876L21.2822 14.578C21.2766 14.5741 21.2712 14.5708 21.2659 14.568C21.2417 14.5513 21.2191 14.527 21.1977 14.4987C21.1717 14.4644 21.1479 14.4248 21.1252 14.3868C21.1242 14.385 21.1232 14.3833 21.1222 14.3816C21.1008 14.3457 21.0802 14.3113 21.0603 14.2855C21.0396 14.2588 21.0179 14.2392 20.9948 14.2392C20.9657 14.2392 20.949 14.2238 20.9408 14.2052C20.9327 14.1866 20.9323 14.163 20.9387 14.1437C20.9494 14.1287 20.9607 14.1191 20.9726 14.1142C20.9847 14.1093 20.9979 14.1092 21.0124 14.1143C21.0372 14.1232 21.0654 14.1474 21.0972 14.1885ZM23.4153 14.8356C23.548 14.8126 23.7087 14.8702 23.8209 15.0991L23.8226 15.1026L23.8221 15.1068C23.8066 15.2393 23.8222 15.3253 23.8667 15.3894C23.8901 15.4117 23.9111 15.4355 23.9218 15.4661C23.933 15.4979 23.9324 15.5351 23.9159 15.5822L23.9155 15.5834C23.9139 15.5869 23.9122 15.5903 23.9106 15.5938C23.9047 15.6066 23.8991 15.6188 23.8933 15.6296C23.8859 15.6434 23.8779 15.6558 23.868 15.6652C23.8477 15.6845 23.8214 15.6898 23.7808 15.6782C23.7428 15.6673 23.6808 15.6672 23.6203 15.6783C23.5901 15.6839 23.5605 15.6922 23.5348 15.7032C23.5089 15.7143 23.4873 15.7279 23.4727 15.7436L23.4495 15.7683L23.4796 15.661C23.4293 15.7135 23.3546 15.7459 23.2471 15.7459V15.7242C23.2607 15.7242 23.2694 15.7183 23.2757 15.7098C23.2823 15.701 23.2868 15.6888 23.2906 15.675C23.2919 15.6704 23.2931 15.6658 23.2943 15.6612C23.2948 15.659 23.2954 15.6568 23.296 15.6546C23.2977 15.648 23.2996 15.6412 23.3018 15.6353C23.302 15.6348 23.3022 15.6342 23.3024 15.6337C23.2563 15.6372 23.2117 15.6594 23.1738 15.6982C23.133 15.7562 23.091 15.7691 23.0583 15.7598C23.0421 15.7551 23.0285 15.7451 23.0187 15.7328C23.0092 15.7207 23.0026 15.7054 23.0026 15.6901C23.0026 15.6823 23.0041 15.6751 23.0065 15.6687C22.9924 15.6758 22.9773 15.68 22.9633 15.6741C22.9453 15.6664 22.9323 15.6437 22.9242 15.6029L22.9241 15.6026C22.9197 15.5775 22.9229 15.557 22.9323 15.5412C22.9415 15.5261 22.9557 15.5168 22.9712 15.5109C22.978 15.5083 22.9853 15.5063 22.9929 15.5047C22.9829 15.4994 22.9744 15.4926 22.9678 15.4842C22.9572 15.4708 22.9518 15.4537 22.9527 15.4335C22.9536 15.414 22.9603 15.3925 22.9724 15.3693C22.9789 15.3541 22.9868 15.3433 22.9964 15.3369C23.0062 15.3305 23.0168 15.3291 23.028 15.3309C23.0498 15.3343 23.0757 15.35 23.1048 15.368C23.1064 15.369 23.1079 15.37 23.1095 15.371C23.1679 15.4071 23.2434 15.4539 23.3407 15.4542C23.376 15.4444 23.42 15.4474 23.46 15.4502C23.466 15.4506 23.472 15.4511 23.4778 15.4514C23.5004 15.4528 23.521 15.4535 23.5378 15.4511C23.555 15.4487 23.5661 15.4433 23.5718 15.4352L23.5725 15.4343C23.5821 15.4233 23.5891 15.414 23.5938 15.406C23.5986 15.398 23.6007 15.392 23.6013 15.3878C23.6019 15.384 23.6013 15.3812 23.5999 15.3784C23.5982 15.3752 23.5951 15.3716 23.5897 15.3678C23.5789 15.36 23.5621 15.3533 23.5403 15.3455C23.5351 15.3437 23.5297 15.3418 23.5241 15.3398C23.5065 15.3336 23.4867 15.3267 23.4658 15.3182C23.4539 15.3161 23.443 15.3144 23.4327 15.3128C23.3898 15.3061 23.3592 15.3014 23.3277 15.2777C23.2886 15.2483 23.2483 15.1902 23.1776 15.0667L23.1759 15.0638V15.0601C23.1759 15.0098 23.2042 14.9591 23.2468 14.919C23.2898 14.8785 23.3491 14.847 23.4153 14.8356ZM23.0738 15.4992V15.521C23.042 15.521 23.0038 15.521 22.9756 15.5318C22.9616 15.5371 22.9512 15.5447 22.945 15.5549C22.9393 15.5644 22.9365 15.5776 22.94 15.5974C22.9476 15.6353 22.9582 15.6491 22.9682 15.6534C22.9791 15.658 22.9928 15.6534 23.0095 15.6436C23.0163 15.6396 23.0231 15.635 23.0301 15.6303C23.0316 15.6294 23.033 15.6284 23.0344 15.6275C23.0428 15.6219 23.0514 15.6163 23.0598 15.6121C23.0763 15.6038 23.0946 15.5991 23.11 15.6137L23.1307 15.6335H23.1053C23.0906 15.6335 23.0681 15.6388 23.0494 15.6494C23.0401 15.6548 23.0323 15.6611 23.0269 15.6683C23.0215 15.6753 23.019 15.6825 23.019 15.6901C23.019 15.6973 23.0223 15.7073 23.0299 15.717C23.0374 15.7265 23.0484 15.7347 23.0617 15.7385C23.088 15.746 23.1246 15.7366 23.1623 15.6827L23.1628 15.682L23.1633 15.6815C23.2105 15.6329 23.2679 15.6083 23.3262 15.6117L23.3258 15.6226V15.6335C23.3227 15.6335 23.3199 15.6356 23.3164 15.645C23.3146 15.6496 23.3131 15.6552 23.3114 15.6618C23.3108 15.6637 23.3103 15.6657 23.3098 15.6678C23.3086 15.6726 23.3073 15.6777 23.3059 15.6826C23.3021 15.696 23.2972 15.7106 23.2893 15.7224C23.3892 15.7134 23.4532 15.6721 23.4931 15.6152L23.5067 15.6264L23.4839 15.7079C23.4973 15.6982 23.513 15.6897 23.5298 15.6825C23.5567 15.6711 23.5872 15.6625 23.618 15.6568C23.6796 15.6455 23.7436 15.6453 23.7843 15.657C23.8225 15.6679 23.8434 15.6619 23.8585 15.6475C23.8664 15.64 23.8731 15.6299 23.88 15.617C23.8854 15.6068 23.8907 15.5954 23.8966 15.5827C23.8981 15.5794 23.8997 15.5759 23.9014 15.5724C23.9162 15.5298 23.9156 15.4996 23.9071 15.4753C23.8982 15.45 23.8801 15.4289 23.8566 15.4064L23.8559 15.4058L23.8553 15.405C23.8063 15.3349 23.7904 15.2422 23.8055 15.1076C23.6973 14.8894 23.544 14.8352 23.4174 14.8571C23.3536 14.8682 23.2968 14.8985 23.2562 14.9368C23.2163 14.9743 23.1936 15.0177 23.1923 15.0565C23.2622 15.1784 23.3003 15.2321 23.3357 15.2587C23.3641 15.2801 23.3908 15.2843 23.4331 15.2909C23.4439 15.2926 23.4556 15.2945 23.4686 15.2968L23.4693 15.2969L23.4699 15.2972C23.4907 15.3057 23.5103 15.3125 23.528 15.3187C23.5337 15.3207 23.5392 15.3226 23.5445 15.3245C23.566 15.3322 23.5846 15.3395 23.5974 15.3486C23.6038 15.3532 23.6095 15.3588 23.6133 15.366C23.6173 15.3736 23.6187 15.3824 23.6173 15.3919C23.616 15.401 23.6122 15.4102 23.6066 15.4195C23.601 15.4289 23.5933 15.4391 23.5834 15.4505C23.5734 15.4644 23.5571 15.4702 23.5395 15.4727C23.5214 15.4753 23.4996 15.4745 23.477 15.4731C23.471 15.4728 23.465 15.4723 23.4589 15.4719C23.4183 15.4691 23.3764 15.4663 23.3433 15.4757L23.3424 15.476H23.3416C23.2402 15.476 23.1616 15.4272 23.1031 15.391C23.1014 15.3899 23.0996 15.3888 23.0979 15.3878C23.068 15.3692 23.0447 15.3554 23.0261 15.3525C23.0171 15.3511 23.0098 15.3523 23.0036 15.3564C22.9975 15.3604 22.9917 15.3677 22.9864 15.3804L22.986 15.3813C22.9747 15.403 22.9696 15.4207 22.969 15.4348C22.9684 15.4484 22.9718 15.4593 22.979 15.4685C22.9865 15.4779 22.9983 15.4857 23.0145 15.4911C23.0306 15.4964 23.0506 15.4992 23.0738 15.4992Z" fill="black"/>
<path fill-rule="evenodd" clip-rule="evenodd" d="M22.068 14.028C22.0784 14.0328 22.0882 14.0365 22.0986 14.0365V14.0582C22.0853 14.0582 22.0734 14.0535 22.0626 14.0485C22.0602 14.0474 22.0578 14.0462 22.0555 14.0451C22.0473 14.0412 22.0399 14.0376 22.032 14.0355C22.0224 14.033 22.0126 14.0331 22.0018 14.0386C21.994 14.0425 21.9854 14.0493 21.9757 14.0605C21.9787 14.0627 21.9818 14.0654 21.9848 14.068C21.9851 14.0682 21.9853 14.0684 21.9856 14.0687C21.9891 14.0717 21.9925 14.0746 21.9961 14.0772C22.0033 14.0823 22.0104 14.0855 22.018 14.0844C22.0253 14.0833 22.0345 14.078 22.0453 14.0625L22.0573 14.0773C22.0445 14.0955 22.032 14.1042 22.0197 14.106C22.0075 14.1077 21.9969 14.1024 21.9884 14.0963C21.9841 14.0933 21.9802 14.0899 21.9767 14.0869C21.9765 14.0867 21.9763 14.0865 21.9761 14.0863C21.9728 14.0835 21.9701 14.0812 21.9677 14.0795C21.9666 14.0786 21.9657 14.0781 21.965 14.0777V14.1367C21.9679 14.1663 21.9715 14.1927 21.9746 14.2163C21.9756 14.2235 21.9765 14.2304 21.9774 14.2371C21.9811 14.2654 21.9837 14.2899 21.9827 14.3097C21.9816 14.3301 21.9764 14.3472 21.9635 14.3585C21.9513 14.3691 21.9335 14.3732 21.9096 14.3732C21.8894 14.3732 21.8741 14.369 21.864 14.3577C21.8534 14.3459 21.8502 14.3285 21.8502 14.3089C21.8502 14.2895 21.8533 14.2652 21.8572 14.237C21.8577 14.2335 21.8582 14.2299 21.8587 14.2262C21.8624 14.2002 21.8665 14.1706 21.8699 14.1367V14.0777C21.8692 14.0781 21.8683 14.0786 21.8671 14.0795C21.8647 14.0812 21.862 14.0835 21.8588 14.0863C21.8586 14.0865 21.8583 14.0867 21.8581 14.0869C21.8547 14.0899 21.8507 14.0933 21.8465 14.0963C21.8379 14.1024 21.8273 14.1077 21.8152 14.106C21.8029 14.1042 21.7903 14.0955 21.7776 14.0773L21.7895 14.0625C21.8004 14.078 21.8095 14.0833 21.8169 14.0844C21.8244 14.0855 21.8316 14.0823 21.8388 14.0772C21.8424 14.0746 21.8458 14.0717 21.8492 14.0687C21.8495 14.0684 21.8498 14.0682 21.85 14.068C21.853 14.0654 21.856 14.0628 21.859 14.0606C21.8495 14.0502 21.8412 14.0445 21.8339 14.0416C21.8234 14.0374 21.8141 14.0385 21.8049 14.0411C21.8017 14.042 21.7988 14.0431 21.7957 14.0441C21.7942 14.0447 21.7927 14.0452 21.7911 14.0457C21.7865 14.0472 21.7816 14.0487 21.7767 14.0491C21.7716 14.0495 21.7664 14.0489 21.761 14.0462C21.7557 14.0435 21.7507 14.0389 21.7461 14.0323L21.758 14.0175C21.7612 14.0221 21.7642 14.0245 21.7668 14.0259C21.7695 14.0272 21.7723 14.0277 21.7757 14.0274C21.7791 14.0271 21.7828 14.0261 21.7872 14.0246C21.7884 14.0242 21.7898 14.0237 21.7912 14.0232C21.7944 14.0221 21.798 14.0209 21.8015 14.0199C21.8121 14.0169 21.8244 14.0151 21.8386 14.0208C21.8526 14.0264 21.8676 14.039 21.884 14.0625L21.8781 14.0699H21.8862V14.1381L21.8861 14.1388C21.8827 14.1736 21.8784 14.2041 21.8748 14.2302C21.8743 14.2339 21.8738 14.2374 21.8733 14.2409C21.8693 14.2697 21.8665 14.2918 21.8665 14.3089C21.8665 14.3259 21.8693 14.3353 21.8744 14.341C21.88 14.3473 21.8903 14.3515 21.9096 14.3515C21.9328 14.3515 21.9465 14.3473 21.9546 14.3403C21.9618 14.3339 21.9655 14.3243 21.9664 14.3082C21.9673 14.2914 21.965 14.2695 21.9613 14.2408C21.9605 14.2343 21.9596 14.2275 21.9586 14.2204C21.9554 14.1966 21.9518 14.1693 21.9487 14.1388L21.9487 14.1381V14.0699H21.9568L21.9508 14.0625C21.9671 14.0392 21.9819 14.0253 21.996 14.0182C22.0102 14.011 22.0231 14.0111 22.0351 14.0142C22.0444 14.0166 22.0534 14.0209 22.0617 14.025C22.0639 14.026 22.066 14.027 22.068 14.028ZM23.2781 14.9142C23.359 14.8911 23.4397 14.9143 23.5042 14.9603L23.4965 14.9795C23.4349 14.9355 23.3581 14.9136 23.2815 14.9355L23.2781 14.9142ZM22.3523 15.1391C22.3502 15.0809 22.3584 15.0116 22.3904 14.9203L22.4052 14.9295C22.3742 15.0181 22.3666 15.0839 22.3685 15.1381C22.37 15.1793 22.3768 15.2138 22.3835 15.248C22.3857 15.2594 22.388 15.2708 22.39 15.2824L22.3741 15.2873C22.3723 15.2768 22.3702 15.266 22.368 15.255C22.3612 15.2203 22.3538 15.1828 22.3523 15.1391Z" fill="black"/>
<path d="M21.9251 14.6323C21.9881 14.6323 22.0196 14.6323 22.0196 14.4973C22.0196 14.4523 22.0668 14.4298 22.0353 14.3398C22.0668 14.4298 21.9251 14.4298 21.9251 14.3848C21.9251 14.4298 21.7676 14.4298 21.7991 14.3398C21.7833 14.4298 21.8306 14.4523 21.8148 14.4973C21.8148 14.6323 21.8463 14.6323 21.9251 14.6323Z" fill="#FF0016"/>
<path fill-rule="evenodd" clip-rule="evenodd" d="M21.912 14.3909C21.915 14.388 21.9153 14.3859 21.9153 14.385H21.9316C21.9316 14.3864 21.9321 14.3885 21.9346 14.3913C21.9373 14.3942 21.9416 14.397 21.9474 14.3992C21.959 14.4037 21.9745 14.405 21.9893 14.4024C22.0043 14.3997 22.017 14.3932 22.024 14.3837C22.0273 14.3792 22.0294 14.3741 22.03 14.3682C22.0306 14.3622 22.0298 14.3545 22.0263 14.3446L22.0411 14.3354C22.0494 14.3591 22.0527 14.3789 22.0527 14.3963C22.0527 14.4138 22.0493 14.428 22.045 14.4403C22.0429 14.4463 22.0406 14.4519 22.0383 14.4571C22.0378 14.4584 22.0372 14.4597 22.0367 14.4609C22.035 14.4647 22.0335 14.4682 22.0321 14.4717C22.0284 14.481 22.0261 14.4889 22.0261 14.4975C22.0261 14.565 22.0185 14.6038 21.9995 14.6241C21.99 14.6343 21.9785 14.639 21.9659 14.6412C21.9535 14.6434 21.9393 14.6434 21.9239 14.6434H21.9231C21.9037 14.6434 21.8866 14.6434 21.8721 14.6412C21.8575 14.639 21.8446 14.6345 21.8341 14.6245C21.8127 14.6041 21.8051 14.5649 21.8051 14.4975V14.4951L21.8058 14.4929C21.8112 14.4776 21.8074 14.4668 21.8002 14.4467C21.7995 14.4446 21.7987 14.4425 21.798 14.4403C21.7919 14.423 21.7857 14.402 21.7861 14.3732C21.786 14.3727 21.7859 14.3723 21.7859 14.3718C21.7841 14.3605 21.7856 14.3483 21.7901 14.3354L21.8054 14.3425C21.8036 14.3528 21.8027 14.362 21.8024 14.3705C21.8036 14.3751 21.8058 14.3793 21.8092 14.3832C21.8177 14.393 21.8325 14.3997 21.8496 14.4024C21.8665 14.4051 21.8842 14.4037 21.8973 14.3991C21.9039 14.3969 21.9089 14.394 21.912 14.3909ZM22.0364 14.3979C22.0361 14.3983 22.0359 14.3986 22.0356 14.399C22.0249 14.4135 22.008 14.421 21.9915 14.4239C21.9748 14.4269 21.9569 14.4255 21.9429 14.4201C21.9359 14.4174 21.9293 14.4135 21.9244 14.4082C21.924 14.4077 21.9236 14.4073 21.9232 14.4068C21.9227 14.4074 21.9221 14.408 21.9216 14.4085C21.9162 14.4138 21.9091 14.4175 21.9014 14.4202C21.886 14.4255 21.8663 14.4269 21.8477 14.424C21.8326 14.4216 21.8173 14.4161 21.8056 14.4065C21.8075 14.4155 21.8101 14.4236 21.8127 14.4311C21.8135 14.4333 21.8143 14.4355 21.8151 14.4377C21.8217 14.4559 21.8289 14.4757 21.8214 14.4998C21.8216 14.5658 21.8297 14.5936 21.8436 14.6068C21.8508 14.6137 21.8605 14.6176 21.8739 14.6196C21.8874 14.6217 21.9036 14.6217 21.9235 14.6217C21.9394 14.6217 21.9526 14.6217 21.9637 14.6197C21.9748 14.6177 21.983 14.6139 21.9892 14.6072C22.0017 14.5938 22.0098 14.5651 22.0098 14.4975C22.0098 14.4837 22.0135 14.4719 22.0177 14.4615C22.0193 14.4575 22.021 14.4535 22.0227 14.4497C22.0232 14.4485 22.0237 14.4474 22.0242 14.4462C22.0264 14.4412 22.0285 14.4363 22.0303 14.4311C22.0337 14.4213 22.0362 14.4107 22.0364 14.3979Z" fill="black"/>
<path d="M21.847 14.3624L21.6895 14.2949L21.847 14.3624ZM21.847 14.3624H21.6895H21.847ZM21.847 14.3849L21.7052 14.4524L21.847 14.3849ZM21.973 14.3624L22.1305 14.2949L21.973 14.3624ZM21.973 14.3624H22.162H21.973ZM21.973 14.3849L22.1305 14.4524L21.973 14.3849Z" fill="black"/>
<path fill-rule="evenodd" clip-rule="evenodd" d="M21.6905 14.2847L21.848 14.3522L21.8455 14.3625V14.3734H21.688V14.3516H21.7935L21.6855 14.3054L21.6905 14.2847ZM22.0235 14.3516L22.1315 14.3054L22.1265 14.2847L21.969 14.3522L21.9715 14.3625V14.3734H22.1605V14.3516H22.0235ZM22.1265 14.4629L21.969 14.3954L21.974 14.3747L22.1315 14.4422L22.1265 14.4629ZM21.701 14.4423L21.8428 14.3748L21.8483 14.3953L21.7065 14.4628L21.701 14.4423Z" fill="black"/>
<path d="M20.5844 13.7998H20.6969H20.5844ZM20.5844 13.9498H20.3594H20.5844ZM20.5844 14.2498H20.3594H20.4719H20.5844ZM20.5844 15.1498C20.5844 14.9998 20.4719 15.1498 20.4719 15.1498H20.5844ZM20.5844 15.1498C20.5844 15.1498 20.4719 15.4498 20.5844 15.4498V15.2998V15.1498ZM22.4969 15.5998C22.4969 15.5998 22.2719 15.7498 22.3844 15.8998V15.5998H22.4969ZM22.4969 15.7498V16.0498V15.8998V15.7498ZM22.4969 15.4498L22.3844 15.5998H22.4969V15.4498ZM23.7344 15.7498V15.8998V15.7498ZM23.7344 15.5998C23.6219 15.5998 23.7344 15.5998 23.7344 15.5998V15.5998ZM23.7344 15.8998V16.0498H23.8469V15.8998H23.7344ZM21.4844 14.6998V15.1498V14.6998Z" fill="#0051BA"/>
</g>
<defs>
<clipPath id="clip0_45_16796">
<rect width="45" height="45" fill="white"/>
</clipPath>
</defs>
</svg>
