<svg width="45" height="45" viewBox="0 0 45 45" fill="none" xmlns="http://www.w3.org/2000/svg">
<g clip-path="url(#clip0_45_16865)">
<path fill-rule="evenodd" clip-rule="evenodd" d="M-2.83984 0H47.8379V45H-2.83984V0Z" fill="#FF0000"/>
<path fill-rule="evenodd" clip-rule="evenodd" d="M12.5515 22.9482C13.448 21.4893 15.3135 22.9131 16.8362 21.8672C15.03 21.999 14.0479 20.707 12.624 20.8916C14.1006 19.6787 15.3596 21.2871 17.0076 20.6455C14.8257 20.3994 14.918 19.0898 12.9272 18.9053C14.6938 17.9033 15.564 19.9424 17.2976 19.4766C15.2542 18.8525 14.9905 17.2529 13.4744 16.9102C15.6892 16.4707 15.5442 18.2109 17.7129 18.4219C15.5112 17.165 16.0847 16.0664 14.2456 15.1084C16.3088 15.0469 16.1704 16.9541 18.2666 17.4463C16.4736 15.9346 16.6912 14.5547 15.2212 13.4736C16.968 13.5176 17.1328 15.8994 18.9192 16.6377C17.3306 14.959 17.7458 13.5352 16.3748 12.0322C18.115 12.5771 17.8579 14.6338 19.6707 15.9521C18.3259 13.9658 18.8401 12.542 17.6733 10.916C19.3477 11.6279 18.7083 13.5879 20.4419 15.4512C19.4531 13.2627 20.0662 11.8652 19.084 10.0283C20.6396 11.0918 19.8882 13.0957 21.3252 15.082C20.6462 12.8408 21.3252 11.4521 20.6331 9.46582C21.9646 10.7842 21.1736 12.9199 22.248 14.959C21.8525 12.1465 22.7622 11.6895 22.4788 9.22852C23.4873 10.8809 22.3601 12.5332 23.1379 14.9678C23.0391 12.1992 24.1465 11.5576 23.9553 9.34277C24.9507 11.3291 23.395 13.0605 24.0476 15.1875C24.2124 12.5684 25.5044 11.8828 25.5242 9.84375C26.3152 11.7158 24.6013 13.0693 24.8782 15.5566C25.4385 12.8145 26.8162 12.4805 26.9875 10.6348C27.4556 12.7969 25.5769 13.7988 25.689 16.207C26.2493 13.7725 27.9697 13.4824 28.3257 11.6895C28.5432 13.9746 26.8491 14.3877 26.3679 16.9189C27.2578 14.8535 28.8201 14.6865 29.5188 13.0518C29.4661 15.3193 27.5544 15.6182 26.9678 17.7363C28.0686 15.9346 29.4529 16.2422 30.5537 14.6514C30.4351 16.6992 28.4905 16.585 27.4556 18.7031C28.6487 17.2354 30.4482 17.6748 31.3645 16.4092C31.3184 18.2197 28.9321 18.0791 27.8049 19.7051C29.1892 18.6855 30.9558 19.2832 31.9709 18.3428C31.7864 19.9248 29.2683 19.5557 28.062 20.8037C29.7231 20.1885 31.0085 21.1289 32.3467 20.4521C31.6941 21.9902 29.4067 21.0147 28.1938 22.0166C29.644 21.6914 31.1733 22.8604 32.4851 22.4824C32.0566 23.8184 29.5452 22.3945 28.2004 23.2295C29.8088 23.2119 30.8569 24.5918 32.3533 24.4951C31.5425 25.708 29.3408 24.0469 28.0554 24.3281C29.6243 24.7676 30.824 26.4902 32.0105 26.5781C31.0283 27.5713 29.209 25.3037 27.7258 25.585C29.2551 26.1299 30.5339 28.4414 31.4041 28.4941C30.4614 29.3555 28.6025 26.5166 27.3303 26.6221C28.8794 27.5537 29.5847 29.918 30.6064 30.252C29.3474 30.7881 28.1082 27.6856 26.7568 27.5713C28.3257 28.8897 28.4114 30.9111 29.6177 31.8076C28.3455 32.2207 27.4424 28.7139 26.1042 28.415C27.3896 29.6719 27.5874 32.3701 28.4377 33.2139C27.1458 33.3018 26.6777 29.6367 25.3528 29.1094C26.4866 30.375 26.2163 33.1172 27.0996 34.2949C25.7549 33.917 25.9263 30.7266 24.5222 29.6455C25.5308 31.3506 25.0166 33.7676 25.6758 35.1299C24.364 34.4268 24.9309 31.5615 23.6851 29.9443C24.364 31.7549 23.6323 33.8643 24.1729 35.6133C22.9731 34.8311 23.7773 31.4473 22.8611 30.1025C23.283 32.1943 22.5051 33.9258 22.8215 35.7979C21.5955 33.9082 23.0061 32.001 21.9448 30.0762C22.2217 32.2822 21.0615 33.8291 21.2461 35.6748C20.2771 34.1631 21.7734 31.7461 21.0154 29.8389C21.1736 32.0098 19.6772 33.917 19.7827 35.2881C18.9917 33.5303 20.6594 31.4561 20.2112 29.4609C20.1189 31.5352 18.6028 32.6602 18.3193 34.5498C17.8118 32.4668 19.6113 30.9639 19.4531 28.916C18.939 30.8584 17.4756 31.6406 16.9614 33.5303C16.5396 31.4473 18.6753 30.3486 18.728 28.1689C18.0688 30.208 16.322 30.665 15.7419 32.2295C15.5244 30.1641 17.97 29.2412 18.0623 27.2812C17.2712 29.1621 15.3596 29.2412 14.7004 30.7354C14.6016 28.6787 17.179 28.4238 17.5811 26.2705C16.7966 27.8701 14.7004 27.668 13.8237 28.9688C13.9622 27.0615 16.7505 26.9473 17.1987 25.2246C16.1572 26.5605 14.2324 26.0156 13.1448 27.0703C13.7512 25.1895 16.3682 25.585 16.9548 24.2314C15.8013 25.0313 13.7512 24.249 12.7361 25.0576C13.6589 23.2822 15.6892 24.3457 16.8428 23.124C14.9707 23.4844 13.8435 22.4912 12.5449 22.9482H12.5515Z" fill="#FFFF00"/>
<path fill-rule="evenodd" clip-rule="evenodd" d="M29.0632 22.5088C29.0632 24.8223 28.374 27.0411 27.147 28.677C25.9201 30.3129 24.256 31.2319 22.5209 31.2319C20.7857 31.2319 19.1217 30.3129 17.8947 28.677C16.6678 27.0411 15.9785 24.8223 15.9785 22.5088C15.9785 20.1964 16.6675 17.9788 17.8938 16.3437C19.1201 14.7086 20.7833 13.79 22.5176 13.79C24.2518 13.79 25.9151 14.7086 27.1414 16.3437C28.3677 17.9788 29.0566 20.1964 29.0566 22.5088H29.0632Z" fill="#FFFF00"/>
<path fill-rule="evenodd" clip-rule="evenodd" d="M28.2212 22.5264C28.2212 24.538 27.6218 26.4673 26.555 27.8897C25.4882 29.3122 24.0412 30.1113 22.5325 30.1113C21.0237 30.1113 19.5768 29.3122 18.5099 27.8897C17.4431 26.4673 16.8438 24.538 16.8438 22.5264C16.8438 20.5147 17.4431 18.5854 18.5099 17.163C19.5768 15.7405 21.0237 14.9414 22.5325 14.9414C24.0412 14.9414 25.4882 15.7405 26.555 17.163C27.6218 18.5854 28.2212 20.5147 28.2212 22.5264Z" fill="#FF0000"/>
<path fill-rule="evenodd" clip-rule="evenodd" d="M27.4292 22.5439C27.4292 24.2712 26.9146 25.9277 25.9986 27.1491C25.0825 28.3705 23.8401 29.0566 22.5447 29.0566C21.2492 29.0566 20.0068 28.3705 19.0908 27.1491C18.1748 25.9277 17.6602 24.2712 17.6602 22.5439C17.6602 20.8167 18.1748 19.1601 19.0908 17.9388C20.0068 16.7174 21.2492 16.0313 22.5447 16.0312C23.8401 16.0313 25.0825 16.7174 25.9986 17.9388C26.9146 19.1601 27.4292 20.8167 27.4292 22.5439Z" fill="#FFFF00"/>
<path fill-rule="evenodd" clip-rule="evenodd" d="M18.3857 18.2813C19.7371 18.2373 21.418 18.4043 22.532 19.582C23.7221 18.5917 25.1233 18.1501 26.52 18.3252L27.2451 20.0918C26.1184 19.9547 24.9841 20.2028 23.9492 20.8125C24.6888 21.5398 25.2835 22.4978 25.6811 23.6025C26.0787 24.7072 26.2672 25.9251 26.23 27.1494C26.052 27.4482 25.7686 27.7734 25.5906 28.0723C25.8542 25.5674 24.8655 22.7725 23.4219 21.3047C24.5952 23.5547 25.2874 25.5762 25.0962 28.3711L24.437 28.9336C24.7402 26.4727 24.3052 23.5723 22.9407 21.9023C23.7317 23.4404 24.5095 26.209 24.0217 29.0215C23.8108 29.1094 23.4812 29.3467 23.2703 29.4258C23.5287 28.2719 23.5989 27.0576 23.4761 25.8645C23.3533 24.6714 23.0404 23.5272 22.5583 22.5088C21.6487 24.249 21.3521 26.9033 21.8662 29.3643C21.6157 29.2764 21.4246 29.1709 21.1675 29.0918C20.7917 26.4551 21.3125 23.4668 22.2156 21.9111C21.2927 22.623 20.4292 25.6641 20.6731 28.7666L20.0601 28.3887C19.7634 26.0771 20.5479 23.0625 21.675 21.3223C20.3962 22.3945 19.3547 25.04 19.5327 27.8789C19.335 27.6504 19.157 27.5361 18.9592 27.2988C18.7351 24.8203 19.8162 22.3242 21.0752 20.8301C20.0139 20.1885 19.0977 20.0654 17.7793 20.0918C17.9836 19.5205 18.1748 18.8525 18.3857 18.2725V18.2813Z" fill="#FF0000"/>
</g>
<defs>
<clipPath id="clip0_45_16865">
<rect width="45" height="45" fill="white"/>
</clipPath>
</defs>
</svg>
