<svg width="45" height="45" viewBox="0 0 45 45" fill="none" xmlns="http://www.w3.org/2000/svg">
<g clip-path="url(#clip0_45_16873)">
<path d="M0 0H45V45H0V0Z" fill="#032EA1"/>
<path d="M0 11.25H45V33.75H0V11.25Z" fill="#E00025"/>
<path d="M17.748 21.2061H27.3499V26.1336H17.748V21.2061Z" fill="white"/>
<path fill-rule="evenodd" clip-rule="evenodd" d="M17.7051 21.2062L17.7473 21.1499H27.3491L27.3913 21.2062V26.1337L27.3491 26.1899H17.7473L17.7051 26.1337V21.2062ZM17.7895 21.2624V26.0774H27.307V21.2624H17.7895Z" fill="black"/>
<path d="M26.8605 23.9175H27.1559V25.7737H26.8605V23.9175ZM17.748 23.0063H27.3499V23.5688H17.748V23.0063ZM17.748 22.2188H27.3499V22.7362H17.748V22.2188Z" fill="white"/>
<path fill-rule="evenodd" clip-rule="evenodd" d="M17.7051 22.2188L17.7473 22.1626H27.3491L27.3913 22.2188V22.7363L27.3491 22.7926H17.7473L17.7051 22.7363V22.2188ZM17.7895 22.2751V22.6801H27.307V22.2751H17.7895ZM17.7051 23.0063L17.7473 22.9501H27.3491L27.3913 23.0063V23.5688L27.3491 23.6251H17.7473L17.7051 23.5688V23.0063ZM17.7895 23.0626V23.5126H27.307V23.0626H17.7895ZM26.8176 23.9176L26.8598 23.8613H27.1551L27.1973 23.9176V25.7738L27.1551 25.8301H26.8598L26.8176 25.7738V23.9176ZM26.902 23.9738V25.7176H27.1129V23.9738H26.902Z" fill="black"/>
<path d="M17.748 21.4536H27.3499V21.9374H17.748V21.4536Z" fill="white"/>
<path fill-rule="evenodd" clip-rule="evenodd" d="M17.709 21.4535L17.747 21.4028H27.3488L27.3868 21.4535V21.9372L27.3488 21.9878H17.747L17.709 21.9372V21.4535ZM17.7849 21.5041V21.8866H27.3109V21.5041H17.7849Z" fill="black"/>
<path d="M20.2789 23.9175H20.5827V25.7737H20.2789V23.9175ZM24.4133 23.9175H24.717V25.7737H24.4133V23.9175ZM17.832 23.9175H18.1273V25.7737H17.832V23.9175ZM18.4227 23.9175H18.718V25.7737H18.4227V23.9175ZM19.0555 23.9175H19.3508V25.7737H19.0555V23.9175ZM19.6883 23.9175H19.9836V25.7737H19.6883V23.9175ZM24.987 23.9175H25.2908V25.7737H24.987V23.9175ZM25.6198 23.9175H25.9236V25.7737H25.6198V23.9175ZM26.2527 23.9175H26.5564V25.7737H26.2527V23.9175Z" fill="white"/>
<path fill-rule="evenodd" clip-rule="evenodd" d="M17.7891 23.9176L17.8313 23.8613H18.1266L18.1688 23.9176V25.7738L18.1266 25.8301H17.8313L17.7891 25.7738V23.9176ZM17.8734 23.9738V25.7176H18.0844V23.9738H17.8734ZM18.3797 23.9176L18.4219 23.8613H18.7172L18.7594 23.9176V25.7738L18.7172 25.8301H18.4219L18.3797 25.7738V23.9176ZM18.4641 23.9738V25.7176H18.675V23.9738H18.4641ZM19.0125 23.9176L19.0547 23.8613H19.35L19.3922 23.9176V25.7738L19.35 25.8301H19.0547L19.0125 25.7738V23.9176ZM19.0969 23.9738V25.7176H19.3078V23.9738H19.0969ZM19.6453 23.9176L19.6875 23.8613H19.9828L20.025 23.9176V25.7738L19.9828 25.8301H19.6875L19.6453 25.7738V23.9176ZM19.7297 23.9738V25.7176H19.9406V23.9738H19.7297ZM20.2359 23.9176L20.2781 23.8613H20.5819L20.6241 23.9176V25.7738L20.5819 25.8301H20.2781L20.2359 25.7738V23.9176ZM20.3203 23.9738V25.7176H20.5397V23.9738H20.3203ZM24.3703 23.9176L24.4125 23.8613H24.7163L24.7584 23.9176V25.7738L24.7163 25.8301H24.4125L24.3703 25.7738V23.9176ZM24.4547 23.9738V25.7176H24.6741V23.9738H24.4547ZM24.9441 23.9176L24.9863 23.8613H25.29L25.3322 23.9176V25.7738L25.29 25.8301H24.9863L24.9441 25.7738V23.9176ZM25.0284 23.9738V25.7176H25.2478V23.9738H25.0284ZM25.5769 23.9176L25.6191 23.8613H25.9228L25.965 23.9176V25.7738L25.9228 25.8301H25.6191L25.5769 25.7738V23.9176ZM25.6613 23.9738V25.7176H25.8806V23.9738H25.6613ZM26.2097 23.9176L26.2519 23.8613H26.5556L26.5978 23.9176V25.7738L26.5556 25.8301H26.2519L26.2097 25.7738V23.9176ZM26.2941 23.9738V25.7176H26.5134V23.9738H26.2941Z" fill="black"/>
<path d="M13.9941 26.3809C14.1706 26.2529 14.3034 26.0395 14.3654 25.7847H30.6582C30.7202 26.0395 30.853 26.2529 31.0295 26.3809H13.9941Z" fill="white"/>
<path fill-rule="evenodd" clip-rule="evenodd" d="M14.3334 25.7285H30.6876L30.697 25.7674C30.7556 26.0085 30.8814 26.2104 31.0483 26.3316L31.0281 26.4373H13.9928L13.9727 26.3316C14.1396 26.2104 14.2653 26.0085 14.3239 25.7674L14.3334 25.7285ZM14.3941 25.841C14.3417 26.0321 14.2509 26.1992 14.1325 26.3248H30.8884C30.7701 26.1992 30.6793 26.0321 30.6268 25.841H14.3941Z" fill="black"/>
<path d="M22.3039 13.7025C22.3039 13.7025 22.2955 13.2412 22.498 13.23C22.692 13.23 22.6836 13.7025 22.6836 13.7025H22.3039ZM21.2492 19.8337V19.215C21.2492 18.9 21.013 18.8775 21.013 18.6525C21.013 18.6525 20.9792 18.315 21.0467 18.1575C21.1395 18.6075 21.2998 18.5287 21.2998 18.3375C21.2998 18.18 21.2155 18.0225 21.0214 17.6287C20.9539 17.505 20.9961 17.1112 21.0805 16.965C21.1142 17.3025 21.1564 17.4712 21.2661 17.4712C21.3336 17.4712 21.3842 17.415 21.3842 17.2462C21.3842 17.0212 21.2745 16.9087 21.2155 16.7062C21.1864 16.6055 21.1797 16.4956 21.1961 16.3899C21.2126 16.2842 21.2515 16.187 21.3083 16.11C21.3505 16.4475 21.342 16.5825 21.4517 16.5825C21.6795 16.4812 21.4517 16.0425 21.4011 15.93C21.3505 15.8062 21.4855 15.5475 21.4855 15.5475C21.553 15.8512 21.5698 15.8737 21.6542 15.84C21.7555 15.8062 21.7386 15.615 21.6205 15.4575C21.5445 15.345 21.553 15.1987 21.6373 15.0862C21.7217 15.3 21.823 15.2887 21.8314 15.1537L21.7639 14.6587H23.232L23.1561 15.1425C23.1392 15.2775 23.2742 15.3112 23.3586 15.0862C23.443 15.1987 23.4514 15.3562 23.3755 15.4575C23.2573 15.615 23.2405 15.8062 23.3417 15.84C23.4261 15.8737 23.443 15.84 23.5105 15.5475C23.5105 15.5475 23.637 15.7162 23.5948 15.93C23.5442 16.0425 23.3164 16.4925 23.5442 16.5825C23.6539 16.5825 23.6455 16.4475 23.6877 16.11C23.743 16.1882 23.7804 16.286 23.7953 16.3916C23.8103 16.4973 23.8022 16.6065 23.772 16.7062C23.7214 16.9087 23.6033 17.0212 23.6033 17.2462C23.6033 17.415 23.6623 17.4712 23.7298 17.4712C23.8395 17.4712 23.8817 17.3137 23.9155 16.965C23.9998 17.1112 24.042 17.505 23.9745 17.64C23.7805 18.0225 23.6877 18.18 23.6877 18.3375C23.6877 18.5287 23.8564 18.6075 23.9408 18.1575C24.0167 18.315 23.983 18.6525 23.983 18.6525C23.983 18.8775 23.7552 18.9 23.7467 19.215V19.8337H21.2492ZM21.8567 14.6587L21.823 14.31H23.1645L23.1308 14.6587H21.8567ZM21.9411 14.2987L21.9242 14.0175H23.0633L23.038 14.2987H21.9411ZM22.1352 14.0062L22.1098 13.7137H22.8692L22.8608 14.0062H22.1352ZM24.9195 26.3812C24.7508 26.3025 24.4977 26.055 24.4977 25.8187V23.085L24.717 22.7025H20.2789L20.4898 23.085V25.8187C20.4898 26.055 20.3211 26.3025 20.1523 26.3812H24.9195Z" fill="white"/>
<path d="M21.0547 23.9175H21.3584V25.7737H21.0547V23.9175ZM23.6197 23.9175H23.9234V25.7737H23.6197V23.9175Z" fill="white"/>
<path fill-rule="evenodd" clip-rule="evenodd" d="M21.0117 23.9176L21.0539 23.8613H21.3577L21.3998 23.9176V25.7738L21.3577 25.8301H21.0539L21.0117 25.7738V23.9176ZM21.0961 23.9738V25.7176H21.3155V23.9738H21.0961ZM23.5767 23.9176L23.6189 23.8613H23.9227L23.9648 23.9176V25.7738L23.9227 25.8301H23.6189L23.5767 25.7738V23.9176ZM23.6611 23.9738V25.7176H23.8805V23.9738H23.6611Z" fill="black"/>
<path d="M20.194 19.5977V22.7027H24.7502V19.5977C24.6976 19.6233 24.6503 19.6652 24.6121 19.72C24.574 19.7747 24.5461 19.8408 24.5309 19.9127V21.2402H20.4218V19.9127C20.4218 19.9127 20.3712 19.6877 20.1855 19.5977H20.194Z" fill="white"/>
<path fill-rule="evenodd" clip-rule="evenodd" d="M24.793 19.5171V22.7588H20.1523V19.5975H20.1787L20.1861 19.5413H20.2367V19.5646C20.3189 19.6157 20.3736 19.691 20.4083 19.7563C20.428 19.7934 20.4414 19.8276 20.45 19.8527C20.4542 19.8653 20.4573 19.8758 20.4594 19.8832C20.4604 19.887 20.4612 19.89 20.4618 19.8922L20.4624 19.8949L20.4626 19.8958L20.4627 19.8961L20.4627 19.8962C20.4627 19.8963 20.4628 19.8964 20.4223 19.9125L20.4628 19.8964L20.4645 19.9043V21.1838H24.4892V19.9047L24.4908 19.8972C24.5079 19.8167 24.5391 19.7428 24.5818 19.6816C24.6244 19.6203 24.6774 19.5734 24.7363 19.5447L24.793 19.5171ZM20.3802 19.9219C20.3787 19.9167 20.3764 19.9089 20.3731 19.8992C20.3664 19.8793 20.3555 19.8516 20.3394 19.8213C20.3166 19.7784 20.2835 19.7307 20.2367 19.6922V22.6463H24.7086V19.687C24.6847 19.7066 24.6628 19.7305 24.6436 19.7581C24.6113 19.8045 24.5874 19.8601 24.5736 19.9206V21.2963H20.3802V19.9219Z" fill="black"/>
<path d="M24.1268 26.3815C23.9749 26.3027 23.6543 26.0552 23.6543 25.819V22.759C23.688 22.5902 23.8568 22.489 23.9665 22.3765H20.9543C21.0977 22.489 21.258 22.5677 21.3171 22.759V25.819C21.3171 26.0552 21.064 26.3027 20.9121 26.3815H24.1268Z" fill="white"/>
<path fill-rule="evenodd" clip-rule="evenodd" d="M20.7988 22.3198H24.09L23.9917 22.4207C23.9628 22.4502 23.9304 22.4788 23.8989 22.5065L23.8981 22.5072C23.8664 22.5351 23.8354 22.5624 23.8068 22.5911C23.75 22.6482 23.7103 22.704 23.6959 22.7664V25.8186C23.6959 25.8607 23.7104 25.9088 23.74 25.9613C23.7693 26.0134 23.8109 26.0654 23.8587 26.1142C23.9544 26.212 24.069 26.291 24.1415 26.3286L24.1263 26.4373H20.9116L20.8963 26.3286C20.967 26.292 21.0638 26.2143 21.1424 26.1176C21.2228 26.0187 21.2744 25.9119 21.2744 25.8186V22.7702C21.2487 22.6943 21.2031 22.6372 21.1435 22.5847C21.1125 22.5573 21.0785 22.5319 21.0425 22.5058C21.0352 22.5006 21.0279 22.4953 21.0205 22.4899C20.9915 22.4691 20.9616 22.4475 20.9324 22.4246L20.7988 22.3198ZM21.1173 22.4323C21.142 22.4509 21.1666 22.4702 21.1901 22.4909C21.2587 22.5514 21.3215 22.6267 21.3556 22.7372L21.3588 22.7474V25.8186C21.3588 25.9615 21.2838 26.0966 21.1996 26.2002C21.1623 26.2462 21.1211 26.2884 21.0799 26.3248H23.9446C23.8986 26.2893 23.8513 26.2483 23.8074 26.2035C23.7561 26.1511 23.708 26.092 23.6725 26.0288C23.6372 25.966 23.6116 25.8945 23.6116 25.8186V22.7512L23.613 22.7441C23.6337 22.6404 23.6945 22.5632 23.756 22.5013C23.78 22.4772 23.8053 22.4542 23.83 22.4323H21.1173Z" fill="black"/>
<path d="M24.5309 22.41V20.205H24.1175V19.9912H20.8437V20.2162H20.4219V22.41H24.5309ZM23.4847 26.3812C23.3328 26.3025 23.1219 26.055 23.1219 25.8187V23.2087L23.24 22.9725H21.7466L21.8731 23.1975V25.8187C21.8731 26.055 21.6538 26.3025 21.5103 26.3812H23.4847Z" fill="white"/>
<path fill-rule="evenodd" clip-rule="evenodd" d="M20.8008 19.9351H24.1589V20.1488H24.5723V22.4663H20.3789V20.1601H20.8008V19.9351ZM20.8852 20.0476V20.2726H20.4633V22.3538H24.488V20.2613H24.0745V20.0476H20.8852ZM21.6614 22.9163H23.318L23.1633 23.2258V25.8188C23.1633 25.9158 23.2075 26.0235 23.2762 26.1205C23.3442 26.2164 23.4298 26.2929 23.4992 26.3289L23.4839 26.4376H21.5095L21.4935 26.3293C21.5592 26.2932 21.6451 26.2164 21.7143 26.1202C21.7844 26.0226 21.8302 25.9152 21.8302 25.8188V23.2163L21.6614 22.9163ZM21.8302 23.0288L21.9145 23.1788V25.8188C21.9145 25.9587 21.8506 26.0931 21.7752 26.198C21.7415 26.2449 21.704 26.288 21.6661 26.3251H23.3237C23.2854 26.2879 23.2482 26.2447 23.2149 26.1977C23.1402 26.0923 23.0789 25.958 23.0789 25.8188V23.1918L23.1604 23.0288H21.8302Z" fill="black"/>
<path d="M22.1094 22.9727H22.8688V26.3814H22.1094V22.9727Z" fill="white"/>
<path fill-rule="evenodd" clip-rule="evenodd" d="M22.0664 22.916H22.9102V26.4373H22.0664V22.916ZM22.1508 23.0285V26.3248H22.8258V23.0285H22.1508Z" fill="black"/>
<path d="M23.2638 22.2185C23.2638 21.9935 23.7531 21.9823 24.0063 21.791H20.9688C21.2219 21.9823 21.7028 21.9935 21.7028 22.2185L21.8041 22.6573L23.0697 22.7248L23.2638 22.2185Z" fill="white"/>
<path fill-rule="evenodd" clip-rule="evenodd" d="M20.9492 21.8401L20.97 21.7349H24.0075L24.0283 21.8401C23.9607 21.8912 23.8789 21.9292 23.7965 21.961C23.7449 21.9809 23.691 21.9991 23.6394 22.0166C23.6093 22.0268 23.5799 22.0367 23.5522 22.0466C23.4751 22.074 23.4104 22.1011 23.3654 22.1333C23.3191 22.1665 23.3072 22.1948 23.3072 22.2186L23.3026 22.2442L23.1085 22.7505L23.0693 22.7811L21.8036 22.7136L21.765 22.6739L21.6638 22.2352L21.6619 22.2186C21.6619 22.1944 21.65 22.1661 21.6048 22.1332C21.5606 22.101 21.497 22.074 21.4209 22.0465C21.3934 22.0365 21.364 22.0265 21.3337 22.0161C21.2832 21.9988 21.2303 21.9807 21.1797 21.9609C21.098 21.9291 21.0168 21.8911 20.9492 21.8401ZM21.1892 21.8474C21.1939 21.8492 21.1986 21.8511 21.2033 21.853C21.2531 21.8723 21.3029 21.8894 21.3522 21.9063C21.3828 21.9167 21.4131 21.9271 21.443 21.9379C21.5188 21.9653 21.5913 21.9952 21.6452 22.0344C21.6962 22.0715 21.7429 22.1263 21.7461 22.2094L21.8369 22.6028L23.0457 22.6672L23.2233 22.2039C23.2284 22.1234 23.2751 22.0703 23.3255 22.0342C23.3801 21.9951 23.4536 21.9652 23.5305 21.9379C23.5603 21.9272 23.5906 21.917 23.6212 21.9067C23.6715 21.8897 23.7224 21.8725 23.773 21.8529C23.7777 21.8511 23.7825 21.8492 23.7872 21.8474H21.1892Z" fill="black"/>
<path d="M23.8557 19.8336C23.8557 19.2824 23.8726 19.0799 23.9991 19.0799V20.8124C23.687 20.9699 23.4676 21.4874 23.4676 21.4874H21.5101C21.5101 21.4874 21.2907 20.9699 20.9785 20.8124V19.0686C21.1304 19.0686 21.1304 19.2936 21.1304 19.8224L23.8557 19.8336ZM23.9991 19.6086C23.9991 18.9786 24.4126 18.9111 24.4126 18.9111V19.4736C24.2523 19.4624 24.1763 19.6536 24.1763 19.9236C24.1763 20.2049 24.3029 20.2049 24.3029 20.2049V21.8024H23.9991V19.6086Z" fill="white"/>
<path fill-rule="evenodd" clip-rule="evenodd" d="M24.454 18.8477V19.533L24.4096 19.5299C24.345 19.5254 24.3 19.56 24.2689 19.6239C24.2361 19.6913 24.2177 19.7943 24.2177 19.9237C24.2177 20.0527 24.2464 20.105 24.2658 20.1266C24.2762 20.1382 24.2864 20.1437 24.2936 20.1464C24.2972 20.1477 24.3001 20.1483 24.3017 20.1486C24.3022 20.1486 24.3026 20.1487 24.3028 20.1487H24.3443V21.8587H23.9562V20.8987C23.8341 20.981 23.7278 21.1182 23.6478 21.2452C23.6021 21.3178 23.5659 21.3857 23.5411 21.4353C23.5287 21.4601 23.5192 21.4803 23.5129 21.4942C23.5097 21.5011 23.5073 21.5065 23.5057 21.5101L23.504 21.514L23.5036 21.515L23.5035 21.5151L23.4914 21.5437H21.4847L21.4726 21.5152L21.4725 21.515L21.4721 21.514L21.4704 21.5101C21.4688 21.5065 21.4664 21.5011 21.4632 21.4942C21.4569 21.4803 21.4474 21.4601 21.435 21.4353C21.4102 21.3857 21.374 21.3178 21.3283 21.2452C21.236 21.0987 21.1088 20.9387 20.9628 20.8651L20.9355 20.8513V19.0125H20.9777C21.0242 19.0125 21.0647 19.0302 21.0958 19.073C21.1253 19.1136 21.1418 19.1705 21.1519 19.2359C21.1706 19.3559 21.1717 19.533 21.1718 19.7664L23.8128 19.7773C23.8134 19.5328 23.8182 19.3558 23.838 19.2379C23.8487 19.1742 23.8648 19.1201 23.8918 19.0818C23.9205 19.0409 23.9572 19.0237 23.9984 19.0237H24.0405V19.1735C24.0805 19.0879 24.1305 19.0243 24.181 18.9775C24.2371 18.9257 24.2929 18.8953 24.3346 18.8779C24.3555 18.8692 24.3731 18.8636 24.3856 18.8602C24.3919 18.8585 24.3969 18.8574 24.4005 18.8566C24.4023 18.8562 24.4037 18.8559 24.4047 18.8557L24.406 18.8555L24.4064 18.8554L24.4066 18.8554C24.4066 18.8554 24.4067 18.8554 24.4118 18.9112L24.4067 18.8554L24.454 18.8477ZM24.3696 18.9813C24.3665 18.9826 24.3632 18.9839 24.3598 18.9853C24.324 19.0002 24.2764 19.0262 24.2291 19.0699C24.1363 19.1559 24.0405 19.3135 24.0405 19.6087V21.7462H24.2599V20.25C24.2454 20.243 24.2285 20.2316 24.2118 20.213C24.168 20.1643 24.1334 20.076 24.1334 19.9237C24.1334 19.7832 24.1529 19.6555 24.1982 19.5626C24.2376 19.4817 24.2954 19.4297 24.3696 19.419V18.9813ZM23.9562 19.1549C23.9552 19.1561 23.9543 19.1574 23.9533 19.1587C23.9415 19.1755 23.9297 19.2066 23.9204 19.2624C23.9015 19.3747 23.8971 19.5564 23.8971 19.8337V19.8901L21.0874 19.8785V19.8225C21.0874 19.555 21.0872 19.3739 21.0693 19.2587C21.0605 19.2018 21.0484 19.1694 21.0353 19.1513C21.031 19.1454 21.026 19.1402 21.0199 19.1361V20.7746C21.174 20.8632 21.3027 21.0296 21.3929 21.1729C21.4411 21.2493 21.4792 21.3207 21.5053 21.373C21.5171 21.3967 21.5265 21.4165 21.5333 21.4312H23.4428C23.4496 21.4165 23.459 21.3967 23.4708 21.373C23.4969 21.3207 23.535 21.2493 23.5832 21.1729C23.6734 21.0296 23.8021 20.8632 23.9562 20.7746V19.1549Z" fill="black"/>
<path d="M20.9779 19.6086C20.9779 18.9786 20.5645 18.9111 20.5645 18.9111V19.4736C20.7248 19.4624 20.8007 19.6536 20.8007 19.9236C20.8007 20.2049 20.6741 20.2049 20.6741 20.2049V21.8024H20.9779V19.6086Z" fill="white"/>
<path fill-rule="evenodd" clip-rule="evenodd" d="M20.5708 18.8554L20.5656 18.9112C20.5708 18.8554 20.5707 18.8554 20.5708 18.8554L20.5709 18.8554L20.571 18.8554L20.5714 18.8555L20.5727 18.8557C20.5737 18.8559 20.5752 18.8562 20.577 18.8566C20.5805 18.8574 20.5856 18.8585 20.5918 18.8602C20.6044 18.8636 20.6219 18.8692 20.6428 18.8779C20.6845 18.8953 20.7404 18.9257 20.7964 18.9775C20.9102 19.0828 21.0213 19.2739 21.0213 19.6087V21.8587H20.6331V20.1487H20.6746C20.6748 20.1487 20.6752 20.1486 20.6758 20.1486C20.6774 20.1483 20.6802 20.1477 20.6838 20.1464C20.691 20.1437 20.7012 20.1382 20.7116 20.1266C20.731 20.105 20.7597 20.0527 20.7597 19.9237C20.7597 19.7943 20.7413 19.6913 20.7085 19.6239C20.6774 19.56 20.6324 19.5254 20.5678 19.5299L20.5234 19.533V18.8477L20.5708 18.8554ZM20.7175 20.25V21.7462H20.9369V19.6087C20.9369 19.3135 20.8412 19.1559 20.7483 19.0699C20.701 19.0262 20.6534 19.0002 20.6176 18.9853C20.6142 18.9839 20.611 18.9826 20.6078 18.9813V19.419C20.682 19.4297 20.7399 19.4817 20.7793 19.5626C20.8245 19.6555 20.8441 19.7832 20.8441 19.9237C20.8441 20.076 20.8094 20.1643 20.7656 20.213C20.7489 20.2316 20.732 20.243 20.7175 20.25Z" fill="black"/>
<path fill-rule="evenodd" clip-rule="evenodd" d="M23.2301 15.3H21.7788V15.21H23.2301V15.3ZM23.382 15.9075H21.6101V15.8175H23.382V15.9075ZM23.5423 16.6387H21.4413V16.5487H23.5423V16.6387ZM23.7532 17.5275H21.2641V17.4375H23.7532V17.5275ZM23.7701 18.54H21.2051V18.45H23.7701V18.54Z" fill="black"/>
<path fill-rule="evenodd" clip-rule="evenodd" d="M21.6869 21.8811H20.4297V21.7686H24.5303V21.8811H23.29V22.6236H21.6869V21.8811ZM21.7712 21.8811V22.5111H23.2056V21.8811H21.7712Z" fill="black"/>
<path d="M21.5449 20.16C21.798 20.565 21.7643 21.2513 21.7643 21.6563H23.2324C23.2324 21.2513 23.1987 20.565 23.4518 20.16H21.5449ZM22.3634 15.5475L22.1609 15.4013V15.0075C22.2452 15.0413 22.3296 15.0525 22.3465 15.2325C22.3718 14.9738 22.4309 14.9963 22.5068 14.895C22.5912 14.9963 22.6334 14.9738 22.6671 15.2325C22.6671 15.0525 22.7684 15.0413 22.8443 15.0075V15.4013L22.6502 15.5363L22.3634 15.5475Z" fill="white"/>
<path fill-rule="evenodd" clip-rule="evenodd" d="M22.5055 14.8174L22.5352 14.8531C22.5523 14.8736 22.5673 14.8883 22.5822 14.903C22.5842 14.9049 22.5861 14.9068 22.5881 14.9088C22.6046 14.9251 22.6222 14.9431 22.6382 14.968C22.6525 14.9902 22.6645 15.0163 22.6748 15.0495C22.6841 15.037 22.6943 15.0265 22.7048 15.0176C22.7267 14.999 22.7505 14.987 22.7719 14.9779C22.7818 14.9737 22.7918 14.9698 22.801 14.9663L22.8033 14.9654C22.8134 14.9614 22.8226 14.9579 22.8312 14.954L22.8867 14.9294V15.4352L22.6614 15.592L22.3535 15.6041L22.1189 15.4346V14.9318L22.1732 14.9535C22.1802 14.9563 22.1883 14.9594 22.1969 14.9626C22.2101 14.9675 22.2243 14.9728 22.2363 14.9779C22.2579 14.9872 22.2809 14.9993 22.3024 15.018C22.3144 15.0286 22.3254 15.0408 22.3353 15.0549C22.3466 15.0183 22.3604 14.9901 22.377 14.9663C22.3932 14.9429 22.4111 14.9255 22.4267 14.9104C22.4273 14.9098 22.428 14.9091 22.4286 14.9085C22.4451 14.8924 22.4607 14.8771 22.4772 14.8551L22.5055 14.8174ZM22.508 14.9693C22.4973 14.9809 22.4873 14.9907 22.4784 14.9994C22.4612 15.0161 22.4493 15.0278 22.4388 15.0429C22.42 15.0699 22.4007 15.1155 22.3885 15.2397L22.3049 15.2394C22.2977 15.1627 22.2777 15.131 22.2561 15.1121C22.2437 15.1013 22.2288 15.0929 22.2104 15.085C22.208 15.084 22.2056 15.083 22.2033 15.082V15.3676L22.3737 15.4907L22.6395 15.4803L22.8023 15.367V15.0831C22.8008 15.0837 22.7992 15.0844 22.7977 15.085C22.7787 15.0931 22.763 15.1016 22.7501 15.1125C22.7377 15.123 22.7283 15.1355 22.7216 15.1524C22.7148 15.1695 22.7095 15.1945 22.7095 15.2324L22.6258 15.242C22.6092 15.1152 22.5918 15.0687 22.5741 15.0412C22.5648 15.0267 22.554 15.0152 22.5378 14.9991C22.536 14.9973 22.5341 14.9955 22.5322 14.9936C22.5249 14.9864 22.5168 14.9784 22.508 14.9693ZM21.4551 20.1036H23.5421L23.4844 20.1959C23.3657 20.3859 23.3122 20.6457 23.2893 20.9144C23.2711 21.1289 23.2727 21.3427 23.2741 21.5249C23.2745 21.5708 23.2748 21.6147 23.2748 21.6561V21.7124H21.7223V21.6561C21.7223 21.6147 21.7227 21.5708 21.723 21.5249C21.7244 21.3427 21.7261 21.1289 21.7078 20.9144C21.685 20.6457 21.6315 20.3859 21.5127 20.1959L21.4551 20.1036ZM21.6286 20.2161C21.7267 20.4171 21.7714 20.6627 21.7917 20.9017C21.8106 21.1239 21.8088 21.3468 21.8074 21.5292C21.8072 21.5535 21.807 21.5771 21.8069 21.5999H23.1903C23.1902 21.5771 23.19 21.5535 23.1898 21.5292C23.1883 21.3468 23.1866 21.1239 23.2055 20.9017C23.2258 20.6627 23.2705 20.4171 23.3686 20.2161H21.6286Z" fill="black"/>
<path d="M22.3453 16.1887L22.0078 15.8736V15.5249C22.1344 15.5587 22.2609 15.5812 22.2778 15.7724C22.3116 15.4912 22.3875 15.3562 22.5056 15.2437C22.6153 15.3562 22.6913 15.4912 22.7334 15.7724C22.7419 15.5812 22.8769 15.5587 22.9866 15.5249V15.8849L22.6575 16.1887H22.3453Z" fill="white"/>
<path fill-rule="evenodd" clip-rule="evenodd" d="M22.5077 15.1738L22.5325 15.1993C22.5903 15.2585 22.6407 15.3253 22.682 15.4156C22.7062 15.4685 22.7269 15.5286 22.7443 15.5986C22.7618 15.5738 22.7823 15.5548 22.8037 15.5399C22.8496 15.5079 22.9056 15.4916 22.9525 15.4779C22.9615 15.4753 22.9701 15.4728 22.9782 15.4703L23.0299 15.4544V15.9146L22.6719 16.2451H22.3332L21.9668 15.9031V15.4565L22.0173 15.4699C22.0239 15.4717 22.0307 15.4735 22.0377 15.4753C22.093 15.4897 22.1544 15.5057 22.2043 15.5397C22.2264 15.5547 22.2472 15.5738 22.2651 15.5987C22.281 15.5288 22.3009 15.4687 22.3252 15.4156C22.3669 15.3245 22.42 15.2574 22.4823 15.1981L22.5077 15.1738ZM22.3973 15.4742C22.3629 15.5493 22.3369 15.6459 22.3206 15.7815L22.2371 15.7792C22.2336 15.7397 22.2248 15.7119 22.2134 15.6912C22.202 15.6704 22.1863 15.6537 22.1659 15.6399C22.1343 15.6183 22.0958 15.6058 22.0512 15.5936V15.8446L22.3598 16.1326H22.6455L22.9455 15.8556V15.5953C22.9072 15.607 22.8722 15.6191 22.8427 15.6396C22.8228 15.6535 22.8075 15.67 22.7968 15.6903C22.7863 15.7103 22.7784 15.7372 22.7767 15.7759L22.6932 15.7836C22.6728 15.6476 22.6448 15.5502 22.61 15.4742C22.5811 15.411 22.5467 15.3608 22.5059 15.315C22.4619 15.361 22.4261 15.4112 22.3973 15.4742Z" fill="black"/>
<path d="M22.3198 17.1899L21.9402 16.7399V16.2112C22.0752 16.2562 22.227 16.2787 22.2439 16.5599C22.2861 16.1662 22.3705 15.9524 22.497 15.7949C22.632 15.9524 22.7164 16.1662 22.767 16.5599C22.7839 16.2787 22.9358 16.2562 23.0708 16.2112V16.7399L22.6827 17.1899H22.3198ZM23.0286 17.7862L22.6911 18.4274H22.2945L21.9486 17.7862H23.0286ZM21.7461 18.8549C21.9148 18.9787 21.9823 19.2374 21.9992 19.7099H22.978C22.9948 19.2374 23.0623 18.9787 23.2311 18.8549H21.7461Z" fill="white"/>
<path fill-rule="evenodd" clip-rule="evenodd" d="M22.4969 15.7192L22.5256 15.7527C22.6435 15.8903 22.7234 16.0668 22.7768 16.3443C22.7976 16.3044 22.8236 16.2734 22.8534 16.2491C22.9071 16.2054 22.9726 16.1848 23.0294 16.167C23.0404 16.1635 23.0511 16.1601 23.0613 16.1567L23.1138 16.1392V16.7657L22.6992 17.2463H22.3046L21.8988 16.7653V16.1392L21.9512 16.1567C21.9614 16.1601 21.9721 16.1635 21.9832 16.167C22.0399 16.1848 22.1055 16.2054 22.1591 16.2491C22.1876 16.2722 22.2125 16.3015 22.2327 16.3387C22.2814 16.0647 22.3595 15.8903 22.469 15.7539L22.4969 15.7192ZM22.4988 15.8729C22.3962 16.0161 22.3244 16.214 22.2865 16.568L22.2027 16.5645C22.1952 16.4403 22.1596 16.3813 22.1151 16.3451C22.0778 16.3147 22.0334 16.2989 21.9831 16.2827V16.7148L22.3367 17.1338H22.6677L23.0294 16.7144V16.2827C22.9791 16.2989 22.9347 16.3147 22.8974 16.3451C22.853 16.3813 22.8173 16.4403 22.8099 16.5645L22.7263 16.5695C22.6805 16.2137 22.6078 16.016 22.4988 15.8729ZM21.8671 17.73H23.1105L22.7138 18.4838H22.2737L21.8671 17.73ZM22.0317 17.8425L22.317 18.3713H22.67L22.9483 17.8425H22.0317ZM21.7266 18.9043L21.7469 18.7988H23.2319L23.2522 18.9043C23.1052 19.0121 23.0378 19.2406 23.0209 19.7127L23.019 19.7663H21.9598L21.9579 19.7127C21.941 19.2406 21.8736 19.0121 21.7266 18.9043ZM21.8699 18.9113C21.9779 19.0644 22.0242 19.307 22.04 19.6538H22.9388C22.9546 19.307 23.0009 19.0644 23.1089 18.9113H21.8699Z" fill="black"/>
<path d="M23.2492 17.7751V17.1451C23.1766 17.1657 23.1091 17.2106 23.053 17.2755C22.9969 17.3404 22.9541 17.4233 22.9286 17.5163C22.9286 17.2913 22.7177 16.8076 22.4898 16.5601C22.262 16.8301 22.0427 17.2801 22.0511 17.5051C22.0089 17.3363 21.8992 17.2013 21.7305 17.1451V17.7863L23.2492 17.7751Z" fill="white"/>
<path fill-rule="evenodd" clip-rule="evenodd" d="M22.461 16.5182L22.5157 16.5166C22.6344 16.6455 22.7471 16.8339 22.83 17.0178C22.8716 17.11 22.9063 17.2022 22.9307 17.2867C22.9366 17.3074 22.942 17.3278 22.9468 17.3478C22.9691 17.3058 22.9951 17.2672 23.0245 17.2332C23.086 17.162 23.16 17.1128 23.2396 17.0902L23.2906 17.1452V17.7752L23.2487 17.8315L21.7299 17.8427L21.6875 17.7865V17.1452L21.7399 17.0906C21.8676 17.1332 21.9662 17.2191 22.0298 17.3328C22.034 17.3154 22.0388 17.2978 22.044 17.2801C22.0681 17.1979 22.1033 17.1089 22.1454 17.0196C22.2296 16.8412 22.3439 16.657 22.461 16.5182ZM22.4901 16.6352C22.3888 16.762 22.2906 16.9231 22.2168 17.0795C22.1767 17.1646 22.1443 17.2472 22.1226 17.3211C22.1005 17.396 22.0908 17.4577 22.0924 17.5024L22.0103 17.523C21.9777 17.3925 21.8982 17.2811 21.7719 17.2209V17.7299L23.2063 17.7193V17.2195C23.16 17.2416 23.1171 17.275 23.0799 17.3181C23.0292 17.3768 22.9905 17.4517 22.9674 17.5358L22.8856 17.5165C22.8856 17.4703 22.8745 17.4053 22.8519 17.3271C22.8296 17.2499 22.7973 17.1636 22.7577 17.0758C22.685 16.9146 22.5894 16.7524 22.4901 16.6352Z" fill="black"/>
<path d="M23.3159 18.8551V18.2251C23.1387 18.2926 23.0205 18.4164 22.9699 18.5964C22.9699 18.3714 22.7421 17.8876 22.489 17.6401C22.2359 17.9214 21.9996 18.3601 22.008 18.5964C21.9659 18.4276 21.8393 18.2926 21.6621 18.2251V18.8664L23.3159 18.8551Z" fill="white"/>
<path fill-rule="evenodd" clip-rule="evenodd" d="M22.4612 17.5969L22.5132 17.5947C22.6447 17.7234 22.7683 17.9117 22.8589 18.0958C22.9043 18.1881 22.942 18.2804 22.9685 18.3651C22.9758 18.3885 22.9824 18.4116 22.9881 18.4342C23.0578 18.3103 23.1658 18.2235 23.3035 18.171L23.3573 18.2251V18.8551L23.3153 18.9113L21.6615 18.9226L21.6191 18.8663V18.2251L21.6729 18.171C21.8062 18.2218 21.9168 18.3109 21.9862 18.429C21.9915 18.4078 21.9976 18.3864 22.0044 18.3649C22.0307 18.2818 22.0689 18.1926 22.1149 18.1033C22.2067 17.9246 22.3317 17.7408 22.4612 17.5969ZM22.4897 17.7123C22.3752 17.8449 22.2659 18.0085 22.1844 18.1669C22.1407 18.2519 22.1056 18.3343 22.0821 18.4087C22.0583 18.4839 22.0477 18.5466 22.0494 18.5937L21.9672 18.6141C21.935 18.4853 21.8429 18.3716 21.7035 18.3026V18.8098L23.2729 18.7991V18.3024C23.1353 18.3694 23.0482 18.4755 23.0086 18.6161L22.927 18.5963C22.927 18.5509 22.9151 18.4866 22.8907 18.4085C22.8665 18.3315 22.8315 18.2452 22.7883 18.1575C22.708 17.9944 22.6016 17.8301 22.4897 17.7123Z" fill="black"/>
<path d="M23.5184 20.1711V19.4286C23.3427 19.5018 23.1909 19.6525 23.088 19.8561C23.088 19.4623 22.7505 18.8436 22.489 18.6523C22.219 18.8548 21.8899 19.4848 21.8899 19.8561C21.7845 19.6511 21.6297 19.5003 21.4512 19.4286V20.1711H23.5184Z" fill="white"/>
<path fill-rule="evenodd" clip-rule="evenodd" d="M22.4675 18.6033L22.5085 18.603C22.6473 18.7045 22.8016 18.9148 22.9206 19.1465C23.0136 19.3275 23.0893 19.5295 23.1175 19.7116C23.2205 19.5546 23.3544 19.4376 23.505 19.3749L23.5598 19.4286V20.1711L23.5176 20.2273H21.4504L21.4082 20.1711V19.4286L21.4626 19.3747C21.6165 19.4366 21.7537 19.5544 21.8593 19.7137C21.8874 19.5388 21.9611 19.3399 22.0525 19.1595C22.1704 18.9265 22.3246 18.7105 22.4675 18.6033ZM22.4884 18.7175C22.3664 18.8181 22.2304 19.009 22.1224 19.2224C22.0076 19.4491 21.9313 19.6878 21.9313 19.8561L21.8544 19.8879C21.7652 19.7146 21.6389 19.5822 21.4926 19.5073V20.1148H23.4754V19.5082C23.3321 19.5841 23.2089 19.7161 23.1223 19.8875L23.0451 19.8561C23.0451 19.6765 22.9666 19.435 22.851 19.2101C22.7423 18.9985 22.6066 18.813 22.4884 18.7175Z" fill="black"/>
<path d="M23.4006 21.8248V21.0598C23.1981 21.1611 23.1475 21.4086 23.08 21.5886C23.1053 20.8123 22.7594 19.9911 22.4894 19.7773C22.2194 19.9911 21.865 20.8348 21.8988 21.5773C21.8313 21.4198 21.7722 21.1611 21.5781 21.0598V21.8136L23.4006 21.8248Z" fill="white"/>
<path fill-rule="evenodd" clip-rule="evenodd" d="M22.0413 20.4549C22.1608 20.1205 22.3215 19.8443 22.4671 19.729H22.5101C22.6557 19.8442 22.8142 20.1147 22.9328 20.448C23.0277 20.7148 23.0993 21.0281 23.1179 21.3463C23.17 21.2134 23.2451 21.0772 23.385 21.0072L23.442 21.0599V21.8249L23.3996 21.8811L21.5771 21.8699L21.5352 21.8136V21.0599L21.5927 21.0075C21.7006 21.0638 21.7701 21.1638 21.8205 21.2668C21.8338 21.294 21.8458 21.3216 21.8569 21.3487C21.873 21.0376 21.9451 20.7239 22.0413 20.4549ZM22.1175 20.5033C22.0014 20.8279 21.9238 21.2149 21.9401 21.574L21.8613 21.6053C21.8477 21.5734 21.8342 21.5373 21.8208 21.5011C21.8168 21.4905 21.8129 21.48 21.809 21.4695C21.7911 21.422 21.7722 21.374 21.7498 21.3283C21.716 21.2592 21.675 21.1965 21.6195 21.1506V21.7576L23.3577 21.7684V21.1482C23.2482 21.2325 23.2005 21.3722 23.1525 21.513C23.1409 21.5468 23.1294 21.5806 23.117 21.6138L23.0371 21.5862C23.0494 21.2093 22.9714 20.8191 22.8565 20.4962C22.7475 20.1898 22.6085 19.9527 22.4886 19.8441C22.3686 19.9532 22.2275 20.1953 22.1175 20.5033Z" fill="black"/>
<path d="M23.2654 22.9725V22.2075C23.0545 22.275 23.046 22.3763 22.9785 22.545C23.0038 22.0838 22.7591 21.555 22.4891 21.3525C22.2191 21.555 21.9829 22.0838 21.9998 22.545C21.9323 22.3763 21.9238 22.275 21.7129 22.2075V22.9725H23.2654Z" fill="white"/>
<path fill-rule="evenodd" clip-rule="evenodd" d="M22.4884 21.2881L22.509 21.3036C22.6522 21.4109 22.7858 21.6021 22.8805 21.824C22.948 21.9824 22.997 22.1595 23.0146 22.3368C23.0211 22.3245 23.0281 22.3125 23.036 22.3008C23.0808 22.2342 23.1449 22.1881 23.2548 22.1529L23.3068 22.1363V23.0289H21.6699V22.1363L21.722 22.1529C21.8318 22.1881 21.8959 22.2342 21.9407 22.3008C21.9495 22.3138 21.9573 22.3273 21.9644 22.341C21.9831 22.1626 22.0319 21.9841 22.0993 21.8243C22.1928 21.6025 22.3244 21.4111 22.4677 21.3036L22.4884 21.2881ZM22.1729 21.8794C22.085 22.0878 22.0332 22.3248 22.0411 22.5424L21.9618 22.5716C21.953 22.5497 21.9453 22.5291 21.9382 22.51C21.9375 22.5083 21.9369 22.5066 21.9363 22.505C21.9298 22.4877 21.924 22.4719 21.918 22.457C21.9051 22.4244 21.893 22.3984 21.8779 22.376C21.8545 22.3411 21.8201 22.3094 21.7543 22.2815V22.9164H23.2224V22.2815C23.1566 22.3094 23.1222 22.3411 23.0988 22.376C23.0837 22.3984 23.0716 22.4244 23.0587 22.457C23.0528 22.4719 23.0469 22.4876 23.0404 22.505C23.0398 22.5066 23.0392 22.5083 23.0386 22.51C23.0315 22.5291 23.0237 22.5497 23.015 22.5716L22.9357 22.541C22.9475 22.3244 22.896 22.088 22.8071 21.8796C22.7231 21.6826 22.6079 21.5159 22.4884 21.4179C22.3692 21.5158 22.256 21.6822 22.1729 21.8794Z" fill="black"/>
<path d="M14.3725 25.7849V23.4899C14.3134 23.1974 14.1194 22.9274 13.9844 22.8824V20.8574L14.2966 21.0824L14.6594 23.2087V25.7962L14.3725 25.7849Z" fill="white"/>
<path fill-rule="evenodd" clip-rule="evenodd" d="M13.9414 20.7632L14.3327 21.0452L14.7008 23.2025V25.8542L14.3295 25.8396V23.4976C14.3014 23.3638 14.2427 23.2335 14.1745 23.1307C14.1042 23.0247 14.0289 22.9556 13.9734 22.9371L13.9414 22.9264V20.7632ZM14.0258 20.9519V22.8416C14.0966 22.8782 14.1725 22.9578 14.2377 23.0562C14.3139 23.171 14.3809 23.3191 14.4125 23.4754L14.4139 23.4826V25.7304L14.6164 25.7383V23.2151L14.2589 21.1199L14.0258 20.9519Z" fill="black"/>
<path d="M14.3725 25.7959V23.4897C14.3134 23.1972 14.1194 22.9272 13.9844 22.8822V20.7222C14.1953 20.7222 14.2966 21.0822 14.2966 21.0822L14.6594 23.2084V25.7847L14.3725 25.7959Z" fill="white"/>
<path fill-rule="evenodd" clip-rule="evenodd" d="M13.9414 20.666H13.9836C14.1086 20.666 14.1975 20.7727 14.2523 20.8681C14.2801 20.9166 14.3007 20.9648 14.3143 21.0007C14.3211 21.0187 14.3263 21.0338 14.3298 21.0445C14.3315 21.0499 14.3328 21.0542 14.3337 21.0573L14.3348 21.0609L14.3351 21.062L14.3352 21.0623L14.3353 21.0624C14.3353 21.0624 14.3353 21.0625 14.2958 21.0823L14.3353 21.0624L14.3363 21.0661L14.7008 23.2022V25.8394L14.3295 25.8539V23.4973C14.3014 23.3636 14.2427 23.2332 14.1745 23.1305C14.1042 23.0245 14.0289 22.9553 13.9734 22.9368L13.9414 22.9262V20.666ZM14.2553 21.0989C14.2547 21.0966 14.2537 21.0933 14.2523 21.0891C14.2494 21.0801 14.245 21.0671 14.239 21.0514C14.227 21.0198 14.2091 20.978 14.1853 20.9365C14.145 20.8662 14.0918 20.8038 14.0258 20.7846V22.8414C14.0966 22.878 14.1725 22.9575 14.2377 23.0559C14.3139 23.1707 14.3809 23.3189 14.4125 23.4751L14.4139 23.4823V25.7381L14.6164 25.7301V23.2148L14.2553 21.0989Z" fill="black"/>
<path d="M14.1445 26.3809C14.288 26.3021 14.4989 26.0546 14.4989 25.8184V22.9384L14.3977 22.7134H18.0848L17.9414 22.9384V25.8184C17.9476 25.9376 17.9774 26.0525 18.0278 26.1513C18.0782 26.2502 18.1474 26.3294 18.2283 26.3809H14.1445Z" fill="white"/>
<path fill-rule="evenodd" clip-rule="evenodd" d="M14.3216 22.6572H18.1746L17.9821 22.9592V25.8165C17.988 25.9251 18.0153 26.0297 18.0612 26.1198C18.1074 26.2104 18.1708 26.283 18.2449 26.3302L18.2268 26.4372H14.143L14.127 26.329C14.1924 26.2931 14.276 26.2166 14.3431 26.1205C14.4109 26.0233 14.4552 25.9156 14.4552 25.8185V22.9541L14.3216 22.6572ZM14.4707 22.7697L14.5396 22.9229V25.8185C14.5396 25.9576 14.4784 26.0918 14.4049 26.1971C14.372 26.2442 14.3353 26.2875 14.2979 26.3247H18.086C18.0501 26.2834 18.0183 26.2358 17.9914 26.1831C17.9368 26.076 17.9045 25.9515 17.8978 25.8224L17.8977 25.8204V22.9178L17.9921 22.7697H14.4707Z" fill="black"/>
<path d="M17.4757 26.3809C17.3323 26.3021 17.1213 26.0546 17.1213 25.8184V23.0847L17.4251 22.7021H14.9276L15.2313 23.0847V25.8184C15.2313 26.0546 15.0204 26.3021 14.877 26.3809H17.4757Z" fill="white"/>
<path fill-rule="evenodd" clip-rule="evenodd" d="M14.8223 22.646H17.532L17.1643 23.109V25.8185C17.1643 25.9156 17.2086 26.0233 17.2764 26.1205C17.3435 26.2166 17.4272 26.2931 17.4926 26.329L17.4765 26.4372H14.8778L14.8617 26.329C14.9271 26.2931 15.0108 26.2166 15.0778 26.1205C15.1457 26.0233 15.1899 25.9156 15.1899 25.8185V23.109L14.8223 22.646ZM15.0345 22.7585L15.2743 23.0605V25.8185C15.2743 25.9576 15.2131 26.0918 15.1396 26.1971C15.1067 26.2442 15.0701 26.2875 15.0327 26.3247H17.3216C17.2842 26.2875 17.2475 26.2442 17.2146 26.1971C17.1412 26.0918 17.0799 25.9576 17.0799 25.8185V23.0605L17.3198 22.7585H15.0345Z" fill="black"/>
<path d="M17.1315 26.3809C16.988 26.3022 16.7687 26.0547 16.7687 25.8184V23.3434L16.9712 22.9722H15.3849L15.5874 23.3434V25.8184C15.5874 26.0547 15.3765 26.3022 15.2246 26.3809H17.1315Z" fill="white"/>
<path fill-rule="evenodd" clip-rule="evenodd" d="M15.3017 22.916H17.0537L16.8105 23.3618V25.8185C16.8105 25.9149 16.8563 26.0223 16.9264 26.1199C16.9956 26.2162 17.0815 26.2929 17.1472 26.329L17.1312 26.4373H15.2243L15.209 26.3286C15.2784 26.2926 15.364 26.2161 15.432 26.1202C15.5007 26.0232 15.5449 25.9155 15.5449 25.8185V23.3618L15.3017 22.916ZM15.4674 23.0285L15.6293 23.3252V25.8185C15.6293 25.9577 15.568 26.092 15.4933 26.1974C15.46 26.2444 15.4228 26.2876 15.3845 26.3248H16.9746C16.9366 26.2877 16.8992 26.2446 16.8655 26.1977C16.7901 26.0928 16.7262 25.9584 16.7262 25.8185V23.3252L16.888 23.0285H15.4674Z" fill="black"/>
<path d="M15.8053 22.9722H16.5563V26.3922H15.7969L15.8053 22.9722Z" fill="white"/>
<path fill-rule="evenodd" clip-rule="evenodd" d="M15.7626 22.916H16.5978V26.4485H15.7539L15.7626 22.916ZM15.8467 23.0285L15.8386 26.336H16.5134V23.0285H15.8467Z" fill="black"/>
<path d="M14.7674 23.9172H15.0712V25.7734H14.7674V23.9172ZM17.3662 23.9172H17.6615V25.7734H17.3577L17.3662 23.9172ZM14.5059 20.7897H14.8771V22.7022H14.5059V20.7897ZM14.5059 20.4297H14.8687V20.7897H14.5059V20.4297ZM17.5096 21.2059H18.0243V22.6684H17.5096V21.2059Z" fill="white"/>
<path fill-rule="evenodd" clip-rule="evenodd" d="M14.4648 20.4298L14.507 20.3735H14.8698L14.912 20.4298V20.7785L14.9205 20.7898V22.7023L14.8783 22.7585H14.507L14.4648 22.7023V20.4298ZM14.5492 20.846V22.646H14.8361V20.846H14.5492ZM14.8277 20.7335H14.5492V20.486H14.8277V20.7335ZM17.4686 21.206L17.5108 21.1498H18.0255L18.0677 21.206V22.6685L18.0255 22.7248H17.5108L17.4686 22.6685V21.206ZM17.553 21.2623V22.6123H17.9833V21.2623H17.553ZM14.7264 23.9173L14.7686 23.861H15.0723L15.1145 23.9173V25.7735L15.0723 25.8298H14.7686L14.7264 25.7735V23.9173ZM14.8108 23.9735V25.7173H15.0302V23.9735H14.8108ZM17.3252 23.9169L17.3673 23.861H17.6627L17.7048 23.9173V25.7735L17.6627 25.8298H17.3589L17.3167 25.7732L17.3252 23.9169ZM17.4093 23.9735L17.4013 25.7173H17.6205V23.9735H17.4093Z" fill="black"/>
<path d="M14.8693 22.6797V19.4172C14.9705 19.4172 14.9874 19.9009 15.2237 19.9009C15.3502 19.9009 15.3418 19.6984 15.2659 19.5409C15.2068 19.3947 15.1309 19.2034 15.2321 18.8322C15.308 19.1134 15.4937 19.2034 15.4599 19.0347C15.4009 18.7309 15.2237 18.6747 15.3587 18.2134C15.4009 18.5959 15.5865 18.5847 15.5443 18.3597C15.4937 18.1009 15.384 17.9884 15.519 17.6284C15.5949 18.0447 15.6877 18.0222 15.6877 17.7634C15.6877 17.3809 15.6877 16.9759 16.0421 16.8297C16.0421 16.8297 16.0674 16.4922 16.2024 16.4922C16.329 16.4922 16.3543 16.8297 16.3543 16.8297C16.7171 16.9759 16.7087 17.3922 16.7087 17.7634C16.7087 18.0222 16.8015 18.0447 16.8774 17.6284C17.0124 17.9884 16.9027 18.1009 16.8521 18.3597C16.8099 18.5847 16.9955 18.5959 17.0377 18.2134C17.1727 18.6747 16.9955 18.7309 16.9365 19.0347C16.9027 19.2034 17.0884 19.1134 17.1643 18.8322C17.2655 19.2034 17.1896 19.3947 17.1305 19.5409C17.063 19.6984 17.0462 19.9009 17.1727 19.9009C17.409 19.9009 17.4259 19.4284 17.5271 19.4284V22.6797H14.8693ZM14.2871 20.2159V22.7022H14.498V20.2159C14.4221 20.1597 14.3546 20.1597 14.2871 20.2159Z" fill="white"/>
<path fill-rule="evenodd" clip-rule="evenodd" d="M16.0833 16.8354L16.0805 16.8725L16.0538 16.8835C15.8896 16.9513 15.811 17.0758 15.771 17.2268C15.7296 17.3833 15.7291 17.5699 15.7291 17.7635C15.7291 17.8312 15.7232 17.8897 15.7103 17.9316C15.7038 17.9524 15.6941 17.9744 15.6786 17.9896C15.661 18.0068 15.6394 18.0118 15.6181 18.0027C15.5993 17.9946 15.5844 17.9771 15.5727 17.9587C15.5607 17.9396 15.5494 17.9152 15.5388 17.8865C15.5296 17.8618 15.5205 17.8327 15.5116 17.799C15.4912 17.8904 15.4927 17.9588 15.5025 18.0204C15.5101 18.0681 15.5231 18.1136 15.5386 18.1667L15.5401 18.1718C15.5549 18.2227 15.5714 18.2795 15.5843 18.3456L15.5844 18.3461C15.5964 18.4101 15.5945 18.4703 15.5743 18.5148C15.5639 18.5377 15.5488 18.5559 15.5296 18.5657C15.5106 18.5755 15.4903 18.5757 15.4712 18.5687C15.434 18.5552 15.4006 18.515 15.3747 18.4588C15.3685 18.4454 15.3626 18.4308 15.357 18.4149C15.3531 18.4443 15.3511 18.4709 15.3506 18.4952C15.3494 18.5608 15.3592 18.6126 15.3746 18.6613C15.3864 18.6985 15.4008 18.7321 15.417 18.7702C15.4232 18.7847 15.4297 18.7998 15.4364 18.816C15.4599 18.8731 15.4839 18.9382 15.4999 19.0205C15.5094 19.0679 15.51 19.1308 15.4699 19.1623C15.4522 19.1763 15.4326 19.1778 15.416 19.1747C15.3993 19.1716 15.3825 19.1632 15.3666 19.152C15.3246 19.1223 15.2787 19.0653 15.2407 18.9855C15.2209 19.098 15.2207 19.1878 15.2297 19.262C15.2421 19.3634 15.2722 19.44 15.3015 19.5125C15.3421 19.5975 15.3671 19.6988 15.362 19.7846C15.3593 19.8286 15.3484 19.8728 15.3236 19.9064C15.2983 19.9407 15.2633 19.9573 15.2229 19.9573C15.0779 19.9573 15.0041 19.8061 14.9575 19.6848C14.9475 19.6587 14.9382 19.6325 14.9297 19.6084C14.928 19.6036 14.9263 19.599 14.9247 19.5945C14.9198 19.5807 14.9152 19.5678 14.9107 19.5558V22.6235H17.4841V19.5645C17.4796 19.5762 17.4749 19.589 17.4699 19.6026C17.4683 19.6071 17.4667 19.6116 17.465 19.6162C17.4565 19.6398 17.4472 19.6654 17.4371 19.6909C17.3903 19.81 17.3165 19.9573 17.172 19.9573C17.1315 19.9573 17.0967 19.9407 17.0718 19.9055C17.0476 19.8714 17.0379 19.8268 17.036 19.7835C17.0321 19.6984 17.057 19.5976 17.0929 19.5138C17.1223 19.4409 17.1527 19.364 17.1651 19.262C17.1742 19.1878 17.1739 19.098 17.1542 18.9855C17.1161 19.0653 17.0702 19.1223 17.0282 19.152C17.0123 19.1632 16.9955 19.1716 16.9788 19.1747C16.9622 19.1778 16.9427 19.1763 16.9249 19.1623C16.8849 19.1308 16.8855 19.0678 16.8949 19.0205C16.9109 18.9382 16.9349 18.8731 16.9585 18.816C16.9652 18.7998 16.9716 18.7847 16.9778 18.7702C16.9941 18.7321 17.0085 18.6985 17.0202 18.6613C17.0357 18.6126 17.0455 18.5608 17.0442 18.4952C17.0437 18.4709 17.0417 18.4443 17.0378 18.4149C17.0323 18.4308 17.0264 18.4454 17.0202 18.4588C16.9943 18.515 16.9609 18.5552 16.9236 18.5687C16.9045 18.5757 16.8843 18.5755 16.8652 18.5657C16.8461 18.5559 16.8309 18.5377 16.8205 18.5148C16.8003 18.4703 16.7984 18.4101 16.8104 18.3461L16.8105 18.3456C16.8234 18.2795 16.84 18.2227 16.8548 18.1718L16.8563 18.1667C16.8717 18.1136 16.8847 18.0681 16.8923 18.0204C16.9022 17.9588 16.9036 17.8904 16.8833 17.799C16.8743 17.8327 16.8652 17.8618 16.8561 17.8865C16.8455 17.9152 16.8342 17.9396 16.8221 17.9587C16.8105 17.9771 16.7955 17.9946 16.7767 18.0027C16.7555 18.0118 16.7338 18.0068 16.7163 17.9896C16.7008 17.9744 16.691 17.9524 16.6846 17.9316C16.6716 17.8897 16.6657 17.8312 16.6657 17.7635C16.6657 17.7565 16.6657 17.7495 16.6657 17.7425C16.6658 17.561 16.6658 17.3826 16.6268 17.2305C16.5879 17.0784 16.5094 16.9514 16.3413 16.8836L16.3143 16.8728L16.3115 16.8354L16.3115 16.8349L16.3113 16.8325C16.3111 16.8304 16.3108 16.8271 16.3104 16.8228C16.3095 16.8144 16.3081 16.802 16.3061 16.7872C16.302 16.7573 16.2953 16.7181 16.2852 16.6796C16.2749 16.6404 16.262 16.6056 16.2466 16.5814C16.2318 16.5582 16.2173 16.5485 16.2016 16.5485C16.1828 16.5485 16.1666 16.5595 16.151 16.5826C16.1347 16.6068 16.1212 16.6415 16.1105 16.6804C16.0999 16.7187 16.0931 16.7577 16.0888 16.7875C16.0868 16.8023 16.0853 16.8145 16.0845 16.823C16.084 16.8272 16.0837 16.8304 16.0835 16.8326L16.0833 16.8349L16.0833 16.8354ZM16.3917 16.7871C16.3909 16.781 16.3901 16.7742 16.3891 16.7669C16.3845 16.7335 16.3769 16.6883 16.3649 16.6425C16.353 16.5973 16.3359 16.5477 16.3109 16.5086C16.2854 16.4686 16.2493 16.436 16.2016 16.436C16.1529 16.436 16.1154 16.4672 16.0883 16.5074C16.0618 16.5466 16.0437 16.5962 16.0313 16.6417C16.0186 16.6877 16.0107 16.7331 16.0059 16.7666C16.0049 16.7741 16.004 16.781 16.0032 16.7873C15.8297 16.8685 15.7379 17.0141 15.6915 17.1893C15.6448 17.3658 15.6448 17.5708 15.6448 17.7582V17.7635C15.6448 17.8189 15.6402 17.8579 15.6343 17.8813C15.6286 17.8714 15.6219 17.8569 15.6144 17.8367C15.5969 17.7894 15.5778 17.7171 15.5592 17.6152L15.532 17.466L15.4805 17.6034C15.4096 17.7923 15.4007 17.9234 15.42 18.0439C15.4292 18.1017 15.4447 18.1553 15.4599 18.2073L15.4609 18.211C15.476 18.2626 15.491 18.3141 15.5026 18.3737C15.5117 18.422 15.5062 18.4476 15.5022 18.4565C15.5012 18.4586 15.5005 18.4596 15.5 18.4601C15.4999 18.4603 15.4997 18.4604 15.4996 18.4605C15.4994 18.4607 15.4993 18.4607 15.4992 18.4608C15.4992 18.4608 15.4976 18.4617 15.4934 18.4602C15.4843 18.4569 15.466 18.4422 15.4466 18.4C15.4276 18.3587 15.4096 18.2954 15.3996 18.2054L15.3765 17.9953L15.3186 18.1931C15.2837 18.3124 15.2679 18.409 15.2663 18.4923C15.2646 18.5764 15.2775 18.6441 15.2969 18.7051C15.3108 18.7489 15.3287 18.7909 15.3458 18.8308C15.3515 18.8442 15.3571 18.8574 15.3625 18.8703C15.3845 18.9236 15.4048 18.9794 15.4183 19.0489L15.4184 19.0493C15.4193 19.0539 15.4199 19.0577 15.4203 19.0609C15.4165 19.0592 15.4117 19.0565 15.4061 19.0526C15.3654 19.0238 15.3061 18.9433 15.271 18.8132L15.2315 18.667L15.1917 18.8131C15.139 19.0062 15.1314 19.1566 15.1464 19.2801C15.1614 19.4028 15.1984 19.4945 15.2279 19.5677L15.2287 19.5696L15.2296 19.5715C15.2644 19.6436 15.2811 19.7214 15.2779 19.7756C15.2763 19.802 15.2704 19.8182 15.2635 19.8275C15.2572 19.836 15.2457 19.8448 15.2229 19.8448C15.1317 19.8448 15.0789 19.7541 15.0326 19.6335C15.0233 19.6092 15.0147 19.5848 15.0061 19.5607C15.0044 19.5559 15.0027 19.5511 15.001 19.5462C14.9909 19.518 14.9806 19.4897 14.97 19.4649C14.9595 19.4405 14.9471 19.4159 14.9319 19.397C14.9162 19.3774 14.8951 19.361 14.8685 19.361H14.8263V22.736H17.5685V19.3723H17.5263C17.5001 19.3723 17.4791 19.3881 17.4633 19.4073C17.448 19.4259 17.4356 19.45 17.4251 19.4739C17.4144 19.4982 17.4041 19.5259 17.3941 19.5535C17.3923 19.5582 17.3906 19.5629 17.3889 19.5676C17.3804 19.5912 17.3717 19.6149 17.3624 19.6387C17.3164 19.7558 17.2637 19.8448 17.172 19.8448C17.1491 19.8448 17.1386 19.8361 17.1332 19.8284C17.127 19.8196 17.1214 19.8037 17.1202 19.7767C17.1177 19.7214 17.1349 19.6425 17.1664 19.5689L17.1667 19.5683L17.1669 19.5677C17.1965 19.4945 17.2334 19.4028 17.2484 19.2801C17.2634 19.1566 17.2558 19.0062 17.2032 18.8131L17.1633 18.667L17.1238 18.8132C17.0887 18.9433 17.0294 19.0238 16.9887 19.0526C16.9831 19.0565 16.9784 19.0592 16.9745 19.0609C16.9749 19.0577 16.9756 19.0539 16.9765 19.0493L16.9765 19.0489C16.99 18.9794 17.0103 18.9236 17.0324 18.8703C17.0377 18.8574 17.0433 18.8442 17.0491 18.8308C17.0661 18.7909 17.0841 18.7489 17.098 18.7051C17.1173 18.6441 17.1302 18.5764 17.1286 18.4923C17.127 18.409 17.1112 18.3124 17.0763 18.1931L17.0184 17.9953L16.9952 18.2054C16.9853 18.2954 16.9673 18.3587 16.9483 18.4C16.9288 18.4422 16.9105 18.4569 16.9014 18.4602C16.8973 18.4617 16.8957 18.4608 16.8956 18.4608C16.8955 18.4607 16.8955 18.4607 16.8954 18.4606C16.8952 18.4605 16.895 18.4604 16.8948 18.4601C16.8944 18.4596 16.8936 18.4586 16.8927 18.4565C16.8886 18.4476 16.8832 18.422 16.8922 18.3737C16.9039 18.3141 16.9189 18.2626 16.9339 18.211L16.935 18.2073C16.9501 18.1553 16.9656 18.1017 16.9749 18.0439C16.9941 17.9234 16.9852 17.7923 16.9144 17.6034L16.8629 17.466L16.8356 17.6152C16.8171 17.7171 16.7979 17.7894 16.7804 17.8367C16.773 17.8569 16.7662 17.8714 16.7605 17.8813C16.7547 17.8579 16.7501 17.8189 16.7501 17.7635C16.7501 17.7543 16.7501 17.7451 16.7501 17.7358C16.7502 17.5602 16.7504 17.3645 16.7067 17.1941C16.6613 17.0171 16.5694 16.8685 16.3917 16.7871ZM16.9741 19.075C16.974 19.075 16.9739 19.0745 16.9738 19.0732C16.9741 19.0742 16.9742 19.0749 16.9741 19.075ZM15.4207 19.075C15.4207 19.0749 15.4207 19.0742 15.4211 19.0732C15.421 19.0745 15.4208 19.075 15.4207 19.075ZM15.4305 19.0636C15.4306 19.0636 15.4306 19.0636 15.4306 19.0636L15.4305 19.0636ZM14.3886 20.1176C14.4323 20.1176 14.4752 20.1353 14.5178 20.1669L14.5395 20.1829V22.7585H14.2441V20.1849L14.264 20.1683C14.3033 20.1355 14.3447 20.1176 14.3886 20.1176ZM14.3285 20.2492V22.646H14.4551V20.2507C14.4307 20.2364 14.4088 20.2301 14.3886 20.2301C14.3691 20.2301 14.3493 20.236 14.3285 20.2492Z" fill="black"/>
<path d="M14.3047 21.8249C14.5662 22.0049 14.8278 22.2187 14.8953 22.7024H14.3047V21.8249ZM17.9497 21.0824V22.7024H18.1184V21.0824C18.0678 21.0487 17.9919 21.0374 17.9497 21.0824Z" fill="white"/>
<path fill-rule="evenodd" clip-rule="evenodd" d="M18.0316 20.9968C18.0683 20.9985 18.1059 21.0118 18.1365 21.0322L18.1598 21.0477V22.7588H17.9067V21.0555L17.9226 21.0386C17.9544 21.0046 17.9954 20.9951 18.0316 20.9968ZM17.9911 21.1154V22.6463H18.0755V21.1203C18.0606 21.114 18.0443 21.1099 18.0287 21.1092C18.0136 21.1085 18.001 21.1109 17.9911 21.1154ZM14.2617 21.7327L14.3233 21.775C14.5856 21.9556 14.8645 22.1801 14.936 22.6922L14.9453 22.7588H14.2617V21.7327ZM14.3461 21.9182V22.6463H14.8422C14.7714 22.2712 14.57 22.0789 14.3461 21.9182Z" fill="black"/>
<path d="M18.1173 21.8246C17.8558 21.9933 17.5942 22.1958 17.5267 22.6908H18.1173V21.8246ZM16.3792 18.0333L16.5311 17.8646V17.6396C16.4805 17.6396 16.4467 17.6733 16.4045 17.7521C16.3882 17.6798 16.361 17.6127 16.3248 17.5547C16.2886 17.4967 16.2439 17.4491 16.1936 17.4146C16.1425 17.4466 16.0968 17.492 16.0591 17.548C16.0214 17.6041 15.9926 17.6696 15.9742 17.7408C15.932 17.6621 15.9067 17.6508 15.8477 17.6283V17.8533L15.9995 18.0333H16.3792Z" fill="white"/>
<path fill-rule="evenodd" clip-rule="evenodd" d="M16.1956 17.3521L16.2141 17.3647C16.2694 17.4027 16.3185 17.4551 16.3584 17.5189C16.3825 17.5574 16.4029 17.5996 16.4192 17.6445C16.4265 17.6354 16.4341 17.6272 16.442 17.62C16.4694 17.595 16.4989 17.5835 16.5323 17.5835H16.5745V17.8911L16.3957 18.0897H15.9847L15.8066 17.8787V17.5539L15.8604 17.5744C15.889 17.5853 15.9157 17.5955 15.9404 17.6156C15.9483 17.6221 15.9558 17.6293 15.963 17.6375C15.9808 17.5918 16.003 17.5492 16.0289 17.5107C16.0703 17.449 16.1206 17.3991 16.1768 17.3638L16.1956 17.3521ZM16.1939 17.4783C16.1555 17.506 16.1209 17.5423 16.0917 17.5858C16.0578 17.6362 16.0318 17.6952 16.0153 17.7593L15.9887 17.8626L15.9411 17.7737C15.9217 17.7375 15.9087 17.7216 15.8964 17.7116C15.8947 17.7102 15.8929 17.7088 15.891 17.7075V17.8282L16.0167 17.9772H16.3651L16.4901 17.8384V17.7125C16.4899 17.7126 16.4898 17.7127 16.4896 17.7129C16.4757 17.7256 16.4601 17.7475 16.44 17.7849L16.3902 17.878L16.3653 17.7685C16.3506 17.7035 16.3262 17.6431 16.2936 17.5909C16.2654 17.5459 16.2317 17.5078 16.1939 17.4783ZM18.1607 21.735V22.7472H17.4773L17.4864 22.6809C17.5579 22.1568 17.8374 21.9436 18.1001 21.7741L18.1607 21.735ZM17.58 22.6347H18.0763V21.9152C17.8521 22.0665 17.6505 22.2508 17.58 22.6347Z" fill="black"/>
<path d="M16.4636 18.5847L16.5311 18.371V18.0897C16.4805 18.0897 16.4467 18.1235 16.4045 18.2022C16.3882 18.13 16.361 18.0629 16.3248 18.0049C16.2886 17.9469 16.2439 17.8993 16.1936 17.8647C16.1425 17.8968 16.0968 17.9422 16.0591 17.9982C16.0214 18.0543 15.9926 18.1198 15.9742 18.191C15.932 18.1122 15.9067 18.101 15.8477 18.0897V18.371L15.9152 18.5847H16.4636Z" fill="white"/>
<path fill-rule="evenodd" clip-rule="evenodd" d="M16.1956 17.8022L16.2141 17.8149C16.2694 17.8529 16.3185 17.9053 16.3584 17.9691C16.3825 18.0076 16.4029 18.0498 16.4192 18.0946C16.4265 18.0856 16.4341 18.0774 16.442 18.0702C16.4694 18.0452 16.4989 18.0337 16.5323 18.0337H16.5745V18.3825L16.4928 18.6412H15.8883L15.8066 18.3825V18.0251L15.8548 18.0342C15.8844 18.0399 15.9125 18.0465 15.9389 18.0661C15.9474 18.0723 15.9553 18.0796 15.9628 18.088C15.9807 18.0422 16.0029 17.9995 16.0289 17.9609C16.0703 17.8992 16.1206 17.8493 16.1768 17.814L16.1956 17.8022ZM16.1939 17.9285C16.1555 17.9562 16.1209 17.9925 16.0917 18.036C16.0578 18.0864 16.0318 18.1454 16.0153 18.2095L15.9887 18.3128L15.9411 18.2239C15.9215 18.1873 15.909 18.1726 15.8979 18.1644C15.8958 18.1628 15.8935 18.1613 15.891 18.1599V18.3598L15.9443 18.5287H16.4368L16.4901 18.3598V18.1627C16.4899 18.1628 16.4898 18.1629 16.4896 18.1631C16.4757 18.1758 16.4601 18.1977 16.44 18.2351L16.3902 18.3282L16.3653 18.2187C16.3506 18.1537 16.3262 18.0933 16.2936 18.0411C16.2654 17.9961 16.2317 17.958 16.1939 17.9285Z" fill="black"/>
<path d="M16.4813 19.3274L16.7006 18.9561V18.5961C16.6162 18.5961 16.5741 18.6524 16.515 18.7761C16.4559 18.5174 16.3462 18.4724 16.1944 18.3486C16.0341 18.4611 15.9244 18.5174 15.8738 18.7649C15.8063 18.6411 15.7641 18.6074 15.6797 18.5961V18.9561L15.9075 19.3274H16.4813Z" fill="white"/>
<path fill-rule="evenodd" clip-rule="evenodd" d="M16.1951 18.2837L16.2156 18.3004C16.2367 18.3175 16.2579 18.3338 16.2787 18.3498C16.3281 18.3877 16.3756 18.4242 16.4155 18.4681C16.4596 18.5165 16.4963 18.575 16.5254 18.657C16.5399 18.6331 16.5551 18.6122 16.5716 18.595C16.6084 18.557 16.6494 18.5396 16.6998 18.5396H16.742V18.9753L16.5009 19.3833H15.8867L15.6367 18.9759V18.5337L15.6831 18.5399C15.729 18.546 15.7679 18.5588 15.8051 18.5907C15.8237 18.6067 15.8411 18.6267 15.8582 18.6511C15.885 18.5704 15.9208 18.5113 15.9653 18.4624C16.0139 18.4091 16.0729 18.3684 16.136 18.3249C16.1485 18.3162 16.1612 18.3075 16.1739 18.2986L16.1951 18.2837ZM16.019 18.5493C15.9723 18.6005 15.9368 18.6662 15.9137 18.7794L15.8905 18.8925L15.8389 18.7977C15.8061 18.7376 15.7823 18.705 15.7595 18.6854C15.7479 18.6755 15.7357 18.6681 15.7211 18.6626V18.9358L15.9267 19.2708H16.46L16.6577 18.9364V18.6596C16.6448 18.6649 16.6339 18.673 16.6234 18.6838C16.6011 18.707 16.5791 18.7447 16.5498 18.8061L16.5006 18.9092L16.4739 18.7922C16.4466 18.6729 16.4089 18.6066 16.3619 18.5549C16.3276 18.5172 16.2896 18.4881 16.2437 18.4529C16.2276 18.4405 16.2104 18.4274 16.1921 18.4129C16.1854 18.4175 16.1789 18.422 16.1724 18.4265C16.1094 18.4701 16.06 18.5043 16.019 18.5493Z" fill="black"/>
<path d="M16.5393 20.0587C16.5393 20.0587 16.8093 19.755 16.8177 19.5862V19.1925C16.7165 19.2037 16.6237 19.2375 16.5477 19.4063C16.4802 19.08 16.379 18.99 16.1934 18.8438C15.9993 18.99 15.898 19.08 15.839 19.4063C15.7546 19.2375 15.6702 19.2038 15.5605 19.1813V19.5862C15.6314 19.7647 15.7257 19.9247 15.839 20.0587H16.5393Z" fill="white"/>
<path fill-rule="evenodd" clip-rule="evenodd" d="M16.195 18.7788L16.216 18.7953C16.3082 18.868 16.3852 18.9308 16.4469 19.0192C16.4954 19.0887 16.5332 19.1719 16.5641 19.2842C16.5923 19.2429 16.6227 19.2124 16.6552 19.1903C16.7078 19.1544 16.7627 19.1423 16.8154 19.1365L16.8611 19.1314V19.5881L16.861 19.59C16.8581 19.6479 16.8341 19.709 16.8068 19.7628C16.7785 19.8185 16.7423 19.8748 16.7072 19.9244C16.672 19.9742 16.6372 20.0184 16.6113 20.0501C16.5983 20.066 16.5875 20.0788 16.5799 20.0877C16.5761 20.0922 16.5731 20.0956 16.571 20.098L16.5686 20.1007L16.5679 20.1015L16.5678 20.1017L16.5677 20.1018C16.5677 20.1018 16.5677 20.1018 16.5405 20.0588L16.5677 20.1018L16.5559 20.115H15.8241L15.8122 20.1008C15.6951 19.9624 15.5977 19.797 15.5244 19.6126L15.5195 19.6002V19.1157L15.5681 19.1257C15.624 19.1371 15.6784 19.1523 15.7303 19.1893C15.7628 19.2125 15.7932 19.2433 15.8223 19.2848C15.8505 19.1726 15.8871 19.089 15.9358 19.0192C15.9979 18.9304 16.0774 18.8675 16.1738 18.7948L16.195 18.7788ZM16.5248 20.0025C16.5319 19.9942 16.5421 19.9821 16.5543 19.9672C16.5792 19.9367 16.6125 19.8945 16.6458 19.8472C16.6793 19.7998 16.7122 19.7485 16.7369 19.6998C16.7621 19.6501 16.775 19.6106 16.7767 19.5841V19.2559C16.7467 19.2625 16.7193 19.2729 16.6936 19.2904C16.6562 19.3159 16.6195 19.3586 16.5851 19.4352L16.5344 19.5478L16.5082 19.4212C16.4757 19.2642 16.4362 19.169 16.3851 19.0959C16.337 19.0269 16.2766 18.9744 16.1941 18.9088C16.1076 18.9746 16.0456 19.0271 15.9976 19.0959C15.947 19.1684 15.9095 19.2628 15.8812 19.4195L15.8585 19.5445L15.8051 19.4375C15.7659 19.3592 15.7286 19.3157 15.6905 19.2885C15.6642 19.2697 15.6361 19.2577 15.6039 19.2485V19.5722C15.6693 19.7335 15.7547 19.879 15.8563 20.0025H16.5248Z" fill="black"/>
<path d="M16.6503 21.4083C16.6503 21.4083 17.0216 20.8796 17.03 20.6658V20.0583C16.895 20.0808 16.76 20.2046 16.6588 20.4633C16.5744 19.9571 16.4394 19.6083 16.1947 19.3608C15.9416 19.6083 15.8066 19.9571 15.7222 20.4633C15.6209 20.2046 15.4944 20.0808 15.3594 20.0583V20.6658C15.3847 20.8796 15.7306 21.4083 15.7306 21.4083H16.6503Z" fill="white"/>
<path fill-rule="evenodd" clip-rule="evenodd" d="M16.1943 19.291L16.2194 19.3164C16.452 19.5517 16.5877 19.8736 16.6748 20.3169C16.7736 20.1252 16.8964 20.0241 17.024 20.0029L17.0714 19.995V20.6677L17.0713 20.6691C17.0686 20.7379 17.0385 20.8217 17.0025 20.9014C16.9652 20.9839 16.9168 21.0721 16.8694 21.1524C16.8218 21.2329 16.7746 21.3065 16.7393 21.3599C16.7217 21.3866 16.707 21.4084 16.6967 21.4234C16.6915 21.431 16.6875 21.4369 16.6847 21.4409L16.6815 21.4455L16.6806 21.4467L16.6804 21.4471C16.6804 21.4471 16.6803 21.4471 16.6495 21.4087L16.6804 21.4471L16.6678 21.4649H15.7107L15.6981 21.4457L15.7298 21.4087C15.6981 21.4457 15.6981 21.4457 15.6981 21.4457L15.697 21.444L15.694 21.4394C15.6914 21.4354 15.6876 21.4296 15.6828 21.422C15.6732 21.407 15.6595 21.3853 15.6429 21.3586C15.6098 21.3052 15.5653 21.2318 15.52 21.1514C15.4748 21.0712 15.4282 20.9834 15.3911 20.9014C15.3551 20.8216 15.3246 20.7402 15.3169 20.675L15.3164 20.6706V19.995L15.3638 20.0029C15.4919 20.0242 15.6084 20.1258 15.7048 20.316C15.7919 19.8731 15.9284 19.551 16.169 19.3158L16.1943 19.291ZM15.7492 21.3524H16.631C16.6321 21.3509 16.6332 21.3493 16.6343 21.3477C16.6443 21.333 16.6587 21.3117 16.676 21.2856C16.7106 21.2331 16.7568 21.1612 16.8031 21.0828C16.8495 21.0042 16.8955 20.9201 16.9302 20.8433C16.9657 20.7647 16.9851 20.7028 16.987 20.6645V20.1272C16.8839 20.1656 16.7791 20.2757 16.6954 20.4897L16.6419 20.6264L16.6168 20.4759C16.5366 19.9951 16.4117 19.667 16.1935 19.4321C15.9677 19.667 15.8428 19.9948 15.7626 20.4759L15.7375 20.6264L15.684 20.4897C15.6 20.275 15.5015 20.1657 15.4008 20.1274V20.6614C15.4066 20.7031 15.4287 20.7664 15.4634 20.8433C15.4984 20.9207 15.543 21.0051 15.5874 21.0838C15.6317 21.1623 15.6753 21.2344 15.7079 21.2869C15.7242 21.3131 15.7376 21.3344 15.747 21.3491C15.7478 21.3502 15.7485 21.3514 15.7492 21.3524Z" fill="black"/>
<path d="M16.6503 22.2073C16.6503 22.2073 16.9625 21.7911 17.03 21.6111V21.0036C16.895 21.0261 16.76 21.1498 16.6588 21.3973C16.6362 21.1926 16.5836 20.9958 16.5039 20.8182C16.4243 20.6407 16.3192 20.4857 16.1947 20.3623C15.9416 20.6098 15.8066 20.8911 15.7222 21.3973C15.6209 21.1498 15.4944 21.0261 15.3594 21.0036V21.6111C15.4438 21.7911 15.7306 22.2073 15.7306 22.2073H16.6503Z" fill="white"/>
<path fill-rule="evenodd" clip-rule="evenodd" d="M16.1941 20.2925L16.2191 20.3173C16.3481 20.4451 16.4569 20.6055 16.5394 20.7895C16.6032 20.9319 16.6503 21.0862 16.6792 21.2471C16.7773 21.0671 16.8984 20.9688 17.024 20.9478L17.0714 20.9399V21.6244L17.067 21.6363C17.0479 21.6871 17.0133 21.7508 16.9743 21.8155C16.9348 21.8811 16.8888 21.9509 16.8452 22.0147C16.8016 22.0785 16.7602 22.1365 16.7297 22.1786C16.7144 22.1997 16.7019 22.2168 16.6931 22.2286C16.6888 22.2346 16.6853 22.2392 16.683 22.2423L16.6803 22.2459L16.6794 22.2471L16.6794 22.2472C16.6794 22.2472 16.6794 22.2472 16.6495 22.2074L16.6794 22.2472L16.667 22.2637H15.7113L15.6988 22.2455L15.7298 22.2074C15.6988 22.2455 15.6988 22.2455 15.6988 22.2455L15.6955 22.2406L15.6862 22.227C15.6781 22.2152 15.6665 22.1982 15.6523 22.1772C15.624 22.1351 15.5853 22.0772 15.544 22.0136C15.4622 21.8877 15.3671 21.7353 15.3228 21.641L15.3164 21.6273V20.9399L15.3638 20.9478C15.4916 20.9691 15.608 21.0702 15.7043 21.2535C15.7437 21.0571 15.7933 20.8945 15.8584 20.7534C15.9378 20.5815 16.0389 20.4442 16.169 20.317L16.1941 20.2925ZM15.7484 22.1512H16.6319C16.6323 22.1507 16.6327 22.1502 16.633 22.1497C16.6416 22.1381 16.654 22.1212 16.669 22.1005C16.6992 22.0589 16.74 22.0016 16.7829 21.9389C16.8258 21.8761 16.8705 21.8081 16.9085 21.745C16.9435 21.6869 16.9712 21.6356 16.987 21.5973V21.0722C16.8836 21.1104 16.7787 21.2197 16.695 21.4243L16.6346 21.572L16.6162 21.4056C16.5945 21.2082 16.5437 21.0184 16.467 20.8472C16.3955 20.6879 16.3029 20.5475 16.1936 20.4329C16.083 20.5459 15.9978 20.6661 15.9303 20.8123C15.8576 20.9699 15.8041 21.1604 15.7626 21.4096L15.7382 21.5559L15.6844 21.4243C15.6004 21.219 15.5018 21.1105 15.4008 21.0723V21.5947C15.4436 21.6815 15.5292 21.8191 15.6077 21.9399C15.6487 22.0029 15.687 22.0603 15.7151 22.1019C15.7291 22.1227 15.7405 22.1395 15.7484 22.1512Z" fill="black"/>
<path d="M16.7769 22.68C16.6925 22.1513 16.6081 21.7575 16.1778 21.3638C15.7391 21.7575 15.6631 22.1513 15.5703 22.68H16.7769Z" fill="white"/>
<path fill-rule="evenodd" clip-rule="evenodd" d="M16.1766 21.2954L16.2002 21.317C16.4201 21.5183 16.5538 21.7216 16.6428 21.9445C16.7313 22.1659 16.7745 22.4036 16.8167 22.668L16.8275 22.7359H15.5156L15.5277 22.6668C15.574 22.4034 15.6172 22.1657 15.7056 21.9445C15.7947 21.7215 15.9285 21.5181 16.1528 21.3168L16.1766 21.2954ZM15.6221 22.6234H16.7231C16.6845 22.3883 16.6436 22.1855 16.5684 21.9974C16.4897 21.8005 16.3722 21.6168 16.1761 21.4318C15.9762 21.6169 15.8588 21.8005 15.7801 21.9974C15.7049 22.1855 15.664 22.388 15.6221 22.6234Z" fill="black"/>
<path d="M17.0047 22.9723V22.2073C16.8022 22.3198 16.625 22.4661 16.5575 22.6348C16.49 22.2073 16.3466 22.0273 16.1694 21.7686C15.9922 22.0273 15.8741 22.2186 15.7981 22.6348C15.7306 22.4661 15.5534 22.3086 15.3594 22.2073V22.9723H17.0047Z" fill="white"/>
<path fill-rule="evenodd" clip-rule="evenodd" d="M16.1686 21.6851L16.1997 21.7306C16.2135 21.7506 16.227 21.7702 16.2404 21.7896C16.3828 21.9956 16.5053 22.1727 16.5757 22.5025C16.6116 22.4488 16.6561 22.3992 16.7057 22.3536C16.787 22.279 16.8847 22.2125 16.9877 22.1553L17.0461 22.1229V23.0285H15.3164V22.1248L15.374 22.1549C15.4737 22.2069 15.5696 22.2736 15.6499 22.3499C15.6996 22.397 15.7443 22.4488 15.7801 22.5042C15.8589 22.153 15.9754 21.9672 16.1374 21.7306L16.1686 21.6851ZM16.1688 21.8519C16.0111 22.0851 15.9074 22.2694 15.8383 22.648L15.8122 22.7914L15.7601 22.6612C15.7306 22.5875 15.6752 22.512 15.601 22.4415C15.5424 22.3859 15.4738 22.3349 15.4008 22.2917V22.916H16.9617V22.293C16.8847 22.3397 16.8136 22.3911 16.7536 22.4462C16.6782 22.5155 16.6232 22.5881 16.5939 22.6612L16.5393 22.7977L16.5154 22.6463C16.4556 22.2673 16.3357 22.0937 16.1776 21.8647C16.1747 21.8605 16.1717 21.8562 16.1688 21.8519Z" fill="black"/>
<path d="M12.1539 29.1712H32.8511V30.5774H12.1539V29.1712ZM11.6055 30.5774H33.3995V31.9837H11.6055V30.5774ZM13.2423 27.0562H31.7542V27.9674H13.2423V27.0562Z" fill="white"/>
<path fill-rule="evenodd" clip-rule="evenodd" d="M13.1994 27H31.7956V28.0237H13.1994V27ZM13.2838 27.1125V27.9112H31.7113V27.1125H13.2838ZM12.1109 29.115H32.8925V30.5212H33.4409V32.04H11.5625V30.5212H12.1109V29.115ZM12.1953 30.5212H32.8081V29.2275H12.1953V30.5212ZM11.6469 30.6337V31.9275H33.3566V30.6337H11.6469Z" fill="black"/>
<path d="M12.7031 27.9676H32.3119V29.1601H12.7031V27.9676ZM13.5638 26.3589H31.4512V27.0564H13.5638V26.3589Z" fill="white"/>
<path fill-rule="evenodd" clip-rule="evenodd" d="M13.5208 26.3022H31.4927V27.1122H13.5208V26.3022ZM13.6052 26.4147V26.9997H31.4083V26.4147H13.6052ZM12.6602 27.911H32.3533V29.216H12.6602V27.911ZM12.7445 28.0235V29.1035H32.2689V28.0235H12.7445Z" fill="black"/>
<path d="M15.502 26.3589H16.852V31.9839H15.502V26.3589Z" fill="white"/>
<path fill-rule="evenodd" clip-rule="evenodd" d="M15.4609 26.3022H16.8953V32.0397H15.4609V26.3022ZM15.5453 26.4147V31.9272H16.8109V26.4147H15.5453Z" fill="black"/>
<path d="M15.8073 26.3589H16.5582V31.9839H15.7988L15.8073 26.3589ZM21.7979 26.3589H23.1479V31.9839H21.7979V26.3589Z" fill="white"/>
<path fill-rule="evenodd" clip-rule="evenodd" d="M15.7645 26.3022H16.5997V32.0397H15.7559L15.7645 26.3022ZM15.8487 26.4147L15.8404 31.9272H16.5153V26.4147H15.8487ZM21.755 26.3022H23.1894V32.0397H21.755V26.3022ZM21.8394 26.4147V31.9272H23.105V26.4147H21.8394Z" fill="black"/>
<path d="M22.1094 26.3589H22.8687V31.9839H22.1094V26.3589ZM28.1422 26.3589H29.4922V31.9839H28.1422V26.3589Z" fill="white"/>
<path fill-rule="evenodd" clip-rule="evenodd" d="M22.0664 26.3022H22.9102V32.0397H22.0664V26.3022ZM22.1508 26.4147V31.9272H22.8258V26.4147H22.1508ZM28.0992 26.3022H29.5336V32.0397H28.0992V26.3022ZM28.1836 26.4147V31.9272H29.4492V26.4147H28.1836Z" fill="black"/>
<path d="M28.4375 26.3589H29.1969V31.9839H28.4375V26.3589Z" fill="white"/>
<path fill-rule="evenodd" clip-rule="evenodd" d="M28.3945 26.3022H29.2383V32.0397H28.3945V26.3022ZM28.4789 26.4147V31.9272H29.1539V26.4147H28.4789Z" fill="black"/>
<path fill-rule="evenodd" clip-rule="evenodd" d="M30.6574 25.841H14.373V25.7285H30.6574V25.841ZM16.5668 27.1123H15.7905V26.9998H16.5668V27.1123ZM22.8443 27.1123H22.1187V26.9998H22.8443V27.1123ZM29.2062 27.1123H28.4299V26.9998H29.2062V27.1123ZM16.5668 27.8098H15.7905V27.6973H16.5668V27.8098ZM22.8443 27.8098H22.1187V27.6973H22.8443V27.8098ZM29.2062 27.8098H28.4299V27.6973H29.2062V27.8098ZM16.5668 28.5185H15.7905V28.406H16.5668V28.5185ZM22.8443 28.5185H22.1187V28.406H22.8443V28.5185ZM29.2062 28.5185H28.4299V28.406H29.2062V28.5185ZM16.5668 29.216H15.7905V29.1035H16.5668V29.216ZM22.8443 29.216H22.1187V29.1035H22.8443V29.216ZM29.2062 29.216H28.4299V29.1035H29.2062V29.216ZM16.5668 29.9248H15.7905V29.8123H16.5668V29.9248ZM22.8443 29.9248H22.1187V29.8123H22.8443V29.9248ZM29.2062 29.9248H28.4299V29.8123H29.2062V29.9248ZM16.5668 30.6223H15.7905V30.5098H16.5668V30.6223ZM22.8443 30.6223H22.1187V30.5098H22.8443V30.6223ZM29.2062 30.6223H28.4299V30.5098H29.2062V30.6223ZM16.5668 31.331H15.7905V31.2185H16.5668V31.331ZM22.8443 31.331H22.1187V31.2185H22.8443V31.331ZM29.2062 31.331H28.4299V31.2185H29.2062V31.331Z" fill="black"/>
</g>
<defs>
<clipPath id="clip0_45_16873">
<rect width="45" height="45" fill="white"/>
</clipPath>
</defs>
</svg>
