<svg width="45" height="45" viewBox="0 0 45 45" fill="none" xmlns="http://www.w3.org/2000/svg">
<g clip-path="url(#clip0_45_16973)">
<path fill-rule="evenodd" clip-rule="evenodd" d="M-5.13477 0H49.9595V26.9385H-5.13477V0Z" fill="#E73E2D"/>
<path fill-rule="evenodd" clip-rule="evenodd" d="M19.1641 24.7939C17.8853 23.458 15.499 23.915 15.1035 20.2852C16.9294 22.1748 16.5999 20.1797 19.3223 21.9814L19.1641 24.7939Z" fill="#FEC74A"/>
<path fill-rule="evenodd" clip-rule="evenodd" d="M15.0273 20.1123L15.1371 20.2259C15.591 20.6956 15.9064 20.9191 16.1655 21.0222C16.4235 21.1249 16.6297 21.1101 16.8727 21.0915L16.8767 21.0911C17.1196 21.0725 17.3956 21.0513 17.781 21.1484C18.1678 21.2458 18.6627 21.4618 19.3464 21.9143L19.3802 21.9367L19.2113 24.9388L19.1288 24.8525C18.8164 24.5262 18.4345 24.3075 18.0256 24.1062C17.9198 24.0541 17.8121 24.0031 17.7035 23.9517C17.3946 23.8056 17.0782 23.6558 16.7779 23.4671C16.3705 23.2111 15.9872 22.8802 15.6809 22.3802C15.3742 21.8797 15.1474 21.2145 15.0473 20.2957L15.0273 20.1123ZM15.1804 20.4577C15.2868 21.2585 15.496 21.8423 15.7676 22.2857C16.0599 22.7626 16.4273 23.0816 16.8257 23.332C17.1205 23.5172 17.4291 23.6633 17.7364 23.8087C17.8462 23.8606 17.9557 23.9125 18.0644 23.966C18.4409 24.1514 18.8051 24.3561 19.1151 24.6522L19.2628 22.0259C18.603 21.5928 18.128 21.3879 17.7602 21.2952C17.3883 21.2015 17.1235 21.2218 16.882 21.2404L16.8792 21.2406C16.6361 21.2593 16.4122 21.2764 16.1334 21.1654C15.8787 21.064 15.5818 20.8575 15.1804 20.4577Z" fill="#D8AA3F"/>
<path fill-rule="evenodd" clip-rule="evenodd" d="M19.5065 23.1504C18.5902 21.3574 16.2106 20.8125 16.672 17.2002C17.9838 19.7402 18.1222 17.7012 20.3107 20.5313L19.5065 23.1504Z" fill="#FEC74A"/>
<path fill-rule="evenodd" clip-rule="evenodd" d="M16.6393 17.0063L16.7176 17.1578C17.0436 17.7891 17.2936 18.1296 17.5171 18.3325C17.7398 18.5346 17.9398 18.6038 18.1759 18.6846L18.1781 18.6853C18.4145 18.7662 18.6829 18.858 19.0294 19.1083C19.3764 19.359 19.7994 19.7668 20.3491 20.4776L20.3763 20.5128L19.5183 23.3073L19.4596 23.1924C19.2357 22.7544 18.9211 22.39 18.577 22.0311C18.4889 21.9391 18.3988 21.8475 18.3078 21.755C18.0458 21.4886 17.7775 21.2157 17.5338 20.9121C17.2042 20.5016 16.9152 20.0299 16.7386 19.429C16.5619 18.8274 16.4994 18.1021 16.6162 17.1876L16.6393 17.0063ZM16.7055 17.395C16.6218 18.2003 16.6863 18.8414 16.843 19.3745C17.0114 19.9477 17.2881 20.4016 17.6103 20.8029C17.8495 21.101 18.1113 21.3672 18.372 21.6323C18.4639 21.7257 18.5556 21.819 18.6461 21.9134C18.9631 22.2441 19.2641 22.5881 19.4925 22.9968L20.2439 20.5498C19.7126 19.8673 19.306 19.478 18.9761 19.2397C18.6417 18.9982 18.3841 18.9101 18.1492 18.8297L18.1472 18.829C17.9115 18.7484 17.6944 18.6741 17.4541 18.456C17.2341 18.2564 16.9978 17.9392 16.7055 17.395Z" fill="#D8AA3F"/>
<path fill-rule="evenodd" clip-rule="evenodd" d="M19.9219 21.9727C19.5923 19.8545 17.5489 18.1406 19.0123 15.0293C19.4869 18.0527 20.1988 16.2422 21.4117 19.9687L19.9219 21.9727Z" fill="#FEC74A"/>
<path fill-rule="evenodd" clip-rule="evenodd" d="M19.038 14.8325L19.0665 15.0139C19.1845 15.7654 19.3161 16.2091 19.4632 16.5118C19.6098 16.8133 19.7738 16.9801 19.9682 17.1756L19.9732 17.1806C20.1671 17.3756 20.3876 17.5973 20.6347 18.0028C20.8835 18.411 21.1578 19.0029 21.4625 19.9389L21.4776 19.9853L19.8877 22.124L19.8665 21.9877C19.7859 21.4703 19.6002 20.9745 19.3856 20.4684C19.3307 20.3389 19.2738 20.2086 19.2165 20.0772C19.0509 19.6978 18.8812 19.309 18.7431 18.9042C18.5565 18.3571 18.4248 17.7736 18.4341 17.1274C18.4433 16.4806 18.5938 15.7771 18.9642 14.9895L19.038 14.8325ZM19.9531 21.8237L21.3445 19.9521C21.0488 19.0517 20.7843 18.4852 20.5477 18.097C20.3092 17.7056 20.0976 17.4928 19.9048 17.299L19.9008 17.2949C19.7063 17.0993 19.5275 16.9189 19.3692 16.5931C19.2246 16.2954 19.0988 15.8808 18.9869 15.2279C18.6786 15.9309 18.5543 16.5573 18.5461 17.1303C18.5372 17.7467 18.6626 18.3074 18.8451 18.8424C18.9807 19.2398 19.1462 19.619 19.311 19.9966C19.3689 20.1293 19.4267 20.2618 19.4831 20.3948C19.6808 20.861 19.8598 21.331 19.9531 21.8237Z" fill="#D8AA3F"/>
<path fill-rule="evenodd" clip-rule="evenodd" d="M20.8761 20.8828C21.0541 18.7295 19.505 16.2598 21.6078 13.9043C21.3705 16.9717 22.4647 15.5479 22.7613 19.582L20.8761 20.8828Z" fill="#FEC74A"/>
<path fill-rule="evenodd" clip-rule="evenodd" d="M21.6791 13.7285L21.6649 13.9121C21.6059 14.6745 21.6303 15.1503 21.7016 15.4987C21.7726 15.8457 21.891 16.0719 22.0315 16.3377L22.0344 16.3433C22.1747 16.6087 22.334 16.9101 22.4761 17.3974C22.6191 17.8872 22.7439 18.5616 22.8185 19.5749L22.8222 19.6253L20.9032 20.9493L20.8774 20.8829L20.8217 20.8748C20.8652 20.3487 20.8034 19.8003 20.7162 19.2303C20.6936 19.0824 20.6693 18.9329 20.6447 18.7821C20.5751 18.3551 20.5038 17.9176 20.4658 17.4781C20.4142 16.8809 20.4228 16.272 20.5797 15.6615C20.7367 15.0504 21.0408 14.4435 21.5731 13.8472L21.6791 13.7285ZM20.9422 20.7541L22.7032 19.5391C22.629 18.5635 22.5076 17.9173 22.3717 17.4515C22.2345 16.9813 22.0816 16.692 21.9422 16.4281L21.9399 16.4238C21.7994 16.1579 21.6702 15.9128 21.5935 15.538C21.5234 15.1955 21.498 14.7495 21.5403 14.0829C21.0863 14.6244 20.8248 15.1686 20.6857 15.7099C20.5361 16.2923 20.5266 16.877 20.5771 17.4609C20.6145 17.8925 20.684 18.3192 20.7532 18.7441C20.778 18.8964 20.8028 19.0485 20.826 19.2004C20.9063 19.7254 20.9677 20.2465 20.9422 20.7541Z" fill="#D8AA3F"/>
<path fill-rule="evenodd" clip-rule="evenodd" d="M21.7344 20.0127C22.5518 18.1406 21.8992 15.0469 24.5425 14.0449C23.3823 16.708 24.8193 16.0049 23.8503 19.8457L21.7344 20.0127Z" fill="#FEC74A"/>
<path fill-rule="evenodd" clip-rule="evenodd" d="M24.6602 13.9224L24.5905 14.0823C24.3022 14.7443 24.1781 15.1905 24.1361 15.5462C24.0942 15.9005 24.1328 16.1707 24.1793 16.4893L24.1803 16.4959C24.2268 16.8139 24.2796 17.1754 24.2597 17.6972C24.2397 18.2216 24.1464 18.9047 23.903 19.8694L23.891 19.9172L21.7373 20.0872L21.734 20.0126L21.6855 19.975C21.8853 19.5176 21.9963 18.9829 22.0912 18.415C22.1153 18.2704 22.1384 18.1235 22.1618 17.9754C22.2295 17.5451 22.2989 17.1042 22.3999 16.6798C22.5361 16.1071 22.7313 15.5567 23.0622 15.0856C23.3935 14.6141 23.8576 14.2266 24.5268 13.973L24.6602 13.9224ZM21.8323 19.93L23.8088 19.774C24.041 18.8437 24.1288 18.1883 24.1478 17.6896C24.167 17.1861 24.1163 16.8392 24.0701 16.523L24.0693 16.5178C24.0228 16.1992 23.9801 15.9058 24.0254 15.5229C24.0667 15.1732 24.1807 14.7536 24.4241 14.1702C23.8435 14.4166 23.4374 14.7701 23.144 15.1878C22.8283 15.6371 22.6399 16.165 22.5067 16.725C22.4076 17.1416 22.3399 17.5717 22.2724 18C22.2489 18.1496 22.2254 18.299 22.2005 18.4475C22.1132 18.9704 22.0101 19.4799 21.8323 19.93Z" fill="#D8AA3F"/>
<path fill-rule="evenodd" clip-rule="evenodd" d="M22.9668 20.2411C24.1929 18.8173 24.3115 15.6005 27.0537 15.7675C25.3201 17.8066 26.856 17.745 25.0103 20.9882L22.9668 20.2411Z" fill="#FEC74A"/>
<path fill-rule="evenodd" clip-rule="evenodd" d="M23.0802 20.205L24.9888 20.9028C25.4335 20.116 25.6747 19.5298 25.8127 19.0636C25.9525 18.591 25.9871 18.2388 26.0187 17.9179L26.019 17.9152C26.0506 17.5934 26.0798 17.297 26.2132 16.9531C26.3353 16.6383 26.5428 16.2879 26.9126 15.8365C26.304 15.8248 25.8352 15.9889 25.4578 16.2615C25.0517 16.5548 24.7473 16.9765 24.4874 17.4518C24.2953 17.803 24.1293 18.1799 23.964 18.555C23.9047 18.6895 23.8456 18.8238 23.7853 18.9566C23.5772 19.4155 23.3572 19.8545 23.0802 20.205ZM25.4044 16.1301C25.8305 15.8224 26.3625 15.6506 27.0567 15.6929L27.1951 15.7013L27.0912 15.8235C26.6603 16.3303 26.4369 16.7017 26.3127 17.0217C26.1891 17.3405 26.1617 17.6135 26.1299 17.936L26.1297 17.9388C26.0979 18.2617 26.0618 18.6287 25.9169 19.1184C25.7719 19.6086 25.5188 20.2188 25.0553 21.0334L25.0324 21.0736L22.8516 20.2763L22.9304 20.1848C23.2299 19.8369 23.4635 19.3775 23.6894 18.8793C23.748 18.7501 23.8062 18.618 23.8649 18.4849C24.031 18.1078 24.2012 17.7215 24.3968 17.3637C24.6626 16.8777 24.9787 16.4375 25.4044 16.1301Z" fill="#D8AA3F"/>
<path fill-rule="evenodd" clip-rule="evenodd" d="M24.0605 21.0848C25.5437 20.1971 26.3611 17.1736 28.9451 18.4041C26.8357 19.6785 28.3188 20.2235 25.8469 22.5965L24.0605 21.0848Z" fill="#FEC74A"/>
<path fill-rule="evenodd" clip-rule="evenodd" d="M24.0613 21.0848L24.0312 21.1479L25.8496 22.6867L25.8804 22.6571C26.5013 22.0611 26.8762 21.5775 27.1218 21.166C27.3668 20.7556 27.4814 20.4193 27.5824 20.1231L27.5837 20.1192C27.6846 19.8231 27.7709 19.5724 27.9595 19.3154C28.1488 19.0573 28.4446 18.7889 28.9689 18.4722L29.0951 18.3959L28.9646 18.3338C28.3105 18.0223 27.7646 17.9785 27.29 18.1058C26.8159 18.233 26.4175 18.5299 26.0571 18.8904C25.7909 19.1566 25.543 19.4604 25.301 19.757C25.2166 19.8604 25.1329 19.963 25.0494 20.0628C24.7245 20.4511 24.4007 20.7997 24.0383 21.0166L24.0613 21.0848ZM25.1242 20.174C24.8249 20.5318 24.5184 20.8662 24.177 21.0942L25.8456 22.5063C26.4423 21.9295 26.8006 21.4643 27.0341 21.073C27.2705 20.677 27.3805 20.3543 27.4808 20.0599L27.4817 20.0574C27.5826 19.7614 27.6756 19.4886 27.8794 19.2109C28.0656 18.9571 28.3417 18.7025 28.7954 18.4148C28.2163 18.166 27.7324 18.1395 27.3121 18.2523C26.8599 18.3736 26.4767 18.6574 26.1244 19.0099C25.8631 19.2713 25.6212 19.5677 25.3803 19.8628C25.2951 19.9672 25.21 20.0715 25.1242 20.174Z" fill="#D8AA3F"/>
<path fill-rule="evenodd" clip-rule="evenodd" d="M24.9766 22.4121C26.585 22.1132 28.0088 19.5117 30.2302 21.6738C27.9429 22.1044 29.2415 23.1767 26.374 24.5302L24.9766 22.4033V22.4121Z" fill="#FEC74A"/>
<path fill-rule="evenodd" clip-rule="evenodd" d="M24.9608 22.4907L26.3583 24.6176L26.3941 24.6007C27.1143 24.2607 27.5757 23.9371 27.8982 23.6346C28.2194 23.3333 28.4008 23.0546 28.5605 22.8093L28.5633 22.8049C28.7232 22.5594 28.8593 22.3519 29.0946 22.1767C29.3308 22.0008 29.6709 21.8548 30.2394 21.7478L30.3761 21.722L30.2646 21.6134C29.7023 21.0661 29.1872 20.8174 28.7046 20.7606C28.2225 20.7038 27.7772 20.839 27.3552 21.0501C27.0423 21.2066 26.7391 21.4066 26.4433 21.6017C26.3416 21.6688 26.2408 21.7353 26.1407 21.7992C25.7587 22.0434 25.3859 22.2523 25.0051 22.3312L24.9219 22.2046V22.4979L24.9608 22.4907ZM26.1892 21.934C25.8281 22.1648 25.4654 22.371 25.0917 22.4631L26.3924 24.4428C27.0853 24.1123 27.527 23.8001 27.8337 23.5124C28.1437 23.2216 28.3178 22.9541 28.4766 22.7102L28.4787 22.707C28.6385 22.4614 28.7858 22.2355 29.04 22.0462C29.2723 21.8732 29.5905 21.7331 30.0854 21.6275C29.5817 21.1685 29.1224 20.9598 28.6948 20.9094C28.2349 20.8552 27.8072 20.9836 27.3945 21.19C27.0874 21.3436 26.7916 21.5387 26.4971 21.7329C26.3945 21.8006 26.292 21.8682 26.1892 21.934Z" fill="#D8AA3F"/>
<path fill-rule="evenodd" clip-rule="evenodd" d="M30.7117 22.8164L23.3223 23.0361L23.6321 25.6904L30.7117 22.8164Z" fill="#FEC74A"/>
<path fill-rule="evenodd" clip-rule="evenodd" d="M30.7112 22.7417L30.7287 22.8879L23.5874 25.7869L23.2578 22.9633L30.7112 22.7417ZM23.3882 23.1089L23.6783 25.5939L30.3062 22.9032L23.3882 23.1089Z" fill="#D8AA3F"/>
<path fill-rule="evenodd" clip-rule="evenodd" d="M29.6235 19.1953L22.7812 22.7021L23.9216 25.6289L29.6235 19.1953Z" fill="#FEC74A"/>
<path fill-rule="evenodd" clip-rule="evenodd" d="M29.6039 19.1255L29.624 19.1952L29.6602 19.2522L23.9048 25.7463L22.7031 22.6623L29.6039 19.1255ZM29.3351 19.4233L22.8604 22.7418L23.9395 25.5113L29.3351 19.4233Z" fill="#D8AA3F"/>
<path fill-rule="evenodd" clip-rule="evenodd" d="M24.1926 24.6709L27.7324 16.0928L22.3008 22.834L24.1926 24.6709Z" fill="#FEC74A"/>
<path fill-rule="evenodd" clip-rule="evenodd" d="M27.6943 16.0381L27.7815 16.1288L24.2111 24.7812L22.2129 22.841L27.6943 16.0381ZM22.3887 22.8269L24.1742 24.5606L27.515 16.4647L22.3887 22.8269Z" fill="#D8AA3F"/>
<path fill-rule="evenodd" clip-rule="evenodd" d="M24.1196 23.959L25.2534 14.3438L21.707 22.8867L24.1196 23.959Z" fill="#FEC74A"/>
<path fill-rule="evenodd" clip-rule="evenodd" d="M25.206 14.3076L25.3104 14.3554L24.1663 24.0578L21.627 22.9292L25.206 14.3076ZM21.7903 22.8443L24.0761 23.8603L25.1504 14.7501L21.7903 22.8443Z" fill="#D8AA3F"/>
<path fill-rule="evenodd" clip-rule="evenodd" d="M23.6924 23.1768L22.5059 13.4912L21.1875 23.2207L23.6924 23.1768Z" fill="#FEC74A"/>
<path fill-rule="evenodd" clip-rule="evenodd" d="M22.4496 13.478L22.56 13.4793L23.757 23.2504L21.1191 23.2967L22.4496 13.478ZM21.2536 23.1449L23.6255 23.1033L22.5019 13.932L21.2536 23.1449Z" fill="#D8AA3F"/>
<path fill-rule="evenodd" clip-rule="evenodd" d="M23.0784 22.3506L19.6309 14.2646L20.9492 24.0908L23.0784 22.3506Z" fill="#FEC74A"/>
<path fill-rule="evenodd" clip-rule="evenodd" d="M19.5762 14.2776L19.68 14.2275L23.1543 22.3763L20.909 24.2115L19.5762 14.2776ZM19.744 14.6798L20.9904 23.9697L23.0033 22.3245L19.744 14.6798Z" fill="#D8AA3F"/>
<path fill-rule="evenodd" clip-rule="evenodd" d="M22.5452 22.2891L17.1992 16.2686L20.9961 24.8818L22.5452 22.2891Z" fill="#FEC74A"/>
<path fill-rule="evenodd" clip-rule="evenodd" d="M17.1523 16.3064L17.2368 16.2114L22.5828 22.2319L22.5466 22.289L22.5904 22.3356L20.9905 25.0134L17.1523 16.3064ZM22.4688 22.2992L17.4153 16.608L21.0045 24.7502L22.4688 22.2992Z" fill="#D8AA3F"/>
<path fill-rule="evenodd" clip-rule="evenodd" d="M15.3203 19.2393L21.0552 25.5586L21.9385 22.2539L15.3203 19.2393Z" fill="#FEC74A"/>
<path fill-rule="evenodd" clip-rule="evenodd" d="M15.2852 19.2967L15.339 19.1685L22.0109 22.2076L21.0817 25.684L15.2852 19.2967ZM15.5929 19.442L21.0298 25.433L21.8672 22.3L15.5929 19.442Z" fill="#D8AA3F"/>
<path fill-rule="evenodd" clip-rule="evenodd" d="M20.9954 22.9307L14.252 22.7988L20.969 25.7871L20.9954 22.9307Z" fill="#FEC74A"/>
<path fill-rule="evenodd" clip-rule="evenodd" d="M14.2344 22.8697L14.2529 22.7241L20.9963 22.856L20.9955 22.9307L21.0515 22.9316L21.0242 25.8904L14.2344 22.8697ZM20.9388 23.0043L14.6129 22.8806L20.9141 25.6838L20.9388 23.0043Z" fill="#D8AA3F"/>
<path fill-rule="evenodd" clip-rule="evenodd" d="M26.4664 24.5391C26.4884 25.2655 26.4001 25.9904 26.2068 26.6701C26.0135 27.3499 25.7191 27.9706 25.3414 28.4949C24.9638 29.0193 24.5105 29.4365 24.0089 29.7214C23.5073 30.0064 22.9676 30.1533 22.4224 30.1533C21.8771 30.1533 21.3375 30.0064 20.8359 29.7214C20.3342 29.4365 19.881 29.0193 19.5033 28.4949C19.1256 27.9706 18.8312 27.3499 18.6379 26.6701C18.4446 25.9904 18.3563 25.2655 18.3783 24.5391C18.4205 23.1467 18.865 21.83 19.6188 20.8647C20.3726 19.8994 21.3772 19.3604 22.4224 19.3604C23.4675 19.3604 24.4722 19.8994 25.226 20.8647C25.9797 21.83 26.4243 23.1467 26.4664 24.5391Z" fill="#FEC74A"/>
<path fill-rule="evenodd" clip-rule="evenodd" d="M22.4237 19.4351C21.393 19.4351 20.4023 19.9667 19.6589 20.9186C18.9156 21.8705 18.4772 23.169 18.4356 24.5421C18.4139 25.2585 18.501 25.9733 18.6917 26.6437C18.8823 27.314 19.1726 27.9261 19.545 28.4432C19.9175 28.9603 20.3645 29.3717 20.8592 29.6527C21.3538 29.9337 21.886 30.0786 22.4237 30.0786C22.9614 30.0786 23.4936 29.9337 23.9883 29.6527C24.4829 29.3717 24.9299 28.9603 25.3024 28.4432C25.6748 27.9261 25.9651 27.314 26.1558 26.6437C26.3464 25.9733 26.4335 25.2585 26.4118 24.5421C26.3702 23.169 25.9318 21.8705 25.1885 20.9186C24.4451 19.9667 23.4544 19.4351 22.4237 19.4351ZM19.5813 20.8108C20.3455 19.8322 21.3641 19.2856 22.4237 19.2856C23.4833 19.2856 24.5019 19.8322 25.2661 20.8108C26.0303 21.7895 26.481 23.1244 26.5238 24.5361C26.5461 25.2726 26.4565 26.0074 26.2605 26.6966C26.0645 27.3858 25.7661 28.0151 25.3832 28.5467C25.0003 29.0783 24.5407 29.5013 24.0322 29.7902C23.5236 30.0791 22.9765 30.228 22.4237 30.228C21.8709 30.228 21.3238 30.0791 20.8152 29.7902C20.3067 29.5013 19.8471 29.0783 19.4642 28.5467C19.0813 28.0151 18.7829 27.3858 18.5869 26.6966C18.3909 26.0074 18.3013 25.2726 18.3237 24.5361C18.3664 23.1244 18.8171 21.7895 19.5813 20.8108Z" fill="#D8AA3F"/>
<path fill-rule="evenodd" clip-rule="evenodd" d="M-5.18677 26.666H50.1777V45H-5.19336L-5.18677 26.666Z" fill="#005989"/>
<path fill-rule="evenodd" clip-rule="evenodd" d="M-5.21973 39.9023C-4.19141 40.5352 -2.71484 42.126 -1.13281 42.126C1.50391 42.0996 1.56982 39.7178 4.24609 39.832C6.92896 39.9199 6.44116 42.4336 10.0601 42.4248C13.0527 42.4072 14.0151 39.375 16.5991 39.7354C18.5107 39.6035 19.2886 42.6094 22.2219 42.6533C25.2673 42.7412 26.3813 39.375 28.2864 39.6563C30.3298 39.6563 30.989 42.3633 33.8433 42.3809C37.4819 42.4072 38.1213 39.5684 40.3889 39.7441C42.0105 39.7002 43.2893 41.8272 45.6624 41.8799C47.5476 41.9238 49.1362 40.0166 50.2107 39.3311L50.2568 36.0967C49.1362 36.6504 47.4619 38.4785 45.7942 38.4961C43.3816 38.6191 41.8984 36.3867 40.2241 36.4131C38.2202 36.4395 37.4226 39.1641 34.0278 39.1641C30.9165 39.1641 30.2046 36.4131 28.2007 36.4131C26.2429 36.4307 25.6431 39.4014 22.2483 39.3486C19.4797 39.3047 18.4053 36.5098 16.4475 36.5361C14.3711 36.5361 12.2288 39.252 9.92163 39.1201C6.75757 38.9443 6.06543 36.5361 3.98901 36.5361C2.43994 36.5361 0.759034 38.7861 -1.10644 38.8213C-2.96533 38.8652 -5.05493 36.5801 -5.24609 36.5361L-5.21973 39.9023ZM-5.21973 33.4863C-4.19141 34.1279 -2.71484 35.7188 -1.13281 35.7188C1.50391 35.6924 1.56982 33.3105 4.24609 33.416C6.92896 33.5039 6.44116 36.0264 10.0601 36.0088C13.0527 36.0088 14.0151 32.9678 16.5991 33.3281C18.5107 33.1963 19.2886 36.2021 22.2219 36.2373C25.2673 36.3252 26.3813 32.9678 28.2864 33.249C30.3298 33.249 30.989 35.9561 33.8433 35.9736C37.4819 36 38.1213 33.1611 40.3889 33.3369C42.0105 33.293 43.2893 35.4199 45.6624 35.4727C47.5476 35.5166 49.1362 33.6094 50.2107 32.9238L50.2568 29.6895C49.1362 30.2432 47.4619 32.0625 45.7942 32.0889C43.3816 32.2031 41.8984 29.9795 40.2241 30.0059C38.2202 30.0322 37.4226 32.7568 34.0278 32.7568C30.9165 32.7568 30.2046 30.0059 28.2007 30.0059C26.2429 30.0234 25.6431 32.9941 22.2483 32.9414C19.4797 32.8975 18.4053 30.1025 16.4475 30.1289C14.3711 30.1289 12.2288 32.8359 9.92163 32.7041C6.75757 32.5283 6.06543 30.1201 3.98901 30.1201C2.43994 30.1201 0.759034 32.3789 -1.10644 32.4141C-2.96533 32.4492 -5.05493 30.1729 -5.24609 30.1289L-5.21973 33.4951V33.4863Z" fill="white"/>
<path fill-rule="evenodd" clip-rule="evenodd" d="M-5.21973 27.1582C-4.19141 27.791 -2.71484 29.373 -1.1394 29.373C1.49731 29.3555 1.56323 26.9648 4.2395 27.0791C6.91577 27.167 6.42798 29.6807 10.0469 29.6719C13.033 29.6631 14.002 26.6221 16.5728 26.9912C18.4844 26.8594 19.2622 29.8652 22.1956 29.9004C25.2344 29.9883 26.3484 26.6221 28.26 26.9033C30.2903 26.9033 30.9626 29.6104 33.8103 29.6279C37.4358 29.6543 38.0752 26.8154 40.3494 26.9912C41.9644 26.9473 43.2432 29.0742 45.6096 29.127C47.5015 29.1709 49.0835 27.2637 50.158 26.5781L50.2041 23.3438C49.0835 23.9062 47.4158 25.7256 45.7415 25.7432C43.342 25.8662 41.8523 23.6426 40.178 23.6602C38.1807 23.6865 37.3831 26.4111 33.9817 26.4111C30.8835 26.4111 30.1716 23.6602 28.1677 23.6602C26.21 23.6865 25.6101 26.6484 22.2285 26.5957C19.46 26.5518 18.3855 23.7656 16.4277 23.7832C14.3513 23.7832 12.209 26.499 9.91504 26.3672C6.74438 26.1914 6.05884 23.7832 3.98242 23.7832C2.43335 23.7832 0.759034 26.0332 -1.10644 26.0684C-2.96533 26.1123 -5.04834 23.8359 -5.24609 23.7832L-5.21973 27.1494V27.1582Z" fill="white"/>
<path fill-rule="evenodd" clip-rule="evenodd" d="M14.7148 6.67969C18.7358 6.31055 18.0107 5.85352 19.6257 5.50195C21.6692 5.87988 21.8999 7.52344 23.0403 8.53418C23.0403 8.53418 22.6118 10.4678 21.2144 10.1953C21.0232 9.42187 21.8867 9.17578 19.4016 7.1543C17.9514 7.04004 15.3608 7.49707 14.7214 6.67969H14.7148ZM27.1931 9.65918L24.2927 9.81738V10.7754C26.2505 10.8633 26.5999 10.5117 27.1931 9.65918Z" fill="#FFC84B"/>
<path fill-rule="evenodd" clip-rule="evenodd" d="M19.6243 5.42188L19.6332 5.42352C20.669 5.61509 21.2487 6.1293 21.7121 6.72367C21.8648 6.91955 22.0061 7.12588 22.1459 7.33001C22.2157 7.432 22.2852 7.53344 22.3555 7.63275C22.5681 7.93305 22.7928 8.22035 23.0724 8.46822L23.1089 8.50053L23.0965 8.55651L23.0396 8.53409C23.0965 8.55651 23.0965 8.55655 23.0965 8.5566L23.0964 8.55673L23.0963 8.55713L23.096 8.55846L23.095 8.56317C23.094 8.56721 23.0926 8.57302 23.0908 8.58047C23.0871 8.59538 23.0816 8.61688 23.0741 8.64396C23.0592 8.6981 23.0364 8.77465 23.0046 8.86543C22.9411 9.04673 22.8413 9.28623 22.6962 9.51757C22.4049 9.98206 21.9294 10.4147 21.2051 10.2735L21.1688 10.2664L21.1573 10.22C21.1074 10.0178 21.1235 9.8472 21.1381 9.69235C21.1389 9.68429 21.1396 9.67626 21.1404 9.66828C21.1554 9.50705 21.1659 9.35729 21.1122 9.17116C21.0577 8.9825 20.9345 8.7481 20.6664 8.43273C20.4005 8.11982 19.9955 7.73136 19.3827 7.23204C18.9434 7.19877 18.4039 7.21698 17.844 7.23588C17.4829 7.24807 17.1133 7.26054 16.7567 7.25968C16.3014 7.25858 15.8687 7.23551 15.5087 7.16068C15.1516 7.08645 14.8537 6.95909 14.6797 6.7367L14.7124 6.69119L14.7101 6.60069C16.7194 6.41622 17.5382 6.21012 18.0552 6.00823C18.2156 5.94556 18.349 5.88216 18.4815 5.81921C18.772 5.6811 19.0581 5.54515 19.6155 5.4238L19.6243 5.42188ZM14.8835 6.74304C15.0368 6.86331 15.2561 6.94805 15.527 7.00437C15.8779 7.0773 16.3033 7.10038 16.7569 7.10148C17.1056 7.10232 17.4718 7.09003 17.8319 7.07795C18.4031 7.05878 18.9588 7.04014 19.4044 7.07525L19.4192 7.07641L19.4318 7.08668C20.0544 7.59314 20.4697 7.99031 20.7449 8.31411C21.0199 8.6376 21.1587 8.89208 21.2229 9.11431C21.2878 9.33907 21.2736 9.5222 21.2581 9.68781C21.2576 9.69387 21.257 9.69991 21.2564 9.70592C21.243 9.84904 21.231 9.97645 21.2597 10.1238C21.9117 10.2333 22.3379 9.84218 22.6052 9.41609C22.7419 9.19809 22.8366 8.97123 22.8971 8.79849C22.9273 8.71225 22.9488 8.63987 22.9628 8.58933C22.9651 8.58096 22.9672 8.57319 22.9691 8.56606C22.696 8.31654 22.475 8.03204 22.2692 7.74135C22.1959 7.63791 22.1251 7.53439 22.0546 7.43146C21.9165 7.22972 21.7799 7.03018 21.6298 6.83768C21.1832 6.2648 20.6278 5.76949 19.6258 5.58187C19.0847 5.7004 18.8148 5.82889 18.5304 5.96428C18.3963 6.02811 18.259 6.09348 18.0885 6.16005C17.5738 6.3611 16.7758 6.56231 14.8835 6.74304ZM27.3338 9.57221L27.2359 9.7129C26.938 10.141 26.6939 10.4546 26.273 10.6448C25.8558 10.8332 25.2697 10.8983 24.29 10.8544L24.2327 10.8518V9.74136L27.3338 9.57221ZM24.3514 9.89323V10.6987C25.2944 10.7375 25.8474 10.67 26.2349 10.4949C26.5814 10.3384 26.7993 10.0944 27.0496 9.74605L24.3514 9.89323Z" fill="#D8AA3F"/>
<path fill-rule="evenodd" clip-rule="evenodd" d="M17.2188 9.49225C17.7263 9.14948 17.9768 9.2901 18.4185 9.27253C18.7151 10.002 18.9985 10.0635 19.6577 10.1514C19.9494 10.7278 20.3404 11.2025 20.798 11.5359C21.2556 11.8693 21.7665 12.0515 22.2878 12.0674C24.2588 11.9971 24.885 10.1602 26.21 9.95807H27.6074C27.3767 9.43073 27.1921 9.12311 26.6846 9.08795C25.6431 9.01764 24.2983 9.0528 23.125 9.40436L21.4705 9.95807C20.9827 9.64167 19.8027 7.98932 19.0447 8.02448C18.603 8.18268 18.603 8.38483 18.3855 8.61335C17.957 8.85944 17.5286 8.73639 17.2188 9.49225Z" fill="#FFC84B"/>
<path fill-rule="evenodd" clip-rule="evenodd" d="M21.4754 9.87885L23.1097 9.3319L23.1111 9.33147C24.2914 8.97781 25.6419 8.94287 26.6858 9.01334L26.6859 9.01335C26.9486 9.03154 27.1336 9.12102 27.2831 9.28004C27.4305 9.43675 27.5388 9.65654 27.6542 9.92043C27.6643 9.94354 27.6644 9.97208 27.6544 9.99528C27.6444 10.0185 27.6259 10.0328 27.6058 10.0328H26.2116C25.6547 10.1189 25.2254 10.5001 24.7488 10.9233C24.674 10.9898 24.598 11.0573 24.5201 11.1248C23.948 11.6212 23.2883 12.1064 22.2877 12.1421C22.2868 12.1422 22.2859 12.1422 22.2849 12.1421C21.7547 12.126 21.235 11.9405 20.7695 11.6015C20.3118 11.268 19.9195 10.7954 19.6245 10.2223C19.3102 10.18 19.0722 10.1409 18.877 10.0204C18.6796 9.89845 18.5306 9.69692 18.3842 9.34829C18.28 9.35077 18.1878 9.34551 18.101 9.34056C17.8264 9.32491 17.6074 9.31242 17.2425 9.5589L17.2171 9.49225L17.168 9.45642C17.3302 9.06051 17.5265 8.89112 17.7373 8.79124C17.8252 8.74959 17.916 8.71989 18.0051 8.69074C18.0204 8.68573 18.0357 8.68074 18.0509 8.6757C18.1534 8.64173 18.2545 8.60533 18.3549 8.5486C18.4032 8.49704 18.4402 8.44671 18.4756 8.3962C18.4822 8.38675 18.4888 8.37718 18.4955 8.36753C18.5254 8.32443 18.5564 8.27973 18.5919 8.23702C18.6822 8.12871 18.801 8.03382 19.0285 7.95233C19.0326 7.95086 19.0369 7.95001 19.0411 7.94982C19.245 7.94036 19.4712 8.04394 19.699 8.20091C19.9279 8.3586 20.1646 8.57457 20.3908 8.79956C20.5468 8.95469 20.6992 9.11557 20.8411 9.26533C20.9048 9.33251 20.9663 9.39745 21.0251 9.45863C21.2074 9.6484 21.3613 9.7998 21.4754 9.87885ZM17.3669 9.32038C17.6647 9.16486 17.8816 9.17738 18.1199 9.19113C18.213 9.1965 18.3094 9.20206 18.4152 9.19785C18.4363 9.19701 18.456 9.21212 18.4661 9.23692C18.6109 9.59297 18.7482 9.7762 18.9241 9.88479C19.1042 9.99604 19.3297 10.0328 19.6617 10.0771C19.6783 10.0793 19.6932 10.0912 19.7025 10.1096C19.9892 10.6761 20.3735 11.1427 20.8233 11.4703C21.2726 11.7977 21.7742 11.9768 22.2861 11.9927C23.2557 11.9577 23.8943 11.4895 24.459 10.9996C24.5349 10.9337 24.6098 10.8671 24.6841 10.801C25.1602 10.3777 25.6147 9.97346 26.202 9.88385C26.2041 9.88353 26.2062 9.88336 26.2083 9.88336H27.5073C27.4122 9.67522 27.3237 9.51424 27.2133 9.39685C27.0859 9.26144 26.9249 9.17953 26.6801 9.16256C25.6412 9.09243 24.3025 9.12778 23.1363 9.47705L21.4825 10.0305C21.4697 10.0348 21.4562 10.0329 21.4443 10.0253C21.3161 9.94208 21.1462 9.77421 20.9562 9.57641C20.8962 9.51401 20.834 9.44837 20.77 9.38081C20.6287 9.23168 20.4785 9.07315 20.3238 8.91932C20.0993 8.69607 19.8684 8.48577 19.6476 8.33365C19.4284 8.18263 19.2251 8.09318 19.0513 8.09889C18.8414 8.17502 18.7407 8.25951 18.6669 8.34807C18.6355 8.38575 18.6087 8.42435 18.5791 8.46706C18.5721 8.47718 18.5649 8.48753 18.5575 8.49815C18.5193 8.55278 18.4762 8.61144 18.4186 8.67203C18.4147 8.67605 18.4105 8.67939 18.4061 8.68196C18.2945 8.74604 18.1836 8.78568 18.0779 8.8207C18.0621 8.82595 18.0464 8.83109 18.0308 8.83617C17.9415 8.86542 17.8569 8.89312 17.7748 8.93203C17.628 9.00158 17.4904 9.10645 17.3669 9.32038Z" fill="#D8AA3F"/>
<path fill-rule="evenodd" clip-rule="evenodd" d="M19.2155 8.70096C19.2209 8.74145 19.2196 8.78303 19.2117 8.82278C19.2037 8.86252 19.1894 8.89947 19.1696 8.93101C19.1498 8.96254 19.125 8.98791 19.0971 9.00531C19.0691 9.02272 19.0387 9.03174 19.0078 9.03174C18.977 9.03174 18.9465 9.02272 18.9185 9.00531C18.8906 8.98791 18.8659 8.96254 18.8461 8.93101C18.8263 8.89947 18.8119 8.86252 18.804 8.82278C18.796 8.78303 18.7947 8.74145 18.8002 8.70096C18.8089 8.63599 18.8345 8.57718 18.8724 8.53481C18.9104 8.49245 18.9583 8.46924 19.0078 8.46924C19.0573 8.46924 19.1052 8.49245 19.1432 8.53481C19.1812 8.57718 19.2067 8.63599 19.2155 8.70096Z" fill="#FFC84B"/>
<path fill-rule="evenodd" clip-rule="evenodd" d="M19.0092 8.54395C18.9728 8.54395 18.9376 8.56099 18.9097 8.5921C18.8819 8.62321 18.8631 8.66641 18.8567 8.71412C18.8527 8.74385 18.8536 8.77439 18.8595 8.80358C18.8653 8.83276 18.8758 8.85989 18.8904 8.88306C18.9049 8.90622 18.9231 8.92484 18.9436 8.93763C18.9641 8.95041 18.9865 8.95703 19.0092 8.95703C19.0318 8.95703 19.0542 8.95041 19.0747 8.93763C19.0952 8.92484 19.1134 8.90622 19.1279 8.88306C19.1425 8.85989 19.153 8.83276 19.1589 8.80358C19.1647 8.77439 19.1656 8.74385 19.1616 8.71412C19.1552 8.66641 19.1365 8.62321 19.1086 8.5921C19.0807 8.56099 19.0455 8.54395 19.0092 8.54395ZM18.8378 8.47753C18.8858 8.42391 18.9465 8.39453 19.0092 8.39453C19.0718 8.39453 19.1325 8.42391 19.1805 8.47753C19.2285 8.53114 19.2609 8.60558 19.272 8.68781C19.2788 8.73905 19.2772 8.79168 19.2672 8.84198C19.2571 8.89228 19.2389 8.93904 19.2139 8.97896C19.1888 9.01887 19.1575 9.05097 19.1221 9.073C19.0868 9.09503 19.0482 9.10645 19.0092 9.10645C18.9701 9.10645 18.9316 9.09503 18.8962 9.073C18.8608 9.05097 18.8295 9.01887 18.8044 8.97896C18.7794 8.93904 18.7612 8.89228 18.7512 8.84198C18.7411 8.79167 18.7395 8.73905 18.7464 8.68781C18.7574 8.60558 18.7898 8.53114 18.8378 8.47753Z" fill="#D8AA3F"/>
<path fill-rule="evenodd" clip-rule="evenodd" d="M20.567 9.47461C23.5267 4.71973 26.1107 5.2998 29.4857 4.97461C29.5977 5.52832 29.5516 6.35449 27.9498 7.08398C25.7481 7.52344 21.8128 10.6172 21.793 10.6172C21.0613 10.5645 20.5472 9.54492 20.567 9.47461Z" fill="#FFC84B"/>
<path fill-rule="evenodd" clip-rule="evenodd" d="M29.5309 4.89111L29.5437 4.9541C29.6026 5.24525 29.6209 5.61713 29.4093 6.00964C29.2009 6.39639 28.7749 6.79222 27.9697 7.15894L27.9646 7.16126L27.9593 7.16232C26.8687 7.38 25.3421 8.2578 24.0801 9.08645C23.4504 9.49997 22.8886 9.89985 22.483 10.1964C22.2802 10.3446 22.1165 10.467 22.0028 10.5524C21.9797 10.5697 21.9587 10.5856 21.9398 10.5998C21.9122 10.6206 21.8891 10.6379 21.871 10.6514C21.8558 10.6628 21.8437 10.6718 21.8353 10.6779C21.8311 10.6809 21.8274 10.6836 21.8244 10.6856C21.823 10.6865 21.8211 10.6878 21.8191 10.689C21.8182 10.6895 21.8164 10.6905 21.8142 10.6916C21.8131 10.6921 21.8104 10.6932 21.8088 10.6938C21.8061 10.6947 21.7987 10.6961 21.7938 10.6964H21.7922L21.7906 10.6963C21.4051 10.6685 21.081 10.387 20.8585 10.1105C20.7467 9.97159 20.6588 9.83188 20.5997 9.72142C20.5703 9.66633 20.5473 9.61735 20.5321 9.57845C20.5246 9.55924 20.5182 9.54057 20.5139 9.52374C20.5118 9.51541 20.5097 9.50547 20.5086 9.49489C20.5077 9.48618 20.5064 9.46746 20.5121 9.44694L20.5677 9.47471L20.522 9.42419C22.0091 7.03517 23.4055 5.98145 24.8566 5.48694C25.9013 5.13093 26.9758 5.0653 28.1256 4.99507C28.5659 4.96818 29.0172 4.94061 29.4821 4.89582L29.5309 4.89111ZM20.633 9.49379C20.6342 9.49724 20.6356 9.50105 20.6373 9.50521C20.6492 9.53574 20.6689 9.57835 20.6963 9.62956C20.751 9.73168 20.8336 9.86333 20.9394 9.99472C21.1486 10.2547 21.4416 10.5056 21.7812 10.537C21.7888 10.5315 21.7994 10.5236 21.813 10.5134C21.831 10.5 21.8538 10.4828 21.8813 10.4621C21.9002 10.4479 21.9213 10.432 21.9446 10.4146C22.0585 10.329 22.2226 10.2063 22.426 10.0577C22.8326 9.76039 23.396 9.35937 24.0277 8.94452C25.2868 8.11775 26.8257 7.23047 27.9364 7.00693C28.7296 6.64485 29.1263 6.26372 29.313 5.91732C29.4825 5.60282 29.4833 5.3081 29.4409 5.05835C28.9859 5.10112 28.5465 5.12796 28.1194 5.15404C26.9745 5.22398 25.9181 5.28851 24.886 5.64022C23.4678 6.12353 22.0982 7.1502 20.633 9.49379Z" fill="#D8AA3F"/>
<path fill-rule="evenodd" clip-rule="evenodd" d="M26.5928 6.36849C26.5943 6.32485 26.6221 6.29107 26.6548 6.29305L28.8367 6.42489C28.8694 6.42687 28.8947 6.46385 28.8933 6.50749C28.8918 6.55113 28.864 6.58491 28.8313 6.58293L26.6494 6.45109C26.6167 6.44911 26.5914 6.41213 26.5928 6.36849ZM26.3557 6.84893C26.3584 6.80539 26.3871 6.77303 26.4197 6.77664L28.0083 6.95242C28.041 6.95603 28.0653 6.99426 28.0625 7.03779C28.0598 7.08133 28.0312 7.1137 27.9985 7.11008L26.4099 6.9343C26.3772 6.93069 26.353 6.89247 26.3557 6.84893Z" fill="#D9A43E"/>
</g>
<defs>
<clipPath id="clip0_45_16973">
<rect width="45" height="45" fill="white"/>
</clipPath>
</defs>
</svg>
