<svg width="45" height="45" viewBox="0 0 45 45" fill="none" xmlns="http://www.w3.org/2000/svg">
<g clip-path="url(#clip0_45_17040)">
<path fill-rule="evenodd" clip-rule="evenodd" d="M50.8233 44.9554H-5.34961V0.034668H50.8233V44.9554Z" fill="white"/>
<path fill-rule="evenodd" clip-rule="evenodd" d="M-5.38281 -0.00927734H50.856V44.9994H-5.38281V-0.00927734ZM-5.31688 0.0786302V44.9115H50.7901V0.0786302H-5.31688Z" fill="black"/>
<path fill-rule="evenodd" clip-rule="evenodd" d="M50.8233 36.8237H-5.34961V44.9552H50.8233V36.8237Z" fill="#3E5698"/>
<path fill-rule="evenodd" clip-rule="evenodd" d="M50.8233 34.9428H-5.34961V10.0474H50.8233V34.9428Z" fill="#C60000"/>
<path fill-rule="evenodd" clip-rule="evenodd" d="M50.8233 0.043457H-5.34961V8.16611H50.8233V0.043457Z" fill="#3E5698"/>
<path fill-rule="evenodd" clip-rule="evenodd" d="M21.3184 22.4951C21.3184 28.0772 17.8241 32.6045 13.4991 32.6045C9.17401 32.6045 5.67969 28.0772 5.67969 22.4951C5.67969 16.913 9.17401 12.4033 13.4991 12.4033C17.8175 12.4033 21.3184 16.9218 21.3184 22.5039V22.4951Z" fill="white"/>
<path fill-rule="evenodd" clip-rule="evenodd" d="M11.2502 23.7787L7.49219 20.2008L12.1733 20.1832L13.6699 14.3462L15.061 20.1569L19.7421 20.1217L15.9247 23.7435L17.329 29.5542L13.571 25.9764L9.74701 29.6069L11.2502 23.7787Z" fill="#C40000"/>
</g>
<defs>
<clipPath id="clip0_45_17040">
<rect width="45" height="45" fill="white"/>
</clipPath>
</defs>
</svg>
