<svg width="45" height="45" viewBox="0 0 45 45" fill="none" xmlns="http://www.w3.org/2000/svg">
<g clip-path="url(#clip0_45_17177)">
<path fill-rule="evenodd" clip-rule="evenodd" d="M0 0H45V45H0V0Z" fill="#00ABC2"/>
<path fill-rule="evenodd" clip-rule="evenodd" d="M4.23516 43.7812C4.46719 44.0812 4.38984 44.5781 5.02969 44.5125C6 44.5125 6.02812 43.725 6.02812 43.1719C6.02812 42.6187 4.57266 41.85 4.50234 41.0344C4.43203 40.2187 4.83984 40.0031 5.17734 40.0031C5.50781 40.0031 5.73984 40.2562 5.73984 40.4812C5.73984 40.7062 5.58516 40.7812 5.34609 40.7812C5.10703 40.7812 5.45156 40.6219 5.24766 40.5C5.04375 40.3781 4.91016 40.6875 4.91016 40.875C4.91016 41.0812 5.41641 41.1375 5.75391 40.9969C5.82422 41.4375 5.85234 41.4656 5.38125 42.2156C5.71875 41.925 5.74688 41.8594 6.11953 42.0281C5.74688 41.5969 6.02813 40.7344 6.03516 40.5187C6.04219 40.3031 5.96484 40.0406 5.82422 39.9094C5.55 39.5812 4.96641 39.5625 4.61484 39.7781C4.10156 40.0781 4.07344 40.9781 4.20703 41.2781L5.62734 43.1906C5.72578 43.4156 5.76797 44.0531 5.16328 44.0812C4.53047 44.1469 4.30547 42.9937 4.19297 42.6094C4.04531 43.0312 3.87656 44.1844 3.23672 44.1187C2.63203 44.0906 2.51953 43.4625 2.61797 43.2281L4.07344 41.2594C4.21406 40.9594 4.18594 40.0594 3.67266 39.7594C3.32109 39.5437 2.7375 39.5719 2.47031 39.8906C2.31562 40.0219 2.23125 40.275 2.24531 40.5C2.25938 40.725 2.53359 41.5781 2.16797 42C2.53359 41.8406 2.56875 41.9062 2.90625 42.1875C2.43516 41.4469 2.47031 41.4187 2.53359 40.9687C2.87109 41.1187 3.37734 41.0625 3.37734 40.8656C3.37734 40.6687 3.23672 40.3406 3.03281 40.4719C2.83594 40.6031 3.17344 40.7625 2.93438 40.7625C2.70234 40.7625 2.53359 40.6969 2.53359 40.4812C2.53359 40.2656 2.76562 39.9844 3.10312 39.9844C3.44062 39.9844 3.84141 40.2094 3.77109 41.025C3.70078 41.8406 2.22422 42.7219 2.22422 43.275C2.22422 43.8375 2.32266 44.5031 3.29297 44.5031C3.92578 44.5687 4.00313 44.0719 4.23516 43.7719V43.7812Z" fill="#FFEC2D"/>
<path fill-rule="evenodd" clip-rule="evenodd" d="M4.15703 32.1842C4.38906 31.8842 4.57891 31.003 5.21172 31.0592C6.18203 31.0592 6.54766 31.7811 6.54766 32.3342C6.54766 32.8873 4.57891 37.3967 4.50859 38.2123C4.43828 39.028 4.84609 39.253 5.17656 39.253C5.51406 39.253 5.74609 38.9998 5.74609 38.7655C5.74609 38.5311 5.57734 38.4842 5.34531 38.4842C5.11328 38.4842 5.44375 38.6436 5.24687 38.7655C5.05 38.8873 4.90938 38.578 4.90938 38.3811C4.90938 38.1842 5.41563 38.1186 5.75313 38.2686C5.81641 37.828 5.84453 37.7998 5.38047 37.0498C5.71797 37.3311 5.74609 37.4061 6.11875 37.2373C5.74609 37.6686 6.02031 38.5217 6.03438 38.7373C6.04844 38.953 5.96406 39.2248 5.81641 39.3561C5.54922 39.6842 4.95859 39.6936 4.60703 39.4873C4.10078 39.178 4.07266 38.2873 4.20625 37.9873L6.11875 32.4936C6.22422 32.2686 5.95703 31.5186 5.35234 31.4905C4.71953 31.4248 4.50156 32.3155 4.38906 32.6998L5.25391 32.6061C5.25391 32.6061 5.28906 32.7936 5.25391 32.9061C4.96374 32.9344 4.675 32.9844 4.38906 33.0561L4.35391 33.6373H4.77578L4.74766 33.8998C4.74766 33.8998 4.38906 33.8623 4.35391 33.8998C4.31875 33.928 4.28359 34.4811 4.28359 34.4811C4.28359 34.4811 4.21328 34.5186 4.14297 34.5186C4.07266 34.5186 4.00234 34.4811 4.00234 34.4811C4.00234 34.4811 3.97422 33.928 3.93906 33.8998C3.90391 33.8623 3.54531 33.8998 3.54531 33.8998L3.51016 33.6373H3.93906L3.90391 33.0561C3.90391 33.0561 3.48203 32.9436 3.03906 32.9061C3.01094 32.7936 3.03906 32.6155 3.03906 32.6155L3.90391 32.6998C3.79141 32.3155 3.57344 31.4248 2.94062 31.4811C2.33594 31.5186 2.06875 32.2686 2.16719 32.4936L4.07969 37.9873C4.21328 38.278 4.18516 39.178 3.67891 39.4873C3.32734 39.6936 2.73672 39.6748 2.46953 39.3561C2.32187 39.2248 2.2375 38.9623 2.25156 38.7467C2.26562 38.5311 2.53281 37.6592 2.16719 37.2467C2.53984 37.4061 2.575 37.3405 2.90547 37.0498C2.44141 37.7998 2.46953 37.828 2.53984 38.2686C2.87031 38.1186 3.37656 38.1748 3.37656 38.3811C3.37656 38.5686 3.23594 38.8967 3.03906 38.7655C2.84219 38.6342 3.17969 38.4842 2.94062 38.4842C2.70859 38.4842 2.53984 38.5405 2.53984 38.7655C2.53984 38.9905 2.77187 39.253 3.10234 39.253C3.43281 39.253 3.84063 39.028 3.77734 38.2217C3.70703 37.4061 1.73828 32.878 1.73828 32.3342C1.73828 31.7717 2.10391 31.0686 3.07422 31.0686C3.70703 31.003 3.93906 31.8842 4.16406 32.1842H4.15703Z" fill="#FFEC2D"/>
<path fill-rule="evenodd" clip-rule="evenodd" d="M4.15703 29.9438C4.38906 30.2438 4.57891 31.125 5.21172 31.0688C6.18203 31.0688 6.54766 30.3469 6.54766 29.7938C6.54766 29.2407 4.57891 24.7313 4.50859 23.9157C4.43828 23.1 4.84609 22.875 5.17656 22.875C5.51406 22.875 5.74609 23.1282 5.74609 23.3625C5.74609 23.5969 5.57734 23.6438 5.34531 23.6438C5.11328 23.6438 5.44375 23.4938 5.24687 23.3625C5.05 23.2313 4.90938 23.55 4.90938 23.7469C4.90938 23.9438 5.41563 24.0094 5.75313 23.8594C5.81641 24.3 5.84453 24.3282 5.38047 25.0782C5.71797 24.7969 5.74609 24.7219 6.11875 24.8907C5.74609 24.4594 6.02031 23.6063 6.03438 23.3907C6.04844 23.175 5.96406 22.9032 5.81641 22.7719C5.54922 22.4532 4.95859 22.4344 4.60703 22.6407C4.10078 22.95 4.07266 23.8407 4.20625 24.1407L6.11875 29.625C6.22422 29.85 5.95703 30.6 5.35234 30.6282C4.71953 30.6938 4.50156 29.8032 4.38906 29.4188L5.25391 29.5125C5.25391 29.5125 5.28906 29.325 5.25391 29.2125C4.96374 29.1843 4.675 29.1342 4.38906 29.0625L4.35391 28.4813H4.77578L4.74766 28.2188C4.74766 28.2188 4.38906 28.2563 4.35391 28.2188C4.31875 28.1907 4.28359 27.6375 4.28359 27.6375C4.28359 27.6375 4.21328 27.6 4.14297 27.6C4.07266 27.6 4.00234 27.6375 4.00234 27.6375C4.00234 27.6375 3.97422 28.1907 3.93906 28.2188C3.90391 28.2563 3.54531 28.2188 3.54531 28.2188L3.51016 28.4813H3.93906L3.90391 29.0625C3.90391 29.0625 3.48203 29.175 3.03906 29.2125C3.01094 29.325 3.03906 29.5032 3.03906 29.5032L3.90391 29.4188C3.79141 29.8032 3.57344 30.6938 2.94062 30.6375C2.33594 30.6 2.06875 29.85 2.16719 29.625L4.07969 24.1407C4.21328 23.8407 4.18516 22.95 3.67891 22.6407C3.32734 22.4344 2.73672 22.4532 2.46953 22.7719C2.32187 22.9032 2.2375 23.1657 2.25156 23.3813C2.26562 23.5969 2.53281 24.4594 2.16719 24.8813C2.53984 24.7219 2.575 24.7875 2.90547 25.0782C2.44141 24.3282 2.46953 24.3 2.53984 23.8594C2.87031 24.0094 3.37656 23.9532 3.37656 23.7469C3.37656 23.5594 3.23594 23.2313 3.03906 23.3625C2.84219 23.4938 3.17969 23.6438 2.94062 23.6438C2.70859 23.6438 2.53984 23.5875 2.53984 23.3625C2.53984 23.1375 2.77187 22.875 3.10234 22.875C3.43281 22.875 3.84063 23.1 3.77734 23.9063C3.70703 24.7219 1.73828 29.25 1.73828 29.7938C1.73828 30.3563 2.10391 31.0594 3.07422 31.0594C3.70703 31.125 3.93906 30.2438 4.16406 29.9438H4.15703Z" fill="#FFEC2D"/>
<path fill-rule="evenodd" clip-rule="evenodd" d="M4.15703 15.0563C4.38906 14.7563 4.57891 13.875 5.21172 13.9313C6.18203 13.9313 6.54766 14.6532 6.54766 15.2063C6.54766 15.7594 4.57891 20.2688 4.50859 21.0938C4.43828 21.9 4.84609 22.125 5.17656 22.125C5.51406 22.125 5.74609 21.8719 5.74609 21.6469C5.74609 21.4219 5.57734 21.3469 5.34531 21.3469C5.11328 21.3469 5.44375 21.5157 5.24687 21.6469C5.05 21.7782 4.90938 21.45 4.90938 21.2532C4.90938 21.0657 5.41563 20.9907 5.75313 21.1407C5.81641 20.7 5.84453 20.6719 5.38047 19.9219C5.71797 20.2125 5.74609 20.2782 6.11875 20.1094C5.74609 20.5407 6.02031 21.4032 6.03438 21.6094C6.04844 21.8157 5.96406 22.0969 5.81641 22.2282C5.54922 22.5563 4.95859 22.5657 4.60703 22.3594C4.10078 22.05 4.07266 21.1594 4.20625 20.8594L6.11875 15.375C6.22422 15.15 5.95703 14.4 5.35234 14.3719C4.71953 14.3063 4.50156 15.1969 4.38906 15.5813L5.25391 15.4875C5.25391 15.4875 5.28906 15.675 5.25391 15.7875C4.80391 15.825 4.38906 15.9375 4.38906 15.9375L4.35391 16.5188H4.77578L4.74766 16.7813C4.74766 16.7813 4.38906 16.7532 4.35391 16.7813C4.31875 16.8094 4.28359 17.3719 4.28359 17.3719C4.28359 17.3719 4.21328 17.4 4.14297 17.4C4.07266 17.4 4.00234 17.3719 4.00234 17.3719C4.00234 17.3719 3.97422 16.8094 3.93906 16.7813C3.90391 16.7532 3.54531 16.7813 3.54531 16.7813L3.51016 16.5188H3.93906L3.90391 15.9375C3.90391 15.9375 3.48203 15.825 3.03906 15.7875C3.01094 15.675 3.03906 15.4969 3.03906 15.4969L3.90391 15.5813C3.79141 15.1969 3.57344 14.3063 2.94062 14.3625C2.33594 14.4 2.06875 15.15 2.16719 15.375L4.07969 20.8594C4.21328 21.1594 4.18516 22.05 3.67891 22.3594C3.32734 22.5657 2.73672 22.5469 2.46953 22.2282C2.32187 22.0969 2.2375 21.8344 2.25156 21.6188C2.26562 21.4032 2.53281 20.5407 2.16719 20.1188C2.53984 20.2782 2.575 20.2125 2.90547 19.9219C2.44141 20.6719 2.46953 20.7 2.53984 21.1407C2.87031 20.9907 3.37656 21.0563 3.37656 21.2532C3.37656 21.4407 3.23594 21.7688 3.03906 21.6375C2.84219 21.5157 3.17969 21.3563 2.94062 21.3563C2.70859 21.3563 2.53984 21.4125 2.53984 21.6375C2.53984 21.8625 2.77187 22.125 3.10234 22.125C3.43281 22.125 3.84063 21.9 3.77734 21.0938C3.70703 20.2782 1.73828 15.7594 1.73828 15.2063C1.73828 14.6532 2.10391 13.9407 3.07422 13.9407C3.70703 13.875 3.93906 14.7563 4.16406 15.0657L4.15703 15.0563Z" fill="#FFEC2D"/>
<path fill-rule="evenodd" clip-rule="evenodd" d="M4.15703 12.8154C4.38906 13.1154 4.57891 14.006 5.21172 13.9404C6.18203 13.9404 6.54766 13.2185 6.54766 12.6654C6.54766 12.1122 4.57891 7.60287 4.50859 6.78725C4.43828 5.97162 4.84609 5.74662 5.17656 5.74662C5.51406 5.74662 5.74609 6.00912 5.74609 6.23412C5.74609 6.45912 5.57734 6.52475 5.34531 6.52475C5.11328 6.52475 5.44375 6.36537 5.24687 6.23412C5.05 6.10287 4.90938 6.42162 4.90938 6.6185C4.90938 6.81537 5.41563 6.881 5.75313 6.731C5.81641 7.17162 5.84453 7.19975 5.38047 7.94975C5.71797 7.6685 5.74609 7.5935 6.11875 7.76225C5.74609 7.34037 6.02031 6.47787 6.03438 6.26225C6.04844 6.04662 5.96406 5.77475 5.81641 5.6435C5.54922 5.32475 4.95859 5.306 4.60703 5.52162C4.10078 5.82162 4.07266 6.72162 4.20625 7.01225L6.11875 12.506C6.22422 12.731 5.95703 13.481 5.35234 13.5185C4.71953 13.5747 4.50156 12.6935 4.38906 12.2997L5.25391 12.3935C5.25391 12.3935 5.28906 12.206 5.25391 12.0935C4.96389 12.068 4.67517 12.0211 4.38906 11.9529L4.35391 11.3622H4.77578L4.74766 11.0997C4.74766 11.0997 4.38906 11.1372 4.35391 11.0997C4.31875 11.0716 4.28359 10.5185 4.28359 10.5185C4.28359 10.5185 4.21328 10.481 4.14297 10.481C4.07266 10.481 4.00234 10.5185 4.00234 10.5185C4.00234 10.5185 3.97422 11.0716 3.93906 11.0997C3.90391 11.1372 3.54531 11.0997 3.54531 11.0997L3.51016 11.3622H3.93906L3.90391 11.9529C3.90391 11.9529 3.48203 12.056 3.03906 12.0935C3.01094 12.2154 3.03906 12.3935 3.03906 12.3935L3.90391 12.2997C3.79141 12.6935 3.57344 13.5747 2.94062 13.5185C2.33594 13.481 2.06875 12.731 2.16719 12.506L4.07969 7.01225C4.21328 6.72162 4.18516 5.82162 3.67891 5.51225C3.32734 5.306 2.73672 5.32475 2.46953 5.6435C2.32187 5.77475 2.2375 6.03725 2.25156 6.25287C2.26562 6.4685 2.53281 7.34037 2.16719 7.75287C2.53984 7.5935 2.575 7.65912 2.90547 7.94975C2.44141 7.19975 2.46953 7.17162 2.53984 6.731C2.87734 6.881 3.37656 6.82475 3.37656 6.6185C3.37656 6.431 3.23594 6.10287 3.03906 6.23412C2.84219 6.36537 3.17969 6.52475 2.94062 6.52475C2.70859 6.52475 2.53984 6.45912 2.53984 6.23412C2.53984 6.00912 2.77187 5.74662 3.10234 5.74662C3.43281 5.74662 3.84766 5.97162 3.77734 6.77787C3.70703 7.5935 1.73828 12.1216 1.73828 12.6654C1.73828 13.2279 2.10391 13.9404 3.07422 13.9404C3.70703 14.006 3.93906 13.1154 4.16406 12.8154H4.15703Z" fill="#FFEC2D"/>
<path fill-rule="evenodd" clip-rule="evenodd" d="M4.23516 1.2186C4.46719 0.918598 4.38984 0.421723 5.02969 0.487348C6 0.487348 6.02812 1.27485 6.02812 1.82797C6.02812 2.3811 4.57266 3.14985 4.50234 3.96547C4.43203 4.7811 4.83984 4.99672 5.17734 4.99672C5.50781 4.99672 5.73984 4.7436 5.73984 4.5186C5.73984 4.2936 5.58516 4.2186 5.34609 4.2186C5.10703 4.2186 5.45156 4.37797 5.24766 4.49985C5.04375 4.62172 4.91016 4.31235 4.91016 4.12485C4.91016 3.9186 5.41641 3.85297 5.75391 4.00297C5.82422 3.56235 5.85234 3.53422 5.38125 2.78422C5.71875 3.07485 5.74688 3.14047 6.11953 2.97172C5.74688 3.40297 6.02813 4.26547 6.03516 4.4811C6.04219 4.69672 5.96484 4.95922 5.82422 5.09047C5.54297 5.43735 4.95938 5.43735 4.60781 5.2311C4.09453 4.9311 4.06641 4.0311 4.2 3.7311L5.62734 1.80922C5.72578 1.58422 5.76797 0.946723 5.16328 0.918598C4.53047 0.852973 4.30547 2.0061 4.19297 2.39047C4.04531 1.9686 3.87656 0.806098 3.23672 0.871723C2.63203 0.899848 2.51953 1.52797 2.61797 1.76235L4.07344 3.7311C4.21406 4.0311 4.18594 4.9311 3.67266 5.2311C3.32109 5.44672 2.7375 5.42797 2.47031 5.09985C2.31562 4.9686 2.23125 4.71547 2.24531 4.49047C2.25938 4.26547 2.53359 3.41235 2.16797 2.99047C2.53359 3.14985 2.56875 3.08422 2.89922 2.80297C2.43516 3.5436 2.47031 3.57172 2.53359 4.02172C2.87109 3.87172 3.37734 3.92797 3.37734 4.12485C3.37734 4.32172 3.23672 4.64985 3.03281 4.5186C2.83594 4.38735 3.17344 4.22797 2.93438 4.22797C2.70234 4.22797 2.53359 4.2936 2.53359 4.50922C2.53359 4.72485 2.76562 5.0061 3.10312 5.0061C3.44062 5.0061 3.84141 4.7811 3.77109 3.96547C3.70078 3.14985 2.22422 2.2686 2.22422 1.71547C2.22422 1.15297 2.32266 0.487348 3.29297 0.487348C3.92578 0.421723 4.00313 0.918598 4.23516 1.2186Z" fill="#FFEC2D"/>
<path d="M31.046 19.3042C31.046 14.8473 28.1868 11.2344 24.6597 11.2344C21.1327 11.2344 18.2734 14.8473 18.2734 19.3042C18.2734 23.761 21.1327 27.374 24.6597 27.374C28.1868 27.374 31.046 23.761 31.046 19.3042Z" fill="#FFEC2D"/>
<path fill-rule="evenodd" clip-rule="evenodd" d="M24.3591 6.42163C24.2991 6.42163 24.0139 9.10322 23.9088 9.70357C23.8038 11.0544 25.2596 11.0043 25.0195 9.65354L24.3591 6.41162V6.42163ZM24.8694 32.4171C24.9219 32.4171 25.3572 29.7655 25.4998 29.1751C25.6724 27.8443 24.2165 27.7743 24.3741 29.1351L24.8694 32.4171ZM14.6934 19.2492C14.6934 19.3193 16.7871 19.8796 17.2524 20.0597C18.303 20.2899 18.378 18.4588 17.2974 18.6589L14.6934 19.2592V19.2492ZM35.083 19.5694C35.083 19.4994 32.9667 19.0391 32.4939 18.879C31.4358 18.7089 31.4283 20.54 32.4939 20.2899L35.083 19.5694ZM16.8396 10.7442C16.8021 10.7942 18.1829 12.8755 18.4606 13.3858C19.181 14.3864 20.1341 12.9855 19.181 12.3051L16.8396 10.7542V10.7442ZM32.6815 27.8543C32.7191 27.8043 31.2032 25.8832 30.888 25.4129C30.1 24.4923 29.252 25.9832 30.2426 26.5636L32.6815 27.8644V27.8543ZM19.999 7.84247C19.954 7.87249 20.5994 10.454 20.7044 11.0644C21.0646 12.3351 22.3704 11.5046 21.695 10.414L20.0065 7.84247H19.999ZM29.237 31.0963C29.2895 31.0662 28.7867 28.4347 28.7192 27.8243C28.4265 26.5236 27.0832 27.224 27.6911 28.3847L29.2445 31.0863L29.237 31.0963ZM31.5108 9.64354C31.4658 9.59351 29.7998 11.3045 29.3946 11.6447C28.5916 12.5453 29.6797 13.766 30.2351 12.5753L31.5108 9.64354ZM17.7777 29.025C17.8152 29.0751 19.5788 27.5242 19.999 27.214C20.847 26.3935 19.8339 25.0727 19.211 26.2134L17.7852 29.025H17.7777ZM15.1511 14.6065C15.1286 14.6665 16.9522 16.0774 17.3499 16.4476C18.288 17.098 18.8358 15.397 17.7627 15.1268L15.1511 14.6065ZM34.1899 24.4523C34.2124 24.3923 32.4639 22.8214 32.0887 22.4211C31.1881 21.6807 30.5503 23.3317 31.6084 23.6919L34.1899 24.4523ZM28.1413 7.15206C28.0888 7.13205 27.0457 9.49345 26.768 10.0038C26.7685 10.1667 26.8073 10.3254 26.8789 10.4575C26.9504 10.5896 27.0512 10.6885 27.1671 10.7404C27.2829 10.7922 27.4081 10.7944 27.5249 10.7467C27.6418 10.6989 27.7445 10.6036 27.8186 10.474L28.1413 7.15206ZM21.0947 31.5966C21.1472 31.6266 22.3179 29.3552 22.6181 28.8649C23.1659 27.7043 21.8376 26.9638 21.59 28.3046L21.0947 31.5966ZM15.2787 24.6624C15.3012 24.7225 17.38 24.0621 17.8677 23.962C18.8883 23.5818 18.318 21.9008 17.4175 22.6813L15.2787 24.6624ZM34.1974 14.3864C34.1824 14.3263 32.0737 14.7966 31.5859 14.8566C30.5353 15.1468 31.023 16.8778 31.9611 16.1774L34.1974 14.3864Z" fill="#FFEC2D"/>
<path fill-rule="evenodd" clip-rule="evenodd" d="M26.4296 6.59155C26.3771 6.58154 25.6717 9.13306 25.4615 9.69339C25.1539 10.9942 26.5872 11.3144 26.5647 9.93353L26.4371 6.58154L26.4296 6.59155ZM22.7899 32.1967C22.8425 32.2168 23.6905 29.7253 23.9306 29.1749C24.3058 27.9142 22.895 27.4739 22.8425 28.8448L22.7824 32.1967H22.7899ZM22.062 6.8417C22.0095 6.86171 22.2046 9.56331 22.2046 10.1837C22.3472 11.5145 23.7505 11.0542 23.2852 9.81346L22.062 6.8417ZM27.165 32.0467C27.2176 32.0366 27.165 29.325 27.2026 28.7047C27.135 27.3539 25.7017 27.6941 26.1069 28.9748L27.1575 32.0467H27.165ZM18.4449 9.08303C18.3998 9.12305 19.3979 11.5145 19.5855 12.0848C20.1259 13.2555 21.2891 12.1549 20.4711 11.2243L18.4449 9.08303ZM30.8122 29.8854C30.8572 29.8453 29.9867 27.3639 29.8366 26.7835C29.3638 25.5728 28.1481 26.5734 28.9061 27.564L30.8122 29.8854ZM15.8033 12.445C15.7733 12.5051 17.3867 14.2861 17.7244 14.7464C18.5574 15.5869 19.3304 14.026 18.3098 13.5357L15.8033 12.445ZM33.3787 26.4233C33.4088 26.3633 31.9004 24.4421 31.5852 23.9619C30.8047 23.0513 29.9492 24.5422 30.9398 25.1225L33.3787 26.4233ZM14.6476 16.6375C14.6326 16.7076 16.6213 17.7182 17.0565 18.0083C18.0621 18.4586 18.3848 16.6675 17.2892 16.6275L14.6476 16.6375ZM34.7145 22.4209C34.737 22.3609 32.8084 21.1802 32.3881 20.85C31.4126 20.3097 30.9848 22.0707 32.073 22.2108L34.7145 22.4209ZM14.5801 21.7906C14.5876 21.8506 16.7339 21.8106 17.2216 21.8606C18.2873 21.7906 18.0321 19.9795 17.0115 20.4698L14.5801 21.7906ZM34.8571 17.2879C34.8571 17.2179 32.7108 17.0678 32.2306 16.9777C31.1574 16.9577 31.315 18.7888 32.3581 18.3785L34.8571 17.2779V17.2879ZM16.4187 27.1337C16.4487 27.1938 18.3698 25.973 18.8201 25.7429C19.7506 25.0925 18.8951 23.6016 18.1522 24.6122L16.4187 27.1337ZM33.1011 11.8947C33.071 11.8347 31.0974 12.8853 30.6246 13.0754C29.6565 13.6457 30.4295 15.2067 31.225 14.2661L33.1011 11.8947ZM19.5405 30.6758C19.5855 30.7059 20.9589 28.6246 21.3041 28.1844C21.957 27.1137 20.7037 26.1832 20.336 27.4839L19.5405 30.6758ZM30.0242 8.28255C29.9867 8.24253 28.5008 10.1937 28.1331 10.6039C27.4277 11.6145 28.6284 12.6551 29.0637 11.3944L30.0167 8.28255H30.0242Z" fill="#FFEC2D"/>
<path fill-rule="evenodd" clip-rule="evenodd" d="M14.894 24.6715C15.0086 25.1876 15.025 28.0773 17.3343 30.8639C19.6271 33.6298 23.5578 34.2491 23.5578 34.2491C23.5578 34.2491 23.5742 34.6413 23.2957 34.6619C23.0173 34.7032 21.6743 34.3523 21.0029 34.0839C20.3478 33.8363 19.7582 33.3821 19.6926 33.4028C19.6108 33.4441 19.4797 33.733 19.2832 33.6918C19.0867 33.6505 18.1368 32.412 17.7109 32.0817C16.8592 31.1539 16.1052 30.0926 15.4672 28.9236C15.0086 27.9948 14.894 27.3755 14.7466 27.3755C14.5992 27.3755 14.0587 27.8297 14.0587 27.8297C14.0587 27.8297 13.5674 26.9008 13.1416 25.4146C12.6994 23.9285 12.7485 23.0615 12.8468 22.9996C12.9614 22.9377 12.9614 24.0936 13.289 25.1463C13.6165 26.2196 14.0751 26.5499 14.0751 26.5499C14.0751 26.5499 13.7803 25.9926 13.551 24.6096C13.3217 23.2267 13.2234 21.885 13.3872 21.4721C13.551 21.0593 13.6984 20.9355 13.7148 20.9561C13.7475 20.9974 13.4364 21.596 13.6493 23.1854C13.8622 24.7747 14.4354 26.1164 14.5664 26.0545C14.6974 25.9926 14.4845 25.6623 14.4026 24.7335C14.3208 23.8046 14.4845 23.2267 14.6647 23.1441C14.7466 23.0615 14.8776 24.1761 14.894 24.6715ZM13.289 27.3136C12.8468 26.7976 12.1589 25.0018 12.0115 25.0844C11.8477 25.1876 13.1252 27.7677 13.1579 27.9741C13.1907 28.2218 13.4691 28.9236 13.2562 28.8204C13.0433 28.7172 11.5202 26.6944 11.7003 27.0866C11.8805 27.4788 13.0269 29.2539 12.9614 29.3571C12.8959 29.4603 12.0115 28.3663 11.9787 28.5108C11.9624 28.6347 12.8468 29.708 12.8304 29.8319C12.814 29.9557 12.2572 29.1507 12.2572 29.3158C12.2572 29.4809 12.8304 30.286 12.8304 30.4098C12.8304 30.5337 12.339 29.8319 12.5028 30.2034C12.6502 30.6162 13.076 30.9671 13.0597 31.091C13.0433 31.2148 12.6994 30.9258 12.6994 30.9878C12.6994 31.0497 13.3381 31.3387 13.4855 31.5657C13.6493 31.7928 14.6974 33.3202 15.4836 34.0839C16.2697 34.8477 18.5298 36.1894 18.6936 36.1894C18.841 36.1894 19.0703 35.7765 19.0212 35.6114C18.972 35.4463 16.761 34.4968 16.1551 33.795C15.5327 33.0932 14.026 31.4006 13.8949 31.318C13.7803 31.2148 13.4364 31.2561 13.4364 31.1529C13.4364 31.0497 13.8786 31.2148 13.8458 31.1529C13.8294 31.091 13.2398 30.7607 13.2562 30.6988C13.289 30.6369 13.6656 30.8226 13.6656 30.7607C13.6656 30.6988 12.9778 30.224 13.0105 30.1208C13.0269 30.0176 13.5182 30.4098 13.5182 30.3272C13.5182 30.286 12.8631 29.708 12.8795 29.6048C12.8959 29.5016 13.3872 30.0589 13.3708 29.9351C13.3545 29.8112 12.9778 29.1094 12.9778 29.0268C12.9778 28.9236 13.5674 29.7286 13.6329 29.5635C13.6656 29.419 13.42 28.0773 13.4364 28.0567C13.4527 28.0361 13.8786 28.3457 13.9441 28.1599C14.026 27.9535 13.6493 27.6852 13.289 27.3136ZM20.8391 37.4691C20.5279 37.531 20.3805 37.3865 20.5607 37.0563C20.8063 37.0563 21.4614 36.788 21.6907 36.6641C21.92 36.5403 22.1657 36.3751 22.3622 36.1481C22.5587 35.8797 22.6898 36.2926 22.5751 36.5196C22.4932 36.6641 22.1165 36.9324 21.8381 37.0769C21.4287 37.2421 21.0684 37.4898 20.8391 37.4691ZM22.8863 36.4164C22.6734 36.1274 22.8535 35.921 23.1647 35.694C23.6233 35.3843 23.4923 34.9509 24.0819 34.6C24.3439 34.3936 28.0125 32.5359 29.2081 31.5451C30.4037 30.5543 33.7611 27.3549 34.6619 25.1463C35.5463 22.9583 35.1205 22.7932 35.2515 22.7106C35.3661 22.6074 35.4971 23.0202 35.4808 23.5156C35.448 23.9904 35.1532 25.4353 35.2515 25.5798C35.3497 25.7242 36.5944 24.4445 37.1185 22.8964C37.6426 21.3483 38.0357 19.7383 38.2814 19.7383C38.5434 19.7383 37.8555 22.3804 37.4133 23.4124C36.9875 24.4445 36.4798 24.9605 36.5944 25.1876C36.7255 25.394 38.0029 24.0523 38.4451 23.0615C38.8709 22.0501 39.2804 21.1625 39.3623 21.3483C39.232 22.5574 38.8538 23.7029 38.265 24.6715C37.5771 25.6623 36.7582 26.3848 36.8892 26.5293C37.0039 26.6944 37.9374 26.8595 38.9037 26.0339C39.8864 25.1876 39.9846 23.9697 40.0993 24.0317C40.2303 24.0936 39.9846 25.7655 39.0511 26.7976C38.1176 27.8297 36.8892 27.9329 36.922 28.1599C36.9875 28.3663 39.5916 27.2104 39.5424 27.4787C39.4933 27.7264 36.1686 29.3777 36.1359 29.5429C36.1359 29.6667 36.7091 29.708 37.6099 29.4397C38.4943 29.192 39.3459 28.3044 39.4606 28.5108C39.4933 28.7998 38.8218 29.5016 37.8064 29.8319C36.7746 30.1621 36.2669 30.5956 36.2341 30.6988C36.2178 30.802 38.0684 30.4098 38.0684 30.5337C38.0684 30.6575 35.6445 31.2561 35.6282 31.4212C35.5954 31.5657 37.921 30.8226 37.8883 31.0084C37.8228 31.1529 34.7274 32.3088 34.7601 32.3707C34.7765 32.4533 37.3478 31.6689 37.2987 31.7928C37.2332 31.9373 32.975 33.4441 32.9422 33.5473C32.9095 33.6298 36.7091 32.4739 36.6763 32.5771C36.6436 32.6803 34.711 33.2789 34.711 33.3409C34.711 33.4028 36.2669 33.0312 36.2341 33.1345C36.2178 33.217 32.3035 34.4761 32.2216 34.6619C32.1397 34.8683 34.2524 34.1459 34.2197 34.5174C34.1869 34.889 29.6831 36.788 29.6667 36.437C29.6339 36.0861 32.4018 35.1986 32.3854 35.0954C32.3526 34.9922 30.7967 35.3018 30.764 35.116C30.7476 34.9096 31.7958 34.4968 31.7139 34.4142C31.632 34.311 30.8459 34.7032 30.9114 34.4761C30.9933 34.2491 32.4836 33.3821 32.4509 33.3202C32.4345 33.2583 31.9104 33.5266 31.9596 33.3202C32.0251 33.0932 35.186 31.9373 35.1368 31.7928C35.0877 31.6689 33.6792 32.0817 33.5482 32.123C33.4991 31.9992 35.5135 31.0497 35.4808 30.8846C35.4153 30.7401 34.3998 31.4419 34.3343 31.2561C34.3016 31.0497 36.1195 30.1621 36.0049 30.0176C35.8902 29.8731 35.0713 30.3892 34.9567 30.2447C34.842 30.1002 36.6763 28.5108 36.3979 28.4695C36.1195 28.4489 35.7756 28.9649 35.7428 28.6347C35.7756 28.2218 37.1677 27.5407 36.8565 27.2104C36.3652 27.0246 34.711 27.3549 34.0231 27.8709C33.3353 28.387 31.0424 31.2561 30.4856 31.7102C29.9287 32.1437 28.0289 33.1551 27.6686 33.3615C27.1118 33.6092 27.0135 33.9807 26.4403 34.3523C25.4085 34.7032 25.4248 35.0954 24.9335 35.3224C24.7534 35.3843 22.9027 36.499 22.8863 36.4164ZM20.2986 37.8613C19.9874 38.0677 19.709 38.5631 19.8892 38.7695C19.9874 39.0172 20.2986 38.2122 20.5443 38.2535L21.8545 38.336C22.5587 38.398 22.9027 38.1503 23.2957 38.1916C23.6888 38.2328 24.5568 37.9232 24.9663 37.9232C25.3757 37.9232 25.4576 37.9851 25.4904 37.7581C25.5395 37.5517 24.2129 37.6962 23.6233 37.6755C23.0337 37.6342 22.2967 37.82 21.8545 37.82C21.4451 37.7994 20.7408 37.6342 20.2986 37.8613Z" fill="#FFEC2D"/>
<path d="M22.2639 37.6138C22.2639 37.4428 22.1392 37.3042 21.9854 37.3042C21.8317 37.3042 21.707 37.4428 21.707 37.6138C21.707 37.7848 21.8317 37.9234 21.9854 37.9234C22.1392 37.9234 22.2639 37.7848 22.2639 37.6138Z" fill="#FFEC2D"/>
<path fill-rule="evenodd" clip-rule="evenodd" d="M28.7998 37.015C29.0782 36.953 29.8316 37.2833 30.3557 37.4278C31.3056 37.9025 33.0744 37.6755 33.0744 37.9025C33.0744 38.1296 32.9597 38.3979 32.5503 38.4392C32.1409 38.4805 31.1091 38.2328 31.1418 38.2328C31.1746 38.2328 31.9607 38.7075 31.7314 38.8314C31.5021 38.9552 30.8306 38.5631 30.716 38.6663C30.6014 38.7695 31.3383 38.9552 31.2073 39.0172C31.1091 39.0791 30.6013 38.9346 30.4376 38.9552C30.2738 38.9965 30.5686 39.2236 30.3721 39.3061C30.1755 39.4093 29.848 39.1823 29.717 39.2442C29.5696 39.3061 30.0118 39.657 29.8152 39.6983C29.6187 39.7396 29.1601 39.5332 28.8981 39.4919C28.636 39.4919 29.1437 39.8222 28.98 39.8635C28.8162 39.8841 28.3576 39.5951 28.243 39.5951C28.1283 39.5951 28.243 40.008 28.0792 40.008C27.9154 40.008 27.7189 39.657 27.6206 39.657C27.5223 39.657 27.6206 40.0699 27.4568 40.0699C27.293 40.0699 27.2275 39.6364 27.0965 39.657C26.9327 39.6983 27.0965 40.2144 26.8672 40.1731C26.6543 40.1524 26.6216 39.6364 26.4414 39.657C26.2776 39.6983 26.4742 40.1731 26.3104 40.1731C26.1466 40.1731 26.1139 39.6983 25.9501 39.657C25.7863 39.6364 25.8518 40.1112 25.7535 40.1112C25.6553 40.1112 25.557 39.657 25.4915 39.657C25.4424 39.657 25.4915 40.1112 25.295 40.0699C25.0984 40.0286 25.0984 39.5745 25.0493 39.5951C24.9838 39.6364 24.9838 39.9667 24.8528 39.9667C24.7217 39.9667 24.7054 39.6364 24.6562 39.6777C24.5907 39.6983 24.3942 40.1112 24.2632 40.0492C24.1158 39.9873 24.2959 39.657 24.2304 39.657C24.1649 39.657 24.0011 39.8841 23.9029 39.8635C23.8046 39.8428 23.9029 39.5745 23.8701 39.5745C23.8374 39.5745 23.5917 39.7396 23.477 39.7396C23.3624 39.7396 23.0512 39.946 22.9693 39.7603C22.8874 39.5538 23.1822 39.5538 23.2478 39.3681C23.2969 39.1823 23.084 38.625 23.3133 38.4392C23.5262 38.2328 24.2304 38.7075 25.2786 38.3773C27.1784 37.7374 28.6524 36.9943 28.7998 37.015Z" fill="#FFEC2D"/>
</g>
<defs>
<clipPath id="clip0_45_17177">
<rect width="45" height="45" fill="white"/>
</clipPath>
</defs>
</svg>
