<svg width="45" height="45" viewBox="0 0 45 45" fill="none" xmlns="http://www.w3.org/2000/svg">
<g clip-path="url(#clip0_45_17195)">
<path fill-rule="evenodd" clip-rule="evenodd" d="M-2.8125 0H47.8125V45H-2.8125V0Z" fill="#CE1126"/>
<path fill-rule="evenodd" clip-rule="evenodd" d="M-2.8125 11.1846H47.8125V33.8158H-2.8125V11.1846Z" fill="#002868"/>
<path fill-rule="evenodd" clip-rule="evenodd" d="M29.7711 22.4999C29.7711 25.0708 29.0051 27.5365 27.6417 29.3544C26.2782 31.1723 24.429 32.1937 22.5008 32.1937C20.5726 32.1937 18.7233 31.1723 17.3599 29.3544C15.9964 27.5365 15.2305 25.0708 15.2305 22.4999C15.2305 19.929 15.9964 17.4633 17.3599 15.6454C18.7233 13.8275 20.5726 12.8062 22.5008 12.8062C24.429 12.8062 26.2782 13.8275 27.6417 15.6454C29.0051 17.4633 29.7711 19.929 29.7711 22.4999Z" fill="white"/>
</g>
<defs>
<clipPath id="clip0_45_17195">
<rect width="45" height="45" fill="white"/>
</clipPath>
</defs>
</svg>
