<svg width="45" height="45" viewBox="0 0 45 45" fill="none" xmlns="http://www.w3.org/2000/svg">
<g clip-path="url(#clip0_45_17200)">
<path fill-rule="evenodd" clip-rule="evenodd" d="M-2.8125 33.75H47.8125V45H-2.8125V33.75ZM-2.8125 0H47.8125V11.25H-2.8125V0Z" fill="#EE161F"/>
<path fill-rule="evenodd" clip-rule="evenodd" d="M-2.8125 11.25H47.8125V33.75H-2.8125V11.25Z" fill="white"/>
<path d="M22.2422 11.4258C21.728 12.7881 21.3853 12.7881 20.5283 13.7109C20.1855 14.1592 19.6714 14.3877 20.3569 14.8535C19.6648 15.3018 19.322 15.5303 18.9792 16.4443L19.1506 16.6729C19.1506 16.6729 19.8098 16.251 19.8362 16.4443C19.9548 16.6289 18.9792 17.3232 18.854 17.4375L18.1289 18.0527C17.2654 18.958 16.7446 18.7295 16.2371 20.1006L17.9509 19.8721C18.2937 21.4717 17.094 21.7002 16.2371 22.3857L14.8594 23.5283C15.2087 25.1279 16.2371 24.2139 17.094 23.7568L17.2654 23.9854V24.4424L15.5515 25.585C15.5515 25.585 13.5212 27.1318 13.4883 27.1846C13.4751 27.2725 13.4883 27.6416 13.4883 27.6416C14.1738 27.8701 15.2021 28.0986 15.8943 27.6416C16.7512 27.1846 16.9226 26.7275 17.9509 26.7275C16.9612 27.7572 15.7725 28.3912 14.5232 28.5557V29.4697C15.5515 29.4697 16.2371 29.4697 17.094 29.2412L19.322 28.3271C19.8362 28.3271 20.3569 29.0127 20.179 29.6982C19.6714 32.2119 17.6082 31.7549 16.9226 33.8115L19.6648 32.4316C20.3503 31.9746 21.0359 31.5264 21.8928 31.7549C22.9211 32.2119 22.9211 33.126 24.2922 33.583L23.9495 32.4404C24.2922 32.6689 24.635 32.6689 24.9844 32.8975C25.8413 33.3545 26.0127 33.8115 27.041 33.583C26.1841 32.2119 26.0127 32.4404 25.3271 31.5264C24.6416 30.1553 24.2922 28.0986 25.3271 27.8701L26.5269 28.3271C27.7266 28.5557 27.7266 28.0986 29.4404 29.0127C30.4753 29.4697 30.8181 30.1553 32.0112 29.6982C31.5037 28.0986 29.6184 26.9561 28.4121 26.499C29.7898 25.3564 29.4404 26.9561 31.3323 26.2705V25.8135C29.9678 24.4336 29.447 23.291 27.5618 23.291L30.4819 22.834V22.377C30.4819 22.377 27.6013 21.375 27.5354 21.3311C27.5552 21.2168 27.6277 21.041 27.8188 20.9355C28.366 21.4102 30.0139 21.3574 30.1128 21.3486C30.0601 20.7861 29.2756 20.3203 28.5967 19.8633C28.5967 19.8633 25.6501 17.4463 25.637 17.2354C25.6963 16.6201 26.8433 17.332 28.0759 17.8066C27.7332 16.8926 27.0476 16.4355 26.3621 16.207L27.3904 15.9785C26.7048 13.9219 24.991 14.1504 23.9626 13.2363C23.2705 12.5508 23.2705 12.0938 22.2422 11.417V11.4258Z" fill="#00A850"/>
<path fill-rule="evenodd" clip-rule="evenodd" d="M20.3916 26.6308C20.5168 26.0947 20.6816 25.6113 19.917 25.1455C19.1523 24.6797 20.2993 27 20.3916 26.6396V26.6308ZM21.2947 25.5498C21.1431 25.5761 21.0574 26.3232 21.3672 26.5342C21.71 26.6045 21.4331 25.5586 21.2947 25.5498ZM22.1846 25.4619C22.0264 25.5322 22.0198 26.5869 22.5801 26.3935C23.147 26.209 22.5801 25.3828 22.1846 25.4707V25.4619ZM23.2261 22.7636C23.3447 22.5 23.2195 21.4453 22.7383 21.8847C22.2505 22.333 23.0679 22.834 23.2261 22.7636ZM22.1714 21.8847C22.323 21.8056 22.3362 21.1552 21.9077 21.331C21.4924 21.498 22.0593 22.0166 22.1714 21.8847ZM21.2222 22.1396C21.2222 22.1396 20.9255 21.5947 20.6948 21.709C20.4114 22.0781 21.2419 22.1484 21.2222 22.1396ZM17.9526 23.8799C18.0779 23.8974 19.0073 23.6777 19.3303 23.1943C19.6533 22.7109 17.6758 23.3965 17.6758 23.4052C17.6758 23.414 17.8604 23.8359 17.9526 23.8799ZM27.2537 20.8037C27.2998 20.6894 26.7593 20.1797 26.4363 20.3818C26.3506 20.7597 27.2537 20.8828 27.2537 20.8037ZM25.4211 19.5732C25.5266 19.3799 25.1904 18.5801 24.5181 19.0283C23.8457 19.4677 25.2234 19.8896 25.4211 19.582V19.5732ZM23.3052 19.1074C23.3052 19.1074 23.47 18.3867 23.8721 18.5273C24.3335 18.9931 23.325 19.1338 23.3052 19.1074ZM22.9097 18.5625C22.8438 18.3603 22.4285 18.4746 21.9473 18.9052C21.4595 19.3183 23.0547 19.0283 22.9097 18.5537V18.5625ZM24.1423 16.6201C24.1423 16.6201 24.5708 16.3564 24.7026 16.6201C24.8806 16.998 24.1357 16.6201 24.1423 16.6201ZM23.7798 16.3652C23.6941 16.1367 23.2195 16.1103 23.2327 16.4531C23.1536 16.7168 23.8523 16.664 23.7798 16.3652ZM22.646 16.3652C22.5999 16.2334 21.9209 16.3652 21.7231 16.9101C22.0527 17.1211 22.7976 16.708 22.646 16.3652ZM21.1958 16.9189C21.1958 16.9189 20.3125 17.6484 20.2532 18.1758C20.2795 18.6328 21.3606 17.3496 21.3606 17.3496C21.3606 17.3496 21.4529 16.8398 21.2024 16.9189H21.1958ZM20.2136 16.2597C20.24 16.1103 20.6553 15.7676 20.6882 15.7939C20.7212 15.9433 20.3521 16.3476 20.2136 16.2597ZM20.4971 19.0371C20.5168 18.8174 19.4424 18.8349 19.8445 19.4941C20.1873 20.0478 20.5696 19.1338 20.4971 19.0371ZM19.5083 19.9775C19.4556 19.8369 19.3765 19.4502 19.2314 19.415C19.1062 19.415 18.4602 19.5908 18.4075 19.7314C18.3811 19.8457 18.6777 20.5576 18.7766 20.5752C18.8953 20.6367 19.4951 20.0478 19.5149 19.9775H19.5083ZM25.3354 24.8291C25.3684 24.6709 26.4758 24.1699 26.8516 24.6533C27.2998 25.4707 25.3091 25.0927 25.3354 24.8291ZM28.3677 25.7871C28.6116 25.2422 27.6228 24.5918 27.2075 25.2158C27.3525 25.9629 28.1699 26.2353 28.3677 25.7871Z" fill="white"/>
<path fill-rule="evenodd" clip-rule="evenodd" d="M20.6895 15.6521C20.7005 15.6528 20.7211 15.6562 20.7425 15.6733C20.7652 15.6915 20.7819 15.7204 20.7894 15.7542C20.8027 15.8145 20.7928 15.8712 20.7815 15.9106C20.7697 15.9519 20.7516 15.9911 20.732 16.0261C20.6928 16.0964 20.638 16.167 20.5797 16.2271C20.5215 16.2871 20.4547 16.342 20.3892 16.376C20.3299 16.4069 20.2444 16.4351 20.1683 16.3867C20.1235 16.3582 20.0996 16.292 20.111 16.2275C20.1195 16.179 20.1401 16.1379 20.1574 16.1088C20.1761 16.0771 20.199 16.0459 20.223 16.0165C20.2712 15.9577 20.331 15.8975 20.3891 15.8447C20.4473 15.7918 20.5066 15.7438 20.5549 15.71C20.5786 15.6934 20.6023 15.6784 20.623 15.6683C20.6331 15.6633 20.6461 15.6577 20.6601 15.6545C20.6672 15.6529 20.6775 15.6512 20.6895 15.6521ZM23.6946 16.1033C23.7631 16.1389 23.8362 16.2013 23.8741 16.3023C23.8765 16.3086 23.8785 16.3152 23.8801 16.3219C23.8979 16.3952 23.8926 16.4687 23.8666 16.5326C23.8424 16.592 23.8044 16.6339 23.7676 16.663C23.6948 16.7207 23.5993 16.7504 23.5126 16.7602C23.4264 16.77 23.3309 16.7619 23.2569 16.7238C23.2204 16.7049 23.1767 16.6723 23.1482 16.6143C23.1204 16.5577 23.115 16.4933 23.127 16.4322C23.1286 16.3088 23.1729 16.2117 23.239 16.1484C23.305 16.0851 23.388 16.059 23.4644 16.0544C23.5419 16.0498 23.6236 16.0665 23.6946 16.1033ZM23.3621 16.3768C23.3451 16.3931 23.3367 16.4114 23.338 16.4459C23.3382 16.4519 23.3382 16.4579 23.3378 16.4638C23.3713 16.4791 23.4287 16.4874 23.4949 16.48C23.5639 16.4722 23.6246 16.4492 23.6599 16.4212C23.666 16.4164 23.6704 16.4121 23.6737 16.4086C23.6632 16.3955 23.6457 16.3797 23.618 16.3654C23.5763 16.3437 23.5241 16.3324 23.4739 16.3354C23.4226 16.3385 23.384 16.3558 23.3621 16.3768ZM22.7388 16.2983C22.7106 16.2265 22.6553 16.2017 22.6273 16.1922C22.5911 16.1799 22.5495 16.1762 22.5076 16.1775C22.4228 16.1802 22.3175 16.2042 22.2096 16.2498C21.9976 16.3394 21.7455 16.5257 21.6282 16.8489C21.616 16.8825 21.6143 16.9213 21.6236 16.9565C21.6328 16.9918 21.6522 17.0207 21.6775 17.0369C21.784 17.105 21.914 17.1178 22.0377 17.1022C22.1632 17.0863 22.2931 17.0397 22.4068 16.9745C22.5187 16.9102 22.624 16.8224 22.6923 16.716C22.7268 16.6622 22.7558 16.5974 22.7668 16.5231C22.7782 16.447 22.7693 16.3695 22.7388 16.2983ZM21.8927 16.824C21.9305 16.8284 21.9725 16.8279 22.0177 16.8222C22.1198 16.8092 22.2284 16.7706 22.3233 16.7162C22.4198 16.6607 22.4929 16.5942 22.532 16.5332C22.5511 16.5034 22.558 16.4813 22.5599 16.4683C22.5603 16.4659 22.5605 16.4636 22.5606 16.4612C22.5491 16.4593 22.5332 16.458 22.5127 16.4587C22.451 16.4607 22.3656 16.479 22.2733 16.5179C22.13 16.5785 21.988 16.6809 21.8927 16.824ZM22.581 16.4672C22.5809 16.4673 22.5799 16.4669 22.5783 16.4658C22.5803 16.4667 22.5811 16.4672 22.581 16.4672ZM24.5759 16.37C24.6536 16.3863 24.7361 16.4336 24.7904 16.5421C24.7909 16.5432 24.7914 16.5442 24.792 16.5453C24.8175 16.5995 24.8435 16.6732 24.8333 16.7524C24.8207 16.8509 24.763 16.897 24.7193 16.9143C24.6783 16.9306 24.6326 16.9305 24.5935 16.9264C24.5522 16.922 24.5078 16.9118 24.4644 16.8992C24.3775 16.8741 24.2865 16.8369 24.2186 16.8066C24.1845 16.7913 24.1555 16.7775 24.1351 16.7674C24.125 16.7624 24.1166 16.7581 24.1105 16.7549C24.1077 16.7534 24.1045 16.7517 24.1017 16.7501C24.1009 16.7496 24.0975 16.7476 24.0936 16.7449C24.0924 16.7441 24.0903 16.7426 24.0878 16.7406C24.0862 16.7393 24.0801 16.7343 24.0732 16.7264C24.0692 16.7216 24.0594 16.7072 24.0541 16.6972C24.0458 16.677 24.0369 16.6149 24.0424 16.5749C24.0539 16.5453 24.0802 16.512 24.0991 16.495C24.0982 16.4924 24.0982 16.4924 24.0982 16.4924L24.0984 16.4922L24.0988 16.492L24.1001 16.4912C24.1012 16.4905 24.1027 16.4897 24.1046 16.4886C24.1083 16.4864 24.1136 16.4833 24.1202 16.4796C24.1335 16.4722 24.1522 16.4621 24.1751 16.4509C24.2204 16.4288 24.2836 16.4017 24.3524 16.3833C24.42 16.3653 24.4998 16.3539 24.5759 16.37ZM21.4631 17.3825C21.4631 17.3825 21.4631 17.3826 21.3606 17.3496C21.4307 17.4546 21.4307 17.4546 21.4307 17.4546L21.4298 17.4557L21.4274 17.4586C21.4253 17.4611 21.4221 17.4648 21.4181 17.4695C21.41 17.479 21.3982 17.4928 21.3831 17.5101C21.3531 17.5448 21.3103 17.5937 21.2588 17.6509C21.1561 17.7651 21.0181 17.9135 20.8786 18.048C20.7412 18.1804 20.5946 18.3071 20.4765 18.37C20.4208 18.3997 20.3516 18.4266 20.2874 18.4093C20.2513 18.3996 20.2147 18.3751 20.1874 18.3293C20.1612 18.2853 20.1507 18.2338 20.148 18.1865C20.1474 18.176 20.1477 18.1654 20.1489 18.1549C20.1682 17.9829 20.2508 17.8134 20.3452 17.6657C20.4421 17.5141 20.5635 17.3675 20.6801 17.2406C20.7971 17.1133 20.9119 17.0033 20.9972 16.9252C21.0399 16.8861 21.0754 16.8549 21.1004 16.8333C21.1128 16.8225 21.1227 16.8141 21.1295 16.8084C21.1329 16.8056 21.1355 16.8033 21.1373 16.8018L21.1394 16.8001L21.1402 16.7994C21.1402 16.7994 21.1403 16.7994 21.1958 16.9189L21.1403 16.7994C21.1554 16.7868 21.1727 16.7797 21.1904 16.7785C21.2737 16.7562 21.352 16.777 21.4086 16.8551C21.4603 16.9264 21.4756 17.022 21.4804 17.0915C21.4856 17.1653 21.4809 17.2384 21.4756 17.2901C21.4729 17.3166 21.4699 17.339 21.4676 17.355C21.4664 17.363 21.4653 17.3695 21.4646 17.3742C21.4642 17.3765 21.4639 17.3784 21.4636 17.3798L21.4633 17.3816L21.4632 17.3822L21.4632 17.3824L21.4631 17.3825ZM21.233 17.0539C21.228 17.0582 21.222 17.0634 21.2151 17.0693C21.1915 17.0897 21.1575 17.1196 21.1165 17.1571C21.0344 17.2323 20.9246 17.3376 20.8134 17.4585C20.7018 17.58 20.5911 17.7146 20.5057 17.8481C20.4403 17.9504 20.3958 18.0428 20.3731 18.1211C20.3804 18.1179 20.3888 18.1139 20.3982 18.1089C20.4902 18.0598 20.6188 17.9514 20.755 17.8201C20.889 17.6909 21.0229 17.5471 21.1237 17.4349C21.174 17.379 21.2158 17.3313 21.245 17.2975C21.2521 17.2894 21.2584 17.282 21.264 17.2756C21.2648 17.2685 21.2657 17.2607 21.2666 17.2523C21.2708 17.2109 21.2735 17.1614 21.2704 17.1177C21.2674 17.075 21.2603 17.0568 21.2577 17.0518C21.2552 17.0512 21.2476 17.0501 21.233 17.0539ZM21.3606 17.3496L21.4307 17.4546C21.4467 17.4356 21.4581 17.4103 21.4631 17.3825L21.3606 17.3496ZM22.9834 18.4532C22.9418 18.378 22.8762 18.3432 22.8146 18.3311C22.7398 18.3163 22.6516 18.3293 22.5587 18.3601C22.3716 18.4222 22.1367 18.5666 21.8896 18.7875C21.8561 18.816 21.8269 18.8452 21.8042 18.8758C21.7834 18.9039 21.7567 18.9483 21.7501 19.008C21.742 19.0824 21.7686 19.1419 21.8019 19.1772C21.8301 19.2069 21.8634 19.2209 21.8892 19.2286C21.9428 19.2446 22.0113 19.2465 22.0817 19.2411C22.1541 19.2355 22.2359 19.2215 22.3194 19.2006C22.4848 19.1591 22.6671 19.0877 22.802 18.9907C22.8686 18.9428 22.9329 18.882 22.9751 18.8049C23.0208 18.7215 23.042 18.6141 23.0073 18.5006C23.0017 18.4823 22.9935 18.4663 22.9834 18.4532ZM22.8128 18.6204C22.8091 18.6174 22.8008 18.6127 22.7837 18.6093C22.747 18.6021 22.689 18.6067 22.6097 18.633C22.4689 18.6797 22.2833 18.7872 22.078 18.9596C22.138 18.9544 22.2076 18.9424 22.2804 18.9242C22.4347 18.8854 22.5935 18.8211 22.7018 18.7432C22.7567 18.7036 22.7894 18.6671 22.8048 18.6391C22.8093 18.6307 22.8117 18.6248 22.8128 18.6204ZM21.9505 19.0791C21.9505 19.0791 21.9507 19.0787 21.9513 19.0778C21.9509 19.0787 21.9506 19.0791 21.9505 19.0791ZM23.3052 19.1074L23.2043 19.0664C23.1929 19.1161 23.203 19.1701 23.2306 19.2068C23.2493 19.2317 23.2699 19.2404 23.2749 19.2425L23.275 19.2426C23.2831 19.246 23.2901 19.2476 23.2943 19.2485C23.3028 19.2502 23.311 19.2507 23.317 19.2509C23.3296 19.2514 23.3446 19.2508 23.3603 19.2495C23.3922 19.247 23.4343 19.2414 23.4815 19.2327C23.5754 19.2152 23.6961 19.184 23.8033 19.1349C23.8568 19.1105 23.9103 19.08 23.9563 19.042C24.001 19.005 24.0475 18.9536 24.0749 18.8821C24.1051 18.8031 24.1063 18.7144 24.077 18.6287C24.0501 18.5502 24 18.4801 23.9357 18.4152C23.9247 18.4041 23.9122 18.396 23.8988 18.3913C23.6376 18.2999 23.4566 18.4969 23.3535 18.6802C23.3015 18.7727 23.2646 18.8685 23.2408 18.94C23.2288 18.976 23.2199 19.0067 23.2139 19.0287C23.2109 19.0397 23.2086 19.0486 23.207 19.055C23.2062 19.0582 23.2056 19.0608 23.2051 19.0627L23.2046 19.0651L23.2044 19.0659L23.2043 19.0663C23.2043 19.0663 23.2043 19.0664 23.3052 19.1074ZM23.5222 18.849C23.5035 18.8823 23.487 18.9168 23.4728 18.9502C23.5552 18.9336 23.652 18.9068 23.7348 18.8689C23.7798 18.8484 23.8173 18.826 23.8451 18.803C23.8742 18.7789 23.8844 18.761 23.887 18.7542C23.8871 18.754 23.8872 18.7538 23.8872 18.7536C23.887 18.7523 23.8865 18.7496 23.885 18.7454C23.8796 18.7294 23.8639 18.6994 23.8254 18.6572C23.6947 18.6231 23.5982 18.714 23.5222 18.849ZM25.5226 19.6205C25.5185 19.6398 25.5112 19.658 25.5012 19.6735C25.4547 19.7459 25.385 19.7821 25.3217 19.8016C25.2554 19.822 25.1788 19.8294 25.1004 19.8277C24.9433 19.8243 24.7633 19.7843 24.6111 19.7192C24.5349 19.6866 24.4625 19.6464 24.4022 19.5986C24.3442 19.5525 24.2863 19.4907 24.2542 19.4084C24.2173 19.3141 24.2207 19.2082 24.2678 19.1133C24.3093 19.0295 24.3811 18.9613 24.4713 18.9023C24.8414 18.6557 25.1383 18.7454 25.3279 18.9511C25.4194 19.0505 25.4837 19.1748 25.5176 19.2934C25.5346 19.3527 25.545 19.4145 25.5457 19.4739C25.5461 19.5203 25.5406 19.5724 25.5226 19.6205ZM25.1947 19.1692C25.0745 19.0388 24.8673 18.9527 24.5652 19.1541L24.5645 19.1546C24.4868 19.2054 24.4547 19.2463 24.4437 19.2685C24.4395 19.2768 24.4398 19.277 24.4405 19.2776C24.4408 19.2778 24.441 19.278 24.4413 19.2785C24.4468 19.2928 24.4655 19.3215 24.5101 19.3569C24.5526 19.3906 24.6092 19.423 24.6755 19.4514C24.8084 19.5082 24.9679 19.5435 25.1038 19.5465C25.1718 19.5479 25.23 19.5412 25.2742 19.5275C25.3035 19.5185 25.321 19.5082 25.3308 19.5006C25.3318 19.4985 25.3328 19.4964 25.3338 19.4944C25.3342 19.4922 25.3348 19.487 25.3347 19.4779C25.3345 19.4583 25.3308 19.4294 25.3205 19.3935C25.3 19.3218 25.258 19.2379 25.1947 19.1692ZM20.6009 18.9977C20.5902 18.9141 20.5385 18.8646 20.5084 18.8429C20.4665 18.8127 20.4142 18.7947 20.3631 18.7841C20.2588 18.7626 20.1262 18.7653 20.0061 18.7983C19.8923 18.8295 19.759 18.8964 19.6909 19.0376C19.6539 19.1142 19.6402 19.205 19.6543 19.3029C19.6679 19.3965 19.7059 19.4898 19.7627 19.5828L19.7631 19.5836C19.8653 19.7487 19.9849 19.8241 20.1101 19.81C20.2279 19.7968 20.3275 19.7064 20.4008 19.6093C20.4754 19.5105 20.5341 19.39 20.5699 19.2855C20.5876 19.2336 20.6017 19.1799 20.6079 19.1305C20.611 19.106 20.6129 19.077 20.6101 19.047C20.6089 19.0333 20.6063 19.016 20.6009 18.9977ZM19.926 19.405C19.8825 19.3334 19.8662 19.2821 19.8614 19.2496C19.8573 19.2211 19.8614 19.2041 19.8683 19.1898C19.8879 19.1492 19.9466 19.1018 20.0487 19.0737C20.1445 19.0474 20.2517 19.0457 20.3307 19.0621C20.3617 19.0685 20.3838 19.0767 20.3976 19.084C20.3981 19.0858 20.3986 19.0875 20.3991 19.0893C20.3964 19.1067 20.3899 19.1339 20.3779 19.1688C20.3517 19.2455 20.307 19.3371 20.2522 19.4097C20.1961 19.484 20.1404 19.5244 20.0924 19.5298C20.0518 19.5343 19.9952 19.5164 19.926 19.405ZM20.4124 19.0938C20.4124 19.0938 20.4121 19.0935 20.4115 19.0929C20.4122 19.0935 20.4125 19.0938 20.4124 19.0938ZM19.0389 19.3062C19.1172 19.2877 19.1896 19.2744 19.2314 19.2744C19.2378 19.2744 19.2441 19.2751 19.2503 19.2767C19.319 19.2933 19.3708 19.3492 19.4077 19.4051C19.4449 19.4615 19.4748 19.5297 19.4988 19.5938C19.5231 19.6587 19.5439 19.7259 19.561 19.7827C19.5633 19.7902 19.5655 19.7975 19.5676 19.8045C19.5766 19.8342 19.5841 19.8591 19.5907 19.8797C19.5946 19.8852 19.5983 19.8911 19.6016 19.8974C19.6213 19.9353 19.6258 19.9837 19.6136 20.0269C19.6048 20.0584 19.5888 20.0821 19.5833 20.0901L19.583 20.0906C19.5744 20.1033 19.5642 20.1166 19.5537 20.1294C19.5325 20.1554 19.5048 20.1864 19.4733 20.2195C19.41 20.2862 19.3271 20.3667 19.2412 20.4429C19.1558 20.5186 19.0647 20.5925 18.9855 20.644C18.9462 20.6696 18.9065 20.6919 18.87 20.7055C18.8417 20.716 18.7953 20.7295 18.7497 20.7114C18.7088 20.6987 18.6773 20.6633 18.6601 20.6423C18.6364 20.6134 18.6127 20.5768 18.5902 20.5382C18.5448 20.4603 18.4966 20.36 18.4535 20.2592C18.4103 20.1583 18.3704 20.0526 18.3426 19.9625C18.3288 19.9178 18.317 19.8737 18.3095 19.8343C18.3057 19.8146 18.3025 19.7932 18.3011 19.7717C18.2998 19.7521 18.2993 19.722 18.3067 19.6901C18.3084 19.6827 18.3105 19.6755 18.3131 19.6685C18.3341 19.6125 18.3732 19.5771 18.3988 19.5567C18.4289 19.5328 18.465 19.5111 18.5026 19.4916C18.5784 19.4523 18.6728 19.4155 18.7666 19.3841C18.8609 19.3525 18.9575 19.3254 19.0389 19.3062ZM19.4281 19.8995C19.4282 19.8994 19.4277 19.9002 19.4267 19.9018C19.4275 19.9003 19.428 19.8995 19.4281 19.8995ZM19.385 19.9527C19.3805 19.9382 19.3761 19.9235 19.3717 19.9089C19.3696 19.9018 19.3675 19.8948 19.3654 19.8878C19.3483 19.8314 19.3303 19.7734 19.3101 19.7196C19.2897 19.665 19.2693 19.6212 19.2493 19.5908C19.2353 19.5697 19.2251 19.5604 19.2188 19.5563C19.1922 19.5587 19.1425 19.5673 19.0757 19.5831C18.9991 19.6013 18.9073 19.6269 18.818 19.6569C18.728 19.687 18.6432 19.7205 18.5791 19.7537C18.5542 19.7666 18.5343 19.7785 18.5191 19.7891C18.5235 19.8074 18.5297 19.8296 18.5377 19.8555C18.5611 19.9316 18.5966 20.0263 18.6367 20.1199C18.6768 20.2136 18.7196 20.3017 18.7568 20.3658C18.7757 20.3981 18.7911 20.421 18.8025 20.4348C18.8033 20.4358 18.804 20.4366 18.8047 20.4374C18.807 20.4368 18.8098 20.4359 18.8132 20.4346C18.8323 20.4275 18.8591 20.4133 18.893 20.3913C18.9602 20.3475 19.0426 20.2813 19.1244 20.2087C19.2058 20.1365 19.284 20.0605 19.3425 19.9989C19.3586 19.982 19.3728 19.9665 19.385 19.9527ZM18.7972 20.4391C18.7972 20.4391 18.7973 20.439 18.7975 20.439L18.7972 20.4391ZM18.8117 20.4448C18.8117 20.4448 18.8114 20.4446 18.8107 20.4439C18.8114 20.4444 18.8117 20.4448 18.8117 20.4448ZM18.5113 19.7474C18.5112 19.7464 18.5113 19.7466 18.5113 19.7477C18.5113 19.7476 18.5113 19.7475 18.5113 19.7474ZM27.3539 20.8488C27.3759 20.7709 27.3477 20.6994 27.3355 20.6722C27.3173 20.6315 27.2906 20.5926 27.2624 20.5579C27.205 20.487 27.1234 20.412 27.0317 20.3491C26.9398 20.286 26.8329 20.2318 26.7241 20.2077C26.6158 20.1836 26.4979 20.1879 26.3915 20.2545C26.3644 20.2715 26.344 20.3029 26.3353 20.3411C26.3159 20.4266 26.325 20.5092 26.3547 20.5803C26.3826 20.6467 26.4259 20.6973 26.47 20.7359C26.5579 20.8127 26.6768 20.8656 26.7885 20.901C26.9021 20.9369 27.0184 20.9579 27.1079 20.9647C27.152 20.968 27.1934 20.9682 27.2261 20.9636C27.2414 20.9615 27.2618 20.9574 27.2811 20.9475C27.2905 20.9427 27.3067 20.9332 27.3222 20.9144C27.3338 20.9002 27.3468 20.8782 27.3539 20.8488ZM26.5634 20.4789C26.5695 20.4857 26.5768 20.493 26.5857 20.5007C26.643 20.5508 26.7338 20.5946 26.8372 20.6273C26.9031 20.6482 26.97 20.6633 27.03 20.673C27.0016 20.6479 26.9696 20.6228 26.9351 20.5991C26.8573 20.5457 26.7714 20.5033 26.6894 20.4851C26.6436 20.4749 26.6013 20.4728 26.5634 20.4789ZM27.1564 20.8215C27.1563 20.8214 27.1557 20.8201 27.1549 20.8176C27.1561 20.8203 27.1565 20.8216 27.1564 20.8215ZM22.2253 22.0066C22.297 21.9596 22.3366 21.8629 22.3553 21.7812C22.3766 21.688 22.3801 21.5775 22.3587 21.4747C22.337 21.3702 22.2872 21.2654 22.1979 21.2063C22.1095 21.1478 22.0004 21.1459 21.877 21.1965C21.7579 21.2445 21.6606 21.3389 21.6527 21.4972C21.646 21.6321 21.7113 21.7473 21.7684 21.821C21.8304 21.901 21.9107 21.9688 21.986 22.0082C22.0235 22.0279 22.0647 22.0431 22.105 22.0461C22.1387 22.0486 22.1848 22.0433 22.2253 22.0066ZM22.1041 21.4582C22.0792 21.4418 22.0294 21.4282 21.9387 21.4654L21.9382 21.4657C21.8954 21.4828 21.8754 21.5008 21.8672 21.511C21.8649 21.5138 21.8637 21.5158 21.8632 21.5168C21.8635 21.5247 21.8707 21.5615 21.9152 21.6189C21.957 21.6729 22.0135 21.7205 22.0631 21.7464C22.0873 21.7591 22.1052 21.7642 22.1159 21.7652C22.1211 21.7609 22.1266 21.7572 22.1323 21.7541C22.1319 21.7543 22.1317 21.7544 22.1317 21.7544C22.1315 21.7539 22.1435 21.7429 22.1535 21.6991C22.1639 21.6536 22.1654 21.5976 22.1554 21.5499C22.1459 21.5039 22.1281 21.4741 22.1041 21.4582ZM22.122 21.7652C22.122 21.7652 22.1217 21.7653 22.121 21.7653C22.1216 21.7652 22.122 21.7652 22.122 21.7652ZM21.3039 22.0505C21.3037 22.05 21.3034 22.0496 21.3032 22.0492C21.3006 22.0446 21.2969 22.0381 21.2922 22.0301C21.2829 22.014 21.2694 21.9916 21.2526 21.9652C21.2192 21.9128 21.1714 21.843 21.115 21.7763C21.0594 21.7104 20.9912 21.6424 20.9167 21.5991C20.8421 21.5558 20.7505 21.5314 20.6581 21.5771C20.6443 21.584 20.6317 21.5946 20.6211 21.6084C20.5776 21.6651 20.5422 21.7325 20.5328 21.8117C20.5225 21.8978 20.5457 21.9711 20.5805 22.025C20.6128 22.0751 20.6561 22.1106 20.6968 22.1366C20.7387 22.1634 20.7854 22.1846 20.8315 22.2015C20.9236 22.2355 21.0225 22.2561 21.0959 22.2676C21.1329 22.2734 21.1644 22.2771 21.1865 22.2791C21.1974 22.2801 21.2071 22.2807 21.2144 22.2809C21.2169 22.281 21.2237 22.2811 21.2307 22.2803C21.2327 22.2801 21.237 22.2795 21.2424 22.2781C21.2451 22.2774 21.2499 22.276 21.2556 22.2735C21.2599 22.2716 21.2722 22.2659 21.2854 22.2528C21.2979 22.2405 21.3291 22.2026 21.328 22.1368C21.3273 22.0966 21.3146 22.0679 21.3039 22.0505ZM20.7513 21.8346C20.7483 21.8397 20.7462 21.8439 20.7446 21.8472C20.7518 21.8559 20.7653 21.8685 20.7878 21.8829C20.8149 21.9001 20.8489 21.9162 20.8877 21.9305C20.9051 21.9369 20.9229 21.9428 20.9408 21.9482C20.9043 21.9093 20.8674 21.8773 20.8324 21.857C20.7984 21.8372 20.772 21.8316 20.7513 21.8346ZM23.373 22.4495C23.3757 22.5868 23.3619 22.7352 23.3165 22.836C23.3036 22.8648 23.2833 22.8864 23.2594 22.8971C23.2146 22.917 23.1636 22.912 23.1229 22.9033C23.0783 22.8937 23.0287 22.8755 22.9786 22.8512C22.8787 22.803 22.7665 22.7262 22.6744 22.6288C22.5857 22.5351 22.4977 22.4029 22.4819 22.239C22.4645 22.0586 22.538 21.898 22.6784 21.7689L22.6787 21.7687C22.8166 21.6427 22.952 21.6046 23.0732 21.669C23.1883 21.7301 23.2609 21.8689 23.3043 22.0058C23.3486 22.1456 23.3702 22.3062 23.373 22.4495ZM22.798 22.0006C22.6946 22.0957 22.6875 22.1658 22.6911 22.2031C22.6963 22.257 22.731 22.3298 22.8055 22.4085C22.8765 22.4836 22.9678 22.5469 23.0504 22.5868C23.0897 22.6058 23.1247 22.6183 23.1526 22.6248C23.1592 22.5832 23.1635 22.5265 23.1621 22.457C23.1599 22.3422 23.1423 22.2172 23.11 22.1153C23.0767 22.0104 23.0352 21.9515 22.9952 21.9302C22.9613 21.9122 22.9006 21.907 22.798 22.0006ZM19.4684 23.1447C19.4596 23.2026 19.4338 23.2509 19.4091 23.2879C19.3155 23.4279 19.1833 23.5419 19.043 23.634C18.9015 23.7269 18.7451 23.8018 18.5971 23.8599C18.4489 23.918 18.307 23.9601 18.1935 23.9866C18.1368 23.9999 18.0865 24.0095 18.0454 24.0151C18.0072 24.0204 17.9693 24.0236 17.9416 24.0197L17.9526 23.8799L17.9172 24.0123C17.8881 23.9984 17.8637 23.9745 17.8459 23.9543C17.8268 23.9327 17.8084 23.9072 17.7913 23.8813C17.757 23.8294 17.7226 23.7672 17.6926 23.7089C17.6624 23.6502 17.6353 23.5929 17.6157 23.5495C17.6059 23.5278 17.5978 23.5091 17.5918 23.495C17.5889 23.4881 17.5862 23.4814 17.584 23.4756C17.5829 23.4729 17.5814 23.4688 17.5799 23.4643C17.5792 23.4622 17.5779 23.4581 17.5765 23.4528C17.5758 23.4502 17.5746 23.4456 17.5735 23.4398C17.5728 23.4358 17.5703 23.4226 17.5703 23.4052C17.5732 23.3724 17.5889 23.3256 17.5974 23.3111C17.6028 23.3037 17.6124 23.2928 17.6163 23.2891C17.6233 23.2827 17.6294 23.2788 17.6312 23.2777C17.6359 23.2748 17.6398 23.2728 17.6411 23.2722C17.6446 23.2705 17.648 23.2691 17.6503 23.2682C17.6553 23.2661 17.662 23.2635 17.6694 23.2607C17.6847 23.255 17.7064 23.2472 17.7334 23.2378C17.7876 23.2189 17.8642 23.1931 17.955 23.1639C18.1364 23.1056 18.3755 23.0336 18.605 22.9769C18.8318 22.9209 19.0582 22.8776 19.2101 22.8815C19.2487 22.8825 19.2861 22.8865 19.3194 22.8959C19.3503 22.9047 19.3902 22.9213 19.4221 22.9592C19.4614 23.0059 19.4791 23.0737 19.4684 23.1447ZM17.9823 23.7398C17.9931 23.7391 18.0069 23.7377 18.0236 23.7354C18.0587 23.7305 18.104 23.722 18.1571 23.7096C18.2632 23.6848 18.3974 23.645 18.5375 23.59C18.6779 23.535 18.8223 23.4654 18.9498 23.3817C19.052 23.3146 19.1393 23.241 19.205 23.1627C19.0768 23.1596 18.8699 23.1976 18.6434 23.2535C18.4189 23.3089 18.1838 23.3797 18.0044 23.4373C17.9407 23.4578 17.8841 23.4766 17.8378 23.4923C17.8469 23.511 17.8565 23.5303 17.8666 23.5498C17.8943 23.6036 17.9233 23.6556 17.9496 23.6955C17.9626 23.7152 17.9736 23.7299 17.9823 23.7398ZM25.4235 24.9015C25.4235 24.9015 25.4238 24.9009 25.4247 24.8998C25.4239 24.901 25.4235 24.9016 25.4235 24.9015ZM25.5095 24.8341C25.5282 24.8223 25.5494 24.81 25.573 24.7973C25.6807 24.7392 25.8274 24.6793 25.985 24.6386C26.1431 24.5979 26.3073 24.5777 26.4515 24.5947C26.5931 24.6114 26.7023 24.6623 26.7719 24.7464C26.8149 24.8281 26.8127 24.8664 26.8112 24.8752C26.8101 24.8815 26.8036 24.9058 26.7561 24.9349C26.6576 24.9951 26.474 25.0186 26.2563 25.0061C26.0439 24.9938 25.8187 24.9487 25.6503 24.8915C25.5945 24.8726 25.5471 24.853 25.5095 24.8341ZM26.4701 24.3145C26.6384 24.3344 26.8061 24.3993 26.9248 24.5521C26.9291 24.5577 26.9331 24.5638 26.9367 24.5703C27.0001 24.686 27.0383 24.8119 27.0169 24.9375C26.995 25.066 26.9197 25.1442 26.8441 25.1905C26.6961 25.281 26.4677 25.2998 26.2472 25.2871C26.0212 25.274 25.7816 25.2263 25.5982 25.1641C25.5073 25.1332 25.4251 25.0971 25.3643 25.0566C25.3345 25.0367 25.3035 25.0118 25.2792 24.9799C25.2561 24.9497 25.2228 24.8911 25.2309 24.8105C25.2315 24.8041 25.2325 24.7977 25.2338 24.7914C25.244 24.7427 25.2683 24.7094 25.2825 24.6921C25.2993 24.6715 25.3193 24.6529 25.3396 24.6363C25.3805 24.6029 25.4337 24.569 25.4939 24.5365C25.6148 24.4713 25.7746 24.4064 25.9449 24.3625C26.1148 24.3187 26.2999 24.2944 26.4701 24.3145ZM28.435 25.3014C28.5171 25.463 28.545 25.6652 28.4583 25.8589C28.389 26.0157 28.2694 26.0996 28.1422 26.1303C28.0151 26.1611 27.8722 26.1419 27.7357 26.0836C27.4648 25.968 27.1895 25.6843 27.1054 25.251C27.0966 25.2057 27.1053 25.1575 27.1286 25.1225C27.3798 24.7451 27.788 24.7699 28.0762 24.9337C28.223 25.0172 28.3556 25.1448 28.435 25.3014ZM27.3273 25.2554C27.4963 25.0616 27.7639 25.0619 27.9934 25.1924C28.1152 25.2617 28.21 25.3599 28.2603 25.459C28.308 25.553 28.3123 25.6363 28.2771 25.715L28.2768 25.7158C28.2472 25.7827 28.1906 25.8328 28.1045 25.8536C28.0182 25.8745 27.9107 25.863 27.8 25.8157C27.5946 25.7281 27.4042 25.5303 27.3273 25.2554ZM19.8154 24.9514C19.8598 24.9629 19.9084 24.9856 19.9608 25.0176C20.3553 25.2579 20.5423 25.5222 20.5912 25.8329C20.6148 25.983 20.6036 26.1301 20.5808 26.2683C20.5631 26.3759 20.5366 26.4865 20.5115 26.5916C20.5064 26.613 20.5014 26.6342 20.4964 26.655C20.4956 26.6652 20.4939 26.6753 20.4914 26.6851C20.4765 26.7434 20.4408 26.8025 20.3798 26.8159C20.3315 26.8265 20.289 26.8022 20.263 26.7833C20.2078 26.7433 20.1485 26.669 20.0929 26.5872C19.978 26.4183 19.8455 26.1677 19.7412 25.9223C19.6889 25.7993 19.6425 25.6747 19.6086 25.56C19.5757 25.4482 19.5511 25.3338 19.5501 25.2349C19.5496 25.1848 19.555 25.1281 19.5755 25.076C19.5977 25.0197 19.6341 24.9777 19.6813 24.9571C19.7251 24.9379 19.7716 24.9401 19.8154 24.9514ZM20.3151 26.487C20.2964 26.4646 20.2743 26.4352 20.2491 26.3982C20.1468 26.2479 20.0231 26.0151 19.9247 25.7837C19.8757 25.6683 19.8341 25.5561 19.805 25.4571C19.7749 25.3552 19.7615 25.2788 19.761 25.2313C19.761 25.2289 19.761 25.2267 19.7611 25.2247C19.7649 25.2252 19.7696 25.2261 19.7752 25.2275C19.7979 25.2334 19.83 25.2471 19.8732 25.2734C20.2433 25.4989 20.3562 25.7092 20.3848 25.8907C20.3999 25.9867 20.3942 26.0901 20.3748 26.2079C20.3599 26.2979 20.3386 26.3885 20.3151 26.487ZM20.3695 26.5398C20.3695 26.5399 20.3691 26.5397 20.3682 26.5392C20.3691 26.5395 20.3695 26.5398 20.3695 26.5398ZM22.2095 25.3252C22.1905 25.3191 22.1703 25.32 22.1512 25.3285C22.0946 25.3536 22.0602 25.4142 22.0403 25.4633C22.0192 25.5155 22.0053 25.5772 21.997 25.6397C21.9803 25.765 21.9826 25.9179 22.0108 26.0621C22.0389 26.2056 22.0958 26.3553 22.198 26.4535C22.3037 26.5551 22.4418 26.5863 22.6058 26.5299C22.7664 26.4774 22.8807 26.367 22.915 26.1953C22.9473 26.0336 22.8968 25.8712 22.8283 25.7467C22.7576 25.6183 22.6542 25.5037 22.5409 25.4266C22.4406 25.3584 22.3243 25.314 22.2095 25.3252ZM22.2226 25.606C22.2162 25.6247 22.2096 25.6523 22.2047 25.6889C22.1932 25.7751 22.1946 25.887 22.2149 25.9911C22.2354 26.0959 22.2721 26.178 22.3213 26.2254C22.3669 26.2691 22.4378 26.2974 22.5537 26.2574L22.5551 26.2569C22.6775 26.2171 22.7047 26.155 22.7111 26.1229C22.7196 26.0805 22.71 26.0073 22.6582 25.9131C22.6086 25.8229 22.5315 25.7359 22.445 25.6771C22.3662 25.6235 22.2882 25.5989 22.2226 25.606ZM22.2318 25.5848C22.2318 25.5849 22.2316 25.5851 22.2313 25.5856C22.2316 25.585 22.2318 25.5848 22.2318 25.5848ZM21.281 25.4103C21.2872 25.4093 21.2935 25.4089 21.2997 25.4093C21.3614 25.4132 21.4058 25.4682 21.4293 25.5025C21.4574 25.5433 21.4829 25.5953 21.5053 25.65C21.5502 25.7601 21.5903 25.9016 21.6142 26.0402C21.6372 26.1739 21.6491 26.3279 21.6209 26.4521C21.606 26.5172 21.5776 26.5847 21.5261 26.6299C21.4739 26.6757 21.4125 26.6857 21.3511 26.6731C21.34 26.6709 21.3292 26.6662 21.3192 26.6594C21.1118 26.5182 21.0506 26.21 21.0524 25.9713C21.0534 25.8481 21.0706 25.727 21.1014 25.6301C21.1168 25.5818 21.1372 25.5342 21.1642 25.4954C21.1911 25.4567 21.23 25.4192 21.281 25.4103ZM21.2975 25.7341C21.3045 25.7483 21.3121 25.7651 21.32 25.7844C21.3552 25.8707 21.3888 25.9879 21.4086 26.1031C21.4292 26.2231 21.4309 26.318 21.419 26.3704C21.4151 26.3877 21.4112 26.3936 21.4102 26.3949C21.409 26.3956 21.4057 26.3969 21.3993 26.3969C21.3075 26.321 21.262 26.1581 21.2634 25.9742C21.2641 25.8809 21.2774 25.7972 21.2956 25.74C21.2962 25.738 21.2969 25.736 21.2975 25.7341ZM21.2644 25.6806C21.2644 25.6806 21.2648 25.6809 21.2657 25.6819C21.2648 25.6812 21.2644 25.6807 21.2644 25.6806Z" fill="white"/>
</g>
<defs>
<clipPath id="clip0_45_17200">
<rect width="45" height="45" fill="white"/>
</clipPath>
</defs>
</svg>
