<svg width="45" height="45" viewBox="0 0 45 45" fill="none" xmlns="http://www.w3.org/2000/svg">
<g clip-path="url(#clip0_45_17278)">
<path d="M0 0H45V45H0V0Z" fill="#FFB700"/>
<path d="M1.87891 22.4998L8.06641 2.50293H14.2539V42.4967H8.06641L1.87891 22.4998Z" fill="#FF5B00"/>
<path d="M1.87891 2.50293H8.06641V42.4967H1.87891V2.50293Z" fill="#005641"/>
<path d="M16.1211 2.50293H43.3109V42.4967H16.1211V2.50293Z" fill="#8D2029"/>
<path d="M40.7305 38.3062C40.7305 38.3062 40.9836 38.9905 41.2648 39.2812C41.6867 39.6937 42.5305 39.6562 42.9031 40.153C43.332 40.7249 42.868 41.4843 42.868 41.5593L42.8961 41.953C42.8961 41.953 42.6008 41.953 42.4742 41.9812C42.2914 42.0187 42.2211 42.2249 41.8695 42.1968C41.0047 42.1218 41.0398 41.0718 40.9906 40.1812C40.9484 39.8437 40.85 39.3937 40.7867 39.0562C40.7375 38.7749 40.7305 38.3062 40.7305 38.3062Z" fill="#FFB700"/>
<path fill-rule="evenodd" clip-rule="evenodd" d="M40.732 38.3064C40.6934 38.3075 40.6934 38.3075 40.6934 38.3075L40.6934 38.3089L40.6935 38.313C40.6935 38.3166 40.6936 38.3218 40.6938 38.3286C40.6941 38.3421 40.6945 38.3617 40.6952 38.3861C40.6967 38.4348 40.6991 38.5027 40.7031 38.5795C40.711 38.7323 40.7253 38.9232 40.7506 39.0681L40.7508 39.0689C40.7684 39.1633 40.7887 39.2656 40.8096 39.3714C40.8642 39.6469 40.9234 39.9458 40.9537 40.1876C40.958 40.264 40.9615 40.3421 40.9652 40.4211C40.9824 40.7956 41.0005 41.1896 41.0895 41.5129C41.144 41.7109 41.2258 41.8861 41.3522 42.0165C41.4786 42.1469 41.6464 42.2292 41.8686 42.2485L41.8688 42.2485C42.0516 42.2631 42.1635 42.2166 42.2531 42.1605C42.2751 42.1468 42.2955 42.1327 42.3147 42.1192C42.3163 42.1181 42.3179 42.117 42.3194 42.116C42.3371 42.1036 42.3536 42.0921 42.3703 42.0814C42.4062 42.0584 42.4411 42.0407 42.4817 42.0324L42.4821 42.0323C42.5424 42.0189 42.6454 42.0119 42.7353 42.0084C42.7798 42.0066 42.8205 42.0057 42.85 42.0053C42.8647 42.0051 42.8767 42.005 42.8849 42.0049L42.8944 42.0049L42.8975 42.0049L42.9402 42.0049L42.9086 41.5629C42.9089 41.5617 42.9094 41.5604 42.9099 41.5587C42.9126 41.5508 42.9168 41.54 42.9226 41.5257C42.9275 41.5136 42.9333 41.4999 42.9398 41.4844C42.9409 41.4817 42.9421 41.4789 42.9433 41.4761C42.9512 41.4572 42.96 41.4361 42.9693 41.4131C43.0066 41.3212 43.0526 41.198 43.0849 41.0579C43.1496 40.7771 43.1604 40.4214 42.932 40.1168C42.8337 39.9857 42.7057 39.8917 42.565 39.8175C42.4244 39.7433 42.2686 39.6879 42.1135 39.6357C42.0889 39.6275 42.0643 39.6193 42.0398 39.6111C41.9089 39.5675 41.7801 39.5246 41.6599 39.4727C41.5174 39.4113 41.3902 39.3384 41.2897 39.2402C41.1548 39.1007 41.0244 38.8637 40.9264 38.6574C40.8777 38.5548 40.8377 38.4612 40.8099 38.3932C40.796 38.3592 40.7852 38.3317 40.7778 38.3127C40.7741 38.3032 40.7713 38.2959 40.7695 38.291L40.7674 38.2854L40.7669 38.284L40.7667 38.2837L40.6934 38.3075L40.732 38.3064ZM40.7781 38.5287C40.7788 38.5429 40.7795 38.5575 40.7803 38.5724C40.7882 38.7242 40.802 38.908 40.8259 39.0443C40.843 39.1355 40.8628 39.2356 40.8834 39.3399C40.9385 39.6179 40.9994 39.9257 41.0303 40.1729L41.0306 40.1753L41.0307 40.1776C41.0352 40.2581 41.039 40.3393 41.0427 40.4206C41.0601 40.7948 41.0774 41.1697 41.1621 41.4773C41.213 41.6625 41.2876 41.8195 41.3995 41.9349C41.5113 42.0503 41.6633 42.1273 41.8735 42.1456C42.0422 42.1591 42.1412 42.1166 42.2203 42.0672C42.2405 42.0545 42.2597 42.0413 42.2789 42.0279L42.2837 42.0245C42.3011 42.0123 42.3189 41.9999 42.3369 41.9884C42.3765 41.9631 42.4189 41.941 42.4697 41.9305C42.536 41.9158 42.6438 41.9088 42.733 41.9053C42.7782 41.9035 42.8193 41.9026 42.8491 41.9022C42.8512 41.9021 42.8532 41.9021 42.8551 41.9021L42.8309 41.562V41.5595C42.8309 41.5495 42.8326 41.5406 42.834 41.535C42.8354 41.5288 42.8374 41.5225 42.8393 41.5166C42.8433 41.5049 42.8486 41.4911 42.8547 41.4764C42.8598 41.4637 42.8658 41.4494 42.8723 41.4339C42.8735 41.4312 42.8746 41.4285 42.8758 41.4257C42.8837 41.407 42.8923 41.3864 42.9013 41.3641C42.9376 41.2746 42.9809 41.1582 43.011 41.0276C43.071 40.767 43.0778 40.4571 42.8773 40.1898C42.7894 40.0725 42.6721 39.9849 42.5366 39.9134C42.4011 39.842 42.2497 39.7879 42.0945 39.7357C42.0703 39.7276 42.046 39.7195 42.0217 39.7114C41.8909 39.6678 41.759 39.6239 41.636 39.5709C41.4902 39.5079 41.3538 39.4309 41.2435 39.323L41.2431 39.3226L41.2427 39.3222C41.0965 39.171 40.9599 38.9208 40.8611 38.7125C40.8295 38.6461 40.8016 38.5834 40.7781 38.5287Z" fill="black"/>
<path d="M25.5562 31.8561L25.718 31.7248L25.7883 31.8561C25.8797 32.0248 26.1398 32.0154 26.3086 31.8561L26.4422 31.7154L26.5547 31.8467C26.6953 32.0248 26.9625 32.0248 27.1383 31.8467C27.2578 31.7342 27.2789 31.7248 27.3492 31.8186C27.3984 31.8748 27.5391 31.9311 27.6586 31.9592C27.8836 31.9967 27.8836 31.9967 28.0102 31.7342C28.1227 31.5186 28.1367 31.4342 28.1156 31.2186C28.096 31.0539 28.0819 30.8881 28.0734 30.7217C28.0594 30.4779 28.0664 30.4779 28.3266 30.3467C28.4557 30.2939 28.5825 30.2313 28.7062 30.1592C28.8117 30.0748 29.107 29.6154 29.107 29.5217C29.107 29.5029 28.9945 29.4654 28.8539 29.4467C28.2914 29.3529 28.2 28.9592 28.5656 28.2279C29.1492 27.0092 29.5078 25.8373 29.5078 25.0967C29.5078 24.7592 29.5289 24.6467 29.557 24.7217C29.6906 25.0123 29.4516 26.2592 29.1 27.1592L28.9594 27.5154L29.093 27.4779C29.1633 27.4498 29.6133 27.1967 30.0773 26.9154C31.357 26.1467 31.793 25.9967 32.6227 26.0436C33.3187 26.0811 33.607 26.2592 34.0992 26.9436C34.3594 27.3186 34.6125 27.5717 35.0695 27.9561C36.0398 28.7623 36.082 28.8373 36.1313 29.7936C36.1805 30.7592 36.1523 30.8154 35.6039 30.9748C35.1328 31.1154 34.8375 31.4061 34.7602 31.8186C34.718 32.0248 34.8094 32.0342 35.0414 31.8279L35.2172 31.6779L35.2945 31.8279C35.4 32.0248 35.6109 32.0248 35.7867 31.8279L35.9273 31.6873L36.068 31.8279C36.2789 32.0623 36.5602 32.0061 36.6445 31.7154C36.6586 31.6686 36.7008 31.6779 36.7852 31.7811C36.9469 31.9686 37.3477 32.0436 37.3898 31.8936C37.4039 31.8373 37.3758 31.7061 37.3195 31.5936C37.0875 31.1248 37.0102 30.9092 37.0102 30.6561C37.0102 30.2998 37.0805 30.1217 37.3898 29.8404C37.7555 29.4842 37.868 29.0342 37.5867 29.0342C37.418 29.0342 37.2422 28.8279 37.1297 28.4998C36.9047 27.8248 36.9539 27.0748 37.2914 25.8186C37.5502 25.0794 37.68 24.2717 37.6711 23.4561C37.6711 22.7623 37.657 22.6498 37.5445 22.2654C37.4565 21.9982 37.3481 21.7437 37.2211 21.5061L37.0242 21.1592L37.2703 20.8779C38.0297 20.0436 37.875 18.6748 36.9609 18.1498C36.6797 17.9811 36.6094 17.9717 36.1172 17.9717C35.8359 17.9717 35.3789 18.0279 35.1328 18.0936C34.8025 18.1633 34.4688 18.2009 34.1344 18.2061C33.6562 18.2061 33.5719 18.1873 33.3891 18.0561C33.1992 17.9248 33.1641 17.8592 33.1289 17.5404C33.1255 17.5104 33.1167 17.4819 33.1032 17.4574C33.0898 17.4329 33.072 17.4131 33.0516 17.3998C32.9812 17.3717 32.6859 17.7186 32.6437 17.8686C32.6156 17.9529 32.6016 17.9436 32.5383 17.8404C32.4786 17.7383 32.4312 17.6244 32.3977 17.5029C32.3273 17.1936 32.4187 16.9686 32.693 16.7904L32.9039 16.6592L32.7773 16.5561C32.5242 16.3404 32.0883 16.4904 31.9336 16.8373C31.8844 16.9311 31.8352 17.0248 31.8211 17.0248C31.807 17.0248 31.7227 16.9311 31.6383 16.8092C31.3078 16.3779 31.4203 15.7404 31.8633 15.5529C32.0953 15.4498 32.3062 15.5248 32.3484 15.7404C32.4187 16.0498 32.6156 15.6373 32.5805 15.2529C32.5594 14.9998 32.5594 14.9904 32.693 14.9904C32.8758 14.9904 33.2555 15.3092 33.382 15.5529C33.5227 15.8436 33.5086 16.3029 33.3539 16.6404L33.2344 16.9029L33.3961 16.8654C33.6211 16.7998 33.8461 16.6123 33.9586 16.3779C34.0179 16.2287 34.0512 16.0635 34.0561 15.8947C34.0609 15.7259 34.0372 15.5578 33.9867 15.4029C33.8812 15.1498 33.8953 15.1123 34.05 15.1967C34.3031 15.3373 34.4437 15.4967 34.5422 15.7686C34.6406 16.0123 34.6477 16.0686 34.5984 16.3311C34.5648 16.4909 34.5126 16.6427 34.4437 16.7811C34.3594 16.9311 34.3523 16.9592 34.4227 16.9592C34.5492 16.9592 34.8023 16.7998 34.8937 16.6779C34.943 16.6029 35.0133 16.4436 35.0484 16.3029L35.1187 16.0686L35.1891 16.2561C35.2945 16.5092 35.5055 16.7436 35.7586 16.8936C36.0328 17.0436 36.1453 17.0529 36.0047 16.9123C35.9062 16.8186 35.7234 16.1154 35.7867 16.0498C36.0902 16.2764 36.3673 16.5606 36.6094 16.8936C37.0102 17.3717 37.2633 17.5311 37.6289 17.5311C38.1 17.5311 38.3742 16.9873 38.1633 16.4717C38.0437 16.1717 37.7695 16.1248 37.6008 16.3779C37.5305 16.4998 37.5094 16.5936 37.5305 16.7248C37.5586 16.8748 37.5516 16.8936 37.4461 16.8936C37.3055 16.8936 37.0383 16.6592 36.5602 16.1248C35.8946 15.3612 35.1296 14.7669 34.3031 14.3717C33.7432 14.1991 33.1651 14.1579 32.5945 14.2498C32.1445 14.3623 31.6102 14.7092 31.3148 15.0748C30.8016 15.7311 30.7945 16.6029 31.2937 17.3998L31.4344 17.6248L31.343 17.8311C31.2742 17.9788 31.2401 18.1506 31.2452 18.3243C31.2502 18.498 31.294 18.6658 31.3711 18.8061C31.4414 18.9373 31.5117 19.0404 31.5328 19.0404C31.5469 19.0404 31.5609 18.9561 31.568 18.8529C31.582 18.5998 31.6664 18.4311 31.807 18.3654C31.9336 18.2998 32.018 18.3373 32.5945 18.6467C33.2062 18.9654 34.2117 18.9842 35.2805 18.7029C35.7437 18.5603 36.2257 18.5667 36.6867 18.7217C37.193 19.0029 37.3055 19.7248 36.9398 20.2686C36.7781 20.5123 36.6305 20.6061 36.1172 20.7936C35.6703 20.9507 35.2057 20.9983 34.7461 20.9342C33.9867 20.9248 33.7125 20.9436 33.4102 21.0279C33.0656 21.1217 32.8617 21.1311 31.8773 21.1029L30.7312 21.0654L30.8578 21.1967C30.9256 21.2769 30.9985 21.3491 31.0758 21.4123C31.1672 21.4779 31.1602 21.4873 31.0336 21.5529C30.9633 21.5904 30.7945 21.6186 30.6609 21.6186H30.4289L30.4008 21.8811C30.3818 22.0048 30.3818 22.1323 30.4008 22.2561C30.4289 22.3498 30.4148 22.3686 30.3445 22.3311C30.2953 22.3029 30.1617 22.2561 30.0422 22.2279C29.9216 22.1935 29.8038 22.1432 29.6906 22.0779C29.557 21.9842 29.543 21.9842 29.4937 22.1061C29.4516 22.1998 29.0578 22.5936 29.0016 22.5936C28.9761 22.3503 28.924 22.1134 28.8469 21.8904C28.7766 21.6936 28.7133 21.4686 28.6922 21.4029C28.6711 21.2998 28.657 21.2904 28.6219 21.3748C28.6008 21.4217 28.5727 21.5623 28.5516 21.6748C28.5269 21.8267 28.4842 21.9723 28.425 22.1061L28.3195 22.3123L28.2492 22.1342C28.1789 21.9467 28.0664 21.7404 28.0242 21.7404C28.0102 21.7404 27.9891 21.7967 27.975 21.8811C27.9398 22.0311 27.6656 22.4717 27.5953 22.4717C27.5742 22.4717 27.5531 22.3498 27.5531 22.1904C27.5531 22.0498 27.532 21.9186 27.5039 21.9186C27.4758 21.9186 27.4547 21.9654 27.4547 22.0123C27.4547 22.1248 27.2227 22.4811 27.1383 22.4811C27.1102 22.4811 27.0539 22.5186 27.0187 22.5748C26.9344 22.6967 26.8641 22.6779 26.8992 22.5373C26.9091 22.4172 26.8995 22.2958 26.8711 22.1811L26.8008 21.8811C26.7867 21.8342 26.7023 21.8529 26.5195 21.9279C26.2383 22.0498 26.1398 22.0217 26.2875 21.8717C26.3437 21.8154 26.4281 21.6186 26.4703 21.4404C26.5195 21.2529 26.5898 21.0936 26.625 21.0748C26.6742 21.0561 26.6742 21.0748 26.6109 21.1873C26.5702 21.2586 26.5436 21.3425 26.5336 21.4311C26.5336 21.4779 26.4984 21.5998 26.4633 21.7029C26.4211 21.7967 26.393 21.8904 26.4 21.8998C26.407 21.9092 26.5195 21.8529 26.6461 21.7779L26.8711 21.6279V21.7592C26.8711 21.8342 26.8992 22.0217 26.9344 22.1811L26.9977 22.4623L27.1523 22.3686C27.307 22.2748 27.4547 21.9373 27.4547 21.6654C27.4547 21.5342 27.5109 21.5529 27.5391 21.6936C27.5391 21.7311 27.5812 21.8904 27.6094 22.0404L27.6797 22.3029L27.7852 22.1342C27.8484 22.0404 27.9187 21.8529 27.9469 21.7311C28.0031 21.5061 28.0875 21.4029 28.0875 21.5717C28.0875 21.6842 28.3266 22.1154 28.3687 22.0779C28.3969 22.0592 28.4391 21.8998 28.4742 21.7217C28.5445 21.3467 28.65 21.1029 28.7203 21.1592C28.7484 21.1779 28.7555 21.2154 28.7414 21.2529C28.7273 21.2717 28.7836 21.5154 28.868 21.7779C28.9291 21.9747 28.99 22.1716 29.0508 22.3686C29.0789 22.4623 29.107 22.4623 29.2828 22.2467C29.3883 22.1154 29.4937 21.9748 29.5008 21.9279C29.5219 21.8529 29.543 21.8623 29.6414 21.9467C29.8487 22.0927 30.0758 22.182 30.3094 22.2092C30.3234 22.1904 30.3375 22.0217 30.3375 21.8342L30.3445 21.4873L30.4852 21.5248C30.5555 21.5529 30.7172 21.5529 30.8367 21.5248L31.0477 21.4873L30.8578 21.2998C30.7523 21.2061 30.6469 21.0842 30.6187 21.0279C30.5977 20.9717 30.4992 20.9154 30.3937 20.9061C30.1055 20.8686 29.5922 20.4936 29.5922 20.3061C29.5922 20.2686 29.6625 20.3342 29.7469 20.4373C29.9437 20.6717 30.2109 20.8123 30.45 20.8123H30.6187L30.5133 20.6248C30.4381 20.4794 30.3899 20.3124 30.3727 20.1373C30.3586 19.8561 30.3375 19.8186 30.1195 19.6217C29.9931 19.5023 29.8754 19.3673 29.768 19.2186L29.6484 19.0404L29.5852 19.2561C29.55 19.3779 29.5148 19.4717 29.4937 19.4717C29.4797 19.4717 29.4094 19.3967 29.3531 19.3123C29.3136 19.2512 29.2659 19.2004 29.2125 19.1623C29.1914 19.1623 29.1422 19.2748 29.0859 19.4154L28.9875 19.6686L28.9172 19.5279C28.8546 19.413 28.784 19.3062 28.7062 19.2092C28.6219 19.1154 28.5867 19.0404 28.6148 19.0404C28.643 19.0404 28.7344 19.1342 28.8258 19.2561L28.9805 19.4717L29.0508 19.3123C29.0914 19.2019 29.1037 19.0767 29.0859 18.9561C29.0578 18.7873 29.0648 18.7779 29.107 18.8904C29.1677 18.9963 29.2386 19.0908 29.318 19.1717L29.4727 19.3404L29.5781 19.0873C29.6836 18.8248 29.6836 18.8248 29.7258 18.9842C29.7961 19.1811 30.2531 19.6873 30.6398 19.9779C30.7102 20.0248 30.682 19.8748 30.5695 19.5092C30.5357 19.389 30.5168 19.2624 30.5133 19.1342C30.5133 18.9654 30.4781 18.8904 30.3164 18.7217C30.2159 18.636 30.1317 18.5202 30.0707 18.3834C30.0097 18.2467 29.9734 18.0929 29.9648 17.9342C29.9437 17.7748 29.9016 17.6061 29.8664 17.5498C29.8242 17.4561 29.8102 17.5123 29.8242 17.7936C29.8383 17.9904 29.8172 18.2342 29.782 18.3373L29.7258 18.5248L29.6836 18.3654C29.6555 18.2811 29.543 18.1311 29.4375 18.0373C29.332 17.9436 29.2547 17.8498 29.2687 17.8311C29.2828 17.8123 29.3953 17.8967 29.5148 18.0186C29.7047 18.2154 29.7398 18.2342 29.768 18.1498C29.7961 18.0561 29.768 17.6248 29.7117 17.3248C29.6836 17.1748 29.6836 17.1748 29.8242 17.3623C29.9227 17.4936 29.9789 17.6623 30.0281 17.9436C30.0844 18.2998 30.1125 18.3654 30.3586 18.6561C30.5062 18.8342 30.6398 18.9654 30.6469 18.9561C30.6609 18.9373 30.675 18.4873 30.6891 17.9436C30.7172 16.9029 30.6891 16.6498 30.4992 16.3311L30.4008 16.1623L30.5555 15.9467C30.7288 15.7257 30.8445 15.4366 30.8859 15.1217L30.9141 14.8686L30.7453 15.0842C30.6047 15.2623 30.5344 15.2998 30.3727 15.2998C30.2109 15.2998 30.1477 15.2623 30.0422 15.1123C29.8779 14.9014 29.6776 14.747 29.4586 14.6623C29.3742 14.6248 29.3461 14.6436 29.3461 14.7186C29.3461 14.7748 29.3039 14.9248 29.2477 15.0654L29.1492 15.3092L28.9383 15.0279C28.8047 14.8686 28.657 14.7279 28.5375 14.6904C28.2492 14.5967 28.2352 14.5967 28.2352 14.8873C28.2352 15.3279 28.0945 15.4123 27.8414 15.1217C27.6445 14.8967 27.4898 14.8404 27.1172 14.9061L26.8359 14.9436L26.8852 15.1123C26.9273 15.2529 26.9203 15.3186 26.8289 15.4779C26.6812 15.7404 26.4914 15.8529 26.1961 15.8529C26.0555 15.8529 25.8867 15.8904 25.8164 15.9373C25.7461 15.9842 25.5633 16.0311 25.4156 16.0498C25.275 16.0686 25.1133 16.1061 25.0641 16.1248C24.9937 16.1623 24.9937 16.1248 25.0148 15.9186C25.05 15.5998 24.8742 15.3561 24.6141 15.3561C24.2695 15.3561 24.1148 15.7686 24.2484 16.3123C24.2758 16.4296 24.2992 16.5485 24.3187 16.6686C24.4111 16.903 24.535 17.1127 24.6844 17.2873C24.8672 17.5311 25.0359 17.7842 25.0641 17.8498C25.1207 17.9476 25.1927 18.0276 25.275 18.0842L25.4297 18.1967L25.4086 17.9717C25.3875 17.7279 25.4227 17.6904 25.5211 17.8686C25.5562 17.9248 25.6477 18.0279 25.718 18.0842C25.8375 18.1779 25.8586 18.1779 25.8586 18.1029C25.8586 18.0467 25.8797 17.9248 25.9078 17.8311L25.957 17.6623L26.0484 17.8967C26.0977 18.0279 26.2594 18.3186 26.407 18.5529C26.6953 18.9936 26.8781 19.4904 26.7867 19.6029C26.7445 19.6498 26.6461 19.6498 26.4352 19.5936C26.2805 19.5561 26.0836 19.5279 25.9992 19.5467C25.8375 19.5748 25.8234 19.5467 25.9289 19.3779C26.0344 19.1904 26.0133 19.1623 25.8023 19.1623C25.5562 19.1623 24.9445 19.0029 24.7055 18.8811C24.4805 18.7592 24.4242 18.7873 24.3539 19.0779L24.2344 19.6029L24.1641 19.8842L24.4172 19.8561C24.5477 19.8379 24.677 19.8065 24.8039 19.7623C24.8537 19.7402 24.9062 19.7307 24.9586 19.7342C24.9727 19.7436 24.9375 19.8561 24.8883 19.9873L24.7898 20.2123L24.9445 20.1748C25.0289 20.1467 25.1555 20.0904 25.2258 20.0436C25.3523 19.9686 25.3664 19.9686 25.4648 20.1842C25.5844 20.4373 25.6758 20.4279 25.6969 20.1561C25.718 19.8748 25.7883 19.9123 25.9219 20.2873C26.0484 20.6436 26.175 20.7748 26.2031 20.5686C26.2102 20.4936 26.2734 20.3811 26.3508 20.3061C26.5055 20.1654 26.618 20.2123 26.6812 20.4279C26.7516 20.6623 26.5969 20.8967 26.1609 21.2529C25.7572 21.5501 25.4098 21.9665 25.1454 22.4703C24.8809 22.974 24.7064 23.5517 24.6352 24.1592C24.5016 25.2654 24.9164 26.4092 25.732 27.2436C26.1258 27.6373 26.7516 28.0498 26.7094 27.8998C26.5406 27.2154 26.5477 25.9311 26.7164 25.7154C26.7445 25.6779 26.7375 25.8092 26.6953 26.0061C26.5547 26.7467 26.625 27.3279 26.9766 28.6967C27.2859 29.9342 27.2437 30.4686 26.7937 30.8154C26.6531 30.9279 26.5617 30.9467 26.175 30.9373C25.7531 30.9373 25.7039 30.9373 25.5703 31.0873C25.4088 31.3073 25.303 31.5893 25.268 31.8936C25.268 32.0154 25.3664 31.9967 25.5492 31.8561H25.5562Z" fill="#FFB700"/>
<path d="M32.3774 31.8282L32.5532 31.6782L32.6728 31.8282C32.8274 32.0251 33.0173 32.0157 33.1649 31.8188C33.2353 31.7251 33.2915 31.6688 33.2985 31.6782L33.3618 31.8282C33.397 31.9126 33.4743 31.9501 33.6149 31.9688C33.7767 31.9782 33.8259 31.9688 33.8962 31.8376L33.9665 31.6782L34.1423 31.8282C34.6204 32.2407 34.8735 31.8095 34.6556 30.9563C34.5501 30.5251 34.6134 30.2813 34.9579 29.7376C35.1056 29.5032 35.2251 29.2501 35.2251 29.1751C35.2251 29.072 35.197 29.0532 35.0001 29.0626C34.8173 29.0626 34.761 29.0345 34.6626 28.8938C34.5009 28.6595 34.5149 28.3876 34.6907 28.0876L34.8313 27.8532L34.5782 27.6282C34.3762 27.4292 34.1879 27.2064 34.0157 26.9626C33.8622 26.7211 33.6746 26.5222 33.4635 26.3775C33.2523 26.2327 33.0219 26.1448 32.7853 26.1188L32.4548 26.072V26.4095C32.4548 26.8313 32.6095 27.2438 33.0173 27.9376C33.4813 28.7251 33.5095 28.847 33.5306 29.8782L33.5517 30.7501L33.411 30.9188C33.2915 31.0688 33.2423 31.097 32.8485 31.1251C32.4759 31.1532 32.3915 31.1813 32.286 31.3126C32.1626 31.4326 32.0773 31.6098 32.047 31.8094C32.0259 31.9501 32.0329 31.9782 32.1103 31.9782C32.1595 31.9782 32.279 31.9126 32.3774 31.8282ZM22.379 29.5782C22.4215 29.4949 22.4459 29.3976 22.4493 29.297C22.4493 29.2032 22.4915 29.1657 22.6743 29.1282L22.8923 29.0907L22.7517 28.9313C22.5759 28.7438 22.5548 28.6032 22.7095 28.6032C22.8642 28.6032 23.1173 28.397 23.1595 28.2376C23.1806 28.1626 23.1595 28.0688 23.1313 28.022C23.047 27.8907 22.8853 27.9094 22.8571 28.0594C22.822 28.2094 22.7728 28.2094 22.6462 28.0594C22.4704 27.8251 22.4634 27.347 22.6462 27.0657C22.7235 26.9345 22.7235 26.9344 22.6181 26.7938C22.5056 26.6438 22.4212 26.3626 22.4774 26.2876C22.4915 26.2688 22.5829 26.2876 22.6743 26.3345C22.8149 26.3907 22.8642 26.3907 22.9204 26.3345C23.0821 26.1563 22.9063 25.9313 22.6392 25.9876C22.5267 26.0063 22.4845 25.9876 22.4704 25.9126C22.4563 25.8563 22.3649 25.7813 22.2595 25.7438C22.0696 25.6782 22.0696 25.6782 22.0696 25.8563C22.0696 26.0438 21.9853 26.0813 21.8306 25.9595C21.704 25.8657 21.5845 25.9407 21.5845 26.1188C21.5845 26.2876 21.704 26.3626 21.936 26.3438C22.1048 26.3345 22.1118 26.5032 21.9501 26.7469L21.8306 26.9344L21.922 27.1126C22.0626 27.3751 22.0485 27.8157 21.9009 28.0407L21.7813 28.2095L21.704 28.0688C21.5915 27.8813 21.4438 27.8907 21.4017 28.097C21.3806 28.2282 21.4017 28.2844 21.5282 28.4344C21.6126 28.5282 21.7392 28.6032 21.8024 28.6032C21.9642 28.6032 21.9571 28.7813 21.7884 28.9501L21.6478 29.0907L21.8587 29.1282C21.9712 29.1563 22.0696 29.1938 22.0696 29.222C22.0696 29.3438 22.2103 29.7094 22.2524 29.7094C22.2806 29.7094 22.3368 29.6438 22.379 29.5688V29.5782Z" fill="#FFB700"/>
<path d="M25.0648 28.0218C25.2547 27.928 25.6625 27.4593 25.6625 27.3562C25.6625 27.3187 25.55 27.1499 25.4094 26.9812C25.1281 26.6437 24.8117 26.053 24.7273 25.7155C24.6852 25.528 24.4813 25.228 23.9047 24.478L23.1383 23.4937L22.9203 23.5687C22.7938 23.6062 22.6461 23.6437 22.5898 23.6437C22.4844 23.6437 22.4844 23.6437 22.625 23.7937L22.7656 23.9437L22.9766 23.7937C23.1664 23.6437 23.1734 23.6437 23.1945 23.7655C23.2086 23.8312 23.1805 23.953 23.1242 24.0374C23.075 24.1218 23.0469 24.2249 23.0539 24.253C23.075 24.2812 23.0258 24.3468 22.9484 24.403C22.8078 24.4968 22.7023 24.8062 22.8148 24.8062C22.9203 24.8062 23.1453 24.4312 23.1172 24.3093C23.1031 24.2437 23.1172 24.178 23.1313 24.1593C23.2227 24.0937 23.2156 24.3843 23.1313 24.5343C23.075 24.6093 23.0469 24.703 23.0609 24.7405C23.075 24.7687 23.0258 24.8343 22.9484 24.8905C22.8078 24.9843 22.7023 25.2937 22.8148 25.2937C22.9273 25.2937 23.1453 24.9374 23.1242 24.8062C23.1102 24.7405 23.1102 24.6655 23.1313 24.6468C23.1945 24.6093 23.2227 24.8343 23.1734 24.9468C23.1605 24.9784 23.1537 25.0139 23.1537 25.0499C23.1537 25.0859 23.1605 25.1214 23.1734 25.153C23.2227 25.2749 23.1734 25.4999 23.082 25.5749C23.0469 25.603 23.068 25.6687 23.1664 25.7624C23.307 25.8937 23.307 25.9124 23.307 26.5124C23.307 27.0187 23.3211 27.1499 23.3914 27.2343C23.4617 27.328 23.4758 27.328 23.4758 27.2343C23.4758 27.1405 23.6164 27.0093 23.7219 27.0093C23.757 27.0093 23.9609 27.2437 24.1789 27.5249C24.3969 27.8062 24.6289 28.0593 24.6922 28.0687L24.8469 28.1062C24.868 28.1062 24.9664 28.078 25.0648 28.0124V28.0218ZM22.7234 25.5749C22.7234 25.4155 22.4703 25.2374 22.168 25.1999C21.9219 25.153 21.9219 25.1624 21.9219 25.3218C21.9219 25.453 21.957 25.5093 22.1328 25.603C22.4 25.7624 22.7234 25.7437 22.7234 25.5749Z" fill="#FFB700"/>
<path d="M22.9983 25.5564C23.1248 25.4064 23.1811 25.2376 23.1037 25.2376C23.0194 25.2376 22.7944 25.5001 22.7944 25.6126C22.7944 25.7626 22.8366 25.7533 23.0053 25.5564H22.9983ZM22.7381 25.0783C22.7451 24.9845 22.703 24.9283 22.5764 24.8439C22.2951 24.6845 21.9717 24.6001 21.8944 24.6845C21.7467 24.8439 21.8451 25.0501 22.0772 25.0876C22.1756 25.097 22.3022 25.1345 22.3655 25.172C22.5483 25.2658 22.717 25.2189 22.7381 25.0783ZM22.7381 24.5814C22.7522 24.4595 22.6889 24.4126 22.1756 24.1689C21.7889 23.9814 21.6201 24.0751 21.7467 24.3845C21.7889 24.4876 21.8592 24.5345 22.0209 24.572C22.1405 24.5908 22.3022 24.6376 22.3795 24.6751C22.5905 24.7689 22.717 24.7314 22.7311 24.5814H22.7381ZM22.9912 24.122C23.0686 24.0189 23.1319 23.897 23.1319 23.8408C23.1319 23.7001 22.8295 23.9626 22.7873 24.1501C22.7451 24.3658 22.8225 24.3564 22.9983 24.122H22.9912ZM22.7381 24.0939C22.7522 23.9439 22.5694 23.8126 22.2037 23.7095C21.9295 23.6251 21.81 23.672 21.8311 23.8408C21.8451 23.9345 21.9366 24.0001 22.1826 24.1033C22.5975 24.272 22.717 24.272 22.7381 24.0939ZM23.0897 23.4001C23.5678 23.1189 23.603 22.4158 23.16 22.2283C22.9772 22.1533 22.8647 22.2001 22.7944 22.3595C22.7381 22.4908 22.7733 22.7158 22.8436 22.7158C22.8717 22.7158 22.8928 22.7626 22.8928 22.8095C22.8928 23.0626 22.1756 23.1658 21.8803 22.9689C21.7748 22.9033 21.7397 22.7158 21.817 22.7158C21.8873 22.7158 21.9295 22.5283 21.8944 22.4064C21.8522 22.2189 21.7116 22.1626 21.5217 22.2376C21.0787 22.3876 21.0928 23.0814 21.5428 23.3626C22.0407 23.6063 22.5855 23.6195 23.0897 23.4001Z" fill="#FFB700"/>
<path d="M22.8016 22.8562C22.8297 22.8187 22.8156 22.7624 22.7734 22.7249C22.675 22.6218 22.682 22.4624 22.7875 22.2843C22.8719 22.153 22.8789 21.9468 22.907 19.9312C22.9562 16.453 23.1531 13.8374 23.4062 13.1999C23.5117 12.9562 23.4977 12.9562 23.2305 13.1999C22.8799 13.5255 22.5969 13.9641 22.4078 14.4749C21.9719 15.553 21.8242 17.0062 21.8242 20.1187C21.8242 21.8812 21.8313 22.1155 21.9086 22.2749C21.9789 22.4437 21.9789 22.4999 21.9367 22.6687C21.9016 22.7718 21.8875 22.8843 21.9016 22.903C22 23.0249 22.7031 22.9968 22.8016 22.8562ZM26.7461 19.5374C26.7672 19.5093 26.732 19.3499 26.6758 19.1999C26.5914 18.9562 26.5563 18.9187 26.4367 18.9187C25.8745 18.8535 25.3262 18.6501 24.8195 18.3187C24.4609 18.103 24.3273 18.0562 24.2922 18.1124C24.1797 18.253 24.3625 18.5812 24.6438 18.7593C25.0576 18.9581 25.4912 19.075 25.9305 19.1062C26.1203 19.1062 26.1273 19.1062 26.0148 19.3218L25.9445 19.4718H26.1555L26.507 19.528C26.718 19.5937 26.718 19.5937 26.7461 19.5374Z" fill="#FFB700"/>
<path d="M28.9679 21.1029C28.9679 21.0092 28.764 20.7748 28.5671 20.6154C28.4054 20.4936 28.3773 20.4842 28.3773 20.5873C28.3773 20.7373 28.2789 21.1217 28.2367 21.1217C28.2156 21.1217 28.1804 21.0467 28.1664 20.9623C28.1453 20.8686 28.0679 20.6811 27.9906 20.5592L27.85 20.3248L27.7515 20.5404C27.6531 20.7467 27.4773 20.9436 27.4 20.9436C27.3859 20.9436 27.3789 20.8311 27.4 20.7092C27.407 20.5592 27.4 20.4467 27.3648 20.4279C27.3367 20.3998 27.3086 20.4092 27.3086 20.4467C27.3086 20.5217 27.0695 20.8779 27.0273 20.8779C26.9992 20.8779 26.9711 20.7842 26.957 20.6529L26.9007 20.2029C26.8867 20.0904 26.9218 20.1654 26.9711 20.3904L27.0836 20.7748L27.1961 20.5404C27.247 20.4436 27.285 20.3357 27.3086 20.2217C27.3086 20.1748 27.3296 20.1561 27.3578 20.1748C27.3859 20.1936 27.4211 20.3529 27.4351 20.5217L27.4703 20.8404L27.5968 20.6529C27.6631 20.5589 27.7242 20.4586 27.7796 20.3529C27.8289 20.2404 27.8359 20.2404 27.9414 20.3529C27.9976 20.4279 28.089 20.5873 28.1453 20.7186C28.2015 20.8498 28.2507 20.9436 28.2578 20.9342L28.3 20.6342L28.3281 20.3529C28.3351 20.3061 28.7078 20.6342 28.8484 20.7936C28.9328 20.8967 29.0171 20.9717 29.0312 20.9529C29.0453 20.9342 29.0593 20.7842 29.0593 20.6061C29.0593 20.3436 29.0382 20.2686 28.9187 20.1279C28.7781 19.9592 28.7781 19.9592 28.7218 20.0811C28.6515 20.2404 28.5742 20.2404 28.5742 20.0811C28.5742 19.9686 28.307 19.5279 28.2437 19.5279C28.2226 19.5279 28.1664 19.6217 28.1171 19.7436C28.0679 19.8654 28.0117 19.9592 27.9976 19.9592C27.9273 19.9592 27.5546 19.3967 27.5546 19.3029C27.5546 19.2279 27.5828 19.2467 27.6461 19.3779C27.7089 19.5011 27.782 19.6143 27.864 19.7154C28.0046 19.8842 28.0609 19.8467 28.1171 19.5186C28.1382 19.4248 28.1664 19.3498 28.1875 19.3498C28.2437 19.3498 28.5671 19.8092 28.6093 19.9592L28.6586 20.1092L28.6937 19.9404C28.7359 19.7342 28.7851 19.7342 28.8554 19.9217C28.8836 19.9967 29.0242 20.1654 29.1648 20.2779L29.425 20.5029L29.4742 20.2779C29.5023 20.1561 29.5445 20.0904 29.5586 20.1279C29.5867 20.1748 29.5164 20.5498 29.4671 20.6248C29.4671 20.6342 29.3757 20.5686 29.2843 20.4842L29.1086 20.3154V20.6154C29.1086 20.7748 29.0945 20.9717 29.0804 21.0467C29.0453 21.1967 28.9609 21.2342 28.9609 21.1029H28.9679ZM27.6671 18.7217C27.3578 18.3842 27.3156 18.3092 27.3156 18.1404L27.3226 17.9717L27.3437 18.1311C27.3578 18.2248 27.4422 18.3748 27.5406 18.4873L27.7234 18.6748L27.8289 18.5061C27.8921 18.4123 27.9414 18.2998 27.9414 18.2623C27.9414 18.1498 27.9554 18.1592 28.1664 18.4029C28.3492 18.6186 28.3562 18.6186 28.3773 18.4779C28.3984 18.4029 28.3914 18.2529 28.3773 18.1498C28.307 17.8686 28.3211 17.8311 28.4125 17.9998L28.5812 18.2623C28.6515 18.3654 28.6586 18.3654 28.6867 18.2342C28.7078 18.1498 28.7218 18.0092 28.7218 17.9154V17.7373L28.8836 17.9904C29.0453 18.2342 29.0593 18.2436 29.1015 18.1217C29.1367 18.0561 29.1578 17.8967 29.1578 17.7748C29.1578 17.6061 29.1718 17.5686 29.2 17.6248C29.2562 17.7373 29.2211 18.0186 29.1226 18.2623L29.0523 18.4498L28.9609 18.2529C28.8414 18.0092 28.7992 18.0092 28.7289 18.2717C28.6586 18.5248 28.6093 18.5436 28.539 18.3467C28.4968 18.2248 28.4828 18.2436 28.4547 18.5061L28.4195 18.7873L28.2086 18.5717L27.9976 18.3561L27.8922 18.4967C27.8429 18.5811 27.8007 18.6842 27.8007 18.7217C27.8007 18.8154 27.7445 18.8154 27.6671 18.7217ZM30.4093 17.4467C30.3039 17.3154 30.2265 17.1842 30.2406 17.1654C30.2617 17.1373 30.2757 17.1279 30.2828 17.1467C30.3508 17.2434 30.4212 17.3372 30.4937 17.4279C30.7328 17.7654 30.6836 17.7748 30.4164 17.4467H30.4093ZM26.7531 16.9404C26.6546 16.7529 26.6617 16.6404 26.7882 16.4342C26.8726 16.2936 26.9148 16.2748 27.0695 16.3029C27.175 16.3123 27.3929 16.4342 27.5546 16.5654C27.7884 16.7516 28.0558 16.8489 28.3281 16.8467L28.2086 16.5842C28.0539 16.2748 28.0539 16.2373 28.2367 16.4248C28.4195 16.6217 28.6375 16.6779 29.1296 16.6592L29.3687 16.6498L29.2281 16.4623C29.0382 16.2092 29.0945 16.1811 29.3125 16.4342C29.5093 16.6686 29.5023 16.6873 29.0734 16.7436C28.8946 16.7676 28.714 16.7518 28.539 16.6967C28.3 16.6029 28.2859 16.6123 28.3351 16.7154C28.3632 16.7811 28.4054 16.8279 28.4265 16.8279C28.4546 16.8279 28.4757 16.8654 28.4757 16.9029C28.4757 17.0248 27.9554 16.9123 27.7023 16.7529C27.1398 16.3686 27.0695 16.3311 26.9289 16.3873C26.8914 16.4065 26.8572 16.4355 26.8282 16.4725C26.7993 16.5095 26.7761 16.5539 26.7601 16.6029C26.6687 16.9123 26.9992 17.1561 27.1328 16.8842C27.175 16.7998 27.1679 16.7529 27.0976 16.6498C26.9992 16.5186 27.0132 16.4998 27.1398 16.5561C27.2312 16.6029 27.2382 16.8936 27.1539 17.0061C27.0625 17.1279 26.8375 17.0998 26.7531 16.9404Z" fill="black"/>
<path d="M28.9957 16.1809C28.9254 16.0872 28.9816 16.0684 29.298 16.0591C29.6918 16.0497 29.9308 15.9653 30.2121 15.7215C30.4371 15.534 30.5004 15.5715 30.2824 15.7684C30.0926 15.9559 29.7902 16.0872 29.4879 16.1247L29.1293 16.1903C29.073 16.209 29.0097 16.1997 28.9886 16.1809H28.9957Z" fill="black"/>
</g>
<defs>
<clipPath id="clip0_45_17278">
<rect width="45" height="45" fill="white"/>
</clipPath>
</defs>
</svg>
