<svg width="45" height="45" viewBox="0 0 45 45" fill="none" xmlns="http://www.w3.org/2000/svg">
<g clip-path="url(#clip0_45_17322)">
<path d="M-11.25 0H56.25V45H-11.25V0Z" fill="#239E46"/>
<path d="M-11.25 0H56.25V33.75H-11.25V0Z" fill="black"/>
<path d="M-11.25 0H56.25V11.25H-11.25V0Z" fill="#E70013"/>
<path d="M25.4847 18.522C24.9366 18.0005 24.2914 17.6904 23.6198 17.6257C22.9483 17.561 22.2764 17.7442 21.6777 18.1551C21.0791 18.5661 20.577 19.189 20.2264 19.9554C19.8758 20.7219 19.6904 21.6023 19.6904 22.5C19.6904 23.3977 19.8758 24.2781 20.2264 25.0446C20.577 25.811 21.0791 26.4339 21.6777 26.8449C22.2764 27.2558 22.9483 27.439 23.6198 27.3743C24.2914 27.3096 24.9366 26.9995 25.4847 26.478C24.8946 27.2645 24.1429 27.8001 23.3246 28.017C22.5063 28.234 21.6581 28.1225 20.8872 27.6967C20.1164 27.2709 19.4576 26.5499 18.9941 25.6249C18.5306 24.6999 18.2832 23.6125 18.2832 22.5C18.2832 21.3875 18.5306 20.3001 18.9941 19.3751C19.4576 18.4501 20.1164 17.7291 20.8872 17.3033C21.6581 16.8775 22.5063 16.7661 23.3246 16.983C24.1429 17.1999 24.8946 17.7355 25.4847 18.522ZM24.5532 22.5L30.2299 20.043L26.7199 26.478V18.522L30.2299 24.957L24.5532 22.5Z" fill="white"/>
</g>
<defs>
<clipPath id="clip0_45_17322">
<rect width="45" height="45" fill="white"/>
</clipPath>
</defs>
</svg>
