<svg width="45" height="45" viewBox="0 0 45 45" fill="none" xmlns="http://www.w3.org/2000/svg">
<g clip-path="url(#clip0_45_17335)">
<path fill-rule="evenodd" clip-rule="evenodd" d="M0 0H14.9977V45H0V0Z" fill="#00319C"/>
<path fill-rule="evenodd" clip-rule="evenodd" d="M14.9961 0H30.0008V45H14.9961V0Z" fill="#FFDE00"/>
<path fill-rule="evenodd" clip-rule="evenodd" d="M30.0039 0H45.0016V45H30.0039V0Z" fill="#DE2110"/>
<path fill-rule="evenodd" clip-rule="evenodd" d="M25.3398 30.0376L27.0414 33.3188C27.1398 33.5063 27.2312 33.6845 27.0906 33.8063C26.95 33.9282 26.9922 34.4063 27.0906 34.5938C27.2805 34.9595 27.5125 35.0157 27.6531 34.8938L28.9469 33.8063C29.0875 33.6938 29.1367 33.3845 28.9469 33.0188C28.8414 32.8313 28.525 32.597 28.3844 32.7188C28.2367 32.8407 28.1383 32.6532 28.0469 32.4751L26.3383 29.1938" fill="#FF1900"/>
<path fill-rule="evenodd" clip-rule="evenodd" d="M26.3592 29.1748L28.0679 32.4562C28.1143 32.5466 28.1594 32.6328 28.2099 32.6828C28.2346 32.7072 28.2593 32.7216 28.2848 32.7242C28.31 32.7268 28.3387 32.7182 28.3719 32.6908C28.4136 32.6548 28.4662 32.6468 28.5203 32.655C28.5747 32.6633 28.6333 32.6883 28.6897 32.7226C28.8021 32.791 28.9114 32.8995 28.9673 32.9988L28.9678 32.9998C29.1612 33.3723 29.1189 33.7069 28.9605 33.834L27.6672 34.921C27.6672 34.9211 27.6672 34.9211 27.6671 34.9212C27.5107 35.0565 27.2649 34.9854 27.0711 34.6123C27.0184 34.5117 26.9825 34.3385 26.9771 34.1766C26.9744 34.0951 26.9793 34.0142 26.9946 33.9449C27.0098 33.8758 27.036 33.8148 27.0779 33.7785C27.1097 33.751 27.1261 33.7223 27.1336 33.6939C27.1411 33.6654 27.1406 33.6331 27.1327 33.5958C27.1165 33.5191 27.072 33.4326 27.022 33.3373L27.0219 33.3372L25.3203 30.0559L25.3608 30.0186L27.0623 33.2997C27.0623 33.2997 27.0623 33.2997 27.0623 33.2997C27.1107 33.3919 27.1611 33.4883 27.1801 33.578C27.1898 33.6239 27.1919 33.6707 27.18 33.7157C27.1682 33.7608 27.1433 33.8001 27.1047 33.8335C27.0763 33.8582 27.0551 33.9026 27.0418 33.9634C27.0285 34.0238 27.0237 34.097 27.0263 34.1737C27.0314 34.3282 27.0659 34.4878 27.1115 34.5747L27.1116 34.5748C27.2974 34.9328 27.5156 34.9742 27.6404 34.866L27.6407 34.8658L28.9349 33.7779C29.0575 33.6798 29.1135 33.3961 28.9276 33.0377C28.878 32.9497 28.7764 32.8475 28.6693 32.7824C28.6159 32.7499 28.5624 32.7275 28.5147 32.7202C28.4667 32.7129 28.427 32.7213 28.3985 32.746L28.398 32.7464C28.3575 32.7799 28.3186 32.7935 28.281 32.7896C28.2437 32.7858 28.2104 32.765 28.1806 32.7355C28.1221 32.6777 28.0724 32.5811 28.0273 32.4934C28.0273 32.4934 28.0273 32.4933 28.0273 32.4933L26.3188 29.2122L26.3592 29.1748Z" fill="black"/>
<path fill-rule="evenodd" clip-rule="evenodd" d="M26.0079 27.7245C26.7689 28.8771 27.0337 30.1986 26.5999 30.6635C26.1662 31.1284 25.1896 30.5699 24.4286 29.4173C23.6675 28.2647 23.4065 26.9393 23.8403 26.4743C24.274 26.0094 25.2475 26.5632 26.0116 27.7205L26.0079 27.7245Z" fill="#A77B3B"/>
<path fill-rule="evenodd" clip-rule="evenodd" d="M23.7444 27.6695C23.8479 28.1895 24.0983 28.7987 24.4741 29.3679C24.8499 29.9371 25.2773 30.3567 25.6608 30.5766C26.0487 30.799 26.371 30.807 26.5601 30.6043C26.7493 30.4016 26.7983 29.9956 26.6927 29.4706C26.5883 28.9515 26.337 28.3433 25.9611 27.774L25.922 27.7147L25.9254 27.7111C25.5578 27.1695 25.1468 26.7712 24.777 26.5595C24.3896 26.3378 24.068 26.3308 23.8788 26.5336C23.6896 26.7364 23.6397 27.1435 23.7444 27.6695ZM26.0923 27.7347L26.0963 27.7304L26.0572 27.6711C25.6705 27.0854 25.229 26.6495 24.8258 26.4187C24.427 26.1904 24.0451 26.153 23.8005 26.4151C23.5559 26.6772 23.5194 27.1653 23.6271 27.7064C23.7359 28.2536 23.9965 28.8834 24.3818 29.4668C24.7669 30.0501 25.2084 30.4861 25.6119 30.7174C26.0109 30.9462 26.3938 30.985 26.6384 30.7228C26.8831 30.4606 26.9186 29.9734 26.8099 29.4333C26.7039 28.9057 26.4562 28.301 26.0923 27.7347Z" fill="black"/>
<path fill-rule="evenodd" clip-rule="evenodd" d="M18.4221 28.6968L16.9104 32.1374C16.826 32.3249 16.7417 32.5124 16.594 32.4187C16.4464 32.3062 16.1299 32.578 16.0456 32.7749C15.8768 33.1499 15.9401 33.4499 16.0948 33.5624L17.4448 34.5187C17.5854 34.6218 17.8245 34.5374 17.9932 34.1624C18.0706 33.9562 18.0917 33.478 17.944 33.3749C17.7964 33.2718 17.8737 33.0749 17.9651 32.8874L19.4698 29.4468" fill="#FF1900"/>
<path fill-rule="evenodd" clip-rule="evenodd" d="M16.8885 32.1205L18.4001 28.6802L18.4426 28.7133L16.9309 32.154L16.9307 32.1543L16.9293 32.1574C16.8882 32.2488 16.8444 32.3462 16.7914 32.4081C16.7641 32.4401 16.7331 32.4642 16.6975 32.4729C16.6617 32.4816 16.6235 32.4742 16.5827 32.4483L16.5818 32.4477L16.581 32.4471C16.5511 32.4244 16.5103 32.4194 16.4616 32.4314C16.4131 32.4434 16.3596 32.4714 16.3071 32.5096C16.2012 32.5864 16.1053 32.6999 16.0662 32.7912L16.0659 32.7918C15.9836 32.9746 15.9594 33.1359 15.9725 33.2626C15.9856 33.3888 16.0357 33.4825 16.1057 33.5335C16.1057 33.5335 16.1058 33.5336 16.1058 33.5336L17.4559 34.4899C17.5798 34.5808 17.8056 34.5129 17.9709 34.1466C18.007 34.0494 18.031 33.8847 18.0276 33.7309C18.0259 33.6541 18.0174 33.5821 18.001 33.5239C17.9847 33.4656 17.9614 33.4246 17.9318 33.404C17.8912 33.3756 17.8638 33.339 17.8489 33.295C17.8342 33.2512 17.8332 33.2038 17.84 33.1566C17.8533 33.0641 17.898 32.9632 17.9434 32.8702L19.4478 29.4302L19.4903 29.4633L17.9853 32.9046L17.985 32.9053C17.939 32.9996 17.8996 33.0906 17.8883 33.169C17.8828 33.2073 17.8844 33.2401 17.8938 33.2681C17.9032 33.2959 17.9215 33.3227 17.9547 33.3458C17.9989 33.3767 18.0284 33.4342 18.0471 33.5009C18.066 33.5679 18.075 33.6476 18.0768 33.729C18.0804 33.891 18.0554 34.0679 18.0145 34.1771L18.014 34.1782L18.0136 34.1793C17.8414 34.5618 17.5895 34.6626 17.4323 34.5475C17.4323 34.5475 17.4322 34.5474 17.4322 34.5474L16.0825 33.5914L16.0822 33.5912C15.9976 33.5296 15.9388 33.4171 15.9237 33.2716C15.9087 33.1265 15.9372 32.9503 16.0236 32.7583C16.0689 32.6527 16.1733 32.532 16.2835 32.4519C16.3391 32.4116 16.3976 32.3804 16.4526 32.3669C16.507 32.3535 16.5608 32.3566 16.6046 32.3895C16.6373 32.41 16.6647 32.4142 16.6887 32.4083C16.7131 32.4024 16.7361 32.3855 16.7589 32.3588C16.8055 32.3044 16.8457 32.2158 16.8885 32.1207C16.8885 32.1206 16.8885 32.1206 16.8885 32.1205Z" fill="black"/>
<path fill-rule="evenodd" clip-rule="evenodd" d="M23.2883 26.3063H21.9102C21.868 26.3625 21.4742 29.6438 21.0523 30.9C20.5391 32.4282 18.9992 33.7782 18.9992 33.7782C18.9992 33.7782 19.9203 34.1532 20.1945 34.3969C20.2648 34.3688 21.7414 33.9563 21.9102 31.5563C22.0789 33.9563 20.8836 35.0532 20.8836 35.0532C20.8836 35.0532 22.5992 35.7094 22.5992 37.2375C22.5992 35.7094 24.3148 35.0532 24.3148 35.0532C24.3148 35.0532 23.457 33.9563 23.2812 31.5563C23.6328 33.9563 24.9336 34.3688 25.0039 34.3969C25.2781 34.1532 26.1992 33.7782 26.1992 33.7782C26.1992 33.7782 24.6594 32.4282 24.1461 30.9C23.7242 29.6438 23.3305 26.3625 23.2883 26.3063ZM17.4523 15.3657L20.0258 16.4625C20.8766 16.4625 21.7414 15.3657 21.7414 14.2688C21.7695 11.8313 21.0523 10.9875 20.8836 10.9875L21.2211 10.5563L20.7078 9.90003C20.7078 9.90003 20.8836 8.76566 22.5992 8.80316C24.3148 8.85003 24.3148 9.90003 24.3148 10.9875C24.3148 12.075 23.457 12.0844 23.457 14.2688C23.457 15.3657 24.3148 16.4625 25.1727 16.4625L27.7461 15.3657V26.3063H17.4453V15.3657H17.4523Z" fill="#A77B3B"/>
<path fill-rule="evenodd" clip-rule="evenodd" d="M20.7747 9.87629L21.3067 10.5564L20.9941 10.9558C20.9959 10.9571 20.9977 10.9585 20.9994 10.9598C21.0402 10.9916 21.0857 11.0384 21.1336 11.1004C21.2295 11.2245 21.3378 11.4136 21.4388 11.678C21.6409 12.2072 21.8145 13.0407 21.8004 14.2695C21.8002 14.8451 21.574 15.4128 21.2432 15.8347C20.9121 16.2569 20.469 16.5423 20.025 16.5423H20.0157L17.5043 15.4719V26.2267H27.6855V15.4749L25.1812 16.5423H25.1719C24.7244 16.5423 24.2813 16.2569 23.951 15.8346C23.6209 15.4124 23.3965 14.8444 23.3965 14.2689C23.3965 13.1588 23.6154 12.5947 23.8361 12.1714C23.875 12.0967 23.9132 12.0275 23.9497 11.9614C24.1205 11.6518 24.2543 11.4094 24.2543 10.9876C24.2543 10.437 24.2522 9.93092 24.0508 9.55122C23.853 9.17822 23.4486 8.90621 22.5973 8.88293C21.7495 8.86442 21.2916 9.1355 21.047 9.39956C20.9244 9.53191 20.8536 9.66421 20.8138 9.76164C20.7942 9.8095 20.782 9.84908 20.7747 9.87629ZM23.244 26.3861H21.9529C21.9483 26.4109 21.9427 26.444 21.9362 26.485C21.9206 26.5818 21.9003 26.7189 21.8755 26.8866C21.8707 26.9194 21.8657 26.9534 21.8605 26.9885C21.813 27.3112 21.752 27.7252 21.6813 28.1698C21.5251 29.1525 21.3201 30.2955 21.1061 30.9327C20.8441 31.7128 20.3228 32.4416 19.8721 32.972C19.6459 33.2381 19.436 33.456 19.2826 33.6075C19.2239 33.6655 19.1734 33.7138 19.1334 33.7513C19.1434 33.7556 19.154 33.7601 19.165 33.7648C19.256 33.8039 19.3802 33.8586 19.5131 33.9211C19.6459 33.9834 19.7879 34.0537 19.9143 34.1239C20.0272 34.1867 20.1306 34.251 20.2039 34.3111C20.3038 34.2761 20.636 34.1518 20.9784 33.8028C21.3654 33.4084 21.7672 32.7248 21.8499 31.5489H21.9689C22.0547 32.7691 21.7936 33.6609 21.5096 34.248C21.3678 34.5412 21.2205 34.758 21.1084 34.9018C21.0702 34.9507 21.0361 34.9912 21.0076 35.0235C21.052 35.0439 21.1082 35.0713 21.173 35.1056C21.336 35.1922 21.5538 35.324 21.7722 35.5047C22.1108 35.785 22.4615 36.1927 22.5984 36.7431C22.7354 36.1927 23.0861 35.785 23.4247 35.5047C23.643 35.324 23.8609 35.1922 24.0239 35.1056C24.0972 35.0667 24.1596 35.0368 24.2062 35.0157C24.1851 34.9834 24.1594 34.9428 24.1304 34.8938C24.0453 34.7503 23.9307 34.5345 23.8108 34.2432C23.5708 33.6603 23.3097 32.7758 23.221 31.5641L23.3391 31.5411C23.5121 32.722 23.9174 33.4088 24.2848 33.8041C24.6065 34.1503 24.9013 34.2754 24.9935 34.3106C25.0668 34.2507 25.17 34.1865 25.2826 34.1239C25.4089 34.0537 25.5509 33.9834 25.6838 33.9211C25.8167 33.8586 25.9409 33.8039 26.0319 33.7648C26.0429 33.7601 26.0535 33.7556 26.0635 33.7513C26.0235 33.7138 25.973 33.6655 25.9143 33.6075C25.7608 33.456 25.5509 33.2381 25.3248 32.972C24.8741 32.4416 24.3528 31.7128 24.0908 30.9327C23.8768 30.2955 23.6717 29.1525 23.5156 28.1698C23.4449 27.7252 23.3839 27.3112 23.3364 26.9885C23.3312 26.9534 23.3262 26.9194 23.3214 26.8866C23.2966 26.7189 23.2762 26.5818 23.2607 26.485C23.2541 26.444 23.2486 26.4109 23.244 26.3861ZM24.3555 34.9958L24.4304 35.0916L24.3304 35.1299L24.3296 35.1302L24.3262 35.1316C24.3231 35.1328 24.3185 35.1346 24.3124 35.1371C24.3003 35.1421 24.2823 35.1497 24.2593 35.16C24.2133 35.1805 24.1474 35.2116 24.0681 35.2537C23.9094 35.338 23.6984 35.4658 23.4878 35.6401C23.0631 35.9917 22.6582 36.517 22.6582 37.2376H22.5387C22.5387 36.517 22.1338 35.9917 21.7091 35.6401C21.4985 35.4658 21.2874 35.338 21.1288 35.2537C21.0495 35.2116 20.9836 35.1805 20.9376 35.16C20.9146 35.1497 20.8966 35.1421 20.8844 35.1371C20.8784 35.1346 20.8737 35.1328 20.8707 35.1316L20.8673 35.1302L20.8665 35.1299L20.8663 35.1298L20.7446 35.0833L20.8489 34.9877L20.8489 34.9876L20.8494 34.9872L20.8515 34.9852C20.8535 34.9833 20.8565 34.9804 20.8606 34.9764C20.8687 34.9683 20.8808 34.956 20.8964 34.9393C20.9275 34.906 20.9722 34.8553 21.0255 34.7869C21.1322 34.6501 21.2732 34.4427 21.4091 34.1616C21.6162 33.7335 21.8121 33.1335 21.8565 32.3492C21.6847 33.1121 21.3649 33.6095 21.0509 33.9295C20.6729 34.3147 20.3046 34.4411 20.2247 34.4685C20.2181 34.4707 20.2134 34.4723 20.2109 34.4733L20.184 34.4841L20.1606 34.4633C20.0972 34.407 19.9928 34.3403 19.8683 34.271C19.7448 34.2024 19.6051 34.1332 19.4734 34.0714C19.3418 34.0096 19.2186 33.9553 19.1283 33.9165C19.0832 33.8971 19.0463 33.8816 19.0207 33.8709C19.0079 33.8656 18.998 33.8614 18.9912 33.8587L18.9835 33.8555L18.9816 33.8547L18.9811 33.8545L18.981 33.8545L18.8593 33.8049L18.9656 33.7117L18.9658 33.7115L18.9666 33.7108L18.9697 33.708C18.9726 33.7055 18.9768 33.7017 18.9824 33.6967C18.9936 33.6866 19.0102 33.6715 19.0315 33.6518C19.0742 33.6123 19.1358 33.5541 19.2115 33.4794C19.3628 33.33 19.57 33.1149 19.793 32.8525C20.2405 32.3259 20.7458 31.6156 20.997 30.8676C21.2049 30.2485 21.4077 29.1228 21.5644 28.1367C21.6348 27.6934 21.6957 27.2805 21.7432 26.9577C21.7484 26.9227 21.7534 26.8887 21.7582 26.8558C21.7829 26.6884 21.8035 26.5501 21.8193 26.4517C21.8231 26.4276 21.8267 26.4056 21.8301 26.3861H17.3848V15.2861H17.4609L20.0342 16.3829C20.438 16.379 20.8489 16.1169 21.1605 15.7195C21.4747 15.3189 21.6809 14.79 21.6809 14.2689V14.2677C21.6948 13.0593 21.5239 12.2523 21.3323 11.7503C21.2364 11.4991 21.1355 11.3249 21.0504 11.2147C21.0077 11.1595 20.9698 11.1213 20.9391 11.0974C20.9067 11.0722 20.8881 11.0673 20.8828 11.0673H20.7341L21.1339 10.5564L20.6418 9.92715L20.6485 9.884L20.707 9.90013C20.6485 9.884 20.6485 9.88393 20.6485 9.88384L20.6486 9.88366L20.6486 9.8832L20.6488 9.88199C20.649 9.88104 20.6492 9.87982 20.6495 9.87833C20.65 9.87536 20.6508 9.87134 20.6518 9.86633C20.6538 9.85631 20.657 9.84236 20.6616 9.82503C20.6707 9.79039 20.6855 9.74226 20.7088 9.6853C20.7555 9.5712 20.836 9.42225 20.9718 9.27569C21.2439 8.98195 21.7317 8.70461 22.5994 8.72358L22.5997 8.72358C23.4639 8.7472 23.9174 9.02361 24.1484 9.45919C24.3739 9.88424 24.3738 10.4407 24.3738 10.9732V10.9876C24.3738 11.4658 24.2138 11.7542 24.0406 12.0666C24.0053 12.1303 23.9694 12.195 23.9342 12.2624C23.726 12.6618 23.516 13.1946 23.516 14.2689C23.516 14.7902 23.7205 15.3191 24.0338 15.7196C24.3445 16.1169 24.7553 16.379 25.1627 16.3829L27.8051 15.2566V26.3861H23.3668C23.3701 26.4056 23.3737 26.4276 23.3776 26.4517C23.3934 26.5501 23.4139 26.6884 23.4386 26.8558C23.4435 26.8887 23.4485 26.9227 23.4537 26.9578C23.5012 27.2806 23.562 27.6934 23.6325 28.1367C23.7892 29.1228 23.992 30.2485 24.1999 30.8676C24.4511 31.6156 24.9564 32.3259 25.4039 32.8525C25.6269 33.1149 25.834 33.33 25.9854 33.4794C26.061 33.5541 26.1227 33.6123 26.1654 33.6518C26.1867 33.6715 26.2033 33.6866 26.2145 33.6967C26.22 33.7017 26.2243 33.7055 26.2271 33.708L26.2303 33.7108L26.2311 33.7115L26.2312 33.7116L26.3376 33.8049L26.2159 33.8545L26.2157 33.8545L26.2153 33.8547L26.2133 33.8555L26.2057 33.8587C26.1989 33.8614 26.189 33.8656 26.1762 33.8709C26.1506 33.8816 26.1137 33.8971 26.0686 33.9165C25.9783 33.9553 25.8551 34.0096 25.7235 34.0714C25.5917 34.1332 25.4521 34.2024 25.3286 34.271C25.204 34.3403 25.0997 34.407 25.0363 34.4633L25.0129 34.4841L24.986 34.4733C24.9839 34.4725 24.9807 34.4713 24.9765 34.4698C24.9087 34.4446 24.5748 34.3209 24.2097 33.9282C23.9556 33.6548 23.6877 33.2524 23.4827 32.6656C23.601 33.2985 23.7632 33.7964 23.9156 34.1665C24.032 34.4494 24.1429 34.6578 24.2242 34.795C24.2648 34.8635 24.2981 34.9143 24.321 34.9476C24.3324 34.9643 24.3412 34.9766 24.3471 34.9846C24.35 34.9886 24.3522 34.9915 24.3536 34.9934L24.3551 34.9954L24.3555 34.9958ZM20.7655 9.91664C20.7655 9.91671 20.7655 9.9167 20.7655 9.91664V9.91664Z" fill="black"/>
<path fill-rule="evenodd" clip-rule="evenodd" d="M21.7387 15.7837L21.9114 16.4471L22.255 15.789L22.4211 16.4756L22.596 15.7864L22.8501 16.4817L23.1123 15.7868L23.2826 16.4414L23.4503 15.8014L23.4595 15.8058L23.2826 16.4813L23.1106 15.8204L22.85 16.5112L22.5976 15.8208L22.4209 16.5173L22.2517 15.8182L21.9084 16.4756L21.7387 15.8235L21.5664 16.4813L21.3906 15.8057L21.3999 15.8015L21.5664 16.4414L21.7387 15.7837Z" fill="black"/>
<path fill-rule="evenodd" clip-rule="evenodd" d="M21.7344 15.8073L22.0784 13.3999L22.0877 13.4023L21.7437 15.8097L21.7344 15.8073ZM23.1054 15.8091L22.9358 13.4017L22.9453 13.4005L23.1148 15.8079L23.1054 15.8091ZM23.4494 15.8091L23.2798 13.4017L23.2893 13.4005L23.4588 15.8079L23.4494 15.8091ZM22.2478 15.8085V13.4011H22.2573V15.8085H22.2478ZM22.5918 15.8085V13.4011H22.6013V15.8085H22.5918Z" fill="black"/>
<path fill-rule="evenodd" clip-rule="evenodd" d="M15.7273 8.80859C14.0122 9.90118 14.0122 12.0925 14.0122 13.1851C14.0703 14.1789 14.0122 35.0553 14.0122 35.0553C14.0122 35.0553 14.1236 33.8207 14.8697 32.8701L15.7224 31.7775L16.58 30.6849C17.2098 29.9565 17.4375 28.4936 17.4375 27.401V12.0925C17.4375 12.0925 17.4375 10.9938 15.7224 8.80859H15.7273Z" fill="#A77B3B"/>
<path fill-rule="evenodd" clip-rule="evenodd" d="M15.7366 8.78783L15.7267 8.72949H15.5742L15.6214 8.78961C13.9524 9.92009 13.9524 12.1057 13.9524 13.1804V13.188L13.9525 13.1911C13.9668 13.4356 13.9742 14.9219 13.9769 17.0215C13.9796 19.1183 13.9778 21.8209 13.9742 24.4925C13.9705 27.1642 13.9651 29.8047 13.9605 31.7774C13.9583 32.7637 13.9562 33.5831 13.9547 34.1558C13.954 34.4422 13.9534 34.667 13.953 34.8201L13.9524 35.0546C13.9524 35.0547 13.9524 35.0548 14.0116 35.0551L13.9524 35.0548L14.0699 35.0645C14.0703 35.0646 14.0703 35.0646 14.0703 35.0646L14.0704 35.0641L14.0706 35.0618C14.0708 35.0598 14.0711 35.0565 14.0716 35.0522C14.0725 35.0435 14.074 35.0305 14.0762 35.0133C14.0805 34.979 14.0876 34.9285 14.0984 34.8647C14.12 34.7371 14.1565 34.5567 14.2159 34.3469C14.3349 33.927 14.5451 33.3919 14.91 32.927L14.9101 32.9268L15.7627 31.8344L15.7628 31.8343L16.6192 30.7431C16.9452 30.3655 17.1637 29.8027 17.3009 29.2024C17.4386 28.6005 17.4961 27.9537 17.4961 27.4008V12.0923H17.4369C17.4961 12.0923 17.4961 12.0923 17.4961 12.0922L17.4961 12.092L17.4961 12.0915L17.4961 12.0903C17.4961 12.0893 17.496 12.0881 17.496 12.0866C17.4959 12.0836 17.4958 12.0795 17.4956 12.0743C17.495 12.0641 17.4941 12.0495 17.4922 12.0307C17.4886 11.993 17.4814 11.9383 17.4674 11.8666C17.4394 11.7232 17.3841 11.512 17.275 11.2333C17.0569 10.676 16.6237 9.84832 15.7627 8.75136L15.7366 8.78783ZM15.7122 8.90551C14.0747 9.98239 14.0708 12.0945 14.0708 13.1819C14.0854 13.4433 14.0926 14.9356 14.0953 17.0213C14.098 19.1183 14.0962 21.8212 14.0926 24.4928C14.0889 27.1645 14.0835 29.8052 14.0789 31.7779C14.0767 32.7642 14.0746 33.5836 14.0731 34.1564C14.0729 34.248 14.0727 34.3332 14.0725 34.4119C14.0826 34.3728 14.0934 34.3325 14.1052 34.2911C14.2284 33.8561 14.447 33.2986 14.8281 32.8129C14.8282 32.8129 14.8282 32.8129 14.8282 32.8129" fill="black"/>
<path fill-rule="evenodd" clip-rule="evenodd" d="M16.5851 11.9824L15.7271 13.0756L14.8695 11.983L13.9711 13.1277L14.0529 13.2418L14.8695 12.2014L15.7271 13.294L16.5842 12.2019C16.6068 12.2314 16.6378 12.2717 16.6746 12.3195C16.7535 12.4219 16.8589 12.5586 16.965 12.6952C17.071 12.8319 17.1778 12.9687 17.2594 13.0714C17.3001 13.1228 17.3348 13.1659 17.3601 13.1964C17.3726 13.2115 17.3833 13.2241 17.3915 13.2332C17.3954 13.2375 17.3996 13.242 17.4034 13.2457C17.4052 13.2475 17.4081 13.2501 17.4115 13.2527C17.4132 13.254 17.4161 13.256 17.4198 13.258C17.4223 13.2593 17.4308 13.2637 17.4422 13.2637V13.1058C17.4532 13.1058 17.4613 13.1101 17.4634 13.1112C17.4666 13.1129 17.4688 13.1145 17.4698 13.1153C17.4718 13.1168 17.4729 13.1179 17.4726 13.1176C17.4721 13.1171 17.4705 13.1155 17.4672 13.1119C17.461 13.1049 17.4517 13.094 17.4395 13.0793C17.4152 13.05 17.3812 13.0078 17.3407 12.9567C17.2596 12.8546 17.1532 12.7183 17.0473 12.5817C16.9414 12.4453 16.8361 12.3088 16.7572 12.2064C16.7178 12.1552 16.685 12.1125 16.662 12.0827L16.6261 12.0358C16.626 12.0358 16.626 12.0358 16.5846 12.0922L16.6261 12.0358L16.5851 11.9824Z" fill="black"/>
<path fill-rule="evenodd" clip-rule="evenodd" d="M16.5851 15.4771L15.7271 14.3839L14.8695 15.4765L13.9711 14.3318L14.0529 14.2176L14.8695 15.2581L15.7271 14.1655L16.5842 15.2575C16.6068 15.2281 16.6378 15.1877 16.6746 15.14C16.7535 15.0375 16.8589 14.9009 16.965 14.7642C17.071 14.6276 17.1778 14.4908 17.2594 14.388C17.3001 14.3367 17.3348 14.2936 17.3601 14.2631C17.3726 14.248 17.3833 14.2354 17.3915 14.2263C17.3954 14.2219 17.3996 14.2175 17.4034 14.2138C17.4052 14.212 17.4081 14.2093 17.4115 14.2068C17.4132 14.2055 17.4161 14.2035 17.4198 14.2015C17.4223 14.2001 17.4308 14.1958 17.4422 14.1958V14.3536C17.4532 14.3536 17.4613 14.3494 17.4634 14.3483C17.4666 14.3466 17.4688 14.3449 17.4698 14.3442C17.4718 14.3427 17.4729 14.3416 17.4726 14.3419C17.4721 14.3423 17.4705 14.344 17.4672 14.3476C17.461 14.3546 17.4517 14.3654 17.4395 14.3802C17.4152 14.4095 17.3812 14.4517 17.3407 14.5028C17.2596 14.6049 17.1532 14.7412 17.0473 14.8777C16.9414 15.0142 16.8361 15.1507 16.7572 15.2531C16.7178 15.3043 16.685 15.347 16.662 15.3768L16.6261 15.4237C16.626 15.4237 16.626 15.4237 16.5846 15.3673L16.6261 15.4237L16.5851 15.4771Z" fill="black"/>
<path fill-rule="evenodd" clip-rule="evenodd" d="M16.5851 16.3511L15.7271 17.4443L14.8695 16.3517L13.9711 17.4964L14.0529 17.6105L14.8695 16.57L15.7271 17.6626L16.5842 16.5706C16.6068 16.6001 16.6378 16.6404 16.6746 16.6881C16.7535 16.7906 16.8589 16.9272 16.965 17.0639C17.071 17.2005 17.1778 17.3373 17.2594 17.4401C17.3001 17.4914 17.3348 17.5346 17.3601 17.565C17.3726 17.5802 17.3833 17.5928 17.3915 17.6018C17.3954 17.6062 17.3996 17.6107 17.4034 17.6144C17.4052 17.6161 17.4081 17.6188 17.4115 17.6213C17.4132 17.6226 17.4161 17.6247 17.4198 17.6266C17.4223 17.628 17.4308 17.6324 17.4422 17.6324V17.4745C17.4532 17.4745 17.4613 17.4788 17.4634 17.4798C17.4666 17.4815 17.4688 17.4832 17.4698 17.4839C17.4718 17.4855 17.4729 17.4866 17.4726 17.4862C17.4721 17.4858 17.4705 17.4841 17.4672 17.4805C17.461 17.4736 17.4517 17.4627 17.4395 17.4479C17.4152 17.4187 17.3812 17.3765 17.3407 17.3253C17.2596 17.2232 17.1532 17.0869 17.0473 16.9504C16.9414 16.8139 16.8361 16.6774 16.7572 16.575C16.7178 16.5238 16.685 16.4812 16.662 16.4513L16.6261 16.4045C16.626 16.4044 16.626 16.4044 16.5846 16.4609L16.6261 16.4045L16.5851 16.3511Z" fill="black"/>
<path fill-rule="evenodd" clip-rule="evenodd" d="M16.666 30.6855L16.6563 12.0894L16.4932 12.0895L16.5029 30.6856L16.666 30.6855Z" fill="black"/>
<path fill-rule="evenodd" clip-rule="evenodd" d="M15.8184 31.7335L15.8087 13.1826L15.6542 13.1828L15.6639 31.7336L15.8184 31.7335Z" fill="black"/>
<path fill-rule="evenodd" clip-rule="evenodd" d="M14.9648 32.8755L14.9552 12.0942L14.7916 12.0944L14.8013 32.8756L14.9648 32.8755Z" fill="black"/>
<path fill-rule="evenodd" clip-rule="evenodd" d="M29.4622 8.80859C31.1773 9.90118 31.1773 12.0925 31.1773 13.1851C31.1191 14.1789 31.1773 35.0553 31.1773 35.0553C31.1773 35.0553 31.0659 33.8207 30.3197 32.8701L29.467 31.7775L28.6095 30.6849C27.9797 29.9565 27.752 28.4936 27.752 27.401V12.0925C27.752 12.0925 27.752 10.9938 29.467 8.80859H29.4622Z" fill="#A77B3B"/>
<path fill-rule="evenodd" clip-rule="evenodd" d="M29.4529 8.78783L29.4628 8.72949H29.6153L29.5681 8.78961C31.2371 9.92009 31.2371 12.1057 31.2371 13.1804V13.188L31.2369 13.1911C31.2226 13.4356 31.2153 14.9219 31.2126 17.0215C31.2098 19.1183 31.2117 21.8209 31.2153 24.4925C31.2189 27.1642 31.2244 29.8047 31.2289 31.7774C31.2312 32.7637 31.2332 33.5831 31.2347 34.1558C31.2354 34.4422 31.236 34.667 31.2365 34.8201L31.2371 35.0546C31.2371 35.0547 31.2371 35.0548 31.1779 35.0551L31.2371 35.0548L31.1195 35.0645C31.1191 35.0646 31.1191 35.0646 31.1191 35.0646L31.1191 35.0641L31.1189 35.0618C31.1187 35.0598 31.1183 35.0565 31.1179 35.0522C31.1169 35.0435 31.1154 35.0305 31.1133 35.0133C31.1089 34.979 31.1019 34.9285 31.0911 34.8647C31.0695 34.7371 31.033 34.5567 30.9735 34.3469C30.8546 33.927 30.6444 33.3919 30.2794 32.927L30.2793 32.9268L29.4267 31.8344L29.4266 31.8343L28.5702 30.7431C28.2443 30.3655 28.0258 29.8027 27.8885 29.2024C27.7509 28.6005 27.6934 27.9537 27.6934 27.4008V12.0923H27.7526C27.6934 12.0923 27.6934 12.0923 27.6934 12.0922L27.6934 12.092L27.6934 12.0915L27.6934 12.0903C27.6934 12.0893 27.6934 12.0881 27.6934 12.0866C27.6935 12.0836 27.6937 12.0795 27.6939 12.0743C27.6944 12.0641 27.6954 12.0495 27.6972 12.0307C27.7009 11.993 27.7081 11.9383 27.7221 11.8666C27.7501 11.7232 27.8054 11.512 27.9145 11.2333C28.1325 10.676 28.5658 9.84832 29.4267 8.75136L29.4529 8.78783ZM29.4772 8.90551C31.1148 9.98239 31.1187 12.0945 31.1187 13.1819C31.104 13.4433 31.0969 14.9356 31.0942 17.0213C31.0914 19.1183 31.0933 21.8212 31.0969 24.4928C31.1005 27.1645 31.106 29.8052 31.1105 31.7779C31.1128 32.7642 31.1148 33.5836 31.1163 34.1564C31.1165 34.248 31.1168 34.3332 31.117 34.4119C31.1069 34.3728 31.096 34.3325 31.0843 34.2911C30.961 33.8561 30.7425 33.2986 30.3613 32.8129C30.3613 32.8129 30.3613 32.8129 30.3612 32.8129" fill="black"/>
<path fill-rule="evenodd" clip-rule="evenodd" d="M28.6043 11.9824L29.4624 13.0756L30.3199 11.983L31.2184 13.1277L31.1366 13.2418L30.3199 12.2014L29.4624 13.294L28.6053 12.2019C28.5826 12.2314 28.5516 12.2717 28.5149 12.3195C28.4359 12.4219 28.3305 12.5586 28.2245 12.6952C28.1184 12.8319 28.0117 12.9687 27.9301 13.0714C27.8894 13.1228 27.8547 13.1659 27.8294 13.1964C27.8168 13.2115 27.8061 13.2241 27.798 13.2332C27.794 13.2375 27.7899 13.242 27.786 13.2457C27.7842 13.2475 27.7813 13.2501 27.7779 13.2527C27.7762 13.254 27.7734 13.256 27.7697 13.258C27.7671 13.2593 27.7586 13.2637 27.7473 13.2637V13.1058C27.7362 13.1058 27.7281 13.1101 27.7261 13.1112C27.7229 13.1129 27.7206 13.1145 27.7196 13.1153C27.7176 13.1168 27.7165 13.1179 27.7169 13.1176C27.7173 13.1171 27.719 13.1155 27.7222 13.1119C27.7285 13.1049 27.7378 13.094 27.75 13.0793C27.7743 13.05 27.8082 13.0078 27.8488 12.9567C27.9298 12.8546 28.0362 12.7183 28.1422 12.5817C28.2481 12.4453 28.3534 12.3088 28.4322 12.2064C28.4717 12.1552 28.5045 12.1125 28.5274 12.0827L28.5634 12.0358C28.5634 12.0358 28.5634 12.0358 28.6048 12.0922L28.5634 12.0358L28.6043 11.9824Z" fill="black"/>
<path fill-rule="evenodd" clip-rule="evenodd" d="M28.6043 15.4771L29.4624 14.3839L30.3199 15.4765L31.2184 14.3318L31.1366 14.2176L30.3199 15.2581L29.4624 14.1655L28.6053 15.2575C28.5826 15.2281 28.5516 15.1877 28.5149 15.14C28.4359 15.0375 28.3305 14.9009 28.2245 14.7642C28.1184 14.6276 28.0117 14.4908 27.9301 14.388C27.8894 14.3367 27.8547 14.2936 27.8294 14.2631C27.8168 14.248 27.8061 14.2354 27.798 14.2263C27.794 14.2219 27.7899 14.2175 27.786 14.2138C27.7842 14.212 27.7813 14.2093 27.7779 14.2068C27.7762 14.2055 27.7734 14.2035 27.7697 14.2015C27.7671 14.2001 27.7586 14.1958 27.7473 14.1958V14.3536C27.7362 14.3536 27.7281 14.3494 27.7261 14.3483C27.7229 14.3466 27.7206 14.3449 27.7196 14.3442C27.7176 14.3427 27.7165 14.3416 27.7169 14.3419C27.7173 14.3423 27.719 14.344 27.7222 14.3476C27.7285 14.3546 27.7378 14.3654 27.75 14.3802C27.7743 14.4095 27.8082 14.4517 27.8488 14.5028C27.9298 14.6049 28.0362 14.7412 28.1422 14.8777C28.2481 15.0142 28.3534 15.1507 28.4322 15.2531C28.4717 15.3043 28.5045 15.347 28.5274 15.3768L28.5634 15.4237C28.5634 15.4237 28.5634 15.4237 28.6048 15.3673L28.5634 15.4237L28.6043 15.4771Z" fill="black"/>
<path fill-rule="evenodd" clip-rule="evenodd" d="M28.6043 16.3511L29.4624 17.4443L30.3199 16.3517L31.2184 17.4964L31.1366 17.6105L30.3199 16.57L29.4624 17.6626L28.6053 16.5706C28.5826 16.6001 28.5516 16.6404 28.5149 16.6881C28.4359 16.7906 28.3305 16.9272 28.2245 17.0639C28.1184 17.2005 28.0117 17.3373 27.9301 17.4401C27.8894 17.4914 27.8547 17.5346 27.8294 17.565C27.8168 17.5802 27.8061 17.5928 27.798 17.6018C27.794 17.6062 27.7899 17.6107 27.786 17.6144C27.7842 17.6161 27.7813 17.6188 27.7779 17.6213C27.7762 17.6226 27.7734 17.6247 27.7697 17.6266C27.7671 17.628 27.7586 17.6324 27.7473 17.6324V17.4745C27.7362 17.4745 27.7281 17.4788 27.7261 17.4798C27.7229 17.4815 27.7206 17.4832 27.7196 17.4839C27.7176 17.4855 27.7165 17.4866 27.7169 17.4862C27.7173 17.4858 27.719 17.4841 27.7222 17.4805C27.7285 17.4736 27.7378 17.4627 27.75 17.4479C27.7743 17.4187 27.8082 17.3765 27.8488 17.3253C27.9298 17.2232 28.0362 17.0869 28.1422 16.9504C28.2481 16.8139 28.3534 16.6774 28.4322 16.575C28.4717 16.5238 28.5045 16.4812 28.5274 16.4513L28.5634 16.4045C28.5634 16.4044 28.5634 16.4044 28.6048 16.4609L28.5634 16.4045L28.6043 16.3511Z" fill="black"/>
<path fill-rule="evenodd" clip-rule="evenodd" d="M28.5234 30.6855L28.5331 12.0894L28.6962 12.0895L28.6865 30.6856L28.5234 30.6855Z" fill="black"/>
<path fill-rule="evenodd" clip-rule="evenodd" d="M29.3789 31.7335L29.3886 13.1826L29.5431 13.1828L29.5334 31.7336L29.3789 31.7335Z" fill="black"/>
<path fill-rule="evenodd" clip-rule="evenodd" d="M30.2324 32.8755L30.2421 12.0942L30.4056 12.0944L30.3959 32.8756L30.2324 32.8755Z" fill="black"/>
<path fill-rule="evenodd" clip-rule="evenodd" d="M20.3394 28.3939C19.8848 29.7842 19.0846 30.6902 18.5614 30.4124C18.0381 30.1347 17.9796 28.7729 18.4343 27.3826C18.8889 25.9923 19.6936 25.0887 20.2168 25.3664C20.7401 25.6442 20.8004 27.0003 20.3439 28.3963L20.3394 28.3939Z" fill="#A77B3B"/>
<path fill-rule="evenodd" clip-rule="evenodd" d="M19.3385 25.8075C19.0236 26.163 18.7138 26.7256 18.4894 27.4118C18.2649 28.0981 18.1684 28.774 18.191 29.3087C18.2138 29.8489 18.3559 30.2184 18.5851 30.3401C18.8144 30.4618 19.1203 30.3301 19.4375 29.9704C19.7514 29.6143 20.0601 29.0511 20.2845 28.3647L20.3082 28.2924L20.3123 28.2945C20.521 27.6306 20.6101 26.9833 20.5881 26.4681C20.565 25.9288 20.4226 25.5606 20.1933 25.4388C19.9639 25.3171 19.6568 25.4483 19.3385 25.8075ZM20.3705 28.4953L20.3754 28.4979L20.399 28.4255C20.6302 27.7187 20.7317 27.0186 20.7077 26.4559C20.6839 25.8988 20.5345 25.4501 20.2406 25.2941C19.9467 25.1381 19.5898 25.3198 19.2613 25.6905C18.9295 26.065 18.6096 26.6493 18.3794 27.3534C18.1491 28.0574 18.0476 28.7575 18.0714 29.3208C18.095 29.8784 18.2438 30.3288 18.5378 30.4848C18.8318 30.6409 19.1876 30.4584 19.5149 30.0871C19.8343 29.7249 20.1424 29.1671 20.3705 28.4953Z" fill="black"/>
<path fill-rule="evenodd" clip-rule="evenodd" d="M17.4453 16.4624H27.7461V23.0249H17.4453V16.4624Z" fill="#FF0000"/>
<path fill-rule="evenodd" clip-rule="evenodd" d="M17.4445 23.0249H27.7453V26.3062C27.7453 28.4905 25.1719 28.4905 22.5984 30.6749C20.018 28.4999 17.4375 28.4999 17.4375 26.3062V23.0249H17.4445Z" fill="#564DFF"/>
<path fill-rule="evenodd" clip-rule="evenodd" d="M17.4004 16.3994H27.7953V26.3143C27.7953 26.8805 27.6277 27.3066 27.3376 27.6586C27.0498 28.0078 26.6412 28.2846 26.158 28.5584C25.9289 28.6882 25.6824 28.8178 25.4227 28.9543C24.5829 29.3957 23.6043 29.9101 22.6233 30.7441L22.5978 30.7657L22.5724 30.744C21.5935 29.9102 20.6156 29.3959 19.7757 28.9542C19.5157 28.8175 19.269 28.6877 19.0395 28.5576C18.5561 28.2834 18.147 28.0061 17.8588 27.6559C17.5683 27.3031 17.4004 26.8759 17.4004 26.3082V16.3994ZM17.4951 16.5257V26.3082C17.4951 26.8361 17.6493 27.2306 17.9226 27.5626C18.198 27.8972 18.5941 28.1677 19.0766 28.4414C19.3025 28.5695 19.5467 28.6979 19.8051 28.8338C20.6388 29.2722 21.6189 29.7876 22.5979 30.616C23.5789 29.7874 24.5596 29.272 25.3933 28.8338C25.6514 28.6982 25.8954 28.57 26.1209 28.4421C26.6031 28.1689 26.9988 27.899 27.2738 27.5652C27.5467 27.2341 27.7006 26.8407 27.7006 26.3143V16.5257H17.4951Z" fill="#FFFF00"/>
<path fill-rule="evenodd" clip-rule="evenodd" d="M20.7063 16.8994C20.7063 16.8994 18.9902 18.5081 18.9902 20.0472C18.9902 21.5862 20.7911 22.1022 20.7911 22.1022C20.7911 22.1022 20.1908 22.1022 20.1908 24.1543C20.1908 25.1832 21.9917 24.6702 21.9917 25.1832C21.9917 25.6963 21.9679 26.9368 21.9917 27.7513C21.9917 28.2643 20.7911 27.7513 20.7911 28.2643C20.7911 28.5194 21.6932 29.8034 22.5953 29.8034C23.4975 29.8034 24.3962 28.5194 24.3962 28.2643C24.3962 27.7513 23.1956 28.2643 23.1956 27.7513V25.1832C23.1956 24.6702 24.9965 25.1832 24.9965 24.1543C24.9965 22.1022 24.3962 22.1022 24.3962 22.1022C24.3962 22.1022 26.2005 21.5891 26.2005 20.0472C26.2005 18.5052 24.481 16.8994 24.481 16.8994C24.481 16.8994 25.4476 19.0211 25.4476 20.0472C25.4476 20.5602 24.9965 21.5891 23.7959 21.5891C23.7959 21.5891 23.4907 21.0732 23.1956 21.5891C23.1956 21.5891 22.8497 21.0732 22.5953 21.5891C22.5072 21.763 22.3512 21.0732 21.9917 21.5891C21.8424 21.7254 21.7204 21.0732 21.3914 21.5891C20.7911 21.5891 19.5905 21.0732 19.5905 20.0472C19.5905 19.0211 20.7063 16.8994 20.7063 16.8994Z" fill="#FFFF00"/>
<path fill-rule="evenodd" clip-rule="evenodd" d="M24.4527 16.9229L24.5012 16.8623L24.4817 16.8994L24.4527 16.9229ZM24.5256 22.1058C24.5704 22.0895 24.6259 22.068 24.6892 22.041C24.8596 21.9682 25.0872 21.855 25.3151 21.6928C25.7685 21.3701 26.2351 20.8448 26.2351 20.0471C26.2351 19.6507 26.1247 19.2532 25.9618 18.8819C25.7988 18.5104 25.5819 18.1622 25.3659 17.8636C25.1498 17.5648 24.9337 17.3147 24.7718 17.1392C24.6908 17.0515 24.6233 16.9824 24.576 16.9352C24.5523 16.9115 24.5337 16.8934 24.5209 16.8811C24.5146 16.875 24.5097 16.8703 24.5063 16.8671L24.5026 16.8636L24.5016 16.8626L24.5013 16.8624L24.5012 16.8623C24.5012 16.8623 24.5012 16.8623 24.4817 16.8994C24.4527 16.9229 24.4527 16.9229 24.4527 16.9229L24.4528 16.9229L24.4534 16.9243L24.4554 16.9289C24.4572 16.9329 24.4599 16.9388 24.4635 16.9467C24.4705 16.9624 24.4808 16.9856 24.494 17.0155C24.5203 17.0753 24.558 17.1619 24.6032 17.2691C24.6936 17.4835 24.8141 17.78 24.9345 18.1084C25.055 18.4368 25.1752 18.7965 25.2653 19.1374C25.3555 19.4793 25.4144 19.7984 25.4144 20.0471C25.4144 20.5294 24.9851 21.5349 23.8123 21.5438C23.811 21.5418 23.8096 21.5397 23.8081 21.5375C23.7986 21.5235 23.7847 21.5043 23.7672 21.4831C23.7323 21.4408 23.6818 21.3889 23.6205 21.354C23.5589 21.3189 23.4853 21.3003 23.4061 21.3276C23.3352 21.3521 23.2633 21.4122 23.1937 21.5214C23.1845 21.5098 23.1732 21.4963 23.16 21.4817C23.1221 21.4398 23.0679 21.3883 23.0045 21.3537C22.9409 21.3191 22.866 21.3002 22.7885 21.3277C22.7105 21.3553 22.6349 21.4281 22.5679 21.5639C22.5646 21.5702 22.5625 21.5723 22.562 21.5727C22.5619 21.5727 22.5619 21.5727 22.5619 21.5727C22.5589 21.5724 22.551 21.569 22.5353 21.5535C22.5231 21.5415 22.51 21.5263 22.4944 21.5082C22.4909 21.504 22.4872 21.4997 22.4834 21.4953C22.4634 21.4722 22.4406 21.4466 22.4151 21.4234C22.364 21.3771 22.2998 21.3386 22.222 21.351C22.1453 21.3632 22.0622 21.4236 21.9704 21.5542C21.96 21.5627 21.9512 21.5641 21.9425 21.5623C21.9315 21.56 21.9181 21.552 21.901 21.5365C21.8845 21.5217 21.8673 21.5026 21.8475 21.4806L21.8454 21.4782C21.8253 21.4558 21.8029 21.4311 21.7787 21.4092C21.7301 21.3654 21.6704 21.3297 21.5981 21.346C21.5297 21.3614 21.4572 21.4218 21.3767 21.5437C21.0821 21.5394 20.6462 21.4123 20.2821 21.1626C19.9101 20.9076 19.6252 20.5338 19.6252 20.0471C19.6252 19.7996 19.6928 19.4813 19.797 19.1394C19.9009 18.7987 20.0396 18.4392 20.1787 18.1107C20.3177 17.7824 20.4568 17.486 20.5612 17.2715C20.6133 17.1644 20.6568 17.0777 20.6872 17.0179C20.7024 16.988 20.7143 16.9648 20.7225 16.9492C20.7265 16.9413 20.7296 16.9353 20.7317 16.9313L20.7341 16.9268L20.7348 16.9254C20.7348 16.9254 20.7348 16.9254 20.707 16.8994C20.6875 16.8624 20.6875 16.8624 20.6875 16.8624L20.6874 16.8624L20.6872 16.8627L20.6862 16.8636L20.6824 16.8672C20.6791 16.8704 20.6742 16.875 20.6678 16.8812C20.6551 16.8935 20.6365 16.9117 20.6129 16.9353C20.5657 16.9826 20.4983 17.0518 20.4175 17.1397C20.2559 17.3153 20.0403 17.5658 19.8246 17.8647C19.6089 18.1635 19.3925 18.5118 19.2298 18.8831C19.0672 19.2543 18.957 19.6514 18.957 20.0471C18.957 20.8433 19.4228 21.3686 19.8754 21.6917C20.1028 21.854 20.33 21.9676 20.5001 22.0405C20.5633 22.0677 20.6187 22.0892 20.6635 22.1056C20.6054 22.1438 20.5347 22.2115 20.4649 22.3308C20.3082 22.5987 20.1576 23.1235 20.1576 24.1542C20.1576 24.2924 20.188 24.4067 20.242 24.5004C20.2956 24.5934 20.371 24.6637 20.4586 24.718C20.633 24.8261 20.8632 24.8749 21.0884 24.9072C21.1676 24.9185 21.246 24.9278 21.3216 24.9368C21.4636 24.9536 21.5958 24.9693 21.7051 24.9952C21.7886 25.0151 21.8543 25.0401 21.8983 25.0733C21.9414 25.1057 21.9585 25.1412 21.9585 25.1832C21.9585 25.3262 21.9566 25.5268 21.9544 25.7593C21.9489 26.3566 21.9414 27.165 21.9585 27.7521C21.9583 27.8019 21.9443 27.8371 21.9192 27.8646C21.8925 27.894 21.8517 27.916 21.7977 27.9314C21.6895 27.9623 21.5435 27.9625 21.3921 27.9625H21.3892C21.2413 27.9625 21.0884 27.9625 20.9723 27.9956C20.9138 28.0122 20.8608 28.0383 20.8218 28.081C20.7814 28.1255 20.7579 28.1863 20.7579 28.2643C20.7579 28.2882 20.763 28.3141 20.7706 28.34C20.7782 28.3664 20.7893 28.3955 20.8032 28.4267C20.8308 28.489 20.8708 28.5622 20.9209 28.6415C21.0212 28.8003 21.1639 28.9869 21.3347 29.1651C21.6755 29.5205 22.1339 29.8486 22.5961 29.8486C23.0583 29.8486 23.5159 29.5205 23.8558 29.1651C24.0262 28.9868 24.1684 28.8003 24.2684 28.6414C24.3184 28.5621 24.3582 28.4889 24.3858 28.4266C24.3996 28.3955 24.4106 28.3663 24.4183 28.3399C24.4258 28.3141 24.4309 28.2882 24.4309 28.2643C24.4309 28.1863 24.4074 28.1255 24.3669 28.081C24.328 28.0383 24.275 28.0122 24.2164 27.9956C24.1004 27.9625 23.9475 27.9625 23.7996 27.9625H23.7967C23.6453 27.9625 23.4993 27.9623 23.3911 27.9314C23.337 27.916 23.2963 27.894 23.2695 27.8646C23.2444 27.8369 23.2303 27.8015 23.2303 27.7512V25.1832C23.2303 25.1412 23.2474 25.1057 23.2904 25.0733C23.3345 25.0401 23.4002 25.0151 23.4837 24.9952C23.593 24.9693 23.7252 24.9536 23.8672 24.9368C23.9428 24.9278 24.0212 24.9185 24.1004 24.9072C24.3256 24.8749 24.5557 24.8261 24.7302 24.718C24.8178 24.6637 24.8932 24.5934 24.9468 24.5004C25.0008 24.4067 25.0312 24.2924 25.0312 24.1542C25.0312 23.1235 24.8806 22.5987 24.7239 22.3308C24.6541 22.2116 24.5836 22.144 24.5256 22.1058ZM24.3969 22.1467L24.3899 22.0579L24.3901 22.0578L24.391 22.0575L24.3947 22.0564C24.398 22.0555 24.403 22.054 24.4095 22.0519C24.4224 22.0479 24.4416 22.0417 24.466 22.0333C24.5148 22.0164 24.5846 21.9906 24.6685 21.9548C24.8364 21.8831 25.0599 21.7718 25.2831 21.6129C25.7318 21.2936 26.1673 20.7914 26.1673 20.0471C26.1673 19.6726 26.0627 19.2911 25.9032 18.9276C25.7439 18.5644 25.5309 18.222 25.317 17.9264C25.1033 17.631 24.8895 17.3833 24.729 17.2095C24.6788 17.1551 24.6339 17.108 24.5959 17.069C24.6154 17.1142 24.6378 17.1665 24.6623 17.2247C24.7532 17.4402 24.8743 17.7383 24.9955 18.0686C25.1166 18.3988 25.2381 18.7619 25.3293 19.1074C25.4203 19.4519 25.4822 19.7828 25.4822 20.0471C25.4822 20.5887 25.0132 21.6343 23.7967 21.6343H23.7802L23.77 21.6172L23.77 21.617L23.7695 21.6162C23.769 21.6154 23.7682 21.6142 23.7672 21.6126C23.7651 21.6093 23.762 21.6045 23.7578 21.5984C23.7495 21.5861 23.7372 21.569 23.7215 21.55C23.6899 21.5117 23.6457 21.4668 23.5938 21.4372C23.5422 21.4078 23.4842 21.3942 23.4231 21.4152C23.3621 21.4363 23.2937 21.4935 23.2234 21.6165L23.1985 21.6601L23.1711 21.6193L23.171 21.6191L23.1704 21.6183C23.1698 21.6175 23.169 21.6162 23.1678 21.6146C23.1654 21.6112 23.1619 21.6063 23.1572 21.6001C23.1478 21.5878 23.134 21.5706 23.1167 21.5514C23.0818 21.5127 23.0336 21.4674 22.9788 21.4375C22.9241 21.4077 22.8648 21.3943 22.8059 21.4152C22.7475 21.4359 22.6846 21.492 22.6244 21.614L22.6242 21.6144C22.6084 21.6456 22.5859 21.6656 22.5573 21.663C22.5334 21.6609 22.5119 21.643 22.4949 21.6263C22.4804 21.6119 22.4646 21.5936 22.4489 21.5754C22.4456 21.5714 22.4422 21.5675 22.4389 21.5637C22.4193 21.541 22.3989 21.5182 22.3769 21.4982C22.333 21.4584 22.2853 21.432 22.23 21.4408C22.1743 21.4497 22.1041 21.4953 22.0173 21.6199L22.0147 21.6236L22.0116 21.6264C21.986 21.6498 21.9591 21.6574 21.932 21.6518C21.9065 21.6465 21.8833 21.6299 21.8629 21.6115C21.8435 21.594 21.8239 21.5722 21.8051 21.5513L21.8019 21.5477C21.7816 21.5251 21.7616 21.5031 21.7406 21.4842C21.6989 21.4465 21.6571 21.4244 21.6094 21.4352C21.5606 21.4462 21.4978 21.4932 21.418 21.6184L21.4078 21.6343H21.3921C21.0864 21.6343 20.6309 21.5036 20.2511 21.2431C19.8727 20.9837 19.5573 20.5865 19.5573 20.0471C19.5573 19.7816 19.6291 19.4499 19.7342 19.1054C19.8395 18.7597 19.9797 18.3965 20.1196 18.0662C20.2595 17.7358 20.3994 17.4377 20.5042 17.2223C20.5262 17.1771 20.5466 17.1356 20.5652 17.0982C20.5338 17.1309 20.4986 17.1683 20.4604 17.2098C20.3002 17.3839 20.0868 17.6319 19.8735 17.9275C19.6601 18.2232 19.4475 18.5657 19.2884 18.9288C19.1292 19.2922 19.0249 19.6733 19.0249 20.0471C19.0249 20.79 19.4596 21.2922 19.9074 21.6119C20.1302 21.7709 20.3533 21.8825 20.5208 21.9544C20.6046 21.9903 20.6743 22.0162 20.723 22.0332C20.7474 22.0416 20.7665 22.0478 20.7794 22.0519C20.7859 22.054 20.7908 22.0555 20.7941 22.0564L20.7978 22.0575L20.7987 22.0578L20.7989 22.0579L20.7919 22.1467C20.7919 22.1474 20.7919 22.1474 20.7919 22.1474L20.7915 22.1474C20.7909 22.1474 20.7897 22.1475 20.788 22.1477C20.7846 22.1481 20.7792 22.1489 20.7722 22.1506C20.758 22.1541 20.737 22.1612 20.7114 22.1758C20.6604 22.2049 20.5899 22.2643 20.5185 22.3865C20.375 22.6316 20.2255 23.1328 20.2255 24.1542C20.2255 24.2733 20.2513 24.368 20.2958 24.4453C20.3407 24.5232 20.406 24.5856 20.4872 24.6359C20.6505 24.7371 20.8706 24.785 21.0956 24.8172C21.1715 24.8281 21.2482 24.8372 21.3231 24.8461C21.4674 24.8632 21.6049 24.8795 21.717 24.9061C21.8023 24.9264 21.8773 24.9535 21.9317 24.9945C21.9872 25.0362 22.0263 25.0969 22.0263 25.1832C22.0263 25.3281 22.0245 25.5302 22.0223 25.7639C22.0167 26.3611 22.0093 27.1649 22.0263 27.7495L22.0263 27.7504V27.7512C22.0263 27.8292 22.0029 27.89 21.9624 27.9345C21.9235 27.9772 21.8704 28.0033 21.8119 28.0199C21.6958 28.053 21.5429 28.053 21.3951 28.053H21.3921C21.2407 28.053 21.0948 28.0532 20.9865 28.0841C20.9325 28.0995 20.8917 28.1215 20.865 28.1509C20.8398 28.1786 20.8258 28.214 20.8258 28.2643C20.8258 28.2722 20.8277 28.2862 20.8338 28.3072C20.8398 28.3276 20.849 28.3522 20.8616 28.3806C20.8868 28.4373 20.9243 28.5063 20.9728 28.5832C21.0699 28.7369 21.2091 28.9191 21.3766 29.0938C21.7124 29.4442 22.1561 29.7581 22.5961 29.7581C23.036 29.7581 23.4789 29.4442 23.8139 29.0939C23.9809 28.9192 24.1197 28.7369 24.2164 28.5833C24.2648 28.5064 24.3022 28.4374 24.3273 28.3806C24.3399 28.3523 24.349 28.3277 24.355 28.3072C24.3611 28.2862 24.363 28.2723 24.363 28.2643C24.363 28.214 24.349 28.1786 24.3238 28.1509C24.297 28.1215 24.2563 28.0995 24.2023 28.0841C24.094 28.0532 23.948 28.053 23.7967 28.053H23.7937C23.6459 28.053 23.4929 28.053 23.3769 28.0199C23.3183 28.0033 23.2653 27.9772 23.2264 27.9345C23.1859 27.89 23.1624 27.8292 23.1624 27.7512V25.1832C23.1624 25.0969 23.2016 25.0362 23.2571 24.9945C23.3115 24.9535 23.3865 24.9264 23.4718 24.9061C23.5839 24.8795 23.7214 24.8632 23.8657 24.8461C23.9406 24.8372 24.0173 24.8281 24.0932 24.8172C24.3182 24.785 24.5383 24.7371 24.7015 24.6359C24.7828 24.5856 24.848 24.5232 24.8929 24.4453C24.9374 24.368 24.9633 24.2733 24.9633 24.1542C24.9633 23.1328 24.8137 22.6316 24.6703 22.3865C24.5988 22.2643 24.5284 22.2049 24.4774 22.1758C24.4518 22.1612 24.4308 22.1541 24.4166 22.1506C24.4095 22.1489 24.4042 22.1481 24.4008 22.1477C24.4001 22.1476 24.3995 22.1476 24.3989 22.1475C24.3982 22.1475 24.3976 22.1474 24.3973 22.1474L24.3969 22.1474H24.3969C24.3969 22.1474 24.3969 22.1474 24.3969 22.1467Z" fill="black"/>
<path fill-rule="evenodd" clip-rule="evenodd" d="M20.7415 26.0881C20.6194 26.1924 20.8975 27.8648 20.9789 27.9373C21.101 28.0387 21.8233 28.0387 21.942 27.9373C22.0268 27.8648 21.942 26.2939 21.8233 26.1924C21.7012 26.0881 20.8263 26.0185 20.7381 26.0881H20.7415Z" fill="#FFFF00"/>
<path fill-rule="evenodd" clip-rule="evenodd" d="M21.7546 26.1115C21.7905 26.1233 21.8224 26.1372 21.8428 26.1546C21.8573 26.167 21.868 26.187 21.876 26.2063C21.8845 26.2266 21.8922 26.2515 21.8993 26.2793C21.9135 26.3349 21.9266 26.4072 21.9384 26.4895C21.962 26.6543 21.9812 26.8642 21.994 27.0724C22.0068 27.2806 22.0132 27.4885 22.0111 27.6495C22.01 27.7298 22.0068 27.7997 22.0009 27.8526C21.998 27.8789 21.9942 27.9027 21.9892 27.9219C21.985 27.9385 21.9773 27.9623 21.9615 27.9757C21.9415 27.9928 21.9124 28.0053 21.8803 28.015C21.8472 28.0251 21.8074 28.0332 21.7635 28.0397C21.6757 28.0526 21.5691 28.059 21.4629 28.059C21.3567 28.059 21.2499 28.0526 21.1617 28.0397C21.1175 28.0332 21.0775 28.0251 21.0442 28.015C21.0117 28.0053 20.9824 27.9929 20.9621 27.976L20.9616 27.9756L20.9612 27.9753C20.9539 27.9688 20.9484 27.9601 20.9445 27.953C20.9403 27.9454 20.9364 27.9366 20.9327 27.9273C20.9252 27.9087 20.9176 27.885 20.9098 27.8578C20.8941 27.8031 20.8767 27.7299 20.8588 27.645C20.8229 27.475 20.7841 27.2547 20.7517 27.0336C20.7194 26.8127 20.6933 26.5897 20.6829 26.4147C20.6778 26.3274 20.6765 26.2503 20.6807 26.1906C20.6821 26.1703 20.6842 26.151 20.6873 26.1336H20.6152L20.722 26.0494C20.7323 26.0413 20.7452 26.0363 20.7574 26.0327C20.7703 26.029 20.7857 26.026 20.8027 26.0236C20.8367 26.0189 20.8797 26.0162 20.9284 26.0154C21.0259 26.0138 21.1483 26.0193 21.2714 26.0302C21.3945 26.0411 21.5191 26.0575 21.6209 26.0779C21.6717 26.088 21.7174 26.0993 21.7546 26.1115ZM20.7643 26.1237L20.7615 26.126C20.7613 26.1265 20.7591 26.1299 20.7564 26.1403C20.753 26.1535 20.7501 26.1729 20.7482 26.1991C20.7446 26.2511 20.7456 26.3223 20.7506 26.4076C20.7606 26.5778 20.7862 26.797 20.8183 27.0163C20.8504 27.2354 20.8888 27.4533 20.9241 27.6205C20.9418 27.7042 20.9585 27.7744 20.9732 27.8255C20.9805 27.8511 20.987 27.8709 20.9926 27.8848C20.9954 27.8918 20.9976 27.8965 20.9992 27.8995C20.9995 27.9 20.9998 27.9004 21 27.9008C21.0107 27.9089 21.0301 27.918 21.0591 27.9268C21.0891 27.9358 21.1264 27.9435 21.1691 27.9497C21.2543 27.9621 21.3584 27.9684 21.4629 27.9684C21.5674 27.9684 21.6713 27.9621 21.7561 27.9497C21.7985 27.9435 21.8356 27.9358 21.8652 27.9268C21.8932 27.9183 21.9119 27.9094 21.9222 27.9016C21.9228 27.9001 21.9238 27.8972 21.9251 27.8925C21.9281 27.8807 21.9311 27.8631 21.9338 27.8394C21.939 27.7921 21.9421 27.7266 21.9432 27.6479C21.9453 27.4908 21.939 27.286 21.9263 27.0797C21.9137 26.8734 21.8947 26.667 21.8717 26.5065C21.8602 26.426 21.8478 26.3584 21.8351 26.3085C21.8287 26.2835 21.8224 26.2641 21.8167 26.2502C21.8138 26.2433 21.8113 26.2384 21.8092 26.2351C21.8073 26.2318 21.8062 26.2308 21.8062 26.2308C21.8062 26.2308 21.8062 26.2308 21.8062 26.2308C21.7961 26.2222 21.7739 26.2111 21.7383 26.1994C21.7039 26.1881 21.6605 26.1773 21.6108 26.1674C21.5114 26.1475 21.3888 26.1313 21.2669 26.1205C21.145 26.1097 21.0245 26.1043 20.9293 26.1059C20.8816 26.1067 20.8409 26.1093 20.8097 26.1136C20.7941 26.1158 20.7815 26.1184 20.7719 26.1212C20.7689 26.122 20.7664 26.1229 20.7643 26.1237Z" fill="black"/>
<path fill-rule="evenodd" clip-rule="evenodd" d="M24.4558 26.0881C24.5779 26.1924 24.2998 27.8648 24.2184 27.9373C24.0963 28.0387 23.3739 28.0387 23.2552 27.9373C23.1704 27.8648 23.2552 26.2939 23.3739 26.1924C23.496 26.0881 24.371 26.0185 24.4592 26.0881H24.4558Z" fill="#FFFF00"/>
<path fill-rule="evenodd" clip-rule="evenodd" d="M23.4427 26.1115C23.4067 26.1233 23.3748 26.1372 23.3544 26.1546C23.3399 26.167 23.3293 26.187 23.3213 26.2063C23.3128 26.2266 23.3051 26.2515 23.298 26.2793C23.2837 26.3349 23.2707 26.4072 23.2589 26.4895C23.2352 26.6543 23.216 26.8642 23.2033 27.0724C23.1905 27.2806 23.1841 27.4885 23.1862 27.6495C23.1873 27.7298 23.1905 27.7997 23.1964 27.8526C23.1993 27.8789 23.203 27.9027 23.208 27.9219C23.2123 27.9385 23.22 27.9623 23.2357 27.9757C23.2558 27.9928 23.2849 28.0053 23.317 28.015C23.35 28.0251 23.3898 28.0332 23.4337 28.0397C23.5216 28.0526 23.6281 28.059 23.7344 28.059C23.8406 28.059 23.9473 28.0526 24.0356 28.0397C24.0797 28.0332 24.1198 28.0251 24.1531 28.015C24.1856 28.0053 24.2149 27.9929 24.2352 27.976L24.2356 27.9756L24.2361 27.9753C24.2434 27.9688 24.2489 27.9601 24.2528 27.953C24.257 27.9454 24.2609 27.9366 24.2646 27.9273C24.272 27.9087 24.2797 27.885 24.2875 27.8578C24.3032 27.8031 24.3206 27.7299 24.3385 27.645C24.3744 27.475 24.4132 27.2547 24.4455 27.0336C24.4779 26.8127 24.504 26.5897 24.5143 26.4147C24.5195 26.3274 24.5208 26.2503 24.5166 26.1906C24.5152 26.1703 24.5131 26.151 24.51 26.1336H24.582L24.4753 26.0494C24.465 26.0413 24.4521 26.0363 24.4399 26.0327C24.4269 26.029 24.4116 26.026 24.3946 26.0236C24.3606 26.0189 24.3175 26.0162 24.2688 26.0154C24.1714 26.0138 24.049 26.0193 23.9258 26.0302C23.8027 26.0411 23.6782 26.0575 23.5764 26.0779C23.5256 26.088 23.4799 26.0993 23.4427 26.1115ZM24.433 26.1237L24.4357 26.126C24.436 26.1265 24.4382 26.1299 24.4409 26.1403C24.4443 26.1535 24.4472 26.1729 24.449 26.1991C24.4527 26.2511 24.4517 26.3223 24.4466 26.4076C24.4366 26.5778 24.411 26.797 24.3789 27.0163C24.3468 27.2354 24.3085 27.4533 24.2732 27.6205C24.2555 27.7042 24.2387 27.7744 24.2241 27.8255C24.2168 27.8511 24.2102 27.8709 24.2047 27.8848C24.2019 27.8918 24.1997 27.8965 24.198 27.8995C24.1977 27.9 24.1975 27.9004 24.1973 27.9008C24.1866 27.9089 24.1672 27.918 24.1382 27.9268C24.1082 27.9358 24.0708 27.9435 24.0282 27.9497C23.943 27.9621 23.8388 27.9684 23.7344 27.9684C23.6299 27.9684 23.5259 27.9621 23.4412 27.9497C23.3988 27.9435 23.3617 27.9358 23.332 27.9268C23.304 27.9183 23.2854 27.9094 23.275 27.9016C23.2744 27.9001 23.2734 27.8972 23.2722 27.8925C23.2692 27.8807 23.2662 27.8631 23.2635 27.8394C23.2583 27.7921 23.2551 27.7266 23.2541 27.6479C23.252 27.4908 23.2583 27.286 23.2709 27.0797C23.2836 26.8734 23.3025 26.667 23.3255 26.5065C23.3371 26.426 23.3494 26.3584 23.3622 26.3085C23.3686 26.2835 23.3748 26.2641 23.3806 26.2502C23.3835 26.2433 23.386 26.2384 23.388 26.2351C23.39 26.2318 23.3911 26.2308 23.3911 26.2308C23.3911 26.2308 23.3911 26.2308 23.3911 26.2308C23.4012 26.2222 23.4234 26.2111 23.4589 26.1994C23.4933 26.1881 23.5367 26.1773 23.5865 26.1674C23.6858 26.1475 23.8084 26.1313 23.9304 26.1205C24.0523 26.1097 24.1728 26.1043 24.268 26.1059C24.3156 26.1067 24.3564 26.1093 24.3875 26.1136C24.4031 26.1158 24.4158 26.1184 24.4254 26.1212C24.4283 26.122 24.4309 26.1229 24.433 26.1237Z" fill="black"/>
<path fill-rule="evenodd" clip-rule="evenodd" d="M21.9759 25.4785C21.9759 25.6319 21.9102 25.7789 21.7932 25.8873C21.6763 25.9957 21.5176 26.0567 21.3522 26.0567C21.1868 26.0567 21.0282 25.9957 20.9112 25.8873C20.7942 25.7789 20.7285 25.6319 20.7285 25.4785C20.7285 25.3252 20.7942 25.1781 20.9112 25.0697C21.0282 24.9613 21.1868 24.9004 21.3522 24.9004C21.5176 24.9004 21.6763 24.9613 21.7932 25.0697C21.9102 25.1781 21.9759 25.3252 21.9759 25.4785Z" fill="#FFFF00"/>
<path fill-rule="evenodd" clip-rule="evenodd" d="M21.3518 24.9545C21.1933 24.9545 21.0431 25.013 20.934 25.1142C20.825 25.2152 20.7688 25.3472 20.7688 25.4785C20.7688 25.6098 20.825 25.7418 20.934 25.8428C21.0431 25.944 21.1933 26.0025 21.3518 26.0025C21.5103 26.0025 21.6605 25.944 21.7697 25.8428C21.8786 25.7418 21.9349 25.6098 21.9349 25.4785C21.9349 25.3472 21.8786 25.2152 21.7697 25.1142C21.6605 25.013 21.5103 24.9545 21.3518 24.9545ZM20.8876 25.0252C21.0124 24.9095 21.1795 24.8462 21.3518 24.8462C21.5242 24.8462 21.6912 24.9095 21.816 25.0252C21.941 25.141 22.0162 25.3031 22.0162 25.4785C22.0162 25.6539 21.941 25.816 21.816 25.9318C21.6912 26.0475 21.5242 26.1108 21.3518 26.1108C21.1795 26.1108 21.0124 26.0475 20.8876 25.9318C20.7627 25.816 20.6875 25.6539 20.6875 25.4785C20.6875 25.3031 20.7627 25.141 20.8876 25.0252Z" fill="black"/>
<path fill-rule="evenodd" clip-rule="evenodd" d="M24.4584 25.4785C24.4584 25.6319 24.3926 25.7789 24.2757 25.8873C24.1587 25.9958 24.0001 26.0567 23.8346 26.0567C23.6692 26.0567 23.5106 25.9958 23.3936 25.8873C23.2766 25.7789 23.2109 25.6319 23.2109 25.4785C23.2109 25.3252 23.2766 25.1781 23.3936 25.0697C23.5106 24.9613 23.6692 24.9004 23.8346 24.9004C24.0001 24.9004 24.1587 24.9613 24.2757 25.0697C24.3926 25.1781 24.4584 25.3252 24.4584 25.4785Z" fill="#FFFF00"/>
<path fill-rule="evenodd" clip-rule="evenodd" d="M23.8343 24.9545C23.6758 24.9545 23.5255 25.013 23.4164 25.1142C23.3074 25.2152 23.2512 25.3472 23.2512 25.4785C23.2512 25.6098 23.3074 25.7418 23.4164 25.8428C23.5255 25.944 23.6758 26.0025 23.8343 26.0025C23.9928 26.0025 24.143 25.944 24.2521 25.8428C24.3611 25.7418 24.4173 25.6098 24.4173 25.4785C24.4173 25.3472 24.3611 25.2152 24.2521 25.1142C24.143 25.013 23.9928 24.9545 23.8343 24.9545ZM23.37 25.0252C23.4949 24.9095 23.6619 24.8462 23.8343 24.8462C24.0066 24.8462 24.1737 24.9095 24.2985 25.0252C24.4234 25.141 24.4986 25.3031 24.4986 25.4785C24.4986 25.6539 24.4234 25.816 24.2985 25.9318C24.1737 26.0475 24.0066 26.1108 23.8343 26.1108C23.6619 26.1108 23.4949 26.0475 23.37 25.9318C23.2451 25.816 23.1699 25.6539 23.1699 25.4785C23.1699 25.3031 23.2451 25.141 23.37 25.0252Z" fill="black"/>
<path fill-rule="evenodd" clip-rule="evenodd" d="M23.6812 28.8283C23.6812 28.9689 23.5406 29.0814 23.3789 29.0814C23.2102 29.0814 23.0766 28.9689 23.0766 28.8283C23.0766 28.6877 23.2172 28.5752 23.3789 28.5752C23.5406 28.5752 23.6812 28.6877 23.6812 28.8283ZM22.1133 28.8283C22.1133 28.9689 21.9797 29.0814 21.818 29.0814C21.6492 29.0814 21.5156 28.9689 21.5156 28.8283C21.5156 28.6877 21.6492 28.5752 21.818 28.5752C21.9797 28.5752 22.1133 28.6877 22.1133 28.8283Z" fill="black"/>
<path fill-rule="evenodd" clip-rule="evenodd" d="M22.5981 20.6255L22.2295 20.0052L21.6244 20.1076L21.7095 19.3368L21.2227 18.8731L21.7095 18.4033L21.6244 17.6325L22.2295 17.7409L22.5981 17.1206L22.9668 17.7409L23.5671 17.6325L23.4868 18.4033L23.9689 18.8731L23.4868 19.3428L23.5671 20.1076L22.9621 20.0052L22.5981 20.6255Z" fill="#FFFF00"/>
<path fill-rule="evenodd" clip-rule="evenodd" d="M22.5987 17.0659L22.9783 17.7046L23.5975 17.5928L23.5146 18.3878L24.0125 18.8729L23.5146 19.3581L23.5975 20.1467L22.9738 20.0412L22.5988 20.6802L22.219 20.0411L21.595 20.1467L21.6827 19.3522L21.1797 18.8731L21.6827 18.3878L21.5949 17.5928L22.2191 17.7046L22.5987 17.0659ZM22.5987 17.175L22.241 17.7769L21.655 17.6719L21.7375 18.4186L21.2668 18.8728L21.7375 19.3211L21.655 20.0683L22.241 19.9691L22.5986 20.5706L22.9515 19.9691L23.5379 20.0683L23.4601 19.3273L23.9264 18.8729L23.4601 18.4186L23.5379 17.6719L22.9565 17.7769L22.5987 17.175Z" fill="black"/>
<path fill-rule="evenodd" clip-rule="evenodd" d="M25.1699 23.0244L26.2019 23.6849L27.2338 23.0244L26.2019 22.3701L25.1748 23.0244H25.1699Z" fill="#FFFF00"/>
<path fill-rule="evenodd" clip-rule="evenodd" d="M26.2014 22.3315L27.2938 23.0242L26.2014 23.7233L25.1582 23.0556L25.167 23.004L25.1631 22.993L26.2014 22.3315ZM25.2322 23.026L26.2014 23.6463L27.173 23.0245L26.2015 22.4085L25.2322 23.026Z" fill="black"/>
<path fill-rule="evenodd" clip-rule="evenodd" d="M17.7871 23.0244L18.8191 23.6849L19.851 23.0244L18.8191 22.3701L17.792 23.0244H17.7871Z" fill="#FFFF00"/>
<path fill-rule="evenodd" clip-rule="evenodd" d="M18.8186 22.3315L19.911 23.0242L18.8186 23.7233L17.7754 23.0556L17.7842 23.004L17.7803 22.993L18.8186 22.3315ZM17.8494 23.026L18.8186 23.6463L19.7902 23.0245L18.8186 22.4085L17.8494 23.026Z" fill="black"/>
<path fill-rule="evenodd" clip-rule="evenodd" d="M26.762 26.9382C26.446 26.6711 25.9138 26.8042 25.6155 27.0225C25.3172 27.2408 25.0189 27.459 24.9788 28.25C24.6362 27.4899 24.906 26.7871 25.3597 26.4551C25.6004 26.3044 25.8759 26.2708 26.1346 26.3608C26.3932 26.4507 26.6172 26.658 26.7644 26.9435L26.762 26.9382Z" fill="#FFFF00"/>
<path fill-rule="evenodd" clip-rule="evenodd" d="M24.9613 28.1341C24.9909 27.7964 25.0717 27.5686 25.1809 27.3997C25.3008 27.2143 25.4534 27.1027 25.6015 26.9943L25.6032 26.9931C25.7556 26.8816 25.9668 26.7923 26.1801 26.7647C26.35 26.7427 26.524 26.7595 26.6713 26.8383C26.5313 26.6239 26.3424 26.4682 26.1293 26.3941C25.8771 26.3064 25.6084 26.339 25.3736 26.4858C25.1517 26.6484 24.9758 26.9008 24.8969 27.2038C24.8251 27.4792 24.8328 27.7985 24.9613 28.1341ZM26.7812 26.9134C26.6303 26.6269 26.4034 26.4191 26.1421 26.3282C25.8772 26.2361 25.5951 26.2704 25.3489 26.4247L25.3481 26.4252L25.3474 26.4257C25.1159 26.5951 24.9303 26.8598 24.8466 27.1809C24.7627 27.5029 24.782 27.8789 24.957 28.2671L25.0007 28.364L25.0063 28.2533C25.0261 27.8635 25.1092 27.6183 25.2219 27.444C25.3354 27.2686 25.4803 27.1622 25.63 27.0526C25.7759 26.9459 25.98 26.8594 26.1864 26.8327C26.3932 26.8059 26.5981 26.8396 26.7488 26.967L26.7561 26.9525L26.7883 26.9272L26.7827 26.9147L26.7812 26.9134Z" fill="black"/>
<path fill-rule="evenodd" clip-rule="evenodd" d="M19.6753 25.6495C19.6753 25.765 19.6393 25.8756 19.5753 25.9573C19.5112 26.0389 19.4243 26.0847 19.3338 26.0847C19.2432 26.0847 19.1563 26.0389 19.0922 25.9573C19.0282 25.8756 18.9922 25.765 18.9922 25.6495C18.9922 25.5341 19.0282 25.4234 19.0922 25.3418C19.1563 25.2602 19.2432 25.2144 19.3338 25.2144C19.4243 25.2144 19.5112 25.2602 19.5753 25.3418C19.6393 25.4234 19.6753 25.5341 19.6753 25.6495Z" fill="#FFFF00"/>
<path fill-rule="evenodd" clip-rule="evenodd" d="M19.3325 25.2491C19.2484 25.2491 19.168 25.2917 19.1089 25.367C19.0499 25.4422 19.0169 25.5439 19.0169 25.6496C19.0169 25.7553 19.0499 25.857 19.1089 25.9322C19.168 26.0075 19.2484 26.05 19.3325 26.05C19.4165 26.05 19.4969 26.0075 19.556 25.9322C19.615 25.857 19.648 25.7553 19.648 25.6496C19.648 25.5439 19.615 25.4422 19.556 25.367C19.4969 25.2917 19.4165 25.2491 19.3325 25.2491ZM19.0729 25.3168C19.142 25.2288 19.2353 25.1797 19.3325 25.1797C19.4296 25.1797 19.523 25.2288 19.592 25.3168C19.661 25.4048 19.7001 25.5244 19.7001 25.6496C19.7001 25.7747 19.661 25.8944 19.592 25.9824C19.523 26.0704 19.4296 26.1195 19.3325 26.1195C19.2353 26.1195 19.142 26.0704 19.0729 25.9824C19.0039 25.8944 18.9648 25.7747 18.9648 25.6496C18.9648 25.5244 19.0039 25.4048 19.0729 25.3168Z" fill="black"/>
<path fill-rule="evenodd" clip-rule="evenodd" d="M19.3296 27.1779C19.3296 27.2933 19.2936 27.404 19.2296 27.4856C19.1655 27.5672 19.0786 27.613 18.988 27.613C18.8975 27.613 18.8106 27.5672 18.7465 27.4856C18.6825 27.404 18.6465 27.2933 18.6465 27.1779C18.6465 27.0624 18.6825 26.9517 18.7465 26.8701C18.8106 26.7885 18.8975 26.7427 18.988 26.7427C19.0786 26.7427 19.1655 26.7885 19.2296 26.8701C19.2936 26.9517 19.3296 27.0624 19.3296 27.1779Z" fill="#FFFF00"/>
<path fill-rule="evenodd" clip-rule="evenodd" d="M18.9887 26.7775C18.9047 26.7775 18.8243 26.82 18.7652 26.8953C18.7061 26.9705 18.6732 27.0722 18.6732 27.1779C18.6732 27.2836 18.7061 27.3853 18.7652 27.4605C18.8243 27.5358 18.9047 27.5784 18.9887 27.5784C19.0728 27.5784 19.1531 27.5358 19.2122 27.4605C19.2713 27.3853 19.3042 27.2836 19.3042 27.1779C19.3042 27.0722 19.2713 26.9705 19.2122 26.8953C19.1531 26.82 19.0728 26.7775 18.9887 26.7775ZM18.7292 26.8451C18.7982 26.7571 18.8916 26.708 18.9887 26.708C19.0858 26.708 19.1792 26.7571 19.2482 26.8451C19.3173 26.9331 19.3563 27.0528 19.3563 27.1779C19.3563 27.3031 19.3173 27.4228 19.2482 27.5107C19.1792 27.5987 19.0858 27.6478 18.9887 27.6478C18.8916 27.6478 18.7982 27.5987 18.7292 27.5107C18.6601 27.4228 18.6211 27.3031 18.6211 27.1779C18.6211 27.0528 18.6601 26.9331 18.7292 26.8451Z" fill="black"/>
<path fill-rule="evenodd" clip-rule="evenodd" d="M19.1597 26.3058C19.1597 26.4212 19.1237 26.5319 19.0596 26.6135C18.9956 26.6951 18.9087 26.741 18.8181 26.741C18.7275 26.741 18.6407 26.6951 18.5766 26.6135C18.5125 26.5319 18.4766 26.4212 18.4766 26.3058C18.4766 26.1904 18.5125 26.0797 18.5766 25.9981C18.6407 25.9165 18.7275 25.8706 18.8181 25.8706C18.9087 25.8706 18.9956 25.9165 19.0596 25.9981C19.1237 26.0797 19.1597 26.1904 19.1597 26.3058Z" fill="#FFFF00"/>
<path fill-rule="evenodd" clip-rule="evenodd" d="M18.8188 25.9054C18.7347 25.9054 18.6543 25.948 18.5953 26.0232C18.5362 26.0985 18.5033 26.2002 18.5033 26.3058C18.5033 26.4115 18.5362 26.5132 18.5953 26.5885C18.6543 26.6637 18.7347 26.7063 18.8188 26.7063C18.9028 26.7063 18.9832 26.6637 19.0423 26.5885C19.1014 26.5132 19.1343 26.4115 19.1343 26.3058C19.1343 26.2002 19.1014 26.0985 19.0423 26.0232C18.9832 25.948 18.9028 25.9054 18.8188 25.9054ZM18.5593 25.973C18.6283 25.8851 18.7217 25.8359 18.8188 25.8359C18.9159 25.8359 19.0093 25.8851 19.0783 25.973C19.1474 26.061 19.1864 26.1807 19.1864 26.3058C19.1864 26.431 19.1474 26.5507 19.0783 26.6387C19.0093 26.7266 18.9159 26.7758 18.8188 26.7758C18.7217 26.7758 18.6283 26.7266 18.5593 26.6387C18.4902 26.5507 18.4512 26.431 18.4512 26.3058C18.4512 26.1807 18.4902 26.061 18.5593 25.973Z" fill="black"/>
<path fill-rule="evenodd" clip-rule="evenodd" d="M20.0191 27.1779C20.0191 27.2933 19.9831 27.404 19.919 27.4856C19.855 27.5672 19.7681 27.613 19.6775 27.613C19.5869 27.613 19.5 27.5672 19.436 27.4856C19.3719 27.404 19.3359 27.2933 19.3359 27.1779C19.3359 27.0624 19.3719 26.9517 19.436 26.8701C19.5 26.7885 19.5869 26.7427 19.6775 26.7427C19.7681 26.7427 19.855 26.7885 19.919 26.8701C19.9831 26.9517 20.0191 27.0624 20.0191 27.1779Z" fill="#FFFF00"/>
<path fill-rule="evenodd" clip-rule="evenodd" d="M19.6782 26.7775C19.5941 26.7775 19.5137 26.82 19.4546 26.8953C19.3956 26.9705 19.3626 27.0722 19.3626 27.1779C19.3626 27.2836 19.3956 27.3853 19.4546 27.4605C19.5137 27.5358 19.5941 27.5784 19.6782 27.5784C19.7622 27.5784 19.8426 27.5358 19.9017 27.4605C19.9607 27.3853 19.9937 27.2836 19.9937 27.1779C19.9937 27.0722 19.9607 26.9705 19.9017 26.8953C19.8426 26.82 19.7622 26.7775 19.6782 26.7775ZM19.4186 26.8451C19.4877 26.7571 19.581 26.708 19.6782 26.708C19.7753 26.708 19.8687 26.7571 19.9377 26.8451C20.0067 26.9331 20.0458 27.0528 20.0458 27.1779C20.0458 27.3031 20.0067 27.4228 19.9377 27.5107C19.8687 27.5987 19.7753 27.6478 19.6782 27.6478C19.581 27.6478 19.4877 27.5987 19.4186 27.5107C19.3496 27.4228 19.3105 27.3031 19.3105 27.1779C19.3105 27.0528 19.3496 26.9331 19.4186 26.8451Z" fill="black"/>
<path fill-rule="evenodd" clip-rule="evenodd" d="M20.187 26.3058C20.187 26.4212 20.151 26.5319 20.087 26.6135C20.0229 26.6951 19.9361 26.741 19.8455 26.741C19.7549 26.741 19.668 26.6951 19.6039 26.6135C19.5399 26.5319 19.5039 26.4212 19.5039 26.3058C19.5039 26.1904 19.5399 26.0797 19.6039 25.9981C19.668 25.9165 19.7549 25.8706 19.8455 25.8706C19.9361 25.8706 20.0229 25.9165 20.087 25.9981C20.151 26.0797 20.187 26.1904 20.187 26.3058Z" fill="#FFFF00"/>
<path fill-rule="evenodd" clip-rule="evenodd" d="M19.8461 25.9054C19.7621 25.9054 19.6817 25.948 19.6226 26.0232C19.5636 26.0985 19.5306 26.2002 19.5306 26.3058C19.5306 26.4115 19.5636 26.5132 19.6226 26.5885C19.6817 26.6637 19.7621 26.7063 19.8461 26.7063C19.9302 26.7063 20.0106 26.6637 20.0697 26.5885C20.1287 26.5132 20.1616 26.4115 20.1616 26.3058C20.1616 26.2002 20.1287 26.0985 20.0697 26.0232C20.0106 25.948 19.9302 25.9054 19.8461 25.9054ZM19.5866 25.973C19.6556 25.8851 19.749 25.8359 19.8461 25.8359C19.9433 25.8359 20.0366 25.8851 20.1056 25.973C20.1747 26.061 20.2137 26.1807 20.2137 26.3058C20.2137 26.431 20.1747 26.5507 20.1056 26.6387C20.0366 26.7266 19.9433 26.7758 19.8461 26.7758C19.749 26.7758 19.6556 26.7266 19.5866 26.6387C19.5175 26.5507 19.4785 26.431 19.4785 26.3058C19.4785 26.1807 19.5175 26.061 19.5866 25.973Z" fill="black"/>
<path fill-rule="evenodd" clip-rule="evenodd" d="M19.6753 26.5216C19.6753 26.637 19.6393 26.7477 19.5753 26.8293C19.5112 26.9109 19.4243 26.9568 19.3338 26.9568C19.2432 26.9568 19.1563 26.9109 19.0922 26.8293C19.0282 26.7477 18.9922 26.637 18.9922 26.5216C18.9922 26.4062 19.0282 26.2955 19.0922 26.2139C19.1563 26.1323 19.2432 26.0864 19.3338 26.0864C19.4243 26.0864 19.5112 26.1323 19.5753 26.2139C19.6393 26.2955 19.6753 26.4062 19.6753 26.5216Z" fill="#FFFF00"/>
<path fill-rule="evenodd" clip-rule="evenodd" d="M19.3325 26.1212C19.2484 26.1212 19.168 26.1638 19.1089 26.2391C19.0499 26.3143 19.0169 26.416 19.0169 26.5217C19.0169 26.6274 19.0499 26.729 19.1089 26.8043C19.168 26.8796 19.2484 26.9221 19.3325 26.9221C19.4165 26.9221 19.4969 26.8796 19.556 26.8043C19.615 26.729 19.648 26.6274 19.648 26.5217C19.648 26.416 19.615 26.3143 19.556 26.2391C19.4969 26.1638 19.4165 26.1212 19.3325 26.1212ZM19.0729 26.1888C19.142 26.1009 19.2353 26.0518 19.3325 26.0518C19.4296 26.0518 19.523 26.1009 19.592 26.1888C19.661 26.2768 19.7001 26.3965 19.7001 26.5217C19.7001 26.6468 19.661 26.7665 19.592 26.8545C19.523 26.9424 19.4296 26.9916 19.3325 26.9916C19.2353 26.9916 19.142 26.9424 19.0729 26.8545C19.0039 26.7665 18.9648 26.6468 18.9648 26.5217C18.9648 26.3965 19.0039 26.2768 19.0729 26.1888Z" fill="black"/>
<path fill-rule="evenodd" clip-rule="evenodd" d="M20.9406 11.2874C20.0687 11.2874 19.9562 11.4749 19.5625 11.653C19.5625 11.1468 20.5328 10.5562 21.3906 10.5562C21.3906 10.9218 21.1656 11.2874 20.9406 11.2874Z" fill="#DA4500"/>
<path fill-rule="evenodd" clip-rule="evenodd" d="M22.2555 10.1252C22.2555 10.3596 22.1008 10.5564 21.9109 10.5564C21.7211 10.5564 21.5664 10.3596 21.5664 10.1158C21.5664 9.87207 21.7211 9.68457 21.9109 9.68457C22.1008 9.68457 22.2555 9.87207 22.2555 10.1158V10.1252Z" fill="#CAC9C7"/>
<path fill-rule="evenodd" clip-rule="evenodd" d="M18.6494 8.59235V9.24667H19.5069V12.5244H20.0253V9.24667H20.8829V8.59235H20.0253V7.71582H19.5021V8.59235H18.6445H18.6494Z" fill="#FFFF00"/>
<path fill-rule="evenodd" clip-rule="evenodd" d="M19.4757 7.68115H20.0511V8.55769H20.9086V9.28146H20.0511V12.5592H19.4806V9.28146H18.623V8.59242H18.6442V8.55769H19.4757V7.68115ZM18.6751 8.62715H19.5278V7.75061H19.999V8.62715H20.8565V9.212H19.999V12.4897H19.5327V9.212H18.6751V8.62715Z" fill="black"/>
<path fill-rule="evenodd" clip-rule="evenodd" d="M21.3961 10.5563C20.6982 10.5032 19.9991 10.6273 19.3359 10.922C19.3359 10.247 19.9266 9.45947 20.9391 9.45947C21.1641 9.45947 21.3961 10.1907 21.3961 10.5563Z" fill="#DA4500"/>
<path fill-rule="evenodd" clip-rule="evenodd" d="M12.4645 22.1712C12.2174 21.4611 12.2232 21.2344 12.6627 22.047L17.9576 35.431L17.7955 35.492L12.4672 22.174L12.4645 22.1712Z" fill="#008500"/>
<path fill-rule="evenodd" clip-rule="evenodd" d="M12.4716 22.1624C12.4104 21.9864 12.365 21.8406 12.338 21.7335C12.3244 21.6796 12.3156 21.636 12.3118 21.6035C12.3098 21.5872 12.3092 21.5742 12.3097 21.5644C12.3102 21.5543 12.3117 21.5489 12.3133 21.5462C12.3145 21.5441 12.3164 21.5425 12.3202 21.5429C12.3243 21.5433 12.3303 21.5461 12.3385 21.5527C12.3549 21.5657 12.3774 21.5916 12.4065 21.6323C12.4644 21.7135 12.5467 21.8509 12.6564 22.0535L17.9452 35.4223L17.8 35.4769L12.4741 22.1649L12.4716 22.1624ZM12.4179 21.6143C12.4768 21.6968 12.5599 21.8356 12.6699 22.0389L12.6703 22.0396L17.9712 35.4389L17.7922 35.5062L12.4616 22.1823L12.4586 22.1792L12.4576 22.1762C12.3958 21.9985 12.3496 21.8507 12.3221 21.7415C12.3083 21.687 12.2991 21.6417 12.295 21.6068C12.2929 21.5894 12.292 21.5742 12.2926 21.5614C12.2933 21.5489 12.2954 21.5374 12.3002 21.5292C12.3053 21.5203 12.3125 21.5168 12.3206 21.5176C12.3283 21.5184 12.3368 21.5231 12.3461 21.5304C12.3646 21.5452 12.3885 21.5731 12.4179 21.6143Z" fill="black"/>
<path fill-rule="evenodd" clip-rule="evenodd" d="M16.061 30.975C16.1172 29.9813 14.7531 28.9125 14.6969 28.9781C14.6477 29.0531 14.7813 29.6344 15.0414 29.925C14.5492 29.5875 14.0289 29.3813 14.0149 29.5219C13.9727 29.7281 14.7883 30.1969 14.8586 30.3844C14.8586 30.5156 14.2539 30.4969 14.268 30.6281C14.282 30.7594 15.9766 31.9031 16.061 30.975ZM14.6969 28.0875C14.7531 27.0938 13.3891 26.025 13.3399 26.0906C13.2836 26.1563 13.4172 26.7375 13.6774 27.0375C13.1852 26.7 12.6649 26.4844 12.6508 26.6344C12.6156 26.8313 13.4242 27.3094 13.4945 27.4969C13.5016 27.6281 12.8969 27.6094 12.9039 27.7406C12.918 27.8719 14.6125 29.0063 14.6969 28.0875ZM13.6563 25.4625C13.7125 24.4688 12.3485 23.4 12.2922 23.4656C12.243 23.5313 12.3766 24.1125 12.6367 24.4125C12.1445 24.075 11.6242 23.8594 11.6102 24.0094C11.575 24.2063 12.3836 24.6844 12.4539 24.8719C12.4539 25.0031 11.8563 24.9844 11.8633 25.1156C11.8774 25.2469 13.5719 26.3906 13.6563 25.4625ZM12.6297 22.6125C12.6789 21.6281 11.3219 20.55 11.2656 20.6156C11.2094 20.6906 11.35 21.2719 11.6031 21.5719C11.111 21.225 10.5906 21.0188 10.5836 21.1688C10.5414 21.3656 11.357 21.8438 11.4203 22.0219C11.4274 22.1531 10.8227 22.1438 10.8367 22.275C10.8438 22.4063 12.5383 23.5406 12.6297 22.6125Z" fill="#008F00"/>
<path fill-rule="evenodd" clip-rule="evenodd" d="M12.9802 22.4908C13.6412 21.9564 13.5076 19.9221 13.4373 19.9033C13.3599 19.8939 13.0716 20.3721 13.0365 20.8221C12.9591 20.1096 12.7834 19.4533 12.6849 19.5283C12.5373 19.6033 12.713 20.7189 12.6357 20.8971C12.5654 20.9908 12.2138 20.3533 12.1435 20.4471C12.0591 20.5408 12.3404 22.9502 12.9873 22.4908H12.9802ZM13.9365 24.9846C14.6959 24.7596 15.1107 22.7908 15.0404 22.7439C14.9701 22.6971 14.5763 23.0252 14.4287 23.4377C14.5412 22.7346 14.5482 22.0408 14.4287 22.0689C14.2669 22.0783 14.1474 23.2033 14.0279 23.3346C13.9365 23.3908 13.7677 22.6502 13.6763 22.6971C13.5779 22.7533 13.2123 25.1439 13.9365 24.9846ZM15.0755 27.5346C15.7716 27.0846 15.7787 25.0408 15.7084 25.0221C15.638 24.9939 15.3216 25.4439 15.2513 25.8846C15.2232 25.1627 15.0966 24.4971 14.9912 24.5627C14.8365 24.6189 14.9349 25.7439 14.8505 25.9127C14.7662 25.9971 14.4638 25.3221 14.3794 25.4064C14.2951 25.4814 14.4076 27.919 15.0826 27.5346H15.0755ZM16.313 30.8721C17.0373 30.5064 17.213 28.4814 17.1427 28.4439C17.0724 28.4158 16.7209 28.8189 16.6154 29.2502C16.6435 28.5283 16.5732 27.8439 16.4607 27.9002C16.299 27.9377 16.313 29.0721 16.2146 29.2314C16.1232 29.2971 15.8771 28.5939 15.7927 28.6689C15.7013 28.7252 15.6169 31.1721 16.313 30.8721Z" fill="#008F00"/>
<path fill-rule="evenodd" clip-rule="evenodd" d="M17.9074 34.3507C17.7232 34.7711 17.1406 34.8091 16.5991 34.4239C16.0576 34.0388 15.7773 33.3869 15.9615 32.9665C16.1457 32.5461 16.7326 32.5111 17.2698 32.8933C17.8071 33.2754 18.0916 33.9303 17.9074 34.3507Z" fill="#FF1900"/>
<path fill-rule="evenodd" clip-rule="evenodd" d="M16.484 32.663C16.252 32.6763 16.0703 32.7873 15.9846 32.9828C15.8988 33.1785 15.9191 33.4332 16.0314 33.6912C16.1434 33.9486 16.345 34.2038 16.6123 34.3939C16.8796 34.584 17.1559 34.6688 17.3866 34.6552C17.618 34.6416 17.7988 34.53 17.8845 34.3343C17.9702 34.1387 17.949 33.8834 17.8361 33.6248C17.7236 33.367 17.5219 33.1118 17.2568 32.9232C16.9917 32.7346 16.7153 32.6498 16.484 32.663ZM16.4827 32.5948C16.7252 32.5809 17.0109 32.6697 17.2831 32.8632C17.5552 33.0568 17.7644 33.3201 17.8824 33.5904C18.0001 33.8599 18.029 34.1422 17.9305 34.367C17.832 34.5917 17.6294 34.7093 17.388 34.7235C17.146 34.7377 16.8602 34.649 16.586 34.4539C16.3118 34.2588 16.1025 33.9955 15.9851 33.7256C15.8679 33.4563 15.8401 33.1748 15.9386 32.9501C16.0371 32.7253 16.2409 32.6086 16.4827 32.5948Z" fill="black"/>
<path fill-rule="evenodd" clip-rule="evenodd" d="M31.888 20.2695L31.9792 19.9558L32.2247 20.0589L32.3159 19.7452L32.5614 19.8483L32.4715 20.1576L32.7241 20.2636L32.6316 20.5817L32.3791 20.4757L32.1518 21.2578L31.9063 21.1547L32.1335 20.3726L31.888 20.2695ZM31.3606 23.0325L31.6062 23.1356L28.9677 32.2155L28.7222 32.1124L31.3606 23.0325Z" fill="#FFFF00"/>
<path fill-rule="evenodd" clip-rule="evenodd" d="M32.3119 19.7305L32.5747 19.8409L32.4848 20.1502L32.7374 20.2562L32.6384 20.5968L32.3859 20.4908L32.1586 21.2728L31.8958 21.1625L32.1231 20.3804L31.8862 20.281L31.8894 20.2697L31.8808 20.2661L31.9752 19.9412L32.2208 20.0442L32.3119 19.7305ZM31.9013 20.2621L32.1469 20.3652L31.9196 21.1473L32.1479 21.2431L32.3752 20.4611L32.6277 20.5671L32.7136 20.2714L32.4611 20.1654L32.551 19.8561L32.3227 19.7603L32.2315 20.074L31.986 19.9709L31.9013 20.2621ZM31.3567 23.0179L31.6195 23.1282L28.9745 32.2306L28.7118 32.1202L31.3567 23.0179ZM31.3674 23.0476L28.7355 32.105L28.9638 32.2008L31.5957 23.1434L31.3674 23.0476Z" fill="black"/>
<path fill-rule="evenodd" clip-rule="evenodd" d="M28.6423 31.9052L29.1404 32.1143L28.4124 34.6196L27.9143 34.4104L28.6423 31.9052ZM31.571 21.3657L32.3182 21.6794C32.8128 21.8871 31.6912 23.3496 31.6912 23.3496L31.1966 23.1419C31.1966 23.1419 31.0729 21.1566 31.571 21.3657ZM32.2577 21.3864C32.2192 21.5189 32.0797 21.5793 31.9429 21.5219C31.8061 21.4644 31.7246 21.3112 31.7619 21.1831C31.7991 21.055 31.9399 20.9902 32.0767 21.0476C32.2135 21.105 32.295 21.2582 32.2564 21.3908L32.2577 21.3864Z" fill="#FFFF00"/>
<path fill-rule="evenodd" clip-rule="evenodd" d="M31.884 21.0566C31.8291 21.0808 31.7873 21.1267 31.77 21.1864C31.7527 21.2459 31.7626 21.3124 31.7943 21.3717C31.8259 21.431 31.8788 21.4823 31.9456 21.5103C32.0124 21.5384 32.0794 21.5375 32.1341 21.5139C32.1881 21.4906 32.2296 21.4455 32.2479 21.3847C32.265 21.3234 32.2552 21.2568 32.2241 21.1977C32.1926 21.1379 32.1397 21.0866 32.073 21.0586C32.0063 21.0306 31.9389 21.0325 31.884 21.0566ZM32.2658 21.3897C32.2846 21.3203 32.2727 21.2467 32.2395 21.1838C32.2057 21.1195 32.1495 21.0655 32.0795 21.0361C32.0094 21.0066 31.9379 21.0084 31.8789 21.0343C31.8199 21.0603 31.7726 21.1108 31.7527 21.1792C31.7328 21.2478 31.7449 21.3221 31.7789 21.3857C31.7944 21.4147 31.8145 21.4417 31.8384 21.4653L31.5738 21.3542C31.5094 21.3272 31.454 21.3353 31.407 21.3717C31.3604 21.4078 31.3233 21.4706 31.2936 21.5501C31.2344 21.709 31.203 21.9394 31.1873 22.1747C31.1716 22.4104 31.1715 22.6525 31.1753 22.8356C31.1772 22.9272 31.1801 23.0041 31.1825 23.058C31.1837 23.085 31.1848 23.1063 31.1856 23.1208C31.186 23.1281 31.1863 23.1337 31.1866 23.1374L31.1868 23.1417L31.1869 23.1431C31.1869 23.1431 31.1869 23.1432 31.1961 23.1417L31.1869 23.1432L31.1874 23.1506L31.6929 23.3629L31.6971 23.3574L31.6907 23.3493C31.6971 23.3574 31.6971 23.3574 31.6971 23.3574L31.6979 23.3563L31.7003 23.3531C31.7024 23.3503 31.7056 23.3462 31.7096 23.3408C31.7177 23.33 31.7296 23.3142 31.7445 23.2939C31.7742 23.2535 31.8162 23.1954 31.8649 23.1252C31.9625 22.9846 32.0875 22.795 32.197 22.5987C32.3064 22.4027 32.4012 22.1989 32.4372 22.0303C32.4553 21.946 32.459 21.8691 32.4414 21.8061C32.4237 21.7425 32.3849 21.6948 32.3209 21.6679L32.052 21.555C32.0828 21.5543 32.1123 21.5478 32.1392 21.5362C32.1969 21.5114 32.2433 21.4624 32.2645 21.3941L32.2658 21.3897ZM31.5673 21.3767C31.5071 21.3514 31.4575 21.3596 31.4159 21.3917C31.3739 21.4242 31.339 21.4822 31.3102 21.5594C31.2525 21.714 31.2214 21.9407 31.2057 22.1755C31.1901 22.41 31.19 22.6512 31.1938 22.8338C31.1957 22.9251 31.1985 23.0017 31.2009 23.0555C31.2022 23.0824 31.2032 23.1036 31.204 23.118C31.2043 23.1242 31.2046 23.1291 31.2048 23.1327L31.6884 23.3358C31.6905 23.3331 31.6932 23.3295 31.6967 23.3249C31.7047 23.3142 31.7165 23.2984 31.7313 23.2782C31.761 23.2379 31.8028 23.1801 31.8514 23.11C31.9487 22.9698 32.0732 22.7809 32.1822 22.5856C32.2914 22.39 32.3844 22.1892 32.4195 22.0252C32.437 21.9432 32.4398 21.8717 32.424 21.815C32.4084 21.7589 32.3741 21.7155 32.3144 21.6904L31.5673 21.3767ZM28.6364 31.89L29.1518 32.1064L28.4173 34.6341L27.9019 34.4178L28.6364 31.89ZM29.128 32.1217L28.6472 31.9198L27.9257 34.4025L28.4066 34.6044L29.128 32.1217Z" fill="black"/>
<path fill-rule="evenodd" clip-rule="evenodd" d="M29.0407 33.2064C29.2494 33.6078 29.0086 34.2848 28.4916 34.7211C27.9745 35.1574 27.3913 35.1757 27.1826 34.7742C26.974 34.3728 27.2188 33.6924 27.7318 33.2595C28.2448 32.8266 28.8321 32.8049 29.0407 33.2064Z" fill="#FF1900"/>
<path fill-rule="evenodd" clip-rule="evenodd" d="M27.2105 34.0432C27.1133 34.3118 27.1073 34.5685 27.2044 34.7554C27.3016 34.9424 27.4886 35.0362 27.72 35.0275C27.9509 35.0188 28.2213 34.9076 28.4765 34.6923C28.7316 34.4769 28.9175 34.2031 29.0139 33.9357C29.1105 33.6676 29.1157 33.4116 29.0185 33.2247C28.9213 33.0378 28.7334 32.9447 28.5014 32.9538C28.27 32.963 27.9995 33.0742 27.7464 33.2878C27.4933 33.5014 27.3074 33.7752 27.2105 34.0432ZM27.1622 34.0136C27.2638 33.7328 27.4568 33.45 27.7167 33.2307C27.9766 33.0114 28.2563 32.8953 28.4989 32.8857C28.7409 32.8762 28.951 32.9729 29.0625 33.1875C29.174 33.4019 29.1631 33.6852 29.0622 33.9651C28.9611 34.2456 28.768 34.5284 28.5062 34.7494C28.2443 34.9703 27.9646 35.0864 27.7224 35.0956C27.4808 35.1047 27.2718 35.007 27.1604 34.7926C27.0488 34.578 27.0609 34.2938 27.1622 34.0136Z" fill="black"/>
</g>
<defs>
<clipPath id="clip0_45_17335">
<rect width="45" height="45" fill="white"/>
</clipPath>
</defs>
</svg>
