<svg width="45" height="45" viewBox="0 0 45 45" fill="none" xmlns="http://www.w3.org/2000/svg">
<g clip-path="url(#clip0_45_17571)">
<path d="M0 0H45V45H0V0Z" fill="#DA2032"/>
<path d="M14.9961 0H30.0008V45H14.9961V0Z" fill="#0066B3"/>
<path d="M7.50391 20.7939C9.05721 20.7939 10.3164 19.115 10.3164 17.0439C10.3164 14.9729 9.05721 13.2939 7.50391 13.2939C5.95061 13.2939 4.69141 14.9729 4.69141 17.0439C4.69141 19.115 5.95061 20.7939 7.50391 20.7939Z" fill="#FFD900"/>
<path d="M7.50312 19.425C9.19622 19.425 10.5688 17.595 10.5688 15.3375C10.5688 13.08 9.19622 11.25 7.50312 11.25C5.81003 11.25 4.4375 13.08 4.4375 15.3375C4.4375 17.595 5.81003 19.425 7.50312 19.425Z" fill="#DA2032"/>
<path d="M7.50312 18.7502C8.63315 18.7502 9.54922 17.5288 9.54922 16.0221C9.54922 14.5154 8.63315 13.2939 7.50312 13.2939C6.3731 13.2939 5.45703 14.5154 5.45703 16.0221C5.45703 17.5288 6.3731 18.7502 7.50312 18.7502Z" fill="#FFD900"/>
<path d="M7.71484 7.1626C7.61104 7.22315 7.52189 7.32096 7.45733 7.44511C7.39278 7.56926 7.35535 7.71487 7.34922 7.86572C7.33516 8.1001 7.4125 8.3626 7.41953 8.5876C7.41953 8.98135 7.11719 9.1126 7.11719 9.66572C7.11719 9.85322 7.25078 10.0688 7.25078 10.5657C7.22266 10.8282 7.11016 10.8938 6.99062 10.9126C6.95678 10.9126 6.92328 10.9036 6.89211 10.886C6.86093 10.8685 6.83271 10.8428 6.80911 10.8105C6.78551 10.7781 6.76701 10.7398 6.75471 10.6978C6.74241 10.6557 6.73656 10.6108 6.7375 10.5657C6.73732 10.4784 6.76252 10.3944 6.80781 10.3313C6.81669 10.3211 6.82609 10.3117 6.83594 10.3032C6.89219 10.2188 6.97656 10.1907 6.97656 9.98447C6.97656 9.88135 6.92031 9.77822 6.87109 9.59072C6.82188 9.40322 6.85703 9.10322 6.96953 8.9251C6.78672 9.01885 6.68125 9.24385 6.61797 9.4501C6.56172 9.70322 6.61797 9.84385 6.53359 10.0595C6.48438 10.1907 6.42812 10.247 6.37187 10.3595C6.30156 10.4907 6.23125 10.772 6.23125 10.9126C6.25517 11.3421 6.40001 11.7436 6.63671 12.0366C6.8734 12.3296 7.18444 12.4925 7.50742 12.4925C7.83041 12.4925 8.14145 12.3296 8.37814 12.0366C8.61483 11.7436 8.75967 11.3421 8.78359 10.9126C8.78359 10.772 8.70625 10.4907 8.64297 10.3595C8.57969 10.247 8.52344 10.1907 8.47422 10.0595C8.38984 9.84385 8.44609 9.70322 8.38281 9.4501C8.32656 9.24385 8.22109 9.01885 8.03828 8.9251C8.15078 9.1126 8.17891 9.4126 8.13672 9.59072C8.0875 9.77822 8.03828 9.87197 8.03828 9.98447C8.03828 10.1907 8.11563 10.2188 8.17891 10.3032C8.18635 10.312 8.19339 10.3214 8.2 10.3313C8.24529 10.3944 8.27049 10.4784 8.27031 10.5657C8.27125 10.6108 8.2654 10.6557 8.2531 10.6978C8.2408 10.7398 8.22231 10.7781 8.19871 10.8105C8.17511 10.8428 8.14688 10.8685 8.11571 10.886C8.08453 10.9036 8.05103 10.9126 8.01719 10.9126C7.87656 10.8845 7.77109 10.8001 7.75703 10.5657C7.75703 9.90947 7.96797 9.87197 7.96797 9.38447C7.96797 8.69072 7.50391 8.3626 7.50391 7.85635C7.50391 7.6876 7.53203 7.3876 7.71484 7.1626ZM1.87891 21.4688H4.43125V37.8282H1.87891V21.4688ZM10.5695 21.4688H13.1289V37.8282H10.5695V21.4688ZM4.94453 21.4688H10.0563L7.50391 23.5126L4.94453 21.4688ZM4.94453 24.1876H10.0563V25.5563H4.94453V24.1876ZM4.94453 33.7407H10.0563V35.1095H4.94453V33.7407ZM4.94453 35.7845H10.0563L7.50391 37.8282L4.94453 35.7845Z" fill="#FFD900"/>
<path d="M7.50078 33.075C8.91428 33.075 10.0602 31.5472 10.0602 29.6625C10.0602 27.7778 8.91428 26.25 7.50078 26.25C6.08728 26.25 4.94141 27.7778 4.94141 29.6625C4.94141 31.5472 6.08728 33.075 7.50078 33.075Z" fill="#FFD900"/>
<path d="M7.5016 28.5316C7.78401 28.5316 8.01296 28.2263 8.01296 27.8498C8.01296 27.4732 7.78401 27.168 7.5016 27.168C7.21918 27.168 6.99023 27.4732 6.99023 27.8498C6.99023 28.2263 7.21918 28.5316 7.5016 28.5316Z" fill="#DA2032"/>
<path d="M7.5016 32.1454C7.78401 32.1454 8.01296 31.8401 8.01296 31.4636C8.01296 31.087 7.78401 30.7817 7.5016 30.7817C7.21918 30.7817 6.99023 31.087 6.99023 31.4636C6.99023 31.8401 7.21918 32.1454 7.5016 32.1454Z" fill="#DA2032"/>
<path d="M7.5007 25.8384C7.90079 25.8384 8.28449 26.0503 8.56739 26.4275C8.85029 26.8047 9.00922 27.3163 9.00922 27.8497C9.00922 28.3832 8.85029 28.8948 8.56739 29.272C8.28449 29.6492 7.90079 29.8611 7.5007 29.8611C7.18199 29.8611 6.87634 30.0299 6.65097 30.3304C6.42561 30.6309 6.299 31.0384 6.299 31.4634C6.299 31.8883 6.42561 32.2958 6.65097 32.5963C6.87634 32.8968 7.18199 33.0656 7.5007 33.0656V33.4747C7.10062 33.4747 6.71692 33.2628 6.43402 32.8856C6.15112 32.5084 5.99219 31.9968 5.99219 31.4634C5.99219 30.9299 6.15112 30.4183 6.43402 30.0411C6.71692 29.6639 7.10062 29.452 7.5007 29.452C7.81942 29.452 8.12507 29.2832 8.35043 28.9827C8.5758 28.6822 8.7024 28.2747 8.7024 27.8497C8.7024 27.4248 8.5758 27.0172 8.35043 26.7168C8.12507 26.4163 7.81942 26.2475 7.5007 26.2475V25.8384Z" fill="#DA2032"/>
</g>
<defs>
<clipPath id="clip0_45_17571">
<rect width="45" height="45" fill="white"/>
</clipPath>
</defs>
</svg>
