<svg width="45" height="45" viewBox="0 0 45 45" fill="none" xmlns="http://www.w3.org/2000/svg">
<g clip-path="url(#clip0_45_17719)">
<path d="M0 0H45V45H0V0Z" fill="#CD2A3E"/>
<path d="M0 6.75H45V38.25H0V6.75Z" fill="#006233"/>
<path d="M33.0469 14.4937C33.0469 18.2233 31.9357 21.8001 29.9578 24.4373C27.9799 27.0746 25.2972 28.5562 22.5 28.5562C19.7028 28.5562 17.0202 27.0746 15.0422 24.4373C13.0643 21.8001 11.9531 18.2233 11.9531 14.4937C11.7187 15.6936 11.6006 16.9287 11.6016 18.1687C11.6016 22.0226 12.7498 25.7187 14.7936 28.4438C16.8375 31.1689 19.6096 32.6999 22.5 32.6999C25.3905 32.6999 28.1625 31.1689 30.2064 28.4438C32.2502 25.7187 33.3984 22.0226 33.3984 18.1687C33.3998 16.9286 33.2816 15.6935 33.0469 14.4937Z" fill="#FFC400"/>
<path d="M22.5 8.79395L21.5508 12.6846H18.4922L20.9742 15.0846L20.025 18.9658L22.507 16.5658L24.9891 18.9658L24.0398 15.0846L26.5219 12.6846H23.4562L22.5 8.79395Z" fill="#FFC400"/>
</g>
<defs>
<clipPath id="clip0_45_17719">
<rect width="45" height="45" fill="white"/>
</clipPath>
</defs>
</svg>
