<svg width="45" height="45" viewBox="0 0 45 45" fill="none" xmlns="http://www.w3.org/2000/svg">
<g clip-path="url(#clip0_45_17724)">
<path d="M0 0H45V45H0V0Z" fill="#012169"/>
<path d="M27.0641 10.4062H41.5133L41.4922 24.1219C41.6117 29.625 39.0383 33.0469 34.2992 34.5938C30.9312 33.4688 27.057 31.1719 27.043 24.2812L27.0641 10.4062Z" fill="white"/>
<path d="M27.3812 10.8188H41.1906L41.1766 23.9626C41.2891 29.2407 38.8281 32.5126 34.3 33.9938C31.0797 32.9251 27.3742 30.7126 27.3672 24.1126L27.3812 10.8188Z" fill="#00A2BD"/>
<path fill-rule="evenodd" clip-rule="evenodd" d="M27.4413 10.9031L27.4273 24.1124C27.4308 27.3878 28.3509 29.5675 29.6665 31.0631C30.9809 32.5573 32.6942 33.3734 34.297 33.9068C36.5465 33.1682 38.2758 31.9875 39.4292 30.3443C40.5837 28.6994 41.166 26.5843 41.1102 23.9649L41.1102 23.9636L41.1241 10.9031H27.4413ZM27.3781 10.8187V10.7344H41.2509L41.2367 23.9613C41.2932 26.6195 40.7012 28.779 39.5216 30.4596C38.3432 32.1385 36.5831 33.3327 34.312 34.0757L34.2968 34.0807L34.2816 34.0756C32.6684 33.5402 30.9255 32.7161 29.5844 31.1916C28.2405 29.6638 27.3043 27.4372 27.3008 24.1126V24.1124L27.3148 10.8186L27.3781 10.8187Z" fill="black"/>
<path d="M41.082 25.5186C40.5758 30.5529 37.6648 32.7561 34.2969 33.9279C31.3086 32.8592 28.0953 31.1529 27.4766 25.5373L41.082 25.5186Z" fill="#A53D08"/>
<path d="M33.7516 13.2657L33.7305 11.6157L34.7148 11.6251L34.7219 13.2657H37.4078L37.4148 14.5501L34.7219 14.5688L34.7008 29.7001L33.7445 29.7095L33.7305 14.5501L31.0586 14.5688V13.2563L33.7516 13.2657Z" fill="black"/>
<path fill-rule="evenodd" clip-rule="evenodd" d="M31.572 26.1376L34.0329 29.5407C34.8837 28.2938 34.2931 23.6345 33.1751 22.7813C33.0415 23.3345 32.8165 24.0001 32.5704 24.2063C32.0431 24.6938 30.7353 25.2563 31.1712 25.6126C31.2696 25.4345 31.5298 25.2657 31.6564 25.6688C31.797 26.3157 31.1079 26.3532 31.1079 26.3532C31.1079 26.3532 30.672 26.2782 30.5946 25.697C30.5243 25.097 31.2485 24.5532 31.3118 24.5157C31.3681 24.4876 32.3173 24.1407 32.479 23.0251C32.6829 21.9188 32.8868 22.0876 32.922 22.0688C34.1665 22.2282 34.9751 25.1907 35.0243 27.272C35.0665 29.3532 34.3915 30.7407 34.265 30.8345C34.1454 30.9188 31.3118 26.3438 31.3118 26.3438L31.579 26.1376H31.572Z" fill="#FF9A08"/>
<path fill-rule="evenodd" clip-rule="evenodd" d="M32.9148 22.0308L32.9216 22.0316C33.241 22.0725 33.5306 22.2932 33.7853 22.6299C34.0399 22.9665 34.2609 23.4209 34.4437 23.9337C34.8093 24.9593 35.0246 26.2253 35.0493 27.2709L35.0493 27.2711C35.0705 28.3173 34.9115 29.1894 34.731 29.8122C34.6408 30.1235 34.5452 30.3728 34.4638 30.5506C34.4232 30.6395 34.3859 30.7108 34.3545 30.7633C34.3388 30.7896 34.3244 30.8114 34.3116 30.8285C34.299 30.8452 34.2868 30.859 34.2755 30.8674L34.275 30.8677C34.2648 30.875 34.2545 30.8736 34.2483 30.8718C34.2417 30.8699 34.2354 30.8662 34.2298 30.8624C34.2186 30.8545 34.2056 30.8424 34.1915 30.8274C34.163 30.7973 34.1255 30.7513 34.0809 30.6925C33.9914 30.5747 33.8704 30.4023 33.7291 30.1937C33.4464 29.7762 33.0807 29.2119 32.719 28.6452C32.3573 28.0785 31.9993 27.5091 31.7317 27.0815C31.598 26.8677 31.4868 26.6893 31.4091 26.5643C31.3702 26.5018 31.3397 26.4527 31.3189 26.4192L31.2871 26.3679C31.287 26.3679 31.287 26.3678 31.3029 26.3504L31.2871 26.3679L31.2806 26.3574C31.2571 26.3644 31.2349 26.37 31.2148 26.3744C31.1829 26.3814 31.1558 26.3854 31.1367 26.3878C31.1272 26.389 31.1196 26.3897 31.1143 26.3902C31.1117 26.3904 31.1097 26.3906 31.1083 26.3907L31.1066 26.3908L31.1062 26.3908L31.106 26.3908C31.106 26.3908 31.106 26.3908 31.1048 26.3533C31.1012 26.3905 31.1012 26.3905 31.1012 26.3905L31.101 26.3905L31.1007 26.3904L31.0995 26.3902C31.0986 26.39 31.0972 26.3898 31.0954 26.3894C31.0919 26.3886 31.0868 26.3874 31.0805 26.3858C31.0677 26.3824 31.0496 26.377 31.0277 26.3686C30.984 26.3518 30.9249 26.3232 30.8631 26.2757C30.7391 26.1801 30.6043 26.0077 30.5638 25.7036L30.5637 25.7029C30.5449 25.5418 30.5796 25.3866 30.6407 25.2459C30.7017 25.1053 30.7899 24.9769 30.8812 24.8676C31.0636 24.6494 31.2629 24.5019 31.2973 24.4816L31.2981 24.4811L31.2988 24.4807C31.3024 24.479 31.3089 24.4761 31.3181 24.4721C31.3873 24.4422 31.6069 24.347 31.8374 24.1469C32.0984 23.9203 32.3694 23.5622 32.4483 23.0181L32.4484 23.0172L32.4486 23.0163C32.5507 22.4621 32.6542 22.2181 32.7417 22.1116C32.7865 22.0571 32.8272 22.0385 32.8603 22.0335C32.8765 22.031 32.8901 22.0319 32.8996 22.0326L32.8997 22.0326C32.9047 22.033 32.9077 22.0332 32.91 22.0331C32.9101 22.0331 32.9102 22.0331 32.9103 22.0331L32.9148 22.0308ZM32.9114 22.033C32.9114 22.033 32.9113 22.0331 32.9113 22.0331L32.9114 22.033ZM31.1048 26.3533L31.1012 26.3905L31.1036 26.3909L31.106 26.3908L31.1048 26.3533ZM31.1061 26.3157C31.1073 26.3156 31.1088 26.3155 31.1107 26.3153C31.1155 26.3149 31.1225 26.3142 31.1316 26.3131C31.1496 26.3109 31.1753 26.307 31.2057 26.3004C31.2606 26.2884 31.33 26.2676 31.3974 26.2322L31.5262 26.1327L31.5027 26.1002H31.5593C31.576 26.0785 31.5908 26.0547 31.6031 26.0287C31.6429 25.9449 31.6593 25.8333 31.6267 25.6815C31.5967 25.5868 31.5601 25.5292 31.5225 25.4964C31.4849 25.4637 31.4442 25.454 31.4033 25.4601C31.3198 25.4727 31.2366 25.552 31.1907 25.635L31.1754 25.6627L31.1534 25.6447C31.0955 25.5974 31.06 25.5413 31.0535 25.4748C31.0471 25.4091 31.0703 25.3457 31.1071 25.2871C31.1805 25.1705 31.3243 25.0486 31.493 24.9259C31.6168 24.8358 31.7569 24.7435 31.897 24.6511C31.949 24.6168 32.0011 24.5824 32.0523 24.5482C32.2424 24.4213 32.4213 24.2958 32.5513 24.1756L32.5518 24.1752L32.5523 24.1747C32.6687 24.0772 32.7836 23.8669 32.887 23.6065C32.9897 23.3476 33.0788 23.0451 33.1452 22.77L33.1559 22.7259L33.186 22.7489C33.4731 22.968 33.7228 23.4279 33.9229 24.0065C34.1234 24.5864 34.2761 25.291 34.3669 26.0072C34.4578 26.7234 34.487 27.4528 34.4399 28.0824C34.3929 28.7103 34.2695 29.2453 34.0506 29.5661L34.0304 29.5957L31.5677 26.1901C31.5296 26.2307 31.4865 26.2627 31.443 26.2881C31.4361 26.2921 31.4291 26.2961 31.422 26.2998L31.3516 26.3542L31.3622 26.3714C31.383 26.4049 31.4135 26.454 31.4524 26.5164C31.5301 26.6413 31.6412 26.8197 31.7749 27.0335C32.0424 27.461 32.4003 28.0301 32.7619 28.5966C33.1235 29.1631 33.4887 29.7268 33.7709 30.1434C33.912 30.3518 34.0321 30.5229 34.1204 30.6392C34.1647 30.6974 34.2004 30.7411 34.2264 30.7687C34.2392 30.7821 34.2487 30.7907 34.2552 30.7954C34.2595 30.7909 34.2651 30.7844 34.2718 30.7755C34.2827 30.7609 34.2958 30.7413 34.3105 30.7166C34.3401 30.6671 34.376 30.5985 34.4158 30.5115C34.4953 30.3378 34.5895 30.0925 34.6786 29.7851C34.8567 29.1704 35.0141 28.3082 34.9931 27.2732C34.9686 26.2376 34.755 24.9818 34.3929 23.9659C34.2118 23.4581 33.9942 23.0118 33.7457 22.6831C33.4985 22.3563 33.2219 22.1473 32.921 22.1069C32.917 22.1079 32.9133 22.1081 32.9107 22.1081C32.9065 22.1082 32.9017 22.1079 32.8977 22.1076L32.8966 22.1075C32.8875 22.1069 32.8778 22.1063 32.8667 22.108C32.8454 22.1112 32.8157 22.123 32.7796 22.167C32.7054 22.2573 32.6051 22.4818 32.5034 23.0333C32.4204 23.6043 32.136 23.9771 31.8681 24.2098C31.6298 24.4167 31.4012 24.5151 31.3353 24.5435C31.3278 24.5468 31.3224 24.5491 31.3194 24.5506C31.2879 24.5697 31.0953 24.7122 30.9188 24.9234C30.83 25.0298 30.7464 25.1522 30.6894 25.2834C30.6325 25.4145 30.6031 25.5521 30.6193 25.6909C30.6562 25.9679 30.778 26.1234 30.8912 26.2107C30.9481 26.2545 31.0028 26.281 31.0433 26.2965C31.0634 26.3042 31.08 26.3092 31.0914 26.3122C31.0971 26.3137 31.1015 26.3147 31.1044 26.3153C31.105 26.3155 31.1056 26.3156 31.1061 26.3157ZM31.6166 26.1496L34.0288 29.4855C34.2234 29.1794 34.3388 28.6777 34.3839 28.0749C34.4304 27.4534 34.4017 26.7309 34.3115 26.0197C34.2212 25.3086 34.0698 24.6106 33.8718 24.0379C33.6806 23.485 33.4476 23.0541 33.1878 22.8378C33.1219 23.1036 33.0358 23.3919 32.9367 23.6416C32.8328 23.9034 32.7123 24.1289 32.5828 24.2378C32.4492 24.3612 32.2671 24.4887 32.0775 24.6153C32.0256 24.6499 31.9732 24.6845 31.921 24.7189C31.7812 24.8111 31.6427 24.9025 31.5199 24.9917C31.3503 25.1151 31.2159 25.2311 31.1502 25.3354C31.1175 25.3873 31.1059 25.43 31.1093 25.4652C31.1122 25.4945 31.1264 25.5275 31.1622 25.5624C31.2171 25.4775 31.3043 25.3996 31.397 25.3856C31.4492 25.3777 31.5034 25.3902 31.5533 25.4337C31.6029 25.4769 31.646 25.5487 31.6792 25.6545L31.6798 25.6565L31.6803 25.6585C31.7173 25.8291 31.7004 25.9641 31.6507 26.0688C31.6455 26.0797 31.6401 26.0901 31.6343 26.1002H31.6806L31.6166 26.1496Z" fill="black"/>
<path d="M33.3719 22.9688L33.3859 29.1094L33.3719 22.9688ZM33.0906 23.0906L33.1117 28.6594L33.0906 23.0906ZM32.7953 23.8969L32.8094 28.3219L32.7953 23.8969ZM32.5492 24.2063L32.5633 27.8719L32.5492 24.2063ZM32.2891 24.375V27.4688V24.375ZM32.0078 24.6188V27.0656V24.6188ZM31.7617 24.8156V26.6906V24.8156Z" fill="#FF9A08"/>
<path fill-rule="evenodd" clip-rule="evenodd" d="M33.3547 29.1096L33.3406 22.969L33.3969 22.9688L33.4109 29.1094L33.3547 29.1096ZM33.0805 28.6597L33.0594 23.0909L33.1156 23.0906L33.1367 28.6593L33.0805 28.6597ZM32.7781 28.3221L32.7641 23.8971L32.8203 23.8968L32.8344 28.3218L32.7781 28.3221ZM32.532 27.8722L32.518 24.2066L32.5742 24.2062L32.5883 27.8718L32.532 27.8722ZM32.2578 27.4689V24.3751H32.3141V27.4689H32.2578ZM31.9766 27.0657V24.6189H32.0328V27.0657H31.9766ZM31.7305 26.6907V24.8157H31.7867V26.6907H31.7305Z" fill="black"/>
<path fill-rule="evenodd" clip-rule="evenodd" d="M31.5174 26.5029C31.5291 26.4893 31.5469 26.4909 31.5571 26.5065L34.0884 30.369C34.0986 30.3846 34.0974 30.4083 34.0857 30.4219C34.074 30.4355 34.0562 30.4339 34.046 30.4183L31.5148 26.5558C31.5045 26.5402 31.5057 26.5165 31.5174 26.5029Z" fill="#FFDF00"/>
<path fill-rule="evenodd" clip-rule="evenodd" d="M34.173 24.0325C34.1984 24.017 34.2285 24.0318 34.2401 24.0657L34.1941 24.0939C34.2401 24.0657 34.2401 24.0657 34.2401 24.0657L34.2404 24.0665L34.2411 24.0685L34.2436 24.076C34.2459 24.0827 34.2491 24.0925 34.2533 24.1053C34.2616 24.131 34.2736 24.1687 34.2885 24.2177C34.3183 24.3156 34.3595 24.4583 34.4055 24.6379C34.4976 24.9971 34.6091 25.5048 34.687 26.0991C34.8426 27.2862 34.8651 28.8267 34.3235 30.2187C34.3106 30.2518 34.28 30.2647 34.2552 30.2476C34.2304 30.2304 34.2207 30.1896 34.2336 30.1566C34.7607 28.8017 34.741 27.2953 34.5872 26.1223C34.5104 25.5365 34.4005 25.0357 34.3097 24.6816C34.2643 24.5045 34.2238 24.3643 34.1947 24.2684C34.1801 24.2205 34.1684 24.1837 34.1604 24.159C34.1564 24.1466 34.1533 24.1373 34.1512 24.1311L34.1489 24.1242L34.1483 24.1225L34.1482 24.1221C34.1482 24.1221 34.1482 24.1221 34.1482 24.1221M34.173 24.0325C34.1476 24.0481 34.1365 24.0883 34.1482 24.1221L34.173 24.0325ZM31.0825 24.9216C31.1007 24.9498 31.0984 24.9925 31.0772 25.0168L31.0771 25.017L31.0763 25.018C31.0755 25.0188 31.0744 25.0202 31.0728 25.022C31.0698 25.0257 31.0652 25.0313 31.0594 25.0386C31.0478 25.0531 31.0313 25.0745 31.0123 25.1012C30.9741 25.155 30.9264 25.2294 30.8865 25.3135C30.8464 25.3983 30.8165 25.4883 30.8097 25.574C30.8032 25.6567 30.8179 25.7367 30.87 25.81C30.8892 25.837 30.8883 25.8797 30.868 25.9054C30.8477 25.931 30.8157 25.9299 30.7964 25.9028C30.7219 25.798 30.6997 25.6776 30.709 25.5599C30.7181 25.4451 30.7567 25.3348 30.8009 25.2414C30.8455 25.1474 30.8979 25.0659 30.9388 25.0084C30.9594 24.9795 30.9772 24.9563 30.99 24.9403C30.9964 24.9322 31.0015 24.926 31.0051 24.9217C31.0069 24.9195 31.0084 24.9178 31.0094 24.9166L31.0105 24.9153L31.0109 24.9149L31.011 24.9147C31.011 24.9147 31.011 24.9147 31.0441 24.9658L31.011 24.9147C31.0322 24.8903 31.0642 24.8934 31.0825 24.9216ZM31.2882 25.8433L31.2883 25.843L31.2888 25.8412C31.2894 25.8395 31.2902 25.8369 31.2913 25.8335C31.2935 25.8268 31.2968 25.8171 31.3011 25.8057C31.3098 25.7825 31.3219 25.7545 31.336 25.7308C31.3509 25.7058 31.3638 25.6931 31.3727 25.6891C31.3767 25.6874 31.3833 25.6846 31.3977 25.7011C31.4188 25.7256 31.4508 25.7225 31.4691 25.6943C31.4874 25.6662 31.4851 25.6235 31.464 25.5991C31.4256 25.5548 31.3822 25.5426 31.3407 25.561C31.3041 25.5773 31.2761 25.6144 31.2568 25.6468C31.2366 25.6805 31.221 25.7175 31.2106 25.7451C31.2053 25.759 31.2012 25.7711 31.1984 25.7797C31.197 25.7841 31.1959 25.7876 31.1951 25.7901L31.1942 25.7931L31.1939 25.794L31.1939 25.7943L31.1938 25.7944C31.1938 25.7945 31.1938 25.7945 31.241 25.8189L31.1938 25.7944C31.1837 25.8292 31.1967 25.8684 31.2227 25.8818C31.2488 25.8953 31.2781 25.878 31.2882 25.8433Z" fill="#FFDF00"/>
<path d="M34.734 16.4439C34.8957 16.2564 34.9871 16.1345 35.0926 16.1627C35.198 16.1814 35.3387 16.1627 35.4441 16.1252C35.7209 16.0395 36.0075 16.0267 36.2879 16.0877C36.3582 16.1064 36.4637 16.1533 36.6113 16.322C36.759 16.4908 36.9769 16.7908 36.9066 17.597C36.8363 18.4033 36.8574 18.7502 36.8223 19.2095C36.766 20.0064 36.6324 20.6627 36.4004 20.6158C36.7168 21.3658 36.7519 22.022 36.9629 22.5377C37.1738 23.0533 37.3004 24.1127 37.223 25.2564C37.1387 26.4095 36.9137 28.9783 37.5957 30.7127C37.4832 30.8158 37.209 30.7127 36.9629 30.3658C36.7168 30.0189 36.6113 30.0283 36.4144 30.2345C35.7957 30.8627 35.2191 31.622 34.3683 30.8627C34.1715 30.6939 34.1152 30.4877 34.2559 29.9533C34.6074 28.6408 34.7832 26.822 34.7269 25.9783V16.4439H34.734Z" fill="#008021"/>
<path fill-rule="evenodd" clip-rule="evenodd" d="M35.4475 16.1387C35.341 16.1765 35.199 16.1955 35.092 16.1765L35.0913 16.1764C35.0426 16.1634 34.9963 16.1845 34.941 16.234C34.8956 16.2747 34.8454 16.3333 34.7841 16.4049C34.7706 16.4208 34.7564 16.4373 34.7417 16.4544L34.7387 16.4579H34.7383V25.9776C34.7664 26.4011 34.7364 27.0677 34.6555 27.792C34.5746 28.5168 34.4426 29.3005 34.2666 29.9578C34.1964 30.2245 34.1761 30.4066 34.1967 30.5422C34.217 30.6766 34.2778 30.7675 34.3748 30.8507L34.375 30.8509C34.5865 31.0397 34.7805 31.1336 34.9618 31.1591C35.1432 31.1846 35.3126 31.1418 35.4753 31.0557C35.7436 30.9138 35.9923 30.6552 36.2448 30.3925C36.2992 30.3359 36.3538 30.2792 36.4087 30.2233C36.5073 30.1201 36.586 30.0626 36.6724 30.0787C36.7582 30.0947 36.8483 30.1826 36.9713 30.356C37.0934 30.5281 37.2222 30.6393 37.3338 30.6947C37.4407 30.7477 37.5295 30.7486 37.5826 30.7076C37.244 29.8396 37.1306 28.7663 37.1122 27.7668C37.0952 26.8432 37.1593 25.9812 37.2026 25.4004C37.2063 25.3497 37.2099 25.3012 37.2133 25.255C37.2519 24.6842 37.2396 24.1345 37.1914 23.6633C37.1431 23.1918 37.059 22.8 36.9544 22.5443C36.86 22.3136 36.8007 22.055 36.7362 21.7744C36.7282 21.7395 36.7201 21.7042 36.7119 21.6687C36.6372 21.3466 36.5496 20.9962 36.392 20.6226L36.3814 20.5975L36.4027 20.6018C36.4563 20.6126 36.5048 20.5834 36.5493 20.5183C36.5939 20.4529 36.6336 20.3524 36.6681 20.2242C36.7371 19.9681 36.7844 19.6061 36.8125 19.2081L36.8125 19.208C36.8267 19.0224 36.8317 18.8553 36.8373 18.6682C36.8387 18.6243 36.84 18.5793 36.8415 18.5327C36.8494 18.2875 36.8617 17.9989 36.8969 17.5953C36.9319 17.1941 36.8951 16.9201 36.8318 16.726C36.7686 16.5319 36.6785 16.4164 36.6052 16.3326C36.459 16.1655 36.3553 16.1197 36.2868 16.1014C36.0079 16.0408 35.7227 16.0535 35.4475 16.1387ZM34.7308 16.4297C34.7442 16.4141 34.7572 16.399 34.7698 16.3843C34.8311 16.3126 34.8826 16.2525 34.9293 16.2107C34.9864 16.1595 35.0385 16.1337 35.0951 16.1487C35.1988 16.167 35.3379 16.1486 35.4422 16.1115L35.4425 16.1114C35.7206 16.0252 36.0086 16.0125 36.2904 16.0737L36.2907 16.0738C36.3629 16.093 36.47 16.141 36.619 16.3113C36.6933 16.3962 36.7861 16.5151 36.8512 16.7148C36.9162 16.9144 36.9532 17.1936 36.9179 17.5986C36.8828 18.0012 36.8705 18.2892 36.8626 18.5339C36.8611 18.5803 36.8597 18.6251 36.8584 18.669C36.8528 18.8561 36.8478 19.0243 36.8335 19.2108C36.8054 19.6096 36.7578 19.9743 36.6879 20.2337C36.653 20.3634 36.6122 20.4679 36.5649 20.5373C36.5225 20.5993 36.4742 20.634 36.4201 20.632C36.5728 20.9997 36.6588 21.3445 36.732 21.6604C36.7403 21.696 36.7484 21.7312 36.7564 21.766C36.8209 22.0471 36.8796 22.3028 36.9729 22.5308C37.0793 22.7908 37.1639 23.1864 37.2123 23.6595C37.2607 24.1328 37.2731 24.6847 37.2343 25.2576L37.2343 25.2577C37.2309 25.3039 37.2273 25.3524 37.2236 25.4031C37.1803 25.984 37.1163 26.8444 37.1333 27.7661C37.1517 28.7684 37.2659 29.8417 37.6058 30.706L37.6102 30.7171L37.6024 30.7241C37.5419 30.7797 37.4409 30.7778 37.3265 30.7211C37.2114 30.6639 37.08 30.5501 36.956 30.3753C36.8329 30.2019 36.7473 30.1211 36.6695 30.1066C36.5925 30.0922 36.5201 30.1425 36.4217 30.2455L36.4216 30.2456C36.3671 30.3009 36.3129 30.3574 36.2587 30.4138C36.0061 30.6765 35.7544 30.9383 35.4831 31.0819C35.3179 31.1693 35.145 31.2132 34.9596 31.1871C34.7743 31.161 34.5772 31.0651 34.3633 30.8743C34.2636 30.7888 34.1978 30.6922 34.176 30.5478C34.1543 30.4044 34.1762 30.2163 34.2467 29.9485C34.4222 29.2934 34.5539 28.5114 34.6347 27.7878C34.7155 27.0641 34.7452 26.3997 34.7172 25.9794L34.7171 25.9782L34.7172 16.4297H34.7308Z" fill="black"/>
<path d="M35.3174 15.6377C35.3734 15.8442 35.3709 16.071 35.3103 16.2752C35.24 16.5002 35.2189 16.7439 35.3455 17.0627C35.5353 16.6877 35.8095 16.7627 35.9783 16.5564C36.133 16.3408 36.1681 16.1346 36.2877 16.0877C36.1681 15.9471 35.9853 15.7877 36.0205 15.3846C36.0627 14.9721 36.4916 14.6346 36.1049 14.0158C36.047 13.9168 35.9715 13.8386 35.8852 13.7886C35.7989 13.7386 35.7045 13.7182 35.6107 13.7294C35.517 13.7406 35.4268 13.783 35.3486 13.8527C35.2703 13.9224 35.2064 14.0171 35.1627 14.1283C35.1416 14.2033 35.1767 14.3533 35.1134 14.4471C35.0713 14.5221 35.022 14.5877 34.9658 14.6346C34.9306 14.6721 34.9095 14.7189 34.9517 14.7846C34.9658 14.8127 34.9939 14.8127 35.022 14.8221L34.9658 14.9627C34.9447 14.9908 34.9517 15.0189 34.9799 15.0564C34.9447 15.1783 35.008 15.1971 34.9658 15.2908C34.9236 15.3752 34.8814 15.4783 35.008 15.5721C35.0502 15.6002 35.2189 15.6471 35.3174 15.6377ZM33.7353 17.7939C33.5103 17.8689 33.1447 17.7377 32.8705 17.7752C32.7439 17.7939 32.6455 17.7096 32.6595 17.5502C32.6806 17.3908 32.7017 17.1377 32.6736 16.9127C32.6762 16.428 32.7679 15.9516 32.9408 15.5252C33.0798 15.188 33.1704 14.8192 33.208 14.4377C33.208 14.2596 33.222 14.0721 33.3345 13.9689C33.4189 13.9033 33.433 13.8377 33.4611 13.7814C33.5314 13.6408 33.6017 13.6127 33.6017 13.6877C33.6088 13.7346 33.6017 13.7814 33.5666 13.8377C33.6369 13.7627 33.7634 13.6689 33.7916 13.6502C33.8197 13.6127 33.9603 13.4814 33.9674 13.6127C34.0236 13.5752 34.0658 13.5752 34.0799 13.6127C34.0939 13.6596 34.0799 13.6783 34.0588 13.7064C34.1009 13.7064 34.1431 13.7908 34.0588 13.8752C34.108 13.8564 34.1502 13.9502 34.0728 14.0346C34.0025 14.1283 33.9041 14.1846 33.883 14.2596C33.8549 14.3346 33.658 14.5314 33.5806 14.5689C33.5033 14.6158 33.4963 14.6721 33.4963 14.8221C33.4963 16.4908 33.3556 16.3502 33.3556 16.7627C33.3556 16.8564 33.3345 16.9596 33.4119 16.9314C33.4963 16.8939 33.6158 16.8471 33.7353 16.8471V17.7846V17.7939ZM33.7845 21.3752C34.1502 21.1314 34.572 21.0377 34.79 20.9627C35.0426 20.8549 35.2874 20.7169 35.5213 20.5502C35.697 20.4283 35.8377 20.2689 35.9361 20.2221C36.0514 20.1732 36.1475 20.0653 36.2033 19.9221C36.4803 19.2994 36.6463 18.6001 36.6884 17.8783C36.6884 17.5033 36.6181 17.0721 36.3369 17.3721C36.05 17.7018 35.8361 18.1297 35.7181 18.6096C35.6056 19.2096 35.5072 19.3502 35.4861 19.4627C35.458 19.5846 35.3736 19.5846 35.2611 19.6127C34.9058 19.6865 34.5739 19.8947 34.3049 20.2127C33.9858 20.5276 33.6523 20.8156 33.3064 21.0752C33.0463 21.2721 32.997 21.2908 32.9408 21.4502C32.8845 21.6002 32.8283 21.7314 32.7861 21.7877C32.7299 21.8627 32.7158 21.9377 32.7299 22.0314C32.7369 22.1064 32.7158 22.4252 32.7088 22.5377C32.7088 22.6502 32.7299 22.6689 32.758 22.6783C32.7861 22.6783 32.8283 22.6596 32.8494 22.5283C32.8353 22.6596 32.9689 22.6221 32.9759 22.5189C32.9759 22.6596 33.1166 22.5752 33.1166 22.4439C33.1166 22.5377 33.2361 22.4721 33.2361 22.4439C33.2642 22.3221 33.2853 22.2096 33.3205 22.1252C33.3627 21.9939 33.4119 21.8252 33.5103 21.7502C33.6158 21.6377 33.5666 21.5252 33.7845 21.3752ZM36.4142 30.2346C36.4353 30.3564 36.4845 30.4877 36.4986 30.5721C36.5127 30.6471 36.4845 30.6752 36.4705 30.7221C36.376 30.9833 36.3097 31.2611 36.2736 31.5471C36.2736 31.6596 36.2033 31.7721 36.1822 31.8471C36.147 31.9221 36.1611 31.9877 36.2385 32.0627C36.2666 32.0908 36.3791 32.0439 36.3861 31.9689C36.4353 32.0252 36.4986 32.0064 36.5338 31.9221C36.5759 31.9689 36.6392 31.9408 36.6744 31.8564C36.7095 31.8846 36.7658 31.8283 36.7869 31.7814C36.8431 31.8189 36.8994 31.7814 36.8994 31.6314C36.8994 31.5939 36.9205 31.5377 36.9345 31.5096C36.9486 31.4721 36.9556 31.4064 36.9556 31.3502C36.9556 31.2846 36.9767 31.1627 37.0189 31.0877C37.0611 30.9939 37.1244 30.8533 37.0963 30.7127C37.0681 30.5814 37.0259 30.5908 36.9908 30.4127C36.8994 30.2814 36.7799 30.1127 36.6533 30.0939C36.5267 30.0939 36.4564 30.1971 36.4142 30.2346ZM34.1009 31.1627C34.2205 31.3127 34.4736 31.3127 34.6494 31.0689C34.5861 31.0314 34.4384 30.9377 34.3822 30.8814C34.3037 30.9997 34.208 31.0954 34.1009 31.1627Z" fill="#FFE1CF"/>
<path fill-rule="evenodd" clip-rule="evenodd" d="M33.8911 13.582C33.8531 13.6022 33.8122 13.6432 33.7991 13.6607L33.7978 13.6624L33.7961 13.6635C33.7683 13.682 33.6425 13.7752 33.5731 13.8493L33.5575 13.828C33.5908 13.7747 33.5965 13.7323 33.5902 13.6905L33.59 13.689V13.6876C33.59 13.6715 33.5863 13.6658 33.5837 13.6639C33.5805 13.6615 33.5737 13.6605 33.5618 13.6673C33.5383 13.6809 33.5047 13.7203 33.47 13.7896C33.4646 13.8004 33.4596 13.8119 33.4545 13.8238C33.4338 13.8715 33.4097 13.9272 33.3401 13.9815C33.2333 14.0798 33.2188 14.259 33.2188 14.4376V14.4385L33.2187 14.4395C33.1809 14.8228 33.0899 15.1934 32.9502 15.5322C32.7784 15.9561 32.6871 16.4296 32.6844 16.9114C32.7126 17.1384 32.6913 17.3925 32.6702 17.5522C32.6637 17.6268 32.6834 17.6822 32.7186 17.7174C32.7543 17.7531 32.8074 17.7692 32.8688 17.7602L32.8689 17.7601C32.9947 17.7429 33.1394 17.7609 33.2798 17.7784C33.2939 17.7801 33.3079 17.7819 33.3219 17.7836C33.4722 17.8019 33.6144 17.8153 33.7236 17.782V16.8621C33.6098 16.8649 33.4965 16.9093 33.415 16.9455L33.4144 16.9458C33.3939 16.9532 33.377 16.9532 33.3642 16.9428C33.3512 16.9323 33.3456 16.9139 33.3432 16.8952C33.3408 16.8764 33.3411 16.8541 33.3418 16.8317C33.3421 16.8254 33.3423 16.819 33.3426 16.8126C33.3432 16.7959 33.3439 16.7792 33.3439 16.7626C33.3439 16.658 33.3529 16.5883 33.3662 16.5164C33.3707 16.4925 33.3755 16.4687 33.3807 16.4435C33.3911 16.3924 33.4027 16.3354 33.4145 16.2603C33.4494 16.0367 33.4845 15.6559 33.4845 14.8219C33.4845 14.7475 33.4862 14.693 33.4985 14.6512C33.5114 14.6077 33.5352 14.5796 33.5755 14.5552L33.5763 14.5547C33.6132 14.5368 33.6806 14.4795 33.743 14.4162C33.774 14.3848 33.8033 14.3523 33.8266 14.3232C33.8499 14.294 33.866 14.2695 33.8722 14.2534C33.8784 14.232 33.8896 14.2129 33.9033 14.1951C33.9172 14.177 33.9343 14.1595 33.9523 14.1419C33.959 14.1354 33.9658 14.1288 33.9727 14.1222C34.0037 14.0925 34.0363 14.0613 34.0644 14.0238L34.0648 14.0233L34.0652 14.0228C34.1016 13.9831 34.1073 13.9444 34.102 13.9203C34.0966 13.896 34.0796 13.8825 34.0614 13.8895L34.0515 13.8631C34.0917 13.8229 34.0987 13.786 34.0948 13.7623C34.0906 13.7374 34.074 13.7213 34.0583 13.7213H34.0311L34.0503 13.6957C34.0613 13.681 34.0683 13.6715 34.0716 13.6607C34.0745 13.6514 34.0752 13.6394 34.0691 13.6187C34.0645 13.6069 34.0552 13.5994 34.039 13.5994C34.0221 13.5994 33.9993 13.6077 33.9719 13.626L33.9569 13.636L33.9557 13.6136C33.9549 13.599 33.9523 13.5895 33.9492 13.5834C33.9462 13.5776 33.9423 13.5741 33.9373 13.5722C33.9265 13.5681 33.9104 13.5717 33.8911 13.582ZM33.9756 13.5905C33.9739 13.5814 33.9713 13.5733 33.9677 13.5665C33.9616 13.5545 33.9531 13.547 33.9435 13.5434C33.9251 13.5363 33.903 13.5433 33.8827 13.5541C33.8428 13.5754 33.8006 13.617 33.7845 13.6377C33.7594 13.6547 33.6747 13.7174 33.606 13.78C33.6157 13.7477 33.617 13.7169 33.6125 13.686C33.6123 13.6653 33.6071 13.647 33.5946 13.6377C33.5824 13.6286 33.5673 13.6315 33.5528 13.6398C33.5236 13.6567 33.4869 13.7017 33.4513 13.773C33.4451 13.7853 33.4397 13.7977 33.4343 13.8102C33.4138 13.8573 33.3927 13.9058 33.3284 13.9559L33.3277 13.9564C33.2101 14.0643 33.1963 14.2593 33.1963 14.4366C33.1588 14.8159 33.0687 15.1826 32.9305 15.5178L32.9304 15.5179C32.7567 15.9465 32.6645 16.4253 32.6619 16.9125L32.6619 16.9137L32.662 16.915C32.6899 17.1375 32.669 17.3887 32.648 17.5475L32.6479 17.5483C32.6404 17.6329 32.663 17.6993 32.7051 17.7414C32.7466 17.7829 32.806 17.7996 32.8712 17.79M33.4082 16.9169C33.3901 16.9234 33.3808 16.9212 33.3758 16.9172C33.371 16.9133 33.3673 16.9054 33.3654 16.8901C33.3634 16.8749 33.3635 16.8556 33.3643 16.8331C33.3645 16.8273 33.3648 16.8212 33.365 16.815C33.3657 16.798 33.3664 16.78 33.3664 16.7626C33.3664 16.6608 33.3751 16.5935 33.3881 16.5236C33.3923 16.5009 33.397 16.4776 33.4021 16.4527C33.4126 16.4011 33.4246 16.3424 33.4365 16.2664C33.4719 16.04 33.507 15.6568 33.507 14.8219C33.507 14.7464 33.5089 14.6978 33.5194 14.6622C33.5294 14.6285 33.5476 14.6051 33.5844 14.5827C33.6249 14.5629 33.6944 14.5032 33.7566 14.4401C33.788 14.4083 33.818 14.3751 33.842 14.3451C33.8656 14.3155 33.8845 14.2875 33.8926 14.2661L33.8928 14.2654L33.893 14.2647C33.8975 14.2489 33.9063 14.2331 33.919 14.2166C33.9317 14.2001 33.9477 14.1836 33.9656 14.1661C33.972 14.1599 33.9786 14.1536 33.9853 14.1471C34.0162 14.1175 34.0505 14.0847 34.0799 14.0456C34.1205 14.001 34.1323 13.9509 34.1236 13.9118C34.1181 13.8871 34.1045 13.8684 34.0874 13.861C34.1139 13.8247 34.122 13.7877 34.1167 13.7558C34.1122 13.7283 34.0978 13.7072 34.0803 13.6973C34.0852 13.6896 34.0895 13.6814 34.0924 13.6722C34.0983 13.6535 34.0976 13.6328 34.0898 13.607L34.0894 13.6059C34.0799 13.5805 34.0611 13.5694 34.039 13.5694C34.0207 13.5694 33.9992 13.5768 33.9756 13.5905C33.9769 13.597 33.9777 13.604 33.9781 13.6115M34.0803 13.6973C34.0733 13.6934 34.0658 13.6913 34.0583 13.6913V13.7063L34.0662 13.7169L34.0672 13.7157C34.0716 13.7098 34.0761 13.7037 34.0803 13.6973ZM34.0874 13.861C34.0776 13.8568 34.0665 13.8563 34.0552 13.8606L34.0583 13.8751L34.065 13.8871C34.0736 13.8785 34.0811 13.8698 34.0874 13.861ZM34.0799 14.0456C34.08 14.0454 34.0802 14.0452 34.0803 14.045L34.0724 14.0344L34.0795 14.046C34.0796 14.0459 34.0798 14.0457 34.0799 14.0456ZM33.5844 14.5827C33.5846 14.5826 33.5847 14.5825 33.5848 14.5825L33.5802 14.5688L33.584 14.5829C33.5842 14.5828 33.5843 14.5828 33.5844 14.5827ZM33.4082 16.9169C33.4083 16.9169 33.4084 16.9169 33.4085 16.9168L33.4114 16.9313L33.4079 16.9171C33.408 16.917 33.4081 16.917 33.4082 16.9169ZM35.6093 13.7143C35.7049 13.7029 35.8012 13.7237 35.8892 13.7747C35.9772 13.8257 36.0542 13.9053 36.1131 14.0063C36.2107 14.1625 36.2575 14.302 36.2714 14.4304C36.2853 14.5589 36.266 14.6748 36.2335 14.783C36.2087 14.8652 36.176 14.9439 36.1442 15.0203C36.1344 15.044 36.1247 15.0674 36.1153 15.0907C36.0753 15.1898 36.0414 15.2861 36.0312 15.3863C36.0139 15.5841 36.0501 15.721 36.1048 15.8259C36.1492 15.9109 36.2056 15.9749 36.2576 16.0338C36.2703 16.0482 36.2827 16.0623 36.2946 16.0763L36.3099 16.0943L36.2904 16.102C36.2348 16.1237 36.1981 16.1826 36.155 16.2671C36.1475 16.2817 36.1399 16.297 36.132 16.3129C36.0946 16.3881 36.0505 16.4767 35.986 16.5667L35.9854 16.5674C35.9419 16.6207 35.8917 16.6554 35.8386 16.6836C35.8065 16.7007 35.7726 16.7156 35.7384 16.7308C35.7166 16.7403 35.6947 16.75 35.6731 16.7603C35.5608 16.8137 35.4474 16.8872 35.3543 17.071L35.3438 17.0917L35.3351 17.0696C35.2711 16.9084 35.2442 16.7655 35.2424 16.6339C35.2406 16.5024 35.2639 16.3832 35.2994 16.2694C35.358 16.0721 35.3613 15.8534 35.3091 15.6532C35.2596 15.6563 35.1959 15.6469 35.1391 15.6336C35.109 15.6265 35.0806 15.6182 35.0569 15.6099C35.0335 15.6016 35.0141 15.5931 35.0025 15.5854L35.002 15.5851C34.9368 15.5367 34.9119 15.4833 34.9119 15.4278C34.9119 15.3747 34.935 15.3244 34.9558 15.2827C34.9655 15.2611 34.9687 15.2448 34.9691 15.231C34.9696 15.2167 34.9672 15.2038 34.9641 15.1878L34.9639 15.1868C34.9609 15.1713 34.9574 15.1533 34.957 15.1315C34.9567 15.1111 34.9591 15.088 34.9664 15.06C34.9546 15.0432 34.9459 15.0265 34.9429 15.0093C34.9393 14.9886 34.9444 14.97 34.9562 14.9536L35.0046 14.8324C35.0032 14.832 35.0018 14.8316 35.0003 14.8313L34.9986 14.8308C34.9918 14.8291 34.9847 14.8272 34.9781 14.8246C34.9648 14.8196 34.9515 14.8113 34.9423 14.7935C34.92 14.7586 34.9129 14.726 34.9183 14.6954C34.9236 14.6658 34.9401 14.6421 34.9583 14.6227L34.9588 14.6222L34.9594 14.6217C35.0141 14.5761 35.0624 14.5119 35.104 14.4379L35.1043 14.4374L35.1046 14.4369C35.1335 14.3941 35.1404 14.3379 35.1422 14.2799C35.1426 14.2655 35.1427 14.2513 35.1428 14.2372L35.1428 14.2336C35.1429 14.2208 35.143 14.2081 35.1433 14.1959C35.1439 14.1697 35.1457 14.1441 35.1517 14.1229L35.1519 14.122L35.1522 14.1212C35.1968 14.0078 35.262 13.9112 35.3418 13.8401C35.4217 13.769 35.5136 13.7257 35.6093 13.7143ZM35.3169 15.6376L35.3275 15.6325C35.3845 15.8424 35.3819 16.0729 35.3203 16.2806L35.3202 16.2808C35.2855 16.392 35.2631 16.5071 35.2649 16.6334C35.2665 16.7537 35.29 16.885 35.3464 17.0336C35.4412 16.8573 35.5553 16.7844 35.6655 16.732C35.6883 16.7212 35.7106 16.7114 35.7324 16.7018C35.766 16.6869 35.7986 16.6726 35.8303 16.6558C35.8819 16.6283 35.9292 16.5953 35.9699 16.5456C36.0328 16.4578 36.0756 16.3719 36.113 16.2969C36.121 16.2808 36.1287 16.2652 36.1364 16.2502C36.175 16.1745 36.2118 16.1121 36.2653 16.0821C36.2583 16.0741 36.2512 16.066 36.2439 16.0577C36.1918 15.9987 36.1326 15.9316 36.0864 15.843C36.0286 15.7322 35.9909 15.588 36.0088 15.3827L36.0089 15.3824C36.0197 15.2764 36.0553 15.1759 36.0955 15.0764C36.1052 15.0525 36.1151 15.0286 36.125 15.0046C36.1567 14.9285 36.1884 14.8521 36.2126 14.7718C36.2442 14.6668 36.2623 14.5564 36.2491 14.4347C36.236 14.313 36.1914 14.1784 36.0957 14.0253L36.0955 14.0249C36.0388 13.9278 35.9648 13.8513 35.8802 13.8022C35.7956 13.7532 35.7032 13.7332 35.6113 13.7442C35.5194 13.7552 35.431 13.7967 35.3543 13.865C35.2778 13.9331 35.2153 14.0257 35.1725 14.1343C35.1681 14.1505 35.1664 14.1715 35.1658 14.197C35.1655 14.2087 35.1654 14.221 35.1653 14.2339L35.1653 14.2374C35.1652 14.2515 35.1651 14.2662 35.1646 14.2811C35.1629 14.3402 35.1558 14.4055 35.1217 14.4565C35.0791 14.5321 35.0292 14.5987 34.9719 14.6467C34.9551 14.6646 34.9437 14.6829 34.9402 14.7024C34.9369 14.7208 34.9402 14.7442 34.9598 14.7747L34.9602 14.7754L34.9606 14.7761C34.9655 14.7859 34.9731 14.7915 34.9842 14.7958C34.9899 14.7979 34.996 14.7996 35.0028 14.8013L35.0047 14.8018C35.0109 14.8034 35.0176 14.8051 35.0243 14.8074L35.0383 14.812L34.9745 14.9716L34.9733 14.9732C34.9648 14.9845 34.9633 14.9935 34.9649 15.0025C34.9667 15.0135 34.9736 15.0273 34.9873 15.0457L34.9925 15.0526L34.9899 15.0617C34.9816 15.0905 34.9792 15.1126 34.9795 15.1308C34.9798 15.1492 34.9828 15.1643 34.9859 15.1801L34.9859 15.1803L34.9859 15.1805C34.9889 15.1961 34.9922 15.213 34.9916 15.2323C34.991 15.2521 34.9863 15.2732 34.975 15.2984L34.9747 15.299C34.9534 15.3416 34.9344 15.3849 34.9344 15.4278C34.9344 15.4683 34.9516 15.5133 35.0128 15.5587C35.0222 15.5649 35.0397 15.5728 35.0627 15.5809C35.0856 15.589 35.1134 15.5971 35.1431 15.604C35.2025 15.618 35.2682 15.6272 35.3161 15.6226L35.3169 15.6376ZM36.6837 17.5962C36.6948 17.6858 36.6992 17.7839 36.6992 17.8782V17.8794C36.657 18.6033 36.4905 19.3046 36.2127 19.9292C36.1555 20.0757 36.0572 20.1861 35.9392 20.2361C35.8916 20.2589 35.8332 20.3092 35.7634 20.3704C35.76 20.3734 35.7565 20.3765 35.753 20.3795C35.6862 20.4382 35.6101 20.505 35.526 20.5633C35.2915 20.7304 35.0462 20.8688 34.793 20.9768L34.7924 20.9771C34.7472 20.9926 34.6936 21.0089 34.6337 21.0271C34.4026 21.0972 34.0784 21.1956 33.7892 21.3884C33.6819 21.4623 33.6413 21.5261 33.6144 21.5845C33.6081 21.598 33.6024 21.6117 33.5968 21.6254C33.578 21.6709 33.5589 21.7169 33.5169 21.7618L33.5162 21.7625L33.5154 21.7631C33.4686 21.7987 33.433 21.8572 33.4035 21.9241C33.3776 21.9831 33.357 22.0477 33.3379 22.1074C33.3354 22.1154 33.3328 22.1232 33.3303 22.131L33.3301 22.1317L33.3298 22.1323C33.3022 22.1986 33.2835 22.2826 33.2625 22.377C33.2574 22.3996 33.2522 22.4229 33.2468 22.4466C33.246 22.4552 33.2417 22.4621 33.2384 22.4664C33.2342 22.4719 33.2287 22.4771 33.2226 22.4818C33.2104 22.4913 33.1943 22.4998 33.1781 22.5042C33.1623 22.5085 33.1446 22.5095 33.1302 22.501C33.127 22.4991 33.1239 22.4967 33.1211 22.4938C33.1087 22.5428 33.0794 22.5805 33.0502 22.5971C33.0309 22.608 33.0094 22.6109 32.992 22.598C32.9838 22.5919 32.9774 22.583 32.9727 22.5715C32.9569 22.6024 32.9304 22.6218 32.9058 22.6263C32.8874 22.6296 32.868 22.6249 32.8541 22.6075C32.851 22.6037 32.8483 22.5994 32.846 22.5946C32.8368 22.626 32.8257 22.648 32.8136 22.6633C32.7943 22.6877 32.7737 22.6932 32.7575 22.6932H32.7561L32.7548 22.6927C32.7394 22.6876 32.7237 22.6791 32.7127 22.6541C32.7023 22.6306 32.697 22.5944 32.697 22.5376V22.5363C32.6976 22.5279 32.6982 22.5183 32.6989 22.5077C32.7027 22.4478 32.7084 22.3569 32.7129 22.2694C32.7155 22.2179 32.7177 22.1677 32.7188 22.1257C32.7199 22.0838 32.7199 22.0512 32.7183 22.0337C32.7111 21.9853 32.711 21.9407 32.7203 21.8982C32.7298 21.8554 32.7485 21.8158 32.7777 21.777C32.7977 21.7502 32.8218 21.7047 32.8481 21.6462C32.8742 21.5881 32.9022 21.5183 32.9302 21.4435C32.959 21.3619 32.9866 21.3152 33.0401 21.2644C33.0788 21.2277 33.1314 21.1885 33.2081 21.1313C33.2356 21.1107 33.2662 21.0879 33.3004 21.062C33.6458 20.8028 33.9787 20.5152 34.2973 20.2009C34.5679 19.8813 34.9016 19.672 35.2587 19.5978C35.2742 19.5939 35.2898 19.5904 35.3046 19.5871C35.3161 19.5846 35.3272 19.5821 35.3373 19.5796C35.3613 19.5738 35.3825 19.5675 35.4009 19.5586C35.4193 19.5497 35.4344 19.5384 35.4466 19.5227C35.4587 19.5071 35.4683 19.4867 35.4748 19.4585C35.4804 19.4288 35.491 19.3977 35.5048 19.3596C35.5078 19.3515 35.5109 19.3431 35.5141 19.3343C35.5264 19.3009 35.5408 19.2616 35.5571 19.2127C35.5981 19.0893 35.6506 18.905 35.7068 18.6058L35.7069 18.6048C35.8255 18.1223 36.0407 17.6921 36.3291 17.3606L36.3294 17.3602C36.4006 17.2843 36.4605 17.2523 36.5107 17.2568C36.5618 17.2613 36.5998 17.303 36.6273 17.3642C36.6547 17.4251 36.6726 17.507 36.6837 17.5962ZM33.1049 22.4438H33.1274C33.1274 22.4534 33.1289 22.4598 33.1308 22.4641C33.1328 22.4682 33.1355 22.4714 33.1393 22.4736C33.1474 22.4783 33.1595 22.4787 33.1736 22.4748C33.1873 22.471 33.2011 22.4637 33.2113 22.4559C33.2164 22.4519 33.2202 22.4482 33.2226 22.4451C33.2236 22.4437 33.2241 22.4428 33.2244 22.4423V22.4416L33.2249 22.4394C33.2303 22.416 33.2354 22.3928 33.2405 22.37C33.2615 22.2757 33.2811 22.1878 33.3099 22.1185C33.3123 22.111 33.3147 22.1034 33.3172 22.0957C33.3362 22.0362 33.3574 21.9698 33.3841 21.9089C33.4143 21.8402 33.4522 21.777 33.5035 21.7376C33.5413 21.6971 33.5576 21.6576 33.5759 21.6136C33.5818 21.5992 33.588 21.5843 33.5952 21.5688C33.6245 21.5053 33.6683 21.4379 33.7789 21.3617L33.7841 21.3751L33.779 21.3616C34.071 21.167 34.399 21.0675 34.6301 20.9974C34.6893 20.9794 34.7422 20.9634 34.7864 20.9481C35.0383 20.8407 35.2823 20.703 35.5155 20.5368L35.5156 20.5368C35.5986 20.4792 35.6738 20.4131 35.7408 20.3543C35.7442 20.3513 35.7477 20.3483 35.751 20.3453C35.8201 20.2848 35.8811 20.232 35.9319 20.2078L35.9322 20.2076C36.0447 20.1599 36.1385 20.0547 36.1928 19.915L36.1931 19.9143C36.4692 19.2937 36.6347 18.5969 36.6767 17.8776C36.6767 17.7846 36.6723 17.6884 36.6615 17.6011C36.6506 17.5135 36.6333 17.4359 36.608 17.3797C36.5828 17.3237 36.5505 17.2904 36.5093 17.2867C36.4673 17.283 36.413 17.3095 36.3436 17.3835C36.0585 17.7113 35.8458 18.1366 35.7285 18.6136C35.6721 18.9141 35.6192 19.0999 35.5777 19.2249C35.5612 19.2743 35.5465 19.3143 35.5343 19.3477C35.531 19.3565 35.528 19.3648 35.5251 19.3727C35.5111 19.4112 35.5015 19.4398 35.4965 19.4662L35.4964 19.467C35.4889 19.4996 35.4774 19.5247 35.4623 19.5442C35.4472 19.5637 35.429 19.577 35.4086 19.5868C35.3884 19.5966 35.3656 19.6033 35.3413 19.6092C35.3301 19.6119 35.319 19.6143 35.3076 19.6169C35.2934 19.62 35.2786 19.6233 35.2627 19.6273L35.2624 19.6274C34.9092 19.7007 34.5793 19.9077 34.3118 20.2238L34.3111 20.2247C33.9917 20.5399 33.6578 20.8282 33.3115 21.0881C33.2766 21.1145 33.2456 21.1377 33.2179 21.1583C33.1418 21.2151 33.0907 21.2532 33.0532 21.2888C33.0031 21.3364 32.9779 21.3788 32.9505 21.4564L32.9504 21.4568C32.9222 21.532 32.8939 21.6026 32.8674 21.6617C32.8409 21.7205 32.8157 21.7687 32.7936 21.7982C32.7665 21.8343 32.7501 21.8697 32.7419 21.9066C32.7338 21.9436 32.7336 21.9832 32.7404 22.0284L32.7406 22.0294C32.7425 22.0496 32.7424 22.0847 32.7413 22.1268C32.7402 22.1692 32.738 22.2198 32.7353 22.2714C32.7308 22.3592 32.7251 22.4504 32.7213 22.5103C32.7206 22.5206 32.7201 22.5299 32.7195 22.5382C32.7196 22.5934 32.7249 22.6227 32.7321 22.6389C32.7384 22.6533 32.7468 22.659 32.7589 22.6632C32.7706 22.6629 32.7845 22.6587 32.7981 22.6415C32.8125 22.6233 32.8276 22.589 32.8379 22.525L32.8601 22.5303C32.8569 22.56 32.8623 22.5767 32.8695 22.5857C32.8769 22.595 32.8887 22.5991 32.9028 22.5965C32.9316 22.5913 32.9614 22.5603 32.9643 22.5175L32.9867 22.5188C32.9867 22.5508 32.9946 22.5656 33.0029 22.5718C33.0119 22.5785 33.0255 22.5784 33.0414 22.5695C33.0732 22.5515 33.1049 22.5024 33.1049 22.4438ZM36.432 30.1974C36.4754 30.1518 36.545 30.0788 36.6528 30.0788H36.6534L36.6541 30.0789C36.7205 30.0887 36.784 30.1377 36.8418 30.1993C36.8997 30.261 36.9529 30.3368 36.9986 30.4024L37.0005 30.4051L37.0012 30.4087C37.0184 30.4958 37.0371 30.5365 37.055 30.5717C37.0567 30.575 37.0583 30.5782 37.0599 30.5814C37.0767 30.614 37.0933 30.6463 37.1066 30.7084L37.1067 30.7087C37.1215 30.783 37.1121 30.8567 37.0941 30.9228C37.0761 30.9886 37.0493 31.0482 37.0283 31.0949L37.0278 31.0959L37.0274 31.0966C37.0074 31.1321 36.9921 31.1795 36.9818 31.2265C36.9715 31.2736 36.9664 31.319 36.9664 31.3501C36.9664 31.4071 36.9594 31.4755 36.9441 31.5161L36.9438 31.517L36.9434 31.5178C36.9368 31.531 36.9283 31.5513 36.9216 31.5727C36.9147 31.5944 36.9102 31.6156 36.9102 31.6313C36.9102 31.7081 36.8958 31.7605 36.871 31.7881C36.8479 31.8138 36.8186 31.8152 36.7905 31.8002C36.7785 31.8225 36.7605 31.8448 36.7411 31.8599C36.7222 31.8746 36.6992 31.8844 36.6785 31.8755C36.6602 31.9139 36.6359 31.9406 36.6099 31.9525C36.5851 31.9639 36.559 31.9617 36.5366 31.9435C36.5184 31.9805 36.4941 32.0044 36.4673 32.0127C36.442 32.0206 36.4156 32.0141 36.3919 31.9937C36.3871 32.0075 36.3797 32.0197 36.3711 32.0302C36.3579 32.0461 36.3411 32.059 36.3239 32.0683C36.3068 32.0775 36.2888 32.0835 36.2729 32.0853C36.2577 32.0869 36.2418 32.0851 36.2313 32.0746M36.4138 30.2344L36.4075 30.222C36.4146 30.2157 36.4227 30.2072 36.432 30.1974M36.4265 30.2409C36.437 30.2977 36.4533 30.3565 36.4691 30.4119C36.4704 30.4166 36.4718 30.4212 36.4731 30.4258C36.4882 30.4787 36.5024 30.5285 36.5091 30.5685C36.5167 30.6092 36.5129 30.6382 36.505 30.6633C36.5014 30.6747 36.4969 30.6852 36.4928 30.695L36.4921 30.6966C36.4877 30.7071 36.4837 30.7168 36.4805 30.7275L36.4802 30.7285C36.3863 30.9881 36.3204 31.264 36.2844 31.5482C36.2841 31.6079 36.2655 31.6664 36.2453 31.7179C36.238 31.7366 36.2303 31.7547 36.2231 31.7718C36.2202 31.7786 36.2174 31.7852 36.2147 31.7915C36.2052 31.8144 36.1972 31.8346 36.1923 31.8522L36.1919 31.8536L36.1913 31.8549C36.1749 31.8898 36.1709 31.9203 36.1783 31.95C36.186 31.9807 36.2066 32.0136 36.2446 32.0504L36.2447 32.0506C36.2483 32.0541 36.257 32.0569 36.271 32.0554C36.2843 32.0539 36.3001 32.0488 36.3155 32.0405C36.3309 32.0321 36.3452 32.021 36.356 32.0079C36.3668 31.9949 36.3732 31.9809 36.3745 31.9669L36.3771 31.9393L36.393 31.9574C36.4152 31.9828 36.4397 31.9905 36.4622 31.9835C36.4848 31.9764 36.5071 31.954 36.5235 31.9146L36.5301 31.8988L36.5405 31.9104C36.5583 31.9301 36.5804 31.9343 36.6026 31.9242C36.625 31.9139 36.6476 31.8886 36.6641 31.849L36.6697 31.8355L36.6797 31.8434C36.6918 31.8531 36.7097 31.8496 36.7298 31.834C36.7493 31.8188 36.7672 31.7948 36.7768 31.7736L36.7821 31.7617L36.7914 31.7679C36.817 31.7849 36.84 31.7835 36.8566 31.7651C36.8739 31.7459 36.8877 31.7045 36.8877 31.6313C36.8877 31.6095 36.8937 31.5838 36.9009 31.561C36.908 31.5383 36.917 31.5168 36.9243 31.5019C36.937 31.4674 36.9439 31.4051 36.9439 31.3501C36.9439 31.3155 36.9494 31.2672 36.9602 31.2181C36.9709 31.1693 36.9871 31.1186 37.0091 31.0792C37.0302 31.0323 37.0558 30.9751 37.0729 30.9125C37.09 30.8497 37.0982 30.7828 37.0849 30.7165C37.0727 30.6593 37.0578 30.6304 37.0413 30.5983C37.0397 30.5951 37.038 30.5918 37.0364 30.5885C37.0176 30.5516 36.9979 30.5086 36.9802 30.42C36.9349 30.355 36.8833 30.282 36.8277 30.2227C36.7714 30.1626 36.7121 30.1179 36.6522 30.1088C36.5535 30.1091 36.4915 30.1737 36.4478 30.2193C36.4401 30.2272 36.4331 30.2346 36.4265 30.2409ZM34.3802 30.861L34.3885 30.8693C34.4157 30.8965 34.4659 30.9335 34.5178 30.9687C34.5694 31.0037 34.622 31.0364 34.6535 31.0551L34.6681 31.0638L34.657 31.0792C34.4779 31.3276 34.2177 31.3303 34.0928 31.1735L34.1005 31.1626L34.0957 31.149C34.2014 31.0825 34.2959 30.9881 34.3733 30.8714L34.3802 30.861ZM34.1207 31.1662C34.2368 31.2918 34.4639 31.2893 34.6295 31.0736C34.5975 31.0542 34.5522 31.0257 34.5076 30.9955C34.4605 30.9635 34.4133 30.9291 34.3834 30.9014C34.309 31.0108 34.2199 31.1007 34.1207 31.1662Z" fill="black"/>
<path d="M35.2539 13.9687C35.2961 13.5937 35.5 13.5937 35.6266 13.6406C35.6828 13.65 35.8094 13.6687 35.9359 13.6218C36.175 13.5375 36.3578 13.65 36.3297 13.9593C36.4 14.025 36.4703 14.175 36.4492 14.3062C36.4422 14.4375 36.4633 14.4937 36.5477 14.5031C36.6391 14.5218 36.8289 14.6718 36.7023 14.8781C36.8219 14.9718 36.9133 15.225 36.85 15.3843C36.7867 15.5531 36.5969 15.5812 36.5125 15.4312C36.4211 15.4875 36.2805 15.4968 36.1891 15.375C36.1258 15.4687 35.9781 15.4593 35.943 15.375C35.9148 15.2812 35.8727 15.2437 35.8094 15.2156C35.7461 15.1875 35.7391 14.9531 35.8375 14.925C35.8305 14.85 35.8375 14.775 35.8586 14.7375C35.8797 14.7 35.8586 14.625 35.8023 14.5687C35.7461 14.5031 35.6969 14.2875 35.7531 14.1562C35.6547 14.2031 35.4438 14.0718 35.4016 13.9875C35.3523 13.8937 35.2891 13.8937 35.2539 13.9687Z" fill="#870F00"/>
<path fill-rule="evenodd" clip-rule="evenodd" d="M36.2283 13.655C36.1597 13.6014 36.0575 13.5936 35.9394 13.6353C35.8107 13.683 35.6823 13.6638 35.6259 13.6545L35.6252 13.6543L35.6244 13.654C35.5621 13.631 35.4823 13.6201 35.4134 13.6593C35.3517 13.6944 35.2968 13.7709 35.2717 13.9222C35.287 13.9067 35.3048 13.899 35.3238 13.9007C35.3545 13.9034 35.3852 13.9304 35.4109 13.9793L35.411 13.9796L35.411 13.9796C35.4203 13.9982 35.4399 14.021 35.4668 14.0441C35.4935 14.067 35.5262 14.0895 35.5608 14.1079C35.5954 14.1264 35.6316 14.1407 35.6649 14.1475C35.6984 14.1544 35.728 14.1535 35.7502 14.1429L35.7771 14.1301L35.7629 14.1631C35.7366 14.2246 35.7345 14.3073 35.7465 14.3841C35.7586 14.4609 35.7841 14.5276 35.8097 14.5577C35.8388 14.587 35.8594 14.6215 35.8699 14.6545C35.8802 14.6872 35.8815 14.7213 35.8677 14.7458C35.8587 14.7619 35.852 14.7873 35.8486 14.819C35.8452 14.8505 35.8452 14.8867 35.8486 14.9231L35.8498 14.9359L35.8404 14.9386C35.7982 14.9507 35.7765 15.0077 35.774 15.0709C35.7727 15.102 35.7763 15.1327 35.7837 15.1569C35.7911 15.1814 35.8017 15.197 35.8134 15.2022C35.8456 15.2165 35.8734 15.2336 35.8968 15.2598C35.9202 15.286 35.9386 15.3206 35.9532 15.3688C35.9605 15.386 35.974 15.4004 35.9922 15.4107C36.0105 15.4212 36.0328 15.427 36.0563 15.4276C36.1037 15.4287 36.153 15.4083 36.1819 15.3655L36.1893 15.3544L36.1972 15.3649C36.2843 15.4811 36.4197 15.4732 36.5087 15.4184L36.5165 15.4136L36.5216 15.4227C36.5612 15.493 36.6258 15.5222 36.6887 15.5132C36.7516 15.5043 36.8114 15.4574 36.8412 15.378L36.8413 15.3777L36.8413 15.3777C36.8709 15.3032 36.8649 15.2048 36.8357 15.112C36.8065 15.0193 36.7551 14.9352 36.6977 14.8901L36.6871 14.8818L36.6948 14.8691C36.7252 14.8196 36.7358 14.7748 36.7345 14.7356C36.7333 14.6963 36.7199 14.6606 36.6995 14.6294C36.6584 14.5668 36.5907 14.5261 36.5471 14.517C36.5036 14.5121 36.4733 14.4947 36.4559 14.4578C36.439 14.422 36.4358 14.371 36.4394 14.3051L36.4394 14.3041L36.4396 14.3032C36.4495 14.2417 36.438 14.1748 36.415 14.1145C36.392 14.0542 36.3579 14.0021 36.3243 13.9708L36.3191 13.9659L36.3199 13.9576C36.3336 13.8071 36.296 13.7078 36.2283 13.655ZM35.2546 13.9686L35.2441 13.9665C35.2656 13.7754 35.3289 13.6768 35.4051 13.6334C35.4801 13.5908 35.5651 13.603 35.6293 13.6267C35.6858 13.6361 35.8099 13.6541 35.9338 13.6082L35.9339 13.6082L35.9339 13.6082C36.0548 13.5655 36.1635 13.5718 36.239 13.6307C36.3141 13.6894 36.3539 13.7981 36.3415 13.9527C36.3765 13.9872 36.4105 14.0407 36.4338 14.1017C36.4581 14.1653 36.4713 14.2386 36.4604 14.3081C36.4569 14.3729 36.4608 14.4154 36.4738 14.4428C36.4861 14.469 36.5085 14.4845 36.5492 14.489L36.5499 14.4891L36.5499 14.4891C36.5977 14.4989 36.6704 14.5425 36.7153 14.6109C36.738 14.6454 36.7541 14.687 36.7556 14.7344C36.7571 14.7782 36.746 14.8253 36.7186 14.8743C36.7763 14.9244 36.8262 15.0093 36.8551 15.1011C36.8856 15.198 36.8937 15.3058 36.86 15.3907C36.8265 15.4799 36.7598 15.5314 36.6909 15.5412C36.6246 15.5506 36.555 15.5216 36.5099 15.4484C36.4186 15.5006 36.283 15.5085 36.19 15.3946C36.1553 15.4381 36.1034 15.4569 36.0559 15.4557C36.0302 15.4551 36.0051 15.4487 35.9839 15.4366C35.9627 15.4245 35.9447 15.4064 35.9344 15.3817L35.9341 15.3809L35.9338 15.3801C35.9203 15.335 35.9037 15.3042 35.8832 15.2813C35.8627 15.2583 35.8377 15.2426 35.8067 15.2288C35.7867 15.22 35.7727 15.1957 35.7641 15.1675C35.7554 15.1389 35.7515 15.104 35.7529 15.0694C35.7555 15.0053 35.777 14.9356 35.8267 14.9144C35.8241 14.8799 35.8244 14.8457 35.8277 14.8151C35.8314 14.7812 35.8388 14.7504 35.8508 14.7289C35.8581 14.7159 35.8594 14.6938 35.8504 14.6655C35.8416 14.6377 35.8236 14.6068 35.7967 14.5799L35.796 14.5792L35.7961 14.5792C35.7655 14.5436 35.7384 14.4698 35.7259 14.3899C35.7149 14.3199 35.7146 14.2421 35.7345 14.177C35.7123 14.1818 35.6874 14.1806 35.6617 14.1753C35.6264 14.1681 35.5887 14.1531 35.553 14.134C35.5173 14.115 35.4833 14.0917 35.4554 14.0677C35.4279 14.0441 35.4053 14.0188 35.3935 13.9953C35.37 13.9506 35.3445 13.9307 35.3224 13.9287C35.3008 13.9268 35.2795 13.9419 35.2635 13.9761L35.2546 13.9686Z" fill="black"/>
<path fill-rule="evenodd" clip-rule="evenodd" d="M35.3803 13.9172C35.3815 13.9309 35.3863 13.9449 35.3962 13.958L35.3803 13.9792C35.3672 13.9618 35.3598 13.9418 35.358 13.9207C35.3561 13.8996 35.36 13.8786 35.3682 13.8594C35.3844 13.8212 35.4179 13.7891 35.4616 13.7725C35.5497 13.7391 35.682 13.7674 35.8178 13.939L35.818 13.9392C35.8436 13.9733 35.8846 13.9914 35.9249 13.9982C35.9448 14.0016 35.9641 14.0022 35.9804 14.0008C35.997 13.9994 36.0097 13.996 36.0168 13.9922L36.0252 14.02C36.0148 14.0256 35.9994 14.0292 35.9819 14.0307C35.9641 14.0323 35.9434 14.0316 35.922 14.028C35.8798 14.0208 35.8329 14.0014 35.8022 13.9606C35.6709 13.7948 35.5466 13.7715 35.4677 13.8014C35.428 13.8165 35.4003 13.8447 35.3878 13.8742C35.3816 13.8888 35.3791 13.9035 35.3803 13.9172ZM35.9572 14.1614C35.8926 14.1433 35.8187 14.1522 35.7563 14.1707L35.7514 14.1414C35.8155 14.1224 35.8929 14.1127 35.9618 14.132C36.0311 14.1515 36.093 14.2008 36.1229 14.3005C36.1363 14.3451 36.1521 14.3695 36.1691 14.3851C36.1854 14.4001 36.2033 14.4077 36.2239 14.4165C36.2254 14.4171 36.2269 14.4177 36.2284 14.4184C36.2505 14.4278 36.2748 14.4389 36.2991 14.4628C36.3234 14.4867 36.3468 14.5226 36.3685 14.5805C36.4107 14.6881 36.4625 14.7981 36.5203 14.8604C36.549 14.8915 36.5784 14.9097 36.6081 14.9112C36.6375 14.9126 36.6691 14.8976 36.7026 14.8574L36.7176 14.8797C36.6808 14.9239 36.6438 14.9429 36.6073 14.9411C36.5711 14.9394 36.5371 14.9172 36.5061 14.8838C36.4444 14.8172 36.3908 14.7022 36.3485 14.5943L36.3485 14.594C36.328 14.5395 36.3067 14.5075 36.2857 14.4869C36.2647 14.4662 36.2433 14.4563 36.2215 14.4469C36.2198 14.4462 36.2182 14.4455 36.2165 14.4448C36.1965 14.4364 36.1755 14.4275 36.1564 14.4098C36.1351 14.3903 36.1167 14.3608 36.102 14.3117C36.0756 14.2239 36.0215 14.1794 35.9572 14.1614ZM36.1439 14.9211C36.1413 14.9783 36.1484 15.032 36.1701 15.065L36.1742 15.0712L36.1724 15.0791C36.1617 15.127 36.1585 15.1773 36.1632 15.2269C36.1678 15.2765 36.1802 15.3243 36.1994 15.3671L36.1801 15.3825C36.1593 15.3361 36.1459 15.2844 36.1409 15.2306C36.1361 15.1796 36.1389 15.1278 36.1492 15.0783C36.125 15.0364 36.1189 14.9762 36.1214 14.9193C36.1241 14.8588 36.1368 14.7982 36.1516 14.7588L36.1717 14.7722C36.1584 14.8077 36.1464 14.8643 36.1439 14.9211ZM35.0871 14.8908L35.0168 14.8346L35.0284 14.8089L35.0987 14.8651L35.0871 14.8908ZM35.8407 14.989C35.8321 14.9668 35.827 14.9445 35.827 14.9248H35.8495C35.8495 14.938 35.8531 14.9555 35.8607 14.9752C35.8683 14.9947 35.8795 15.0155 35.8937 15.0351C35.9223 15.0743 35.9623 15.1074 36.0085 15.1162L36.0054 15.1459C35.9532 15.136 35.9088 15.0988 35.8776 15.056C35.862 15.0345 35.8494 15.0114 35.8407 14.989ZM35.0093 15.0873L34.9746 15.0596L34.9862 15.0339L35.0218 15.0624L35.0223 15.0628C35.0476 15.0882 35.0869 15.0973 35.114 15.0973V15.1273C35.0849 15.1273 35.0402 15.1179 35.0093 15.0873ZM36.4891 15.1336C36.4751 15.2459 36.4691 15.3335 36.522 15.4217L36.5044 15.4405C36.4448 15.3411 36.4529 15.2413 36.467 15.1286L36.4891 15.1336ZM35.5008 15.565C35.4532 15.5991 35.3989 15.6377 35.3194 15.6522L35.3164 15.6225C35.3916 15.6088 35.4428 15.5725 35.4901 15.5386L35.4919 15.5373C35.5384 15.504 35.5826 15.4723 35.6413 15.4723V15.5023C35.5883 15.5023 35.5485 15.5308 35.5008 15.565Z" fill="black"/>
<path fill-rule="evenodd" clip-rule="evenodd" d="M35.9668 13.7104C36.105 13.7466 36.2332 13.8321 36.3378 13.9578L36.3227 13.9801C36.2212 13.858 36.0967 13.775 35.9625 13.7399L35.9668 13.7104ZM35.9423 14.5123C35.9222 14.4589 35.9112 14.398 35.9112 14.3439H35.9337C35.9337 14.393 35.9438 14.4493 35.9624 14.4989C35.981 14.5487 36.0077 14.5902 36.04 14.6118L36.0433 14.614L36.045 14.6185C36.0651 14.6721 36.139 14.8157 36.3012 14.7977L36.3031 14.8276C36.132 14.8466 36.0509 14.6982 36.0266 14.6363C35.9902 14.6104 35.9617 14.5642 35.9423 14.5123ZM35.166 18.1525C35.1093 17.6612 35.1943 17.3103 35.3369 17.0537L35.3549 17.0716C35.2162 17.3213 35.1325 17.664 35.1882 18.1476C35.2234 18.3911 35.2657 18.6923 35.2666 18.9728C35.2675 19.2527 35.2271 19.5161 35.0933 19.68L35.0781 19.6579C35.2046 19.5029 35.245 19.2507 35.2441 18.9729C35.2432 18.6956 35.2013 18.3969 35.1661 18.153L35.166 18.1525L35.166 18.1525ZM36.0807 20.5622C36.1901 20.5515 36.3039 20.5681 36.3965 20.6013L36.3906 20.6303C36.3004 20.5979 36.1892 20.5817 36.0824 20.5921C35.9754 20.6025 35.8741 20.6396 35.8027 20.7121L35.8026 20.7122C35.73 20.7848 35.6291 20.8229 35.5266 20.8288C35.4239 20.8348 35.3182 20.8087 35.2352 20.751L35.2456 20.7244C35.3244 20.7792 35.4261 20.8046 35.5256 20.7989C35.6251 20.7931 35.7211 20.7562 35.7891 20.6882" fill="black"/>
<path fill-rule="evenodd" clip-rule="evenodd" d="M36.2847 20.709C36.321 20.8118 36.3421 20.981 36.3421 21.2439H36.3196C36.3196 20.9819 36.2984 20.8183 36.2644 20.7218C36.2475 20.6738 36.2276 20.6433 36.2061 20.6251C36.1909 20.6122 36.1743 20.6052 36.1566 20.603C36.1492 20.6028 36.1417 20.6027 36.1339 20.6027L36.1332 20.5727C36.1415 20.572 36.1497 20.5721 36.1577 20.573C36.1879 20.574 36.2172 20.5778 36.2448 20.591C36.28 20.6079 36.3118 20.6398 36.3402 20.6979C36.3964 20.8125 36.4405 21.0316 36.4756 21.4485L36.4756 21.4489L36.4756 21.4489C36.5069 21.9215 36.569 22.1551 36.6481 22.4529C36.6753 22.5554 36.7046 22.6656 36.7353 22.7957L36.7353 22.7959C36.88 23.4355 36.9151 24.246 36.9327 24.9829C36.9356 25.1066 36.9381 25.2282 36.9405 25.3466C36.9452 25.5813 36.9497 25.8034 36.9573 26.0044C36.9687 26.3069 36.9871 26.5597 37.0237 26.7337L37.002 26.7417C36.9647 26.5642 36.9462 26.3083 36.9348 26.0059C36.9272 25.8046 36.9227 25.5819 36.918 25.3469C36.9156 25.2286 36.9131 25.1072 36.9102 24.9839C36.8926 24.2466 36.8575 23.44 36.7138 22.8046C36.6835 22.6761 36.6544 22.5668 36.6273 22.4646C36.5479 22.1658 36.4848 21.9282 36.4532 21.4517C36.418 21.0344 36.3742 20.8222 36.3214 20.7143C36.2954 20.6612 36.2675 20.6339 36.2374 20.6194C36.2553 20.641 36.2712 20.6706 36.2847 20.709ZM35.8138 20.7436C35.8534 20.6439 35.9147 20.5923 35.9984 20.5729L36.0023 20.6025C35.9243 20.6206 35.8695 20.6674 35.8336 20.7576C35.7972 20.8492 35.7796 20.9868 35.7796 21.1877C35.7796 21.3161 35.7721 21.4647 35.764 21.6261C35.7596 21.7128 35.7551 21.8033 35.7514 21.8963C35.7409 22.1632 35.7374 22.4527 35.7654 22.742L35.7431 22.7459C35.7148 22.4539 35.7184 22.1622 35.729 21.8947C35.7327 21.8005 35.7372 21.7095 35.7416 21.6226C35.7497 21.4619 35.7571 21.3151 35.7571 21.1877C35.7571 20.9855 35.7746 20.8418 35.8138 20.7436ZM35.683 20.7596C35.6919 20.7568 35.7007 20.7541 35.7093 20.7513L35.7148 20.7804C35.7052 20.7836 35.6959 20.7864 35.6868 20.7892C35.6682 20.7949 35.6505 20.8003 35.6334 20.8078C35.6084 20.8186 35.5865 20.8332 35.5689 20.8572C35.5339 20.9049 35.5124 20.995 35.5264 21.1862L35.504 21.1892C35.4899 20.996 35.5105 20.8939 35.5529 20.8362C35.5739 20.8075 35.5995 20.7909 35.6264 20.7792C35.6444 20.7714 35.6639 20.7654 35.683 20.7596ZM35.2184 20.8911C35.1887 20.967 35.1713 21.0771 35.1678 21.1883L35.1454 21.1871C35.1489 21.0733 35.1667 20.9584 35.1985 20.8772C35.2144 20.8366 35.2343 20.8033 35.2585 20.7834C35.2831 20.7631 35.3115 20.7572 35.3428 20.7703L35.3361 20.7989C35.311 20.7885 35.2894 20.7932 35.2703 20.8089C35.2508 20.825 35.2333 20.8532 35.2184 20.8911ZM36.0672 26.0105C36.4869 24.5266 36.4968 22.8919 36.0952 21.399L36.1164 21.3889C36.5193 22.8867 36.5098 24.5267 36.0897 26.016C36.2252 26.5201 36.3607 26.9682 36.4784 27.3576C36.5068 27.4514 36.5341 27.5417 36.5601 27.6286C36.6945 28.077 36.7952 28.4349 36.8271 28.6947L36.8049 28.6995C36.7735 28.4436 36.6738 28.089 36.5392 27.6397C36.5132 27.553 36.4859 27.4627 36.4576 27.369C36.3395 26.9783 36.2033 26.5278 36.0671 26.0209L36.0657 26.0157L36.0672 26.0105ZM35.2434 22.4521C35.2363 22.5822 35.2133 22.7473 35.1745 22.9538L35.1745 22.9539C35.0834 23.4259 35.0907 23.6674 35.1132 23.8239C35.1188 23.8632 35.1254 23.8974 35.1318 23.9288C35.1329 23.9344 35.134 23.9398 35.1351 23.9452C35.1403 23.9704 35.1451 23.9942 35.1489 24.0175C35.1582 24.0749 35.161 24.1302 35.1463 24.2011L35.1247 24.1931C35.1381 24.128 35.1357 24.0778 35.1269 24.0239C35.1233 24.0014 35.1186 23.9785 35.1135 23.9534C35.1124 23.9479 35.1112 23.9423 35.1101 23.9367C35.1036 23.905 35.0968 23.87 35.0911 23.8296C35.0678 23.6674 35.0611 23.4213 35.1527 22.9465C35.1913 22.7406 35.214 22.5775 35.221 22.4499C35.2279 22.322 35.219 22.2314 35.1958 22.1694L35.2159 22.156C35.2418 22.2252 35.2505 22.3222 35.2434 22.4521Z" fill="black"/>
<path fill-rule="evenodd" clip-rule="evenodd" d="M35.1974 23.0979C35.1812 22.9566 35.1752 22.8277 35.1932 22.7217L35.2152 22.7283C35.1981 22.8286 35.2035 22.9528 35.2196 23.0933C35.2311 23.1939 35.248 23.3016 35.2655 23.4138C35.2725 23.4584 35.2795 23.5036 35.2864 23.5494C35.3347 23.8702 35.3742 24.2161 35.2992 24.5111L35.2779 24.5014C35.3507 24.2151 35.3128 23.8767 35.2644 23.5553C35.2576 23.5101 35.2506 23.4651 35.2436 23.4208C35.226 23.3082 35.209 23.1993 35.1974 23.0979ZM34.9159 25.1506C34.9032 24.9632 34.8906 24.777 34.8906 24.6094H34.9131C34.9131 24.7755 34.9256 24.9603 34.9383 25.1479C34.9399 25.1711 34.9414 25.1942 34.943 25.2174C34.957 25.4283 34.9694 25.6402 34.9623 25.8289L34.9623 25.8289C34.9515 26.1103 35.0162 26.2716 35.1058 26.4952C35.131 26.5581 35.1581 26.6259 35.1862 26.7027C35.6642 27.9588 35.975 28.8526 35.9397 30.0381L35.9397 30.0388L35.9396 30.0388C35.9364 30.0909 35.937 30.1556 35.9376 30.2266L35.9377 30.2398C35.9384 30.3156 35.9388 30.3977 35.9344 30.4769C35.93 30.5561 35.9206 30.6333 35.9014 30.6995C35.8821 30.7658 35.8526 30.8217 35.8075 30.8567L35.7962 30.8308C35.8356 30.8002 35.8623 30.7507 35.8804 30.6886C35.8985 30.6264 35.9076 30.5525 35.9119 30.4747C35.9163 30.3969 35.9159 30.316 35.9152 30.2401C35.9152 30.2355 35.9151 30.2309 35.9151 30.2264C35.9145 30.1561 35.9139 30.0902 35.9172 30.0366C35.9522 28.8598 35.6442 27.9724 35.1661 26.7162L35.166 26.7159C35.1388 26.6414 35.1121 26.5748 35.0871 26.5125C34.9968 26.2874 34.9287 26.1177 34.9399 25.8274C34.9399 25.8274 34.9399 25.8274 34.9399 25.8274L34.9511 25.8281L34.9399 25.8274C34.9399 25.8274 34.9399 25.8274 34.9399 25.8274C34.9468 25.6411 34.9346 25.4311 34.9206 25.2201C34.919 25.1969 34.9174 25.1737 34.9159 25.1506ZM35.2576 28.7801C35.2989 29.5083 35.2416 30.2405 35.0885 30.9417L35.0882 30.9427L35.0879 30.9437C35.056 31.0381 35.0272 31.0965 34.9992 31.1313C34.9707 31.1668 34.9433 31.1775 34.9159 31.1775V31.1475C34.9378 31.1475 34.9596 31.1395 34.9838 31.1094C35.0085 31.0787 35.0358 31.0248 35.0671 30.9323C35.2193 30.2349 35.2762 29.5067 35.2352 28.7824L35.2576 28.7801ZM35.2429 30.8383C35.3616 30.4289 35.3616 29.9255 35.3337 29.6835L35.356 29.679C35.3843 29.9246 35.3844 30.4336 35.2639 30.8492L35.2429 30.8383Z" fill="black"/>
<path fill-rule="evenodd" clip-rule="evenodd" d="M33.6441 13.9193L33.9605 13.6006L33.974 13.6245L33.6576 13.9433L33.6441 13.9193ZM34.0373 13.6986C34.0446 13.6943 34.0519 13.6913 34.0587 13.6913V13.7213C34.0566 13.7213 34.0527 13.7224 34.0463 13.7261C34.0402 13.7297 34.0326 13.7352 34.0235 13.7428C34.0053 13.7579 33.9819 13.7804 33.953 13.8097C33.9277 13.8351 33.8985 13.8655 33.865 13.9003C33.8601 13.9054 33.8551 13.9106 33.85 13.9159C33.8102 13.9572 33.7649 14.0041 33.7139 14.0558L33.7003 14.0319C33.7512 13.9804 33.7964 13.9335 33.8362 13.8922C33.8413 13.8869 33.8463 13.8817 33.8512 13.8766C33.8846 13.8419 33.914 13.8114 33.9394 13.7858C33.9684 13.7564 33.9925 13.7332 34.0116 13.7173C34.0212 13.7094 34.0298 13.703 34.0373 13.6986ZM33.446 13.9863L33.5585 13.8363L33.5744 13.8575L33.4619 14.0075L33.446 13.9863ZM33.9267 13.9854C33.9773 13.9295 34.0244 13.8809 34.0615 13.8611L34.0699 13.889C34.0367 13.9067 33.9923 13.9519 33.941 14.0085C33.9274 14.0235 33.9134 14.0392 33.8991 14.0553C33.8599 14.0992 33.8185 14.1457 33.7771 14.1871L33.7636 14.1631C33.8044 14.1222 33.8452 14.0766 33.8841 14.0329C33.8986 14.0166 33.9128 14.0007 33.9267 13.9854ZM32.8593 22.3871C32.8599 22.4289 32.8605 22.4753 32.8605 22.5282H32.838C32.838 22.4772 32.8374 22.4315 32.8368 22.3901C32.8358 22.3108 32.8349 22.2468 32.839 22.1893C32.8453 22.1 32.8635 22.025 32.9102 21.9294L32.929 21.9457C32.8843 22.0376 32.8673 22.1079 32.8614 22.1921C32.8574 22.248 32.8582 22.3093 32.8593 22.3871ZM32.9903 22.4208C32.9894 22.4511 32.9883 22.4838 32.9871 22.5195L32.9646 22.5181C32.9658 22.483 32.9669 22.4505 32.9678 22.4204C32.9725 22.2749 32.9754 22.1855 32.985 22.1221C32.991 22.0832 32.9995 22.0532 33.0129 22.0255C33.0261 21.9981 33.0436 21.9737 33.0667 21.9453L33.0819 21.9673C33.0593 21.9952 33.0434 22.0176 33.0318 22.0418C33.0203 22.0657 33.0126 22.092 33.0071 22.128C32.9978 22.1889 32.995 22.2752 32.9903 22.4208ZM33.1301 22.3884C33.1295 22.4071 33.1289 22.4258 33.1277 22.4451L33.1053 22.4426C33.1063 22.4256 33.1069 22.4081 33.1075 22.39C33.1088 22.3506 33.1101 22.3084 33.1169 22.2628C33.1269 22.1949 33.1486 22.118 33.1987 22.0227L33.2171 22.0399C33.1687 22.1321 33.1483 22.2052 33.1389 22.2686C33.1325 22.312 33.1313 22.3503 33.1301 22.3884ZM36.4892 29.0685C36.3667 28.5826 36.2388 28.0751 36.0953 27.7769L36.1142 27.7607C36.2593 28.0621 36.388 28.5728 36.5099 29.0567C36.5158 29.0802 36.5217 29.1036 36.5276 29.1269C36.5914 29.3795 36.6534 29.6219 36.7153 29.821C36.7775 30.0208 36.8387 30.1744 36.9 30.2516L36.8845 30.2735C36.8193 30.1913 36.7566 30.032 36.6945 29.8325C36.6323 29.6323 36.57 29.3889 36.5063 29.1365C36.5006 29.1139 36.4949 29.0912 36.4892 29.0685ZM35.6509 30.2777C35.7136 29.9429 35.7138 29.4671 35.6437 28.9433L35.6658 28.938C35.7363 29.4643 35.7365 29.9447 35.6727 30.2849L35.6509 30.2777ZM36.3558 29.7329C36.3674 29.8302 36.3691 29.9343 36.3691 30.0188H36.3466C36.3466 29.9346 36.3449 29.8324 36.3336 29.7376C36.3222 29.6422 36.3016 29.5568 36.2652 29.5039L36.2818 29.4837C36.3228 29.5433 36.3443 29.6361 36.3558 29.7329ZM35.4915 30.4001C35.4876 30.3552 35.484 30.315 35.4818 30.2827L35.5042 30.2799C35.5064 30.311 35.5098 30.3503 35.5137 30.3946C35.5226 30.4954 35.5337 30.6223 35.5368 30.739C35.539 30.8231 35.5371 30.9034 35.5268 30.9661C35.5167 31.0275 35.4974 31.0783 35.4611 31.0926L35.4547 31.0638C35.4781 31.0546 35.4949 31.0198 35.5048 30.9597C35.5145 30.9008 35.5165 30.8235 35.5143 30.74C35.5113 30.6246 35.5003 30.5004 35.4915 30.4001ZM36.7823 31.7674C36.7821 31.7671 36.7813 31.7663 36.7798 31.7663V31.7963C36.7695 31.7963 36.7635 31.7858 36.7606 31.7765C36.7576 31.7669 36.7562 31.7541 36.7562 31.7391C36.7562 31.7088 36.7618 31.6649 36.7761 31.6078L36.7975 31.6173C36.7836 31.6727 36.7787 31.7132 36.7787 31.7391C36.7787 31.7522 36.78 31.7605 36.7813 31.765C36.7821 31.7676 36.7826 31.7678 36.7823 31.7674ZM36.6618 31.7901C36.6626 31.8205 36.6706 31.8371 36.6793 31.8429L36.6693 31.8697C36.6498 31.8568 36.6403 31.8265 36.6393 31.7912C36.6383 31.7553 36.646 31.7106 36.6642 31.6621L36.6843 31.6755C36.6674 31.7208 36.661 31.7604 36.6618 31.7901ZM36.5403 31.8826C36.5413 31.8992 36.5445 31.9069 36.5474 31.9099L36.5339 31.9339C36.5229 31.9229 36.519 31.9037 36.5178 31.8851C36.5166 31.8658 36.5181 31.8428 36.5208 31.8189C36.5247 31.7838 36.5316 31.7446 36.5377 31.7098C36.5399 31.6975 36.542 31.6857 36.5438 31.6749L36.5657 31.6814C36.5638 31.693 36.5617 31.7052 36.5594 31.7178C36.5534 31.7523 36.5468 31.7896 36.543 31.8234C36.5404 31.8464 36.5393 31.8667 36.5403 31.8826ZM36.3933 31.957C36.3937 31.9579 36.394 31.9582 36.394 31.9582L36.378 31.9794C36.3746 31.9748 36.3724 31.9688 36.3708 31.963C36.3692 31.9569 36.3681 31.9499 36.3673 31.9423C36.3657 31.927 36.3655 31.908 36.3669 31.8867C36.3696 31.844 36.3787 31.7908 36.3969 31.7376L36.4173 31.75C36.4003 31.7999 36.3918 31.8498 36.3893 31.8892C36.388 31.9089 36.3883 31.9257 36.3896 31.9382C36.3902 31.9445 36.3911 31.9494 36.392 31.953C36.3925 31.9548 36.393 31.9561 36.3933 31.957Z" fill="black"/>
<path d="M35.192 14.3155C35.2483 14.4093 35.3116 14.4093 35.3186 14.4655C35.3326 14.5405 35.3397 14.5405 35.3467 14.5593C35.3608 14.578 35.3186 14.578 35.3045 14.5593H35.2061C35.178 14.5593 35.1498 14.5124 35.1639 14.5124C35.185 14.503 35.185 14.4937 35.178 14.4749C35.178 14.4468 35.192 14.4187 35.2061 14.4093L35.1991 14.3812C35.185 14.353 35.178 14.2874 35.192 14.3062V14.3155ZM35.2272 14.2124C35.3163 14.2294 35.3996 14.2816 35.4662 14.3624C35.5155 14.4374 35.4733 14.4187 35.4522 14.4187C35.4311 14.4187 35.3819 14.3999 35.3537 14.3624C35.3169 14.3108 35.271 14.2721 35.2201 14.2499C35.1991 14.2499 35.178 14.2124 35.2201 14.2124H35.2272Z" fill="black"/>
<path d="M0 0H22.5V22.5H0V0Z" fill="#012169"/>
<path d="M2.63672 0L11.2148 8.48438L19.7578 0H22.5V2.90625L14.0625 11.2969L22.5 19.6406V22.5H19.6875L11.25 14.1094L2.84766 22.5H0V19.6875L8.40234 11.3438L0 3V0H2.63672Z" fill="white"/>
<path d="M14.9062 13.1719L22.5 20.625V22.5L12.9727 13.1719H14.9062ZM8.4375 14.1094L8.64844 15.75L1.89844 22.5H0L8.4375 14.1094ZM22.5 0V0.140625L13.7461 8.95312L13.8164 6.89062L20.7422 0H22.5ZM0 0L8.40234 8.25H6.29297L0 1.96875V0Z" fill="#C8102E"/>
<path d="M8.47266 0V22.5H14.0977V0H8.47266ZM0 7.5V15H22.5V7.5H0Z" fill="white"/>
<path d="M0 9.04688V13.5469H22.5V9.04688H0ZM9.59766 0V22.5H12.9727V0H9.59766Z" fill="#C8102E"/>
</g>
<defs>
<clipPath id="clip0_45_17724">
<rect width="45" height="45" fill="white"/>
</clipPath>
</defs>
</svg>
