<svg width="45" height="45" viewBox="0 0 45 45" fill="none" xmlns="http://www.w3.org/2000/svg">
<g clip-path="url(#clip0_45_17811)">
<path d="M0 0H45V45H0V0Z" fill="#D21034"/>
<path d="M8.4375 11.25H36.5625V33.75H8.4375V11.25Z" fill="#007E3A"/>
<path d="M24.6094 30C27.716 30 30.2344 26.6421 30.2344 22.5C30.2344 18.3579 27.716 15 24.6094 15C21.5028 15 18.9844 18.3579 18.9844 22.5C18.9844 26.6421 21.5028 30 24.6094 30Z" fill="white"/>
<path d="M26.7188 30C29.8254 30 32.3438 26.6421 32.3438 22.5C32.3438 18.3579 29.8254 15 26.7188 15C23.6121 15 21.0938 18.3579 21.0938 22.5C21.0938 26.6421 23.6121 30 26.7188 30Z" fill="#007E3A"/>
</g>
<defs>
<clipPath id="clip0_45_17811">
<rect width="45" height="45" fill="white"/>
</clipPath>
</defs>
</svg>
