<svg width="45" height="45" viewBox="0 0 45 45" fill="none" xmlns="http://www.w3.org/2000/svg">
<g clip-path="url(#clip0_45_17816)">
<path fill-rule="evenodd" clip-rule="evenodd" d="M0 0H45V45H0V0Z" fill="#F41408"/>
<path fill-rule="evenodd" clip-rule="evenodd" d="M0 30H45V45H0V30Z" fill="#21873B"/>
<path fill-rule="evenodd" clip-rule="evenodd" d="M0 0H45V15H0V0Z" fill="black"/>
<path fill-rule="evenodd" clip-rule="evenodd" d="M15.5043 13.2188C17.0723 8.60625 21.4457 6.39375 25.2637 8.29688C26.1597 8.7019 26.984 9.34765 27.6854 10.1942C28.3868 11.0408 28.9506 12.0702 29.3418 13.2188H15.5043ZM13.6762 13.8187C12.4354 13.7061 11.2034 13.4616 9.99184 13.0875C9.70356 12.9656 9.68949 12.75 9.72465 12.5906C9.75981 12.4313 9.94262 12.2531 10.1606 12.3094C10.5543 12.4406 12.1856 12.9656 13.6762 13.8187ZM22.4371 5.76562C22.1418 3.79688 22.0715 1.64062 22.0996 1.26562C22.1278 0.9 22.2895 0.84375 22.4301 0.84375C22.5707 0.84375 22.7606 1.0125 22.7606 1.28437C22.7606 1.78125 22.7536 3.81563 22.4371 5.78438V5.76562ZM23.2528 5.8125C23.1362 4.3107 23.1291 2.79737 23.2317 1.29375C23.2879 0.928125 23.4567 0.88125 23.5903 0.9C23.7309 0.909375 23.9067 1.09688 23.8856 1.36875C23.8504 1.86563 23.7028 3.89062 23.2528 5.8125ZM23.984 5.93437C23.97 3.9375 24.195 1.78125 24.2723 1.43438C24.3496 1.06875 24.5254 1.04062 24.659 1.06875C24.7996 1.09687 24.9614 1.30313 24.9262 1.56563C24.8559 2.0625 24.5606 4.05937 23.984 5.93437ZM24.7575 6.14062C24.884 4.15312 25.2707 2.03437 25.3762 1.6875C25.4817 1.34062 25.6575 1.33125 25.784 1.36875C25.9247 1.41563 26.0653 1.63125 26.0161 1.89375C25.9036 2.37188 25.4746 4.33125 24.7645 6.14062H24.7575ZM25.5239 6.44062C25.7981 4.47187 26.3325 2.4 26.459 2.0625C26.5926 1.73438 26.7614 1.73438 26.895 1.79063C27.0215 1.84688 27.1551 2.09062 27.0848 2.33437C26.6613 3.76481 26.1387 5.13951 25.5239 6.44062ZM26.234 6.79688C26.6418 4.85625 27.3239 2.85938 27.4786 2.53125C27.6332 2.2125 27.802 2.24063 27.9286 2.31563C28.0551 2.38125 28.1676 2.63438 28.0762 2.87813C27.9004 3.32812 27.1973 5.16563 26.234 6.79688ZM26.9371 7.2375C27.3553 5.80428 27.8732 4.4264 28.484 3.12187C28.6528 2.82187 28.8286 2.86875 28.9481 2.95312C28.9835 2.98107 29.0143 3.01814 29.0388 3.06217C29.0634 3.10619 29.081 3.1563 29.0909 3.20954C29.1007 3.26279 29.1024 3.31811 29.096 3.37228C29.0896 3.42644 29.0752 3.47836 29.0536 3.525C28.8426 3.95625 28.0059 5.71875 26.9371 7.2375ZM27.5981 7.75312C28.2801 5.93437 29.2364 4.09688 29.4332 3.81563C29.6301 3.53438 29.7989 3.6 29.9114 3.69375C29.9449 3.72543 29.9734 3.76571 29.9951 3.81223C30.0169 3.85875 30.0315 3.91059 30.038 3.9647C30.0445 4.01882 30.0429 4.07413 30.0333 4.12741C30.0236 4.18069 30.0061 4.23086 29.9817 4.275C29.7356 4.6875 28.7723 6.34687 27.5911 7.74375L27.5981 7.75312ZM28.2168 8.33438C29.0325 6.59063 30.1153 4.86562 30.3332 4.6125C30.5442 4.35 30.7129 4.425 30.8184 4.5375C30.8492 4.57319 30.8742 4.6168 30.892 4.66571C30.9098 4.71462 30.92 4.76783 30.9219 4.82213C30.9239 4.87642 30.9176 4.93069 30.9034 4.98167C30.8893 5.03264 30.8675 5.07927 30.8395 5.11875C30.5723 5.50312 29.4965 7.05938 28.2168 8.33438ZM28.8004 8.98125C29.5138 7.72738 30.3091 6.56031 31.177 5.49375C31.409 5.25937 31.5637 5.35313 31.6621 5.46562C31.6913 5.50526 31.714 5.55249 31.7288 5.60436C31.7437 5.65623 31.7503 5.71163 31.7483 5.76708C31.7463 5.82253 31.7358 5.87683 31.7173 5.92659C31.6989 5.97635 31.6729 6.02049 31.6411 6.05625C31.3528 6.4125 30.1645 7.84688 28.8004 8.98125ZM29.3348 9.68438C30.1317 8.50886 31.0072 7.43254 31.9504 6.46875C32.2036 6.25313 32.3512 6.36563 32.4426 6.49688C32.527 6.61875 32.5481 6.90938 32.3723 7.07812C31.4164 8.05886 30.4003 8.93068 29.3348 9.68438ZM29.7918 10.4156C30.6709 9.32447 31.619 8.33643 32.6254 7.4625C32.8856 7.275 33.0262 7.40625 33.1036 7.54688C33.1879 7.67812 33.1809 7.96875 33.0051 8.11875C32.6676 8.4 31.2965 9.58125 29.7918 10.4156ZM30.2067 11.1938C31.1575 10.2046 32.1689 9.32334 33.2301 8.55938C33.5114 8.4 33.645 8.54062 33.7153 8.68125C33.7856 8.83125 33.7575 9.1125 33.5746 9.24375C32.4913 10.0152 31.3626 10.6673 30.1996 11.1938H30.2067ZM30.5864 12.0938C31.6105 11.2139 32.6877 10.4487 33.8067 9.80625C34.095 9.675 34.2145 9.83438 34.2707 9.98438C34.334 10.1344 34.2918 10.4156 34.0879 10.5281C33.7153 10.7344 32.1895 11.5969 30.5864 12.0938ZM30.8817 12.9562C31.9649 12.1845 33.0937 11.5323 34.2567 11.0063C34.552 10.9125 34.6575 11.0813 34.7067 11.2406C34.7489 11.3906 34.6856 11.6719 34.4817 11.7563C34.095 11.9344 32.5129 12.6281 30.8817 12.9562ZM31.1207 13.875C32.2539 13.2214 33.4249 12.6916 34.6223 12.2906C34.9176 12.2344 35.0161 12.4031 35.0512 12.5719C35.0864 12.7313 35.002 12.9937 34.7911 13.0687C34.3903 13.1906 32.7661 13.725 31.1207 13.875ZM21.6426 5.8125C21.3091 4.36379 21.0807 2.8757 20.9606 1.36875C20.9606 1.00313 21.1223 0.91875 21.2559 0.9C21.3965 0.890625 21.6075 1.04062 21.6215 1.30312C21.6567 1.8 21.8043 3.825 21.6496 5.8125H21.6426ZM20.8692 5.93437C20.4294 4.53111 20.0926 3.07429 19.8637 1.58437C19.8356 1.20937 19.9903 1.11563 20.1239 1.0875C20.2645 1.05938 20.4754 1.18125 20.5176 1.44375C20.7376 2.92314 20.8552 4.42631 20.8692 5.93437ZM20.0957 6.14062C19.5558 4.78694 19.1132 3.3681 18.7739 1.90312C18.7176 1.5375 18.8653 1.425 18.9989 1.37812C19.1325 1.34062 19.3504 1.43438 19.4137 1.69688C19.5192 2.175 19.9551 4.13438 20.0887 6.13125L20.0957 6.14062ZM19.3575 6.42188C18.7292 5.13187 18.1925 3.76659 17.7543 2.34375C17.677 1.9875 17.8106 1.85625 17.9372 1.8C18.0707 1.74375 18.2957 1.81875 18.3731 2.0625C18.5137 2.53125 19.0903 4.44375 19.3575 6.4125V6.42188ZM18.6473 6.75C17.9266 5.53326 17.2911 4.23093 16.7489 2.85938C16.6504 2.5125 16.777 2.3625 16.9036 2.29688C17.0301 2.22187 17.2551 2.27812 17.3536 2.52187C17.5293 2.97187 18.2325 4.81875 18.6473 6.75ZM17.9231 7.21875C17.1145 6.08429 16.385 4.85424 15.7434 3.54375C15.6239 3.21562 15.7364 3.05625 15.8559 2.97188C15.9754 2.8875 16.2075 2.91562 16.32 3.15C16.5309 3.58125 17.3746 5.33437 17.9231 7.21875ZM17.2621 7.725C16.379 6.67576 15.5673 5.5244 14.8364 4.28438C14.6887 3.96563 14.7871 3.79688 14.9067 3.69375C15.0121 3.6 15.2582 3.6 15.3778 3.825C15.6168 4.22812 16.5801 5.8875 17.2621 7.71563V7.725ZM16.6504 8.2875C15.6946 7.33339 14.8029 6.26999 13.9856 5.10938C13.8168 4.80938 13.9082 4.64062 14.0137 4.52812C14.088 4.46672 14.1758 4.44071 14.2626 4.45433C14.3494 4.46795 14.4302 4.5204 14.4918 4.60312C14.759 4.97812 15.8418 6.54375 16.6504 8.2875ZM16.0528 8.94375C15.0319 8.09609 14.0674 7.13318 13.17 6.06562C12.9731 5.78437 13.0504 5.59688 13.1489 5.475C13.22 5.40509 13.3069 5.36975 13.3952 5.37487C13.4834 5.37998 13.5677 5.42525 13.634 5.50313C13.9293 5.85 15.1106 7.28438 16.0528 8.93438V8.94375ZM15.5325 9.6C14.4559 8.86034 13.4281 8.00105 12.4598 7.03125C12.2489 6.76875 12.3121 6.58125 12.4036 6.45C12.4879 6.31875 12.72 6.25313 12.8887 6.42188C13.8376 7.38018 14.7222 8.4467 15.5325 9.60938V9.6ZM15.0403 10.3687C13.9129 9.74635 12.8264 9.00003 11.7918 8.1375C11.5598 7.90313 11.609 7.69687 11.6864 7.56562C11.7637 7.425 11.9887 7.33125 12.1715 7.48125C12.509 7.77188 13.8801 8.93437 15.0403 10.3687ZM14.5973 11.1938C13.0364 10.5375 11.4403 9.54375 11.1942 9.32812C10.9411 9.12187 10.9832 8.91562 11.0465 8.76562C11.1098 8.61562 11.3278 8.50312 11.5246 8.63437C11.8762 8.8875 13.3387 9.9 14.5973 11.1938ZM14.2246 12.0375C12.6215 11.5406 10.9692 10.725 10.702 10.5375C10.4418 10.35 10.4559 10.1438 10.5192 9.99375C10.5754 9.84375 10.7793 9.70312 10.9832 9.80625C11.3559 10.0219 12.8817 10.875 14.2246 12.0375ZM13.9293 12.8812C12.7036 12.63 11.495 12.2475 10.3153 11.7375C10.034 11.5875 10.0481 11.3719 10.0903 11.2219C10.1395 11.0625 10.3364 10.9031 10.5403 10.9875C10.934 11.1656 12.509 11.8594 13.9293 12.8812Z" fill="#F31509"/>
<path fill-rule="evenodd" clip-rule="evenodd" d="M13.6762 13.8188C12.4355 13.7062 11.2034 13.4616 9.99184 13.0876C9.70356 12.9657 9.68949 12.7501 9.72465 12.5907C9.75981 12.4313 9.94262 12.2532 10.1606 12.3094C10.5543 12.4407 12.1856 12.9657 13.6762 13.8188Z" fill="#F31509"/>
<path fill-rule="evenodd" clip-rule="evenodd" d="M9.09766 13.2656H35.9008V14.4469H9.09766V13.2656Z" fill="black"/>
</g>
<defs>
<clipPath id="clip0_45_17816">
<rect width="45" height="45" fill="white"/>
</clipPath>
</defs>
</svg>
