<svg width="45" height="45" viewBox="0 0 45 45" fill="none" xmlns="http://www.w3.org/2000/svg">
<g clip-path="url(#clip0_45_18293)">
<path fill-rule="evenodd" clip-rule="evenodd" d="M0 0H45V45H0V0Z" fill="white"/>
<path fill-rule="evenodd" clip-rule="evenodd" d="M-1.85547 0.01875L-1.79922 32.4187L36.0359 0L-1.85547 0.01875Z" fill="#3662A2"/>
<path fill-rule="evenodd" clip-rule="evenodd" d="M46.8586 44.9627L46.7602 11.2783L8.60156 44.9814L46.8516 44.9627H46.8586Z" fill="#38A100"/>
<path fill-rule="evenodd" clip-rule="evenodd" d="M-1.82812 34.8564L-1.8 45.0002L6.46172 44.9908L46.7859 8.94395L46.7367 0.12207L38.5805 0.0283203L-1.82812 34.8471V34.8564Z" fill="#C70000"/>
<path fill-rule="evenodd" clip-rule="evenodd" d="M15.443 16.125L13.9102 14.8875L13.0242 16.9594L12.1664 14.8781L10.6195 16.0875L10.6617 13.7062L8.87578 13.725L9.80391 11.6812L8.25 10.5094L9.81094 9.35625L8.91094 7.29375L10.6969 7.35L10.6898 4.95938L12.2156 6.19687L13.1016 4.125L13.9594 6.20625L15.5062 4.99687L15.4641 7.37812L17.25 7.35938L16.3219 9.40313L17.8758 10.575L16.3148 11.7281L17.2148 13.7906L15.4289 13.7344L15.443 16.125Z" fill="#FFE700"/>
<path fill-rule="evenodd" clip-rule="evenodd" d="M16.3422 10.5373C16.3422 12.9373 14.8727 14.8779 13.0656 14.8779C11.2586 14.8779 9.78906 12.9373 9.78906 10.5373C9.78906 8.13731 11.2516 6.20605 13.0656 6.20605C14.8797 6.20605 16.3422 8.14668 16.3422 10.5373Z" fill="#3662A2"/>
<path fill-rule="evenodd" clip-rule="evenodd" d="M15.6328 10.5371C15.6328 11.4446 15.3624 12.315 14.8811 12.9567C14.3998 13.5985 13.7471 13.959 13.0664 13.959C12.3858 13.959 11.733 13.5985 11.2517 12.9567C10.7704 12.315 10.5 11.4446 10.5 10.5371C10.5 9.62957 10.7704 8.7592 11.2517 8.11748C11.733 7.47575 12.3858 7.11523 13.0664 7.11523C13.7471 7.11523 14.3998 7.47575 14.8811 8.11748C15.3624 8.7592 15.6328 9.62957 15.6328 10.5371Z" fill="#FFE700"/>
</g>
<defs>
<clipPath id="clip0_45_18293">
<rect width="45" height="45" fill="white"/>
</clipPath>
</defs>
</svg>
