<svg width="45" height="45" viewBox="0 0 45 45" fill="none" xmlns="http://www.w3.org/2000/svg">
<g clip-path="url(#clip0_45_18302)">
<path d="M0 0H45V45H0V0Z" fill="#009543"/>
<path d="M0 0H45V30H0V0Z" fill="#ED4135"/>
<path d="M0 0H45V15H0V0Z" fill="#0035AD"/>
<path d="M16.8766 37.2467C22.9849 37.2467 27.9367 30.6443 27.9367 22.4998C27.9367 14.3553 22.9849 7.75293 16.8766 7.75293C10.7682 7.75293 5.81641 14.3553 5.81641 22.4998C5.81641 30.6443 10.7682 37.2467 16.8766 37.2467Z" fill="#FAE600"/>
<path fill-rule="evenodd" clip-rule="evenodd" d="M16.8754 8.00176C10.8699 8.00176 6.00156 14.4929 6.00156 22.5002C6.00156 30.5075 10.8699 36.9986 16.8754 36.9986C22.8808 36.9986 27.7492 30.5075 27.7492 22.5002C27.7492 14.4929 22.8808 8.00176 16.8754 8.00176ZM5.62891 22.5002C5.62891 14.2185 10.6641 7.50488 16.8754 7.50488C23.0867 7.50488 28.1219 14.2185 28.1219 22.5002C28.1219 30.7819 23.0867 37.4955 16.8754 37.4955C10.6641 37.4955 5.62891 30.7819 5.62891 22.5002Z" fill="black"/>
<path d="M14.9961 24.7029H18.7438H14.9961ZM14.9961 20.9998H18.7438H14.9961ZM16.8734 7.7998V32.9998V7.7998Z" fill="black"/>
<path fill-rule="evenodd" clip-rule="evenodd" d="M16.6484 20.6998V7.7998H17.0984V20.6998H18.7438V21.2998H17.0984V24.4029H18.7438V25.0029H17.0984V32.9998H16.6484V25.0029H14.9961V24.4029H16.6484V21.2998H14.9961V20.6998H16.6484Z" fill="black"/>
<path d="M12.418 36.0376C16.932 38.5032 21.1648 36.197 21.1648 36.197C21.1648 36.197 19.5688 33.8907 18.7531 32.9907C17.9516 32.1095 15.6031 32.147 14.8016 32.9907C13.9709 33.9548 13.1754 34.9716 12.418 36.0376Z" fill="black"/>
<path d="M16.8742 31.6965C17.5577 31.6965 18.1117 30.622 18.1117 29.2965C18.1117 27.971 17.5577 26.8965 16.8742 26.8965C16.1908 26.8965 15.6367 27.971 15.6367 29.2965C15.6367 30.622 16.1908 31.6965 16.8742 31.6965Z" fill="black"/>
<path d="M16.8766 24.1123C17.7037 24.1123 18.3742 23.5457 18.3742 22.8467C18.3742 22.1477 17.7037 21.5811 16.8766 21.5811C16.0494 21.5811 15.3789 22.1477 15.3789 22.8467C15.3789 23.5457 16.0494 24.1123 16.8766 24.1123Z" fill="black"/>
<path d="M16.8766 18.9938C17.7037 18.9938 18.3742 18.0997 18.3742 16.9969C18.3742 15.894 17.7037 15 16.8766 15C16.0494 15 15.3789 15.894 15.3789 16.9969C15.3789 18.0997 16.0494 18.9938 16.8766 18.9938Z" fill="black"/>
<path d="M18.6766 9.55332C18.6766 9.55332 18.8031 9.83457 18.5359 10.4908C17.2281 13.6314 15.9133 13.6971 15.6672 13.9689C15.3859 14.2689 15.2734 14.2502 15.2734 14.2502C15.2945 13.9783 15.3086 12.8814 15.3227 12.7783C15.5266 11.3064 17.1859 11.3252 18.4867 9.8252C18.6906 9.59082 18.6766 9.54395 18.6766 9.54395V9.55332ZM14.2891 16.3033C14.2891 16.3033 14.5914 17.4283 14.6266 18.5533C14.6969 20.3533 15.9906 20.4002 16.8766 20.4002V19.3971C16.2086 19.3971 15.632 19.2658 15.1539 17.9533C14.9023 17.3707 14.613 16.8186 14.2891 16.3033ZM14.2539 30.7971C14.2539 30.7971 14.725 30.0189 15.2805 28.2002C15.5617 27.2533 16.2508 26.7002 16.8766 26.7002V25.2939C15.4492 25.2939 14.7672 25.9971 14.6969 27.0377C14.6074 28.3018 14.4595 29.5573 14.2539 30.7971Z" fill="black"/>
<path d="M19.4625 16.3027C19.4625 16.3027 19.1602 17.4277 19.125 18.5527C19.0547 20.3527 17.7609 20.3996 16.875 20.3996V19.4059C17.543 19.4059 18.1195 19.2746 18.5977 17.9527C18.8508 17.3715 19.1391 16.8184 19.4625 16.3027ZM19.4977 30.8059C19.4977 30.8059 19.0266 30.0184 18.4711 28.1996C18.1898 27.2527 17.5008 26.6996 16.875 26.6996V25.3121C18.3023 25.3121 18.9844 26.0152 19.0547 27.0559C19.1445 28.3168 19.2924 29.5692 19.4977 30.8059Z" fill="black"/>
</g>
<defs>
<clipPath id="clip0_45_18302">
<rect width="45" height="45" fill="white"/>
</clipPath>
</defs>
</svg>
