<svg width="45" height="45" viewBox="0 0 45 45" fill="none" xmlns="http://www.w3.org/2000/svg">
<g clip-path="url(#clip0_45_18335)">
<path d="M0 0H45V45H0V0Z" fill="#0067C6"/>
<path d="M0 15H45V30H0V15Z" fill="white"/>
<path d="M17.4375 22.4531L18 22.5V22.3875L17.7891 22.3688L17.8031 22.0125L18.0352 21.7875L18.0422 21.6469L17.7961 21.8812C17.7891 21.8062 17.7539 21.7219 17.6977 21.6937C17.6414 21.675 17.5852 21.675 17.5359 21.7219C17.4797 21.7781 17.4656 21.8719 17.4656 21.9562L17.4375 22.4531ZM17.5219 22.35L17.543 21.975C17.55 21.9187 17.557 21.8438 17.5992 21.8063C17.6081 21.7983 17.6183 21.7932 17.6289 21.7912C17.6396 21.7893 17.6504 21.7907 17.6606 21.7952C17.6708 21.7997 17.68 21.8073 17.6877 21.8173C17.6953 21.8274 17.7011 21.8396 17.7047 21.8531C17.7328 21.9469 17.7187 22.05 17.7117 22.1531L17.7047 22.3594L17.5219 22.35ZM17.5078 21.3L18.0562 21.4688L18.1828 20.7562C18.157 20.7501 18.1312 20.7438 18.1055 20.7375L18 21.3375L17.8313 21.2906L17.9297 20.7469L17.8523 20.7188L17.7539 21.2625L17.6133 21.2156L17.7117 20.6344L17.6273 20.6156L17.5078 21.3ZM17.7047 20.3156L18.2391 20.5687L18.2672 20.4656L18.0562 20.3719L18.1406 20.0438C18.1547 19.95 18.1687 19.8563 18.1336 19.7625C18.1172 19.7334 18.096 19.7098 18.0716 19.6935C18.0472 19.6772 18.0203 19.6688 17.993 19.6688C17.9227 19.6688 17.8805 19.7344 17.8523 19.8094C17.8102 19.9031 17.782 20.0156 17.7609 20.1281L17.7047 20.3156ZM17.8102 20.25L17.8945 19.9313C17.9156 19.875 17.9367 19.8094 17.9859 19.7906C17.9957 19.7879 18.0058 19.788 18.0155 19.7909C18.0253 19.7938 18.0344 19.7994 18.0424 19.8074C18.0504 19.8154 18.057 19.8256 18.0618 19.8372C18.0666 19.8489 18.0695 19.8617 18.0703 19.875C18.0844 19.9688 18.0492 20.0625 18.0281 20.1562L17.9789 20.3344L17.8102 20.25ZM18 19.4062L18.3023 19.65C18.3586 19.6875 18.4289 19.7063 18.4922 19.6688C18.5684 19.5998 18.6272 19.5018 18.6609 19.3875C18.6891 19.2938 18.7172 19.1813 18.675 19.0875C18.6328 18.9938 18.5555 18.9563 18.4852 18.9L18.2953 18.75L18.2531 18.8438L18.5344 19.0687C18.5836 19.1062 18.6188 19.1625 18.6117 19.2469C18.5977 19.3327 18.5688 19.413 18.5273 19.4813C18.4992 19.5375 18.443 19.5844 18.3867 19.575C18.3305 19.5563 18.2812 19.5 18.232 19.4625L18.0422 19.3219L18 19.4156V19.4062ZM18.4078 18.5344L18.8508 18.9844L19.0617 18.6281C19.1039 18.5437 19.132 18.4406 19.1109 18.3469C19.0979 18.3108 19.0781 18.2798 19.0535 18.2568C19.0288 18.2338 19.0002 18.2197 18.9703 18.2156C18.9352 18.2156 18.9 18.2437 18.8859 18.2531C18.9 18.1687 18.8508 18.0938 18.8016 18.075C18.7312 18.0469 18.6609 18.1031 18.6187 18.1688L18.4781 18.4031L18.4078 18.5344ZM18.5203 18.5062C18.5695 18.4125 18.6188 18.3188 18.675 18.2438C18.7031 18.2063 18.7453 18.15 18.7805 18.1875C18.8156 18.2062 18.8297 18.2719 18.8086 18.3094C18.7805 18.3938 18.7383 18.45 18.6961 18.525L18.6398 18.6281L18.5203 18.5062ZM18.7031 18.6937L18.8648 18.4125C18.893 18.375 18.9352 18.3188 18.9773 18.3375C19.0195 18.3469 19.0477 18.4031 19.0336 18.4594C19.0125 18.5531 18.9562 18.6281 18.907 18.7125L18.8367 18.8344L18.6961 18.6937H18.7031ZM18.9141 17.7375L19.3008 18.2812L19.6313 17.8594L19.575 17.7844L19.3078 18.1219H19.3008L18.9703 17.6531L18.9141 17.7375ZM19.4062 17.1562L19.7508 17.7469L19.8211 17.6813L19.4695 17.0906L19.4062 17.1562ZM19.9125 16.6969C19.8575 16.7399 19.8097 16.7973 19.7719 16.8656C19.7399 16.922 19.7221 16.9903 19.7208 17.061C19.7196 17.1316 19.735 17.201 19.7648 17.2594C19.7921 17.319 19.831 17.3676 19.8773 17.4C19.9205 17.4303 19.9694 17.4433 20.018 17.4375C20.0857 17.4256 20.1506 17.3935 20.2078 17.3438C20.2663 17.299 20.3149 17.2343 20.3484 17.1562C20.3766 17.0812 20.3836 17.0063 20.3695 16.9313L20.2992 16.9688C20.3133 17.1187 20.243 17.1938 20.1586 17.25C20.032 17.3625 19.9125 17.3531 19.8352 17.2031C19.7578 17.025 19.8352 16.8844 19.9477 16.7906C20.025 16.725 20.1023 16.6781 20.1727 16.7438L20.2359 16.6688C20.1951 16.6296 20.1456 16.6098 20.0953 16.6125C20.032 16.6125 19.9758 16.65 19.9125 16.7062V16.6969ZM20.5805 16.2562L20.5172 17.1L20.6086 17.0531L20.6227 16.7906L20.9039 16.6406L21.0586 16.8094L21.143 16.7625L20.6648 16.2094L20.5805 16.2562ZM20.6508 16.35L20.8406 16.5563L20.6297 16.6688L20.6508 16.3406V16.35ZM21.8109 15.7875L21.8461 16.5375L22.1484 16.5187C22.2328 16.5 22.3172 16.4813 22.3664 16.3875C22.4367 16.2938 22.4508 16.1344 22.4156 16.0031C22.4023 15.9461 22.3776 15.8951 22.3442 15.8554C22.3107 15.8158 22.2698 15.7891 22.2258 15.7781C22.1414 15.7594 22.057 15.7781 21.9727 15.7781L21.8109 15.7969V15.7875ZM21.8953 15.8906L22.1414 15.8812C22.1863 15.8785 22.2306 15.8949 22.268 15.9281C22.3242 15.9844 22.3594 16.0687 22.3523 16.1625C22.3493 16.2148 22.3341 16.2646 22.3089 16.3049C22.2837 16.3452 22.2498 16.3741 22.2117 16.3875C22.1695 16.4063 22.1203 16.4063 22.0781 16.4156L21.9234 16.425L21.8953 15.8906ZM22.5984 15.75L22.5633 16.5L23.1117 16.5375V16.4344L22.6477 16.3969L22.6547 16.1719L23.0766 16.2V16.0969L22.6617 16.0687L22.6687 15.8625L23.1187 15.9V15.7875L22.5914 15.75H22.5984ZM24.0609 16.0594L23.857 16.7625L23.9273 16.8L24.0961 16.2375V16.2188L24.1102 16.2469L24.307 16.9969L24.3984 17.0438L24.6023 16.3406L24.532 16.3031L24.3703 16.8656L24.3633 16.8844L24.3492 16.8563L24.1594 16.1063L24.0609 16.0594ZM24.8203 16.5L24.5602 17.1562L24.4898 17.1094L24.743 16.4437L24.8203 16.5ZM25.2422 16.8281C25.1911 16.7825 25.1337 16.7506 25.0734 16.7344C25.0214 16.7147 24.9661 16.7177 24.9155 16.7431C24.8649 16.7684 24.8217 16.8146 24.7922 16.875C24.765 16.9343 24.7505 17.0024 24.75 17.0719C24.75 17.1375 24.757 17.2031 24.7922 17.2687C24.8203 17.3344 24.8625 17.3906 24.9328 17.4562C24.9894 17.5076 25.0546 17.5398 25.1227 17.55C25.1783 17.5521 25.2328 17.5289 25.2773 17.4844L25.2211 17.4C25.1227 17.4938 25.0453 17.4281 24.968 17.3625C24.8414 17.25 24.7922 17.1 24.8695 16.9406C24.9539 16.7719 25.0875 16.8187 25.2 16.9125C25.2703 16.9781 25.3406 17.0531 25.3266 17.1656L25.3969 17.2031C25.4052 17.1392 25.3978 17.0734 25.3758 17.0156C25.3477 16.9406 25.3055 16.8844 25.2422 16.8281ZM25.7766 17.3625L25.193 17.6813L25.2633 17.7656L25.4461 17.6719L25.6781 17.9344L25.6289 18.1875L25.6992 18.2719L25.8469 17.4469L25.7766 17.3625ZM25.7555 17.4938L25.6992 17.8125L25.5234 17.625L25.7555 17.4938ZM26.2055 17.8875L25.7695 18.3563L25.8188 18.45L25.9945 18.2625L26.1633 18.5438L26.1141 18.9188L26.1773 19.0219L26.2336 18.6281C26.2828 18.675 26.3531 18.7031 26.4094 18.6656C26.4586 18.6281 26.5078 18.5719 26.5078 18.4969C26.5078 18.3938 26.4586 18.3094 26.4164 18.2344L26.2055 17.8875ZM26.1914 18.0375L26.3742 18.3375C26.4023 18.3938 26.4375 18.4688 26.4023 18.525C26.3813 18.5813 26.325 18.5813 26.2898 18.5438C26.2195 18.4781 26.1773 18.3844 26.1211 18.3L26.0508 18.1969L26.1914 18.0375ZM26.8594 19.0781L26.2266 19.1156L26.2758 19.2281L26.4727 19.2188L26.6273 19.575L26.5148 19.7906L26.5641 19.9031L26.9086 19.1906L26.8594 19.0781ZM26.8102 19.1906L26.6695 19.4719L26.5641 19.2094L26.8102 19.1906ZM27.225 20.0719C27.1898 19.95 27.1336 19.8187 27.0352 19.7531C26.982 19.7204 26.9222 19.7118 26.8651 19.7287C26.8079 19.7457 26.7565 19.7872 26.7188 19.8469C26.6484 19.9406 26.6484 20.0813 26.6695 20.2125C26.6906 20.3531 26.7398 20.4937 26.8102 20.5969L26.768 20.6156L26.7961 20.7188L27.0633 20.5969L26.9578 20.2125L26.9016 20.2406L26.9719 20.5219L26.8875 20.5687C26.8112 20.4739 26.7595 20.3491 26.7398 20.2125C26.7187 20.1094 26.7187 19.9875 26.775 19.9125C26.8453 19.8187 26.9578 19.7906 27.0352 19.8656C27.1125 19.9406 27.1547 20.0625 27.1758 20.1844C27.1969 20.2688 27.1898 20.3625 27.1477 20.4281C27.1336 20.4281 27.1477 20.4563 27.1547 20.4656L27.1758 20.5125C27.1996 20.4882 27.2189 20.457 27.2323 20.4213C27.2458 20.3856 27.2529 20.3462 27.2531 20.3063C27.2545 20.2265 27.245 20.1471 27.225 20.0719ZM27.3867 20.6625L27.0703 20.7375C27.0217 20.7469 26.9757 20.7727 26.9367 20.8125C26.9062 20.8492 26.8863 20.8989 26.8805 20.9531V21.1781C26.9016 21.2719 26.9227 21.3375 26.9508 21.3937C26.9719 21.45 27 21.4875 27.0352 21.4875C27.0813 21.5034 27.1297 21.5034 27.1758 21.4875L27.4922 21.4125L27.4781 21.3094L27.1687 21.3844C27.0281 21.4219 26.9859 21.3281 26.9578 21.1594C26.9367 20.9906 26.9578 20.8781 27.0914 20.85L27.4008 20.7656L27.3867 20.6625ZM27.5555 21.9375L26.9719 21.6L26.9789 21.7313L27.1617 21.825L27.1828 22.2375L27.0141 22.3781L27.0211 22.5L27.5625 22.0594L27.5555 21.9375ZM27.4711 22.0031L27.2602 22.1813L27.2461 21.8812L27.4711 22.0031ZM17.8734 23.8781L17.7891 23.9062L17.8805 24.3656L17.9648 24.3375L17.8734 23.8781ZM27.1266 23.8781L27.2109 23.9062L27.1195 24.3656L27.0352 24.3375L27.1266 23.8781ZM18.7453 25.8L18.1125 25.8938L18.1687 25.9969L18.3656 25.9688L18.5344 26.3063L18.4359 26.5406L18.4922 26.6344L18.7945 25.9031L18.7453 25.8ZM18.6961 25.9219L18.5766 26.2031L18.45 25.9594L18.6961 25.9219ZM18.9844 26.2594L18.5836 26.7562L18.6398 26.8313L18.9773 26.4094L18.7945 27.0656L18.8648 27.15L19.343 26.9625L19.0125 27.3656L19.0688 27.4406L19.4695 26.9437L19.3852 26.8313L18.893 27.0188L19.0758 26.3906L18.9844 26.2594ZM19.568 27.0469L19.2305 27.6562L19.6664 28.0875L19.7156 28.0031L19.343 27.6281L19.4484 27.4406L19.7789 27.7875L19.8281 27.6937L19.4977 27.3656L19.5891 27.2063L19.9406 27.5625L19.9898 27.4688L19.568 27.0469ZM20.1164 27.5906L19.8562 28.2469L19.9266 28.3031L20.032 28.0406L20.2711 28.2094L20.3273 28.5844L20.4187 28.65L20.3555 28.2562C20.4188 28.2844 20.4961 28.2656 20.5312 28.2C20.5664 28.1437 20.5945 28.0781 20.5734 28.0031C20.5594 27.9094 20.482 27.8531 20.4258 27.8063L20.1164 27.5906ZM20.1516 27.7312L20.4047 27.9187C20.4469 27.9562 20.4961 28.0031 20.4891 28.0687C20.4891 28.1344 20.4398 28.1625 20.3977 28.1531C20.3133 28.1344 20.243 28.0687 20.1727 28.0219L20.0672 27.9469L20.1516 27.7312ZM20.7563 28.0312L20.5453 28.725L20.6156 28.7719L20.8266 28.0781L20.7563 28.0312ZM21.2625 28.2656C21.204 28.2371 21.1419 28.2244 21.0797 28.2281C21.0255 28.2293 20.9731 28.2536 20.93 28.2975C20.887 28.3414 20.8557 28.4025 20.8406 28.4719C20.8278 28.5364 20.8278 28.6042 20.8406 28.6687C20.8406 28.7437 20.8687 28.8 20.9109 28.8562C20.9594 28.9136 21.0172 28.9553 21.0797 28.9781C21.1451 29.0091 21.2156 29.0156 21.2836 28.9969C21.339 28.9827 21.3888 28.9428 21.4242 28.8844L21.3539 28.8281C21.2836 28.95 21.1922 28.9219 21.1008 28.875C20.9602 28.8094 20.8828 28.6875 20.925 28.5C20.9742 28.3125 21.1148 28.3125 21.2344 28.3594C21.3187 28.3969 21.3961 28.4531 21.4031 28.5563L21.4875 28.575C21.4836 28.5045 21.4612 28.4381 21.4242 28.3875C21.3787 28.3296 21.3231 28.2878 21.2625 28.2656ZM21.825 28.4344L21.4594 29.1188L21.5508 29.1375L21.6633 28.9219L21.9727 28.9875L22.0359 29.2312L22.1273 29.25L21.9164 28.4531L21.825 28.4344ZM21.8602 28.5563L21.9445 28.875L21.7195 28.8281L21.8602 28.5563ZM23.1469 28.4437C23.0766 28.4531 23.0273 28.4812 22.9781 28.5281C22.9317 28.5642 22.895 28.6191 22.8735 28.6849C22.852 28.7506 22.8468 28.8238 22.8586 28.8938C22.8656 28.9594 22.8867 29.0156 22.9289 29.0813C22.957 29.1281 22.9992 29.1563 23.0555 29.175C23.1047 29.1938 23.175 29.1938 23.2523 29.175C23.3227 29.1563 23.393 29.1187 23.4352 29.0625C23.4764 29.0138 23.5037 28.9475 23.5125 28.875H23.4281C23.407 29.025 23.3227 29.0625 23.2312 29.0813C23.0836 29.1188 22.9711 29.0531 22.943 28.8656C22.9148 28.6687 23.0344 28.575 23.1539 28.5375C23.2453 28.5187 23.3297 28.5094 23.3789 28.6031L23.4492 28.5656C23.4228 28.5096 23.3833 28.4667 23.3367 28.4437C23.2745 28.4223 23.2091 28.4223 23.1469 28.4437ZM23.5195 28.35L23.6812 29.0719L24.2086 28.8656L24.1805 28.7625L23.7375 28.9406L23.6883 28.7156L24.0891 28.5563L24.068 28.4625L23.6672 28.6125L23.625 28.425L24.0469 28.2562L24.0258 28.1531L23.5195 28.35ZM24.1313 28.0969L24.3633 28.7812L24.4336 28.7344L24.2367 28.1719L24.7852 28.5H24.8203L24.8906 28.4531L24.6516 27.7688L24.5813 27.8156L24.7781 28.3781L24.2156 28.0406L24.1313 28.0969ZM24.75 27.7125L24.7922 27.8063L24.9891 27.6188H25.0031L25.2633 28.1531L25.3336 28.0875L25.0734 27.5625V27.5531L25.2773 27.3656L25.2352 27.2812L24.75 27.7125ZM25.3125 27.1875L25.6922 27.75L25.7555 27.6656L25.6078 27.45L25.8047 27.2063L26.0859 27.2625L26.1703 27.1687L25.868 27.1125C25.9031 27.0469 25.9172 26.9438 25.882 26.8688C25.8539 26.8031 25.8117 26.7469 25.7484 26.7562C25.6781 26.7562 25.6078 26.8312 25.5586 26.8875L25.3125 27.1969V27.1875ZM25.425 27.1969L25.6359 26.9344C25.6781 26.8969 25.7344 26.85 25.7766 26.8875C25.8258 26.9156 25.8258 26.9906 25.7977 27.0375C25.7555 27.1312 25.6922 27.1969 25.6289 27.2812L25.5516 27.375L25.425 27.1875V27.1969ZM25.9664 26.3156L26.2195 27.0938L26.2758 27L26.2055 26.7562L26.3953 26.4375L26.5852 26.4938L26.6484 26.4L26.0297 26.2125L25.9664 26.3156ZM26.0648 26.3438L26.3109 26.4094L26.1703 26.6438L26.0648 26.3438ZM26.2125 25.8938L26.6836 26.2969L26.9297 25.7906L26.8594 25.7344L26.6695 26.1375L26.6625 26.1562H26.6555L26.2547 25.8L26.2125 25.8938Z" fill="#C8A400"/>
<path d="M22.4995 16.9795L20.7276 21.067L19.8613 23.0695H25.1376L24.3107 21.1645L22.4995 16.9795Z" fill="white"/>
<path opacity="0.6" d="M22.4983 16.9795L22.3633 17.2795L22.4983 21.4045L22.6333 17.2795L22.4983 16.9795Z" fill="#17C0EB"/>
<path opacity="0.6" fill-rule="evenodd" clip-rule="evenodd" d="M22.4992 16.9727L22.637 17.279L22.502 21.4051H22.4964L22.3613 17.279L22.4992 16.9727ZM22.367 17.2809L22.4992 21.3189L22.6313 17.2809L22.4992 16.9872L22.367 17.2809Z" fill="#17C0EB"/>
<path d="M22.4978 20.8125H22.4922L22.4978 21.0375L22.5034 20.8125H22.4978Z" fill="white"/>
<path d="M22.4995 19.9346C21.9003 19.9337 21.321 20.2213 20.8682 20.7446L20.047 22.6496C20.0175 22.8548 20.0025 23.0632 20.002 23.2721H20.2832C20.3118 22.5151 20.5575 21.8017 20.9695 21.2794C21.3814 20.7571 21.9282 20.4659 22.4966 20.4659C23.0651 20.4659 23.6118 20.7571 24.0238 21.2794C24.4358 21.8017 24.6814 22.5151 24.7101 23.2721H24.9913C24.9927 23.0634 24.9795 22.855 24.952 22.6496L24.1307 20.7446C23.6777 20.2219 23.0986 19.9343 22.4995 19.9346Z" fill="#FF0000"/>
<path d="M22.4994 20.002C21.8637 20.0002 21.2524 20.3283 20.795 20.917L20.12 22.4845C20.0722 22.7396 20.0476 23.0015 20.0469 23.2645H20.2888C20.3287 22.5191 20.5789 21.8215 20.9891 21.3123C21.3992 20.803 21.9389 20.5199 22.4994 20.5199C23.0598 20.5199 23.5995 20.803 24.0097 21.3123C24.4199 21.8215 24.6701 22.5191 24.71 23.2645H24.9519C24.9514 22.999 24.9268 22.7346 24.8787 22.477L24.2037 20.917C23.7463 20.3283 23.1351 20.0002 22.4994 20.002Z" fill="#FF6600"/>
<path d="M22.4978 20.0625C22.1579 20.0613 21.8217 20.1563 21.5115 20.3412C21.2012 20.526 20.9238 20.7966 20.6978 21.135L20.2084 22.26C20.1304 22.5873 20.0925 22.9292 20.0959 23.2725H20.2815C20.3102 22.5155 20.5559 21.8021 20.9678 21.2799C21.3798 20.7576 21.9265 20.4663 22.495 20.4663C23.0634 20.4663 23.6102 20.7576 24.0221 21.2799C24.4341 21.8021 24.6798 22.5155 24.7084 23.2725H24.9053C24.9053 22.92 24.8603 22.5825 24.7872 22.2675L24.2922 21.135C24.067 20.7972 23.7906 20.5269 23.4813 20.342C23.172 20.1572 22.8368 20.0619 22.4978 20.0625Z" fill="#FFFF00"/>
<path d="M22.4992 20.1227C22.1112 20.1225 21.7292 20.2496 21.3868 20.4929C21.0444 20.7362 20.7523 21.0882 20.5361 21.5177L20.3786 21.8852C20.2192 22.3169 20.1364 22.7916 20.1367 23.2727H20.2886C20.3285 22.5273 20.5787 21.8298 20.9889 21.3205C21.3991 20.8113 21.9387 20.5281 22.4992 20.5281C23.0597 20.5281 23.5993 20.8113 24.0095 21.3205C24.4197 21.8298 24.6699 22.5273 24.7098 23.2727H24.8617C24.862 22.7916 24.7793 22.3169 24.6198 21.8852L24.4623 21.5102C24.2462 21.0807 23.954 20.7287 23.6116 20.4854C23.2692 20.2421 22.8872 20.115 22.4992 20.1152V20.1227Z" fill="#00FF00"/>
<path d="M22.4991 20.1748C22.1943 20.1748 21.8925 20.255 21.611 20.4107C21.3294 20.5665 21.0737 20.7948 20.8584 21.0825C20.6432 21.3702 20.4726 21.7117 20.3564 22.0875C20.2403 22.4633 20.1809 22.8659 20.1816 23.2723H20.2885C20.3284 22.5269 20.5787 21.8294 20.9888 21.3201C21.399 20.8108 21.9387 20.5277 22.4991 20.5277C23.0596 20.5277 23.5993 20.8108 24.0095 21.3201C24.4196 21.8294 24.6699 22.5269 24.7098 23.2723H24.8166C24.8174 22.8659 24.758 22.4633 24.6419 22.0875C24.5257 21.7117 24.3551 21.3702 24.1399 21.0825C23.9246 20.7948 23.6689 20.5665 23.3873 20.4107C23.1058 20.255 22.804 20.1748 22.4991 20.1748Z" fill="#00CCFF"/>
<path d="M22.4991 20.2354C21.8964 20.2354 21.3183 20.5546 20.8922 21.1228C20.466 21.6911 20.2266 22.4617 20.2266 23.2654H20.3053C20.3053 22.4896 20.5364 21.7456 20.9478 21.1971C21.3593 20.6485 21.9172 20.3404 22.4991 20.3404C23.0809 20.3404 23.6389 20.6485 24.0503 21.1971C24.4617 21.7456 24.6928 22.4896 24.6928 23.2654H24.7716C24.7686 22.4643 24.5279 21.6975 24.102 21.1325C23.6761 20.5675 23.0998 20.2503 22.4991 20.2504V20.2354Z" fill="#0000FF"/>
<path d="M22.4993 20.3024C22.2035 20.3024 21.9106 20.3809 21.6377 20.5334C21.3649 20.6859 21.1175 20.9094 20.9102 21.1908C20.7028 21.4722 20.5396 21.8058 20.43 22.1722C20.3204 22.5386 20.2666 22.9305 20.2718 23.3249H20.3168V23.2649C20.3228 22.4931 20.5585 21.7561 20.972 21.216C21.3855 20.6759 21.943 20.377 22.5218 20.3849C23.1007 20.3929 23.6534 20.7071 24.0585 21.2585C24.4636 21.8098 24.6878 22.5531 24.6818 23.3249H24.7268V23.2649C24.7268 22.8749 24.6692 22.4887 24.5573 22.1284C24.4453 21.768 24.2813 21.4406 24.0744 21.1648C23.8676 20.889 23.622 20.6703 23.3518 20.521C23.0815 20.3717 22.7919 20.2949 22.4993 20.2949V20.3024Z" fill="#800080"/>
<path d="M22.5221 21.6075C22.4828 21.6075 22.4546 21.57 22.4209 21.5625C22.4045 21.5818 22.3922 21.6065 22.3853 21.6342C22.3783 21.6618 22.377 21.6915 22.3815 21.72C22.3984 21.7275 22.3984 21.75 22.4321 21.7875C22.4659 21.825 22.4603 21.84 22.4546 21.9375C22.4546 21.9675 22.4603 22.05 22.4884 22.0575C22.5165 22.065 22.5446 22.035 22.5503 21.9675C22.5559 21.915 22.5728 21.8775 22.5896 21.8475C22.6065 21.705 22.5784 21.6525 22.5221 21.6075Z" fill="#510000"/>
<path d="M22.3399 21.2621C22.3062 21.2621 22.2499 21.3371 22.2274 21.2996C22.2162 21.2771 22.2106 21.2321 22.2274 21.1946C22.2528 21.12 22.2964 21.0592 22.3512 21.0221C22.4806 20.9171 22.5706 20.9471 22.6324 21.0971C22.6943 21.2321 22.7562 21.3821 22.7618 21.5021C22.7618 21.5396 22.7787 21.6071 22.7506 21.6446C22.6774 21.7496 22.4918 21.5321 22.3849 21.5696C22.3512 21.5771 22.3062 21.6146 22.2724 21.5846C22.2499 21.5621 22.2724 21.5096 22.2893 21.4871C22.3231 21.4496 22.3737 21.3071 22.3681 21.2471C22.3681 21.2171 22.3681 21.2621 22.3399 21.2621Z" fill="#FF0000"/>
<path d="M22.3297 21.1954C22.2622 21.2254 22.2734 21.2704 22.2397 21.3079C22.2509 21.3154 22.2847 21.3304 22.3184 21.2854C22.3297 21.2704 22.3466 21.2629 22.3578 21.2629L22.3184 21.3154C22.285 21.3521 22.2581 21.3982 22.2397 21.4504C22.2228 21.5104 22.2172 21.5779 22.2228 21.5854C22.2228 21.5854 22.2453 21.6454 22.3072 21.6754C22.4197 21.7354 22.4422 21.8629 22.5603 21.8629C22.6503 21.8629 22.6391 21.7804 22.7122 21.7954C22.7684 21.8104 22.8078 21.7429 22.7459 21.7054C22.6456 21.6791 22.5425 21.6791 22.4422 21.7054C22.4197 21.4054 22.4422 21.5104 22.4366 21.3754C22.4309 21.2479 22.3972 21.2404 22.4366 21.1279C22.4084 21.2029 22.3691 21.1879 22.3241 21.1879L22.3297 21.1954Z" fill="url(#paint0_linear_45_18335)"/>
<path d="M22.5564 20.9854L22.5508 21.0304L22.5677 21.1054L22.5789 21.1804C22.5789 21.2029 22.6014 21.2104 22.6183 21.2254C22.6408 21.2479 22.6183 21.3004 22.6352 21.3079C22.6464 21.3079 22.6633 21.2329 22.6633 21.2179V21.1654C22.6545 21.1424 22.6451 21.1199 22.6352 21.0979C22.6317 21.0901 22.6279 21.0826 22.6239 21.0754C22.6114 21.0501 22.5963 21.0274 22.5789 21.0079C22.5735 21.0025 22.5678 20.9975 22.562 20.9929L22.5508 20.9854H22.5564Z" fill="#FF2A2A"/>
<path d="M22.5729 21.5552L22.4604 21.5027C22.3873 21.4727 22.3141 21.4127 22.2635 21.4427C22.2466 21.4502 22.2466 21.4727 22.241 21.5102C22.241 21.5477 22.2129 21.6077 22.241 21.5852C22.2748 21.5552 22.376 21.6452 22.4098 21.6677C22.4266 21.6827 22.466 21.7127 22.4716 21.7427C22.4829 21.7877 22.4716 21.8777 22.4716 21.9227C22.4716 21.9602 22.4829 22.0577 22.511 22.0727C22.5448 22.0802 22.5729 22.0427 22.5841 21.9752C22.601 21.9077 22.6066 21.8702 22.6291 21.8327C22.6516 21.7952 22.6741 21.7727 22.7023 21.7652C22.736 21.7652 22.781 21.8027 22.781 21.7502C22.781 21.7202 22.7585 21.6902 22.7698 21.6452C22.7754 21.6077 22.7473 21.6152 22.7191 21.6002L22.5673 21.5552H22.5729Z" fill="url(#paint1_linear_45_18335)"/>
<path d="M22.41 21.6673C22.3875 21.6523 22.2806 21.5548 22.2412 21.5923C22.2244 21.5923 22.2188 21.5923 22.2188 21.5698L22.23 21.5023C22.23 21.4798 22.2413 21.4423 22.2581 21.4273C22.2975 21.3823 22.3875 21.4648 22.4325 21.4873L22.41 21.6673Z" fill="#910000"/>
<path d="M22.6 21.8548C22.6506 21.7348 22.6844 21.7498 22.7463 21.7498C22.7688 21.7498 22.7744 21.7273 22.7688 21.6973C22.7519 21.7423 22.6731 21.6973 22.6281 21.7198C22.5437 21.7723 22.5606 21.9973 22.5156 22.0198C22.5606 22.0723 22.5775 21.8923 22.6 21.8548Z" fill="#FF3A3A"/>
<path d="M19.8613 23.0703L19.2988 24.3678H25.7057L25.1432 23.0778H19.867L19.8613 23.0703Z" fill="white"/>
<path d="M19.6714 24.1047C19.583 24.1045 19.4947 24.112 19.407 24.1272L19.3789 24.1947C19.5139 24.1722 19.6433 24.1422 19.7839 24.1422C19.9639 24.1422 20.1327 24.2022 20.3295 24.2022H20.5883C20.7852 24.2022 20.9483 24.1422 21.1339 24.1422C21.3195 24.1422 21.4883 24.2022 21.6852 24.2022H21.9439C22.1408 24.2022 22.3039 24.1422 22.4895 24.1422C22.6752 24.1422 22.8439 24.2022 23.0408 24.2022H23.2939C23.4908 24.2022 23.6595 24.1422 23.8452 24.1422C24.0308 24.1422 24.1995 24.2022 24.3964 24.2022H24.6495C24.8464 24.2022 25.0152 24.1422 25.2008 24.1422C25.347 24.1422 25.482 24.1797 25.6227 24.1947L25.5945 24.1197C25.5123 24.1083 25.4297 24.1033 25.347 24.1047H25.0939C24.897 24.1047 24.7283 24.1572 24.5427 24.1647C24.357 24.1647 24.1883 24.1047 23.9914 24.1047H23.7383C23.5414 24.1047 23.3727 24.1572 23.187 24.1647C23.0014 24.1647 22.8327 24.1047 22.6358 24.1047H22.3883C22.1914 24.1047 22.0227 24.1572 21.837 24.1647C21.6514 24.1647 21.4827 24.1047 21.2858 24.1047H21.0327C20.8358 24.1047 20.667 24.1572 20.4814 24.1647C20.2958 24.1647 20.1327 24.1047 19.9358 24.1047H19.677H19.6714Z" fill="url(#paint2_linear_45_18335)"/>
<path d="M19.867 23.0625V23.0775H25.1376L25.132 23.0625H19.867ZM19.8557 23.085L19.8501 23.1075H25.1432L25.1376 23.085H19.8501H19.8557ZM19.8445 23.115L19.8332 23.1375H25.1657L25.1545 23.115H19.8445ZM19.8276 23.1525L19.8107 23.19H25.1882L25.1713 23.1525H19.8276ZM19.8051 23.205L19.7882 23.2425H25.2107L25.1938 23.205H19.8051ZM19.7826 23.2575L19.7713 23.2875H25.2276L25.2163 23.2575H19.7826ZM19.7601 23.31L19.7488 23.34H25.2557L25.2388 23.31H19.7601ZM19.7376 23.3625L19.7207 23.4075H25.2782L25.2613 23.3625H19.7432H19.7376Z" fill="url(#paint3_linear_45_18335)"/>
<path d="M20.1035 23.4229C20.2948 23.4754 20.3116 23.4229 20.3116 23.4229H20.1035ZM24.6879 23.4229C24.6879 23.4229 24.7048 23.4754 24.896 23.4229H24.6879Z" fill="url(#paint4_linear_45_18335)"/>
<path d="M24.22 22.2754C24.1244 22.2754 24.0963 22.3429 24.0963 22.3429C23.9444 23.1379 23.4325 23.9404 22.825 23.9404H22.375V24.7504H25.8288L25.48 23.9254C24.9344 23.8204 24.49 23.0779 24.3494 22.3429C24.3494 22.3429 24.3156 22.2754 24.22 22.2754Z" fill="url(#paint5_linear_45_18335)"/>
<path d="M24.2207 22.3128C24.1757 22.3128 24.1532 22.3203 24.1363 22.3353L24.1195 22.3578C24.0351 22.773 23.8725 23.1526 23.647 23.4603C23.422 23.7678 23.1407 23.9778 22.8257 23.9778H22.3926V24.7203H25.8182L25.4976 23.9703C25.2332 23.9178 24.9913 23.7303 24.8001 23.4603C24.5746 23.1526 24.4119 22.773 24.3276 22.3578L24.3107 22.3353C24.283 22.3161 24.2517 22.3082 24.2207 22.3128Z" fill="#97C924"/>
<path d="M24.2207 22.3125H24.2432V23.1225C24.2378 23.2929 24.199 23.4584 24.1307 23.6025C24.1026 23.7225 24.0745 23.6775 24.0013 23.82C23.9065 23.8636 23.8084 23.8938 23.7088 23.91C23.5682 23.94 23.2588 23.97 23.0957 23.9175C23.305 23.8321 23.4947 23.6773 23.647 23.4675C23.6888 23.4078 23.7282 23.3453 23.7651 23.28C23.8278 23.1761 23.8842 23.0658 23.9338 22.95L23.9901 22.8C24.017 22.7291 24.0414 22.6565 24.0632 22.5825C24.0849 22.5089 24.1037 22.4338 24.1195 22.3575L24.1363 22.335L24.1701 22.32L24.2263 22.3125H24.2207Z" fill="#EDE71F"/>
<path d="M24.186 22.418C24.1579 22.868 24.0566 23.408 23.8091 23.753C23.7191 23.8505 23.601 23.948 23.4941 23.9255C23.871 23.513 24.1016 22.8755 24.1804 22.418H24.186Z" fill="#C6CB24"/>
<path d="M23.8769 23.1982C23.8206 23.4007 23.6069 23.7007 23.3819 23.9482H23.2188C23.3594 23.9332 23.6856 23.5732 23.8769 23.1982Z" fill="#9ECB34"/>
<path d="M22.6228 22.3507C22.7803 23.1382 23.2866 23.9407 23.8941 23.9407H24.3497V24.7507H20.6484V23.9407H21.0984C21.7059 23.9407 22.2178 23.1382 22.3697 22.3432C22.3697 22.3432 22.4034 22.2832 22.4991 22.2832C22.5947 22.2832 22.6228 22.3432 22.6228 22.3432V22.3507Z" fill="url(#paint6_linear_45_18335)"/>
<path d="M22.498 22.3134C22.543 22.3134 22.5655 22.3284 22.5824 22.3359L22.5993 22.3584C22.6836 22.7737 22.8463 23.1532 23.0718 23.4609C23.2968 23.7684 23.578 23.9784 23.893 23.9784H24.3262V24.7209H20.6699V23.9709H21.103C21.4124 23.9709 21.6993 23.7684 21.9243 23.4609C22.1478 23.1524 22.3085 22.7729 22.3912 22.3584L22.408 22.3359C22.4359 22.3175 22.4671 22.3097 22.498 22.3134Z" fill="#97C924"/>
<path d="M22.4587 22.3127C22.453 22.3124 22.4474 22.3124 22.4418 22.3127L22.408 22.3352L22.3912 22.3577C22.3755 22.4341 22.3567 22.5092 22.3349 22.5827C22.3151 22.6591 22.2926 22.7342 22.2674 22.8077C22.2498 22.856 22.231 22.9035 22.2112 22.9502C22.1616 23.066 22.1051 23.1764 22.0424 23.2802C22.0054 23.3429 21.966 23.403 21.9243 23.4602C21.7727 23.6727 21.583 23.8302 21.373 23.9177C21.5305 23.9702 21.598 23.9177 21.7387 23.8877C21.8512 23.8652 21.9749 23.8427 22.0762 23.7977C22.1605 23.6477 22.1324 23.7002 22.1605 23.5802C22.228 23.4152 22.3293 23.2652 22.3518 23.0777C22.4418 22.8527 22.4587 22.4327 22.4587 22.3127Z" fill="#EDE71F"/>
<path d="M22.4595 22.418C22.437 22.868 22.3301 23.408 22.0826 23.753C21.9926 23.8505 21.8801 23.948 21.7676 23.9255C22.1501 23.513 22.3807 22.8755 22.4595 22.418Z" fill="#C6CB24"/>
<path d="M22.1505 23.1982C22.0283 23.4931 21.8594 23.749 21.6555 23.9482H21.498C21.6387 23.9332 21.9593 23.5732 22.1505 23.1982Z" fill="#9ECB34"/>
<path d="M22.5567 22.3203L22.5848 22.3353L22.6073 22.3578C22.6233 22.434 22.6421 22.5091 22.6635 22.5828C22.6833 22.6592 22.7059 22.7343 22.7311 22.8078L22.7873 22.9503C22.8369 23.0661 22.8933 23.1764 22.9561 23.2803C22.9931 23.343 23.0325 23.4031 23.0742 23.4603C23.2248 23.6812 23.4142 23.8488 23.6254 23.9478C23.2148 23.9478 23.0404 23.9028 22.8942 23.6478C22.7878 23.4977 22.7072 23.3186 22.6579 23.1228C22.6298 22.9728 22.5454 22.6353 22.551 22.3203H22.5567Z" fill="#EDE71F"/>
<path d="M22.584 22.418C22.6065 22.868 22.7077 23.318 22.9552 23.663C23.0452 23.768 23.1577 23.858 23.2702 23.8355C22.9168 23.4937 22.6721 22.9881 22.584 22.418Z" fill="#C6CB24"/>
<path d="M21.6439 22.2754C21.5427 22.2754 21.5145 22.3429 21.5145 22.3429C21.3739 23.0779 20.8508 24.0154 20.3052 24.1279L20.0352 24.7504H22.7914V23.9029C22.2964 23.7229 21.897 23.0254 21.7677 22.3429C21.7677 22.3429 21.7395 22.2829 21.6383 22.2829L21.6439 22.2754Z" fill="url(#paint7_linear_45_18335)"/>
<path d="M21.6446 22.313C21.5996 22.313 21.5715 22.328 21.5546 22.3355L21.5377 22.358C21.4431 22.7695 21.2883 23.1519 21.0821 23.483C20.8909 23.8055 20.5365 24.128 20.2946 24.158L20.0527 24.7205H22.7527V23.918C22.5496 23.8287 22.3661 23.6741 22.2184 23.468C21.992 23.1582 21.8293 22.776 21.7459 22.358L21.729 22.3355C21.7029 22.3181 21.6737 22.3103 21.6446 22.313Z" fill="#97C924"/>
<path d="M21.5645 22.418C21.5307 23.093 21.2495 23.9555 20.9288 24.098C20.822 24.1505 20.642 24.1655 20.5801 24.173C20.8281 23.9892 21.0444 23.7381 21.2149 23.4357C21.3855 23.1334 21.5065 22.7866 21.5701 22.418H21.5645Z" fill="#93BC30"/>
<path d="M21.6434 22.3127H21.6152V23.1227C21.6152 23.2952 21.6659 23.4377 21.7277 23.6027L21.739 23.6402C21.7671 23.7227 21.784 23.7527 21.8684 23.8427C22.1099 24.0726 22.4054 24.179 22.7009 24.1427C22.639 24.0752 22.5715 24.0152 22.5096 23.9627L22.7627 23.9252C22.5542 23.8344 22.3665 23.6744 22.2171 23.4602C22.1899 23.4239 22.1637 23.3864 22.1384 23.3477L22.1046 23.2877C22.038 23.1817 21.9778 23.0689 21.9246 22.9502C21.9046 22.9011 21.8859 22.851 21.8684 22.8002C21.8339 22.7053 21.8038 22.6076 21.7784 22.5077C21.7659 22.4582 21.7546 22.4082 21.7446 22.3577L21.7277 22.3352C21.7171 22.3281 21.7057 22.323 21.694 22.3202C21.6756 22.3142 21.6567 22.3117 21.6377 22.3127H21.6434Z" fill="#EDE71F"/>
<path d="M21.6777 22.418C21.7059 22.868 21.8071 23.408 22.0546 23.753C22.1446 23.8505 22.2571 23.948 22.3696 23.9255C22.0265 23.5317 21.7845 23.0045 21.6777 22.418Z" fill="#CCD11E"/>
<path d="M21.9141 23.0475C22.0963 23.5227 22.3827 23.9125 22.7353 24.165H22.8759C22.6284 23.985 22.2291 23.73 21.9197 23.04L21.9141 23.0475Z" fill="#9ECB34"/>
<path d="M25.6773 24.352C25.6435 24.367 25.4298 24.337 25.3173 24.352L25.2441 24.3745H25.0585C24.856 24.3745 24.6816 24.4495 24.4904 24.4495C24.2991 24.4495 24.1248 24.3745 23.9279 24.3745H23.7366C23.5341 24.3745 23.3598 24.4495 23.1685 24.4495C22.9773 24.4495 22.8029 24.3745 22.606 24.3745H22.4148C22.2123 24.3745 22.0379 24.4495 21.8523 24.4495C21.6554 24.4495 21.4866 24.3745 21.2841 24.3745H21.0929C20.8904 24.3745 20.7216 24.4495 20.5304 24.4495C20.3335 24.4495 20.1648 24.3745 19.9623 24.3745H19.771C19.6135 24.3745 19.4223 24.4195 19.2704 24.4345L18.916 25.252H26.0823L25.6773 24.352Z" fill="white"/>
<path d="M25.1999 24.2324H25.1662C24.9862 24.2399 24.8512 24.3149 24.5362 24.3149C24.2212 24.3149 24.1874 24.2399 23.8274 24.2549C23.4899 24.2549 23.3549 24.3449 23.1693 24.3449C22.9893 24.3449 22.6968 24.2924 22.4662 24.3224C22.2412 24.3524 21.9712 24.4199 21.7912 24.4199C21.5718 24.4199 21.3524 24.3674 21.1274 24.3974C20.8968 24.4274 20.7899 24.5099 20.503 24.5099C20.2555 24.5099 19.9968 24.4574 19.783 24.4574C19.5918 24.4574 19.378 24.5324 19.2205 24.5624L19.1699 24.6749C19.2993 24.6524 19.6537 24.5774 19.7774 24.5774C19.9124 24.5774 20.3793 24.6149 20.638 24.5999C20.9024 24.5924 20.9305 24.5099 21.2399 24.5099C21.4537 24.5099 21.6112 24.5399 21.8305 24.5399C21.9712 24.5399 22.0949 24.4499 22.303 24.4499L22.4605 24.4424C22.6349 24.4049 22.933 24.4424 23.1355 24.4574C23.3212 24.4724 23.4449 24.4124 23.6418 24.4049L23.8893 24.3974C24.0862 24.3824 24.2493 24.4424 24.4349 24.4424C24.6149 24.4274 24.7949 24.3674 24.9862 24.3674L25.2393 24.3524C25.3687 24.3524 25.5712 24.3524 25.7062 24.3899L25.6612 24.2849C25.5262 24.2774 25.363 24.2324 25.1999 24.2324Z" fill="url(#paint8_linear_45_18335)"/>
<path d="M19.7042 25.11C19.513 25.11 19.3442 25.17 19.1642 25.1775C19.0965 25.1752 19.0288 25.1676 18.9617 25.155L18.9336 25.215H19.2711C19.468 25.215 19.6311 25.155 19.8111 25.1475C19.9967 25.155 20.1598 25.2225 20.3567 25.2225H20.6098C20.8011 25.2225 20.9698 25.155 21.1498 25.1475C21.3355 25.155 21.5042 25.2225 21.6955 25.2225H21.9486C22.1455 25.2225 22.3086 25.155 22.4942 25.1475C22.6742 25.155 22.8373 25.2225 23.0342 25.2225H23.2873C23.4786 25.2225 23.6473 25.155 23.833 25.1475C24.013 25.155 24.1817 25.2225 24.373 25.2225H24.6261C24.823 25.2225 24.9861 25.155 25.1661 25.1475C25.3517 25.155 25.5148 25.2225 25.7117 25.2225H25.9648L26.0661 25.215L26.038 25.155C25.9817 25.1625 25.9198 25.1775 25.858 25.1775C25.6723 25.1775 25.5092 25.1025 25.3123 25.1025H25.0592C24.868 25.1025 24.6992 25.1775 24.5192 25.1775C24.3336 25.17 24.1705 25.1025 23.9736 25.1025H23.7205C23.5292 25.1025 23.3605 25.1775 23.1805 25.1775C22.9948 25.17 22.8317 25.1025 22.6348 25.1025H22.3817C22.1848 25.1025 22.0217 25.1775 21.8417 25.1775C21.6561 25.17 21.493 25.1025 21.2961 25.1025H21.043C20.8517 25.1025 20.683 25.1775 20.503 25.1775C20.3173 25.17 20.1542 25.1025 19.9573 25.1025H19.7042V25.11Z" fill="url(#paint9_linear_45_18335)"/>
<path d="M19.3437 24.3527L19.2031 24.6677C19.3662 24.6302 19.6025 24.5402 19.805 24.5402C20.0075 24.5402 20.255 24.6077 20.5025 24.6152C20.7838 24.6152 20.8963 24.5252 21.1213 24.4952C21.3519 24.4652 21.5712 24.5327 21.7962 24.5402C21.9706 24.5402 22.2406 24.4577 22.4712 24.4277C22.6962 24.3902 22.9044 24.4502 23.1744 24.4502C23.45 24.4577 23.495 24.3602 23.8269 24.3527C24.1869 24.3452 24.2206 24.4202 24.5356 24.4202C24.7719 24.4352 24.98 24.3527 25.1938 24.3377C25.4075 24.3152 25.5031 24.3377 25.6606 24.3377L25.5537 24.0977L19.8556 24.2702L19.3437 24.3527Z" fill="#97C924"/>
<path d="M25.3125 24.3447L25.5375 24.3672C25.5918 24.3759 25.6462 24.3834 25.7006 24.3897L25.6781 24.3522C25.6444 24.3672 25.4306 24.3372 25.3181 24.3522L25.3125 24.3447Z" fill="white"/>
<path d="M22.5 16.8652L20.693 21.0371L18.8438 25.3121H26.1562L24.3492 21.1309L22.5 16.8746V16.8652ZM22.5 17.0902L24.2719 21.1871L26.0086 25.1996H18.9914L20.7633 21.0934L22.5 17.0902Z" fill="#C8A400"/>
</g>
<defs>
<linearGradient id="paint0_linear_45_18335" x1="22.4253" y1="21.6829" x2="22.6016" y2="21.2863" gradientUnits="userSpaceOnUse">
<stop stop-color="#510000"/>
<stop offset="0.3" stop-color="#8A0000"/>
<stop offset="1" stop-color="#AA0000"/>
</linearGradient>
<linearGradient id="paint1_linear_45_18335" x1="22.5785" y1="21.8552" x2="22.7154" y2="21.5815" gradientUnits="userSpaceOnUse">
<stop stop-color="#FF2A2A"/>
<stop offset="1" stop-color="#FF0000"/>
</linearGradient>
<linearGradient id="paint2_linear_45_18335" x1="19.3789" y1="23.8122" x2="30.0608" y2="23.8122" gradientUnits="userSpaceOnUse">
<stop stop-color="#002255"/>
<stop offset="0.5" stop-color="#0044AA"/>
<stop offset="1" stop-color="#002255"/>
</linearGradient>
<linearGradient id="paint3_linear_45_18335" x1="19.3776" y1="23.8125" x2="30.0595" y2="23.8125" gradientUnits="userSpaceOnUse">
<stop stop-color="#002255"/>
<stop offset="0.5" stop-color="#0044AA"/>
<stop offset="1" stop-color="#002255"/>
</linearGradient>
<linearGradient id="paint4_linear_45_18335" x1="19.3779" y1="23.8129" x2="30.0598" y2="23.8129" gradientUnits="userSpaceOnUse">
<stop stop-color="#002255"/>
<stop offset="0.5" stop-color="#0044AA"/>
<stop offset="1" stop-color="#002255"/>
</linearGradient>
<linearGradient id="paint5_linear_45_18335" x1="21.6437" y1="23.3779" x2="21.6437" y2="23.8204" gradientUnits="userSpaceOnUse">
<stop stop-color="#F5F549"/>
<stop offset="1" stop-color="#97C924"/>
</linearGradient>
<linearGradient id="paint6_linear_45_18335" x1="21.6441" y1="23.3782" x2="21.6441" y2="23.8207" gradientUnits="userSpaceOnUse">
<stop stop-color="#F5F549"/>
<stop offset="1" stop-color="#97C924"/>
</linearGradient>
<linearGradient id="paint7_linear_45_18335" x1="21.6439" y1="23.3779" x2="21.6439" y2="23.8204" gradientUnits="userSpaceOnUse">
<stop stop-color="#F5F549"/>
<stop offset="1" stop-color="#97C924"/>
</linearGradient>
<linearGradient id="paint8_linear_45_18335" x1="19.1706" y1="24.2342" x2="25.7143" y2="24.2342" gradientUnits="userSpaceOnUse">
<stop stop-color="#002255"/>
<stop offset="0.5" stop-color="#0044AA"/>
<stop offset="1" stop-color="#002255"/>
</linearGradient>
<linearGradient id="paint9_linear_45_18335" x1="18.9585" y1="25.1056" x2="26.041" y2="25.1056" gradientUnits="userSpaceOnUse">
<stop stop-color="#002255"/>
<stop offset="0.5" stop-color="#0044AA"/>
<stop offset="1" stop-color="#002255"/>
</linearGradient>
<clipPath id="clip0_45_18335">
<rect width="45" height="45" fill="white"/>
</clipPath>
</defs>
</svg>
