<svg width="45" height="45" viewBox="0 0 45 45" fill="none" xmlns="http://www.w3.org/2000/svg">
<g clip-path="url(#clip0_45_18405)">
<path d="M0 0H45V45H0V0Z" fill="white"/>
<path fill-rule="evenodd" clip-rule="evenodd" d="M0.429688 44.4287H25.3994L9.05835 22.333L26.019 22.3594L0.436279 0.571289V44.4287H0.429688Z" fill="#CE0000"/>
<path fill-rule="evenodd" clip-rule="evenodd" d="M-0.0195312 -0.536133L27.5779 22.9678L10.1459 22.9407L26.4857 45.0347H0.428711V44.4283H-0.0195312V-0.536133ZM0.890137 43.8218H24.3112L7.96885 21.7244L24.4582 21.7501L0.890137 1.67781V43.8218Z" fill="#000063"/>
<path fill-rule="evenodd" clip-rule="evenodd" d="M11.9106 32.6777L10.1309 33.4687L11.5283 35.209L9.64966 35.0508L10.4209 37.3535L8.73999 36.2725L8.77295 38.7861L7.53369 36.9492L6.82837 39.2871L6.22192 36.9756L4.88379 38.7861L5.00244 36.3516L3.22925 37.3535L4.05981 35.1562L2.12842 35.209L3.54565 33.6006L1.74609 32.6777L3.52588 31.8867L2.12183 30.1465L3.9939 30.3047L3.22925 28.002L4.91675 29.083L4.88379 26.5693L6.12305 28.4063L6.82837 26.0684L7.42822 28.3799L8.77295 26.5693L8.64771 29.0039L10.4275 28.002L9.59033 30.1992L11.5283 30.1465L10.1111 31.7549L11.9106 32.6777ZM9.7749 16.4443L9.03003 17.1826L9.39917 17.5869C10.2654 16.7801 10.9621 15.6908 11.4229 14.4229C11.5415 16.2949 10.2561 20.4873 6.89429 20.5313C6.27983 20.5417 5.6699 20.3898 5.0997 20.0843C4.5295 19.7788 4.01033 19.3257 3.57215 18.7513C3.13396 18.1769 2.78544 17.4924 2.54669 16.7374C2.30795 15.9824 2.18371 15.1719 2.18115 14.3525C2.84033 15.9521 3.24902 16.7256 4.29053 17.5605L4.60034 17.1738L3.90161 16.3916L4.80469 16.0752L4.31689 14.9854L5.26611 15.0732L5.14746 13.8076L5.97803 14.458L6.2417 13.2715L6.83496 14.2207L7.39526 13.3154L7.69849 14.5459L8.47632 13.8252L8.37744 15.082L9.31348 14.9326L8.87183 16.0928L9.7749 16.4443Z" fill="white"/>
</g>
<defs>
<clipPath id="clip0_45_18405">
<rect width="45" height="45" fill="white"/>
</clipPath>
</defs>
</svg>
