<svg width="45" height="45" viewBox="0 0 45 45" fill="none" xmlns="http://www.w3.org/2000/svg">
<g clip-path="url(#clip0_45_18412)">
<path fill-rule="evenodd" clip-rule="evenodd" d="M-5.62109 0H61.8789V45H-5.62109V0Z" fill="#002170"/>
<path fill-rule="evenodd" clip-rule="evenodd" d="M-5.62109 20.5752H61.8789V24.4336H-5.62109V20.5752Z" fill="#FFB20D"/>
<path fill-rule="evenodd" clip-rule="evenodd" d="M14.2729 38.4961L12.0977 35.5957L11.4055 39.5859L10.6145 35.6309L8.51172 38.6191L9.30933 34.6641L6.37598 35.8506L8.55127 32.9502L5.55859 32.0186L8.5249 30.9639L6.28369 28.1689L9.25 29.2236L8.35352 25.3125L10.5288 28.2129L11.2275 24.2227L12.0186 28.1777L14.1147 25.1895L13.3237 29.1445L16.2571 27.958L14.0818 30.8584L17.0745 31.7812L14.1082 32.8359L16.3494 35.6484L13.3831 34.5762L14.2729 38.4961Z" fill="white"/>
</g>
<defs>
<clipPath id="clip0_45_18412">
<rect width="45" height="45" fill="white"/>
</clipPath>
</defs>
</svg>
