<svg width="45" height="45" viewBox="0 0 45 45" fill="none" xmlns="http://www.w3.org/2000/svg">
<g clip-path="url(#clip0_45_18995)">
<path d="M0 0H45V45H0V0Z" fill="white"/>
<path d="M5.625 0H39.375V45H5.625V0Z" fill="white"/>
<path fill-rule="evenodd" clip-rule="evenodd" d="M19.4985 31.9502C19.4985 31.9502 20.2578 31.1252 21.0031 31.1252C21.7485 31.1252 21.9453 31.8096 22.4656 31.8658C22.9789 31.9221 23.4078 31.1814 24.0477 31.1533C24.6875 31.1252 25.4891 31.7533 25.4891 31.7533L22.6906 32.8783L19.4985 31.9408V31.9502ZM17.8883 30.7314L27.4086 30.7971C27.4086 30.7971 26.586 29.6064 25.6156 29.5783C24.6453 29.5596 24.9125 30.1408 24.1742 30.2158C23.4289 30.3002 23.2461 29.6158 22.5641 29.6346C21.8891 29.6627 21.4953 30.2158 20.982 30.2439C20.4617 30.2721 19.8078 29.5596 19.4141 29.5877C19.0203 29.6158 17.6211 30.4033 17.6211 30.4033L17.8883 30.7408V30.7314ZM16.6719 29.2314L28.4141 29.2783C28.6039 28.9221 27.8375 28.0689 27.1414 27.9939C26.5649 28.0221 26.157 28.7908 25.6789 28.8189C25.2008 28.8471 24.6664 28.0221 24.132 28.0502C23.5977 28.0783 23.0422 28.8189 22.5078 28.8189C21.9664 28.8189 21.5797 28.0221 20.8977 28.0221C20.2156 28.0221 19.9133 28.8939 19.393 28.8471C18.8797 28.7908 18.4227 27.9658 17.9305 27.9658C17.4383 27.9658 16.6156 28.9502 16.4539 28.9033C16.2852 28.8377 16.6578 29.3064 16.6719 29.2221V29.2314Z" fill="#083D9C"/>
<path fill-rule="evenodd" clip-rule="evenodd" d="M17.4854 28.0338C17.6371 27.9405 17.792 27.8721 17.9305 27.8721C18.0682 27.8721 18.2 27.9298 18.3253 28.0114C18.4503 28.0928 18.5734 28.2012 18.6928 28.3073L18.6996 28.3134C18.9418 28.5287 19.1659 28.7279 19.3982 28.7536C19.621 28.7734 19.8002 28.6049 20.0223 28.3961C20.0296 28.3893 20.0368 28.3824 20.0442 28.3755C20.2701 28.1634 20.5324 27.9283 20.8977 27.9283C21.2599 27.9283 21.542 28.1409 21.7916 28.3401C21.8042 28.3501 21.8167 28.3601 21.8291 28.37C22.0683 28.5614 22.2729 28.7252 22.5078 28.7252C22.7546 28.7252 23.0111 28.5533 23.2875 28.3619C23.2953 28.3566 23.303 28.3512 23.3108 28.3458C23.572 28.1647 23.8514 27.9711 24.1293 27.9565C24.4204 27.9412 24.7059 28.1575 24.9616 28.3533C24.9679 28.3581 24.9743 28.363 24.9806 28.3678C25.1049 28.4631 25.2233 28.5538 25.3387 28.6208C25.4599 28.6911 25.5716 28.7314 25.6758 28.7253C25.7817 28.7191 25.8868 28.6716 25.9966 28.5983C26.0961 28.5318 26.1954 28.447 26.3007 28.3571C26.3122 28.3473 26.3237 28.3374 26.3354 28.3275C26.5675 28.1296 26.8289 27.9154 27.1388 27.9003L27.143 27.9001L27.1471 27.9005C27.5121 27.9398 27.8905 28.1813 28.1534 28.457C28.2849 28.5948 28.3922 28.746 28.4543 28.8915C28.515 29.0336 28.543 29.1983 28.4714 29.3326L28.4503 29.3722L16.6719 29.3252C16.664 29.3265 16.6567 29.3261 16.6502 29.3251L16.6016 29.3249V29.3029C16.5899 29.2948 16.5787 29.2853 16.5687 29.2762C16.5297 29.2409 16.4837 29.1881 16.4446 29.136C16.4078 29.0869 16.3681 29.0266 16.3508 28.9762C16.3463 28.9629 16.3405 28.9427 16.3399 28.919C16.3392 28.8926 16.3452 28.8554 16.3701 28.8286C16.3918 28.8054 16.4161 28.8029 16.43 28.8033C16.4429 28.8037 16.4557 28.8069 16.4676 28.8111C16.469 28.8109 16.4717 28.8105 16.4759 28.8092C16.4853 28.8063 16.4984 28.8004 16.5157 28.7904C16.5503 28.7705 16.5945 28.7384 16.6476 28.6961C16.7109 28.6457 16.7821 28.5847 16.86 28.5179C16.9139 28.4717 16.971 28.4228 17.0309 28.3727C17.1753 28.2521 17.3324 28.1279 17.4854 28.0338ZM16.6719 29.2118L16.6721 29.1402C16.6714 29.14 16.6693 29.1392 16.6662 29.1388C16.6628 29.1384 16.6559 29.138 16.6473 29.141C16.6381 29.1443 16.6273 29.1514 16.6181 29.1644C16.6091 29.1773 16.605 29.1913 16.6033 29.2017L16.6719 29.2118ZM16.6721 29.1402L16.6721 29.1377L28.3701 29.1844C28.3783 29.1391 28.3705 29.0742 28.3321 28.9843C28.2822 28.8673 28.1899 28.7337 28.0665 28.6044C27.8207 28.3467 27.4698 28.1249 27.1399 28.0878C26.8751 28.1025 26.6453 28.2858 26.4111 28.4854C26.3995 28.4954 26.3878 28.5054 26.3761 28.5154C26.2719 28.6044 26.1662 28.6948 26.0596 28.7659C25.9404 28.8456 25.8152 28.9048 25.682 28.9126C25.5472 28.9205 25.4128 28.8682 25.2826 28.7927C25.1597 28.7214 25.035 28.6258 24.9128 28.5322C24.9057 28.5267 24.8986 28.5213 24.8916 28.5159C24.6269 28.3132 24.378 28.1311 24.1348 28.1439C23.8888 28.1568 23.6339 28.3334 23.3595 28.5233L23.3523 28.5283C23.0838 28.7142 22.7954 28.9127 22.5078 28.9127C22.2324 28.9127 21.9954 28.7225 21.7664 28.5387C21.7507 28.526 21.735 28.5134 21.7194 28.5009C21.4697 28.3017 21.2174 28.1158 20.8977 28.1158C20.5809 28.1158 20.351 28.3167 20.1252 28.5288C20.1132 28.54 20.1013 28.5513 20.0892 28.5626C19.8809 28.7592 19.6625 28.9653 19.3882 28.9406L19.3877 28.9406L19.3872 28.9405C19.1178 28.911 18.8667 28.6876 18.638 28.484C18.6303 28.4771 18.6225 28.4702 18.6148 28.4634C18.4943 28.3562 18.3788 28.2549 18.2636 28.1798C18.1487 28.105 18.0388 28.0596 17.9305 28.0596C17.8229 28.0596 17.6903 28.1142 17.5443 28.204C17.3996 28.293 17.2487 28.412 17.1056 28.5316C17.0491 28.5788 16.9932 28.6267 16.9395 28.6727C16.8594 28.7413 16.7844 28.8056 16.7197 28.8571C16.6652 28.9005 16.6147 28.9376 16.5715 28.9626C16.5575 28.9706 16.5434 28.9779 16.5297 28.9837C16.5342 28.9901 16.539 28.9967 16.5441 29.0034C16.5789 29.0498 16.6181 29.0943 16.6477 29.1211C16.6549 29.1276 16.6609 29.1326 16.6657 29.136C16.6693 29.1386 16.6714 29.1399 16.6721 29.1402ZM25.0632 29.5703C25.1957 29.5131 25.3692 29.4798 25.6167 29.4846L25.6172 29.4846C26.1223 29.4992 26.5842 29.8155 26.916 30.1211C27.0826 30.2746 27.2182 30.4271 27.3122 30.5413C27.3593 30.5984 27.396 30.6461 27.4212 30.6797C27.4337 30.6964 27.4434 30.7097 27.4499 30.7189C27.4532 30.7235 27.4558 30.727 27.4575 30.7295L27.4595 30.7324L27.4602 30.7334L27.4603 30.7335C27.4603 30.7335 27.4603 30.7336 27.4086 30.7971L27.4603 30.7335L27.5698 30.8919L17.9586 30.8257V30.9588L17.4947 30.3727L17.5938 30.3169L17.6211 30.4033C17.5938 30.3169 17.5938 30.317 17.5938 30.3169L17.5938 30.3169L17.5979 30.3146L17.6098 30.308C17.6202 30.3022 17.6355 30.2937 17.6551 30.2828C17.6942 30.2612 17.7506 30.2302 17.8195 30.193C17.9571 30.1185 18.1449 30.0189 18.3452 29.9183C18.5452 29.8178 18.7585 29.7161 18.9468 29.6375C19.1327 29.56 19.3019 29.5018 19.4103 29.4941C19.5237 29.486 19.6496 29.531 19.7767 29.5945C19.8884 29.6504 20.0078 29.7242 20.1279 29.7985C20.1453 29.8092 20.1627 29.82 20.1801 29.8307C20.4615 30.0041 20.7391 30.1633 20.9792 30.1503C21.2027 30.138 21.4027 30.0198 21.6318 29.8843C21.649 29.8741 21.6664 29.8638 21.684 29.8535C21.9321 29.7075 22.2099 29.5555 22.5619 29.5409L22.5626 29.5408C22.9054 29.5314 23.1311 29.6916 23.3434 29.8422C23.3551 29.8505 23.3667 29.8588 23.3783 29.867C23.5989 30.0227 23.8161 30.1623 24.1683 30.1224L24.1689 30.1223C24.3458 30.1044 24.4581 30.0566 24.5422 29.9987C24.6111 29.9512 24.6622 29.8967 24.7195 29.8357C24.734 29.8202 24.749 29.8043 24.7647 29.7879C24.8415 29.7082 24.9295 29.628 25.0632 29.5703ZM17.748 30.4345L17.909 30.6378L27.2357 30.7021C27.2299 30.6949 27.2238 30.6875 27.2176 30.6799C27.127 30.57 26.9964 30.4231 26.836 30.2754C26.5139 29.9787 26.0794 29.6856 25.6144 29.6721C25.3768 29.6675 25.2199 29.6998 25.1065 29.7487C24.9944 29.797 24.9211 29.8632 24.8511 29.9359C24.8381 29.9494 24.825 29.9634 24.8115 29.9778C24.7533 30.04 24.6892 30.1084 24.6068 30.1652C24.5031 30.2367 24.3719 30.2897 24.1799 30.3093C23.7869 30.3537 23.5401 30.1933 23.3125 30.0327C23.302 30.0252 23.2915 30.0178 23.281 30.0104C23.0681 29.8595 22.8711 29.72 22.5659 29.7283C22.243 29.7418 21.9866 29.8804 21.7408 30.025C21.7219 30.0362 21.703 30.0474 21.6841 30.0586C21.4605 30.1911 21.2365 30.3238 20.9849 30.3376C20.7047 30.3528 20.3952 30.1698 20.1211 30.0009C20.1034 29.99 20.0858 29.9792 20.0684 29.9684C19.9477 29.8938 19.8337 29.8233 19.7273 29.7701C19.6048 29.7088 19.5013 29.6754 19.4178 29.6813C19.3294 29.6876 19.176 29.7384 18.9888 29.8165C18.8041 29.8935 18.5937 29.9939 18.3947 30.0938C18.1959 30.1936 18.0093 30.2926 17.8723 30.3667C17.8242 30.3927 17.7822 30.4157 17.748 30.4345ZM19.4883 31.8418L19.4281 31.8242V32.1475L19.5233 32.0441L22.6934 32.9751L25.6634 31.7812L25.5247 31.6725L25.4891 31.7533C25.5247 31.6725 25.5247 31.6725 25.5247 31.6725L25.5246 31.6724L25.5245 31.6723L25.5239 31.6719L25.522 31.6704C25.5204 31.6691 25.518 31.6673 25.5148 31.6649C25.5085 31.6601 25.4993 31.6532 25.4875 31.6444C25.4637 31.6269 25.4293 31.602 25.386 31.5723C25.2995 31.5129 25.1775 31.4341 25.035 31.3561C24.7522 31.2012 24.3806 31.0449 24.0454 31.0596C23.7075 31.0745 23.427 31.2772 23.1782 31.457L23.1757 31.4588C22.9195 31.6439 22.7033 31.7978 22.4714 31.7724L22.4713 31.7724C22.262 31.7497 22.1116 31.6181 21.933 31.4618C21.9082 31.4401 21.8829 31.418 21.8568 31.3956C21.6444 31.2132 21.3953 31.0314 21.0031 31.0314C20.613 31.0314 20.2244 31.2464 19.9376 31.4554C19.7933 31.5606 19.6729 31.6656 19.5884 31.7445C19.5462 31.784 19.5128 31.8169 19.4899 31.8402C19.4894 31.8407 19.4888 31.8413 19.4883 31.8418ZM19.6716 31.8957L22.6879 32.7815L25.3067 31.7287C25.224 31.6725 25.1115 31.6006 24.9816 31.5295C24.7037 31.3773 24.3546 31.2336 24.05 31.247C23.7491 31.2602 23.4959 31.4406 23.2427 31.6236L23.2301 31.6327C22.9875 31.8081 22.7365 31.9895 22.46 31.9593C22.2124 31.9325 22.0306 31.7726 21.8542 31.6173C21.8296 31.5958 21.8052 31.5743 21.7807 31.5532C21.5783 31.3794 21.3563 31.2189 21.0031 31.2189C20.648 31.2189 20.2843 31.4165 20.005 31.62C19.8677 31.72 19.7527 31.8201 19.6716 31.8957Z" fill="#083D9C"/>
<path fill-rule="evenodd" clip-rule="evenodd" d="M21.1852 20.522L23.8852 21.4783V16.3408C22.6477 16.4345 21.6211 13.2095 23.8008 12.9939C21.6562 12.5814 21.4102 13.322 21.1641 14.1189L21.1852 20.522Z" fill="#FF0000"/>
<path fill-rule="evenodd" clip-rule="evenodd" d="M21.7321 12.9975C22.1175 12.7481 22.7377 12.671 23.8133 12.8779C23.8577 12.8865 23.8902 12.9382 23.8886 12.998C23.8871 13.0577 23.852 13.1064 23.8073 13.1108C23.2783 13.1631 22.961 13.3959 22.7901 13.6924C22.619 13.9892 22.582 14.3714 22.6473 14.7576C22.7126 15.1444 22.8795 15.5248 23.1032 15.8018C23.327 16.079 23.6008 16.245 23.8802 16.2238C23.9043 16.222 23.9279 16.2335 23.9455 16.2556C23.9631 16.2777 23.973 16.3086 23.973 16.3408V21.4783C23.973 21.5147 23.9604 21.549 23.9387 21.5712C23.9171 21.5934 23.889 21.6009 23.8626 21.5915L21.1626 20.6353L21.1852 20.522L21.0973 20.5226L21.0762 14.1194C21.0761 14.1039 21.0784 14.0886 21.0828 14.0743C21.2057 13.6764 21.339 13.2519 21.7321 12.9975ZM21.2727 20.4318L23.7973 21.3259V16.4592C23.4929 16.4455 23.2094 16.2532 22.9836 15.9736C22.7349 15.6656 22.5493 15.2438 22.4758 14.8091C22.4022 14.3738 22.4399 13.9152 22.6507 13.5496C22.7806 13.3243 22.9714 13.1426 23.2297 13.0232C22.509 12.9421 22.0804 13.0326 21.8089 13.2083C21.4873 13.4165 21.3727 13.7521 21.252 14.1419L21.2727 20.4318Z" fill="black"/>
<path fill-rule="evenodd" clip-rule="evenodd" d="M19.4766 24.2529L25.5727 24.2811L19.4766 24.2529Z" fill="#083D9C"/>
<path fill-rule="evenodd" clip-rule="evenodd" d="M19.3008 24.2521C19.3011 24.1227 19.3801 24.0181 19.4772 24.0186L25.5733 24.0467C25.6703 24.0471 25.7488 24.1524 25.7484 24.2819C25.7481 24.4113 25.6691 24.5159 25.572 24.5154L19.476 24.4873C19.3789 24.4869 19.3004 24.3816 19.3008 24.2521Z" fill="#083D9C"/>
<path fill-rule="evenodd" clip-rule="evenodd" d="M20.1854 22.0314C20.2631 22.035 20.3238 22.1219 20.321 22.2254L20.3162 22.4089L20.4375 22.2122C20.4868 22.1322 20.5754 22.1207 20.6354 22.1864C20.6954 22.2522 20.7041 22.3703 20.6547 22.4503L20.3228 22.9886L20.6023 23.4842C20.6489 23.567 20.6364 23.6845 20.5744 23.7467C20.5123 23.809 20.4241 23.7923 20.3774 23.7096L20.139 23.2867L19.8743 23.716C19.8249 23.7959 19.7363 23.8075 19.6763 23.7417C19.6163 23.6759 19.6077 23.5578 19.657 23.4778L19.9651 22.9782L19.6532 22.4252C19.6066 22.3424 19.619 22.2249 19.6811 22.1626C19.7432 22.1004 19.8314 22.1171 19.878 22.1998L20.033 22.4746L20.0399 22.2121C20.0427 22.1087 20.1078 22.0277 20.1854 22.0314ZM21.3386 22.0314C21.4162 22.035 21.4769 22.1219 21.4741 22.2254L21.4693 22.4089L21.5906 22.2122C21.6399 22.1322 21.7285 22.1207 21.7885 22.1864C21.8485 22.2522 21.8572 22.3703 21.8078 22.4503L21.477 22.9869L21.7557 23.4847C21.8021 23.5677 21.7893 23.6852 21.7271 23.7471C21.6648 23.8091 21.5767 23.792 21.5303 23.709L21.293 23.2852L21.0274 23.716C20.9781 23.7959 20.8894 23.8075 20.8294 23.7417C20.7695 23.6759 20.7608 23.5578 20.8101 23.4778L21.1198 22.9757L20.8061 22.4153C20.7596 22.3323 20.7724 22.2148 20.8346 22.1529C20.8969 22.0909 20.985 22.108 21.0315 22.191L21.1863 22.4676L21.1931 22.2121C21.1958 22.1087 21.2609 22.0277 21.3386 22.0314ZM22.5128 22.0314C22.5904 22.035 22.6511 22.1219 22.6484 22.2254L22.6435 22.4089L22.7648 22.2122C22.8141 22.1322 22.9028 22.1207 22.9628 22.1864C23.0227 22.2522 23.0314 22.3703 22.9821 22.4503L22.6512 22.9869L22.9299 23.4847C22.9763 23.5677 22.9635 23.6852 22.9013 23.7471C22.8391 23.8091 22.751 23.792 22.7045 23.709L22.4672 23.2852L22.2016 23.716C22.1523 23.7959 22.0637 23.8075 22.0037 23.7417C21.9437 23.6759 21.935 23.5578 21.9844 23.4778L22.294 22.9757L21.9803 22.4153C21.9338 22.3323 21.9466 22.2148 22.0089 22.1529C22.0711 22.0909 22.1592 22.108 22.2057 22.191L22.3605 22.4676L22.3673 22.2121C22.37 22.1086 22.4352 22.0277 22.5128 22.0314ZM24.8964 22.0314C24.974 22.035 25.0347 22.1219 25.032 22.2254L25.0268 22.4208L25.1554 22.2122C25.2048 22.1322 25.2934 22.1207 25.3534 22.1864C25.4134 22.2522 25.422 22.3703 25.3727 22.4503L25.0381 22.9929L25.3135 23.4847C25.3599 23.5677 25.3471 23.6852 25.2849 23.7471C25.2227 23.8091 25.1345 23.792 25.0881 23.709L24.8542 23.2912L24.5922 23.716C24.5429 23.7959 24.4543 23.8075 24.3943 23.7417C24.3343 23.6759 24.3257 23.5578 24.375 23.4778L24.6809 22.9817L24.3639 22.4153C24.3174 22.3323 24.3302 22.2148 24.3925 22.1529C24.4547 22.0909 24.5428 22.108 24.5893 22.191L24.7441 22.4676L24.7509 22.2121C24.7536 22.1087 24.8188 22.0277 24.8964 22.0314ZM23.7205 22.0313C23.7981 22.0337 23.8596 22.1196 23.8578 22.2232L23.8543 22.4179L23.9812 22.2122C24.0306 22.1322 24.1192 22.1207 24.1792 22.1864C24.2392 22.2522 24.2478 22.3703 24.1985 22.4503L23.8653 22.9906L24.1397 23.4854C24.1858 23.5687 24.1726 23.6861 24.1102 23.7477C24.0477 23.8092 23.9596 23.7916 23.9135 23.7083L23.6812 23.2892L23.418 23.716C23.3687 23.7959 23.2801 23.8075 23.2201 23.7417C23.1601 23.6759 23.1514 23.5578 23.2008 23.4778L23.5088 22.9783L23.1963 22.4146C23.1501 22.3313 23.1633 22.2139 23.2258 22.1523C23.2883 22.0908 23.3763 22.1084 23.4225 22.1917L23.5722 22.4619L23.5766 22.2143C23.5784 22.1108 23.6429 22.0289 23.7205 22.0313Z" fill="black"/>
<path fill-rule="evenodd" clip-rule="evenodd" d="M15.3766 24.3373L17.9711 24.3654V22.1998L15.0039 22.0029L15.3766 24.3373ZM15.25 21.3373L18.0133 21.7029L17.9922 20.1654L15.2922 18.7311L15.25 21.3467V21.3373ZM15.8125 18.2717L17.9289 19.6404L18.2312 19.2186C18.2312 19.2186 18.0344 19.0404 18.0484 18.8717C18.0484 18.7123 18.2453 18.6842 18.2453 18.4967C18.2453 18.3373 18.0344 18.3092 18.0273 18.1498C18.0133 17.9623 18.1961 17.7748 18.1961 17.7748L16.2836 15.5529L15.8055 18.2717H15.8125ZM29.7344 24.3654H26.9922L26.9711 22.2467L29.9805 21.9467L29.7344 24.3654ZM27.0133 21.7498L30.2688 21.2248L29.5656 18.7217L26.9922 20.1842L27.0133 21.7498ZM29.3828 18.0373L27.0344 19.6873C26.9992 19.4998 26.9711 19.3311 26.8094 19.1904C26.8094 19.1904 26.95 19.0779 26.95 18.8904C26.95 18.7029 26.7672 18.6654 26.7672 18.5623C26.7672 18.4592 26.9359 18.3561 26.95 18.1029C26.9289 17.9342 26.7672 17.6904 26.7953 17.6436L28.6234 15.7873L29.3828 18.0373ZM24.2922 21.7029L25.4664 21.6373L25.4875 21.0092L24.2922 21.7029ZM20.7063 21.6561L19.4758 21.6092V20.9529L20.7133 21.6561H20.7063ZM20.7063 21.4686L19.4758 20.6248V19.5186C19.4758 19.5186 19.3352 19.5467 19.3492 19.3311C19.3563 18.8717 20.2563 20.1654 20.7133 20.5873L20.7063 21.4686ZM24.2922 21.3654V20.6436C24.2922 20.6436 25.4031 19.3123 25.6352 19.0592C25.6352 19.3404 25.5086 19.5467 25.5086 19.5467V20.5967L24.2922 21.3654ZM17.0852 15.3561L18.3367 17.2029C18.3648 17.0342 18.6531 17.0061 18.9414 17.0342C19.2227 17.0623 19.4547 17.0061 19.4547 17.2779C19.4547 17.5498 19.3141 17.5123 19.3141 17.7092C19.3141 17.9061 19.525 17.8873 19.525 18.1311C19.525 18.3748 19.3703 18.3279 19.3703 18.5154C19.3703 18.6748 19.5391 18.6842 19.5391 18.6842L20.7063 20.1936V18.5811L18.3016 13.5467L17.0852 15.3561ZM19.0117 13.4436L20.65 17.8967C20.65 17.8967 20.6641 13.7904 20.9383 13.5748L20.4812 12.4498L19.0117 13.4436ZM26.1133 13.6217L24.2852 17.9529V16.1248C24.2852 16.1248 24.4398 15.8248 24.2008 15.8436C23.9617 15.8717 23.6734 15.8248 23.6734 15.8248L24.4047 12.3936L26.1133 13.6123V13.6217ZM27.9836 15.4686C27.9625 15.5154 26.7531 17.1561 26.7531 17.1561C26.6969 16.9686 26.3313 17.0623 25.9797 17.0623C25.6352 17.0623 25.5859 17.2123 25.607 17.3342C25.6422 17.6436 25.7617 17.4092 25.7617 17.7092C25.7617 17.9998 25.593 17.8967 25.5719 18.1029C25.593 18.3561 25.8391 18.2904 25.6914 18.4779L24.2922 20.2779V18.5717L26.9008 13.1717L27.9836 15.4686Z" fill="#EF7D08"/>
<path fill-rule="evenodd" clip-rule="evenodd" d="M21.7828 25.1629C21.1992 26.4566 19.6312 26.0723 19.2586 25.1629C19.1531 25.1254 19.2164 19.5848 19.2164 19.5848C19.2164 19.5848 19.0406 19.4816 19.0336 19.3035C19.0266 19.1348 19.2727 19.116 19.2727 18.9004C19.2727 18.6848 19.0195 18.7691 19.0125 18.5441C19.0125 18.3379 19.2867 18.3566 19.2727 18.1691C19.2586 17.9441 18.9703 17.9816 18.9563 17.7754C18.9563 17.616 19.1672 17.4754 19.2234 17.4004C19.1578 17.4024 19.0922 17.4024 19.0266 17.4004L18.5766 17.4098C18.2531 17.4098 18.5766 17.5035 18.5766 17.7473C18.5766 17.9066 18.4148 18.0191 18.4008 18.1504C18.3938 18.3004 18.6258 18.3941 18.6328 18.5723C18.6328 18.7223 18.4008 18.7316 18.4078 18.8816C18.4219 19.116 18.6188 19.1723 18.6117 19.3223C18.6117 19.4629 18.3586 19.5191 18.3516 19.6316C18.3656 19.8566 18.3938 25.3316 18.3938 25.3316C18.7945 28.1254 21.1219 28.8285 21.7828 25.1629ZM23.3227 25.1629C23.9063 26.4566 25.4742 26.0723 25.8398 25.1629C25.9523 25.1254 25.8891 19.5848 25.8891 19.5848C25.8891 19.5848 26.0648 19.4816 26.0719 19.3035C26.0789 19.1348 25.8469 19.116 25.8469 18.9004C25.8469 18.6848 26.0859 18.7691 26.0859 18.5441C26.0859 18.3379 25.8398 18.3566 25.8539 18.1504C25.868 17.9348 26.0648 17.9629 26.0719 17.7566C26.0789 17.5785 25.9523 17.4754 25.8891 17.4004H26.0789L26.5289 17.4098C26.8453 17.4098 26.5289 17.5035 26.5289 17.7473C26.5289 17.9066 26.6906 18.0191 26.7047 18.1504C26.7047 18.3004 26.4797 18.3941 26.4727 18.5723C26.4727 18.7223 26.7047 18.7316 26.6977 18.8816C26.6836 19.116 26.4867 19.1723 26.4867 19.3223C26.4938 19.4629 26.7469 19.5191 26.7469 19.6316L26.7117 25.3316C26.3109 28.1254 23.9766 28.8285 23.3227 25.1629Z" fill="#FF0000"/>
<path fill-rule="evenodd" clip-rule="evenodd" d="M19.3042 17.3543C19.3184 17.3983 19.311 17.4494 19.2856 17.4833C19.2653 17.5103 19.2349 17.5391 19.2096 17.563L19.2089 17.5638C19.2067 17.5658 19.2046 17.5678 19.2025 17.5698C19.1761 17.5948 19.1493 17.6201 19.124 17.6474C19.0965 17.677 19.0748 17.7048 19.0604 17.7304C19.0491 17.7506 19.0455 17.7637 19.0445 17.7708C19.0459 17.7778 19.0498 17.786 19.0621 17.7983C19.0817 17.8177 19.109 17.8339 19.15 17.858L19.1507 17.8585C19.1866 17.8796 19.2349 17.9081 19.2744 17.9504C19.3175 17.9967 19.354 18.0635 19.3602 18.1585C19.3669 18.2517 19.335 18.3201 19.296 18.3658C19.2639 18.4034 19.2225 18.4309 19.1928 18.4507C19.1908 18.452 19.189 18.4532 19.1872 18.4544C19.1516 18.4781 19.1288 18.4945 19.1135 18.5125C19.1028 18.5252 19.1007 18.5327 19.1004 18.5419C19.1013 18.5605 19.1054 18.5668 19.1119 18.5739C19.1241 18.5873 19.1428 18.5984 19.1777 18.6169C19.1793 18.6177 19.181 18.6186 19.1827 18.6195C19.2114 18.6346 19.2542 18.6572 19.2885 18.6946C19.3314 18.7412 19.3605 18.8088 19.3605 18.9004C19.3605 19.0769 19.2566 19.1672 19.2008 19.2157C19.2 19.2164 19.1993 19.217 19.1985 19.2177C19.1958 19.22 19.1932 19.2223 19.1906 19.2245C19.1611 19.2502 19.1426 19.2662 19.1295 19.2834C19.1235 19.2912 19.1217 19.2956 19.1213 19.2967C19.1213 19.2967 19.1213 19.296 19.1213 19.297L19.1214 19.2974C19.1229 19.3357 19.1441 19.3782 19.1827 19.4196C19.2004 19.4386 19.2183 19.4535 19.2319 19.4637C19.2387 19.4688 19.2441 19.4725 19.2477 19.4749C19.2495 19.476 19.2508 19.4768 19.2515 19.4773L19.252 19.4776L19.2519 19.4776M19.1277 19.6539C19.1113 19.6404 19.0921 19.6232 19.0726 19.6023C19.0216 19.5476 18.9514 19.4496 18.9458 19.3098C18.9422 19.2228 18.9734 19.1592 19.0065 19.116C19.0331 19.0812 19.0673 19.0517 19.0932 19.0294C19.0964 19.0266 19.0995 19.0239 19.1025 19.0214C19.1685 18.9639 19.1848 18.9371 19.1848 18.9004C19.1848 18.8842 19.1823 18.8815 19.1775 18.8762C19.1662 18.864 19.1484 18.8536 19.1128 18.8347C19.1116 18.8341 19.1105 18.8335 19.1093 18.8329C19.0799 18.8173 19.0361 18.7942 19.0003 18.7549C18.9576 18.7082 18.9276 18.6409 18.9247 18.549C18.9246 18.5474 18.9246 18.5458 18.9246 18.5441C18.9246 18.4513 18.9574 18.3839 18.9968 18.3373C19.0316 18.2961 19.075 18.2671 19.1061 18.2464C19.1069 18.2459 19.1077 18.2453 19.1085 18.2448C19.1453 18.2203 19.1666 18.2055 19.1799 18.1898C19.1831 18.1861 19.1846 18.1836 19.1853 18.1824C19.1853 18.182 19.1853 18.1815 19.1852 18.1808L19.1851 18.1789C19.184 18.1618 19.1793 18.1493 19.1642 18.133C19.1454 18.1129 19.1185 18.0958 19.0789 18.0724C19.0765 18.071 19.0741 18.0696 19.0716 18.0681C19.0377 18.0483 18.9934 18.0222 18.9572 17.9863C18.9147 17.9441 18.8752 17.8805 18.8687 17.786C18.8685 17.7825 18.8684 17.7789 18.8684 17.7754C18.8684 17.7005 18.893 17.6375 18.9197 17.5899C18.934 17.5644 18.9504 17.5407 18.9675 17.5188L18.6043 17.5264C18.6346 17.5799 18.6645 17.6541 18.6645 17.7473C18.6645 17.8771 18.5992 17.9768 18.5603 18.0363L18.5602 18.0364C18.5556 18.0435 18.5512 18.0501 18.547 18.0564C18.5301 18.0821 18.5166 18.1025 18.5053 18.1233C18.4961 18.1402 18.4917 18.1516 18.4895 18.1589C18.4909 18.1626 18.4939 18.169 18.5 18.1785C18.5149 18.2019 18.5367 18.2263 18.5678 18.2608L18.5679 18.2609C18.5959 18.292 18.6316 18.3316 18.6601 18.3772C18.6893 18.4239 18.7174 18.4867 18.7206 18.5661C18.7207 18.5682 18.7207 18.5702 18.7207 18.5723C18.7207 18.6569 18.6862 18.7155 18.6533 18.7524C18.6244 18.7849 18.5885 18.8099 18.5627 18.8278C18.5612 18.8288 18.5598 18.8298 18.5584 18.8308C18.5275 18.8524 18.5093 18.8659 18.498 18.8792C18.4973 18.88 18.4966 18.8808 18.4961 18.8814C18.5022 18.9455 18.5308 18.9898 18.5775 19.0478C18.5807 19.0517 18.5841 19.0559 18.5876 19.0602C18.6082 19.0853 18.6342 19.1172 18.6539 19.1507C18.6789 19.1931 18.7023 19.2514 18.6996 19.3261C18.6984 19.4105 18.6597 19.4689 18.6287 19.5037C18.5968 19.5396 18.557 19.5686 18.5257 19.5909C18.5211 19.5942 18.5166 19.5973 18.5123 19.6004C18.4838 19.6206 18.4624 19.6358 18.4459 19.6513C18.4438 19.6533 18.442 19.6551 18.4405 19.6566C18.444 19.7769 18.4479 20.138 18.452 20.6159C18.4566 21.161 18.4614 21.8666 18.4658 22.565C18.4702 23.2635 18.4742 23.955 18.477 24.4718C18.4785 24.7302 18.4796 24.945 18.4804 25.0951L18.4816 25.3201C18.6789 26.6763 19.3359 27.4908 19.9969 27.5526C20.5833 27.6074 21.2251 27.0707 21.5857 25.6536C21.2654 26.0181 20.838 26.1438 20.4354 26.106C19.9136 26.0569 19.3995 25.7297 19.1887 25.2363C19.1845 25.2299 19.1817 25.2244 19.18 25.2208C19.1729 25.2061 19.1686 25.1915 19.166 25.1815C19.1607 25.1608 19.157 25.1367 19.154 25.1133C19.148 25.0652 19.1431 24.9994 19.1388 24.9208C19.1303 24.7628 19.1241 24.541 19.1196 24.2781C19.1107 23.7519 19.1087 23.0546 19.1101 22.3595C19.1114 21.6641 19.116 20.97 19.1203 20.4498C19.1224 20.1897 19.1245 19.973 19.126 19.8213C19.1267 19.7507 19.1273 19.6942 19.1277 19.6539ZM18.3938 25.3316C18.3059 25.3324 18.3059 25.3324 18.3059 25.3324L18.3046 25.0968C18.3038 24.9466 18.3027 24.7319 18.3012 24.4735C18.2984 23.9567 18.2944 23.2654 18.29 22.567C18.2856 21.8686 18.2808 21.1633 18.2762 20.6185C18.2716 20.0695 18.2671 19.6921 18.264 19.6414C18.2636 19.6349 18.2636 19.6284 18.264 19.6219C18.2693 19.5368 18.318 19.4848 18.3445 19.4599C18.3709 19.435 18.4037 19.4118 18.4308 19.3927C18.435 19.3897 18.439 19.3869 18.4429 19.3841C18.4758 19.3607 18.4996 19.3422 18.5154 19.3245C18.5198 19.3196 18.5224 19.316 18.5239 19.3136C18.5239 19.3133 18.5238 19.3128 18.5236 19.3121C18.5228 19.3096 18.5209 19.3043 18.5157 19.2955C18.5055 19.2782 18.4919 19.2615 18.4711 19.2358C18.4669 19.2307 18.4625 19.2253 18.4578 19.2194C18.4066 19.1558 18.3301 19.0563 18.3202 18.891L18.3201 18.8889C18.3161 18.8031 18.3488 18.742 18.382 18.7031C18.4111 18.669 18.448 18.6433 18.474 18.6251C18.475 18.6245 18.476 18.6238 18.4769 18.6231C18.5081 18.6014 18.5273 18.5875 18.54 18.5732C18.5416 18.5714 18.5428 18.5699 18.5438 18.5687C18.5417 18.5591 18.5366 18.5458 18.5251 18.5274C18.5084 18.5007 18.4853 18.4741 18.4553 18.4408C18.4536 18.4389 18.4519 18.4371 18.4501 18.4351C18.4239 18.4061 18.3913 18.3699 18.3662 18.3305C18.3389 18.2879 18.3092 18.2246 18.3131 18.1431C18.3132 18.14 18.3134 18.1369 18.3138 18.1338C18.3203 18.0732 18.3427 18.0231 18.363 17.9856C18.3797 17.955 18.4001 17.9242 18.4173 17.8981C18.421 17.8926 18.4244 17.8873 18.4277 17.8823C18.4732 17.8129 18.4887 17.7767 18.4887 17.7473C18.4887 17.7226 18.4807 17.6961 18.4619 17.6639C18.4474 17.6392 18.4327 17.6207 18.4163 17.5998C18.409 17.5906 18.4013 17.5809 18.3931 17.57L18.3928 17.5696C18.3839 17.5577 18.3644 17.5316 18.3537 17.4986C18.3473 17.4789 18.3404 17.4454 18.3488 17.4064C18.3575 17.3664 18.3777 17.342 18.3936 17.3288C18.4201 17.3068 18.4525 17.3007 18.4747 17.2977C18.5011 17.2941 18.5348 17.2926 18.5759 17.2926L19.0252 17.2832C19.0263 17.2832 19.0274 17.2832 19.0286 17.2832C19.0928 17.2852 19.1572 17.2852 19.2214 17.2832C19.2573 17.2821 19.2901 17.3103 19.3042 17.3543M18.5464 18.5647C18.5464 18.5647 18.5463 18.5649 18.5461 18.5654C18.5462 18.5649 18.5464 18.5647 18.5464 18.5647ZM25.8069 17.3587C25.8199 17.3133 25.8526 17.2832 25.8891 17.2832H26.0789L26.0803 17.2832L26.5296 17.2926C26.5698 17.2926 26.6029 17.2941 26.629 17.2977C26.6507 17.3008 26.6831 17.3069 26.7096 17.3294C26.7256 17.343 26.7453 17.3675 26.7537 17.4071C26.7618 17.4453 26.7551 17.4782 26.7489 17.4978C26.7386 17.5307 26.7194 17.5568 26.7106 17.5687L26.7104 17.5691C26.7024 17.58 26.6949 17.5897 26.6877 17.5989C26.6716 17.6198 26.6574 17.6382 26.6432 17.6629C26.6248 17.695 26.6168 17.7218 26.6168 17.7473C26.6168 17.7767 26.6323 17.8129 26.6777 17.8823C26.681 17.8873 26.6845 17.8926 26.6881 17.8981C26.7054 17.9242 26.7258 17.955 26.7424 17.9856C26.7628 18.0231 26.7852 18.0732 26.7917 18.1338C26.7923 18.1393 26.7926 18.1448 26.7926 18.1504C26.7926 18.2289 26.7629 18.2896 26.7359 18.3312C26.7113 18.3691 26.68 18.4044 26.6545 18.433C26.6523 18.4355 26.6502 18.4379 26.6481 18.4402C26.6187 18.4733 26.5962 18.4998 26.58 18.5263C26.5687 18.5449 26.5637 18.5585 26.5616 18.5686C26.5626 18.5698 26.5638 18.5713 26.5654 18.5732C26.5782 18.5875 26.5974 18.6014 26.6285 18.6231L26.6314 18.6251C26.6575 18.6433 26.6944 18.669 26.7235 18.7031C26.7567 18.742 26.7894 18.8031 26.7854 18.8889L26.7853 18.891C26.7753 19.0565 26.6988 19.156 26.6462 19.2201C26.6402 19.2274 26.6347 19.2341 26.6295 19.2403C26.6097 19.2642 26.5962 19.2805 26.5854 19.2979C26.5813 19.3044 26.5788 19.3093 26.5772 19.313C26.5792 19.3156 26.5819 19.319 26.5858 19.3232C26.6029 19.3418 26.6278 19.3606 26.6608 19.3841C26.6638 19.3863 26.667 19.3885 26.6701 19.3907C26.698 19.4104 26.7321 19.4346 26.7592 19.4611C26.7854 19.4867 26.8348 19.5421 26.8348 19.6316L26.8348 19.6326L26.7996 25.3326C26.7996 25.3397 26.799 25.3467 26.798 25.3537C26.5927 26.7851 25.8855 27.7148 25.1182 27.7864C24.3414 27.859 23.569 27.0505 23.2372 25.19L23.3227 25.1629L23.398 25.1025C23.6674 25.6997 24.1673 25.9182 24.6568 25.8722C25.1512 25.8256 25.5993 25.513 25.7624 25.1075C25.7645 25.1023 25.7669 25.0973 25.7695 25.0926C25.7703 25.0879 25.7713 25.0816 25.7724 25.0734C25.7773 25.0367 25.7822 24.9799 25.7866 24.9034C25.7955 24.7514 25.8022 24.5344 25.8071 24.2725C25.817 23.7495 25.8196 23.0546 25.8188 22.36C25.8179 21.6655 25.8135 20.9721 25.8093 20.4523C25.8072 20.1924 25.8052 19.976 25.8037 19.8245C25.8029 19.7487 25.8023 19.6892 25.8019 19.6487L25.8012 19.5866C25.8012 19.5866 25.8012 19.5865 25.8891 19.5848L25.8012 19.5866C25.8006 19.5396 25.8212 19.4967 25.8534 19.4777C25.8534 19.4777 25.8534 19.4777 25.8534 19.4777C25.8534 19.4776 25.8535 19.4776 25.8535 19.4776C25.8535 19.4776 25.8535 19.4776 25.8535 19.4776C25.8535 19.4776 25.8536 19.4776 25.8536 19.4776C25.8536 19.4776 25.8536 19.4775 25.8536 19.4776C25.8536 19.4775 25.8537 19.4775 25.8537 19.4775L25.854 19.4773C25.8547 19.4768 25.856 19.476 25.8578 19.4749C25.8613 19.4725 25.8668 19.4688 25.8735 19.4637C25.8872 19.4535 25.9051 19.4386 25.9228 19.4196C25.9614 19.3782 25.9826 19.3357 25.9841 19.2974L25.9841 19.297C25.9842 19.2948 25.984 19.2945 25.9839 19.294C25.9834 19.2927 25.9817 19.2883 25.9763 19.2808C25.9642 19.264 25.9471 19.2483 25.9191 19.2224C25.9168 19.2203 25.9144 19.2181 25.912 19.2159L25.9107 19.2147C25.8569 19.165 25.759 19.0747 25.759 18.9004C25.759 18.8114 25.7856 18.7443 25.8266 18.6969C25.8594 18.659 25.9002 18.6359 25.9268 18.6209C25.9286 18.6199 25.9303 18.6189 25.9319 18.618C25.9645 18.5995 25.98 18.5892 25.9895 18.5776C25.9936 18.5727 25.998 18.5673 25.998 18.5441C25.998 18.5292 25.9951 18.5203 25.9856 18.5075C25.9722 18.4897 25.9527 18.4739 25.9201 18.4483L25.9175 18.4463C25.89 18.4247 25.8502 18.3935 25.8196 18.3494C25.7838 18.2976 25.7604 18.2283 25.7664 18.14M25.9777 19.6539C25.9782 19.6942 25.9787 19.7507 25.9794 19.8214C25.981 19.973 25.983 20.1897 25.9851 20.4498C25.9893 20.97 25.9937 21.6642 25.9945 22.3596C25.9954 23.0547 25.9928 23.7521 25.9829 24.2784C25.9779 24.5413 25.9711 24.7633 25.9619 24.9215C25.9573 25.0001 25.952 25.0662 25.9455 25.1147C25.9423 25.1382 25.9382 25.1627 25.9324 25.1839C25.9296 25.1941 25.925 25.209 25.9173 25.2237C25.9156 25.2271 25.9131 25.2316 25.9097 25.2367C25.702 25.7303 25.1896 26.057 24.6692 26.106C24.2666 26.1438 23.8388 26.0177 23.5184 25.652C23.8764 27.0702 24.5185 27.6075 25.106 27.5526C25.7679 27.4908 26.4266 26.6761 26.6239 25.32L26.6588 19.6538C26.6578 19.6527 26.6566 19.6515 26.6553 19.6501C26.639 19.6343 26.6165 19.6182 26.5853 19.5961L26.578 19.5909C26.5469 19.5687 26.5072 19.5401 26.4749 19.505C26.4435 19.471 26.4032 19.414 26.399 19.3301C26.3989 19.3275 26.3988 19.3249 26.3988 19.3223C26.3988 19.247 26.4243 19.1896 26.45 19.1483C26.4698 19.1166 26.4953 19.0859 26.5158 19.0613C26.52 19.0563 26.524 19.0516 26.5276 19.0471C26.5748 18.9896 26.6033 18.9453 26.6093 18.8814C26.6088 18.8808 26.6082 18.88 26.6075 18.8792C26.5962 18.8659 26.578 18.8524 26.5471 18.8308C26.5457 18.8298 26.5442 18.8288 26.5428 18.8278C26.517 18.8099 26.4811 18.7849 26.4522 18.7524C26.4193 18.7155 26.3848 18.6569 26.3848 18.5723C26.3848 18.571 26.3848 18.5698 26.3848 18.5686C26.3848 18.5678 26.3849 18.5669 26.3849 18.5661C26.388 18.4877 26.4151 18.4253 26.4437 18.3783C26.4717 18.3324 26.5067 18.2927 26.5345 18.2613L26.5372 18.2583C26.5665 18.2253 26.5877 18.2013 26.603 18.1779C26.6097 18.1675 26.6131 18.1603 26.615 18.1558C26.6125 18.1485 26.6081 18.1379 26.6002 18.1233C26.5888 18.1025 26.5754 18.0821 26.5585 18.0564C26.5543 18.0501 26.5499 18.0435 26.5453 18.0364L26.5452 18.0363C26.5063 17.9768 26.441 17.8771 26.441 17.7473C26.441 17.6543 26.4703 17.58 26.5003 17.5264L26.1058 17.5182C26.1386 17.5821 26.1635 17.6631 26.1597 17.7625C26.1539 17.9251 26.0687 17.9998 26.0194 18.043C26.0176 18.0446 26.0158 18.0462 26.014 18.0478C25.9602 18.0952 25.9445 18.1144 25.9415 18.1605L25.9414 18.161C25.9404 18.1757 25.9425 18.1813 25.9488 18.1904C25.9595 18.2059 25.977 18.221 26.0092 18.2463C26.0108 18.2475 26.0124 18.2488 26.0141 18.2501C26.0411 18.2712 26.0794 18.3011 26.1099 18.3417C26.146 18.3899 26.1738 18.4559 26.1738 18.5441C26.1738 18.6335 26.1484 18.7019 26.1076 18.7512C26.0737 18.7923 26.0314 18.8163 26.004 18.8318L26.0009 18.8336C25.9674 18.8526 25.9517 18.8625 25.9418 18.8739L25.9415 18.8742C25.9378 18.8785 25.9348 18.8821 25.9348 18.9004C25.9348 18.9403 25.9513 18.9671 26.012 19.0232C26.0148 19.0257 26.0177 19.0284 26.0207 19.0311C26.0451 19.0534 26.0778 19.0833 26.1031 19.1185C26.1349 19.1627 26.1631 19.2256 26.1596 19.31L26.0719 19.3035L26.1596 19.3097C26.1596 19.3098 26.1596 19.3099 26.1596 19.31C26.154 19.4496 26.0839 19.5476 26.0329 19.6023C26.0134 19.6232 25.9942 19.6404 25.9777 19.6539ZM26.6168 18.1495C26.6168 18.1495 26.6168 18.1496 26.6168 18.1497L26.6168 18.1495ZM26.6659 19.6623C26.6658 19.6623 26.6655 19.6618 26.665 19.6609C26.6657 19.6618 26.6659 19.6623 26.6659 19.6623ZM26.5591 18.5647C26.5591 18.5647 26.5592 18.5649 26.5594 18.5654C26.5592 18.5649 26.5591 18.5647 26.5591 18.5647ZM19.3303 25.0952C19.3295 25.0903 19.3285 25.0836 19.3274 25.0748C19.3228 25.0377 19.3183 24.9806 19.3142 24.904C19.306 24.7519 19.2998 24.5347 19.2954 24.2728C19.2865 23.7497 19.2845 23.0548 19.2858 22.3601C19.2872 21.6656 19.2918 20.9722 19.2961 20.4524C19.2982 20.1925 19.3003 19.976 19.3018 19.8245C19.3025 19.7487 19.3032 19.6892 19.3036 19.6487L19.3043 19.5866C19.3043 19.5866 19.3043 19.5865 19.2164 19.5848M19.3323 25.1056C19.3323 25.1056 19.3323 25.1055 19.3323 25.1055C19.3324 25.106 19.3325 25.1061 19.3323 25.1056ZM19.3303 25.0952C19.3323 25.0989 19.3341 25.1027 19.3357 25.1067C19.5022 25.513 19.9526 25.8257 20.4478 25.8722C20.9382 25.9182 21.4381 25.6997 21.7075 25.1025C21.7299 25.0529 21.776 25.0325 21.8161 25.0544C21.8563 25.0764 21.8784 25.134 21.8683 25.1903C21.5329 27.0505 20.7606 27.859 19.9846 27.7864C19.2181 27.7148 18.5127 26.7849 18.3074 25.3537C18.3064 25.3467 18.3059 25.3395 18.3059 25.3324L18.3938 25.3316" fill="black"/>
<path fill-rule="evenodd" clip-rule="evenodd" d="M21.2141 27.7125H23.8367C23.8578 27.6844 23.2461 26.4938 22.5289 26.5875C21.7203 26.6156 21.1719 27.7125 21.2141 27.7125ZM29.5742 27.6188H25.9883C25.9883 27.6188 26.4523 27.2625 26.5789 26.925C26.8109 27.0938 26.7477 27.2625 27.2117 27.2906C27.6758 27.3188 28.1188 26.5875 28.5617 26.6156C29.0047 26.6437 29.5742 27.6469 29.5742 27.6281V27.6188ZM15.4414 27.6188H19.0273C19.0273 27.6188 18.5633 27.2625 18.4367 26.925C18.2047 27.0938 18.268 27.2625 17.8039 27.2906C17.3398 27.3188 16.8898 26.5875 16.4539 26.6156C16.0109 26.6437 15.4414 27.6469 15.4414 27.6281V27.6188ZM15.7086 26.1188L18.2609 26.1469C18.2609 26.1469 18.0992 25.6781 18.0781 25.1062C17.4172 24.8062 16.8828 25.7625 16.4047 25.7906C15.9336 25.8188 15.4414 25.1062 15.4414 25.1062L15.7086 26.1188ZM29.3492 26.1188L26.7898 26.1469C26.7898 26.1469 26.9516 25.6781 26.9727 25.1062C27.6336 24.8062 28.168 25.7625 28.6461 25.7906C29.1172 25.8188 29.6094 25.1062 29.6094 25.1062L29.3422 26.1188H29.3492ZM21.868 26.1562L23.1617 26.1094C23.1617 26.1094 23.1828 25.5844 22.5078 25.5844C21.8328 25.5844 21.8891 26.1844 21.868 26.1562ZM21.0805 25.4156C21.3274 25.2716 21.5306 25.0205 21.657 24.7031L20.7711 24.7312C20.7711 24.7312 20.3633 25.0594 20.1594 25.4156H21.0805ZM23.9492 25.4156C23.7023 25.2716 23.4991 25.0205 23.3727 24.7031L24.2586 24.7312C24.2586 24.7312 24.6664 25.0594 24.8703 25.4156H23.9492Z" fill="#083D9C"/>
<path fill-rule="evenodd" clip-rule="evenodd" d="M21.7754 24.6055L21.719 24.747C21.5852 25.083 21.37 25.3489 21.1086 25.5014L21.0951 25.5093H20.0172L20.1034 25.3586C20.2114 25.1699 20.3707 24.9926 20.4996 24.8645C20.5647 24.7999 20.6232 24.7467 20.6655 24.7096C20.6866 24.6911 20.7038 24.6765 20.7157 24.6665C20.7217 24.6615 20.7263 24.6577 20.7295 24.655L20.7333 24.652L20.7343 24.6512L20.7345 24.651L20.7346 24.6509C20.7346 24.6509 20.7347 24.6509 20.771 24.7311L20.7346 24.6509L20.7507 24.638L21.7754 24.6055ZM20.7918 24.8242C20.7913 24.8246 20.7909 24.825 20.7905 24.8253C20.7793 24.8347 20.763 24.8485 20.7427 24.8663C20.7022 24.9018 20.646 24.9529 20.5836 25.0149C20.4958 25.1021 20.3981 25.2085 20.3144 25.3218H21.0654C21.254 25.2079 21.4147 25.0273 21.5306 24.8008L20.7918 24.8242ZM23.2541 24.6055L24.2789 24.638L24.2948 24.6509L24.2585 24.7311C24.2948 24.6509 24.2948 24.6509 24.2948 24.6509L24.2953 24.6512L24.2963 24.652L24.3 24.655C24.3032 24.6577 24.3079 24.6615 24.3138 24.6665C24.3258 24.6765 24.3429 24.6911 24.3641 24.7096C24.4064 24.7467 24.4649 24.7999 24.5299 24.8645C24.6588 24.9926 24.8181 25.1699 24.9261 25.3586L25.0123 25.5093H23.9344L23.921 25.5014C23.6595 25.3489 23.4444 25.083 23.3105 24.747L23.2541 24.6055ZM24.2378 24.8242C24.2382 24.8246 24.2386 24.825 24.239 24.8253C24.2502 24.8347 24.2665 24.8485 24.2868 24.8663C24.3273 24.9018 24.3835 24.9529 24.4459 25.0149C24.5337 25.1021 24.6315 25.2085 24.7151 25.3218H23.9641C23.7755 25.2079 23.6148 25.0273 23.4989 24.8008L24.2378 24.8242ZM17.1385 25.2434C17.4169 25.0365 17.7397 24.8535 18.1007 25.0174L18.1459 25.0379L18.1483 25.1015C18.1585 25.3775 18.2027 25.6297 18.2446 25.8136C18.2656 25.9053 18.2858 25.9795 18.3008 26.0305C18.3082 26.0559 18.3143 26.0756 18.3185 26.0887C18.3206 26.0952 18.3222 26.1001 18.3233 26.1033L18.3245 26.1068L18.3247 26.1075L18.3247 26.1076L18.371 26.2417L15.6586 26.2118L15.375 25.1372L15.493 25.0427C15.493 25.0426 15.493 25.0426 15.493 25.0426L15.4932 25.0429L15.4941 25.0441C15.4949 25.0453 15.4962 25.0471 15.4979 25.0495C15.5013 25.0543 15.5066 25.0616 15.5134 25.0708C15.5272 25.0894 15.5475 25.1162 15.5735 25.1484C15.6254 25.2128 15.6994 25.2983 15.7874 25.3828C15.9665 25.5546 16.1907 25.7094 16.4015 25.6969C16.5052 25.6908 16.6171 25.6337 16.7423 25.5464C16.8157 25.4953 16.8873 25.4388 16.9623 25.3796C17.0184 25.3353 17.0765 25.2895 17.1385 25.2434ZM15.6009 25.4285L15.7585 26.0254L18.1564 26.0519C18.1426 26.0023 18.1265 25.9403 18.1101 25.8682C18.0692 25.6892 18.0258 25.4463 18.0109 25.1766C17.7281 25.0733 17.467 25.214 17.207 25.4072C17.1526 25.4476 17.0965 25.4918 17.0403 25.536C16.961 25.5984 16.8817 25.6609 16.8074 25.7126C16.6773 25.8032 16.5431 25.8762 16.4077 25.8842C16.1474 25.8997 15.89 25.7123 15.7052 25.535C15.6679 25.4991 15.6329 25.4631 15.6009 25.4285ZM27.0398 25.1766C27.0248 25.4463 26.9814 25.6892 26.9405 25.8682C26.9241 25.9403 26.908 26.0023 26.8942 26.0519L29.2921 26.0255L29.4497 25.4285C29.4177 25.4631 29.3828 25.4991 29.3454 25.535C29.1606 25.7123 28.9032 25.8997 28.6429 25.8842C28.5075 25.8762 28.3733 25.8032 28.2432 25.7126C28.1689 25.6609 28.0896 25.5984 28.0103 25.536C27.9542 25.4918 27.898 25.4476 27.8436 25.4072C27.5837 25.214 27.3225 25.0733 27.0398 25.1766ZM29.5577 25.0427L29.6756 25.1372L29.4084 26.1497L29.3494 26.1221L29.3497 26.2124L29.3491 26.2124L26.6796 26.2417M29.5577 25.0427C29.5576 25.0426 29.5576 25.0426 29.5576 25.0426L29.5577 25.0427ZM29.5576 25.0426L29.5574 25.0429L29.5565 25.0441C29.5557 25.0453 29.5544 25.0471 29.5527 25.0495C29.5493 25.0543 29.5441 25.0616 29.5372 25.0708C29.5234 25.0894 29.5031 25.1162 29.4771 25.1484C29.4252 25.2128 29.3512 25.2983 29.2632 25.3828C29.0842 25.5546 28.8599 25.7094 28.6492 25.6969C28.5454 25.6908 28.4336 25.6337 28.3083 25.5464C28.2349 25.4953 28.1633 25.4388 28.0883 25.3796C28.0322 25.3353 27.9742 25.2895 27.9121 25.2434C27.6337 25.0365 27.3109 24.8535 26.9499 25.0174L26.9047 25.0379L26.9023 25.1015C26.8922 25.3775 26.848 25.6297 26.806 25.8136C26.7851 25.9053 26.7648 25.9795 26.7499 26.0305C26.7424 26.0559 26.7363 26.0756 26.7321 26.0887C26.731 26.092 26.7301 26.0949 26.7293 26.0974C26.7285 26.0998 26.7278 26.1017 26.7273 26.1033L26.7262 26.1068L26.7259 26.1075M21.884 25.8289C21.9732 25.6499 22.153 25.4905 22.5077 25.4905C22.8589 25.4905 23.046 25.6277 23.1426 25.788C23.19 25.8666 23.2124 25.9458 23.2229 26.006C23.2281 26.0361 23.2304 26.0616 23.2314 26.0803C23.2319 26.0896 23.232 26.0973 23.232 26.103C23.232 26.1047 23.232 26.1063 23.232 26.1076C23.232 26.1085 23.232 26.1094 23.232 26.1102L23.2319 26.1126L23.2319 26.1135L23.2319 26.1139L23.2319 26.1141C23.2319 26.1142 23.2319 26.1143 23.1616 26.1093L23.2319 26.1143L23.2284 26.2006L21.8825 26.2494C21.8494 26.2583 21.825 26.2315 21.8182 26.2224L21.8679 26.1561L21.866 26.0631C21.8584 26.0636 21.8502 26.066 21.8415 26.0711C21.8266 26.0797 21.818 26.093 21.814 26.1002C21.8098 26.1077 21.8075 26.1144 21.8065 26.1176C21.805 26.1222 21.8042 26.126 21.8039 26.1275C21.804 26.1268 21.8042 26.1255 21.8045 26.1235C21.8048 26.1213 21.8052 26.1181 21.8056 26.1141C21.8072 26.1013 21.8097 26.0807 21.813 26.0594C21.8224 26.0001 21.841 25.9153 21.884 25.8289ZM21.9578 26.0591L23.0796 26.0184C23.0712 25.985 23.0571 25.9454 23.033 25.9055C22.9714 25.8033 22.8316 25.678 22.5077 25.678C22.1874 25.678 22.0579 25.8186 22.0012 25.9326C21.9792 25.9767 21.9661 26.0208 21.9578 26.0591ZM23.9074 27.7131C23.9072 27.7238 23.9052 27.7535 23.8864 27.7787L23.8658 27.8061H21.214C21.1981 27.8061 21.1775 27.7989 21.1612 27.7758C21.1466 27.7552 21.1429 27.7321 21.1419 27.7197C21.14 27.6971 21.1443 27.6783 21.1458 27.6719C21.1499 27.6546 21.1569 27.6361 21.1638 27.6196C21.1784 27.5846 21.2015 27.538 21.2317 27.4843C21.2924 27.3764 21.3854 27.2338 21.5055 27.0905C21.7442 26.8059 22.0979 26.5097 22.5245 26.4938C22.9124 26.4445 23.263 26.7406 23.5068 27.0347C23.6303 27.1837 23.7301 27.3366 23.7979 27.4545C23.8317 27.5134 23.8582 27.5646 23.8759 27.6032C23.8846 27.6221 23.8921 27.64 23.8973 27.6552C23.8997 27.6623 23.903 27.6727 23.9051 27.6843C23.9061 27.6898 23.9077 27.7002 23.9074 27.7131ZM23.4124 27.1737C23.1768 26.8895 22.864 26.6378 22.5357 26.6807L22.5332 26.681L22.5307 26.6811C22.1498 26.6943 21.8259 26.96 21.5992 27.2303C21.4864 27.3648 21.3997 27.4982 21.3442 27.5968C21.3399 27.6043 21.3359 27.6116 21.3321 27.6186H23.7142C23.7058 27.603 23.6964 27.5863 23.6862 27.5686C23.6229 27.4583 23.5288 27.3141 23.4124 27.1737ZM27.5835 27.2793C27.4644 27.3465 27.3388 27.3921 27.2084 27.3842C26.9705 27.3697 26.8547 27.3187 26.7678 27.2371C26.7374 27.2086 26.7103 27.1758 26.6859 27.1461C26.6783 27.1369 26.6709 27.1279 26.6638 27.1195C26.6455 27.098 26.626 27.0763 26.6027 27.0546C26.5214 27.2132 26.3896 27.3624 26.2781 27.4734C26.2601 27.4914 26.2423 27.5086 26.2251 27.5249H29.4131C29.3546 27.4364 29.2758 27.3223 29.1854 27.2071C29.0884 27.0834 28.9794 26.9606 28.8691 26.8674C28.7577 26.7733 28.6513 26.7151 28.5583 26.7091C28.4625 26.7031 28.363 26.7379 28.257 26.7991C28.1524 26.8595 28.0466 26.9425 27.9355 27.0296L27.9302 27.0338C27.8188 27.1212 27.7021 27.2123 27.5835 27.2793ZM29.5989 27.5249C29.5975 27.5226 29.596 27.5203 29.5945 27.5179C29.5786 27.4931 29.5571 27.4595 29.5311 27.4199C29.47 27.3269 29.3835 27.2001 29.2826 27.0716C29.1819 26.9433 29.0654 26.8113 28.9443 26.709C28.8243 26.6077 28.6934 26.53 28.565 26.5219C28.4393 26.5139 28.3173 26.5599 28.2011 26.627C28.0884 26.6922 27.9762 26.7802 27.8678 26.8652L27.8589 26.8722C27.7462 26.9606 27.6374 27.0453 27.5287 27.1066C27.4203 27.1677 27.3165 27.203 27.2148 27.1969C26.9887 27.1832 26.9041 27.1358 26.8487 27.0838C26.8261 27.0626 26.8082 27.0408 26.7858 27.0137C26.777 27.003 26.7676 26.9916 26.7569 26.979C26.7205 26.9361 26.6766 26.8892 26.6125 26.8426L26.5485 26.7961L26.5159 26.883C26.4608 27.03 26.3257 27.192 26.194 27.3232C26.1298 27.3871 26.0693 27.4409 26.0249 27.4786C26.0027 27.4975 25.9846 27.5123 25.9721 27.5224C25.9658 27.5274 25.961 27.5312 25.9578 27.5338L25.9542 27.5366L25.9533 27.5372L25.9531 27.5374L25.7252 27.7124H29.5429C29.5458 27.7143 29.5499 27.7167 29.555 27.7186C29.5612 27.7209 29.5745 27.7246 29.5908 27.7193C29.6102 27.7129 29.6264 27.6961 29.6358 27.6732C29.6437 27.654 29.6445 27.6363 29.6445 27.628V27.5249H29.5989ZM17.4857 27.1065C17.5947 27.1677 17.6989 27.203 17.8006 27.1969C18.0267 27.1832 18.1114 27.1358 18.1668 27.0838C18.1893 27.0626 18.2073 27.0408 18.2297 27.0137C18.2384 27.003 18.2479 26.9916 18.2586 26.979C18.295 26.9361 18.3389 26.8892 18.403 26.8426L18.4669 26.7961L18.4995 26.883C18.5547 27.03 18.6897 27.192 18.8215 27.3232C18.8857 27.3871 18.9461 27.4409 18.9906 27.4786C19.0128 27.4975 19.0309 27.5123 19.0434 27.5224C19.0496 27.5274 19.0545 27.5312 19.0577 27.5338L19.0613 27.5366L19.0622 27.5372L19.0623 27.5374M16.4505 26.5219C16.5746 26.5139 16.6958 26.5601 16.8114 26.6271C16.9229 26.6917 17.0346 26.7789 17.1425 26.8633C17.1463 26.8662 17.1501 26.8692 17.1538 26.8721C17.267 26.9605 17.3764 27.0452 17.4857 27.1065" fill="#083D9C"/>
<path fill-rule="evenodd" clip-rule="evenodd" d="M-2.8125 33.75H47.8125V45H-2.8125V33.75ZM-2.8125 0H47.8125V11.25H-2.8125V0Z" fill="#DE2010"/>
</g>
<defs>
<clipPath id="clip0_45_18995">
<rect width="45" height="45" fill="white"/>
</clipPath>
</defs>
</svg>
