<svg width="45" height="45" viewBox="0 0 45 45" fill="none" xmlns="http://www.w3.org/2000/svg">
<g clip-path="url(#clip0_45_19827)">
<path d="M0 0H45V45H0V0Z" fill="#20603D"/>
<path d="M0 0H45V33.75H0V0Z" fill="#FAD201"/>
<path d="M0 0H45V22.5H0V0Z" fill="#00A1DE"/>
<path d="M41.3719 11.7559L37.6031 12.0496L41.1844 13.6371L37.4906 12.6184L40.6453 15.3809L37.2703 13.1184L39.7735 16.8871L36.9563 13.5434L38.6531 18.0434L36.5766 13.8371L37.3359 18.7559L36.15 13.9871L35.9297 19.0121L35.8828 11.6934L41.3719 11.7559Z" fill="#E5BE01"/>
<path d="M35.9281 13.8998C36.8161 13.8998 37.536 12.94 37.536 11.7561C37.536 10.5721 36.8161 9.6123 35.9281 9.6123C35.0402 9.6123 34.3203 10.5721 34.3203 11.7561C34.3203 12.94 35.0402 13.8998 35.9281 13.8998Z" fill="#E5BE01"/>
<path fill-rule="evenodd" clip-rule="evenodd" d="M35.9297 9.71836C35.0857 9.71836 34.4016 10.6306 34.4016 11.7559C34.4016 12.8812 35.0857 13.7934 35.9297 13.7934C36.7737 13.7934 37.4578 12.8812 37.4578 11.7559C37.4578 10.6306 36.7737 9.71836 35.9297 9.71836ZM34.2422 11.7559C34.2422 10.5132 34.9977 9.50586 35.9297 9.50586C36.8617 9.50586 37.6172 10.5132 37.6172 11.7559C37.6172 12.9985 36.8617 14.0059 35.9297 14.0059C34.9977 14.0059 34.2422 12.9985 34.2422 11.7559Z" fill="#00A1DE"/>
</g>
<defs>
<clipPath id="clip0_45_19827">
<rect width="45" height="45" fill="white"/>
</clipPath>
</defs>
</svg>
