<svg width="45" height="45" viewBox="0 0 45 45" fill="none" xmlns="http://www.w3.org/2000/svg">
<g clip-path="url(#clip0_45_19836)">
<path fill-rule="evenodd" clip-rule="evenodd" d="M-2.8125 0H47.8125V45H-2.8125V0Z" fill="#199D00"/>
<path fill-rule="evenodd" clip-rule="evenodd" d="M9.94357 12.7527C9.89084 13.8074 9.81174 15.6531 10.4907 15.8464C11.3015 15.9519 10.8532 14.0183 11.1499 13.6668C11.2026 13.491 11.3015 13.491 11.3081 13.7107V15.3543C11.3081 15.8816 11.5717 16.0398 11.7695 16.1453C11.9804 16.1277 12.1255 16.1453 12.2046 16.4089L12.31 19.2478C12.31 19.2478 12.7978 19.4412 12.8242 17.657C12.844 16.6023 12.666 15.7322 12.7715 15.53C12.7715 15.3279 12.9692 15.3191 13.101 15.4158C13.312 15.6091 13.4043 15.8552 13.7339 15.7673C14.2348 15.574 14.5381 15.2488 14.5446 14.739C14.5348 14.2381 14.4566 13.7437 14.3139 13.28C14.3403 13.1922 14.2216 12.9548 14.248 12.867C14.3337 13.0603 14.4721 13.0427 14.4985 12.867C14.4128 12.4978 14.281 12.1375 14.07 11.9881C13.8921 11.7771 13.6284 11.8123 13.5427 12.2517C13.49 12.7527 13.6745 13.3416 13.9448 13.8338C14.0041 14.0183 14.0832 14.3347 14.0503 14.616C13.9052 14.7302 13.7602 14.6775 13.635 14.5105C13.635 14.5105 13.2395 14.115 13.2395 14.0183C13.3449 13.1218 13.2592 13.0164 13.1999 12.7615C13.1604 12.4187 13.0351 12.3045 12.9362 12.0759C12.8374 11.9353 12.7055 11.9353 12.6396 12.0759C12.4616 12.4802 12.5473 13.3504 12.6726 13.7459C12.7649 14.1062 12.9033 14.3347 12.8374 14.3347C12.7846 14.5369 12.6726 14.4841 12.5869 14.2468C12.4904 13.7474 12.4439 13.2332 12.4485 12.7175C12.4155 12.3132 12.3759 11.4519 12.1716 11.2234C12.0529 11.0125 11.875 11.1179 11.8091 11.3113C11.7916 11.7039 11.7983 12.0978 11.8288 12.489C11.9607 13.1394 12.0068 13.7195 12.0727 14.3787C12.0925 15.2664 11.6904 14.7654 11.7102 14.3172C11.7966 13.7536 11.7899 13.1718 11.6904 12.6121C11.6245 12.3836 11.552 12.3308 11.3872 12.366C11.2619 12.366 10.9389 12.8318 10.8466 13.6228C10.8466 13.6228 10.7675 14.0271 10.7346 14.3875C10.6884 14.7918 10.4907 15.0906 10.3457 14.3347C10.227 13.781 10.1479 12.4363 9.95016 12.7527H9.94357Z" fill="white"/>
<path fill-rule="evenodd" clip-rule="evenodd" d="M12.1504 17.0684L10.041 18.4219C10.0608 17.7803 11.0364 16.6289 11.7087 16.6201C12.1372 16.6289 12.0317 16.8398 12.1438 17.0684H12.1504Z" fill="white"/>
<path fill-rule="evenodd" clip-rule="evenodd" d="M11.7742 17.9472C10.6668 21.7705 14.378 22.3066 14.7932 18.1054C14.8328 17.9297 14.991 17.7627 15.0174 18.0439C14.9317 21.8496 12.1433 22.1045 11.6687 20.9092C11.5571 20.4979 11.5013 20.0633 11.5039 19.6259C11.438 18.8789 11.1414 19.1689 11.0952 19.9072C11.0491 20.3203 11.0623 20.4345 11.0623 20.8301C11.2073 23.8359 14.7998 22.5439 15.3865 20.0654C15.6963 18.6943 15.3338 17.6836 15.4986 17.6836C15.8545 18.1933 16.3555 17.7539 16.4676 17.5781C16.5137 17.4902 16.6324 17.4287 16.7115 17.5429C16.9883 17.8066 17.4761 17.6836 17.5816 17.2177C17.6409 16.7519 17.687 16.2773 17.7002 15.7939C17.4695 15.8818 17.3047 15.9433 17.2849 16.0752L17.2388 16.4795C17.219 16.6113 17.0279 16.6113 17.0147 16.4443C16.929 15.917 16.573 15.8554 16.3555 16.664C16.2171 16.8222 15.9534 16.8574 15.927 16.6201C15.96 16.0752 15.7952 16.0049 15.4656 16.2597L15.1492 13.0781C15.281 13.0781 15.4129 13.2099 15.5381 12.999C15.4063 12.4277 15.1097 11.2676 14.9449 11.1797C14.8723 11.0566 14.8064 11.1357 14.701 11.1709C14.5296 11.2412 14.3714 11.4345 14.4241 11.8213C14.6219 13.4736 14.7537 14.7304 14.958 16.3916C14.991 16.5761 14.8723 16.831 14.7141 16.8047C14.4505 16.5674 14.3846 16.084 13.9231 16.1015C13.5935 16.1015 13.2244 16.5849 13.1783 17.042C13.1189 17.4111 13.0992 17.8066 13.1783 18.123C13.409 18.4922 13.6858 18.457 13.9297 18.3779C14.1275 18.2636 14.2923 18 14.3648 18.0615C14.4109 18.1406 14.3714 19.0195 13.4222 19.6875C12.8487 20.039 12.3872 20.1093 12.1433 19.4853C11.9917 19.0898 12.1565 17.6045 11.7742 17.9472Z" fill="white"/>
<path fill-rule="evenodd" clip-rule="evenodd" d="M16.5023 14.0625C16.7198 13.957 17.7745 12.3398 17.7745 12.3398L17.6163 12.164C17.557 12.1025 17.5636 12.0322 17.6163 11.9707C17.88 11.7597 17.7943 11.3203 17.6624 11.1093C17.5729 11.0512 17.4745 11.0217 17.3749 11.0232C17.2754 11.0247 17.1774 11.0572 17.089 11.1181C16.9044 11.3554 16.8648 11.7334 17.0099 11.9619C17.1483 12.0498 17.2867 12.2431 17.1944 12.3486C16.7594 12.9638 15.5794 14.0273 15.7179 14.0625C15.7442 14.1152 16.4759 14.1152 16.4957 14.0625H16.5023ZM10.1082 19.7753C9.71273 20.6191 9.67977 21.8759 9.8973 22.2539C10.016 22.4296 10.2071 22.5087 10.3455 22.4472C10.596 22.3066 10.7081 21.6298 10.6488 21.3925C10.5631 21.2167 10.4972 21.1904 10.4115 21.331C10.2401 21.8056 10.1676 21.4804 10.1478 21.2167C10.1289 20.7702 10.1466 20.3222 10.2005 19.8808C10.2467 19.5117 10.2005 19.6171 10.1082 19.7753ZM27.0558 18.4306C26.6734 17.3232 26.1395 16.2333 25.9747 15.8203C25.461 14.7375 24.9157 13.682 24.3399 12.6562C23.9312 12.0058 25.0123 12.9287 24.2081 11.6279L23.6214 10.9687C23.4896 10.8457 23.1732 10.6171 23.1204 10.9863C23.0941 11.3203 23.1073 11.496 23.1468 11.7685C23.1798 11.9443 23.3775 12.2519 23.4764 12.4277C24.8278 14.8143 26.0148 17.3588 27.0228 20.0302C27.1942 19.916 27.1546 18.6152 27.0558 18.4306Z" fill="white"/>
<path fill-rule="evenodd" clip-rule="evenodd" d="M25.3735 22.105C25.2944 22.2192 25.5581 22.7026 25.9008 22.7026C26.4677 22.6147 26.9687 22.1928 27.4301 21.0678C27.6176 20.6936 27.7373 20.2663 27.7795 19.8198C27.8353 17.6862 27.7071 15.5511 27.3972 13.4565C27.3774 13.2807 27.3972 13.0698 27.4104 13.0171C27.4499 12.9555 27.5752 13.0171 27.6411 12.8677C27.74 12.7358 27.3774 11.6372 27.1797 11.2241C27.1137 11.0307 27.0808 10.9077 26.9621 11.2417C26.8189 11.6102 26.7508 12.0224 26.7644 12.437C27.0346 14.9419 27.1203 17.1303 27.2917 19.6352C27.3115 19.8813 27.2851 20.2329 27.1599 20.3735C26.6625 21.1119 26.0537 21.7019 25.3735 22.105ZM33.0529 22.0962C32.6443 22.4126 32.6443 22.7729 32.9738 22.7817C33.5407 22.6938 34.2131 22.6323 34.6745 21.7007C34.8375 21.2619 34.9317 20.7834 34.9514 20.2944C35.0344 18.1936 34.9304 16.0872 34.6416 14.019C34.6284 13.8432 34.5691 13.4302 34.5888 13.3774C34.6284 13.2544 34.813 13.3862 34.8789 13.2456C34.9712 13.1137 34.3977 12.1294 34.1933 11.7075C34.1274 11.5141 34.101 11.3911 33.9758 11.7251C33.843 12.097 33.8015 12.5152 33.8571 12.9204C34.1604 15.645 34.3845 17.6841 34.4306 20.0923C34.4043 20.3208 34.3977 20.4438 34.3186 20.7339C34.1406 21.0327 33.9428 21.4194 33.7583 21.604C33.5737 21.7798 33.1782 21.9555 33.0529 22.0962Z" fill="white"/>
<path fill-rule="evenodd" clip-rule="evenodd" d="M33.3563 19.661C33.3563 19.0194 33.3629 18.4745 33.3497 17.9911C33.3455 17.5817 33.2782 17.1778 33.152 16.8046C33.0333 16.4442 33.1058 16.1542 33.0465 15.7675C32.9938 15.3807 33.007 14.8007 32.9279 14.3524C32.9015 14.1766 32.8356 13.6054 32.8554 13.5438C32.8883 13.4208 33.0136 13.5438 33.0795 13.4032C33.1718 13.2714 32.7499 11.8212 32.5389 11.4081C32.4664 11.2235 32.3214 11.285 32.1566 11.5839C31.9918 11.786 32.0512 12.2343 32.1171 12.6649C32.5192 15.5038 32.829 18.079 32.7631 20.7772C32.7367 21.0057 33.3563 20.0917 33.3563 19.661ZM30.3439 16.1454C30.0868 16.1278 29.5529 15.4686 29.3947 15.0907C29.3688 14.9983 29.3577 14.8997 29.3623 14.8013C29.3668 14.7029 29.3868 14.6069 29.421 14.5194C29.5199 14.4315 29.6649 14.3436 29.777 14.4315C29.777 14.4315 29.889 14.6425 29.8693 14.6688C30.0011 14.7567 30.067 14.7128 30.0802 14.6337C30.0868 14.5018 30.0407 14.4227 30.0407 14.2821C30.1 13.8778 30.4362 13.8163 30.568 14.0712C30.6603 14.2294 30.6998 14.5546 30.7064 14.7743C30.7064 14.8886 30.5746 14.7567 30.4889 14.7743C30.4164 14.8095 30.3966 14.9325 30.39 15.038C30.3768 15.328 30.3505 15.7938 30.3439 16.1366V16.1454ZM25.611 20.3641C25.6769 19.5028 25.5846 17.9647 25.578 17.455C25.5428 16.144 25.4614 14.8359 25.3341 13.535C25.255 12.7968 25.5582 13.6141 25.5187 13.1835C25.4198 12.454 25.1166 11.953 24.754 11.2938C24.642 11.0741 24.642 11.0302 24.464 11.3466C24.2662 11.9354 24.4376 12.3485 24.4904 12.8143C24.7474 14.3261 24.8991 15.7147 24.9716 17.0946C25.0475 18.528 25.0563 19.9664 24.9979 21.4013C25.1957 21.41 25.4989 20.9882 25.611 20.3641Z" fill="white"/>
<path fill-rule="evenodd" clip-rule="evenodd" d="M34.2336 18.9845C33.7787 17.9649 33.0998 16.8751 32.9152 16.462C32.304 15.3239 31.6619 14.2157 30.9904 13.1397C30.4301 12.3487 31.2541 13.0079 30.8849 12.3927C30.5751 11.9444 30.4894 11.795 30.2192 11.5226C30.0873 11.4083 30.0082 11.1886 29.9555 11.5665C29.9345 11.8939 29.9301 12.2227 29.9423 12.5509C29.9423 12.7003 30.0609 12.9903 30.1664 13.1661C31.5309 15.4073 33.0273 17.6925 34.227 20.5665C34.3984 20.4522 34.339 19.1602 34.227 18.9845H34.2336Z" fill="white"/>
<path fill-rule="evenodd" clip-rule="evenodd" d="M13.7059 17.1126C13.6729 17.1917 13.6004 17.2884 13.6268 17.3851C13.6729 17.473 13.719 17.4993 13.7981 17.4993C13.8706 17.4993 13.9761 17.5257 13.9959 17.473C14.0354 17.4115 14.0618 17.2972 14.0354 17.1829C13.9563 16.9193 13.7454 17.0247 13.7059 17.1126Z" fill="#1BA400"/>
<path fill-rule="evenodd" clip-rule="evenodd" d="M28.9736 31.8602C29.5801 31.8954 29.9756 31.9042 30.5095 31.9833L31.1423 31.8954C31.8411 31.8075 31.8674 33.2225 31.8674 33.2225C31.8674 34.0575 31.6235 34.1014 31.3137 34.1893C31.1357 34.2245 31.05 34.0487 30.9512 33.8729C30.8021 33.9366 30.6433 33.9487 30.4897 33.9081C30.2327 33.8905 29.9822 33.8905 29.7317 33.8641C29.468 33.8378 29.323 33.9081 29.0527 33.8729C29 33.9872 28.9209 34.1454 28.7627 34.1014C28.6309 34.0751 28.4661 33.5741 28.5122 33.1786C28.6111 32.8973 28.5781 32.994 28.5781 32.871C26.0996 32.7831 23.6013 32.6337 21.1755 32.6776C19.2771 32.6864 17.405 32.7919 15.5264 32.8973C14.5244 32.8798 13.7598 32.6688 13.2324 31.6405C13.2852 31.6405 15.79 31.8251 16.5217 31.7636C17.873 31.746 19.1123 31.5966 20.49 31.5438C23.2058 31.6054 25.9019 31.6054 28.6177 31.8602C28.354 31.6229 28.354 31.0692 28.7495 30.9286C28.7825 30.8934 28.8022 31.2011 28.8616 31.1923C29.1846 31.1659 29.0396 31.746 28.9736 31.8602ZM18.0576 11.8915C17.6489 13.4559 18.2949 15.1786 18.7432 15.0116C19.0728 15.1874 19.2705 14.3612 19.4023 13.4647C19.5012 13.2098 19.5671 13.1835 19.6133 13.3153C19.6001 14.5106 19.6792 14.7831 19.9099 15.1434C20.4241 15.6708 20.8525 15.2138 20.8855 15.1698L21.281 14.6337C21.3733 14.5018 21.4919 14.5018 21.6172 14.6073C21.7424 14.7567 21.7227 15.0116 21.9863 15.1874C22.2104 15.3104 22.6785 15.2225 22.7905 14.9677C22.9355 14.6249 22.9751 14.5106 23.041 14.3876C23.1465 14.203 23.3245 14.2821 23.3245 14.3436C23.3047 14.4491 23.1992 14.5458 23.2717 14.7391C23.4036 14.8622 23.4299 14.7831 23.5024 14.7567C23.7661 14.5809 23.9639 13.8251 23.9639 13.8251C23.9705 13.5438 23.8518 13.5614 23.7727 13.6317L23.5684 13.8163C23.4365 13.8427 23.1926 13.9569 23.0674 13.702C22.9421 13.4032 22.9421 12.9725 22.8499 12.6649C22.8499 12.6473 22.6785 12.1815 22.8367 12.1552C22.9158 12.1727 23.0806 12.2343 23.1069 12.0497C23.186 11.8651 22.9355 11.3466 22.7576 11.0829C22.606 10.8632 22.395 10.8368 22.1907 11.0653C22.0457 11.2411 22.0654 11.4345 22.0391 11.619C22.0141 11.7513 22.013 11.8896 22.0359 12.0225C22.0588 12.1555 22.1051 12.2792 22.1709 12.3837C22.3159 12.7528 22.573 13.2362 22.4873 13.9218C22.4873 13.9218 22.3357 14.2382 22.072 14.1942C21.96 14.1679 21.782 14.1063 21.6897 13.1571C21.6172 12.454 21.7029 11.452 21.4788 10.9862C21.3931 10.6962 21.3337 10.4237 21.136 10.9071C21.0833 11.1005 20.8525 11.3905 21.0173 11.9794C21.1733 12.51 21.2188 13.087 21.1492 13.6493C21.0503 13.8427 21.0305 13.9042 20.9053 14.0888C20.7339 14.3524 20.5427 14.2821 20.3977 14.1854C20.2659 14.0712 20.1604 14.0096 20.0945 13.6141C20.1077 12.9989 20.134 11.9882 20.0483 11.7772C19.9231 11.4432 19.7187 11.5663 19.6331 11.6718C19.2409 12.2526 18.9784 12.968 18.875 13.7372C18.7563 14.247 18.6311 14.0975 18.5454 13.8954C18.3345 13.6317 18.3147 11.5487 18.0576 11.8915Z" fill="white"/>
<path fill-rule="evenodd" clip-rule="evenodd" d="M19.2961 15.3014C19.4873 15.1256 19.4016 15.0025 19.6784 15.3717C20.0358 16.2147 20.2432 17.1559 20.2849 18.1226C20.2717 18.3512 20.3903 18.4918 20.4497 18.4391C20.476 17.9117 21.445 17.1734 22.3349 17.068C22.4668 17.024 22.4008 16.6812 22.4206 16.5055C22.3679 15.8463 22.6975 15.2486 23.1589 15.2047C23.7917 15.3277 24.0026 15.776 24.0158 16.4527C23.9433 17.7711 22.915 17.9908 22.3415 18.0963C22.2558 18.1402 22.2163 18.193 22.3415 18.2545L24.7541 18.2721L24.8793 18.3599C24.8925 18.4478 24.8398 18.3775 24.7475 18.5885C24.6148 18.8993 24.5318 19.2435 24.5036 19.5992C23.7851 19.9156 23.0402 20.0387 22.2888 20.1705C22.0251 20.3463 21.8933 20.5836 21.946 20.8473C22.0383 21.1373 22.6184 21.4361 22.6184 21.4449C22.7304 21.5328 22.8557 21.7525 22.5854 22.2008C21.4121 22.1305 20.4958 21.4625 20.1794 20.5221C20.0871 20.4254 19.9816 20.5221 19.9157 20.6451C19.4543 21.4361 19.0061 22.1392 18.2216 22.526C17.7602 22.6842 17.279 22.4293 17.0549 22.025C16.9033 21.7877 16.9099 21.5328 16.8571 21.4801C16.6001 21.6295 14.4248 22.8599 14.7016 22.2799C15.229 21.5328 16.1518 20.9703 16.956 20.232C17.0153 19.9771 17.1208 19.1334 17.4372 18.8609C17.457 18.8609 17.3911 19.3531 17.3977 19.5641C17.3977 19.7398 17.3845 19.8014 17.4108 19.7574C17.4702 19.7135 18.4458 18.6851 18.5314 18.3687C18.6237 18.193 18.5512 17.7359 18.5512 17.7183C18.3667 17.0855 18.1096 17.0328 18.0173 16.7164C17.9316 16.3033 17.9711 15.8287 18.1491 15.6881C18.3073 15.5035 18.4919 15.5211 18.6699 15.732C18.8676 15.9693 19.039 16.4351 19.0918 16.7779C19.0588 16.9098 18.8281 16.69 18.7622 16.7516C18.889 16.946 18.9734 17.1831 19.0061 17.4371C19.1379 18.1578 19.0983 18.4391 18.9665 18.9049C18.5314 20.1266 17.9777 20.4869 17.4899 20.9439C17.4768 20.9439 17.4702 21.2516 17.6481 21.4185C17.7141 21.5064 17.9711 21.5504 18.2678 21.4185C18.9015 20.9493 19.4139 20.2354 19.7377 19.3707C19.7938 18.7127 19.7397 18.0463 19.5795 17.4195C19.3884 16.8307 19.1643 15.9957 19.1643 15.9781C19.1577 15.609 19.1774 15.4859 19.2961 15.3014ZM12.9812 11.9088C13.258 12.0846 13.7854 12.0055 13.759 11.4078L13.7458 11.1353C13.6931 10.9596 13.5349 11.0035 13.5019 11.1793C13.4887 11.2408 13.5217 11.3375 13.4821 11.3639C13.4558 11.399 13.3701 11.3814 13.3701 11.2144C13.3701 11.1617 13.3437 11.109 13.3239 11.0738C13.3107 11.0562 13.2976 11.0562 13.2646 11.0562C13.2251 11.0562 13.2251 11.065 13.2053 11.109C13.1987 11.1529 13.1855 11.1969 13.1855 11.2496C13.1855 11.3111 13.1591 11.3287 13.1328 11.3375C13.0932 11.3375 13.0998 11.3375 13.0668 11.3199C13.0537 11.2935 13.0339 11.2848 13.0339 11.232L13.0141 11.0914C13.0009 11.065 12.9746 11.0474 12.9482 11.0387C12.7966 11.0387 12.7834 11.276 12.7966 11.3639C12.7834 11.3814 12.7768 11.7945 12.9812 11.9088Z" fill="white"/>
<path fill-rule="evenodd" clip-rule="evenodd" d="M21.1212 16.497C21.398 16.6728 22.0638 16.5761 21.899 16.0048L21.8858 15.7236C21.8265 15.5478 21.6749 15.5917 21.6419 15.7763C21.6288 15.829 21.6617 15.9257 21.6156 15.9521C21.5958 15.9872 21.5035 15.9697 21.5101 15.8114C21.5101 15.7587 21.4837 15.6972 21.464 15.662C21.4442 15.6532 21.4376 15.6445 21.398 15.6445C21.3651 15.6445 21.3651 15.662 21.3453 15.706C21.3321 15.7499 21.3255 15.7939 21.3255 15.8466C21.3189 15.8993 21.2992 15.9169 21.2662 15.9345C21.2333 15.9345 21.2398 15.9345 21.2135 15.9081C21.1937 15.8818 21.1739 15.873 21.1739 15.829L21.1542 15.6884C21.141 15.662 21.1146 15.6445 21.0882 15.6357C20.9366 15.6357 20.9234 15.8642 20.93 15.9521C20.9234 15.9697 20.9168 16.3915 21.1278 16.497H21.1212ZM25.8673 14.5986C26.1441 14.7743 26.6649 14.6952 26.6451 14.1064L26.6319 13.8251C26.5726 13.6493 26.421 13.6933 26.388 13.8691C26.3749 13.9306 26.4078 14.0273 26.3617 14.0624C26.3419 14.0888 26.2496 14.0712 26.2562 13.9042C26.2562 13.8515 26.2298 13.7988 26.2101 13.7636C26.1903 13.746 26.1837 13.746 26.1441 13.746C26.1112 13.746 26.1112 13.7636 26.0914 13.8075L26.0716 13.9394C26.065 14.0009 26.0453 14.0273 26.0123 14.0273C25.9793 14.0273 25.9859 14.0273 25.9596 14.0097C25.9398 13.9833 25.92 13.9745 25.92 13.9306C25.92 13.8866 25.9134 13.8163 25.9002 13.7812C25.8871 13.7548 25.8607 13.746 25.8343 13.7372C25.6827 13.7372 25.6695 13.9657 25.6761 14.0536C25.6695 14.0712 25.6629 14.4843 25.8739 14.5986H25.8673ZM28.326 19.371C27.8448 20.1005 28.0558 21.3046 28.1678 21.5683C28.326 21.9902 28.4513 22.2626 28.7611 22.4736C29.0445 22.746 29.2687 22.579 29.3873 22.3857C29.6708 21.9902 29.6773 20.9794 29.8092 20.7861C29.9015 20.4169 30.1388 20.4784 30.2508 20.6454C30.3557 20.8439 30.4962 21.004 30.6595 21.1113C30.9232 21.4189 31.2396 21.4804 31.556 21.1991C31.7669 21.0322 31.9054 20.83 32.0306 20.4169C32.1625 19.9247 32.0965 17.6396 32.0636 16.2861L31.7867 14.3964C31.7867 14.3788 31.7538 13.4999 31.7208 13.2978C31.7208 13.2099 31.701 13.1835 31.7669 13.1923C31.8395 13.2802 31.846 13.2802 31.8988 13.3066C31.9647 13.3241 32.0306 13.1572 31.9845 13.0165L31.3253 11.3818C31.2726 11.3114 31.2001 11.2411 31.1144 11.3993C31.0638 11.4604 31.0236 11.535 30.9963 11.6184C30.969 11.7017 30.9553 11.7918 30.9562 11.8827C30.9759 12.2695 31.0221 12.665 31.0418 13.0517L31.3055 15.038C31.3912 16.4443 31.411 17.6044 31.4967 19.0195C31.4835 19.6171 31.3451 20.1357 31.2132 20.2148C31.2132 20.2148 31.0155 20.3642 30.8836 20.1972C30.7848 20.1445 30.3958 19.3271 30.3958 19.3271C30.1981 19.0898 30.0663 19.1513 29.9278 19.3271C29.5323 19.8368 29.3609 20.7685 29.0907 21.4189C29.0248 21.5683 28.827 21.6825 28.6161 21.4101C28.0755 20.4169 28.3919 19.0107 28.326 19.371ZM25.9925 11.1357C26.243 11.2675 26.4144 11.9443 26.3617 12.2782C26.3089 12.6738 26.1771 13.1132 26.0848 13.0605C25.9793 13.0077 26.1507 12.6562 26.0519 12.287C25.9991 12.0409 25.6563 11.6015 25.6959 11.4784C25.63 11.206 25.8409 11.0829 25.9925 11.1269V11.1357Z" fill="white"/>
<path fill-rule="evenodd" clip-rule="evenodd" d="M29.1323 19.7755C29.1784 18.9669 29.0927 18.4747 29.0795 18.0001C29.0664 17.5255 28.6774 13.9044 28.5983 13.5528C28.4995 12.8673 28.9741 13.4649 28.9213 13.0606C28.7565 12.5684 28.3544 11.839 28.2292 11.4083C28.1501 11.2325 28.1831 11.0567 28.0117 11.3643C27.8641 11.9037 27.8122 12.4813 27.8601 13.0518C28.2688 15.8907 28.684 18.2462 28.6181 20.9444C28.8159 20.9444 29.0334 20.3556 29.1323 19.7755ZM33.3774 12.2784C33.6081 12.4278 33.7399 13.2716 33.7136 13.5089C33.6674 13.9483 33.5488 14.4229 33.4631 14.3614C33.3642 14.3087 33.4829 13.711 33.4367 13.5265C33.384 13.2628 33.0742 12.7882 33.1071 12.6475C33.0412 12.3487 33.239 12.2257 33.3774 12.2784ZM16.5222 18.2462C16.7397 18.3604 16.8715 18.9757 16.8518 19.1515C16.799 19.4766 16.687 19.8282 16.6013 19.7755C16.5156 19.7403 16.6211 19.3009 16.5815 19.1602C16.5617 18.835 16.2585 18.6593 16.2651 18.5186C16.2124 18.255 16.3969 18.211 16.5288 18.2462H16.5222Z" fill="white"/>
<path fill-rule="evenodd" clip-rule="evenodd" d="M21.7688 19.1777C22.0457 19.1953 22.1841 19.4941 21.927 19.6172C21.6634 19.7314 21.4195 19.8281 21.4129 20.3203C21.5118 21.0234 21.281 20.7773 21.1492 20.6895C20.991 20.5312 20.5428 20.1621 20.4768 19.3711C20.4702 19.1865 20.5823 19.0195 20.7603 19.0195C21.024 19.1162 21.4195 19.125 21.7688 19.1777Z" fill="#1B9D00"/>
<path fill-rule="evenodd" clip-rule="evenodd" d="M10.7272 10.9332C11.0436 11.0562 11.0634 11.689 11.0436 11.8736C10.9975 12.2076 10.8854 12.5679 10.8063 12.524C10.714 12.48 10.8063 12.023 10.7602 11.8824C10.714 11.689 10.4438 11.3199 10.4701 11.2144C10.4108 10.9947 10.602 10.8892 10.7272 10.9332ZM17.0487 13.8863C16.7982 14.0621 16.706 14.5894 16.8576 14.9058C17.0026 15.1695 17.2267 15.0728 17.2531 15.0728C17.497 15.108 17.642 14.4664 17.642 14.4664C17.642 14.4664 17.6486 14.2906 17.3651 14.6334C17.2399 14.6597 17.2333 14.5982 17.2003 14.5103C17.1702 14.343 17.1817 14.1671 17.2333 14.0093C17.2794 13.8511 17.1872 13.7808 17.0487 13.8863ZM18.8944 10.6871C18.7626 10.8013 18.5187 11.1441 18.5121 11.5308C18.5055 11.7506 18.4726 11.7506 18.578 11.8824C18.6637 12.0406 18.7362 12.0318 18.8944 11.9175C18.9339 11.8845 18.9677 11.8408 18.9938 11.7894C19.0199 11.7379 19.0377 11.6798 19.046 11.6187C19.0856 11.3726 18.8483 11.7418 18.8219 11.4605C18.7692 11.1968 18.9208 11.0914 19.0658 10.8453C19.0658 10.6695 19.0658 10.5552 18.8878 10.6871H18.8944ZM20.371 11.0386C20.3129 11.3587 20.2776 11.6853 20.2655 12.0142C20.226 12.2603 20.4633 12.3658 20.5622 12.0494C20.7204 11.4781 20.7204 11.232 20.7335 10.9947C20.6874 10.6168 20.4962 10.6256 20.371 11.0386ZM29.7313 17.3931C29.7577 17.3492 31.0497 16.1275 31.0497 16.1275C31.1815 16.066 31.1486 16.7603 31.0893 16.7515C30.6886 17.2664 30.2277 17.6909 29.7248 18.0084C29.6588 18.0699 29.5995 17.5425 29.7248 17.3931H29.7313ZM30.8981 17.3756C31.1288 17.525 31.2211 18.4127 31.1947 18.65C31.1947 19.1246 30.9772 19.4937 30.8849 19.441C30.7926 19.3795 30.8981 18.8521 30.852 18.6675C30.7992 18.4039 30.6081 17.9205 30.641 17.7798C30.5751 17.481 30.7597 17.3228 30.9047 17.3756H30.8981ZM23.2516 21.19C23.3585 21.0236 23.4829 20.8786 23.6208 20.7593C23.7526 20.6715 23.8712 20.8297 23.8646 20.8209C23.8844 20.9966 23.7855 21.1461 23.8185 21.3746C23.8449 21.4625 23.8646 21.5679 23.9899 21.5328C24.1942 21.3131 24.3854 21.2955 24.5832 21.2867C24.748 21.2955 24.7545 21.6558 24.6491 21.6558C24.2733 21.7613 24.1085 21.9019 23.8383 22.0338C23.7064 22.1392 23.601 22.0074 23.601 21.9986C23.601 21.9898 23.5285 21.9019 23.5746 21.6734C23.5878 21.4976 23.5351 21.3922 23.4164 21.4097C23.3373 21.48 23.2582 21.5152 23.2187 21.3834C23.1989 21.2955 23.1923 21.2427 23.2516 21.19ZM32.256 21.6646C32.3087 21.7525 32.3483 21.8404 32.2494 21.9986L32.0055 22.2799C31.966 22.3677 31.9396 22.5259 32.0714 22.5699C32.3087 22.6578 32.8624 22.1744 32.8624 22.1656C32.9547 22.0777 32.9284 21.9019 32.9152 21.9019C32.8624 21.8228 32.7438 21.8756 32.6647 21.858C32.6251 21.858 32.4999 21.8404 32.5592 21.6822C32.6035 21.6045 32.639 21.5187 32.6647 21.4273C32.6977 21.3218 32.6647 21.2515 32.5329 21.19C32.3944 21.1549 32.3351 21.1724 32.1835 21.19C32.1044 21.2076 32.078 21.2603 32.0583 21.3922C32.0648 21.5943 32.1571 21.5855 32.256 21.6558V21.6646Z" fill="white"/>
<path fill-rule="evenodd" clip-rule="evenodd" d="M23.2976 16.6727C23.2647 16.7606 23.146 16.7606 23.034 16.6727C22.9219 16.5848 22.856 16.4442 22.8955 16.3651C22.9351 16.286 23.0471 16.286 23.1592 16.3651C23.2713 16.4442 23.3306 16.5936 23.2976 16.6727ZM17.4309 11.9617C17.365 11.9881 17.2727 11.909 17.2332 11.786C17.1936 11.6629 17.2134 11.5574 17.2793 11.5311C17.3452 11.5047 17.4309 11.5926 17.4771 11.7069C17.5232 11.8211 17.4969 11.9442 17.4243 11.9705L17.4309 11.9617Z" fill="#259F00"/>
<path fill-rule="evenodd" clip-rule="evenodd" d="M29.0392 32.959C29.6589 32.9941 30.239 32.959 30.852 33.0029C30.9641 33.1348 30.8849 33.4424 30.8124 33.4248L30.2983 33.3984C30.2917 33.1348 29.7907 33.1787 29.8039 33.4072C29.5336 33.4512 29.2897 33.3984 29.0129 33.3809C28.9338 33.249 28.947 33.0117 29.0392 32.959Z" fill="#209000"/>
</g>
<defs>
<clipPath id="clip0_45_19836">
<rect width="45" height="45" fill="white"/>
</clipPath>
</defs>
</svg>
