<svg width="45" height="45" viewBox="0 0 45 45" fill="none" xmlns="http://www.w3.org/2000/svg">
<g clip-path="url(#clip0_45_19991)">
<path d="M0 0H45V45H0V0Z" fill="#EE1C25"/>
<path d="M0 0H45V30H0V0Z" fill="#0B4EA2"/>
<path d="M0 0H45V15H0V0Z" fill="white"/>
<path d="M16.382 34.7623C13.3586 32.8217 9.02734 28.9592 9.02734 21.3373C9.02734 13.7061 9.30859 10.2373 9.30859 10.2373H23.4625C23.4625 10.2373 23.7367 13.7061 23.7367 21.3373C23.7367 28.9686 19.4055 32.8123 16.382 34.7623Z" fill="white"/>
<path d="M16.3828 33.75C13.6055 31.9688 9.63281 28.425 9.63281 21.4313C9.63281 14.4375 9.88594 11.25 9.88594 11.25H22.8797C22.8797 11.25 23.1258 14.4375 23.1258 21.4313C23.1328 28.4344 19.1602 31.9688 16.3828 33.75Z" fill="#EE1C25"/>
<path d="M16.9734 19.5936C17.7258 19.6123 19.1953 19.6498 20.4961 19.0686C20.4961 19.0686 20.468 19.6967 20.468 20.4186C20.468 21.1404 20.5031 21.7686 20.5031 21.7686C19.3078 21.2342 17.8242 21.2248 16.9734 21.2342V25.0967H15.7922V21.2342C14.9484 21.2248 13.4648 21.2342 12.2695 21.7686C12.2695 21.7686 12.3047 21.1404 12.3047 20.4186C12.3047 19.6873 12.2695 19.0686 12.2695 19.0686C13.5703 19.6498 15.0398 19.6123 15.7852 19.5936V17.1654C15.1031 17.1654 14.1187 17.2029 13.0008 17.6998C13.0008 17.6998 13.0359 17.0811 13.0359 16.3498C13.0359 15.6279 13.0008 14.9998 13.0008 14.9998C14.1187 15.4967 15.1031 15.5436 15.7852 15.5342C15.75 13.9967 15.4125 12.0654 15.4125 12.0654C15.4125 12.0654 16.1086 12.1311 16.3828 12.1311C16.6641 12.1311 17.3531 12.0654 17.3531 12.0654C17.3531 12.0654 17.0156 13.9967 16.9805 15.5342C17.6625 15.5436 18.6469 15.4967 19.7648 14.9998C19.7648 14.9998 19.7297 15.6279 19.7297 16.3498C19.7297 17.0811 19.7648 17.6998 19.7648 17.6998C18.8638 17.3124 17.9199 17.1317 16.9734 17.1654V19.6029V19.5936Z" fill="white"/>
<path d="M16.3836 24.6846C14.9844 24.6846 14.2391 27.2627 14.2391 27.2627C14.2391 27.2627 13.8172 26.0439 12.6781 26.0439C11.9047 26.0439 11.3422 26.9533 10.9766 27.8064C12.3828 30.7783 14.6258 32.6158 16.3836 33.7502C18.1414 32.6252 20.3914 30.7783 21.7906 27.8064C21.425 26.9627 20.8625 26.0439 20.0891 26.0439C18.95 26.0439 18.5281 27.2627 18.5281 27.2627C18.5281 27.2627 17.7898 24.6846 16.3836 24.6846Z" fill="#0B4EA2"/>
</g>
<defs>
<clipPath id="clip0_45_19991">
<rect width="45" height="45" fill="white"/>
</clipPath>
</defs>
</svg>
