<svg width="45" height="45" viewBox="0 0 45 45" fill="none" xmlns="http://www.w3.org/2000/svg">
<g clip-path="url(#clip0_45_20762)">
<path fill-rule="evenodd" clip-rule="evenodd" d="M0 0H50.625V22.5H22.4978L0 0Z" fill="#ED2939"/>
<path fill-rule="evenodd" clip-rule="evenodd" d="M0 45H50.625V22.5H22.4978L0 45Z" fill="#002395"/>
<path fill-rule="evenodd" clip-rule="evenodd" d="M0 0L22.4978 22.5L0 45V0Z" fill="white"/>
<path d="M11.3577 16.9805L11.3643 16.6289C11.3643 16.6289 11.2258 16.3301 11.3906 16.0137C11.3906 16.0137 11.0413 15.7676 11.127 15.3809C11.127 15.3809 10.8105 15.2754 10.8303 14.8184C10.8303 14.8184 10.5007 14.792 10.4612 14.4053C10.4612 14.4053 10.125 14.4756 9.97339 14.1064C9.97339 14.1064 9.6438 14.1943 9.55151 13.8867C9.55151 13.8867 9.22852 14.0273 9.04395 13.667C9.04395 13.667 8.70117 13.8516 8.56274 13.5088C8.42432 13.8516 8.08154 13.667 8.08154 13.667C7.89697 14.0273 7.57397 13.8779 7.57397 13.8779C7.48169 14.1855 7.15869 14.0977 7.15869 14.0977C7.00708 14.4756 6.6709 14.3965 6.6709 14.3965C6.63794 14.7832 6.30176 14.8184 6.30176 14.8184C6.31127 14.9427 6.28733 15.0676 6.23421 15.1706C6.18108 15.2737 6.10223 15.3482 6.01172 15.3809C6.09741 15.7588 5.74805 16.0049 5.74805 16.0049C5.91943 16.3301 5.78101 16.6201 5.78101 16.6201L5.77441 16.9453L11.3577 16.9805Z" fill="#FFFF00"/>
<path fill-rule="evenodd" clip-rule="evenodd" d="M8.56951 13.4814L8.57926 13.506C8.64449 13.6702 8.75836 13.7094 8.85808 13.707C8.90795 13.7057 8.9538 13.694 8.98725 13.6826C9.00395 13.6769 9.01749 13.6712 9.02684 13.667C9.0315 13.6649 9.03512 13.6632 9.03754 13.662C9.03875 13.6614 9.03967 13.6609 9.04027 13.6606L9.04094 13.6603L9.04109 13.6602L9.04949 13.6557L9.05463 13.6656C9.14658 13.8421 9.27133 13.8935 9.37371 13.9009C9.425 13.9046 9.47058 13.8972 9.50334 13.8889C9.51971 13.8847 9.53284 13.8803 9.54183 13.877C9.54632 13.8753 9.54978 13.8739 9.55209 13.873C9.55268 13.8727 9.5532 13.8725 9.55364 13.8723C9.55406 13.8721 9.5544 13.872 9.55468 13.8718L9.5553 13.8716L9.55544 13.8715M8.08984 13.6602L8.09 13.6603L8.09066 13.6606C8.09126 13.6609 8.09218 13.6614 8.09339 13.662C8.09582 13.6632 8.09943 13.6649 8.10411 13.667C8.11346 13.6712 8.12704 13.6768 8.1438 13.6826C8.17736 13.694 8.22344 13.7057 8.27379 13.707C8.37447 13.7094 8.49038 13.6702 8.55935 13.5057L8.56951 13.4814" fill="black"/>
<path d="M11.2249 16.541C10.3481 16.4268 9.3396 16.1455 8.56177 16.7344C8.03442 16.3213 7.30933 16.3477 6.6897 16.4268C6.35352 16.5146 5.95801 16.5146 5.60205 16.585L5.54932 16.5938C4.90991 16.6553 4.32983 16.4004 3.76953 16.0664C3.9541 17.4023 4.14526 18.7646 4.24414 20.1621C4.45508 22.2363 3.51245 23.9678 3.88818 26.0156C4.1189 27 4.92969 27.5713 5.66797 27.6855C6.38197 27.7457 7.09152 27.8779 7.79053 28.0811C7.91493 28.1219 8.03628 28.1778 8.15308 28.248C8.318 28.3441 8.46615 28.4847 8.58814 28.6611C8.98364 28.1074 9.5769 27.9492 10.1504 27.8701C11.1919 27.7031 12.4773 27.791 13.1167 26.5342V26.4639C13.4661 25.7607 13.4199 24.7061 13.2683 23.915C13.2551 23.6426 13.2024 23.3965 13.1694 23.1328C12.5366 20.8916 13.0837 18.3691 13.354 16.1016C13.0127 16.3303 12.6487 16.4931 12.2729 16.585C11.9763 16.6377 11.6467 16.6201 11.3501 16.5938L11.2183 16.5498" fill="#FF0000"/>
<path d="M12.5381 22.9834C12.5381 23.124 12.5974 23.2471 12.6172 23.3789C12.7424 24.3633 12.8545 25.6641 12.103 26.2705C11.2593 26.9736 10.165 26.6748 9.19604 27.0527C8.99829 27.123 8.73462 27.3604 8.60278 27.5273C8.5105 27.4482 8.4248 27.334 8.31274 27.2637C7.51514 26.7012 6.47363 26.8857 5.57715 26.5781C5.12231 26.3936 4.6543 25.9189 4.53564 25.3037C4.24561 23.6865 4.94434 22.3066 4.86523 20.6982C4.8125 19.4678 4.6543 18.2988 4.44336 17.1475C5.14868 17.5869 5.95947 17.6572 6.75049 17.4463C7.36061 17.297 7.98975 17.3729 8.56982 17.666C8.87305 17.4902 9.229 17.4111 9.55859 17.3672C10.1716 17.4551 10.8374 17.5957 11.4768 17.5957C11.9053 17.5605 12.2942 17.4023 12.6633 17.1826C12.4458 19.0811 12.0173 21.0674 12.5381 22.9834Z" fill="#80CFE1"/>
<path d="M11.272 23.3613V21.5684H11.4302L9.38672 19.8105L9.38013 18.8877H9.57788L8.54956 17.9209L7.53442 18.8877H7.73218V19.8105L5.69531 21.5684H5.86011V23.3525H11.272" fill="white"/>
<path fill-rule="evenodd" clip-rule="evenodd" d="M8.55477 17.8408L9.72296 18.9629H9.43183L9.43861 19.7759L11.5872 21.6323H11.3205V23.3649H11.2752V23.4152H5.81917V21.6323H5.54492L7.69299 19.7764L7.6862 18.9528H7.39374L8.55477 17.8408ZM11.2299 23.2943V21.5114H11.2806L9.34848 19.8421L9.34015 18.842H9.44198L8.5547 17.9897L7.67538 18.8319H7.77588L7.78421 19.8417L5.85159 21.5114H5.90984V23.2943H11.2299Z" fill="black"/>
<path d="M11.9031 25.708V26.2617H5.30469V25.6992H11.8965" fill="white"/>
<path fill-rule="evenodd" clip-rule="evenodd" d="M5.25977 25.6416H11.9551V26.3266H5.25977V25.6416ZM5.35044 25.7625V26.2057H11.8644V25.7625H5.35044Z" fill="black"/>
<path d="M5.73975 25.6729V23.7832H6.00342L5.99023 25.6904L6.00342 23.792L5.62109 23.7832V23.3701L11.5142 23.3877V23.7832H11.1582V25.6992L11.1516 23.7832H11.4153L11.4285 25.6816" fill="white"/>
<path fill-rule="evenodd" clip-rule="evenodd" d="M5.58594 23.3145L11.5709 23.3247V23.8484H11.4729L11.4803 25.6814L11.3896 25.6821L11.3823 23.8484H11.2085L11.2158 25.7012L11.2158 25.7016L11.1251 25.7025L11.1251 25.7022L11.1095 23.7275H11.4803V23.4454L5.67661 23.4355V23.7198L5.69929 23.721V23.7175H6.05493L6.05475 23.74L6.05492 23.74L6.03933 25.6924L5.94867 25.6912L5.96316 23.8561L5.78996 23.8469V25.6717H5.69929V23.842L5.58594 23.836V23.3145Z" fill="black"/>
<path fill-rule="evenodd" clip-rule="evenodd" d="M6.16797 23.8281H7.05966V25.2082H7.00677L7.00634 25.2686L6.16797 25.258V23.8281ZM6.96899 25.1472V23.949H6.25864V25.1382L6.96899 25.1472Z" fill="black"/>
<path fill-rule="evenodd" clip-rule="evenodd" d="M10.052 23.8379H10.9283L10.9365 25.2683H10.052V23.8379ZM10.1427 23.9588V25.1474H10.8452L10.8383 23.9588H10.1427ZM6.43231 24.0998H6.84793V24.9862H6.39453V24.1602H6.43231V24.0998ZM6.4852 24.2207V24.8654H6.75726V24.2207H6.4852Z" fill="black"/>
<path fill-rule="evenodd" clip-rule="evenodd" d="M10.043 21.6924H10.9271V23.1228H10.043V21.6924ZM10.1336 21.8133V23.0019H10.8364V21.8133H10.1336ZM10.2621 24.1099H10.7155V24.9964H10.2621V24.1099ZM10.3528 24.2308V24.8755H10.6248V24.2308H10.3528Z" fill="black"/>
<path fill-rule="evenodd" clip-rule="evenodd" d="M6.16797 21.6826H7.05211V23.0626H7.00677V23.113H6.16797V21.6826ZM6.96144 22.9921V21.8035H6.25864V22.9921H6.96144ZM10.2562 21.9647H10.7096V22.8511H10.2562V21.9647ZM10.3469 22.0856V22.7302H10.6189V22.0856H10.3469Z" fill="black"/>
<path fill-rule="evenodd" clip-rule="evenodd" d="M7.60142 21.6826H8.48555V23.0626H8.44022V23.113H7.60142V21.6826ZM8.39488 22.9921V21.8035H7.69209V22.9921H8.39488ZM6.38477 21.9546H6.83817V22.841H6.38477V21.9546ZM6.47544 22.0755V22.7201H6.7475V22.0755H6.47544Z" fill="black"/>
<path fill-rule="evenodd" clip-rule="evenodd" d="M8.70421 21.6816L9.58835 21.6929V23.1233L8.70421 23.112V21.6816ZM8.79488 21.8037V22.9923L9.49768 23.0012V21.8126L8.79488 21.8037ZM7.8125 21.9542H8.2659V22.8406H7.8125V21.9542ZM7.90317 22.0751V22.7198H8.17523V22.0751H7.90317Z" fill="black"/>
<path fill-rule="evenodd" clip-rule="evenodd" d="M8.91797 21.9541H9.37892V22.8406H8.91797V21.9541ZM9.00864 22.075V22.7197H9.28825V22.075H9.00864Z" fill="black"/>
<path d="M9.73535 22.6582L9.74853 25.6992H7.448L7.44141 22.6582H9.72876" fill="white"/>
<path fill-rule="evenodd" clip-rule="evenodd" d="M7.90585 19.0029H9.22073V19.8894H7.90585V19.0029ZM7.99653 19.1238V19.7685H9.13006V19.1238H7.99653ZM7.82306 20.0505H9.31108L10.7201 21.4205H6.41406L7.82306 20.0505ZM7.85261 20.1714L6.69229 21.2996H10.4419L9.28153 20.1714H7.85261ZM7.40695 22.599H9.78735L9.7952 25.762H7.41481L7.40695 22.599ZM7.49792 22.7199L7.49978 23.4653H9.69883L9.69698 22.7199H7.49792ZM9.69913 23.5862H9.51545V25.6411H9.70423L9.69913 23.5862ZM9.42478 25.6411V23.5862H7.76982V25.6411H9.42478ZM7.67915 25.6411V23.5862H7.50008L7.50518 25.6411H7.67915Z" fill="black"/>
<path fill-rule="evenodd" clip-rule="evenodd" d="M8.02426 18.7614H9.09291L8.55858 18.2549L8.02426 18.7614ZM8.55858 18.1701L8.53609 18.1279L7.74023 18.8823H9.37693L8.58107 18.1279L8.55858 18.1701ZM8.23742 19.1946H8.8873V19.6982H8.23742V19.1946ZM8.32809 19.3155V19.5774H8.79663V19.3155H8.32809Z" fill="black"/>
<path d="M11.2979 17.7539C11.489 17.7539 11.5352 18.8086 11.5352 19.3359C11.7065 19.4062 12.0691 19.7139 12.2339 19.9863H10.375C10.5332 19.7139 10.8958 19.4063 11.0605 19.3447C11.0605 18.8174 11.1001 17.7451 11.2979 17.7627" fill="white"/>
<path fill-rule="evenodd" clip-rule="evenodd" d="M11.1542 18.3578C11.1197 18.6851 11.1084 19.0799 11.1084 19.3454V19.391L11.0755 19.4035C11.0032 19.431 10.8758 19.5197 10.7446 19.6384C10.6464 19.7273 10.5497 19.8296 10.4759 19.9296H12.1337C12.0599 19.8296 11.9631 19.7273 11.8642 19.6385C11.7322 19.5199 11.603 19.4312 11.5272 19.4037L11.4938 19.3915V19.3454C11.4938 19.0799 11.4825 18.6852 11.447 18.358C11.4292 18.1939 11.4057 18.0505 11.3758 17.9496C11.3608 17.899 11.3453 17.863 11.3302 17.8405C11.3156 17.8187 11.3048 17.8143 11.2973 17.8143C11.2914 17.8143 11.2815 17.8177 11.2673 17.8397C11.2529 17.8621 11.2379 17.8982 11.2233 17.949C11.1943 18.0501 11.1715 18.1936 11.1542 18.3578ZM11.1986 17.7609C11.2231 17.7229 11.2559 17.6934 11.2973 17.6934C11.3389 17.6934 11.3724 17.722 11.3979 17.7601C11.423 17.7975 11.4432 17.8483 11.4601 17.9052C11.494 18.0193 11.5186 18.1737 11.5367 18.3407C11.5711 18.6579 11.5831 19.0341 11.5843 19.301C11.6736 19.3429 11.7961 19.4316 11.9149 19.5382C12.0497 19.6594 12.1865 19.8096 12.2701 19.9529L12.327 20.0505H10.2826L10.3396 19.9529C10.4232 19.8097 10.5599 19.6594 10.6937 19.5384C10.8112 19.4321 10.9317 19.3436 11.0178 19.3016C11.019 19.0346 11.0309 18.6582 11.0644 18.341C11.082 18.174 11.106 18.0198 11.1386 17.9058C11.1549 17.8491 11.1744 17.7984 11.1986 17.7609ZM11.6676 17.6934H11.9551L11.879 17.8817C11.8866 17.8998 11.8953 17.9247 11.9013 17.9551C11.913 18.0147 11.9136 18.093 11.8793 18.1772L11.9517 18.3381H11.6328L11.7069 18.1735C11.7065 18.1723 11.7062 18.1711 11.7058 18.1699C11.6991 18.1486 11.691 18.1184 11.6855 18.0834C11.6764 18.0249 11.6735 17.9441 11.7051 17.871L11.6676 17.7793V17.6934ZM11.793 18.1343C11.822 18.0736 11.8207 18.0222 11.8136 17.9857C11.8097 17.9657 11.8037 17.9495 11.7988 17.9383C11.7964 17.9327 11.7943 17.9286 11.7929 17.9261C11.7922 17.9248 11.7918 17.924 11.7915 17.9236C11.7915 17.9236 11.7915 17.9235 11.7914 17.9235C11.7914 17.9234 11.7914 17.9234 11.7914 17.9234C11.7914 17.9234 11.7914 17.9234 11.7914 17.9234L11.7892 17.92C11.768 17.9589 11.7665 18.0089 11.7743 18.0588C11.7783 18.0843 11.7843 18.107 11.7895 18.1234C11.7907 18.1275 11.792 18.1312 11.793 18.1343ZM11.7943 17.8365L11.8032 17.8143H11.7852L11.7943 17.8365ZM12.1554 17.8143L12.1645 17.8365L12.1735 17.8143H12.1554ZM12.1595 17.92C12.1383 17.9589 12.1368 18.0089 12.1446 18.0588C12.1486 18.0843 12.1546 18.107 12.1597 18.1234C12.161 18.1275 12.1622 18.1312 12.1633 18.1343C12.1923 18.0736 12.191 18.0222 12.1839 17.9857C12.1799 17.9657 12.174 17.9495 12.1691 17.9383C12.1667 17.9327 12.1646 17.9286 12.1632 17.9261C12.1625 17.9248 12.162 17.924 12.1618 17.9236L12.1617 17.9235L12.1617 17.9234L12.1595 17.92ZM12.0781 18.1763C12.0774 18.1742 12.0767 18.1721 12.0761 18.1699C12.0694 18.1486 12.0613 18.1184 12.0558 18.0834C12.0467 18.0249 12.0438 17.9441 12.0754 17.871L12.0434 17.7928L12.0832 17.7639V17.6934H12.3253L12.2493 17.8817C12.2569 17.8998 12.2656 17.9247 12.2716 17.9551C12.2833 18.0147 12.2839 18.093 12.2496 18.1772L12.322 18.3381H12.0174L12.0781 18.1763ZM12.3771 17.7034H12.6987L12.6201 17.883C12.6276 17.901 12.636 17.9254 12.6419 17.9551C12.6536 18.0147 12.6542 18.093 12.6198 18.1772L12.6923 18.3381H12.3877L12.4484 18.1763C12.4477 18.1742 12.447 18.1721 12.4463 18.1699C12.4397 18.1486 12.4316 18.1184 12.4261 18.0834C12.4169 18.0249 12.4141 17.9441 12.4457 17.871L12.3771 17.7034ZM12.5336 18.1343C12.5625 18.0736 12.5613 18.0222 12.5541 17.9857C12.5502 17.9657 12.5443 17.9495 12.5394 17.9383C12.537 17.9327 12.5348 17.9286 12.5335 17.9261C12.5328 17.9248 12.5323 17.924 12.5321 17.9236C12.532 17.9235 12.5321 17.9235 12.532 17.9235C12.532 17.9234 12.5319 17.9234 12.5319 17.9234L12.5298 17.92C12.5086 17.9589 12.5071 18.0089 12.5149 18.0588C12.5188 18.0843 12.5249 18.107 12.53 18.1234C12.5313 18.1275 12.5325 18.1312 12.5336 18.1343ZM12.5351 17.8372L12.5408 17.8243H12.5299L12.5351 17.8372ZM7.48328 22.6796H7.79626L7.72895 22.859C7.73606 22.8781 7.74447 22.9051 7.7501 22.9381C7.76032 22.9981 7.76126 23.0774 7.72991 23.1619L7.80298 23.3243H7.47656L7.55064 23.1597C7.55027 23.1585 7.54989 23.1573 7.54951 23.1561C7.54284 23.1348 7.53473 23.1046 7.52927 23.0696C7.52005 23.0107 7.51719 22.9293 7.54941 22.8559L7.48328 22.6796ZM7.63977 23.1966L7.63673 23.2034H7.64281L7.63977 23.1966ZM7.63991 23.1293C7.66933 23.0655 7.66897 23.0077 7.66168 22.9649C7.65793 22.9429 7.65228 22.9249 7.64763 22.9125C7.64533 22.9063 7.64332 22.9017 7.64201 22.8989C7.64136 22.8974 7.64088 22.8965 7.64064 22.896C7.64058 22.8959 7.64054 22.8958 7.64051 22.8957C7.64048 22.8957 7.64046 22.8956 7.64046 22.8956L7.63991 22.8946L7.63681 22.8996C7.61196 22.9393 7.60979 22.9923 7.61803 23.045C7.62201 23.0705 7.62807 23.0932 7.6332 23.1096C7.63575 23.1177 7.638 23.1241 7.63956 23.1283C7.63968 23.1287 7.6398 23.129 7.63991 23.1293ZM7.63977 22.8265L7.64953 22.8005H7.63001L7.63977 22.8265ZM7.82334 22.6796H8.13632L8.06901 22.859C8.07612 22.8781 8.08452 22.9051 8.09016 22.9381C8.10037 22.9981 8.10131 23.0774 8.06997 23.1619L8.14303 23.3243H7.81662L7.8907 23.1597C7.89033 23.1585 7.88995 23.1573 7.88957 23.1561C7.8829 23.1348 7.87478 23.1046 7.86932 23.0696C7.86011 23.0107 7.85724 22.9293 7.88946 22.8559L7.82334 22.6796ZM7.97983 23.1966L7.97678 23.2034H7.98287L7.97983 23.1966ZM7.97997 23.1293C8.00938 23.0655 8.00902 23.0077 8.00174 22.9649C7.99799 22.9429 7.99234 22.9249 7.98769 22.9125C7.98538 22.9063 7.98338 22.9017 7.98207 22.8989C7.98141 22.8974 7.98094 22.8965 7.9807 22.896C7.98064 22.8959 7.9806 22.8958 7.98057 22.8957L7.98052 22.8956L7.97997 22.8946L7.97687 22.8996C7.95201 22.9393 7.94984 22.9923 7.95809 23.045C7.96207 23.0705 7.96813 23.0932 7.97326 23.1096C7.97581 23.1177 7.97806 23.1241 7.97961 23.1283C7.97974 23.1287 7.97986 23.129 7.97997 23.1293ZM7.97983 22.8265L7.98959 22.8005H7.97006L7.97983 22.8265ZM8.19363 22.6796H8.5066L8.43929 22.859C8.44641 22.8781 8.45481 22.9051 8.46044 22.9381C8.47066 22.9981 8.4716 23.0774 8.44025 23.1619L8.51332 23.3243H8.20118L8.26187 23.1625C8.26122 23.1604 8.26054 23.1583 8.25985 23.1561C8.25318 23.1348 8.24507 23.1046 8.23961 23.0696C8.2304 23.0107 8.22753 22.9293 8.25975 22.8559L8.19363 22.6796ZM8.35029 23.197L8.34791 23.2034H8.35316L8.35029 23.197ZM8.35026 23.1293C8.37967 23.0655 8.37931 23.0077 8.37203 22.9649C8.36827 22.9429 8.36262 22.9249 8.35798 22.9125C8.35567 22.9063 8.35366 22.9017 8.35235 22.8989C8.3517 22.8974 8.35122 22.8965 8.35098 22.896C8.35093 22.8959 8.35088 22.8958 8.35085 22.8957C8.35082 22.8957 8.35081 22.8956 8.3508 22.8956C8.3508 22.8956 8.3508 22.8956 8.3508 22.8956L8.35026 22.8946L8.34715 22.8996C8.3223 22.9393 8.32013 22.9923 8.32837 23.045C8.33236 23.0705 8.33841 23.0932 8.34355 23.1096C8.34609 23.1177 8.34834 23.1241 8.3499 23.1283C8.35002 23.1287 8.35014 23.129 8.35026 23.1293ZM8.35011 22.8265L8.35988 22.8005H8.34035L8.35011 22.8265Z" fill="black"/>
<path d="M8.60229 29.6016C9.45923 29.6016 10.5139 29.3643 11.0083 29.0303L12.0959 28.8984L12.1223 30.665C11.1995 31.3418 9.0769 31.4912 8.60889 31.4824C8.14087 31.4824 5.99194 31.3418 5.0625 30.665L5.07568 28.8896L6.16333 29.0215C6.94064 29.4228 7.76885 29.6198 8.60229 29.6016Z" fill="#FFFF00"/>
<path fill-rule="evenodd" clip-rule="evenodd" d="M5.06807 28.8789L6.17067 29.0116L6.17263 29.0129C6.42044 29.1831 6.81579 29.3263 7.2566 29.427C7.69715 29.5276 8.18203 29.5854 8.6083 29.5854C9.03835 29.5854 9.51567 29.5276 9.94769 29.427C10.3799 29.3264 10.7659 29.1831 11.0137 29.0129L11.0157 29.0116L12.1107 28.8891L12.1337 30.6771L12.1277 30.6815C11.6684 31.0205 10.9051 31.2272 10.2005 31.3481C9.49545 31.469 8.84698 31.5044 8.61577 31.4993C8.38095 31.4993 7.72499 31.464 7.01144 31.3431C6.29828 31.2222 5.5255 31.0155 5.05866 30.6715L5.05273 30.6671L5.06807 28.8789ZM5.09045 28.9119L5.07556 30.6493C5.53883 30.9877 6.30413 31.1927 7.01429 31.3131C7.727 31.4339 8.38208 31.4691 8.61586 31.4691L8.61604 31.4691C8.84588 31.4741 9.49333 31.4389 10.1976 31.3181C10.8992 31.1978 11.655 30.9928 12.1108 30.6595L12.0884 28.9219L11.0221 29.0412C10.7712 29.2129 10.3834 29.3562 9.95159 29.4568C9.51836 29.5577 9.03974 29.6157 8.6083 29.6157C8.18065 29.6157 7.69448 29.5577 7.25277 29.4568C6.81247 29.3562 6.41529 29.2129 6.16423 29.0412L5.09045 28.9119Z" fill="black"/>
<path d="M2.2664 22.0605L3.22221 22.4648L2.93217 24.5303L2.0291 24.7236C2.0291 24.7236 1.87749 23.6338 2.2664 22.0605Z" fill="#FFFF00"/>
<path fill-rule="evenodd" clip-rule="evenodd" d="M2.26864 22.0469L3.24099 22.4583L2.95055 24.547L2.02491 24.7423L2.0229 24.7278L2.03404 24.7251C2.0229 24.7278 2.0229 24.7279 2.0229 24.7278L2.02287 24.7276L2.02278 24.727L2.02246 24.7245C2.02217 24.7223 2.02177 24.7191 2.02125 24.7149C2.02023 24.7064 2.01878 24.6939 2.01709 24.6773C2.0137 24.6443 2.00931 24.5954 2.00528 24.5318C1.99721 24.4048 1.99058 24.2191 1.99627 23.9842C2.00763 23.5146 2.06824 22.8483 2.26511 22.061L2.26864 22.0469ZM2.04336 24.7078L2.93118 24.5204L3.21506 22.4791L2.28309 22.0847C2.0898 22.8627 2.03016 23.5209 2.01892 23.9852C2.01327 24.2188 2.01987 24.4033 2.02786 24.5293C2.03186 24.5923 2.03621 24.6407 2.03955 24.6732C2.04107 24.6881 2.04239 24.6997 2.04336 24.7078Z" fill="black"/>
<path d="M2.93433 24.5127L2.03125 24.7236L2.60474 23.6338L2.93433 24.5127Z" fill="#7E7E7E"/>
<path fill-rule="evenodd" clip-rule="evenodd" d="M2.6088 23.6074L2.95674 24.5245L2.00781 24.7353L2.6088 23.6074ZM2.05787 24.6935L2.92259 24.5014L2.60552 23.6657L2.05787 24.6935Z" fill="black"/>
<path d="M1.69361 23.5547L2.61646 23.6426C2.63623 24.6797 2.73511 28.6523 6.29468 28.8721L6.18262 30.3223C1.85181 30.375 1.52222 25.4443 1.7002 23.5547" fill="#FFFF00"/>
<path fill-rule="evenodd" clip-rule="evenodd" d="M1.71055 23.5721C1.6255 24.5199 1.66593 26.2141 2.26312 27.6662C2.56311 28.3957 3.00354 29.064 3.63921 29.5462C4.25752 30.0153 5.06113 30.3089 6.10096 30.3107L6.17185 30.2903L6.17508 30.3103C6.17643 30.3103 6.17778 30.3103 6.17913 30.3103L6.29019 28.8891C4.51081 28.7741 3.59586 27.7257 3.12361 26.5727C2.65492 25.4283 2.62305 24.1827 2.61149 23.6509L1.71055 23.5721ZM6.10335 30.3409C6.13188 30.3409 6.16059 30.3408 6.18947 30.3404L6.19958 30.3402L6.31522 28.8604L6.30323 28.8596C4.52366 28.7491 3.61291 27.7043 3.1435 26.5582C2.67357 25.4108 2.64519 24.16 2.63385 23.6362L2.63356 23.6225L1.70133 23.541L1.70059 23.5561L1.68934 23.5543C1.60227 24.503 1.64001 26.2139 2.24325 27.6808C2.54498 28.4144 2.98822 29.0871 3.628 29.5725C4.22995 30.0292 5.00532 30.3196 5.99951 30.3398L5.08367 30.6026L5.08844 30.6321L6.10335 30.3409Z" fill="black"/>
<path d="M14.8574 22.0781L13.9082 22.4824L14.2114 24.5391L15.1211 24.7324C15.1211 24.7324 15.2661 23.6514 14.8574 22.0781Z" fill="#FFFF00"/>
<path fill-rule="evenodd" clip-rule="evenodd" d="M14.8727 22.0566L14.8763 22.0706C15.0808 22.8629 15.1452 23.5317 15.1584 24.0027C15.1651 24.2382 15.1589 24.4242 15.1511 24.5514C15.1472 24.6151 15.1428 24.664 15.1395 24.6971C15.1378 24.7136 15.1364 24.7262 15.1353 24.7347C15.1348 24.7389 15.1344 24.7421 15.1341 24.7443L15.1338 24.7468L15.1337 24.7474L15.1337 24.7476C15.1337 24.7476 15.1337 24.7476 15.1225 24.7449L15.1337 24.7476L15.1317 24.7622L14.2061 24.5566L13.9004 22.4681L14.8727 22.0566ZM15.1132 24.7275C15.1142 24.7193 15.1155 24.7078 15.117 24.693C15.1203 24.6604 15.1246 24.612 15.1285 24.549C15.1362 24.4228 15.1424 24.238 15.1358 24.0038C15.1227 23.5382 15.0593 22.8775 14.8585 22.0944L13.9265 22.4888L14.2253 24.5302L15.1132 24.7275Z" fill="black"/>
<path d="M14.2136 24.5215L15.1167 24.7412L14.5366 23.6514L14.207 24.5215" fill="#7E7E7E"/>
<path fill-rule="evenodd" clip-rule="evenodd" d="M14.5374 23.6279L15.1465 24.7561L14.1973 24.5347L14.5374 23.6279ZM14.5409 23.6862L14.2312 24.5119L15.0956 24.7136L14.5409 23.6862Z" fill="black"/>
<path d="M15.4451 23.5635L14.5222 23.6514C14.509 24.6885 14.4365 28.6611 10.877 28.8809L11.0088 30.3223C15.3396 30.3926 15.6362 25.4531 15.4517 23.5635" fill="#FFFF00"/>
<path fill-rule="evenodd" clip-rule="evenodd" d="M15.4574 23.5498V23.575C15.5519 24.5189 15.5254 26.2267 14.9318 27.6905C14.6348 28.423 14.1958 29.0944 13.5591 29.5783C12.9545 30.0376 12.1723 30.3274 11.1651 30.3404L12.1083 30.6023L12.1036 30.6319L11.0551 30.3407C11.0376 30.3406 11.0201 30.3404 11.0025 30.3401L10.9925 30.34L10.8691 28.8702L10.8812 28.8695C12.6608 28.7639 13.5639 27.7192 14.0249 26.5719C14.4863 25.4233 14.5053 24.17 14.5128 23.6462L14.513 23.6324L15.4574 23.5498ZM11.0575 30.3105L11.0201 30.3002L11.0185 30.3101C11.0166 30.3101 11.0147 30.3101 11.0128 30.3101L10.8944 28.8989C12.6737 28.7889 13.5811 27.7405 14.0448 26.5862C14.505 25.4407 14.5276 24.1926 14.5353 23.6607L15.4353 23.582C15.529 24.5228 15.5018 26.2214 14.9119 27.6761C14.6166 28.4043 14.1804 29.0713 13.5478 29.552C12.9259 30.0246 12.1135 30.3175 11.0575 30.3105Z" fill="black"/>
<path d="M8.02888 30.4714C8.00251 30.4889 7.96296 30.4977 7.93 30.4889L7.75862 30.4802L7.7718 30.1901L7.94319 30.2077C7.97615 30.2077 8.0091 30.2165 8.02229 30.2341C8.05525 30.2516 8.06843 30.2956 8.06843 30.3571C8.06843 30.4098 8.04866 30.445 8.02229 30.4714M7.73884 30.9108L7.75202 30.568L7.94978 30.5856C8.0157 30.5944 8.06843 30.568 8.10139 30.5241C8.13435 30.4889 8.15412 30.4362 8.15412 30.3659C8.15742 30.3345 8.1556 30.3026 8.14877 30.2722C8.14194 30.2419 8.13028 30.2139 8.11457 30.1901C8.07899 30.1439 8.0323 30.1159 7.98274 30.111L7.6927 30.0846L7.65315 30.9108H7.73884ZM8.35847 30.2341H8.56941L8.64192 30.2516C8.67488 30.278 8.68806 30.3132 8.68806 30.3747C8.68806 30.4274 8.68147 30.4626 8.6551 30.4889C8.6268 30.5091 8.59482 30.5182 8.56281 30.5153H8.35847V30.2341ZM8.35847 30.9548V30.6032L8.55622 30.612C8.58918 30.612 8.62214 30.612 8.63532 30.6296C8.66169 30.6471 8.68147 30.6823 8.68147 30.735V30.9372L8.69465 30.9636H8.80012V30.946C8.79369 30.9415 8.78803 30.9352 8.78349 30.9277C8.77896 30.9201 8.77564 30.9114 8.77375 30.902C8.76947 30.879 8.76726 30.8554 8.76716 30.8317V30.7175C8.76716 30.6647 8.75398 30.6296 8.74079 30.612C8.72758 30.5878 8.70921 30.5694 8.68806 30.5593C8.71443 30.5417 8.74079 30.5153 8.75398 30.4889C8.76716 30.4538 8.78034 30.4186 8.78034 30.3659C8.78034 30.278 8.74739 30.2077 8.68806 30.1725C8.65064 30.1505 8.61031 30.1385 8.56941 30.1374H8.27278V30.9636H8.35847M9.01765 30.7878C8.9781 30.7228 8.95502 30.6428 8.95173 30.5593C8.95173 30.445 8.96492 30.3571 9.00447 30.2956C9.02449 30.2665 9.04901 30.2436 9.07632 30.2285C9.10364 30.2133 9.1331 30.2062 9.16267 30.2077C9.19129 30.2033 9.22027 30.2074 9.2476 30.2195C9.27493 30.2317 9.29993 30.2516 9.32087 30.278C9.36701 30.3307 9.38679 30.4098 9.39338 30.5065C9.39847 30.5919 9.38473 30.6775 9.35383 30.7526C9.32087 30.8229 9.26814 30.8669 9.18904 30.8669C9.10993 30.8669 9.0572 30.8493 9.01106 30.7878M8.91218 30.2692C8.87402 30.3571 8.85571 30.4578 8.85945 30.5593C8.86604 30.6823 8.89241 30.7878 8.95173 30.8581C8.98282 30.8987 9.0201 30.93 9.06105 30.9497C9.102 30.9694 9.14565 30.9771 9.18904 30.9723C9.23406 30.9717 9.27835 30.957 9.3184 30.9296C9.35844 30.9021 9.39314 30.8626 9.41975 30.8141C9.46642 30.7207 9.48951 30.6099 9.48567 30.4977C9.48338 30.3975 9.45547 30.3014 9.40657 30.2253C9.34724 30.1374 9.26155 30.0934 9.14949 30.1022C9.04402 30.1022 8.96491 30.1638 8.91218 30.2692ZM11.8126 29.0827C11.8785 29.0739 11.9312 29.0739 11.9774 29.0915C12.0433 29.1266 12.0894 29.1882 12.1224 29.2936L12.0367 29.3112C12.0222 29.2611 11.9939 29.2202 11.9576 29.197C11.9159 29.174 11.87 29.1679 11.8258 29.1794C11.7991 29.1854 11.7736 29.1986 11.751 29.2183C11.7283 29.2379 11.7089 29.2636 11.6939 29.2936C11.661 29.3552 11.6478 29.443 11.661 29.5573C11.668 29.6429 11.6957 29.7232 11.7401 29.7858C11.7796 29.8386 11.8389 29.8561 11.9114 29.8473C11.9628 29.8378 12.0097 29.8034 12.0433 29.7507C12.0828 29.6979 12.0894 29.6276 12.0762 29.5309L11.8785 29.5749L11.8719 29.487L12.1488 29.4255L12.2015 29.8649H12.1422L12.1092 29.777L12.0433 29.8649C12.0103 29.9089 11.9642 29.9264 11.9114 29.944C11.8378 29.9614 11.762 29.9393 11.7005 29.8825C11.6657 29.8464 11.6367 29.8013 11.6152 29.75C11.5937 29.6987 11.5801 29.6421 11.5753 29.5837C11.5645 29.524 11.563 29.462 11.571 29.4015C11.5789 29.341 11.5961 29.2834 11.6214 29.2321C11.6443 29.1896 11.6738 29.1541 11.7079 29.1283C11.7421 29.1025 11.78 29.087 11.8192 29.0827M12.4388 29.0212L12.6365 28.9245C12.6629 28.9069 12.6893 28.9069 12.7091 28.9069C12.7486 28.9069 12.775 28.9421 12.7882 28.9948C12.8013 29.0475 12.8013 29.0915 12.7882 29.1266C12.7684 29.153 12.742 29.1794 12.7025 29.197L12.5179 29.2848L12.4388 29.0212ZM12.6365 29.6979L12.5443 29.3727L12.7288 29.2848C12.7515 29.27 12.7761 29.261 12.8013 29.2585C12.8343 29.2673 12.8607 29.2936 12.8804 29.3464L12.92 29.4694L12.9398 29.5309L12.953 29.5573L13.0518 29.5046V29.487C13.0321 29.487 13.0189 29.4782 13.0123 29.4518C12.9991 29.443 12.9925 29.4167 12.9859 29.3903L12.953 29.2848C12.9398 29.2409 12.92 29.2145 12.9068 29.197C12.886 29.1849 12.8636 29.1789 12.8409 29.1794L12.8804 29.0739C12.8804 29.0388 12.8804 28.9948 12.8673 28.9509C12.8409 28.863 12.8013 28.8102 12.7354 28.8102C12.6927 28.8069 12.65 28.8159 12.6102 28.8366L12.3333 28.9684L12.5574 29.7419L12.6365 29.7067M13.3616 29.2936L13.0123 28.6081L13.3946 28.2741L13.4407 28.362L13.1243 28.6257L13.2298 28.8366L13.5264 28.5905L13.566 28.6696L13.2694 28.9157L13.388 29.153L13.7176 28.8718L13.7572 28.9597L13.3616 29.2936ZM13.6715 28.0807L13.7703 27.9313C13.8231 27.861 13.8692 27.8346 13.9219 27.8434C13.9813 27.8434 14.034 27.8874 14.0933 27.9577C14.1352 28.0044 14.167 28.0651 14.1856 28.1335C14.1988 28.1862 14.1922 28.2302 14.1856 28.2741C14.1737 28.3064 14.1581 28.336 14.1395 28.362L14.0406 28.5026L13.6715 28.0807ZM14.2054 28.3972C14.2779 28.2917 14.2911 28.1862 14.2515 28.0456C14.224 27.9746 14.1858 27.9118 14.1395 27.861C14.0836 27.7906 14.0117 27.7473 13.9351 27.738C13.856 27.7292 13.7901 27.7643 13.7308 27.8522L13.5594 28.0983L14.034 28.652L14.2054 28.4059M14.5745 27.7643L14.0274 27.3249L14.0736 27.237L14.6207 27.6677L14.5745 27.7555M14.7921 27.2634L14.1988 26.947L14.3702 26.3932L14.4427 26.4284L14.3043 26.8854L14.4822 26.9733L14.6141 26.5602L14.68 26.5954L14.5482 27.0173L14.7459 27.1227L14.8975 26.6657L14.9635 26.7009L14.7921 27.2634ZM15.0557 26.2966L14.4361 26.1208L14.4625 25.9889L15.036 25.7253L14.5284 25.5759L14.5482 25.4792L15.1678 25.655L15.148 25.778L14.5745 26.0417L15.0821 26.1911L15.0623 26.2966M15.0096 25.2419L15.0162 25.1364C15.0557 25.1364 15.0821 25.1364 15.1085 25.1188C15.1546 25.0837 15.1744 25.0222 15.1876 24.9343C15.1913 24.8931 15.189 24.8513 15.181 24.8112C15.1678 24.7497 15.1414 24.7057 15.0953 24.7057C15.0557 24.697 15.0294 24.7057 15.0162 24.7321C14.9964 24.7585 14.9832 24.8024 14.97 24.8639L14.9371 24.9694C14.9239 25.0397 14.9041 25.0925 14.8843 25.1188C14.858 25.1716 14.8184 25.1891 14.7657 25.1804C14.7404 25.1786 14.7156 25.1698 14.6929 25.1547C14.6702 25.1396 14.6501 25.1184 14.6339 25.0925C14.5943 25.0397 14.5811 24.9606 14.5877 24.8639C14.5943 24.7761 14.6141 24.7057 14.6536 24.653C14.6866 24.6003 14.7393 24.5651 14.8118 24.5827L14.8052 24.6882C14.7723 24.6882 14.7393 24.6882 14.7261 24.7145C14.6866 24.7409 14.6668 24.8024 14.6602 24.8815C14.6602 24.943 14.6602 24.987 14.6866 25.0222C14.7064 25.0573 14.7261 25.0749 14.7525 25.0749C14.7855 25.0749 14.8118 25.0749 14.825 25.0397L14.8712 24.8903L14.8975 24.7761C14.9107 24.7233 14.9305 24.6882 14.9503 24.653C14.9832 24.6091 15.0294 24.5915 15.0821 24.5915C15.1546 24.6003 15.2073 24.6442 15.2271 24.7145C15.2535 24.7848 15.2667 24.8552 15.2601 24.9518C15.2564 25.0386 15.2281 25.1203 15.181 25.1804C15.1348 25.2331 15.0821 25.2507 15.0096 25.2419ZM2.11604 25.1891L2.13581 25.2946C2.09626 25.3034 2.0699 25.321 2.05012 25.3473C2.01716 25.3913 2.00398 25.4616 2.01716 25.5583C2.0217 25.5951 2.0306 25.6307 2.04353 25.6638C2.0699 25.7253 2.10945 25.7516 2.15559 25.7429C2.18855 25.7341 2.20832 25.7165 2.22151 25.6813L2.24128 25.5407V25.4264C2.24128 25.3561 2.25447 25.2946 2.26106 25.2682C2.28083 25.2155 2.32038 25.1804 2.37312 25.1628C2.42585 25.154 2.47859 25.1628 2.51814 25.2155C2.56428 25.2507 2.59065 25.321 2.60383 25.4089C2.61664 25.4858 2.60968 25.5663 2.58406 25.6374C2.55769 25.7077 2.51814 25.7429 2.44563 25.7604L2.43244 25.6638C2.45679 25.6521 2.47919 25.6342 2.49836 25.611C2.53132 25.5671 2.53791 25.5055 2.53132 25.4264C2.51814 25.3561 2.50495 25.3122 2.47859 25.2946C2.46757 25.283 2.45481 25.2746 2.44117 25.27C2.42753 25.2655 2.41332 25.2649 2.39949 25.2682C2.38494 25.2674 2.37059 25.2729 2.35867 25.284C2.34674 25.2952 2.33792 25.3112 2.33357 25.3298L2.32698 25.488L2.32038 25.6022C2.32012 25.6512 2.31108 25.6994 2.29402 25.7429C2.28332 25.7714 2.26748 25.796 2.24793 25.8144C2.22838 25.8328 2.20571 25.8444 2.18196 25.8483C2.11604 25.8659 2.05012 25.8395 2.01716 25.778C1.97687 25.7186 1.94952 25.6457 1.93806 25.5671C1.93057 25.5238 1.92962 25.479 1.93528 25.4352C1.94094 25.3914 1.95309 25.3496 1.97102 25.3122C1.98739 25.2801 2.00888 25.2532 2.03395 25.2334C2.05902 25.2137 2.08705 25.2016 2.11604 25.1979M2.07649 26.279L2.68952 26.0329L2.82795 26.6042L2.75544 26.6393L2.63679 26.1735L2.45222 26.2438L2.56428 26.6833L2.49177 26.7096L2.3863 26.2702L2.17536 26.3581L2.29402 26.8327L2.2281 26.8591L2.07649 26.279ZM2.34675 27.2721L2.90705 26.8766L2.97297 27.0173L2.58406 27.5534L3.14436 27.4304L3.20368 27.5622L2.64338 27.9577L2.60383 27.8698L2.93342 27.6325L2.99275 27.5973L3.07844 27.5358L2.51814 27.6677L2.47859 27.571L2.86091 27.0261L2.84114 27.0436L2.77522 27.0876C2.75628 27.1042 2.73645 27.1188 2.71589 27.1315L2.3863 27.36L2.34675 27.2721ZM3.38825 28.3708C3.36189 28.362 3.33552 28.3356 3.30915 28.3005L3.1905 28.1423L3.3487 27.9489L3.46736 28.1071C3.48709 28.1319 3.5028 28.1618 3.5135 28.195C3.52668 28.2389 3.5135 28.2829 3.48054 28.3268C3.44758 28.362 3.41462 28.3796 3.38825 28.3708ZM2.94001 28.4411L3.13777 28.2038L3.2696 28.3884C3.32234 28.4499 3.36848 28.4763 3.41462 28.4763C3.46358 28.4754 3.51056 28.4503 3.54646 28.4059C3.57975 28.3581 3.59854 28.2954 3.59919 28.2302C3.59919 28.1774 3.57942 28.1159 3.53987 28.0632L3.34211 27.7995L2.88069 28.362L2.9466 28.4499M3.50031 29.1091L3.8365 28.4059L4.232 28.7223L4.19245 28.8102L3.86286 28.5466L3.76399 28.7663L4.06062 29.0036L4.02766 29.0915L3.72444 28.8454L3.61238 29.0827L3.94197 29.3464L3.90241 29.4343L3.50031 29.1091ZM4.48908 28.9684L4.69343 29.0563L4.75935 29.1003C4.78572 29.1354 4.79231 29.1794 4.77253 29.2321C4.75935 29.2848 4.74616 29.32 4.71321 29.3288L4.61433 29.32L4.42317 29.2321L4.48908 28.9684ZM4.3177 29.6628L4.40339 29.3288L4.58796 29.4079C4.62092 29.4167 4.65388 29.4343 4.66047 29.4518C4.68025 29.4782 4.68684 29.5222 4.68025 29.5749L4.64729 29.7067L4.6407 29.7682V29.7946L4.73957 29.8386V29.821L4.72639 29.7595L4.73957 29.6979L4.76594 29.5925C4.77253 29.5397 4.77912 29.5046 4.76594 29.487C4.76594 29.4606 4.74616 29.4343 4.72639 29.4079C4.75935 29.4079 4.79231 29.3903 4.81208 29.3639C4.83186 29.3376 4.85163 29.3024 4.85823 29.2585C4.88459 29.1706 4.87141 29.0915 4.81867 29.0388C4.78731 29.0043 4.7516 28.9775 4.71321 28.9597L4.42976 28.8454L4.232 29.6276L4.3177 29.6628Z" fill="#009FC5"/>
<path d="M5.1743 15.4332C5.24022 15.1959 5.91918 14.5543 8.12743 14.8356C8.12743 14.8356 8.50316 15.1432 8.72069 15.0992C8.85252 15.0816 8.65477 15.1168 8.48338 14.9322C8.31859 14.7565 8.28563 14.3785 8.66136 14.3961C9.04369 14.4049 10.4609 14.5104 10.4873 14.6861C10.5137 14.8531 9.73583 14.9234 9.45238 14.9147C9.16234 14.9059 9.18871 15.0992 9.47875 15.0904C10.3818 15.0377 11.364 14.6158 12.3989 15.6002C12.5242 15.7145 12.0891 15.732 11.7529 15.5475C11.7529 15.5475 10.8301 15.609 10.4346 15.5211C10.4346 15.5211 10.1379 15.8551 9.73583 15.8199C9.78856 15.9957 9.59081 16.6285 8.35155 16.1451C8.14061 16.233 7.39574 16.4 7.47484 16.1012C7.27709 16.1012 6.93431 16.1891 6.88158 16.0397C6.82884 15.8902 7.48802 15.6705 7.60668 15.5123C7.60668 15.5123 6.20921 15.5299 5.94554 15.3981C5.94554 15.3981 5.12157 15.6441 5.1743 15.4332Z" fill="#BC715F"/>
<path d="M5.62276 18.0354C5.64913 17.9827 5.66231 17.8772 5.72823 17.886C5.86007 17.9299 5.95894 18.2727 6.12374 18.053C6.18966 18.0354 6.20943 18.1409 6.25558 18.1584C6.28853 18.343 6.40719 18.1145 6.48629 18.1321C6.67086 18.0266 6.88839 18.0002 7.10592 18.0442C7.10592 18.2375 7.00045 18.4397 6.86861 18.5452C6.86861 18.7209 7.00045 18.844 6.99386 19.0285C6.97408 19.0989 6.99386 19.2043 6.91476 19.2307C6.80929 19.2043 6.717 19.1955 6.63131 19.1164C6.61812 19.1077 6.61153 19.0813 6.59176 19.0901C6.57857 19.1516 6.65767 19.2131 6.68404 19.2746C6.63131 19.3889 6.55221 19.2834 6.4797 19.2834C6.45992 19.3537 6.4797 19.4328 6.42696 19.4768C6.34127 19.4768 6.32149 19.345 6.26876 19.2834C6.20943 19.3625 6.30831 19.4065 6.32149 19.468C6.28194 19.7141 6.28853 19.9514 6.11056 20.1096L5.98531 20.1887C5.95235 20.0657 5.97213 19.8811 5.95235 19.7493C5.88643 19.9075 5.82052 20.0481 5.72164 20.1799C5.5898 20.1272 5.52389 19.9338 5.49752 19.7668C5.47064 19.6747 5.46443 19.5741 5.47964 19.4774C5.49486 19.3806 5.53084 19.2919 5.58321 19.2219C5.55025 19.134 5.41842 19.1516 5.39864 19.011C5.20089 18.8352 5.10201 19.301 4.97677 19.0637C4.95735 18.9464 4.95919 18.8246 4.98211 18.7085C5.00504 18.5923 5.0484 18.4851 5.1086 18.3957C5.07564 18.3078 4.98336 18.3254 4.93062 18.2727C4.81197 18.1321 4.63399 17.9914 4.64718 17.7453C4.81263 17.6655 4.99175 17.6504 5.16343 17.7018C5.33511 17.7531 5.4922 17.8689 5.61617 18.0354" fill="#008737"/>
<path d="M5.79363 18.0088C5.78704 18.2109 5.89251 18.0615 5.9782 18.1846C5.91228 18.1494 5.86614 18.334 5.80022 18.2285L5.76067 18.2813C5.78704 18.3516 5.82659 18.3604 5.78704 18.4395C5.72112 18.4746 5.70134 18.3516 5.66838 18.3076C5.66838 18.29 5.68157 18.2549 5.6552 18.2373C5.61565 18.2813 5.5761 18.2988 5.52337 18.29C5.51018 18.2549 5.47722 18.2021 5.51018 18.167C5.56292 18.0791 5.64202 18.2021 5.68157 18.1406C5.68816 18.0791 5.64861 18.0088 5.70134 17.9648C5.7343 17.9736 5.78045 17.9473 5.79363 18.0088ZM6.20232 18.1758C6.20891 18.2109 6.18914 18.2637 6.22869 18.2988C6.28142 18.2637 6.33416 18.29 6.36052 18.3516C6.36052 18.3867 6.36712 18.4395 6.33416 18.457L6.25506 18.4307C6.26165 18.4131 6.23528 18.4043 6.22869 18.3779C6.19573 18.3691 6.16936 18.4043 6.14959 18.4307C6.16936 18.4658 6.2155 18.4922 6.20232 18.5361C6.15618 18.5977 6.1364 18.4834 6.08367 18.5186C6.04412 18.501 6.09026 18.4043 6.03753 18.3691C5.97161 18.3691 6.01775 18.5098 5.93206 18.457C5.90569 18.4131 5.87932 18.3516 5.90569 18.3076C5.92521 18.2922 5.94793 18.2856 5.9705 18.2887C5.99306 18.2919 6.01425 18.3047 6.03093 18.3252C6.08367 18.2461 6.08367 17.9648 6.20891 18.1758M5.69475 18.4658C5.72771 18.5361 5.68157 18.624 5.72771 18.6943C5.79363 18.5186 5.85955 18.7295 5.93865 18.7119C5.96502 18.7559 5.94524 18.8086 5.95183 18.8525C5.85296 18.8877 5.7343 18.9316 5.64861 18.8262L5.62224 18.8613C5.67498 18.9229 5.72112 19.002 5.68157 19.1074C5.60906 19.125 5.49041 19.1338 5.45745 19.0283C5.43767 18.9404 5.50359 18.8877 5.43108 18.8174C5.38494 18.9053 5.38494 19.0107 5.28606 18.9316C5.25776 18.9111 5.23648 18.8768 5.22666 18.8359C5.21684 18.7949 5.21923 18.7506 5.23333 18.7119C5.29924 18.5713 5.4179 18.7119 5.48381 18.6504C5.497 18.5273 5.46404 18.4219 5.54973 18.3604C5.61565 18.3428 5.64861 18.4131 5.69475 18.4658Z" fill="#FFFF00"/>
<path d="M5.97119 18.5448C5.93823 18.7469 5.82617 18.536 5.77344 18.5272C5.83936 18.3514 5.8855 18.5799 5.97119 18.5448ZM6.32715 18.7645C6.24805 18.7909 6.26123 18.659 6.22168 18.6063L6.25464 18.5711C6.28101 18.6151 6.30078 18.703 6.32715 18.7645Z" fill="white"/>
<path d="M6.22266 18.7209C6.24243 18.7912 6.16992 18.8527 6.23584 18.8966L6.28857 18.8351C6.3479 18.8527 6.40723 18.8703 6.44678 18.9406C6.48633 19.09 6.37427 19.09 6.31494 19.1339H6.24902C6.26221 19.0812 6.21606 19.0636 6.20947 19.0461C6.19681 19.0401 6.18308 19.0394 6.17012 19.0441C6.15716 19.0488 6.14559 19.0587 6.13696 19.0724C6.15015 19.1603 6.23584 19.2482 6.15015 19.3273C6.07105 19.3273 5.95239 19.3625 5.95898 19.2218C5.93262 19.1339 6.03809 19.0197 5.92603 19.0109C5.88647 19.1252 5.84692 19.2218 5.74805 19.1252L5.76123 18.967C5.85352 18.967 5.96558 18.9933 6.00513 18.8527C6.03149 18.756 5.95898 18.6593 6.0249 18.589C6.12378 18.5539 6.17651 18.6418 6.22266 18.7209Z" fill="#FFFF00"/>
<path d="M6.15739 18.9492C6.17717 19.0283 6.11784 19.0371 6.08488 19.0722C6.04533 19.0722 6.01896 19.0546 5.9926 19.0195C5.97282 18.9316 6.02556 18.914 6.05852 18.8789C6.10466 18.8525 6.12443 18.9228 6.15739 18.9492Z" fill="black"/>
<path d="M6.0957 19.002C6.08911 19.0195 6.06934 19.0107 6.05615 19.0195L6.04297 18.9316C6.07593 18.9316 6.10889 18.9404 6.0957 19.002Z" fill="white"/>
</g>
<defs>
<clipPath id="clip0_45_20762">
<rect width="45" height="45" fill="white"/>
</clipPath>
</defs>
</svg>
