<svg width="45" height="45" viewBox="0 0 45 45" fill="none" xmlns="http://www.w3.org/2000/svg">
<g clip-path="url(#clip0_45_20997)">
<path d="M0 0H45V45H0V0Z" fill="#002395"/>
<path d="M0 0H20.5875V18.45H0V0Z" fill="white"/>
<path d="M0 0H6.75V18H0V0Z" fill="#002395"/>
<path d="M13.5 0H20.25V18H13.5V0Z" fill="#ED2939"/>
<path d="M29.9531 20.5879L31.0359 22.8941H34.1297V30.9379L31.8094 26.1004L28.6875 32.7379H30.2063L31.8094 28.9129L35.1 36.7879L38.3906 28.9129L39.9937 32.7379H41.5125L38.3906 26.1004L36.0703 30.9379V26.4941H37.4625L38.4961 24.3004H36.0703V22.8941H39.1641L40.2469 20.5879H29.9531ZM33.5813 30.4316H30.2063V32.0066H33.5813V30.4316ZM39.9937 30.4316H36.6187V32.0066H39.9937V30.4316Z" fill="white"/>
<path d="M35.1016 38.3623L36.1394 42.6373L33.4141 39.9936H36.7891L34.0637 42.6373L35.1016 38.3623Z" fill="white"/>
<path d="M31.3047 34.5371L32.3425 38.8121L29.6172 36.1684H32.9922L30.2669 38.8121L31.3047 34.5371Z" fill="white"/>
<path d="M38.8984 34.5371L39.9363 38.8121L37.2109 36.1684H40.5859L37.8606 38.8121L38.8984 34.5371Z" fill="white"/>
<path d="M28.0977 23.1748L29.1355 27.4498L26.4102 24.8061H29.7852L27.0598 27.4498L28.0977 23.1748Z" fill="white"/>
<path d="M42.1016 23.1748L43.1394 27.4498L40.4141 24.8061H43.7891L41.0637 27.4498L42.1016 23.1748Z" fill="white"/>
</g>
<defs>
<clipPath id="clip0_45_20997">
<rect width="45" height="45" fill="white"/>
</clipPath>
</defs>
</svg>
