<svg width="45" height="45" viewBox="0 0 45 45" fill="none" xmlns="http://www.w3.org/2000/svg">
<g clip-path="url(#clip0_45_21031)">
<path d="M0 0H45V45H0V0Z" fill="#00247D"/>
<path d="M7.60078 33.2442C7.12969 33.2348 12.0164 29.7754 16.1016 25.3317C21.4594 19.5098 32.9977 10.2004 36.3937 8.68169C36.7453 8.52231 35.6695 9.48794 35.5289 9.79731C31.9078 15.5161 34.7977 26.2973 39.3258 31.7254C40.6898 33.1129 40.6195 33.1879 43.1437 33.3192V33.6379L7.60078 33.2442ZM7.30547 33.8723C7.30547 33.8723 6.96094 34.2004 6.96094 34.4442C6.96094 34.7161 7.34766 35.0723 7.34766 35.0723L42.3984 35.5879L43.0453 35.0161L42.1453 34.2754L7.30547 33.8723Z" fill="#FED100"/>
<path d="M7.50938 10.2277L7.22813 11.3715L7.95937 10.6684L8.68359 11.3715L8.40937 10.2277L9.13359 9.52461H8.23359L7.95937 8.38086L7.67812 9.52461H6.77813L7.50938 10.2277ZM13.0008 15.609L13.6055 15.0184H12.8531L12.6211 14.0715L12.3891 15.0184H11.6438L12.2484 15.609L12.0164 16.5559L12.6211 15.9652L13.2328 16.5559L13.0008 15.609ZM2.79141 16.8277L2.51016 15.684L2.23594 16.8277H1.33594L2.06016 17.5309L1.78594 18.6746L2.51016 17.9715L3.24141 18.6746L2.96016 17.5309L3.69141 16.8277H2.79141ZM8.28281 28.2934L7.95937 26.9621L7.63594 28.2934H6.58125L7.43203 29.109L7.10859 30.4496L7.95937 29.6246L8.81016 30.4496L8.47969 29.109L9.33047 28.2934H8.28281Z" fill="white"/>
</g>
<defs>
<clipPath id="clip0_45_21031">
<rect width="45" height="45" fill="white"/>
</clipPath>
</defs>
</svg>
