<svg width="45" height="45" viewBox="0 0 45 45" fill="none" xmlns="http://www.w3.org/2000/svg">
<g clip-path="url(#clip0_45_21271)">
<path fill-rule="evenodd" clip-rule="evenodd" d="M-2.8125 0H47.8125V45H-2.8125V0Z" fill="#E70013"/>
<path fill-rule="evenodd" clip-rule="evenodd" d="M31.0552 22.4824C31.0552 25.4917 30.1586 28.3778 28.5627 30.5057C26.9667 32.6337 24.8022 33.8291 22.5452 33.8291C20.2882 33.8291 18.1236 32.6337 16.5277 30.5057C14.9317 28.3778 14.0352 25.4917 14.0352 22.4824C14.0352 19.4731 14.9317 16.587 16.5277 14.4591C18.1236 12.3312 20.2882 11.1357 22.5452 11.1357C24.8022 11.1357 26.9667 12.3312 28.5627 14.4591C30.1586 16.587 31.0552 19.4731 31.0552 22.4824Z" fill="white"/>
<path fill-rule="evenodd" clip-rule="evenodd" d="M22.5461 30.0059C21.0821 29.9391 19.6948 29.1168 18.6768 27.7124C17.6588 26.3079 17.0898 24.4312 17.0898 22.478C17.0898 20.5249 17.6588 18.6481 18.6768 17.2437C19.6948 15.8392 21.0821 15.0169 22.5461 14.9502C23.3239 14.9502 24.2138 15.1963 24.8136 15.7852C20.6872 15.9873 19.6391 20.6631 19.6391 22.5439C19.6391 24.4248 20.3049 28.6172 24.8136 29.2412C24.2995 29.6807 23.3239 30.0059 22.5461 30.0059Z" fill="#E70013"/>
<path fill-rule="evenodd" clip-rule="evenodd" d="M27.5159 25.6465L24.9517 24.3984L23.2576 27.2461L23.3564 23.6162L20.7988 22.3418L23.4224 21.3398L23.5344 17.71L25.0637 20.7246L27.6873 19.7578L26.0063 22.6143L27.5159 25.6465Z" fill="#E70013"/>
</g>
<defs>
<clipPath id="clip0_45_21271">
<rect width="45" height="45" fill="white"/>
</clipPath>
</defs>
</svg>
