<svg width="45" height="45" viewBox="0 0 45 45" fill="none" xmlns="http://www.w3.org/2000/svg">
<g clip-path="url(#clip0_45_21403)">
<path d="M0 0H45V45H0V0Z" fill="white"/>
<path d="M18.7031 4.99707H45V10.0033H18.7031V4.99707ZM18.7031 15.0002H45V19.9971H18.7031V15.0002ZM0 25.0033H45V30.0002H0V25.0033ZM0 34.9971H45V40.0033H0V34.9971Z" fill="#0038A8"/>
<path d="M8.94732 14.9423L9.56801 16.1781C7.01754 18.6391 8.57463 20.0943 6.76721 20.8821C7.89136 19.4193 6.5902 19.296 7.53735 16.2472" fill="#FCD116"/>
<path fill-rule="evenodd" clip-rule="evenodd" d="M8.96519 14.8274L9.65351 16.1979L9.60517 16.2445C8.97237 16.8551 8.59731 17.4004 8.36136 17.885C8.12564 18.3692 8.02671 18.7967 7.94961 19.1786C7.94103 19.221 7.9327 19.2631 7.92444 19.3049C7.85917 19.6348 7.79864 19.9407 7.66048 20.2073C7.50227 20.5126 7.24718 20.7596 6.78733 20.9601L6.5346 21.0702L6.72489 20.8226C7.00179 20.4623 7.12259 20.193 7.16956 19.9486C7.21685 19.7025 7.19185 19.4713 7.15835 19.1711L7.15822 19.1699C7.12497 18.872 7.08538 18.5174 7.11475 18.0447C7.14414 17.5716 7.24227 16.9839 7.48107 16.2152L7.50475 16.139L7.61908 16.2021L7.5954 16.2784C7.36063 17.0341 7.26623 17.6051 7.23808 18.0583C7.20993 18.5113 7.24765 18.8502 7.28075 19.1468L7.28164 19.1548C7.31417 19.4462 7.34344 19.7085 7.28943 19.9896C7.24811 20.2046 7.1595 20.425 6.99629 20.6793C7.28267 20.5136 7.44913 20.3249 7.55867 20.1135C7.68371 19.8722 7.73857 19.596 7.80492 19.2618C7.81309 19.2207 7.82144 19.1786 7.83011 19.1357C7.90847 18.7476 8.01145 18.3007 8.25757 17.7952C8.49725 17.3029 8.87073 16.759 9.48441 16.1577L8.86237 14.9193L8.96519 14.8274Z" fill="black"/>
<path fill-rule="evenodd" clip-rule="evenodd" d="M7.52298 18.8736C7.62381 17.9675 7.75648 16.7754 8.45068 15.2498L8.55648 15.3354C7.87525 16.8324 7.74554 17.9979 7.6453 18.8986C7.64299 18.9193 7.6407 18.9399 7.63842 18.9603C7.58786 19.4134 7.54093 19.8097 7.42492 20.1422C7.30699 20.4803 7.1191 20.7495 6.7938 20.9565L6.7405 20.8076C7.04126 20.6162 7.20756 20.3741 7.31272 20.0726C7.4198 19.7657 7.46488 19.3942 7.51602 18.936C7.51833 18.9154 7.52064 18.8945 7.52298 18.8736Z" fill="black"/>
<path d="M9.37226 12.4971H10.6098L9.37226 21.5721L8.13477 12.4971H9.37226V21.5721V12.4971Z" fill="#FCD116"/>
<path fill-rule="evenodd" clip-rule="evenodd" d="M8.06055 12.415H10.6838L9.37218 22.0337L8.06055 12.415ZM8.20883 12.58L9.31031 20.6576V12.58H8.20883ZM9.43406 12.58V20.6576L10.5355 12.58H9.43406Z" fill="black"/>
<path d="M9.37226 15.5217C10.6253 15.5217 11.641 14.1673 11.641 12.4967C11.641 10.826 10.6253 9.47168 9.37226 9.47168C8.11927 9.47168 7.10352 10.826 7.10352 12.4967C7.10352 14.1673 8.11927 15.5217 9.37226 15.5217Z" fill="#FCD116"/>
<path fill-rule="evenodd" clip-rule="evenodd" d="M9.37359 9.55465C8.15477 9.55465 7.16672 10.872 7.16672 12.4971C7.16672 14.1222 8.15477 15.4396 9.37359 15.4396C10.5924 15.4396 11.5805 14.1222 11.5805 12.4971C11.5805 10.872 10.5924 9.55465 9.37359 9.55465ZM7.04297 12.4971C7.04297 10.7809 8.08642 9.38965 9.37359 9.38965C10.6608 9.38965 11.7042 10.7809 11.7042 12.4971C11.7042 14.2134 10.6608 15.6046 9.37359 15.6046C8.08642 15.6046 7.04297 14.2134 7.04297 12.4971Z" fill="black"/>
<path d="M11.0433 11.2871C10.8989 11.507 10.8164 11.1221 10.3008 11.1221C9.7852 11.1221 9.7027 11.5345 9.6202 11.4521C9.5377 11.3696 10.0533 10.8746 10.2183 10.8471C10.3833 10.8196 10.8577 11.0396 11.0433 11.2871ZM10.4452 11.5345C10.5896 11.6995 10.4658 12.057 10.3214 12.057C10.1771 12.057 9.90895 11.727 10.0327 11.507" fill="black"/>
<path d="M9.76562 11.7825C9.78625 11.4525 9.9925 11.3975 10.3225 11.3975C10.6525 11.3975 10.7969 11.7275 10.9206 11.81C10.7762 11.81 10.6525 11.535 10.3225 11.535C9.9925 11.535 9.9925 11.535 9.76562 11.81M9.8275 11.865C9.91 11.7 10.0131 12.03 10.24 12.03C10.4669 12.03 10.5906 11.9475 10.735 11.81C10.8794 11.6725 10.5287 12.14 10.3019 12.14C10.075 12.14 9.76562 11.975 9.8275 11.865Z" fill="black"/>
<path d="M10.5276 12.0293C10.7958 11.8368 10.6308 11.5618 10.5276 11.5068C10.5689 11.5618 10.7339 11.8368 10.5276 12.0293ZM9.37266 13.6793C9.4964 13.6793 9.53765 13.6243 9.70265 13.6243C9.86765 13.6243 10.2595 13.9268 10.4864 13.8168C10.012 14.0643 10.1976 13.8993 9.37266 13.8993H9.26953M10.5689 14.0643C10.4864 13.8718 10.507 13.9268 10.342 13.6243C10.507 13.7893 10.5483 13.8718 10.5689 14.0643ZM9.37266 14.3393C9.88827 14.3393 9.80578 14.2018 10.4864 13.8168C9.9914 13.8993 9.88827 14.1193 9.37266 14.1193H9.26953M9.37266 13.3218C9.51703 13.3218 9.55828 13.1843 9.72328 13.1843C9.88827 13.1843 10.1151 13.2668 10.2183 13.3768C10.2389 13.4043 10.1564 13.1568 9.9914 13.1293C9.8264 13.1018 9.88827 12.7443 9.70265 12.6893C9.70265 12.7993 9.76453 12.7718 9.78515 12.9368C9.78515 13.0743 9.59953 13.0743 9.55828 12.9368C9.59953 13.1568 9.47578 13.1568 9.37266 13.1568" fill="black"/>
<path d="M9.37203 14.5869C9.2689 14.5869 9.00078 14.6694 9.37203 14.6694C9.74327 14.6694 9.47515 14.5869 9.37203 14.5869Z" fill="black"/>
</g>
<defs>
<clipPath id="clip0_45_21403">
<rect width="45" height="45" fill="white"/>
</clipPath>
</defs>
</svg>
