<svg width="45" height="45" viewBox="0 0 45 45" fill="none" xmlns="http://www.w3.org/2000/svg">
<g clip-path="url(#clip0_45_21423)">
<path d="M0 30H45V45H0V30Z" fill="#1EB53A"/>
<path d="M0 0H45V15H0V0Z" fill="#0099B5"/>
<path d="M0 14.4004H45V30.6004H0V14.4004Z" fill="#CE1126"/>
<path d="M0 15.2998H45V29.6998H0V15.2998Z" fill="white"/>
<path d="M9.44844 12.5998C11.6852 12.5998 13.4984 10.1821 13.4984 7.19981C13.4984 4.21747 11.6852 1.7998 9.44844 1.7998C7.21168 1.7998 5.39844 4.21747 5.39844 7.19981C5.39844 10.1821 7.21168 12.5998 9.44844 12.5998Z" fill="white"/>
<path d="M10.8 12.5998C13.0368 12.5998 14.85 10.1821 14.85 7.19981C14.85 4.21747 13.0368 1.7998 10.8 1.7998C8.56325 1.7998 6.75 4.21747 6.75 7.19981C6.75 10.1821 8.56325 12.5998 10.8 12.5998Z" fill="#0099B5"/>
<path d="M18.3581 10.4414L18.1016 11.4674L18.4931 11.6474" fill="white"/>
</g>
<defs>
<clipPath id="clip0_45_21423">
<rect width="45" height="45" fill="white"/>
</clipPath>
</defs>
</svg>
