<svg width="45" height="45" viewBox="0 0 45 45" fill="none" xmlns="http://www.w3.org/2000/svg">
<g clip-path="url(#clip0_45_22461)">
<path fill-rule="evenodd" clip-rule="evenodd" d="M0 0H45V45H0V0Z" fill="#CE1126"/>
<path fill-rule="evenodd" clip-rule="evenodd" d="M0 0H22.5V22.5H0V0Z" fill="#002B7F"/>
<path fill-rule="evenodd" clip-rule="evenodd" d="M12.6547 21.4969L11.1992 20.1844L9.8 21.5062L10.257 19.1719L8.92109 17.7469L10.6437 17.6062L11.2133 15.3937L11.832 17.6437L13.5195 17.7094L12.1836 19.2375L12.6547 21.4969ZM12.4016 5.97187L11.2344 4.96875L10.1094 5.94375L10.4187 4.06875L9.39219 2.87812L10.7562 2.72812L11.2625 0.984375L11.7828 2.7375L13.1258 2.89687L12.0922 4.15312L12.4016 5.97187ZM7.26875 11.55L6.14375 10.5187L4.96953 11.55L5.33516 9.73125L4.27344 8.53125L5.62344 8.4375L6.11562 6.65625L6.59375 8.42812L7.97187 8.53125L6.91719 9.70312L7.26875 11.55ZM17.5766 10.3125L16.4937 9.375L15.4391 10.3125L15.7484 8.59687L14.7641 7.49062L16.0508 7.35L16.4937 5.7375L16.9859 7.36875L18.2305 7.4625L17.2672 8.61562L17.5766 10.3125ZM14.5461 14.3812L13.8219 13.7812L13.0977 14.4L13.2875 13.2469L12.6406 12.4687L13.4844 12.375L13.8078 11.2875L14.1523 12.375L14.9891 12.4687L14.3492 13.2469L14.5461 14.3812Z" fill="white"/>
</g>
<defs>
<clipPath id="clip0_45_22461">
<rect width="45" height="45" fill="white"/>
</clipPath>
</defs>
</svg>
