<svg width="45" height="45" viewBox="0 0 45 45" fill="none" xmlns="http://www.w3.org/2000/svg">
<g clip-path="url(#clip0_45_22526)">
<path d="M-0.160156 -0.00976562H69.0729V44.9801H-0.160156V-0.00976562Z" fill="#006400"/>
<path d="M-0.160156 6.41797H69.0729V38.5536H-0.160156V6.41797Z" fill="#FFD200"/>
<path d="M-0.160156 12.8447H69.0729V32.1261H-0.160156V12.8447Z" fill="#D40000"/>
<path d="M-0.160156 19.2725H69.0729V25.6996H-0.160156V19.2725Z" fill="black"/>
<path d="M-0.160156 -0.00976562V44.9801L22.9175 22.4852L-0.160156 -0.00976562Z" fill="black"/>
<path fill-rule="evenodd" clip-rule="evenodd" d="M-0.974609 -2.14648L24.2956 22.4856L-0.974609 47.1177V-2.14648ZM0.652851 2.12786V42.8434L21.538 22.4856L0.652851 2.12786Z" fill="black"/>
<path d="M-0.160156 -0.00976562V44.9801L22.9175 22.4852L-0.160156 -0.00976562Z" fill="white"/>
<path d="M8.61771 11.1738L13.192 29.459L1.22461 18.158H16.0191L4.04338 29.459L8.61771 11.1738Z" fill="#D40000"/>
<path d="M6.6626 27.1665L7.47032 26.9736L8.96213 26.8987L9.51435 26.9629L10.7507 27.2307L10.8413 27.0701V25.9132L10.9897 24.917L11.2369 23.91L11.5089 23.1067L11.8551 22.2711L12.4155 22.4532H12.5639L12.5804 22.314L11.3935 20.9964L10.1572 19.7646L8.3687 18.0292L8.20386 17.9757L8.0143 16.1546L7.87418 15.6083L7.68462 15.3941L7.33021 15.2441L6.93459 15.2656L6.75327 15.3941L6.37413 15.5012L6.17632 15.5441L6.04445 15.7476L6.02797 16.0047L6.58018 16.0261L6.7203 16.1011L6.70381 16.1761L6.39062 16.2296L6.24226 16.2939L6.41534 16.4653L6.59667 16.551L6.82745 16.6581L6.8769 16.8723L6.89338 19.636L6.76975 20.0645L6.72854 20.8679L6.90987 21.8319L6.44831 22.5175L6.18457 23.1281L6.13511 23.503L5.995 23.8779L5.97852 24.1136L6.06918 24.3707L6.42359 25.8917L6.60491 27.145L6.6626 27.1665Z" fill="#FFCC00"/>
<path d="M7.09191 15.2019C6.94355 15.2019 6.87762 15.2233 6.7375 15.3197C6.6214 15.4061 6.49181 15.4574 6.35837 15.4697C6.15232 15.4697 5.98748 15.6625 5.98748 15.9089V16.0696L6.28419 16.0589C7.15784 16.091 6.36661 16.1981 6.30067 16.2088C6.08638 16.2624 6.35013 16.4873 6.60563 16.6052C6.87762 16.7123 6.86113 16.648 6.86113 18.2119C6.86113 19.4867 6.86113 19.6688 6.77871 19.958C6.67156 20.3865 6.67156 21.0292 6.77871 21.4576C6.82816 21.629 6.86113 21.779 6.86113 21.8111C6.86113 21.8326 6.72926 22.0361 6.57266 22.2717C6.28419 22.7002 6.11111 23.1394 6.11111 23.4501C6.10083 23.55 6.07259 23.6454 6.02869 23.7286C5.92154 23.9107 5.92154 24.2213 6.02044 24.3391C6.12759 24.4677 6.56442 26.6743 6.57266 27.0921C6.57266 27.2421 6.58914 27.2421 7.25675 27.0707C7.80072 26.9314 9.07824 26.8993 9.72936 27.0064C10.0261 27.06 10.3722 27.1457 10.4959 27.1778C10.8915 27.317 10.875 27.3385 10.875 26.7172C10.878 25.7383 11.0205 24.7686 11.2953 23.8571C11.4528 23.3377 11.643 22.8361 11.864 22.3574C11.864 22.3574 12.0124 22.3789 12.1937 22.4431C12.5316 22.5503 12.6306 22.5395 12.6306 22.336C12.6306 22.2289 12.2761 21.8433 10.5371 20.0865C9.83566 19.3404 9.11258 18.6293 8.36942 17.9549C8.31997 17.9549 8.27052 17.9227 8.26228 17.8799L8.13865 16.8623C8.08095 16.3374 7.99853 15.8232 7.96556 15.7161C7.85018 15.3947 7.62764 15.234 7.25675 15.2019C7.20182 15.1996 7.14684 15.1996 7.09191 15.2019ZM7.10015 15.309H7.26499C7.80897 15.3519 7.90787 15.5447 8.05623 16.8087C8.09626 17.1431 8.12924 17.4789 8.15513 17.8156C8.15513 17.9013 8.08095 18.0084 7.89139 18.1691C7.57949 18.4535 7.30174 18.7965 7.06718 19.1867L6.96004 19.3795L6.93531 18.9296V17.6656C6.96004 16.7337 6.93531 16.648 6.70453 16.5409C6.51497 16.4552 6.26771 16.3695 6.33364 16.3159C6.41606 16.2517 6.49848 16.2945 6.69629 16.2195C6.77871 16.1981 6.77047 16.2088 6.75399 16.1231C6.7375 15.9839 6.62211 15.9089 6.31716 15.9303C6.0699 15.9517 6.04517 15.941 6.06165 15.8553C6.09462 15.6839 6.2265 15.5768 6.43255 15.5447C6.55869 15.5257 6.68137 15.4786 6.7952 15.4054C6.8872 15.3336 6.99281 15.2965 7.10015 15.2983V15.309ZM8.32821 18.0727H8.36118C8.5013 18.1048 12.5481 22.2182 12.5481 22.336C12.5481 22.3789 12.5152 22.411 12.4657 22.411C12.4327 22.411 11.4025 22.0361 10.1827 21.5755C8.23755 20.8256 7.95732 20.7185 7.8749 20.5793C7.81757 20.4851 7.78569 20.3691 7.7842 20.249C7.78271 20.129 7.81169 20.0116 7.86666 19.9151C7.90622 19.8527 7.9344 19.7795 7.94908 19.7009C7.94908 19.5724 7.74303 19.8937 7.70182 20.0758C7.66061 20.2901 7.74303 20.6543 7.86666 20.7721C7.91611 20.8256 8.287 20.9863 8.69086 21.147C9.38319 21.4041 9.43265 21.4362 9.46561 21.5862C9.54803 21.9397 9.25956 22.3574 8.84746 22.4753C8.69294 22.5234 8.54728 22.6107 8.41888 22.7324C7.99126 23.1927 7.51353 23.5681 7.00125 23.8464C6.96828 23.8785 6.92707 24.0499 6.90234 24.2106C6.85289 24.5641 6.83641 24.6176 6.75399 24.6176C6.71278 24.6176 6.70453 24.5855 6.7375 24.4677C6.7952 24.2534 6.78695 23.9964 6.72926 23.9964C6.68805 23.9964 6.67157 24.0713 6.67157 24.1892C6.67157 24.2963 6.64684 24.4248 6.61387 24.457C6.57266 24.5212 6.56442 24.4784 6.5809 24.2106C6.59739 24.0285 6.58914 23.8892 6.57266 23.8892C6.53145 23.8892 6.45727 24.157 6.43255 24.3927C6.41606 24.532 6.41606 24.532 6.38309 24.3606C6.35837 24.232 6.36661 24.1463 6.44079 23.9856C6.48762 23.8693 6.51567 23.7417 6.52321 23.6107C6.52321 23.4715 6.60563 23.3322 6.993 22.8288C7.24027 22.4967 7.54522 22.0789 7.65237 21.8968C7.84193 21.5969 7.85018 21.5755 7.84193 21.2648C7.84193 21.0934 7.82545 20.9328 7.80896 20.9113C7.75951 20.8471 7.69358 21.1899 7.72654 21.372C7.74303 21.5433 7.72654 21.5969 7.45456 22.0147C7.25887 22.3058 7.05259 22.5846 6.83641 22.8502C6.51497 23.2358 6.39958 23.4501 6.39958 23.6429C6.39958 23.7071 6.36661 23.8571 6.31716 23.9964C6.26771 24.1356 6.25122 24.2749 6.26771 24.307C6.28419 24.3391 6.26771 24.3391 6.24298 24.307C6.20177 24.2534 6.20177 24.1678 6.23474 23.9856C6.25361 23.895 6.2592 23.8005 6.25122 23.7071C6.21001 23.6 6.15232 23.7286 6.12759 23.9964C6.11111 24.1463 6.08638 24.2642 6.06165 24.2427C6.00396 24.1999 6.02044 23.9214 6.09462 23.7714C6.13583 23.6964 6.17704 23.525 6.20177 23.3858C6.25946 22.9894 6.39134 22.6681 6.67981 22.2396C6.77219 22.1089 6.86019 21.9731 6.94355 21.8326L6.86113 21.4791C6.75059 21.0014 6.74488 20.4932 6.84465 20.0115C6.95179 19.6045 7.16609 19.1974 7.50401 18.7583C7.83369 18.3405 8.15513 18.0834 8.32821 18.0727ZM9.56452 21.5219C9.57493 21.5209 9.58547 21.5218 9.59544 21.5246C9.60541 21.5274 9.6146 21.5319 9.62238 21.538C9.63017 21.5441 9.63638 21.5515 9.64062 21.5598C9.64485 21.5681 9.647 21.5771 9.64694 21.5862C9.64188 21.5988 9.63241 21.6097 9.61986 21.6174C9.6073 21.6252 9.59228 21.6293 9.57688 21.6293C9.56148 21.6293 9.54646 21.6252 9.5339 21.6174C9.52135 21.6097 9.51189 21.5988 9.50682 21.5862C9.5064 21.5714 9.51191 21.5568 9.52243 21.5451C9.53294 21.5334 9.54781 21.5252 9.56452 21.5219ZM9.77057 21.5541C9.78098 21.553 9.79152 21.554 9.80149 21.5567C9.81147 21.5595 9.82065 21.5641 9.82843 21.5702C9.83622 21.5762 9.84243 21.5837 9.84667 21.592C9.8509 21.6003 9.85305 21.6092 9.85299 21.6183C9.84793 21.6309 9.83846 21.6419 9.82591 21.6496C9.81335 21.6573 9.79833 21.6615 9.78293 21.6615C9.76753 21.6615 9.75251 21.6573 9.73995 21.6496C9.7274 21.6419 9.71794 21.6309 9.71287 21.6183C9.71245 21.6035 9.71796 21.589 9.72848 21.5773C9.73899 21.5655 9.75387 21.5573 9.77057 21.5541ZM9.98486 21.6076C9.99527 21.6066 10.0058 21.6075 10.0158 21.6103C10.0258 21.6131 10.0349 21.6176 10.0427 21.6237C10.0505 21.6298 10.0567 21.6372 10.061 21.6455C10.0652 21.6538 10.0673 21.6628 10.0673 21.6719C10.0622 21.6845 10.0528 21.6954 10.0402 21.7031C10.0276 21.7109 10.0126 21.715 9.99722 21.715C9.98182 21.715 9.9668 21.7109 9.95425 21.7031C9.94169 21.6954 9.93223 21.6845 9.92717 21.6719C9.92674 21.657 9.93225 21.6425 9.94277 21.6308C9.95329 21.6191 9.96816 21.6109 9.98486 21.6076ZM10.1827 21.6612C10.1931 21.6602 10.2036 21.6611 10.2136 21.6639C10.2236 21.6666 10.2327 21.6712 10.2405 21.6773C10.2483 21.6833 10.2545 21.6908 10.2588 21.6991C10.263 21.7074 10.2652 21.7164 10.2651 21.7254C10.26 21.738 10.2506 21.749 10.238 21.7567C10.2255 21.7644 10.2104 21.7686 10.195 21.7686C10.1796 21.7686 10.1646 21.7644 10.1521 21.7567C10.1395 21.749 10.13 21.738 10.125 21.7254C10.1245 21.7106 10.1301 21.6961 10.1406 21.6844C10.1511 21.6727 10.166 21.6645 10.1827 21.6612ZM9.66342 21.7254C9.67383 21.7244 9.68437 21.7253 9.69435 21.7281C9.70432 21.7309 9.7135 21.7355 9.72129 21.7415C9.72907 21.7476 9.73529 21.755 9.73952 21.7634C9.74375 21.7717 9.74591 21.7806 9.74584 21.7897C9.74078 21.8023 9.73131 21.8132 9.71876 21.821C9.70621 21.8287 9.69119 21.8329 9.67578 21.8329C9.66038 21.8329 9.64536 21.8287 9.63281 21.821C9.62025 21.8132 9.61079 21.8023 9.60573 21.7897C9.6053 21.7749 9.61081 21.7604 9.62133 21.7487C9.63185 21.7369 9.64672 21.7287 9.66342 21.7254ZM9.86123 21.7683C9.87164 21.7673 9.88218 21.7682 9.89215 21.771C9.90213 21.7737 9.91131 21.7783 9.9191 21.7844C9.92688 21.7905 9.9331 21.7979 9.93733 21.8062C9.94156 21.8145 9.94372 21.8235 9.94365 21.8326C9.93859 21.8452 9.92912 21.8561 9.91657 21.8638C9.90402 21.8716 9.889 21.8757 9.87359 21.8757C9.85819 21.8757 9.84317 21.8716 9.83062 21.8638C9.81806 21.8561 9.8086 21.8452 9.80354 21.8326C9.80311 21.8177 9.80862 21.8032 9.81914 21.7915C9.82966 21.7798 9.84453 21.7716 9.86123 21.7683ZM10.2898 21.7897C10.3002 21.7887 10.3108 21.7896 10.3207 21.7924C10.3307 21.7952 10.3399 21.7997 10.3477 21.8058C10.3555 21.8119 10.3617 21.8193 10.3659 21.8276C10.3701 21.8359 10.3723 21.8449 10.3722 21.854C10.3672 21.8666 10.3577 21.8775 10.3452 21.8852C10.3326 21.893 10.3176 21.8971 10.3022 21.8971C10.2868 21.8971 10.2718 21.893 10.2592 21.8852C10.2466 21.8775 10.2372 21.8666 10.2321 21.854C10.2317 21.8391 10.2372 21.8246 10.2477 21.8129C10.2582 21.8012 10.2731 21.793 10.2898 21.7897ZM10.0673 21.7897C10.0777 21.7887 10.0882 21.7896 10.0982 21.7924C10.1082 21.7952 10.1174 21.7997 10.1251 21.8058C10.1329 21.8119 10.1391 21.8193 10.1434 21.8276C10.1476 21.8359 10.1498 21.8449 10.1497 21.854C10.1446 21.8666 10.1352 21.8775 10.1226 21.8852C10.1101 21.893 10.095 21.8971 10.0796 21.8971C10.0642 21.8971 10.0492 21.893 10.0367 21.8852C10.0241 21.8775 10.0146 21.8666 10.0096 21.854C10.0092 21.8391 10.0147 21.8246 10.0252 21.8129C10.0357 21.8012 10.0506 21.793 10.0673 21.7897ZM10.4794 21.854C10.4876 21.854 10.7843 21.9397 11.1387 22.0682L11.7899 22.3146L11.6662 22.6038C11.5972 22.7587 11.5312 22.9158 11.4684 23.0751C11.386 23.2894 11.3695 23.2894 10.9739 23.1715C10.5453 23.043 9.86947 22.9252 9.17714 22.8502L8.51778 22.7752L8.76504 22.6574C8.91434 22.5827 9.06019 22.4968 9.20187 22.4003C9.36671 22.2825 9.43265 22.261 9.68815 22.2932C10.059 22.3253 10.3063 22.2289 10.4052 22.0361L10.4876 21.854H10.4794ZM9.75408 21.9183C9.7645 21.9172 9.77503 21.9182 9.78501 21.9209C9.79498 21.9237 9.80416 21.9283 9.81195 21.9344C9.81974 21.9404 9.82595 21.9479 9.83018 21.9562C9.83441 21.9645 9.83657 21.9735 9.8365 21.9825C9.83144 21.9951 9.82198 22.0061 9.80942 22.0138C9.79687 22.0215 9.78185 22.0257 9.76645 22.0257C9.75104 22.0257 9.73602 22.0215 9.72347 22.0138C9.71092 22.0061 9.70145 21.9951 9.69639 21.9825C9.69596 21.9677 9.70148 21.9532 9.71199 21.9415C9.72251 21.9298 9.73738 21.9216 9.75408 21.9183ZM10.2156 21.9183C10.226 21.9172 10.2366 21.9182 10.2466 21.9209C10.2565 21.9237 10.2657 21.9283 10.2735 21.9344C10.2813 21.9404 10.2875 21.9479 10.2917 21.9562C10.296 21.9645 10.2981 21.9735 10.2981 21.9825C10.2918 21.993 10.2824 22.0018 10.2707 22.008C10.2591 22.0141 10.2457 22.0174 10.2321 22.0174C10.2185 22.0174 10.2051 22.0141 10.1935 22.008C10.1819 22.0018 10.1724 21.993 10.1662 21.9825C10.1658 21.9677 10.1713 21.9532 10.1818 21.9415C10.1923 21.9298 10.2072 21.9216 10.2239 21.9183H10.2156ZM9.55628 21.9183C9.56669 21.9172 9.57722 21.9182 9.5872 21.9209C9.59717 21.9237 9.60636 21.9283 9.61414 21.9344C9.62193 21.9404 9.62814 21.9479 9.63237 21.9562C9.63661 21.9645 9.63876 21.9735 9.6387 21.9825C9.63363 21.9951 9.62417 22.0061 9.61161 22.0138C9.59906 22.0215 9.58404 22.0257 9.56864 22.0257C9.55324 22.0257 9.53822 22.0215 9.52566 22.0138C9.51311 22.0061 9.50364 21.9951 9.49858 21.9825C9.50076 21.9696 9.50745 21.9575 9.51776 21.9479C9.52807 21.9384 9.54151 21.9317 9.55628 21.929V21.9183ZM9.9931 21.9397C10.0122 21.9376 10.0314 21.942 10.0468 21.952C10.0622 21.962 10.0725 21.9768 10.0755 21.9932C10.0705 22.0058 10.061 22.0168 10.0484 22.0245C10.0359 22.0322 10.0209 22.0364 10.0055 22.0364C9.99006 22.0364 9.97504 22.0322 9.96249 22.0245C9.94994 22.0168 9.94047 22.0058 9.93541 21.9932C9.93758 21.9803 9.94428 21.9682 9.95459 21.9586C9.9649 21.9491 9.97833 21.9425 9.9931 21.9397ZM9.44913 22.0575C9.45954 22.0565 9.47008 22.0574 9.48005 22.0602C9.49003 22.063 9.49921 22.0675 9.507 22.0736C9.51478 22.0797 9.521 22.0871 9.52523 22.0954C9.52946 22.1037 9.53161 22.1127 9.53155 22.1218C9.52649 22.1344 9.51702 22.1453 9.50447 22.153C9.49191 22.1608 9.47689 22.1649 9.46149 22.1649C9.44609 22.1649 9.43107 22.1608 9.41852 22.153C9.40596 22.1453 9.3965 22.1344 9.39143 22.1218C9.39101 22.1069 9.39652 22.0924 9.40704 22.0807C9.41755 22.069 9.43243 22.0608 9.44913 22.0575ZM9.65518 22.0575C9.66672 22.0562 9.67844 22.0573 9.6894 22.0607C9.70036 22.0641 9.71026 22.0696 9.71828 22.0769C9.7263 22.0842 9.73223 22.0931 9.73559 22.1027C9.73894 22.1124 9.73963 22.1226 9.7376 22.1325C9.73254 22.1451 9.72307 22.156 9.71052 22.1638C9.69797 22.1715 9.68295 22.1756 9.66754 22.1756C9.65214 22.1756 9.63712 22.1715 9.62457 22.1638C9.61201 22.156 9.60255 22.1451 9.59749 22.1325C9.59706 22.1177 9.60257 22.1032 9.61309 22.0914C9.6236 22.0797 9.63848 22.0715 9.65518 22.0682V22.0575ZM9.86947 22.0789C9.88854 22.0769 9.90779 22.0813 9.92317 22.0913C9.93854 22.1013 9.94884 22.1161 9.95189 22.1325C9.94683 22.1451 9.93737 22.156 9.92481 22.1638C9.91226 22.1715 9.89724 22.1756 9.88184 22.1756C9.86643 22.1756 9.85141 22.1715 9.83886 22.1638C9.82631 22.156 9.81684 22.1451 9.81178 22.1325C9.81395 22.1195 9.82065 22.1075 9.83096 22.0979C9.84127 22.0883 9.8547 22.0817 9.86947 22.0789ZM10.1002 22.0789C10.1107 22.0779 10.1212 22.0788 10.1312 22.0816C10.1411 22.0844 10.1503 22.089 10.1581 22.095C10.1659 22.1011 10.1721 22.1085 10.1763 22.1168C10.1806 22.1251 10.1827 22.1341 10.1827 22.1432C10.1776 22.1558 10.1681 22.1667 10.1556 22.1745C10.143 22.1822 10.128 22.1864 10.1126 22.1864C10.0972 22.1864 10.0822 22.1822 10.0696 22.1745C10.0571 22.1667 10.0476 22.1558 10.0426 22.1432C10.0421 22.1284 10.0476 22.1139 10.0582 22.1021C10.0687 22.0904 10.0835 22.0822 10.1002 22.0789ZM8.42712 22.9466C9.40006 22.9801 10.3685 23.1307 11.3201 23.3965C11.3283 23.4072 11.2706 23.6643 11.18 23.9749L11.0151 24.6176C11.0069 24.6712 10.9492 24.6712 10.8091 24.6498C10.125 24.5105 8.14689 24.5212 7.38862 24.6712C6.95179 24.7569 6.8941 24.7462 6.92707 24.6284L7.00949 24.2534L7.05894 23.9642L7.50401 23.6643C7.80067 23.4676 8.08218 23.2344 8.3447 22.968H8.41888L8.42712 22.9466ZM6.20177 24.4677C6.2265 24.4677 6.27595 24.4998 6.33364 24.5534C6.41606 24.6177 6.51497 24.6712 6.55618 24.6712C6.77047 24.6712 6.88586 25.0675 7.06718 26.3851L7.13312 26.8564C7.1496 26.9636 7.13312 26.985 6.94355 27.0385C6.71277 27.1028 6.65508 27.1135 6.65508 27.0707C6.65508 26.9636 6.4243 25.6031 6.3254 25.1211C6.27617 24.9088 6.23219 24.6944 6.19353 24.4784C6.19478 24.4775 6.1962 24.477 6.19765 24.477C6.1991 24.477 6.20052 24.4775 6.20177 24.4784V24.4677ZM8.55899 24.6819H8.79801L8.71559 24.789C8.57547 25.0033 8.50954 25.014 8.41063 24.8747C8.3759 24.8281 8.34797 24.7737 8.32821 24.7141C8.32821 24.6926 8.43536 24.6712 8.55899 24.6712V24.6819ZM9.06175 24.6819H9.50682L9.40792 24.8105C9.29253 24.9819 9.28429 24.9819 9.16066 24.8105L9.06175 24.6712V24.6819ZM9.7376 24.6819H9.84475C9.90244 24.6819 10.0096 24.6819 10.0755 24.7033L10.1992 24.7355L10.0838 24.8747C10.0178 24.9497 9.96013 25.014 9.95189 25.0033L9.8365 24.8319L9.7376 24.6712V24.6819ZM10.4382 24.7141L10.5371 24.7462C10.5948 24.7676 10.7184 24.7783 10.8091 24.789H10.9739L10.8503 24.9283C10.8055 24.9826 10.7556 25.0294 10.7019 25.0675C10.6937 25.0675 10.6195 24.9819 10.5618 24.8854L10.4382 24.7141ZM7.94908 24.7248H7.96556C7.97381 24.7462 7.94084 24.8319 7.88314 24.9069L7.80072 25.0568L7.67709 24.9283L7.55346 24.789L7.75127 24.7569L7.94908 24.7248ZM8.13865 24.7462L8.27052 24.8962L8.40239 25.0568L8.15513 25.0783L7.90787 25.089L8.02326 24.9283L8.13865 24.7462ZM9.62221 24.7462C9.64694 24.7462 9.66342 24.7569 9.68815 24.7783C9.73125 24.831 9.76744 24.8926 9.79529 24.9604C9.82826 25.0461 9.82002 25.0675 9.71287 25.0675L9.50682 25.014L9.40792 24.9819L9.51507 24.8426C9.56452 24.7783 9.59749 24.7355 9.63045 24.7355L9.62221 24.7462ZM8.93812 24.7462C8.97933 24.7462 9.02054 24.7783 9.07 24.8854C9.12769 25.0033 9.12769 25.0033 8.90515 25.0033H8.68262L8.79801 24.864C8.8557 24.789 8.90516 24.7569 8.93812 24.7569V24.7462ZM10.3393 24.7676L10.4382 24.8962C10.5536 25.0354 10.57 25.1211 10.4876 25.1104L10.2568 25.0783L10.0755 25.0568L10.2074 24.9176L10.3393 24.7676ZM7.43807 24.8426C7.45456 24.8426 7.52049 24.8962 7.56995 24.9711L7.66885 25.1104L7.4628 25.1532L7.17433 25.2068C7.11663 25.2282 7.13312 25.1747 7.25675 25.0354C7.33917 24.9283 7.42159 24.8426 7.43807 24.8426ZM7.13312 24.8426H7.16609C7.23202 24.864 7.23202 24.8854 7.11663 25.0354L6.993 25.1961L6.95179 25.0568C6.91883 24.9497 6.92707 24.9176 7.00125 24.8747C7.04348 24.8543 7.08807 24.8435 7.13312 24.8426ZM10.9245 25.0354C10.9409 25.0354 10.9409 25.0568 10.9245 25.0997C10.908 25.1854 10.8338 25.2068 10.8338 25.1211C10.8338 25.0997 10.8585 25.0675 10.8915 25.0461H10.9162L10.9245 25.0354ZM9.16066 25.2068C9.79529 25.2068 10.4382 25.2282 10.5948 25.2497C10.8503 25.2925 10.875 25.3032 10.875 25.4318C10.875 25.5817 10.842 25.5924 10.4959 25.5174C10.397 25.4853 9.97662 25.4425 9.57276 25.3996C8.78893 25.338 8.00236 25.3739 7.22378 25.5067C7.06718 25.5282 7.02597 25.5067 7.02597 25.4425C7.02597 25.3032 7.86666 25.2068 9.16066 25.2068ZM8.31173 25.5174H8.7568L8.65789 25.6567C8.53426 25.8281 8.52602 25.8281 8.41063 25.6567L8.31173 25.5174ZM8.88867 25.5174L9.00406 25.6674L9.11945 25.8388L8.88043 25.8495H8.64141L8.76504 25.6781L8.88043 25.5174H8.88867ZM9.06175 25.5174H9.50682L9.40792 25.6567C9.29253 25.8281 9.28429 25.8281 9.16066 25.6567L9.06175 25.5174ZM8.00677 25.5174C8.02326 25.5174 8.00677 25.571 7.94908 25.6781C7.89139 25.7745 7.83369 25.8495 7.82545 25.8495C7.80897 25.8495 7.75127 25.7852 7.70182 25.7103L7.60291 25.571H7.75127C7.82669 25.5715 7.90173 25.5571 7.97381 25.5282C7.98468 25.5253 7.9959 25.5253 8.00677 25.5282V25.5174ZM8.17161 25.571L8.27876 25.6995L8.40239 25.8388L8.1881 25.8602L7.94908 25.8817L8.06447 25.721L8.17161 25.571ZM9.60573 25.571L9.72112 25.7424C9.85299 25.9245 9.84475 25.9352 9.54803 25.8602L9.40792 25.8281L9.50682 25.6995L9.60573 25.571ZM9.77057 25.571H9.96838C10.1827 25.571 10.2074 25.6139 10.0838 25.7638C9.98486 25.8709 9.98486 25.8709 9.86947 25.7103L9.77057 25.571ZM7.24851 25.6246C7.34741 25.6246 7.33917 25.6353 7.21554 25.796C7.12488 25.9138 7.11663 25.9138 7.08367 25.8281C7.05894 25.721 7.13312 25.6353 7.24851 25.6246ZM10.4464 25.646C10.4794 25.646 10.5453 25.646 10.6113 25.6674L10.8008 25.7103L10.6937 25.8388L10.5948 25.9673L10.5041 25.8174L10.4217 25.646H10.4464ZM7.47928 25.6995C7.50401 25.6995 7.52874 25.721 7.56995 25.7745C7.65237 25.8817 7.65237 25.8817 7.58643 25.9245C7.52256 25.9518 7.45585 25.9663 7.38862 25.9673H7.25675L7.3639 25.8174C7.42159 25.7424 7.44632 25.7103 7.47104 25.6995H7.47928ZM10.2898 25.7317C10.3228 25.7317 10.3475 25.7531 10.3887 25.8388L10.4629 25.9673H10.2898C10.1744 25.9673 10.125 25.9459 10.125 25.9031C10.1415 25.8602 10.1827 25.796 10.2321 25.7638L10.2898 25.7317ZM10.8173 25.8709C10.8338 25.8709 10.8338 25.8924 10.8338 25.9245C10.8338 26.0316 10.7596 26.1066 10.7266 26.0316C10.7184 25.9995 10.7349 25.9459 10.7679 25.9138L10.8173 25.8709ZM8.68262 25.9995C9.39968 25.9995 10.1909 26.0638 10.6607 26.1709L10.7926 26.203V26.6743C10.7926 27.0278 10.7761 27.1457 10.7349 27.1457L10.3228 27.0385C9.36974 26.8285 8.39879 26.7925 7.43807 26.9314L7.24851 26.9636L7.19906 26.5672C7.17857 26.4331 7.16754 26.2969 7.16609 26.1602C7.16609 26.1602 7.35565 26.1066 7.57819 26.0745C7.85018 26.0209 8.25403 25.9995 8.68262 25.9995Z" fill="black"/>
<path d="M10.1235 23.3213C9.87621 23.3213 9.70312 23.5462 9.70312 23.8783C9.70312 24.3925 10.1482 24.6496 10.4119 24.2854C10.6757 23.9212 10.4944 23.3213 10.1235 23.3213ZM10.1235 23.4498C10.1668 23.4498 10.2096 23.4609 10.2496 23.4824C10.2896 23.504 10.326 23.5355 10.3566 23.5753C10.3872 23.6151 10.4115 23.6624 10.4281 23.7143C10.4446 23.7663 10.4532 23.822 10.4532 23.8783C10.4532 24.1997 10.1812 24.4139 9.95863 24.2746C9.73609 24.114 9.75258 23.6212 9.9916 23.4927C10.0305 23.4688 10.0724 23.4542 10.1152 23.4498H10.1235Z" fill="black"/>
<path d="M7.09281 15.5551C7.0584 15.5578 7.02593 15.5779 7.0016 15.6115C6.97727 15.6451 6.9628 15.6898 6.96094 15.7372C6.96094 15.7898 6.97613 15.8403 7.00318 15.8775C7.03023 15.9148 7.06692 15.9357 7.10517 15.9357C7.14343 15.9357 7.18011 15.9148 7.20716 15.8775C7.23421 15.8403 7.24941 15.7898 7.24941 15.7372C7.24848 15.7107 7.2436 15.6849 7.23508 15.6611C7.22656 15.6374 7.21458 15.6163 7.19989 15.5993C7.1852 15.5822 7.16812 15.5694 7.14969 15.5618C7.13127 15.5542 7.11191 15.5519 7.09281 15.5551ZM7.10105 15.6193C7.12728 15.6193 7.15244 15.6318 7.17099 15.6539C7.18954 15.676 7.19996 15.7059 7.19996 15.7372C7.19996 15.7684 7.18954 15.7984 7.17099 15.8205C7.15244 15.8426 7.12728 15.855 7.10105 15.855C7.07482 15.855 7.04966 15.8426 7.03112 15.8205C7.01257 15.7984 7.00215 15.7684 7.00215 15.7372C7.00215 15.7217 7.00471 15.7064 7.00968 15.6921C7.01465 15.6778 7.02193 15.6648 7.03112 15.6539C7.0403 15.6429 7.0512 15.6342 7.0632 15.6283C7.0752 15.6224 7.08806 15.6193 7.10105 15.6193Z" fill="black"/>
</g>
<defs>
<clipPath id="clip0_45_22526">
<rect width="45" height="45" fill="white"/>
</clipPath>
</defs>
</svg>
