<svg width="16" height="16" viewBox="0 0 16 16" fill="none" xmlns="http://www.w3.org/2000/svg">
<g clip-path="url(#clip0_467_1021)">
<path d="M0.566391 0.5H15.4336L14.5039 7.93798L14.4961 8L14.5039 8.06202L15.4336 15.5H0.566391L1.49614 8.06202L1.50389 8L1.49614 7.93798L0.566391 0.5Z" fill="#009AFE" stroke="#009AFE"/>
<path d="M6.56502 9.3207L10.7982 5.19242C10.9297 5.06414 11.0972 5 11.3004 5C11.5037 5 11.6712 5.06414 11.8027 5.19242C11.9342 5.3207 12 5.48396 12 5.68222C12 5.88047 11.9342 6.04373 11.8027 6.17201L7.06726 10.7901C6.92377 10.93 6.75635 11 6.56502 11C6.37369 11 6.20628 10.93 6.06278 10.7901L4.19731 8.97085C4.06577 8.84257 4 8.6793 4 8.48105C4 8.2828 4.06577 8.11953 4.19731 7.99125C4.32885 7.86297 4.49626 7.79883 4.69955 7.79883C4.90284 7.79883 5.07025 7.86297 5.20179 7.99125L6.56502 9.3207Z" fill="white"/>
</g>
<defs>
<clipPath id="clip0_467_1021">
<rect width="16" height="16" fill="white"/>
</clipPath>
</defs>
</svg>
