<svg width="16" height="17" viewBox="0 0 16 17" fill="none" xmlns="http://www.w3.org/2000/svg">
<g id="Icon/Password hidden">
<g id="Subtract">
<path d="M8.31152 3.33316C6.47736 3.33316 4.82349 4.05395 3.62723 5.06534C2.44405 6.06567 1.64355 7.41017 1.64355 8.70116C1.64355 9.99216 2.44405 11.3367 3.62723 12.337C3.84975 12.5251 4.08811 12.7032 4.34052 12.8685L5.05721 12.1388C4.77653 11.9672 4.51402 11.7772 4.27286 11.5733C3.22372 10.6863 2.64355 9.59683 2.64355 8.70116C2.64355 7.80549 3.22372 6.71599 4.27286 5.82899C5.30893 4.95304 6.73904 4.33316 8.31152 4.33316C9.58441 4.33316 10.7642 4.73918 11.7171 5.35848L12.4301 4.63259C11.3013 3.85441 9.87153 3.33316 8.31152 3.33316Z" fill="#009AFE"/>
<path d="M13.6544 5.70074C13.4714 5.49826 13.1574 5.50451 12.9661 5.69925V5.69925C12.7706 5.89829 12.7784 6.21751 12.9628 6.42691C13.6227 7.17639 13.9795 7.99804 13.9795 8.70116C13.9795 9.59785 13.3991 10.6873 12.35 11.574C11.3139 12.4497 9.88376 13.0692 8.31152 13.0692C7.65847 13.0692 7.02997 12.9622 6.44405 12.7745C6.24904 12.712 6.03328 12.7575 5.88979 12.9036V12.9036C5.63808 13.1598 5.7198 13.5877 6.0606 13.7012C6.76251 13.935 7.52024 14.0692 8.31152 14.0692C10.1453 14.0692 11.7991 13.3489 12.9955 12.3378C14.1789 11.3377 14.9795 9.99314 14.9795 8.70116C14.9795 7.6668 14.4663 6.59877 13.6544 5.70074Z" fill="#009AFE"/>
</g>
<path id="Fill 1" fill-rule="evenodd" clip-rule="evenodd" d="M6.77975 10.9115C6.65175 10.9115 6.52375 10.8629 6.42642 10.7649C5.93442 10.2735 5.66309 9.62021 5.66309 8.92554C5.66309 7.48554 6.83375 6.31421 8.27242 6.31421C8.96442 6.31421 9.63642 6.59354 10.1158 7.08088C10.3091 7.27821 10.3071 7.59421 10.1098 7.78754C9.91309 7.98221 9.59709 7.97888 9.40309 7.78288C9.11042 7.48488 8.69842 7.31421 8.27242 7.31421C7.38509 7.31421 6.66309 8.03688 6.66309 8.92554C6.66309 9.35288 6.83042 9.75554 7.13309 10.0582C7.32842 10.2535 7.32842 10.5695 7.13375 10.7649C7.03575 10.8629 6.90775 10.9115 6.77975 10.9115" fill="white"/>
<path id="Fill 3" fill-rule="evenodd" clip-rule="evenodd" d="M8.65084 11.4942C8.41417 11.4942 8.20351 11.3249 8.15951 11.0835C8.11017 10.8122 8.29017 10.5515 8.56217 10.5022C9.21551 10.3835 9.73284 9.86488 9.85017 9.21088C9.89951 8.93954 10.1595 8.76088 10.4308 8.80754C10.7028 8.85621 10.8835 9.11621 10.8348 9.38821C10.6435 10.4502 9.80217 11.2929 8.74084 11.4862C8.71084 11.4915 8.68017 11.4942 8.65084 11.4942" fill="white"/>
<path id="Fill 11" fill-rule="evenodd" clip-rule="evenodd" d="M3.01448 14.6823C2.88648 14.6823 2.75848 14.6337 2.66115 14.5357C2.46582 14.3403 2.46582 14.0243 2.66115 13.829L13.1771 3.313C13.3725 3.11767 13.6885 3.11767 13.8838 3.313C14.0791 3.50834 14.0791 3.825 13.8838 4.02034L3.36782 14.5357C3.27048 14.6337 3.14248 14.6823 3.01448 14.6823" fill="white"/>
</g>
</svg>
